<?xml version="1.0" standalone="no"?>
<!DOCTYPE svg PUBLIC "-//W3C//DTD SVG 1.1//EN" "http://www.w3.org/Graphics/SVG/1.1/DTD/svg11.dtd" >
<svg xmlns="http://www.w3.org/2000/svg" xmlns:xlink="http://www.w3.org/1999/xlink" version="1.1">
<metadata>
Created by FontForge 20161003 at Sun Feb 11 11:04:17 2018
 By www-data
Copyright (c) 2017 by Zetafonts. All rights reserved.
</metadata>
<defs>
<font id="demibold" horiz-adv-x="1039" >
  <font-face 
    font-family="demibold"
    font-weight="600"
    font-stretch="normal"
    units-per-em="2000"
    panose-1="2 0 5 6 2 0 0 2 0 4"
    ascent="1600"
    descent="-400"
    x-height="942"
    cap-height="1280"
    bbox="-362 -661 2241 1793"
    underline-thickness="100"
    underline-position="-300"
    unicode-range="U+0020-FB03"
  />
<missing-glyph horiz-adv-x="450" 
 />
    <glyph glyph-name="ff" unicode="ff" horiz-adv-x="1209" 
d="M414 1077q-34 -35 -34 -85v-52h92q43 0 72 -28t29 -70q0 -43 -29 -72t-72 -29h-92v-639q0 -42 -29 -71q-30 -30 -70 -30t-70 30t-30 71v639h-66q-41 0 -70 30q-29 32 -29 71q0 42 28.5 70t70.5 28h66v52v4q1 135 92 224q87 84 226 84v-1q41 -2 67 -27.5t26 -65.5
q0 -37 -26 -66q-28 -28 -66 -32h-1q-52 0 -85 -35zM984 940h93q43 0 71 -28q29 -29 29 -70q0 -42 -29 -71q-30 -30 -71 -30h-93v-639q0 -43 -28 -71q-30 -30 -71 -30q-40 0 -70 30t-30 71v639h-65q-42 0 -71 30q-29 32 -29 71q0 41 29 70q28 28 71 28h65v48q0 141 89 228
q83 83 218 88h11q42 -2 68 -27.5t26 -66.5q0 -39 -26.5 -67t-66.5 -31h-5q-45 -1 -81 -37q-34 -34 -34 -83v-52z" />
    <glyph glyph-name="fi" unicode="fi" horiz-adv-x="1003" 
d="M281 1q-40 0 -70 30t-30 71v639h-66q-41 0 -70 30q-29 32 -29 71q0 42 28.5 70t70.5 28h66v56q1 135 90 222q84 81 216 86h12v-1q41 -2 67 -27.5t26 -65.5q0 -37 -26 -66q-28 -28 -66 -32h-1q-51 0 -83 -34q-34 -34 -36 -82v-56h92q43 0 72 -28t29 -70q0 -43 -29 -72
t-72 -29h-92v-639q0 -42 -29 -71q-30 -30 -70 -30zM803 1038q-46 0 -78 32t-32 78q0 47 32 79t78 32q47 0 79 -32q33 -33 33 -79q0 -45 -33 -78q-32 -32 -79 -32zM805 0q-39 0 -71 29q-30 28 -30 70v744q0 43 30 71q32 29 72 29q42 0 69.5 -29t27.5 -71v-744
q0 -42 -28 -70.5t-70 -28.5z" />
    <glyph glyph-name="ffi" unicode="ffi" horiz-adv-x="1607" 
d="M380 992v-52h92q43 0 72 -28t29 -70q0 -43 -29 -72t-72 -29h-92v-639q0 -42 -29 -71q-30 -30 -70 -30t-70 30t-30 71v639h-66q-41 0 -70 30q-29 32 -29 71q0 42 28.5 70t70.5 28h66v52v4q1 132 90 221q84 82 220 87h8v-1q41 -2 67 -27.5t26 -65.5q0 -37 -26 -66
q-28 -28 -66 -32h-1q-52 0 -85 -35q-34 -35 -34 -85zM984 940h93q43 0 71 -28q29 -29 29 -70q0 -42 -29 -71q-30 -30 -71 -30h-93v-639q0 -43 -28 -71q-30 -30 -71 -30q-40 0 -70 30t-30 71v639h-65q-42 0 -71 30q-29 32 -29 71q0 41 29 70q28 28 71 28h65v52v4
q1 132 90 221q87 85 221 87h7q42 -2 68 -27.5t26 -66.5q0 -39 -26.5 -67t-66.5 -31q-51 0 -85 -34q-35 -35 -35 -83v-55zM1408 1038q-46 0 -78 32q-33 33 -33 78q0 46 33 79q32 32 78 32t78 -32q33 -33 33 -79q0 -45 -33 -78q-32 -32 -78 -32zM1410 943q43 0 70 -29
q28 -29 28 -71v-744q0 -42 -28.5 -70.5t-70.5 -28.5q-41 0 -70 29q-30 30 -30 70v744q0 43 30 71q32 29 71 29z" />
    <glyph glyph-name="f_j" unicode="fj" horiz-adv-x="1006" 
d="M281 1q-40 0 -70 30t-30 71v639h-66q-41 0 -70 30q-29 32 -29 71q0 42 28.5 70t70.5 28h66v56q1 135 90 222q84 81 216 86h12v-1q41 -2 67 -27.5t26 -65.5q0 -37 -26 -66q-28 -28 -66 -32h-1q-50 0 -84 -34t-35 -82v-56h92q43 0 72 -28t29 -70q0 -43 -29 -72t-72 -29h-92
v-639q0 -42 -29 -71q-30 -30 -70 -30zM802 1028q-46 0 -76 32q-31 32 -31 78t33 79q32 32 78 32q45 0 77 -32q31 -32 31 -79q0 -45 -33 -78q-32 -32 -79 -32zM586 -289h-4q-42 0 -71 29t-29 71q0 43 29 72t71 29h4q47 0 85 35q35 32 35 84v809q0 42 30 72q29 29 70 29
q42 0 71 -29q28 -28 28 -72v-809q0 -11 -1 -13q-6 -129 -97 -218t-221 -89z" />
    <glyph glyph-name="f_f_j" unicode="ffj" horiz-adv-x="1610" 
d="M413 1075q-33 -33 -33 -83v-52h92q43 0 72 -28t29 -70q0 -43 -29 -72t-72 -29h-92v-639q0 -42 -29 -71q-30 -30 -70 -30t-70 30t-30 71v639h-66q-41 0 -70 30q-29 32 -29 71q0 42 28.5 70t70.5 28h66v56q1 135 90 222q84 81 216 86h12v-1q41 -2 67 -27.5t26 -65.5
q0 -37 -26 -66q-28 -28 -66 -32h-6q-45 -1 -81 -37zM1177 842q0 -42 -29 -71q-30 -30 -71 -30h-93v-639q0 -43 -28 -71q-30 -30 -71 -30q-40 0 -70 30t-30 71v639h-65q-42 0 -71 30q-29 32 -29 71q0 41 29 70q28 28 71 28h65v52v4q1 132 90 221q87 85 221 87h7
q42 -2 68 -27.5t26 -66.5q0 -40 -28 -68q-29 -28 -69 -30q-49 -2 -82 -36q-34 -37 -34 -84v-52h93q43 0 71 -28q29 -29 29 -70zM1407 1028q-46 0 -76 32q-32 32 -32 78t33 79q32 32 78 32q45 0 77 -32q31 -32 31 -79q0 -45 -33 -78q-32 -32 -78 -32zM1410 941q42 0 70.5 -29
t28.5 -72v-809v-6q0 -6 -1 -7q-6 -128 -97 -217q-90 -90 -220 -90h-5q-41 0 -70 29q-30 30 -30 71q0 42 30 72q29 29 70 29h5q47 0 85 35q34 31 34 84v809q0 42 30 72q29 29 70 29z" />
    <glyph glyph-name=".notdef" horiz-adv-x="450" 
 />
    <glyph glyph-name=".null" horiz-adv-x="0" 
 />
    <glyph glyph-name="nonmarkingreturn" horiz-adv-x="666" 
 />
    <glyph glyph-name="space" unicode=" " horiz-adv-x="450" 
 />
    <glyph glyph-name="exclam" unicode="!" horiz-adv-x="473" 
d="M232 306q-42 0 -70 29t-28 72v772q0 42 30 72q29 29 70 29q42 0 71 -29q28 -28 28 -72v-772q0 -43 -29 -72t-72 -29zM237 0q-45 0 -76 31t-31 76q0 43 31 75q31 31 76 31q43 0 75 -31q31 -32 31 -75q0 -45 -31 -76q-32 -31 -75 -31z" />
    <glyph glyph-name="quotedbl" unicode="&#x22;" horiz-adv-x="712" 
d="M186 790q-42 0 -70.5 28.5t-28.5 70.5v292q0 43 29 70q29 28 70 28q42 0 71 -28q29 -27 29 -70v-292q0 -41 -29 -70t-71 -29zM525 790q-42 0 -70.5 28.5t-28.5 70.5v292q0 43 29 70q29 28 70 28q43 0 71.5 -28t28.5 -70v-292q0 -42 -29 -70.5t-71 -28.5z" />
    <glyph glyph-name="numbersign" unicode="#" horiz-adv-x="1229" 
d="M684 6q-36 10 -57 34.5t-21 57.5q0 13 3 25l48 203h-244l-60 -251q-8 -33 -34.5 -52t-62.5 -19q-15 0 -30 3q-36 7 -56.5 30.5t-20.5 56.5q0 11 3 23l49 209h-74q-42 0 -67.5 27t-25.5 70q0 44 26 74t66 30h122l58 244h-77q-42 0 -67 27t-25 72q0 44 25 73t66 29h125
l55 233q8 39 52 62q30 14 54 14q12 0 30 -5q32 -10 50.5 -37.5t18.5 -63.5q0 -20 -4 -35l-41 -168h241l54 225q8 41 46 64q27 18 60 18q45 0 72.5 -29t27.5 -74q0 -21 -4 -36l-41 -168h78q41 0 65 -24.5t28 -69.5q2 -44 -23 -74q-28 -33 -69 -33h-127l-58 -244h92
q42 0 67.5 -26.5t26.5 -69.5q0 -46 -25.5 -75.5t-67.5 -29.5h-141l-60 -251q-10 -41 -46 -60q-24 -12 -52 -12q-14 0 -28 3zM462 527h242l58 244h-242z" />
    <glyph glyph-name="dollar" unicode="$" horiz-adv-x="992" 
d="M504 -175q-36 0 -61 24.5t-25 60.5v83q-127 18 -220 85q-96 69 -136 156q-13 26 -13 53q0 14 5 32q10 31 47 52q23 13 44 13q44 0 92 -60q87 -138 268 -138q98 0 164 48q76 52 76 136q0 82 -77 126q-42 24 -135 47l-26 7q-197 37 -304 121q-124 97 -124 249
q0 138 100 241q91 96 239 121v75q0 35 26 61q24 24 61 24q34 0 58 -24q24 -26 24 -61v-75q98 -15 174 -61.5t120 -118.5q11 -19 11 -38q0 -3 -2 -19q-8 -28 -27 -47q-24 -24 -65 -24q-36 0 -59 18q-63 55 -105 74q-56 24 -132 24q-94 0 -156 -45q-67 -45 -67 -123t87 -122
q59 -29 203 -59q172 -45 258 -115q116 -93 116 -245q0 -147 -101 -254q-98 -106 -255 -132v-85q0 -36 -24 -60.5t-59 -24.5z" />
    <glyph glyph-name="percent" unicode="%" horiz-adv-x="1572" 
d="M368 632q-137 0 -232 97q-97 95 -97 231q0 135 97 232q95 97 232 97q135 0 232 -97q95 -97 95 -232q0 -136 -95 -231q-97 -97 -232 -97zM481 4q-52 28 -52 81q0 19 9 38l515 1105q19 34 53 46q15 6 31 6q20 0 38 -9q31 -16 44 -56q4 -11 4 -28q0 -25 -9 -45l-515 -1094
q-24 -52 -80 -52q-20 0 -38 8zM368 815q58 0 102 43q43 41 43 102q0 60 -43 103q-44 41 -102 41q-61 0 -102 -41q-43 -43 -43 -103q0 -59 43 -102t102 -43zM1201 -12q-136 0 -231 97q-96 96 -96 231q0 134 96 232q95 97 231 97t233 -97q96 -98 96 -232q0 -135 -96 -231
q-97 -97 -233 -97zM1201 171q60 0 103 43q42 42 42 102q0 61 -42 103q-41 41 -103 41q-60 0 -101 -41q-43 -43 -43 -103q0 -59 43 -102t101 -43z" />
    <glyph glyph-name="ampersand" unicode="&#x26;" horiz-adv-x="1163" 
d="M430 -12q-158 0 -273 115q-114 116 -114 274q0 103 51 186q43 71 121 126l-20 18l-5 4q-45 41 -75 102q-35 68 -35 139q0 139 99 238q98 98 237 98q140 0 237 -97q97 -100 97 -238q0 -200 -205 -306l211 -190l131 150q32 37 80 37q35 0 60 -23q35 -32 35 -76
q0 -37 -25 -65l-136 -154l174 -156q46 -40 46 -83q0 -25 -18 -48q-35 -42 -78 -42q-31 0 -60 24l-187 166l-63 -72l-12 -12q-55 -54 -126.5 -84.5t-146.5 -30.5zM402 776l2 1h1q71 19 116 69q47 52 47 103q0 59 -41 103q-42 44 -105 44q-61 0 -100 -42q-41 -44 -41 -102
q0 -35 26 -76q23 -35 47 -56zM423 182q78 0 147 62l63 72l-285 254q-122 -63 -122 -183q0 -83 58 -143q57 -62 139 -62z" />
    <glyph glyph-name="quotesingle" unicode="'" horiz-adv-x="373" 
d="M186 792q-41 0 -70 29t-29 71v292q0 43 29 70q29 28 70 28q42 0 71 -28q29 -27 29 -70v-292q0 -42 -29 -71t-71 -29z" />
    <glyph glyph-name="parenleft" unicode="(" horiz-adv-x="721" 
d="M602 -317q-225 0 -350 119q-122 114 -122 308v754q6 189 127 298q128 116 339 117h6q43 0 70.5 -28t27.5 -71q0 -42 -28 -70t-70 -28h-61q-86 0 -148 -68q-62 -69 -64 -158v-744q-2 -89 61 -160q62 -72 151 -72h61q42 0 70 -29t28 -71t-27.5 -69.5t-70.5 -27.5z" />
    <glyph glyph-name="parenright" unicode=")" horiz-adv-x="722" 
d="M83 -317h-6q-43 0 -70.5 27.5t-27.5 69.5t28 71t70 29h61q88 0 150 70q62 68 62 156v746q0 91 -61 160q-62 70 -150 70h-62q-42 0 -70 28t-28 70q0 43 27.5 71t70.5 28h6q216 -2 340 -118q120 -111 125 -300q1 -1 1 -9v-746q-2 -191 -121 -304q-123 -117 -345 -119z" />
    <glyph glyph-name="asterisk" unicode="*" horiz-adv-x="678" 
d="M344 721q-40 0 -71 30q-30 29 -30 71v40l-29 -17q-25 -19 -60 -19q-51 0 -80 41q-19 25 -19 61q0 50 42 80l50 30l-48 29q-44 25 -44 78q0 36 19 61q26 34 66 41q4 1 17 1q33 0 58 -19l28 -17v39q0 43 30 72t73 29q42 0 70 -29t28 -72v-38l25 15q22 19 58 19q50 0 83 -41
q19 -25 19 -60q0 -13 -1 -16q-7 -41 -43 -64l-48 -29l50 -29q41 -29 41 -81q0 -33 -18 -59q-30 -42 -80 -42q-34 0 -60 20l-26 15v-39q0 -42 -29 -71q-30 -30 -71 -30z" />
    <glyph glyph-name="plus" unicode="+" horiz-adv-x="822" 
d="M411 224q-42 0 -71 29q-30 30 -30 71v189h-189q-41 0 -71 30q-29 29 -29 70q0 39 29 71q29 30 71 30h189v190q0 42 30 71q32 29 71 29q42 0 71 -29t29 -71v-190h190q43 0 71 -30q29 -32 29 -73q0 -42 -29 -70t-71 -28h-190v-189q0 -42 -29 -71t-71 -29z" />
    <glyph glyph-name="comma" unicode="," horiz-adv-x="427" 
d="M199 -253q-43 0 -72 29.5t-29 73.5v279q0 43 30 74q28 30 71 30q44 0 71 -29.5t27 -74.5v-279q0 -45 -27 -74t-71 -29z" />
    <glyph glyph-name="hyphen" unicode="-" horiz-adv-x="910" 
d="M730 479h-563q-41 0 -71 30t-30 70q0 42 30 72q29 29 71 29h563q46 0 73 -30q29 -32 29 -71q0 -42 -29 -71t-73 -29z" />
    <glyph glyph-name="period" unicode="." horiz-adv-x="465" 
d="M216 -12q-48 0 -83 35t-35 84t35 84t83 35q49 0 84 -35t35 -84t-35 -84t-84 -35z" />
    <glyph glyph-name="slash" unicode="/" horiz-adv-x="590" 
d="M92 5q-40 14 -59 51q-11 24 -11 47q0 18 4 30l346 1075q11 33 37 51.5t59 18.5q13 0 33 -5q39 -13 58 -55q10 -20 10 -50q0 -15 -5 -33l-346 -1064q-12 -32 -38.5 -51t-58.5 -19q-17 0 -29 4z" />
    <glyph glyph-name="zero" unicode="0" horiz-adv-x="1404" 
d="M692 -12q-131 0 -250 50t-209 141q-91 91 -140 209.5t-49 249.5q0 178 88 329q86 148 232 233q154 89 328 89q178 0 329 -89q149 -87 234 -233q89 -155 89 -329q0 -131 -50 -249.5t-141 -209.5t-210.5 -141t-250.5 -50zM693 187q189 0 320 131t131 320q0 90 -34 172.5
t-97 145.5q-132 132 -320 132q-92 0 -174.5 -34.5t-143.5 -97.5q-63 -63 -97 -145.5t-34 -172.5q0 -189 131 -320q61 -63 143.5 -97t174.5 -34z" />
    <glyph glyph-name="one" unicode="1" horiz-adv-x="586" 
d="M358 0q-40 0 -72 30q-30 28 -30 71v903l-59 -36q-28 -15 -59 -15q-54 0 -80 45q-15 24 -15 53q0 12 3 24q9 40 46 62l207 127q22 12 46 14q1 1 7 1h6q42 0 69.5 -29t27.5 -72v-1077q0 -43 -27.5 -72t-69.5 -29z" />
    <glyph glyph-name="two" unicode="2" horiz-adv-x="938" 
d="M794 0h-650q-44 0 -72 31q-29 33 -28 73v9q0 6 1 8q3 23 20 43l7 7l481 512l1 1l6 7q50 53 78 94q47 71 47 127q0 87 -63 137q-61 50 -145 50q-80 0 -138 -44q-61 -45 -73 -118q0 -9 -1 -11q-17 -83 -95 -83q-45 0 -71 26.5t-26 69.5q0 14 1 19q8 122 118 224
q117 106 282 106q182 0 293 -97q115 -102 115 -269q0 -94 -41 -184q-43 -90 -138 -186l-343 -353h434q43 0 72 -28t29 -70q0 -43 -29 -72t-72 -29z" />
    <glyph glyph-name="three" unicode="3" horiz-adv-x="965" 
d="M467 -12q-128 0 -239 66q-115 67 -169 172q-16 28 -16 59q0 50 47 79q26 14 54 14q13 0 25 -3q40 -12 63 -50l3 -6q33 -60 96 -96t137 -36q108 0 179 74q74 76 74 178q0 101 -74 160q-69 55 -180 55h-92v1q-42 0 -66 29q-29 29 -29 72q0 40 30 70l274 261h-390
q-45 0 -73.5 25.5t-28.5 66.5q0 39 30 71q28 30 72 30h621q32 0 55.5 -17.5t33.5 -47.5q7 -15 7 -37q0 -41 -29 -70l-283 -272q146 -38 230 -140q91 -106 91 -257q0 -90 -35 -173t-98 -146q-64 -63 -147 -97.5t-173 -34.5z" />
    <glyph glyph-name="four" unicode="4" horiz-adv-x="963" 
d="M892 435q28 -29 28 -71t-28.5 -71t-70.5 -29h-88v-164q0 -42 -28 -71t-70 -29q-41 0 -71 30t-30 70v164h-389q-41 0 -71 30t-30 70v4q0 29 16 54l486 811q31 48 84 48q45 0 75 -30q28 -28 28 -73v-713h88q43 0 71 -30zM534 465v378l-240 -378h240z" />
    <glyph glyph-name="five" unicode="5" horiz-adv-x="949" 
d="M447 -11q-126 0 -240 72q-108 70 -158 186q-11 20 -11 46q0 41 29 70t70 29q30 0 55 -17t36 -45q29 -63 87 -103q61 -41 132 -41q100 0 171 71t71 169q0 100 -71 171t-171 71q-111 0 -180 -81q-29 -41 -77 -41q-3 0 -19 2q-38 8 -61.5 34.5t-23.5 62.5q0 11 1 14l49 535
q8 54 61 76q20 10 45 10h483q43 0 71 -30q29 -32 29 -73q0 -42 -29 -69.5t-71 -27.5h-399l-22 -240q68 25 143 25q181 0 311 -128q128 -130 128 -311t-128 -309q-130 -128 -311 -128z" />
    <glyph glyph-name="six" unicode="6" horiz-adv-x="976" 
d="M478 -8q-176 0 -305 127q-127 127 -127 304q0 120 61 221l312 590q22 36 63 50q12 3 25 3q30 0 52 -13q50 -30 50 -84q0 -27 -17 -56l-153 -281q34 2 39 2q180 0 306 -126q125 -125 125 -306q0 -179 -125 -304q-127 -127 -306 -127zM475 180q101 0 172 71q69 69 69 169
q0 99 -70 171q-71 69 -171 69q-101 0 -170 -69q-71 -71 -71 -171t71 -169q69 -71 170 -71z" />
    <glyph glyph-name="seven" unicode="7" horiz-adv-x="954" 
d="M322 4q-18 -5 -31 -5q-25 0 -47 13q-36 19 -43 61q-2 18 -2 20q0 28 14 58l435 930h-494q-43 0 -73 28t-30 70q0 43 30 72q32 29 73 29h653q32 0 58.5 -20t38.5 -51q4 -13 5 -28v-4q0 -1 -2 -19q-2 -11 -11 -28v-1l-513 -1077q-20 -36 -61 -48z" />
    <glyph glyph-name="eight" unicode="8" horiz-adv-x="913" 
d="M456 -12q-171 0 -292 121t-121 293q0 100 48 185.5t133 144.5q-101 90 -101 218q0 140 98 236q94 94 232 94q137 0 233 -94q98 -96 98 -236q0 -127 -102 -215q85 -55 136 -141q52 -91 52 -192q0 -172 -121 -293q-123 -121 -293 -121zM454 825q57 0 98 41t41 98t-41 98
q-42 42 -98 42q-61 0 -99 -41q-41 -44 -41 -99q0 -57 41 -98t99 -41zM456 187q88 0 151 63t63 152q0 88 -63 151t-151 63t-151 -63t-63 -151q0 -89 63 -152t151 -63z" />
    <glyph glyph-name="nine" unicode="9" horiz-adv-x="983" 
d="M489 -5q-16 -4 -27 -4q-26 0 -51 13q-50 30 -50 84q0 27 17 56l152 281q-34 -2 -38 -2q-178 0 -305 127q-126 126 -126 306q0 179 126 305t305 126t305 -126q61 -60 94 -139t33 -166q0 -118 -63 -225l-2 -4l-309 -583q-23 -38 -61 -49zM495 618q99 0 170 71q70 70 70 170
q0 97 -70 169q-72 70 -170 70q-101 0 -171 -70t-70 -169q0 -100 70 -170q69 -71 171 -71z" />
    <glyph glyph-name="colon" unicode=":" horiz-adv-x="468" 
d="M218 701q-48 0 -84 36t-36 84q0 50 36 86q35 35 84 35q50 0 85 -35t35 -86q0 -49 -35 -84q-36 -36 -85 -36zM218 -11q-48 0 -84 36t-36 84q0 49 36 85q35 35 84 35q50 0 85 -35t35 -85q0 -49 -35 -84q-36 -36 -85 -36z" />
    <glyph glyph-name="semicolon" unicode=";" horiz-adv-x="468" 
d="M218 701q-48 0 -84 36t-36 84q0 50 36 86q35 35 84 35q50 0 85 -35t35 -86q0 -49 -35 -84q-36 -36 -85 -36zM199 -253q-43 0 -72 29.5t-29 73.5v279q0 43 30 74q28 30 71 30q44 0 71 -29.5t27 -74.5v-279q0 -45 -27 -74t-71 -29z" />
    <glyph glyph-name="less" unicode="&#x3c;" horiz-adv-x="749" 
d="M634 270q-15 -4 -24 -4q-21 0 -37 10l-484 262l-4 3q-42 23 -42 70q0 16 4 27q9 29 38 46l487 254q20 11 39 11q45 0 70 -43q11 -20 11 -41q0 -46 -41 -69l-355 -186l352 -191q30 -13 40 -47q3 -11 3 -23q0 -21 -10 -40q-17 -29 -47 -39z" />
    <glyph glyph-name="equal" unicode="=" horiz-adv-x="860" 
d="M696 628h-525q-41 0 -70 30q-30 32 -30 73q0 42 29 70t71 28h525q44 0 73 -29t29 -71q0 -39 -29 -71q-27 -30 -73 -30zM696 211h-525q-41 0 -70 30q-30 31 -30 73t29 70t71 28h525q44 0 73 -29t29 -71q0 -39 -29 -71q-27 -30 -73 -30z" />
    <glyph glyph-name="greater" unicode="&#x3e;" horiz-adv-x="774" 
d="M93 270q-31 10 -48 39q-10 16 -10 38q0 10 4 25q10 33 39 47l351 191l-354 186q-41 23 -41 69q0 21 11 41q25 43 70 43q19 0 39 -11l487 -254q43 -26 43 -71q0 -15 -7 -32q-12 -26 -36 -40l-5 -3l-483 -262q-16 -10 -37 -10q-8 0 -23 4z" />
    <glyph glyph-name="question" unicode="?" horiz-adv-x="908" 
d="M360 315q-43 0 -72 29.5t-29 72.5v177q0 44 30 72q32 29 71 29h106q83 0 142 56q60 58 60 137q0 84 -56 142q-57 60 -146 60q-82 0 -141 -57q-61 -58 -61 -145q0 -43 -27.5 -73t-68.5 -30q-45 0 -73 31q-30 30 -30 72v6q2 165 120 280q117 115 280 115q164 0 284 -117
q118 -121 118 -284t-120 -278q-57 -54 -131.5 -84t-153.5 -30h-4v-79q0 -43 -28 -72.5t-70 -29.5zM359 -11q-45 0 -75 32q-32 32 -32 75q0 45 32 77q30 32 75 32q44 0 76 -32t32 -77q0 -43 -32 -75t-76 -32z" />
    <glyph glyph-name="at" unicode="@" horiz-adv-x="1484" 
d="M738 -99q-188 0 -352 95q-158 92 -249 250q-94 160 -94 350q0 189 94 352q92 157 249 249q164 95 352 95q185 0 353 -94q160 -92 253 -243q97 -159 97 -334q0 -81 -12 -153q-12 -70 -33 -121l-3 -6q-30 -63 -96 -96q-62 -32 -127 -32t-121 41q-54 37 -74 95
q-102 -115 -231 -115q-151 0 -254 106q-106 106 -106 254q0 149 106 255q102 105 254 105q143 0 243 -100q98 -98 104 -245l2 -15v-102q0 -39 20.5 -64.5t52.5 -25.5q24 0 43.5 16.5t26.5 43.5q0 2 2 0q12 58 12 137q0 204 -146 350q-70 70 -165 108.5t-201 38.5
q-208 0 -354 -146q-147 -147 -147 -354q0 -101 38.5 -192.5t108.5 -161.5q148 -146 354 -146q76 0 162 26l9 3q11 4 27 4q25 0 48 -13q32 -18 46 -59q3 -13 3 -27q0 -63 -55 -87h-1l-4 -2l-10 -3l-11 -4q-93 -33 -214 -33zM738 427q69 0 118 49q48 50 48 118q0 72 -48 120
t-118 48q-68 0 -118 -48q-49 -49 -49 -120q0 -69 49 -118t118 -49z" />
    <glyph glyph-name="A" unicode="A" horiz-adv-x="1177" 
d="M1024 6q-37 13 -57 53l-125 297h-507l-123 -296q-16 -40 -55 -53q-18 -7 -36 -7q-22 0 -43 9q-56 25 -56 85q0 26 10 46l469 1079q27 61 91 61q65 0 90 -60l464 -1080q10 -20 10 -46q0 -60 -55 -85q-19 -9 -42 -9q-19 0 -35 6zM418 555h340l-171 407z" />
    <glyph glyph-name="B" unicode="B" 
d="M594 0h-365q-42 0 -70.5 28t-28.5 70v1084q0 42 28.5 70t70.5 28h352q144 0 248 -102q102 -104 102 -249q0 -146 -106 -249q74 -54 114.5 -132.5t40.5 -171.5q0 -160 -112 -267q-112 -109 -274 -109zM329 755h246q64 1 111 55q45 50 45 113t-48 111q-47 47 -113 47h-241
v-326zM329 199h258q79 0 137 58q57 57 57 133q0 80 -57 132q-59 53 -138 53h-257v-376z" />
    <glyph glyph-name="C" unicode="C" horiz-adv-x="1226" 
d="M688 -12q-174 0 -325 89q-146 85 -232 233q-88 151 -88 327q0 171 85 321q84 149 228 238q150 93 336 93q130 0 249 -49.5t212 -143.5q29 -29 29 -68q0 -42 -28 -70q-32 -29 -71 -29q-43 0 -70 27q-132 132 -322 132q-183 0 -316 -130q-132 -132 -132 -319
q0 -184 127 -316q128 -134 318 -136q187 0 323 131q30 27 70 27t69 -26q29 -29 29 -70q0 -40 -27 -70q-194 -191 -464 -191z" />
    <glyph glyph-name="D" unicode="D" horiz-adv-x="1155" 
d="M449 0h-220q-42 0 -70.5 28t-28.5 70v1084q0 42 28.5 70t70.5 28h220q180 0 329 -86t234 -230q89 -152 89 -326q0 -173 -89 -325q-83 -140 -234 -227q-149 -86 -329 -86zM329 200h121q189 0 320 125q131 126 131 313q0 182 -130 312q-129 127 -316 129h-126v-879z" />
    <glyph glyph-name="E" unicode="E" horiz-adv-x="912" 
d="M764 0h-542q-40 3 -66 30.5t-26 68.5v1081q0 42 29 71t71 29h534q41 0 70 -29q28 -28 28 -71q0 -42 -28 -70.5t-70 -28.5h-435v-346h314q42 2 71 -27q28 -28 28 -71q0 -42 -28.5 -69t-70.5 -27h-314v-343h435q42 0 70 -29t28 -71t-28 -70q-30 -30 -70 -28z" />
    <glyph glyph-name="F" unicode="F" horiz-adv-x="877" 
d="M229 0q-41 0 -70 29t-29 69v1086q0 36 23 64q27 32 76 32h530q41 0 70 -29q28 -28 28 -71q0 -42 -28 -70.5t-70 -28.5h-430v-342h295q42 0 70.5 -28.5t28.5 -70.5t-28.5 -68.5t-70.5 -26.5h-295v-447q0 -43 -29 -70q-29 -28 -71 -28z" />
    <glyph glyph-name="G" unicode="G" horiz-adv-x="1350" 
d="M691 -12q-132 0 -250.5 49.5t-208.5 140.5q-90 90 -139.5 209t-49.5 250q0 130 48.5 248.5t137.5 210.5q90 92 209 142.5t250 50.5q271 0 465 -193q30 -30 30 -70q0 -39 -29 -68q-32 -29 -70 -29q-42 -2 -71 27q-134 132 -323 132q-182 0 -314 -129q-133 -133 -133 -321
q0 -189 131 -320q61 -63 143.5 -97t174.5 -34q142 0 240.5 64t135.5 181h-211q-42 0 -70 28.5t-28 70.5t28 71t70 29l328 -2q43 -1 72.5 -29t29.5 -70q-6 -114 -53.5 -214t-129.5 -173q-171 -155 -413 -155z" />
    <glyph glyph-name="H" unicode="H" horiz-adv-x="1204" 
d="M229 0q-42 0 -70.5 28t-28.5 70v1084q0 42 28.5 70t70.5 28t71 -28t29 -70v-445h546v445q0 42 29.5 70t71.5 28t70 -28t28 -70v-1084q0 -42 -29 -70t-71 -28t-70.5 28t-28.5 70v440h-546v-440q0 -42 -29 -70t-71 -28z" />
    <glyph glyph-name="I" unicode="I" horiz-adv-x="459" 
d="M229 0q-42 0 -70.5 28t-28.5 70v1084q0 42 28.5 70t70.5 28t71 -28t29 -70v-1084q0 -42 -29 -70t-71 -28z" />
    <glyph glyph-name="J" unicode="J" horiz-adv-x="460" 
d="M-101 -353q-66 0 -92 51q-13 23 -13 49q0 21 11 45q26 50 90 54q99 2 168 72q67 69 67 166v1093q0 41 29 73q29 30 70 30q44 0 72.5 -30t28.5 -73l-1 -1100q0 -179 -125 -304q-126 -126 -305 -126z" />
    <glyph glyph-name="K" unicode="K" horiz-adv-x="1100" 
d="M229 0q-42 0 -70.5 28t-28.5 70v1084q0 42 28.5 70t70.5 28t71 -28t29 -70v-439l542 509q28 28 71 28q38 -1 70 -33q28 -28 28 -70q0 -39 -31 -70l-376 -352l399 -600q18 -27 18 -57q0 -50 -45 -81q-25 -17 -54 -17q-2 0 -20 2q-40 6 -63 42l-384 573l-155 -146v-373
q0 -42 -29 -70t-71 -28z" />
    <glyph glyph-name="L" unicode="L" horiz-adv-x="858" 
d="M217 0l-8 2q-35 7 -57 33.5t-22 62.5v1083q0 42 29 71q28 28 70 28q43 0 71 -28q29 -29 29 -71v-983l415 -1q42 0 70.5 -28.5t28.5 -70.5t-28 -70q-29 -29 -71 -28h-527z" />
    <glyph glyph-name="M" unicode="M" horiz-adv-x="1417" 
d="M710 0q-63 0 -88 60l-304 744l-99 -718q-5 -38 -32 -61t-64 -23q-44 0 -73 28.5t-29 70.5q0 11 1 14l149 1072q5 33 28 56q30 34 73 34q15 0 39 -8q37 -15 54 -53l351 -858l349 858q28 60 90 60q21 0 38 -7l11 -6q49 -22 55 -76l139 -1075q1 -3 1 -13q0 -41 -29.5 -69.5
t-72.5 -28.5q-37 0 -65 24t-32 62l-92 712l-302 -739q-12 -27 -38.5 -43.5t-57.5 -16.5z" />
    <glyph glyph-name="N" unicode="N" horiz-adv-x="1204" 
d="M229 0q-42 0 -70.5 28t-28.5 70v1081q0 42 28.5 70t70.5 28h1q8 0 16 -2l14 -3q17 -6 29 -15l11 -9q10 -10 18 -24l594 -830v788q0 42 29.5 70t71.5 28q45 0 70 -28q28 -29 28 -70v-1084q0 -33 -19.5 -59t-50.5 -35q-14 -4 -18 -4h-11q-35 0 -62 21q-15 11 -18 17
l-603 844v-784q0 -42 -29 -70t-71 -28z" />
    <glyph glyph-name="O" unicode="O" horiz-adv-x="1386" 
d="M691 -12q-131 0 -250 50t-209 141q-91 91 -140 209.5t-49 249.5q0 178 88 329q86 148 232 233q154 89 328 89q178 0 329 -89q149 -87 234 -233q89 -155 89 -329q0 -131 -50 -249.5t-141 -209.5t-210.5 -141t-250.5 -50zM692 187q189 0 320 131t131 320q0 90 -34 172.5
t-97 145.5q-132 132 -320 132q-92 0 -174.5 -34.5t-143.5 -97.5q-63 -63 -97 -145.5t-34 -172.5q0 -189 131 -320q61 -63 143.5 -97t174.5 -34z" />
    <glyph glyph-name="P" unicode="P" horiz-adv-x="1002" 
d="M229 0q-42 0 -70.5 28t-28.5 70v1084q0 42 28.5 70t70.5 28h335q159 0 274 -110q112 -109 112 -269t-112 -267q-112 -109 -274 -109h-235v-427q0 -42 -29 -70t-71 -28zM329 724h236q77 0 132 55q54 51 54 127t-55 126q-56 51 -132 51h-235v-359z" />
    <glyph glyph-name="Q" unicode="Q" horiz-adv-x="1386" 
d="M1091 -181h-4q-92 2 -161 52q-71 50 -97 131q-73 -14 -138 -14q-131 0 -250 50t-209 141q-91 91 -140 209.5t-49 249.5q0 178 88 329q86 148 232 233q154 89 328 89q178 0 329 -89q149 -87 234 -233q89 -155 89 -329q0 -180 -93 -334q-91 -150 -243 -235q2 -33 26 -56
t58 -23q35 0 60 -24.5t25 -60.5t-25 -61t-60 -25zM449 257q26 85 98 135q73 51 164 51q86 0 156 -46q69 -45 99 -119q84 64 130.5 157.5t46.5 202.5q0 90 -34 172.5t-97 145.5q-132 132 -320 132q-92 0 -174.5 -34.5t-143.5 -97.5q-63 -63 -97 -145.5t-34 -172.5
q0 -120 56 -221q55 -100 150 -160zM692 187q44 0 102 11q-4 32 -27.5 53t-55.5 21q-35 0 -59 -23.5t-25 -56.5q38 -5 65 -5z" />
    <glyph glyph-name="R" unicode="R" horiz-adv-x="1035" 
d="M229 0q-42 0 -70.5 28t-28.5 70v1084q0 42 28.5 70t70.5 28h335q159 0 274 -110q112 -109 112 -269q0 -124 -71 -220q-70 -95 -182 -134l237 -400q14 -23 14 -47q0 -12 -5 -29q-14 -41 -49 -59q-22 -12 -47 -12q-16 0 -27 4q-40 12 -59 46l-279 475h-153v-427
q0 -42 -29 -70t-71 -28zM329 724h236q77 0 132 55q54 51 54 127t-55 126q-56 51 -132 51h-235v-359z" />
    <glyph glyph-name="S" unicode="S" horiz-adv-x="1003" 
d="M503 -13q-146 0 -269 73q-118 68 -166 174q-13 26 -13 53q0 14 5 32q10 31 47 52q23 13 44 13q44 0 92 -60q87 -138 268 -138q98 0 164 48q76 52 76 136q0 82 -77 126q-42 24 -135 47l-26 7q-197 37 -304 121q-124 97 -124 249q0 159 129 267q124 102 291 102
q120 0 223 -47q106 -51 159 -140q11 -19 11 -38q0 -3 -2 -19q-8 -28 -27 -47q-24 -24 -65 -24q-36 0 -59 18q-63 55 -105 74q-56 24 -132 24q-94 0 -156 -45q-67 -45 -67 -123t87 -122q59 -29 203 -59q172 -45 258 -115q116 -93 116 -245q0 -166 -129 -281
q-132 -113 -317 -113z" />
    <glyph glyph-name="T" unicode="T" horiz-adv-x="972" 
d="M477 0q-42 0 -68.5 28t-26.5 70v984h-266q-42 0 -70 28.5t-28 70.5t28 70.5t70 28.5h728q42 0 70.5 -29t28.5 -71q0 -45 -28 -70q-29 -28 -71 -28h-267v-984q0 -42 -29 -70t-71 -28z" />
    <glyph glyph-name="U" unicode="U" horiz-adv-x="1134" 
d="M571 -11q-206 0 -343 137q-66 64 -101.5 149.5t-35.5 180.5v723q0 42 29 71t70 29q42 0 71 -29t29 -71v-718q0 -112 79 -194q82 -82 201 -82t195 82q73 79 73 194v721q0 43 29 70q29 28 70 28q42 0 71 -28t29 -70v-726q0 -199 -129 -330q-132 -137 -337 -137z" />
    <glyph glyph-name="V" unicode="V" horiz-adv-x="1170" 
d="M587 0h-9q-62 5 -85 61l-463 1080q-9 19 -9 39q0 42 29 69q14 14 34 21q22 8 39 8q29 0 53.5 -16.5t37.5 -44.5l373 -869l372 869q16 39 53 53q14 7 37 7q43 0 71 -28t28 -69q0 -17 -8 -39l-463 -1080q-24 -59 -90 -61z" />
    <glyph glyph-name="W" unicode="W" horiz-adv-x="1724" 
d="M585 0q-30 0 -54.5 16t-36.5 45l-465 1080q-8 22 -8 39q0 40 29 69t73 29q39 0 68 -28q14 -14 23 -33l373 -869l165 381l-177 412q-8 22 -8 39q0 40 29 69t73 29q39 0 68 -28q14 -14 23 -33l101 -236l102 236q25 61 91 61q23 0 38 -7q40 -16 55 -53q7 -15 7 -38
q0 -17 -8 -39l-177 -411l164 -382l376 869q17 39 54 54q14 7 37 7q42 0 71 -29t29 -69q0 -20 -9 -39l-464 -1080q-12 -29 -38 -45t-58 -16q-62 0 -92 61l-179 415l-178 -415q-12 -29 -38 -45t-59 -16z" />
    <glyph glyph-name="X" unicode="X" horiz-adv-x="1192" 
d="M1069 0q-41 0 -73 33l-401 454l-398 -454q-30 -33 -74 -33q-38 0 -66 25q-34 31 -34 75q0 37 25 65l415 472l-416 473q-24 26 -24 64q0 46 33 78q28 25 65 25q43 0 75 -35l399 -454l399 454q31 34 75 34q39 0 64 -25q34 -31 34 -77q0 -40 -25 -65l-414 -472l416 -472
q26 -28 26 -68q0 -45 -33 -72q-28 -25 -68 -25z" />
    <glyph glyph-name="Y" unicode="Y" horiz-adv-x="1075" 
d="M535 0q-42 0 -70.5 28t-28.5 70v433l-391 579q-24 28 -24 65q0 45 35 77q29 25 69 25q42 0 71 -35l339 -514l337 516q28 34 74 34q34 0 63 -24q37 -31 37 -76q0 -36 -25 -67l-386 -579v-434q0 -42 -29 -70t-71 -28z" />
    <glyph glyph-name="Z" unicode="Z" horiz-adv-x="1193" 
d="M152 0l-11 -1q-34 0 -63 26q-34 31 -34 77q0 38 23 63l760 916h-669q-42 0 -70.5 28.5t-28.5 70.5t30 71q32 29 72 29h876q30 -2 54 -18l13 -9q34 -31 34 -74q0 -37 -25 -66l-759 -914h698q42 0 70 -29t28 -71t-28 -70.5t-70 -28.5h-900z" />
    <glyph glyph-name="bracketleft" unicode="[" horiz-adv-x="591" 
d="M469 -323h-238q-43 0 -72 30t-29 73v1397q0 43 29 73t72 30h237q43 0 72 -31q29 -32 29 -73q0 -42 -29 -68.5t-72 -26.5h-139v-1205h140q43 0 72 -27t29 -69q0 -43 -29 -73t-72 -30z" />
    <glyph glyph-name="backslash" unicode="\" horiz-adv-x="590" 
d="M456 5q-12 -4 -29 -4q-32 0 -58.5 19t-38.5 51l-346 1064q-5 18 -5 33q0 23 11 50q18 45 57 55q20 5 33 5q33 0 59 -18.5t37 -51.5l346 -1075q4 -12 4 -30q0 -23 -11 -47q-19 -37 -59 -51z" />
    <glyph glyph-name="bracketright" unicode="]" horiz-adv-x="591" 
d="M318 -323h-238q-42 0 -71 30q-30 31 -30 72q0 42 29 69.5t72 27.5h140v1205h-139q-43 0 -72 26.5t-29 68.5t30 73q28 31 71 31h237q43 0 72 -30t29 -73v-1400q-2 -42 -30 -70q-30 -30 -71 -30z" />
    <glyph glyph-name="asciicircum" unicode="^" horiz-adv-x="1150" 
d="M126 465q-26 0 -48 15q-34 24 -34 68q0 25 16 44l431 615q24 35 66 35q13 0 30 -5q23 -8 38 -29l429 -613q16 -22 16 -49q0 -40 -33 -65q-21 -15 -47 -15q-43 0 -67 34l-364 520l-367 -520q-23 -35 -66 -35z" />
    <glyph glyph-name="underscore" unicode="_" horiz-adv-x="1053" 
d="M878 -202h-710q-46 0 -76 28t-30 73q0 44 30 71t76 27h710q48 0 78.5 -27t30.5 -71t-31.5 -72.5t-77.5 -28.5z" />
    <glyph glyph-name="grave" unicode="`" horiz-adv-x="498" 
d="M227 1464l-135 136q-30 30 -30 70q0 41 30 71q32 29 72 29q41 0 71 -30l133 -134q30 -30 30 -72q0 -40 -30 -70t-70 -30q-41 0 -71 30z" />
    <glyph glyph-name="a" unicode="a" horiz-adv-x="1095" 
d="M520 -12q-96 0 -183 36.5t-154 103.5q-140 140 -140 337t140 337q67 67 154 103.5t183 36.5q197 0 335 -138q139 -139 141 -335v-367q0 -40 -29 -72q-27 -30 -73 -30q-39 0 -66 26t-31 65q-127 -103 -277 -103zM520 188q115 0 197 82q80 80 80 195q0 116 -80 196t-197 80
q-115 0 -195 -80q-82 -82 -82 -196q0 -113 82 -195t195 -82z" />
    <glyph glyph-name="b" unicode="b" horiz-adv-x="1098" 
d="M579 -11q-155 0 -280 91q-6 -35 -33.5 -57.5t-64.5 -22.5q-42 0 -70.5 28t-28.5 70v1084q0 42 28.5 70t70.5 28t71 -28t29 -70v-330q128 90 278 90q198 0 337 -139q66 -66 102.5 -154t36.5 -184q0 -197 -139 -336q-67 -67 -154 -103.5t-183 -36.5zM579 189q116 0 197 81
q80 80 80 195q0 116 -80 196t-197 80q-116 0 -196 -80q-82 -82 -82 -196q0 -113 82 -195q81 -81 196 -81z" />
    <glyph glyph-name="c" unicode="c" horiz-adv-x="930" 
d="M525 -11q-201 0 -340 137q-67 64 -104.5 151.5t-37.5 183.5v1q0 1 1 1v1q-1 0 -1 1q0 197 142 339q67 67 155 103.5t185 36.5q96 0 180.5 -33t144.5 -95q36 -36 37 -79q0 -44 -32 -73q-34 -29 -67 -29q-36 0 -91 43q-80 64 -184 64q-111 0 -191 -87q-75 -81 -75 -188
l-1 -2l1 -1q0 -106 74 -186q77 -86 186 -87q110 -5 190 64q54 42 89 42t69 -29q32 -29 32 -72q-1 -43 -37 -79q-60 -62 -144.5 -95t-180.5 -33z" />
    <glyph glyph-name="d" unicode="d" horiz-adv-x="1097" 
d="M520 -11q-195 0 -337 140q-140 140 -140 336q0 198 140 338q141 139 337 139q150 0 277 -89v329q0 42 28.5 70t70.5 28t71 -28t29 -70v-1084q0 -42 -29 -70t-71 -28q-37 0 -64 22.5t-34 57.5q-125 -91 -278 -91zM520 189q116 0 193 77q79 76 84 187v23q-5 113 -84 189
q-78 76 -193 76t-195 -80q-82 -82 -82 -196q0 -113 82 -195q81 -81 195 -81z" />
    <glyph glyph-name="e" unicode="e" horiz-adv-x="1044" 
d="M522 -11q-197 0 -338 139q-67 67 -104 154t-37 183t37 184t104 154q141 139 338 139q195 0 336 -138t143 -334q0 -42 -27.5 -68.5t-70.5 -26.5h-639q24 -85 95 -140q69 -55 163 -55q114 0 179 71q31 25 66 25q17 0 33 -6q28 -10 48 -42q17 -26 17 -56q0 -43 -38 -75
q-56 -52 -118 -76q-81 -32 -187 -32zM258 541h538q-23 95 -95 151q-75 60 -176 60t-174 -60q-73 -61 -93 -151z" />
    <glyph glyph-name="f" unicode="f" horiz-adv-x="604" 
d="M380 940h92q43 0 72 -28t29 -70q0 -43 -29 -72t-72 -29h-92v-639q0 -42 -29 -71q-30 -30 -70 -30t-70 30t-30 71v639h-66q-41 0 -70 30q-29 32 -29 71q0 42 28.5 70t70.5 28h66v52v4q1 135 92 224q87 84 226 84q44 0 72.5 -26t28.5 -68q0 -40 -29 -69t-72 -29
q-52 0 -85 -35q-34 -35 -34 -85v-52z" />
    <glyph glyph-name="g" unicode="g" horiz-adv-x="1096" 
d="M518 -382q-96 0 -180.5 33t-144.5 95q-36 36 -36 80q-2 43 31 71q34 30 69 30q36 0 89 -43q83 -69 190 -64q102 2 178 78q70 70 81 177q-123 -87 -275 -87q-96 0 -183 36.5t-154 103.5q-140 140 -140 337t140 337q67 67 154 103.5t183 36.5q149 0 276 -89q4 38 32.5 63.5
t67.5 25.5q42 0 70.5 -28t28.5 -70v-350q0 -11 1 -14v-15v-15q-1 -3 -1 -15v-342q-5 -206 -141 -339q-136 -136 -336 -136zM520 188q108 0 189 75q76 73 87 179v46q-11 110 -87 180q-79 73 -189 73q-115 0 -195 -80q-82 -82 -82 -196q0 -113 82 -195t195 -82z" />
    <glyph glyph-name="h" unicode="h" horiz-adv-x="1037" 
d="M845 -2q-42 0 -70.5 28t-28.5 70v380q0 119 -56 195q-57 73 -158 73q-99 0 -164 -71q-64 -69 -69 -177v-397q0 -42 -28.5 -70.5t-70.5 -28.5t-71 29t-29 70v1080q0 42 30 72q29 29 70 29q42 0 71 -29q28 -28 28 -72v-350q118 113 255 113q174 0 282 -131
q108 -130 108 -331v-384q0 -42 -28.5 -70t-70.5 -28z" />
    <glyph glyph-name="i" unicode="i" horiz-adv-x="398" 
d="M199 1048q-46 0 -78 32q-33 33 -33 78q0 46 33 79q32 32 78 32t78 -32q33 -33 33 -79q0 -45 -33 -78q-32 -32 -78 -32zM200 0q-41 0 -70 29q-30 30 -30 70v744q0 43 30 71q32 29 71 29q43 0 70 -29q28 -29 28 -71v-744q0 -42 -28.5 -70.5t-70.5 -28.5z" />
    <glyph glyph-name="j" unicode="j" horiz-adv-x="401" 
d="M199 1048q-46 0 -78 32q-33 33 -33 78q0 46 33 79q32 32 78 32t78 -32q33 -33 33 -79q0 -45 -33 -78q-32 -32 -78 -32zM-18 -289h-5q-41 0 -70 29q-30 30 -30 71q0 42 30 72q29 29 70 29h5q48 0 83 34q36 31 36 81v813q0 42 30 72q29 29 70 29q42 0 70.5 -29t28.5 -72
v-809q0 -11 -1 -13q-6 -129 -97 -218q-94 -89 -220 -89z" />
    <glyph glyph-name="k" unicode="k" horiz-adv-x="910" 
d="M201 0q-42 0 -71.5 28t-29.5 70v1084q0 42 30 70q29 28 71 28t70 -28t28 -70v-632l363 355q28 27 65 27q41 0 71 -31v-2q28 -28 28 -69q0 -39 -29 -68l-227 -216l255 -391q16 -25 16 -54q0 -55 -45 -84q-25 -17 -54 -17q-53 0 -82 45l-238 362l-124 -118v-191
q0 -41 -28 -69q-29 -29 -69 -29z" />
    <glyph glyph-name="l" unicode="l" horiz-adv-x="400" 
d="M200 0q-42 0 -71 28t-29 70v1084q0 42 29 70t71 28t70.5 -28t28.5 -70v-1084q0 -42 -28.5 -70t-70.5 -28z" />
    <glyph glyph-name="m" unicode="m" horiz-adv-x="1457" 
d="M200 0q-41 0 -70 29q-30 30 -30 70v744q0 43 30 71q32 29 71 29q36 0 63 -23.5t33 -59.5q91 83 197 83q159 0 254 -117q58 55 133.5 86t152.5 31q150 0 244 -106q92 -104 92 -257v-482q0 -42 -28.5 -70t-69.5 -28q-39 0 -71 29q-30 29 -30 69v485q-2 70 -43 115
q-45 45 -111 45q-65 0 -123 -46q-55 -44 -60 -110v-489q0 -42 -28.5 -70t-69.5 -28q-39 0 -71 29q-30 29 -30 69v489q-2 68 -44 112t-109 44t-123 -45q-58 -47 -60 -110v-6q-1 -1 0 -4q2 -3 0 -8v-471q0 -42 -28.5 -70.5t-70.5 -28.5z" />
    <glyph glyph-name="n" unicode="n" horiz-adv-x="1035" 
d="M845 -2q-42 0 -70.5 28t-28.5 70v384q-2 122 -57 192q-59 72 -157 72q-104 0 -167 -74q-66 -77 -66 -185v-386q0 -42 -28.5 -70.5t-70.5 -28.5q-41 0 -70 29q-30 30 -30 70v744q0 43 30 71q32 29 71 29q43 0 70 -29q28 -29 28 -71v-14q118 113 255 113q174 0 282 -131
q108 -130 108 -331v-384q0 -42 -28.5 -70t-70.5 -28z" />
    <glyph glyph-name="o" unicode="o" 
d="M520 -12q-96 0 -183 36.5t-154 103.5q-140 140 -140 337t140 337q67 67 154 103.5t183 36.5t183 -36.5t154 -103.5q139 -141 139 -337t-139 -337q-67 -67 -154 -103.5t-183 -36.5zM520 188q115 0 197 82q80 80 80 195q0 116 -80 196t-197 80q-115 0 -195 -80
q-82 -82 -82 -196q0 -113 82 -195t195 -82z" />
    <glyph glyph-name="p" unicode="p" horiz-adv-x="1096" 
d="M199 -338q-42 0 -70.5 28t-28.5 70v1084q0 42 28.5 70t70.5 28q37 0 68 -26q28 -25 32 -64q128 90 278 90q96 0 183 -36.5t154 -103.5q139 -141 139 -337t-139 -337q-67 -67 -154 -103.5t-183 -36.5q-156 0 -278 90v-318q0 -42 -29 -70t-71 -28zM577 188q115 0 197 82
q80 80 80 195q0 116 -80 196t-197 80q-115 0 -195 -80q-82 -82 -82 -196q0 -113 82 -195t195 -82z" />
    <glyph glyph-name="q" unicode="q" horiz-adv-x="1094" 
d="M894 -339q-50 0 -78 40q-20 26 -20 59v316q-124 -88 -276 -88q-96 0 -183 36.5t-154 103.5q-140 140 -140 337t140 337q67 67 154 103.5t183 36.5q149 0 276 -89q4 38 32.5 63.5t67.5 25.5q42 0 70.5 -28t28.5 -70v-350q0 -8 1 -10v-11v-708q0 -18 -4 -29
q-11 -45 -55 -65q-20 -10 -43 -10zM520 188q108 0 189 75q76 73 87 179v46q-11 110 -87 180q-79 73 -189 73q-115 0 -195 -80q-82 -82 -82 -196q0 -113 82 -195t195 -82z" />
    <glyph glyph-name="r" unicode="r" horiz-adv-x="726" 
d="M201 0q-41 0 -70 29q-30 30 -30 70v744q0 41 30 71q29 29 71 29q43 0 70 -29q28 -29 28 -71q136 99 298 99h4q48 0 75.5 -27t27.5 -72q0 -42 -30 -70.5t-73 -28.5h-4q-124 0 -210 -88q-88 -88 -88 -214v-343q0 -42 -28.5 -70.5t-70.5 -28.5z" />
    <glyph glyph-name="s" unicode="s" horiz-adv-x="781" 
d="M395 -11q-107 0 -194 40q-103 45 -148 129q-15 27 -15 55q0 26 12 44q25 44 80 44q52 0 89 -47q33 -48 73 -69t102 -21q57 0 100 27q44 26 44 73q0 30 -16 49q-29 37 -92 56l-54 17q-149 52 -217 103q-98 71 -98 180q0 122 101 201q94 74 228 74q90 0 170 -33
q89 -38 121 -101q11 -22 11 -44q0 -31 -22 -54q-27 -30 -65 -30q-19 0 -33 7l-40 30q-33 22 -38 25q-43 25 -90 25q-65 0 -104 -24.5t-39 -69.5q0 -43 49 -74q39 -23 121 -48q148 -46 210 -95q90 -70 90 -186q0 -119 -96 -201t-240 -82z" />
    <glyph glyph-name="t" unicode="t" horiz-adv-x="587" 
d="M287 0q-42 0 -71 28t-29 70v643h-72q-41 0 -70 30q-30 31 -30 71q0 42 29 70t71 28h72v242q0 42 29 70t71 28t70.5 -28t28.5 -70v-242h86q43 0 71.5 -28t28.5 -70q0 -43 -28.5 -72t-71.5 -29h-86v-643q0 -42 -28.5 -70t-70.5 -28z" />
    <glyph glyph-name="u" unicode="u" horiz-adv-x="1034" 
d="M833 -2q-42 0 -69.5 29t-27.5 71v14q-118 -113 -256 -113q-174 0 -282 132q-108 131 -108 332v382q0 42 29 70t71 28t70.5 -28t28.5 -70v-384q0 -120 58 -191q57 -73 156 -73q101 0 167 74t66 185v386q0 42 28.5 70.5t70.5 28.5q43 0 71 -28q29 -29 29 -71v-744
q0 -42 -30 -70q-31 -30 -72 -30z" />
    <glyph glyph-name="v" unicode="v" horiz-adv-x="917" 
d="M468 0h-13q-40 0 -68 31q-12 12 -20 29l-336 741q-9 19 -9 42q0 19 6 35q13 36 53 56q19 9 39 9q41 0 69 -28q14 -14 23 -33l247 -559l245 559q20 40 56 53q14 7 37 7q39 0 71 -32q28 -28 28 -71q-1 -18 -10 -39l-335 -740q-19 -36 -51 -51l-5 -2q-1 0 -1 -1l-9 -3h-1
q-7 -3 -16 -3z" />
    <glyph glyph-name="w" unicode="w" horiz-adv-x="1324" 
d="M468 0h-15q-35 1 -65 31q-11 11 -19 29l-337 741q-9 19 -9 39q0 41 27 71q30 32 71 32t69 -28q14 -14 23 -33l247 -558l96 218l-117 259q-9 19 -9 42q0 19 6 35q12 37 52 56q20 9 39 9q41 0 69 -28q14 -14 23 -33l43 -99l44 99q17 39 55 53q14 7 37 7q42 0 72 -32
q27 -30 27 -71q-1 -18 -10 -39l-117 -259l96 -217l246 558q28 60 90 60q22 0 41 -9q40 -20 53 -56q7 -15 7 -38q0 -19 -9 -39l-336 -740q-14 -27 -32 -40q-24 -18 -52 -20h-11q-42 0 -67 30q-1 0 -1 1h-1q-14 15 -19 29l-112 246l-111 -246q-6 -14 -19 -28q-4 -5 -10.5 -10
t-13 -8.5t-7.5 -4.5q-16 -7 -34 -9z" />
    <glyph glyph-name="x" unicode="x" horiz-adv-x="996" 
d="M130 0q-45 0 -73 28q-30 28 -28 69q0 38 29 70l300 302l-304 307q-28 28 -28 70q0 40 30 70q29 29 70 29q40 0 70 -30l302 -305l300 303q29 30 71 32q41 0 70 -29q30 -30 30 -70q0 -42 -27 -71l-304 -306l297 -299q29 -29 30 -70q0 -42 -29 -71t-71 -29q-40 0 -69 29
l-297 299l-297 -299q-29 -29 -72 -29z" />
    <glyph glyph-name="y" unicode="y" horiz-adv-x="917" 
d="M294 -352q-20 0 -39 9q-52 24 -52 80q0 25 12 51l136 306l-320 707q-9 19 -9 42q0 19 6 35q13 36 53 56q19 9 39 9q41 0 69 -28q14 -14 23 -33l244 -553l248 553q20 40 56 53q14 7 37 7q39 0 71 -32q28 -28 28 -71q-1 -18 -10 -39l-498 -1092q-20 -40 -56 -53
q-15 -7 -38 -7z" />
    <glyph glyph-name="z" unicode="z" horiz-adv-x="1008" 
d="M865 0h-722q-59 0 -86 50q-14 23 -14 48q0 39 30 69l558 579h-480q-42 0 -70.5 28t-28.5 70t28.5 70t70.5 28h695q1 0 19 -2q33 -5 55 -33q20 -23 23 -50q0 -4 1 -5v-6v-4q-2 -41 -28 -67l-2 -2l-559 -579h510q43 0 71.5 -27t28.5 -68q0 -42 -28 -70q-29 -29 -72 -29z
" />
    <glyph glyph-name="braceleft" unicode="{" horiz-adv-x="777" 
d="M668 -319q-34 -2 -39 -2q-163 0 -290 111q-138 121 -143 309v286h-45q-45 0 -76 33q-32 32 -32 79q0 46 32 76q31 31 76 31h45v259q3 89 40.5 169t103.5 138q123 110 289 110q5 0 39 -2q43 0 70.5 -28t27.5 -71q0 -42 -28 -70t-70 -28h-61q-86 0 -149 -68
q-62 -67 -64 -158v-747q0 -90 62 -158q65 -71 151 -71h61q42 0 70 -29t28 -71t-27.5 -70t-70.5 -28z" />
    <glyph glyph-name="bar" unicode="|" horiz-adv-x="459" 
d="M228 -258q-39 0 -69 30q-29 29 -29 72v1334q0 44 29 73t69 29q43 0 72 -29.5t29 -72.5v-1334q0 -44 -30 -72q-31 -30 -71 -30z" />
    <glyph glyph-name="braceright" unicode="}" horiz-adv-x="779" 
d="M667 573q31 -31 31 -76q0 -47 -31 -79q-33 -33 -76 -33h-46v-277v-2q-2 -188 -139 -313q-125 -114 -295 -114q-4 0 -38 2q-43 0 -70.5 28t-27.5 70t28 71t70 29h61q88 0 152 72q61 67 61 155v2v747q-2 91 -64 158q-63 68 -149 68h-61q-42 0 -70 28t-28 70q0 43 27.5 71
t70.5 28q34 2 39 2q165 0 289 -111q65 -58 102.5 -138.5t40.5 -170.5q1 -1 1 -9v-247h46q45 0 76 -31z" />
    <glyph glyph-name="asciitilde" unicode="~" horiz-adv-x="1001" 
d="M627 433q-81 0 -176 71q-12 9 -47 34q-37 20 -62 20q-54 0 -107 -66q-4 -7 -14 -19q-29 -29 -70 -29q-41 -2 -71 27q-29 29 -29 70q0 43 28 71q37 49 86 86q83 60 169 60q87 0 174 -67q28 -24 50 -37q34 -21 62 -21q60 0 121 84l3 -2l1 2q26 26 67 26q38 0 66 -28
q27 -28 27 -67q0 -34 -21 -62q0 -5 -2 -7q-31 -47 -85 -86q-83 -60 -170 -60z" />
    <glyph glyph-name="exclamdown" unicode="&#xa1;" horiz-adv-x="473" 
d="M237 768q-46 0 -76 32q-31 31 -31 74q0 45 31 76t76 31q43 0 75 -31q31 -31 31 -76q0 -43 -31 -74q-32 -32 -75 -32zM234 -299q-40 0 -70 30t-30 71v772q0 43 28 72t70 29q43 0 72 -29t29 -72v-772q0 -43 -28 -71q-30 -30 -71 -30z" />
    <glyph glyph-name="cent" unicode="&#xa2;" horiz-adv-x="930" 
d="M523 -175q-36 0 -61 24.5t-25 60.5v87q-170 31 -281 159q-113 130 -113 305v1q0 1 1 1v1q-1 0 -1 1q0 177 113 309q113 131 282 162v118q0 35 25 60q26 25 61 25t59 -25t24 -60v-117q147 -25 243 -121q36 -36 37 -79q0 -44 -32 -73q-34 -29 -67 -29q-36 0 -91 43
q-80 64 -184 64q-111 0 -191 -87q-75 -81 -75 -188l-1 -2l1 -1q0 -106 74 -186q77 -86 186 -87q110 -5 190 64q54 42 89 42t69 -29q32 -29 32 -72q-1 -43 -37 -79q-98 -98 -244 -121v-86q0 -36 -24 -60.5t-59 -24.5z" />
    <glyph glyph-name="sterling" unicode="&#xa3;" horiz-adv-x="993" 
d="M846 0h-587q-42 1 -69.5 28.5t-27.5 69.5v400h-67q-26 0 -43.5 18t-17.5 44q0 25 17.5 42t43.5 17h67v325v10q0 2 2 10q8 134 102 223q95 93 226 93h22q42 0 70 -28t28 -70q0 -43 -28 -71q-29 -29 -75 -29q-63 0 -103 -37q-44 -39 -44 -102h-1v-324h170q26 0 44 -17
t18 -43t-18 -43.5t-44 -17.5h-170v-299h486q42 0 70 -28t28 -70q0 -43 -28 -71q-30 -30 -71 -30z" />
    <glyph glyph-name="currency" unicode="&#xa4;" horiz-adv-x="1003" 
d="M121 98q-36 26 -42 64q-2 18 -2 20q0 28 17 53l113 164q-93 105 -93 248q0 133 84 239l-110 158v1q-16 25 -16 54q0 50 45 83q26 17 56 17q13 0 17 -1q37 -7 62 -43l106 -153q63 24 134 24q67 0 130 -23l105 153q31 44 84 44q30 0 55 -17q41 -29 41 -81q0 -32 -17 -58
l-106 -155q89 -101 89 -242t-94 -249l108 -153q0 -1 1 -1q17 -26 17 -55q0 -52 -43 -81q-28 -19 -58 -19q-50 0 -80 44l-110 155q-56 -19 -122 -19q-68 0 -121 19l-113 -163q-31 -45 -81 -45q-29 0 -56 18zM492 455q82 0 137 57t55 136t-55 136q-56 56 -137 56
q-80 0 -134 -56q-56 -58 -56 -136t56 -136q55 -57 134 -57z" />
    <glyph glyph-name="yen" unicode="&#xa5;" horiz-adv-x="1212" 
d="M602 0q-42 0 -70.5 28t-28.5 70v149h-162q-26 0 -43.5 18t-17.5 44t17.5 43.5t43.5 17.5h162v108h-162q-26 0 -43.5 18t-17.5 44t17.5 43.5t43.5 17.5h107l-401 509q-23 29 -23 64q0 48 34 78q29 25 68 25q44 0 72 -35l403 -514l402 516q31 34 74 34q35 0 64 -24
q36 -32 36 -76q0 -36 -24 -67l-398 -510h120q26 0 44 -18t18 -43q0 -26 -18 -44t-44 -18h-173v-108h173q26 0 44 -18t18 -43q0 -26 -18 -44t-44 -18h-173v-149q0 -42 -29 -70t-71 -28z" />
    <glyph glyph-name="brokenbar" unicode="&#xa6;" horiz-adv-x="460" 
d="M229 559q-40 0 -70 30q-29 29 -29 71v520q0 43 29 72t70 29q43 0 72 -29t29 -72v-520q0 -42 -29 -71q-30 -30 -72 -30zM229 -309q-42 0 -70.5 29t-28.5 71v518q0 42 28.5 71t70.5 29q43 0 72 -29t29 -71v-518q0 -41 -29 -70q-30 -30 -72 -30z" />
    <glyph glyph-name="section" unicode="&#xa7;" horiz-adv-x="1006" 
d="M501 -361q-123 0 -223 48q-107 50 -160 140q-10 19 -10 38q0 3 2 19q6 27 26 47q25 25 66 25q33 0 59 -19q57 -54 106 -75q54 -24 131 -24q93 0 157 45q66 47 66 124q0 78 -86 115q-41 16 -93 27t-111 24q-164 44 -257 123q-117 99 -117 252q0 136 86 237q-43 64 -43 158
q0 78 33.5 147t94.5 120q121 102 291 102q119 0 224 -47q107 -49 159 -141q10 -19 10 -38q0 -3 -2 -19q-6 -27 -26 -47q-24 -24 -67 -24q-35 0 -58 18q-56 53 -104 75q-55 24 -133 24q-94 0 -156 -45q-66 -47 -66 -124t86 -114q42 -17 93 -28q75 -16 138 -32q53 -14 111 -39
q142 -63 204 -182q32 -62 32 -146q0 -137 -87 -237q43 -64 43 -157q0 -160 -128 -267q-122 -103 -291 -103zM739 286q41 44 41 107q0 83 -84 133q-55 31 -168 61q-159 32 -247 78q-41 -44 -41 -107q0 -82 84 -132q53 -30 168 -62q160 -33 247 -78z" />
    <glyph glyph-name="dieresis" unicode="&#xa8;" horiz-adv-x="780" 
d="M215 1102q-47 0 -79 32t-32 79t32 79q33 33 79 33t79 -33t33 -79t-33 -79q-32 -32 -79 -32zM584 1102q-46 0 -78 32q-33 33 -33 79t33 79t78 33q47 0 80 -33q32 -32 32 -79t-32 -79t-80 -32z" />
    <glyph glyph-name="copyright" unicode="&#xa9;" horiz-adv-x="1421" 
d="M713 -127q-146 0 -277.5 55t-230.5 155q-100 99 -154.5 231t-54.5 278q0 197 97 363q99 168 256 259q166 97 364 97q145 0 276.5 -55t232.5 -156q101 -100 156 -231.5t55 -276.5q0 -196 -98 -362q-100 -168 -259 -259q-170 -98 -363 -98zM713 44q111 0 212 41.5
t177 117.5q159 159 159 389q0 111 -41.5 211t-117.5 176t-177 117.5t-212 41.5t-211.5 -41.5t-176.5 -117.5t-117.5 -176t-41.5 -211q0 -230 159 -389q76 -76 176.5 -117.5t211.5 -41.5zM718 173q-175 0 -297 119q-123 121 -123 292v1q0 1 1 1v1l-1 2q0 172 123 295
q123 121 297 121q82 0 155.5 -29t126.5 -83q31 -30 31 -68q0 -35 -27 -58q-28 -23 -54 -23q-2 0 -18 2q-22 4 -59 32q-73 63 -170 58q-99 -2 -168 -77q-68 -74 -68 -169l-1 -2l1 -1q0 -94 68 -168q71 -78 174 -78q98 0 164 59q40 28 59 32q3 1 16 1q28 0 56 -24
q27 -23 27 -58q0 -37 -31 -67q-109 -111 -282 -111z" />
    <glyph glyph-name="ordfeminine" unicode="&#xaa;" horiz-adv-x="876" 
d="M704 508q-33 0 -57 17.5t-34 47.5q-83 -61 -182 -61q-160 0 -274 114t-114 274q0 161 114 275q112 114 274 114q160 0 269 -114q107 -113 107 -275v-289q0 -43 -30 -73t-73 -30zM431 707q80 0 137 57t57 136t-57 138q-59 57 -137 57q-79 0 -136 -57q-56 -56 -56 -138
q0 -80 56 -136q57 -57 136 -57z" />
    <glyph glyph-name="guillemotleft" unicode="&#xab;" horiz-adv-x="1257" 
d="M1080 0q-41 0 -71 30l-370 370q-2 0 -2 2q-1 0 -1 1l-3 3q-25 25 -26 61q-5 44 30 79l2 2l371 365q30 30 71 30t71 -30t30 -69q0 -41 -30 -71l-305 -299l304 -303q31 -30 31 -71q0 -40 -30 -70t-72 -30zM439 28l-373 373q-30 30 -30 72q0 41 30 71l8 7l366 361
q30 30 71 30t72 -30q30 -30 30 -70q0 -41 -30 -71l-306 -300l304 -302q30 -30 30 -71q0 -40 -30 -70t-71 -30t-71 30z" />
    <glyph glyph-name="logicalnot" unicode="&#xac;" horiz-adv-x="1007" 
d="M821 284q-43 0 -72 29.5t-29 72.5v129h-576q-41 0 -71 30t-30 70q0 43 29 72t72 29h679q41 -1 70 -30q28 -28 28 -71v-229q0 -43 -29 -72q-30 -30 -71 -30z" />
    <glyph glyph-name="uni00AD" unicode="&#xad;" horiz-adv-x="910" 
d="M767 521h-615q-29 0 -48.5 20.5t-19.5 50.5q0 29 19.5 48.5t48.5 19.5h615q29 0 49.5 -19.5t20.5 -47.5q0 -29 -20.5 -50.5t-49.5 -21.5z" />
    <glyph glyph-name="registered" unicode="&#xae;" horiz-adv-x="1428" 
d="M716 -120q-193 0 -363 98q-164 97 -256 259q-97 166 -97 361q0 145 54.5 277t154.5 232q99 100 230.5 155t276.5 55q198 0 364 -97q161 -93 259 -259q98 -167 98 -363q0 -195 -98 -361q-100 -168 -259 -259q-170 -98 -364 -98zM717 62q109 0 207.5 40.5t173.5 115.5
q156 156 156 380q0 107 -41 206t-115 174q-75 75 -173.5 115.5t-207.5 40.5q-223 0 -379 -156q-75 -75 -115.5 -173.5t-40.5 -206.5q0 -110 40.5 -208.5t115.5 -171.5q73 -75 171 -115.5t208 -40.5zM551 228q-30 0 -50 19t-20 48v276q5 153 113 260q110 108 262 108h4
q32 0 51 -18.5t19 -48.5q0 -29 -20 -48t-50 -19h-4q-98 0 -168 -70q-72 -72 -72 -171v-269q0 -29 -19 -48t-46 -19z" />
    <glyph glyph-name="overscore" unicode="&#xaf;" horiz-adv-x="840" 
d="M649 1093h-394q-36 0 -61 26t-25 63q0 36 24.5 60t61.5 24h394q37 0 62 -24q25 -26 25 -60q0 -36 -25 -62q-25 -27 -62 -27z" />
    <glyph glyph-name="degree" unicode="&#xb0;" horiz-adv-x="749" 
d="M399 569q-128 0 -224 96q-95 95 -95 227q0 131 95 226q95 93 224 93q132 0 227 -93q93 -90 93 -226q0 -132 -93 -227q-96 -96 -227 -96zM400 737q64 0 109 45t45 109q0 65 -45 110t-109 45q-65 0 -110 -45t-45 -110q0 -64 45 -109t110 -45z" />
    <glyph glyph-name="plusminus" unicode="&#xb1;" horiz-adv-x="822" 
d="M411 388q-41 0 -71 30t-30 70v190h-189q-42 0 -71 29t-29 70q0 40 29 72q29 30 71 30h189v189q0 42 30 71q32 29 71 29q42 0 71 -29t29 -71v-189h190q43 0 71 -30q29 -32 29 -73q0 -42 -29 -70t-71 -28h-190v-190q0 -42 -29 -71t-71 -29zM697 -5h-563q-42 0 -72 30
t-30 70q0 43 29.5 72t72.5 29h563q43 0 72 -30q29 -32 29 -71q0 -41 -29 -70q-30 -30 -72 -30z" />
    <glyph glyph-name="uni00B2" unicode="&#xb2;" horiz-adv-x="690" 
d="M525 499h-380q-33 0 -58 18t-34 48v3l-1 1q-7 17 -7 40q0 38 25 62l324 303q20 23 20 49q0 35 -21 57.5t-56 22.5q-30 0 -52 -16t-28 -40q-2 -40 -30.5 -67.5t-69.5 -27.5t-68 29q-28 29 -28 69q0 26 9 44q0 2 1 3q19 72 85 121q74 54 178 54q116 0 198 -71
q80 -69 80 -176q0 -85 -39 -129q-1 0 -1 -1l-7 -9l-194 -199h154q42 0 69 -27.5t27 -68.5q0 -40 -27 -66t-69 -26z" />
    <glyph glyph-name="uni00B3" unicode="&#xb3;" horiz-adv-x="605" 
d="M285 501q-73 0 -141 45q-64 40 -100 108q-7 13 -7 30q0 38 35 60q16 9 33 9q35 0 55 -32l5 -10q36 -62 130 -62q49 0 80 34q33 35 33 82q0 45 -32.5 74t-81.5 29h-57v1q-38 0 -61 23q-21 16 -21 44q0 27 19 46l132 136h-206q-31 0 -53 19q-27 23 -27 58q0 37 27 62
q22 22 53 22h370q12 0 26 -6q22 -9 37 -30.5t15 -45.5q0 -27 -16 -46q-3 -10 -9 -16l-127 -133q75 -27 118.5 -88t43.5 -141q0 -112 -80 -192t-193 -80z" />
    <glyph glyph-name="acute" unicode="&#xb4;" horiz-adv-x="498" 
d="M94 1476q-30 30 -30 70q0 42 30 72l133 134q30 30 72 30q39 0 71 -29q30 -30 30 -71q0 -40 -30 -70l-135 -136q-30 -30 -71 -30q-40 0 -70 30z" />
    <glyph glyph-name="uni00B5" unicode="&#xb5;" horiz-adv-x="1159" 
d="M232 -338q-40 0 -72 30q-30 28 -30 71v1079q0 42 30 71q32 29 71 29q42 0 70 -29t28 -71v-421q0 -111 84 -192q84 -82 193 -82q111 0 190 82q77 80 77 192v421q0 42 28.5 71t70.5 29t71 -29t29 -71v-422q-2 -195 -135 -335q-64 -66 -150 -102.5t-181 -36.5
q-150 0 -277 89v-272q0 -43 -27.5 -72t-69.5 -29z" />
    <glyph glyph-name="paragraph" unicode="&#xb6;" horiz-adv-x="1438" 
d="M654 0q-43 0 -73 29t-30 72v302h-71q-183 0 -309 128q-61 61 -94.5 141t-33.5 167q0 181 128 311q61 61 141.5 95.5t167.5 34.5h841q43 0 72 -27t29 -68t-29 -73q-29 -30 -72 -30h-86v-981q0 -43 -30 -72t-73 -29q-40 0 -69 33q-27 31 -27 75v974h-286v-976
q0 -42 -27 -74t-69 -32zM470 606h81v469h-81q-98 0 -165 -69q-68 -70 -68 -167q0 -101 68 -166q67 -67 165 -67z" />
    <glyph glyph-name="middot" unicode="&#xb7;" horiz-adv-x="349" 
d="M168 367q-47 0 -82 35q-34 34 -34 84q0 49 34 83q35 35 82 35q48 0 86 -35q34 -34 34 -83q0 -50 -34 -84q-38 -35 -86 -35z" />
    <glyph glyph-name="cedilla" unicode="&#xb8;" horiz-adv-x="470" 
d="M280 -513q-89 0 -152 63t-63 151q0 28 18.5 47t46.5 19q25 0 43 -18.5t19 -45.5q0 -37 26.5 -63.5t63.5 -26.5q38 0 63.5 26.5t25.5 63.5q0 42 -28 66t-78 24q-71 0 -71 52v192q0 21 19.5 37t44.5 16q24 0 44 -16t20 -37v-123q74 -12 125 -72q49 -58 49 -141
q0 -88 -63 -151q-65 -63 -153 -63z" />
    <glyph glyph-name="uni00B9" unicode="&#xb9;" horiz-adv-x="528" 
d="M334 524q-40 0 -72 30q-30 28 -30 71v375l-68 -39q-26 -14 -50 -14q-57 0 -90 51q-14 23 -14 51q0 14 3 26q11 41 46 63l221 128q22 12 50 14h8q42 -2 70.5 -30.5t28.5 -70.5v-554q0 -43 -30 -72t-73 -29z" />
    <glyph glyph-name="ordmasculine" unicode="&#xba;" horiz-adv-x="876" 
d="M437 512q-159 0 -273 114t-114 274t114 274q113 113 273 113q161 0 274 -113t113 -274t-113 -274q-114 -114 -274 -114zM437 706q80 0 135 57q56 56 56 137q0 79 -56 135t-135 56q-81 0 -137 -56q-57 -55 -57 -135q0 -82 57 -137q56 -57 137 -57z" />
    <glyph glyph-name="guillemotright" unicode="&#xbb;" horiz-adv-x="1257" 
d="M65 30q-30 30 -30 71q0 40 30 70l304 303l-305 299q-30 30 -30 71q0 39 30 69t71 30t71 -30l374 -367q28 -28 29 -65q5 -49 -29 -79l-373 -372q-30 -30 -71 -30t-71 30zM635 28q-30 30 -30 70q0 41 30 71l304 302l-306 300q-29 29 -29 71q0 41 29 70q31 30 72 30t71 -30
l365 -361l9 -7q12 -12 20 -30l3 -6q6 -18 6 -36q0 -42 -29 -71l-373 -373q-30 -30 -71 -30t-71 30z" />
    <glyph glyph-name="onequarter" unicode="&#xbc;" horiz-adv-x="1666" 
 />
    <glyph glyph-name="onehalf" unicode="&#xbd;" horiz-adv-x="1612" 
 />
    <glyph glyph-name="threequarters" unicode="&#xbe;" horiz-adv-x="1640" 
 />
    <glyph glyph-name="questiondown" unicode="&#xbf;" horiz-adv-x="918" 
d="M517 765q-44 0 -76 32q-32 30 -32 77q0 43 32 75t76 32t76 -32q31 -32 31 -75q0 -46 -31 -77q-32 -32 -76 -32zM411 -319q-168 0 -283 118q-119 116 -119 283q0 79 31.5 151.5t88.5 127.5q119 113 285 113h4v78q0 43 28 72.5t70 29.5q43 0 72 -29.5t29 -72.5v-176
q0 -42 -30 -71q-31 -30 -71 -30h-106q-85 0 -141 -56q-61 -58 -61 -137q0 -84 56 -142q57 -60 146 -60q81 0 139 56q61 57 63 141v5q0 43 27.5 72.5t68.5 29.5q40 0 72 -29q31 -29 31 -72v-7q-2 -163 -119 -279q-119 -116 -281 -116z" />
    <glyph glyph-name="Agrave" unicode="&#xc0;" horiz-adv-x="1177" 
d="M496 1416l-135 136q-30 30 -30 70q0 41 30 71q32 29 72 29q41 0 71 -30l133 -134q30 -30 30 -72q0 -40 -30 -70t-70 -30q-41 0 -71 30zM1024 6q-37 13 -57 53l-125 297h-507l-123 -296q-16 -40 -55 -53q-18 -7 -36 -7q-22 0 -43 9q-56 25 -56 85q0 26 10 46l469 1079
q27 61 91 61q65 0 90 -60l464 -1080q10 -20 10 -46q0 -60 -55 -85q-19 -9 -42 -9q-19 0 -35 6zM418 555h340l-171 407z" />
    <glyph glyph-name="Aacute" unicode="&#xc1;" horiz-adv-x="1177" 
d="M560 1403q-30 30 -30 70q0 42 30 72l133 134q30 30 72 30q39 0 71 -29q30 -30 30 -71q0 -40 -30 -70l-135 -136q-30 -30 -71 -30q-40 0 -70 30zM1024 6q-37 13 -57 53l-125 297h-507l-123 -296q-16 -40 -55 -53q-18 -7 -36 -7q-22 0 -43 9q-56 25 -56 85q0 26 10 46
l469 1079q27 61 91 61q65 0 90 -60l464 -1080q10 -20 10 -46q0 -60 -55 -85q-19 -9 -42 -9q-19 0 -35 6zM418 555h340l-171 407z" />
    <glyph glyph-name="Acircumflex" unicode="&#xc2;" horiz-adv-x="1177" 
d="M352 1371q-19 6 -33.5 21t-20.5 34q-4 9 -4 25q0 30 24 54l212 214q21 21 46 24q2 1 9 1h9q6 0 7 -1q23 -3 46 -24l212 -214q25 -25 25 -56q0 -24 -17.5 -47t-41.5 -31q-9 -4 -25 -4q-31 0 -55 24l-157 157l-156 -157q-24 -24 -55 -24q-16 0 -25 4zM1024 6q-37 13 -57 53
l-125 297h-507l-123 -296q-16 -40 -55 -53q-18 -7 -36 -7q-22 0 -43 9q-56 25 -56 85q0 26 10 46l469 1079q27 61 91 61q65 0 90 -60l464 -1080q10 -20 10 -46q0 -60 -55 -85q-19 -9 -42 -9q-19 0 -35 6zM418 555h340l-171 407z" />
    <glyph glyph-name="Atilde" unicode="&#xc3;" horiz-adv-x="1177" 
d="M707 1378q-68 0 -151 62l-18 14q-21 16 -50 27q-17 5 -27 5q-49 0 -94 -58q-8 -13 -13 -18q-24 -24 -57 -24t-56 23q-24 23 -24 57q-2 32 22 56q24 37 73 74q67 52 142 52q74 0 149 -58l20 -15q23 -18 52 -29q13 -6 27 -6q48 0 96 62q9 12 10 13q23 23 56 23t56.5 -23
t24.5 -55q0 -30 -23 -56q-20 -35 -72 -74q-68 -52 -143 -52zM1024 6q-37 13 -57 53l-125 297h-507l-123 -296q-16 -40 -55 -53q-18 -7 -36 -7q-22 0 -43 9q-56 25 -56 85q0 26 10 46l469 1079q27 61 91 61q65 0 90 -60l464 -1080q10 -20 10 -46q0 -60 -55 -85q-19 -9 -42 -9
q-19 0 -35 6zM418 555h340l-171 407z" />
    <glyph glyph-name="Adieresis" unicode="&#xc4;" horiz-adv-x="1177" 
d="M399 1383q-47 0 -79 32t-32 79t32 79q33 33 79 33t79 -33t33 -79t-33 -79q-32 -32 -79 -32zM768 1383q-46 0 -78 32q-33 33 -33 79t33 79t78 33q47 0 80 -33q32 -32 32 -79t-32 -79t-80 -32zM1024 6q-37 13 -57 53l-125 297h-507l-123 -296q-16 -40 -55 -53
q-18 -7 -36 -7q-22 0 -43 9q-56 25 -56 85q0 26 10 46l469 1079q27 61 91 61q65 0 90 -60l464 -1080q10 -20 10 -46q0 -60 -55 -85q-19 -9 -42 -9q-19 0 -35 6zM418 555h340l-171 407z" />
    <glyph glyph-name="Aring" unicode="&#xc5;" horiz-adv-x="1177" 
d="M589 1330q-88 0 -151 65q-63 63 -63 151q0 89 63 152q62 62 151 62t153 -62q62 -62 62 -152q0 -89 -62 -151q-65 -65 -153 -65zM590 1469q32 0 54.5 22.5t22.5 54.5t-22.5 55t-54.5 23t-54.5 -23t-22.5 -55t22.5 -54.5t54.5 -22.5zM1024 6q-37 13 -57 53l-125 297h-507
l-123 -296q-16 -40 -55 -53q-18 -7 -36 -7q-22 0 -43 9q-56 25 -56 85q0 26 10 46l469 1079q27 61 91 61q65 0 90 -60l464 -1080q10 -20 10 -46q0 -60 -55 -85q-19 -9 -42 -9q-19 0 -35 6zM418 555h340l-171 407z" />
    <glyph glyph-name="AE" unicode="&#xc6;" horiz-adv-x="1599" 
d="M124 -3q-35 0 -63 22q-40 30 -40 80q0 34 23 62l831 1073q27 40 76 45q2 0 3 1h2h500q43 0 73 -30t30 -73q0 -42 -30 -72q-28 -31 -73 -31h-393v-360h253q45 0 72 -29q29 -32 29 -72q0 -43 -29 -73t-72 -30l-253 -2v-304l391 -1q42 0 72 -30t30 -72q0 -43 -30 -72
q-32 -30 -72 -29h-498q-40 2 -69 31t-29 70v151h-486l-167 -215q-34 -40 -81 -40zM531 456h327v421z" />
    <glyph glyph-name="Ccedilla" unicode="&#xc7;" horiz-adv-x="1226" 
d="M718 -525q-89 0 -152 63t-63 151q0 28 18.5 47t46.5 19q25 0 43 -18.5t19 -45.5q0 -37 26.5 -63.5t63.5 -26.5q38 0 63.5 26.5t25.5 63.5q0 42 -28 66t-78 24q-71 0 -71 52v158q-160 13 -298 105q-134 89 -211 230q-80 145 -80 311q0 171 85 321q84 149 228 238
q150 93 336 93q130 0 249 -49.5t212 -143.5q29 -29 29 -68q0 -42 -28 -70q-32 -29 -71 -29q-43 0 -70 27q-132 132 -322 132q-183 0 -316 -130q-132 -132 -132 -319q0 -184 127 -316q128 -134 318 -136q187 0 323 131q30 27 70 27t69 -26q29 -29 29 -70q0 -40 -27 -70
q-167 -164 -392 -187v-90q74 -12 125 -72q49 -58 49 -141q0 -88 -63 -151q-65 -63 -153 -63z" />
    <glyph glyph-name="Egrave" unicode="&#xc8;" horiz-adv-x="912" 
d="M391 1420l-135 136q-30 30 -30 70q0 41 30 71q32 29 72 29q41 0 71 -30l133 -134q30 -30 30 -72q0 -40 -30 -70t-70 -30q-41 0 -71 30zM764 0h-542q-40 3 -66 30.5t-26 68.5v1081q0 42 29 71t71 29h534q41 0 70 -29q28 -28 28 -71q0 -42 -28 -70.5t-70 -28.5h-435v-346
h314q42 2 71 -27q28 -28 28 -71q0 -42 -28.5 -69t-70.5 -27h-314v-343h435q42 0 70 -29t28 -71t-28 -70q-30 -30 -70 -28z" />
    <glyph glyph-name="Eacute" unicode="&#xc9;" horiz-adv-x="912" 
d="M404 1395q-30 30 -30 70q0 42 30 72l133 134q30 30 72 30q39 0 71 -29q30 -30 30 -71q0 -40 -30 -70l-135 -136q-30 -30 -71 -30q-40 0 -70 30zM764 0h-542q-40 3 -66 30.5t-26 68.5v1081q0 42 29 71t71 29h534q41 0 70 -29q28 -28 28 -71q0 -42 -28 -70.5t-70 -28.5
h-435v-346h314q42 2 71 -27q28 -28 28 -71q0 -42 -28.5 -69t-70.5 -27h-314v-343h435q42 0 70 -29t28 -71t-28 -70q-30 -30 -70 -28z" />
    <glyph glyph-name="Ecircumflex" unicode="&#xca;" horiz-adv-x="912" 
d="M211 1390q-19 6 -33.5 21t-20.5 34q-4 9 -4 25q0 30 24 54l212 214q21 21 46 24q2 1 9 1h9q6 0 7 -1q23 -3 46 -24l212 -214q25 -25 25 -56q0 -24 -17.5 -47t-41.5 -31q-9 -4 -25 -4q-31 0 -55 24l-157 157l-156 -157q-24 -24 -55 -24q-16 0 -25 4zM764 0h-542
q-40 3 -66 30.5t-26 68.5v1081q0 42 29 71t71 29h534q41 0 70 -29q28 -28 28 -71q0 -42 -28 -70.5t-70 -28.5h-435v-346h314q42 2 71 -27q28 -28 28 -71q0 -42 -28.5 -69t-70.5 -27h-314v-343h435q42 0 70 -29t28 -71t-28 -70q-30 -30 -70 -28z" />
    <glyph glyph-name="Edieresis" unicode="&#xcb;" horiz-adv-x="912" 
d="M298 1393q-47 0 -79 32t-32 79t32 79q33 33 79 33t79 -33t33 -79t-33 -79q-32 -32 -79 -32zM667 1393q-46 0 -78 32q-33 33 -33 79t33 79t78 33q47 0 80 -33q32 -32 32 -79t-32 -79t-80 -32zM764 0h-542q-40 3 -66 30.5t-26 68.5v1081q0 42 29 71t71 29h534q41 0 70 -29
q28 -28 28 -71q0 -42 -28 -70.5t-70 -28.5h-435v-346h314q42 2 71 -27q28 -28 28 -71q0 -42 -28.5 -69t-70.5 -27h-314v-343h435q42 0 70 -29t28 -71t-28 -70q-30 -30 -70 -28z" />
    <glyph glyph-name="Igrave" unicode="&#xcc;" horiz-adv-x="459" 
d="M148 1412l-135 136q-30 30 -30 70q0 41 30 71q32 29 72 29q41 0 71 -30l133 -134q30 -30 30 -72q0 -40 -30 -70t-70 -30q-41 0 -71 30zM229 0q-42 0 -70.5 28t-28.5 70v1084q0 42 28.5 70t70.5 28t71 -28t29 -70v-1084q0 -42 -29 -70t-71 -28z" />
    <glyph glyph-name="Iacute" unicode="&#xcd;" horiz-adv-x="459" 
d="M174 1417q-30 30 -30 70q0 42 30 72l133 134q30 30 72 30q39 0 71 -29q30 -30 30 -71q0 -40 -30 -70l-135 -136q-30 -30 -71 -30q-40 0 -70 30zM229 0q-42 0 -70.5 28t-28.5 70v1084q0 42 28.5 70t70.5 28t71 -28t29 -70v-1084q0 -42 -29 -70t-71 -28z" />
    <glyph glyph-name="Icircumflex" unicode="&#xce;" horiz-adv-x="459" 
d="M-4 1380q-19 6 -33.5 21t-20.5 34q-4 9 -4 25q0 30 24 54l212 214q21 21 46 24q2 1 9 1h9q6 0 7 -1q23 -3 46 -24l212 -214q25 -25 25 -56q0 -24 -17.5 -47t-41.5 -31q-9 -4 -25 -4q-31 0 -55 24l-157 157l-156 -157q-24 -24 -55 -24q-16 0 -25 4zM229 0q-42 0 -70.5 28
t-28.5 70v1084q0 42 28.5 70t70.5 28t71 -28t29 -70v-1084q0 -42 -29 -70t-71 -28z" />
    <glyph glyph-name="Idieresis" unicode="&#xcf;" horiz-adv-x="459" 
d="M48 1389q-47 0 -79 32t-32 79t32 79q33 33 79 33t79 -33t33 -79t-33 -79q-32 -32 -79 -32zM417 1389q-46 0 -78 32q-33 33 -33 79t33 79t78 33q47 0 80 -33q32 -32 32 -79t-32 -79t-80 -32zM229 0q-42 0 -70.5 28t-28.5 70v1084q0 42 28.5 70t70.5 28t71 -28t29 -70
v-1084q0 -42 -29 -70t-71 -28z" />
    <glyph glyph-name="Eth" unicode="&#xd0;" horiz-adv-x="1230" 
d="M452 0h-223q-42 0 -70.5 28t-28.5 70v457h-83q-35 0 -59 25.5t-24 61.5q0 35 24 59t59 24h83v457q0 42 28.5 70t70.5 28h220q180 0 329 -86t234 -230q89 -152 89 -326q0 -176 -88 -324q-85 -142 -234 -228q-151 -86 -327 -86zM329 200h121q189 0 320 125q131 126 131 313
q0 182 -130 312q-129 127 -316 129h-126v-354h123q36 0 60.5 -24.5t24.5 -58.5q0 -36 -24.5 -61.5t-60.5 -25.5h-123v-355z" />
    <glyph glyph-name="Ntilde" unicode="&#xd1;" horiz-adv-x="1204" 
d="M790 1375q-68 0 -151 62l-18 14q-21 16 -50 27q-17 5 -27 5q-49 0 -94 -58q-8 -13 -13 -18q-24 -24 -57 -24t-56 23q-24 22 -24 57q-2 32 22 56q24 37 73 74q67 52 142 52q74 0 149 -58l20 -15q23 -18 52 -29q14 -6 27 -6q48 0 96 62q9 12 10 13q23 23 56 23t56.5 -23
t24.5 -55q0 -30 -23 -56q-20 -35 -72 -74q-68 -52 -143 -52zM229 0q-42 0 -70.5 28t-28.5 70v1081q0 42 28.5 70t70.5 28h1q8 0 16 -2l14 -3q17 -6 29 -15l11 -9q10 -10 18 -24l594 -830v788q0 42 29.5 70t71.5 28q45 0 70 -28q28 -29 28 -70v-1084q0 -33 -19.5 -59
t-50.5 -35q-14 -4 -18 -4h-11q-35 0 -62 21q-15 11 -18 17l-603 844v-784q0 -42 -29 -70t-71 -28z" />
    <glyph glyph-name="Ograve" unicode="&#xd2;" horiz-adv-x="1386" 
d="M597 1413l-135 136q-30 30 -30 70q0 41 30 71q32 29 72 29q41 0 71 -30l133 -134q30 -30 30 -72q0 -40 -30 -70t-70 -30q-41 0 -71 30zM691 -12q-131 0 -250 50t-209 141q-91 91 -140 209.5t-49 249.5q0 178 88 329q86 148 232 233q154 89 328 89q178 0 329 -89
q149 -87 234 -233q89 -155 89 -329q0 -131 -50 -249.5t-141 -209.5t-210.5 -141t-250.5 -50zM692 187q189 0 320 131t131 320q0 90 -34 172.5t-97 145.5q-132 132 -320 132q-92 0 -174.5 -34.5t-143.5 -97.5q-63 -63 -97 -145.5t-34 -172.5q0 -189 131 -320
q61 -63 143.5 -97t174.5 -34z" />
    <glyph glyph-name="Oacute" unicode="&#xd3;" horiz-adv-x="1386" 
d="M694 1424q-30 30 -30 70q0 42 30 72l133 134q30 30 72 30q39 0 71 -29q30 -30 30 -71q0 -40 -30 -70l-135 -136q-30 -30 -71 -30q-40 0 -70 30zM691 -12q-131 0 -250 50t-209 141q-91 91 -140 209.5t-49 249.5q0 178 88 329q86 148 232 233q154 89 328 89q178 0 329 -89
q149 -87 234 -233q89 -155 89 -329q0 -131 -50 -249.5t-141 -209.5t-210.5 -141t-250.5 -50zM692 187q189 0 320 131t131 320q0 90 -34 172.5t-97 145.5q-132 132 -320 132q-92 0 -174.5 -34.5t-143.5 -97.5q-63 -63 -97 -145.5t-34 -172.5q0 -189 131 -320
q61 -63 143.5 -97t174.5 -34z" />
    <glyph glyph-name="Ocircumflex" unicode="&#xd4;" horiz-adv-x="1386" 
d="M456 1389q-19 6 -33.5 21t-20.5 34q-4 9 -4 24q0 31 24 55l212 214q21 21 46 24q2 1 9 1h9q6 0 7 -1q23 -3 46 -24l212 -214q25 -25 25 -56q0 -11 -4 -23q-7 -19 -22 -34t-33 -21q-9 -4 -25 -4q-31 0 -55 24l-157 157l-156 -157q-24 -24 -55 -24q-16 0 -25 4zM691 -12
q-131 0 -250 50t-209 141q-91 91 -140 209.5t-49 249.5q0 178 88 329q86 148 232 233q154 89 328 89q178 0 329 -89q149 -87 234 -233q89 -155 89 -329q0 -131 -50 -249.5t-141 -209.5t-210.5 -141t-250.5 -50zM692 187q189 0 320 131t131 320q0 90 -34 172.5t-97 145.5
q-132 132 -320 132q-92 0 -174.5 -34.5t-143.5 -97.5q-63 -63 -97 -145.5t-34 -172.5q0 -189 131 -320q61 -63 143.5 -97t174.5 -34z" />
    <glyph glyph-name="Otilde" unicode="&#xd5;" horiz-adv-x="1386" 
d="M849 1425q-68 0 -151 62l-18 14l-23 15q-32 17 -54 17q-49 0 -94 -58q-8 -13 -13 -18q-24 -24 -57 -24t-56 23q-24 22 -24 57q-2 32 22 56q24 37 73 74q67 52 142 52q74 0 149 -58l20 -15q7 -5 25 -16q34 -19 54 -19q48 0 96 62q9 12 10 13q23 23 56 23t56 -23
q25 -25 25 -57q0 -28 -23 -54q-20 -35 -72 -74q-68 -52 -143 -52zM691 -12q-131 0 -250 50t-209 141q-91 91 -140 209.5t-49 249.5q0 178 88 329q86 148 232 233q154 89 328 89q178 0 329 -89q149 -87 234 -233q89 -155 89 -329q0 -131 -50 -249.5t-141 -209.5t-210.5 -141
t-250.5 -50zM692 187q189 0 320 131t131 320q0 90 -34 172.5t-97 145.5q-132 132 -320 132q-92 0 -174.5 -34.5t-143.5 -97.5q-63 -63 -97 -145.5t-34 -172.5q0 -189 131 -320q61 -63 143.5 -97t174.5 -34z" />
    <glyph glyph-name="Odieresis" unicode="&#xd6;" horiz-adv-x="1386" 
d="M496 1389q-47 0 -79 32t-32 79t32 79q33 33 79 33t79 -33t33 -79t-33 -79q-32 -32 -79 -32zM865 1389q-46 0 -78 32q-33 33 -33 79t33 79t78 33q47 0 80 -33q32 -32 32 -79t-32 -79t-80 -32zM691 -12q-131 0 -250 50t-209 141q-91 91 -140 209.5t-49 249.5q0 178 88 329
q86 148 232 233q154 89 328 89q178 0 329 -89q149 -87 234 -233q89 -155 89 -329q0 -131 -50 -249.5t-141 -209.5t-210.5 -141t-250.5 -50zM692 187q189 0 320 131t131 320q0 90 -34 172.5t-97 145.5q-132 132 -320 132q-92 0 -174.5 -34.5t-143.5 -97.5q-63 -63 -97 -145.5
t-34 -172.5q0 -189 131 -320q61 -63 143.5 -97t174.5 -34z" />
    <glyph glyph-name="multiply" unicode="&#xd7;" horiz-adv-x="986" 
d="M175 52q-44 0 -67 27q-27 25 -27 63q0 36 27 65l268 270l-271 274q-26 26 -26 64q0 36 28 64q27 27 64 27q34 0 64 -27l270 -272l268 270q28 28 66 28t64 -26q28 -28 28 -64q0 -40 -25 -65l-272 -274l265 -266q27 -27 27 -65q0 -41 -27 -65q-27 -27 -64 -27q-39 0 -65 26
l-265 267l-264 -267q-27 -27 -66 -27z" />
    <glyph glyph-name="Oslash" unicode="&#xd8;" horiz-adv-x="1386" 
d="M693 -12q-202 0 -364 111l-59 -63q-32 -35 -77 -35q-40 0 -65 23q-35 29 -35 78q0 39 23 64l65 70q-138 174 -138 402q0 178 88 329q86 147 233 233q151 89 329 89q198 0 367 -115l60 64q33 36 78 36q35 0 66 -25q35 -29 35 -73q0 -37 -24 -67l-69 -73q136 -177 136 -398
q0 -131 -49.5 -249t-139.5 -210q-90 -91 -209.5 -141t-250.5 -50zM323 388l594 633q-101 61 -224 61q-90 0 -172 -34.5t-143 -95.5t-95.5 -143t-34.5 -171q0 -138 75 -250zM693 193q187 0 314 130q61 61 95 143t34 172q0 136 -73 245l-592 -632q101 -58 222 -58z" />
    <glyph glyph-name="Ugrave" unicode="&#xd9;" horiz-adv-x="1134" 
d="M552 1394l-135 136q-30 30 -30 70q0 41 30 71q32 29 72 29q41 0 71 -30l133 -134q30 -30 30 -72q0 -40 -30 -70t-70 -30q-41 0 -71 30zM571 -11q-206 0 -343 137q-66 64 -101.5 149.5t-35.5 180.5v723q0 42 29 71t70 29q42 0 71 -29t29 -71v-718q0 -112 79 -194
q82 -82 201 -82t195 82q73 79 73 194v721q0 43 29 70q29 28 70 28q42 0 71 -28t29 -70v-726q0 -199 -129 -330q-132 -137 -337 -137z" />
    <glyph glyph-name="Uacute" unicode="&#xda;" horiz-adv-x="1134" 
d="M501 1387q-30 30 -30 70q0 42 30 72l133 134q30 30 72 30q39 0 71 -29q30 -30 30 -71q0 -40 -30 -70l-135 -136q-30 -30 -71 -30q-40 0 -70 30zM571 -11q-206 0 -343 137q-66 64 -101.5 149.5t-35.5 180.5v723q0 42 29 71t70 29q42 0 71 -29t29 -71v-718q0 -112 79 -194
q82 -82 201 -82t195 82q73 79 73 194v721q0 43 29 70q29 28 70 28q42 0 71 -28t29 -70v-726q0 -199 -129 -330q-132 -137 -337 -137z" />
    <glyph glyph-name="Ucircumflex" unicode="&#xdb;" horiz-adv-x="1134" 
d="M321 1345q-19 6 -33.5 21t-20.5 34q-4 9 -4 25q0 30 24 54l212 214q21 21 46 24q2 1 9 1h9q6 0 7 -1q23 -3 46 -24l212 -214q25 -25 25 -56q0 -11 -4 -23q-7 -19 -22 -34t-33 -21q-9 -4 -25 -4q-31 0 -55 24l-157 157l-156 -157q-24 -24 -55 -24q-16 0 -25 4zM571 -11
q-206 0 -343 137q-66 64 -101.5 149.5t-35.5 180.5v723q0 42 29 71t70 29q42 0 71 -29t29 -71v-718q0 -112 79 -194q82 -82 201 -82t195 82q73 79 73 194v721q0 43 29 70q29 28 70 28q42 0 71 -28t29 -70v-726q0 -199 -129 -330q-132 -137 -337 -137z" />
    <glyph glyph-name="Udieresis" unicode="&#xdc;" horiz-adv-x="1134" 
d="M393 1390q-47 0 -79 32t-32 79t32 79q33 33 79 33t79 -33t33 -79t-33 -79q-32 -32 -79 -32zM762 1390q-46 0 -78 32q-33 33 -33 79t33 79t78 33q47 0 80 -33q32 -32 32 -79t-32 -79t-80 -32zM571 -11q-206 0 -343 137q-66 64 -101.5 149.5t-35.5 180.5v723q0 42 29 71
t70 29q42 0 71 -29t29 -71v-718q0 -112 79 -194q82 -82 201 -82t195 82q73 79 73 194v721q0 43 29 70q29 28 70 28q42 0 71 -28t29 -70v-726q0 -199 -129 -330q-132 -137 -337 -137z" />
    <glyph glyph-name="Yacute" unicode="&#xdd;" horiz-adv-x="1075" 
d="M562 1395q-30 30 -30 70q0 42 30 72l133 134q30 30 72 30q39 0 71 -29q30 -30 30 -71q0 -40 -30 -70l-135 -136q-30 -30 -71 -30q-40 0 -70 30zM535 0q-42 0 -70.5 28t-28.5 70v433l-391 579q-24 28 -24 65q0 45 35 77q29 25 69 25q42 0 71 -35l339 -514l337 516
q28 34 74 34q34 0 63 -24q37 -31 37 -76q0 -36 -25 -67l-386 -579v-434q0 -42 -29 -70t-71 -28z" />
    <glyph glyph-name="Thorn" unicode="&#xde;" horiz-adv-x="1063" 
d="M229 0q-42 0 -70.5 28t-28.5 70v1084q0 42 28.5 70t70.5 28t71 -28t29 -70v-86h215q200 0 337 -128q139 -131 139 -326q0 -196 -139 -324q-137 -128 -338 -128h-214v-92q0 -42 -29 -70t-71 -28zM329 389h217q116 0 196 74q78 75 78 179q0 103 -79 180q-77 75 -194 75
h-218v-508z" />
    <glyph glyph-name="germandbls" unicode="&#xdf;" horiz-adv-x="987" 
d="M232 -269q-42 0 -72 30t-30 72v1060q0 175 107 282q105 110 276 110q144 0 251 -97q106 -100 106 -243q0 -80 -30.5 -148.5t-85.5 -113.5q87 -43 138 -126q52 -83 52 -187q0 -144 -96 -248q-108 -116 -271 -122h-4q-41 0 -69.5 28.5t-28.5 69.5t28.5 69.5t69.5 28.5h5
q69 0 122 56q50 55 50 129q0 75 -54 126q-52 44 -122 44h-25q-45 0 -77 32t-32 77q0 46 32 78t77 32h4q59 1 96 55q33 49 33 114q0 66 -49 109q-49 45 -120 45q-75 0 -122 -44q-54 -52 -56 -153v-1063q0 -42 -30 -72t-73 -30z" />
    <glyph glyph-name="agrave" unicode="&#xe0;" horiz-adv-x="1095" 
d="M450 1103l-135 136q-30 30 -30 70q0 41 30 71q32 29 72 29q41 0 71 -30l133 -134q30 -30 30 -72q0 -40 -30 -70t-70 -30q-41 0 -71 30zM520 -12q-96 0 -183 36.5t-154 103.5q-140 140 -140 337t140 337q67 67 154 103.5t183 36.5q197 0 335 -138q139 -139 141 -335v-367
q0 -40 -29 -72q-27 -30 -73 -30q-39 0 -66 26t-31 65q-127 -103 -277 -103zM520 188q115 0 197 82q80 80 80 195q0 116 -80 196t-197 80q-115 0 -195 -80q-82 -82 -82 -196q0 -113 82 -195t195 -82z" />
    <glyph glyph-name="aacute" unicode="&#xe1;" horiz-adv-x="1095" 
d="M516 1102q-30 30 -30 70q0 42 30 72l133 134q30 30 72 30q39 0 71 -29q30 -30 30 -71q0 -40 -30 -70l-135 -136q-30 -30 -71 -30q-40 0 -70 30zM520 -12q-96 0 -183 36.5t-154 103.5q-140 140 -140 337t140 337q67 67 154 103.5t183 36.5q197 0 335 -138
q139 -139 141 -335v-367q0 -40 -29 -72q-27 -30 -73 -30q-39 0 -66 26t-31 65q-127 -103 -277 -103zM520 188q115 0 197 82q80 80 80 195q0 116 -80 196t-197 80q-115 0 -195 -80q-82 -82 -82 -196q0 -113 82 -195t195 -82z" />
    <glyph glyph-name="acircumflex" unicode="&#xe2;" horiz-adv-x="1095" 
d="M284 1068q-19 6 -33.5 21t-20.5 34q-4 9 -4 25q0 30 24 54l212 214q21 21 46 24q2 1 9 1h9q6 0 7 -1q23 -3 46 -24l212 -214q25 -25 25 -56q0 -11 -4 -23q-7 -19 -22 -34t-33 -21q-9 -4 -25 -4q-31 0 -55 24l-157 157l-156 -157q-24 -24 -56 -24q-9 0 -24 4zM520 -12
q-96 0 -183 36.5t-154 103.5q-140 140 -140 337t140 337q67 67 154 103.5t183 36.5q197 0 335 -138q139 -139 141 -335v-367q0 -40 -29 -72q-27 -30 -73 -30q-39 0 -66 26t-31 65q-127 -103 -277 -103zM520 188q115 0 197 82q80 80 80 195q0 116 -80 196t-197 80
q-115 0 -195 -80q-82 -82 -82 -196q0 -113 82 -195t195 -82z" />
    <glyph glyph-name="atilde" unicode="&#xe3;" horiz-adv-x="1095" 
d="M665 1068q-68 0 -151 62l-18 14q-21 16 -50 27q-17 5 -27 5q-49 0 -94 -58q-8 -13 -13 -18q-24 -24 -57 -24t-56 23q-24 23 -24 57q-2 32 22 56q24 37 73 74q67 52 142 52q74 0 149 -58l20 -15q23 -18 52 -29q13 -6 27 -6q48 0 96 62q9 12 10 13q23 23 56 23t56.5 -23
t24.5 -55q0 -30 -23 -56q-20 -35 -72 -74q-68 -52 -143 -52zM520 -12q-96 0 -183 36.5t-154 103.5q-140 140 -140 337t140 337q67 67 154 103.5t183 36.5q197 0 335 -138q139 -139 141 -335v-367q0 -40 -29 -72q-27 -30 -73 -30q-39 0 -66 26t-31 65q-127 -103 -277 -103z
M520 188q115 0 197 82q80 80 80 195q0 116 -80 196t-197 80q-115 0 -195 -80q-82 -82 -82 -196q0 -113 82 -195t195 -82z" />
    <glyph glyph-name="adieresis" unicode="&#xe4;" horiz-adv-x="1095" 
d="M337 1076q-47 0 -79 32t-32 79t32 79q33 33 79 33t79 -33t33 -79t-33 -79q-32 -32 -79 -32zM706 1076q-46 0 -78 32q-33 33 -33 79t33 79t78 33q47 0 80 -33q32 -32 32 -79t-32 -79t-80 -32zM520 -12q-96 0 -183 36.5t-154 103.5q-140 140 -140 337t140 337
q67 67 154 103.5t183 36.5q197 0 335 -138q139 -139 141 -335v-367q0 -40 -29 -72q-27 -30 -73 -30q-39 0 -66 26t-31 65q-127 -103 -277 -103zM520 188q115 0 197 82q80 80 80 195q0 116 -80 196t-197 80q-115 0 -195 -80q-82 -82 -82 -196q0 -113 82 -195t195 -82z" />
    <glyph glyph-name="aring" unicode="&#xe5;" horiz-adv-x="1095" 
d="M523 1012q-88 0 -151 65q-63 63 -63 151q0 89 63 152q62 62 151 62t153 -62q62 -62 62 -152q0 -89 -62 -151q-65 -65 -153 -65zM524 1151q32 0 54.5 22.5t22.5 54.5t-22.5 55t-54.5 23t-54.5 -23t-22.5 -55t22.5 -54.5t54.5 -22.5zM520 -12q-96 0 -183 36.5t-154 103.5
q-140 140 -140 337t140 337q67 67 154 103.5t183 36.5q197 0 335 -138q139 -139 141 -335v-367q0 -40 -29 -72q-27 -30 -73 -30q-39 0 -66 26t-31 65q-127 -103 -277 -103zM520 188q115 0 197 82q80 80 80 195q0 116 -80 196t-197 80q-115 0 -195 -80q-82 -82 -82 -196
q0 -113 82 -195t195 -82z" />
    <glyph glyph-name="ae" unicode="&#xe6;" horiz-adv-x="1811" 
d="M1282 -13q-159 0 -288 95q-7 -36 -34.5 -59t-65.5 -23q-39 0 -66 26t-31 65q-127 -103 -277 -103q-96 0 -183 36.5t-154 103.5q-140 140 -140 337t140 337q67 67 154 103.5t183 36.5q111 0 208.5 -48t164.5 -133q69 93 170.5 144.5t218.5 51.5q199 0 341 -140
q143 -143 145 -340q0 -42 -27 -68.5t-71 -26.5h-651q24 -88 97 -145q74 -57 166 -57q116 0 184 74q31 25 67 25q17 0 33 -6q30 -11 48 -42q17 -28 17 -55q0 -45 -38 -77q-55 -52 -121 -78q-83 -34 -190 -34zM1013 548h550q-22 95 -97 156q-77 61 -180 61q-100 0 -178 -63
q-75 -61 -95 -154zM520 188q115 0 197 82q80 80 80 195q0 116 -80 196t-197 80q-115 0 -195 -80q-82 -82 -82 -196q0 -113 82 -195t195 -82z" />
    <glyph glyph-name="ccedilla" unicode="&#xe7;" horiz-adv-x="930" 
d="M562 -515q-89 0 -152 63t-63 151q0 28 18.5 47t46.5 19q25 0 43 -18.5t19 -45.5q0 -37 26.5 -63.5t63.5 -26.5q38 0 63.5 26.5t25.5 63.5q0 42 -28 66t-78 24q-71 0 -71 52v149q-183 18 -307 150q-126 134 -126 319v1q0 1 1 1v1q-1 0 -1 1q0 197 142 339q67 67 155 103.5
t185 36.5q96 0 180.5 -33t144.5 -95q36 -36 37 -79q0 -44 -32 -73q-34 -29 -67 -29q-36 0 -91 43q-80 64 -184 64q-111 0 -191 -87q-75 -81 -75 -188l-1 -2l1 -1q0 -106 74 -186q77 -86 186 -87q110 -5 190 64q54 42 89 42t69 -29q32 -29 32 -72q-1 -43 -37 -79
q-96 -98 -246 -121v-84q74 -12 125 -72q49 -58 49 -141q0 -88 -63 -151q-65 -63 -153 -63z" />
    <glyph glyph-name="egrave" unicode="&#xe8;" horiz-adv-x="1044" 
d="M447 1106l-135 136q-30 30 -30 70q0 41 30 71q32 29 72 29q41 0 71 -30l133 -134q30 -30 30 -72q0 -40 -30 -70t-70 -30q-41 0 -71 30zM522 -11q-197 0 -338 139q-67 67 -104 154t-37 183t37 184t104 154q141 139 338 139q195 0 336 -138t143 -334q0 -42 -27.5 -68.5
t-70.5 -26.5h-639q24 -85 95 -140q69 -55 163 -55q114 0 179 71q31 25 66 25q17 0 33 -6q28 -10 48 -42q17 -26 17 -56q0 -43 -38 -75q-56 -52 -118 -76q-81 -32 -187 -32zM258 541h538q-23 95 -95 151q-75 60 -176 60t-174 -60q-73 -61 -93 -151z" />
    <glyph glyph-name="eacute" unicode="&#xe9;" horiz-adv-x="1044" 
d="M519 1095q-30 30 -30 70q0 42 30 72l133 134q30 30 72 30q39 0 71 -29q30 -30 30 -71q0 -40 -30 -70l-135 -136q-30 -30 -71 -30q-40 0 -70 30zM522 -11q-197 0 -338 139q-67 67 -104 154t-37 183t37 184t104 154q141 139 338 139q195 0 336 -138t143 -334
q0 -42 -27.5 -68.5t-70.5 -26.5h-639q24 -85 95 -140q69 -55 163 -55q114 0 179 71q31 25 66 25q17 0 33 -6q28 -10 48 -42q17 -26 17 -56q0 -43 -38 -75q-56 -52 -118 -76q-81 -32 -187 -32zM258 541h538q-23 95 -95 151q-75 60 -176 60t-174 -60q-73 -61 -93 -151z" />
    <glyph glyph-name="ecircumflex" unicode="&#xea;" horiz-adv-x="1044" 
d="M310 1070q-19 6 -33.5 21t-20.5 34q-4 9 -4 25q0 30 24 54l212 214q21 21 46 24q2 1 9 1h9q6 0 7 -1q23 -3 46 -24l212 -214q25 -25 25 -56q0 -24 -17.5 -47t-41.5 -31q-9 -4 -25 -4q-31 0 -55 24l-157 157l-156 -157q-24 -24 -55 -24q-16 0 -25 4zM522 -11
q-197 0 -338 139q-67 67 -104 154t-37 183t37 184t104 154q141 139 338 139q195 0 336 -138t143 -334q0 -42 -27.5 -68.5t-70.5 -26.5h-639q24 -85 95 -140q69 -55 163 -55q114 0 179 71q31 25 66 25q17 0 33 -6q28 -10 48 -42q17 -26 17 -56q0 -43 -38 -75
q-56 -52 -118 -76q-81 -32 -187 -32zM258 541h538q-23 95 -95 151q-75 60 -176 60t-174 -60q-73 -61 -93 -151z" />
    <glyph glyph-name="edieresis" unicode="&#xeb;" horiz-adv-x="1044" 
d="M359 1072q-47 0 -79 32t-32 79t32 79q33 33 79 33t79 -33t33 -79t-33 -79q-32 -32 -79 -32zM728 1072q-46 0 -78 32q-33 33 -33 79t33 79t78 33q47 0 80 -33q32 -32 32 -79t-32 -79t-80 -32zM522 -11q-197 0 -338 139q-67 67 -104 154t-37 183t37 184t104 154
q141 139 338 139q195 0 336 -138t143 -334q0 -42 -27.5 -68.5t-70.5 -26.5h-639q24 -85 95 -140q69 -55 163 -55q114 0 179 71q31 25 66 25q17 0 33 -6q28 -10 48 -42q17 -26 17 -56q0 -43 -38 -75q-56 -52 -118 -76q-81 -32 -187 -32zM258 541h538q-23 95 -95 151
q-75 60 -176 60t-174 -60q-73 -61 -93 -151z" />
    <glyph glyph-name="igrave" unicode="&#xec;" horiz-adv-x="400" 
d="M98 1087l-135 136q-30 30 -30 70q0 41 30 71q32 29 72 29q41 0 71 -30l133 -134q30 -30 30 -72q0 -40 -30 -70t-70 -30q-41 0 -71 30zM201 0q-39 0 -71 29q-30 28 -30 71v742q0 42 30 71q32 29 72 29q43 0 70 -29q28 -29 28 -71v-742q0 -43 -28 -71q-29 -29 -71 -29z" />
    <glyph glyph-name="iacute" unicode="&#xed;" horiz-adv-x="400" 
d="M137 1090q-30 30 -30 70q0 42 30 72l133 134q30 30 72 30q39 0 71 -29q30 -30 30 -71q0 -40 -30 -70l-135 -136q-30 -30 -71 -30q-40 0 -70 30zM201 0q-39 0 -71 29q-30 28 -30 71v742q0 42 30 71q32 29 72 29q43 0 70 -29q28 -29 28 -71v-742q0 -43 -28 -71
q-29 -29 -71 -29z" />
    <glyph glyph-name="icircumflex" unicode="&#xee;" horiz-adv-x="400" 
d="M-37 1071q-19 6 -33.5 21t-20.5 34q-4 9 -4 25q0 30 24 54l212 214q21 21 46 24q2 1 9 1h9q6 0 7 -1q23 -3 46 -24l212 -214q25 -25 25 -56q0 -11 -4 -23q-7 -19 -22 -34t-33 -21q-9 -4 -25 -4q-31 0 -55 24l-157 157l-156 -157q-24 -24 -55 -24q-16 0 -25 4zM201 0
q-39 0 -71 29q-30 28 -30 71v742q0 42 30 71q32 29 72 29q43 0 70 -29q28 -29 28 -71v-742q0 -43 -28 -71q-29 -29 -71 -29z" />
    <glyph glyph-name="idieresis" unicode="&#xef;" horiz-adv-x="400" 
d="M15 1062q-47 0 -79 32t-32 79t32 79q33 33 79 33t79 -33t33 -79t-33 -79q-32 -32 -79 -32zM384 1062q-46 0 -78 32q-33 33 -33 79t33 79t78 33q47 0 80 -33q32 -32 32 -79t-32 -79t-80 -32zM201 0q-39 0 -71 29q-30 28 -30 71v742q0 42 30 71q32 29 72 29q43 0 70 -29
q28 -29 28 -71v-742q0 -43 -28 -71q-29 -29 -71 -29z" />
    <glyph glyph-name="eth" unicode="&#xf0;" 
d="M520 -12q-96 0 -183 36.5t-154 103.5q-140 140 -140 337t140 337q67 67 154 103.5t183 36.5q24 0 48 -3l-46 74l-64 -37q-16 -9 -33 -9q-37 0 -58 38q-9 15 -9 32q0 40 38 59l55 31q-16 25 -16 56q0 53 50 83q22 13 52 13q14 0 26 -3q39 -14 61 -50l74 42q15 9 32 9
q40 0 60 -37q7 -13 7 -32q0 -38 -35 -58l-70 -40l240 -406l4 -8q60 -105 60 -231q0 -196 -139 -337q-67 -67 -154 -103.5t-183 -36.5zM520 188q115 0 197 82q80 80 80 195q0 116 -80 196t-197 80q-115 0 -195 -80q-82 -82 -82 -196q0 -113 82 -195t195 -82z" />
    <glyph glyph-name="ntilde" unicode="&#xf1;" horiz-adv-x="1035" 
d="M675 1064q-68 0 -151 62l-18 14q-21 16 -50 27q-17 5 -27 5q-49 0 -94 -58q-8 -13 -13 -18q-24 -24 -57 -24t-56 23q-24 23 -24 57q-2 32 22 56q24 37 73 74q67 52 142 52q74 0 149 -58l20 -15q23 -18 52 -29q13 -6 27 -6q48 0 96 62q9 12 10 13q23 23 56 23t56.5 -23
t24.5 -55q0 -30 -23 -56q-20 -35 -72 -74q-68 -52 -143 -52zM845 -2q-42 0 -70.5 28t-28.5 70v384q-2 122 -57 192q-59 72 -157 72q-104 0 -167 -74q-66 -77 -66 -185v-386q0 -42 -28.5 -70.5t-70.5 -28.5q-41 0 -70 29q-30 30 -30 70v744q0 43 30 71q32 29 71 29
q43 0 70 -29q28 -29 28 -71v-14q118 113 255 113q174 0 282 -131q108 -130 108 -331v-384q0 -42 -28.5 -70t-70.5 -28z" />
    <glyph glyph-name="ograve" unicode="&#xf2;" 
d="M432 1101l-135 136q-30 30 -30 70q0 41 30 71q32 29 72 29q41 0 71 -30l133 -134q30 -30 30 -72q0 -40 -30 -70t-70 -30q-41 0 -71 30zM520 -12q-96 0 -183 36.5t-154 103.5q-140 140 -140 337t140 337q67 67 154 103.5t183 36.5t183 -36.5t154 -103.5q139 -141 139 -337
t-139 -337q-67 -67 -154 -103.5t-183 -36.5zM520 188q115 0 197 82q80 80 80 195q0 116 -80 196t-197 80q-115 0 -195 -80q-82 -82 -82 -196q0 -113 82 -195t195 -82z" />
    <glyph glyph-name="oacute" unicode="&#xf3;" 
d="M534 1100q-30 30 -30 70q0 42 30 72l133 134q30 30 72 30q39 0 71 -29q30 -30 30 -71q0 -40 -30 -70l-135 -136q-30 -30 -71 -30q-40 0 -70 30zM520 -12q-96 0 -183 36.5t-154 103.5q-140 140 -140 337t140 337q67 67 154 103.5t183 36.5t183 -36.5t154 -103.5
q139 -141 139 -337t-139 -337q-67 -67 -154 -103.5t-183 -36.5zM520 188q115 0 197 82q80 80 80 195q0 116 -80 196t-197 80q-115 0 -195 -80q-82 -82 -82 -196q0 -113 82 -195t195 -82z" />
    <glyph glyph-name="ocircumflex" unicode="&#xf4;" 
d="M284 1065q-19 6 -33.5 21t-20.5 34q-4 9 -4 24q0 31 24 55l212 214q21 21 46 24q2 1 9 1h9q6 0 7 -1q23 -3 46 -24l212 -214q25 -25 25 -56q0 -24 -17.5 -47t-41.5 -31q-9 -4 -25 -4q-31 0 -55 24l-157 157l-156 -157q-24 -24 -55 -24q-16 0 -25 4zM520 -12
q-96 0 -183 36.5t-154 103.5q-140 140 -140 337t140 337q67 67 154 103.5t183 36.5t183 -36.5t154 -103.5q139 -141 139 -337t-139 -337q-67 -67 -154 -103.5t-183 -36.5zM520 188q115 0 197 82q80 80 80 195q0 116 -80 196t-197 80q-115 0 -195 -80q-82 -82 -82 -196
q0 -113 82 -195t195 -82z" />
    <glyph glyph-name="otilde" unicode="&#xf5;" 
d="M655 1059q-68 0 -151 62l-18 14l-23 15q-32 17 -54 17q-49 0 -94 -58q-8 -13 -13 -18q-24 -24 -57 -24t-56 23q-24 22 -24 57q-2 32 22 56q24 37 73 74q67 52 142 52q74 0 149 -58l20 -15q7 -5 25 -16q34 -19 54 -19q48 0 96 62q9 12 10 13q23 23 56 23t56 -23
q25 -25 25 -57q0 -28 -23 -54q-20 -35 -72 -74q-68 -52 -143 -52zM520 -12q-96 0 -183 36.5t-154 103.5q-140 140 -140 337t140 337q67 67 154 103.5t183 36.5t183 -36.5t154 -103.5q139 -141 139 -337t-139 -337q-67 -67 -154 -103.5t-183 -36.5zM520 188q115 0 197 82
q80 80 80 195q0 116 -80 196t-197 80q-115 0 -195 -80q-82 -82 -82 -196q0 -113 82 -195t195 -82z" />
    <glyph glyph-name="odieresis" unicode="&#xf6;" 
d="M336 1063q-47 0 -79 32t-32 79t32 79q33 33 79 33t79 -33t33 -79t-33 -79q-32 -32 -79 -32zM705 1063q-46 0 -78 32q-33 33 -33 79t33 79t78 33q47 0 80 -33q32 -32 32 -79t-32 -79t-80 -32zM520 -12q-96 0 -183 36.5t-154 103.5q-140 140 -140 337t140 337
q67 67 154 103.5t183 36.5t183 -36.5t154 -103.5q139 -141 139 -337t-139 -337q-67 -67 -154 -103.5t-183 -36.5zM520 188q115 0 197 82q80 80 80 195q0 116 -80 196t-197 80q-115 0 -195 -80q-82 -82 -82 -196q0 -113 82 -195t195 -82z" />
    <glyph glyph-name="divide" unicode="&#xf7;" horiz-adv-x="803" 
d="M413 816q-48 0 -83 35t-35 84t35 84t83 35q49 0 84 -35t35 -84t-35 -84t-84 -35zM669 474h-537q-42 0 -67 28q-28 25 -28 66q0 39 27.5 66t67.5 27h537q39 0 68 -27q27 -29 27 -66q0 -40 -27.5 -67t-67.5 -27zM411 99q-49 0 -84 35t-35 83q0 49 35 84t84 35t84 -35
t35 -84q0 -48 -35 -83t-84 -35z" />
    <glyph glyph-name="oslash" unicode="&#xf8;" 
d="M267 -59q-11 -4 -28 -4q-25 0 -48 12q-36 19 -47 62q-3 12 -3 25q0 29 13 51l28 42q-139 139 -139 336t140 337q67 67 154 103.5t183 36.5q99 0 182 -37l9 13q20 36 61 48q15 4 26 4q26 0 51 -13q36 -23 46 -61q3 -12 3 -25q0 -29 -13 -51l-19 -28q130 -139 130 -327
q0 -196 -139 -337q-67 -67 -154 -103.5t-183 -36.5q-91 0 -171 31l-21 -31q-23 -37 -61 -47zM297 300l290 433q-40 8 -67 8q-115 0 -195 -80q-82 -82 -82 -196q0 -91 54 -165zM520 188q115 0 197 82q80 80 80 195q0 83 -47 154l-285 -426q35 -5 55 -5z" />
    <glyph glyph-name="ugrave" unicode="&#xf9;" horiz-adv-x="1034" 
d="M458 1096l-135 136q-30 30 -30 70q0 41 30 71q32 29 72 29q41 0 71 -30l133 -134q30 -30 30 -72q0 -40 -30 -70t-70 -30q-41 0 -71 30zM833 -2q-42 0 -69.5 29t-27.5 71v14q-118 -113 -256 -113q-174 0 -282 132q-108 131 -108 332v382q0 42 29 70t71 28t70.5 -28
t28.5 -70v-384q0 -120 58 -191q57 -73 156 -73q101 0 167 74t66 185v386q0 42 28.5 70.5t70.5 28.5q43 0 71 -28q29 -29 29 -71v-744q0 -42 -30 -70q-31 -30 -72 -30z" />
    <glyph glyph-name="uacute" unicode="&#xfa;" horiz-adv-x="1034" 
d="M504 1078q-30 30 -30 70q0 42 30 72l133 134q30 30 72 30q39 0 71 -29q30 -30 30 -71q0 -40 -30 -70l-135 -136q-30 -30 -71 -30q-40 0 -70 30zM833 -2q-42 0 -69.5 29t-27.5 71v14q-118 -113 -256 -113q-174 0 -282 132q-108 131 -108 332v382q0 42 29 70t71 28
t70.5 -28t28.5 -70v-384q0 -120 58 -191q57 -73 156 -73q101 0 167 74t66 185v386q0 42 28.5 70.5t70.5 28.5q43 0 71 -28q29 -29 29 -71v-744q0 -42 -30 -70q-31 -30 -72 -30z" />
    <glyph glyph-name="ucircumflex" unicode="&#xfb;" horiz-adv-x="1034" 
d="M301 1048q-19 6 -33.5 21t-20.5 34q-4 9 -4 25q0 30 24 54l212 214q21 21 46 24q2 1 9 1h9q6 0 7 -1q23 -3 46 -24l212 -214q25 -25 25 -56q0 -11 -4 -23q-7 -19 -22 -34t-33 -21q-9 -4 -25 -4q-31 0 -55 24l-157 157l-156 -157q-24 -24 -55 -24q-16 0 -25 4zM833 -2
q-42 0 -69.5 29t-27.5 71v14q-118 -113 -256 -113q-174 0 -282 132q-108 131 -108 332v382q0 42 29 70t71 28t70.5 -28t28.5 -70v-384q0 -120 58 -191q57 -73 156 -73q101 0 167 74t66 185v386q0 42 28.5 70.5t70.5 28.5q43 0 71 -28q29 -29 29 -71v-744q0 -42 -30 -70
q-31 -30 -72 -30z" />
    <glyph glyph-name="udieresis" unicode="&#xfc;" horiz-adv-x="1034" 
d="M338 1055q-47 0 -79 32t-32 79t32 79q33 33 79 33t79 -33t33 -79t-33 -79q-32 -32 -79 -32zM707 1055q-46 0 -78 32q-33 33 -33 79t33 79t78 33q47 0 80 -33q32 -32 32 -79t-32 -79t-80 -32zM833 -2q-42 0 -69.5 29t-27.5 71v14q-118 -113 -256 -113q-174 0 -282 132
q-108 131 -108 332v382q0 42 29 70t71 28t70.5 -28t28.5 -70v-384q0 -120 58 -191q57 -73 156 -73q101 0 167 74t66 185v386q0 42 28.5 70.5t70.5 28.5q43 0 71 -28q29 -29 29 -71v-744q0 -42 -30 -70q-31 -30 -72 -30z" />
    <glyph glyph-name="yacute" unicode="&#xfd;" horiz-adv-x="917" 
d="M511 1084q-30 30 -30 70q0 42 30 72l133 134q30 30 72 30q39 0 71 -29q30 -30 30 -71q0 -40 -30 -70l-135 -136q-30 -30 -71 -30q-40 0 -70 30zM294 -352q-20 0 -39 9q-52 24 -52 80q0 25 12 51l136 306l-320 707q-9 19 -9 42q0 19 6 35q13 36 53 56q19 9 39 9
q41 0 69 -28q14 -14 23 -33l244 -553l248 553q20 40 56 53q14 7 37 7q39 0 71 -32q28 -28 28 -71q-1 -18 -10 -39l-498 -1092q-20 -40 -56 -53q-15 -7 -38 -7z" />
    <glyph glyph-name="thorn" unicode="&#xfe;" horiz-adv-x="1150" 
d="M232 -306q-42 0 -72 30t-30 73v1377q0 44 30 74t72 30q44 0 70.5 -29t26.5 -75v-322q128 90 278 90q96 0 183 -36.5t154 -103.5q139 -141 139 -337t-139 -337q-67 -67 -154 -103.5t-183 -36.5q-156 0 -278 90v-281q0 -45 -26.5 -74t-70.5 -29zM607 188q115 0 197 82
q80 80 80 195q0 116 -80 196t-197 80q-115 0 -195 -80q-82 -82 -82 -196q0 -113 82 -195t195 -82z" />
    <glyph glyph-name="ydieresis" unicode="&#xff;" horiz-adv-x="917" 
d="M276 1055q-47 0 -79 32t-32 79t32 79q33 33 79 33t79 -33t33 -79t-33 -79q-32 -32 -79 -32zM645 1055q-46 0 -78 32q-33 33 -33 79t33 79t78 33q47 0 80 -33q32 -32 32 -79t-32 -79t-80 -32zM294 -352q-20 0 -39 9q-52 24 -52 80q0 25 12 51l136 306l-320 707
q-9 19 -9 39q-2 39 27 71q30 32 71 32q22 0 37 -7q36 -14 55 -54l244 -553l248 553q9 20 24 33q28 27 69 27q19 0 38 -9q41 -20 54 -56q6 -16 6 -35q0 -22 -9 -42l-498 -1092q-8 -16 -23 -32q-31 -28 -71 -28z" />
    <glyph glyph-name="Amacron" unicode="&#x100;" horiz-adv-x="1177" 
d="M788 1367h-394q-36 0 -61 26t-25 63q0 36 24.5 60t61.5 24h394q36 0 62 -24q25 -26 25 -60q0 -36 -25 -62q-26 -27 -62 -27zM1024 6q-37 13 -57 53l-125 297h-507l-123 -296q-16 -40 -55 -53q-18 -7 -36 -7q-22 0 -43 9q-56 25 -56 85q0 26 10 46l469 1079q27 61 91 61
q65 0 90 -60l464 -1080q10 -20 10 -46q0 -60 -55 -85q-19 -9 -42 -9q-19 0 -35 6zM418 555h340l-171 407z" />
    <glyph glyph-name="amacron" unicode="&#x101;" horiz-adv-x="1095" 
d="M718 1071h-394q-36 0 -61 26t-25 63q0 36 24.5 60t61.5 24h394q36 0 62 -24q25 -26 25 -60q0 -36 -25 -62q-26 -27 -62 -27zM520 -12q-96 0 -183 36.5t-154 103.5q-140 140 -140 337t140 337q67 67 154 103.5t183 36.5q197 0 335 -138q139 -139 141 -335v-367
q0 -40 -29 -72q-27 -30 -73 -30q-39 0 -66 26t-31 65q-127 -103 -277 -103zM520 188q115 0 197 82q80 80 80 195q0 116 -80 196t-197 80q-115 0 -195 -80q-82 -82 -82 -196q0 -113 82 -195t195 -82z" />
    <glyph glyph-name="Abreve" unicode="&#x102;" horiz-adv-x="1177" 
d="M590 1373q-94 0 -160 66t-66 159q0 29 20 49.5t48 20.5q29 0 49 -20.5t20 -49.5q0 -36 26 -62q25 -27 63 -27t64 27q26 26 26 62q0 29 19.5 49.5t48.5 20.5t48.5 -20.5t19.5 -49.5q0 -90 -66 -159q-66 -66 -160 -66zM1024 6q-37 13 -57 53l-125 297h-507l-123 -296
q-16 -40 -55 -53q-18 -7 -36 -7q-22 0 -43 9q-56 25 -56 85q0 26 10 46l469 1079q27 61 91 61q65 0 90 -60l464 -1080q10 -20 10 -46q0 -60 -55 -85q-19 -9 -42 -9q-19 0 -35 6zM418 555h340l-171 407z" />
    <glyph glyph-name="abreve" unicode="&#x103;" horiz-adv-x="1095" 
d="M546 1072q-94 0 -160 66t-66 159q0 29 20 49.5t48 20.5q29 0 49 -20.5t20 -49.5q0 -36 26 -62q25 -27 63 -27t64 27q26 26 26 62q0 29 19.5 49.5t48.5 20.5t48.5 -20.5t19.5 -49.5q0 -90 -66 -159q-66 -66 -160 -66zM520 -12q-96 0 -183 36.5t-154 103.5
q-140 140 -140 337t140 337q67 67 154 103.5t183 36.5q197 0 335 -138q139 -139 141 -335v-367q0 -40 -29 -72q-27 -30 -73 -30q-39 0 -66 26t-31 65q-127 -103 -277 -103zM520 188q115 0 197 82q80 80 80 195q0 116 -80 196t-197 80q-115 0 -195 -80q-82 -82 -82 -196
q0 -113 82 -195t195 -82z" />
    <glyph glyph-name="Aogonek" unicode="&#x104;" horiz-adv-x="1177" 
d="M1053 -395q-90 0 -152 64q-63 61 -63 153q0 94 65 157q1 0 1 1h1l68 67l-3 6l-3 6l-125 297h-507l-123 -296q-16 -40 -55 -53q-18 -7 -36 -7q-22 0 -43 9q-56 25 -56 85q0 26 10 46l469 1079q27 61 91 61q65 0 90 -60l464 -1080q10 -26 10 -47q0 -33 -21 -59
q-3 -6 -8 -11l-134 -132l-8 -6q-24 -26 -24 -62t26 -62q25 -27 63 -27t64 25.5t26 63.5q0 27 18.5 45t47.5 18q26 0 45 -18.5t19 -44.5v-6q-2 -87 -65 -150q-62 -62 -152 -62zM418 555h340l-171 407z" />
    <glyph glyph-name="aogonek" unicode="&#x105;" horiz-adv-x="1095" 
d="M894 -388q-90 0 -152 64q-63 61 -63 153q0 94 65 157q1 0 1 1h1l63 63q-10 18 -12 41q-127 -103 -277 -103q-96 0 -183 36.5t-154 103.5q-140 140 -140 337t140 337q67 67 154 103.5t183 36.5q197 0 335 -138q139 -139 141 -335v-367q0 -32 -20 -61q-3 -6 -8 -11
l-134 -132l-8 -6q-24 -25 -24 -62q0 -36 26 -62q26 -27 63 -27q38 0 64 25.5t26 63.5q0 27 18.5 45t47.5 18q26 0 45 -18.5t19 -44.5v-6q-2 -87 -65 -150q-62 -62 -152 -62zM520 188q115 0 197 82q80 80 80 195q0 116 -80 196t-197 80q-115 0 -195 -80q-82 -82 -82 -196
q0 -113 82 -195t195 -82z" />
    <glyph glyph-name="Cacute" unicode="&#x106;" horiz-adv-x="1226" 
d="M699 1427q-30 30 -30 70q0 42 30 72l133 134q30 30 72 30q39 0 71 -29q30 -30 30 -71q0 -40 -30 -70l-135 -136q-30 -30 -71 -30q-40 0 -70 30zM688 -12q-174 0 -325 89q-146 85 -232 233q-88 151 -88 327q0 171 85 321q84 149 228 238q150 93 336 93q130 0 249 -49.5
t212 -143.5q29 -29 29 -68q0 -42 -28 -70q-32 -29 -71 -29q-43 0 -70 27q-132 132 -322 132q-183 0 -316 -130q-132 -132 -132 -319q0 -184 127 -316q128 -134 318 -136q187 0 323 131q30 27 70 27t69 -26q29 -29 29 -70q0 -40 -27 -70q-194 -191 -464 -191z" />
    <glyph glyph-name="cacute" unicode="&#x107;" horiz-adv-x="930" 
d="M492 1102q-30 30 -30 70q0 42 30 72l133 134q30 30 72 30q39 0 71 -29q30 -30 30 -71q0 -40 -30 -70l-135 -136q-30 -30 -71 -30q-40 0 -70 30zM525 -11q-201 0 -340 137q-67 64 -104.5 151.5t-37.5 183.5v1q0 1 1 1v1q-1 0 -1 1q0 197 142 339q67 67 155 103.5t185 36.5
q96 0 180.5 -33t144.5 -95q36 -36 37 -79q0 -44 -32 -73q-34 -29 -67 -29q-36 0 -91 43q-80 64 -184 64q-111 0 -191 -87q-75 -81 -75 -188l-1 -2l1 -1q0 -106 74 -186q77 -86 186 -87q110 -5 190 64q54 42 89 42t69 -29q32 -29 32 -72q-1 -43 -37 -79q-60 -62 -144.5 -95
t-180.5 -33z" />
    <glyph glyph-name="Ccircumflex" unicode="&#x108;" horiz-adv-x="1226" 
d="M459 1391q-19 6 -33.5 21t-20.5 34q-4 9 -4 25q0 30 24 54l212 214q21 21 46 24q2 1 9 1h9q6 0 7 -1q23 -3 46 -24l212 -214q25 -25 25 -56q0 -11 -4 -23q-7 -19 -22 -34t-33 -21q-9 -4 -25 -4q-31 0 -55 24l-157 157l-156 -157q-24 -24 -55 -24q-16 0 -25 4zM688 -12
q-174 0 -325 89q-146 85 -232 233q-88 151 -88 327q0 171 85 321q84 149 228 238q150 93 336 93q130 0 249 -49.5t212 -143.5q29 -29 29 -68q0 -42 -28 -70q-32 -29 -71 -29q-43 0 -70 27q-132 132 -322 132q-183 0 -316 -130q-132 -132 -132 -319q0 -184 127 -316
q128 -134 318 -136q187 0 323 131q30 27 70 27t69 -26q29 -29 29 -70q0 -40 -27 -70q-194 -191 -464 -191z" />
    <glyph glyph-name="ccircumflex" unicode="&#x109;" horiz-adv-x="930" 
d="M282 1065q-19 6 -33.5 21t-20.5 34q-4 9 -4 24q0 31 24 55l212 214q21 21 46 24q2 1 9 1h9q6 0 7 -1q23 -3 46 -24l212 -214q25 -25 25 -56q0 -24 -17.5 -47t-41.5 -31q-9 -4 -25 -4q-31 0 -55 24l-157 157l-156 -157q-24 -24 -55 -24q-16 0 -25 4zM525 -11
q-201 0 -340 137q-67 64 -104.5 151.5t-37.5 183.5v1q0 1 1 1v1q-1 0 -1 1q0 197 142 339q67 67 155 103.5t185 36.5q96 0 180.5 -33t144.5 -95q36 -36 37 -79q0 -44 -32 -73q-34 -29 -67 -29q-36 0 -91 43q-80 64 -184 64q-111 0 -191 -87q-75 -81 -75 -188l-1 -2l1 -1
q0 -106 74 -186q77 -86 186 -87q110 -5 190 64q54 42 89 42t69 -29q32 -29 32 -72q-1 -43 -37 -79q-60 -62 -144.5 -95t-180.5 -33z" />
    <glyph glyph-name="Cdotaccent" unicode="&#x10a;" horiz-adv-x="1226" 
d="M692 1383q-48 0 -83 35t-35 84t35 84t83 35q49 0 84 -35t35 -84t-35 -84t-84 -35zM688 -12q-174 0 -325 89q-146 85 -232 233q-88 151 -88 327q0 171 85 321q84 149 228 238q150 93 336 93q130 0 249 -49.5t212 -143.5q29 -29 29 -68q0 -42 -28 -70q-32 -29 -71 -29
q-43 0 -70 27q-132 132 -322 132q-183 0 -316 -130q-132 -132 -132 -319q0 -184 127 -316q128 -134 318 -136q187 0 323 131q30 27 70 27t69 -26q29 -29 29 -70q0 -40 -27 -70q-194 -191 -464 -191z" />
    <glyph glyph-name="cdotaccent" unicode="&#x10b;" horiz-adv-x="930" 
d="M518 1067q-48 0 -83 35t-35 84t35 84t83 35q49 0 84 -35t35 -84t-35 -84t-84 -35zM525 -11q-201 0 -340 137q-67 64 -104.5 151.5t-37.5 183.5v1q0 1 1 1v1q-1 0 -1 1q0 197 142 339q67 67 155 103.5t185 36.5q96 0 180.5 -33t144.5 -95q36 -36 37 -79q0 -44 -32 -73
q-34 -29 -67 -29q-36 0 -91 43q-80 64 -184 64q-111 0 -191 -87q-75 -81 -75 -188l-1 -2l1 -1q0 -106 74 -186q77 -86 186 -87q110 -5 190 64q54 42 89 42t69 -29q32 -29 32 -72q-1 -43 -37 -79q-60 -62 -144.5 -95t-180.5 -33z" />
    <glyph glyph-name="Ccaron" unicode="&#x10c;" horiz-adv-x="1226" 
d="M709 1389h-9q-7 0 -9 1q-25 3 -46 24l-212 214q-24 24 -24 54q0 16 4 25q6 19 20.5 34t33.5 21q15 4 24 4q32 0 56 -24l156 -157l157 157q24 24 56 24q9 0 24 -4q18 -6 33 -21t22 -33q4 -12 4 -24q0 -31 -25 -56l-212 -214q-23 -21 -46 -24q-1 -1 -7 -1zM688 -12
q-174 0 -325 89q-146 85 -232 233q-88 151 -88 327q0 171 85 321q84 149 228 238q150 93 336 93q130 0 249 -49.5t212 -143.5q29 -29 29 -68q0 -42 -28 -70q-32 -29 -71 -29q-43 0 -70 27q-132 132 -322 132q-183 0 -316 -130q-132 -132 -132 -319q0 -184 127 -316
q128 -134 318 -136q187 0 323 131q30 27 70 27t69 -26q29 -29 29 -70q0 -40 -27 -70q-194 -191 -464 -191z" />
    <glyph glyph-name="ccaron" unicode="&#x10d;" horiz-adv-x="930" 
d="M528 1061h-9q-7 0 -9 1q-25 3 -46 24l-212 214q-24 24 -24 55q0 16 4 25q14 40 54 54q15 4 24 4q32 0 56 -24l156 -157l157 157q24 24 56 24q9 0 24 -4q18 -6 33 -21t22 -33q4 -12 4 -24q0 -31 -25 -56l-212 -214q-23 -21 -46 -24q-1 -1 -7 -1zM525 -11q-201 0 -340 137
q-67 64 -104.5 151.5t-37.5 183.5v1q0 1 1 1v1q-1 0 -1 1q0 197 142 339q67 67 155 103.5t185 36.5q96 0 180.5 -33t144.5 -95q36 -36 37 -79q0 -44 -32 -73q-34 -29 -67 -29q-36 0 -91 43q-80 64 -184 64q-111 0 -191 -87q-75 -81 -75 -188l-1 -2l1 -1q0 -106 74 -186
q77 -86 186 -87q110 -5 190 64q54 42 89 42t69 -29q32 -29 32 -72q-1 -43 -37 -79q-60 -62 -144.5 -95t-180.5 -33z" />
    <glyph glyph-name="Dcaron" unicode="&#x10e;" horiz-adv-x="1155" 
d="M517 1383h-9q-7 0 -9 1q-25 3 -46 24l-212 214q-24 24 -24 55q0 16 4 25q6 18 21 33t33 21q15 4 24 4q32 0 56 -24l156 -157l157 157q24 24 56 24q9 0 24 -4q18 -6 33 -21t22 -34q4 -12 4 -23q0 -31 -25 -56l-212 -214q-23 -21 -46 -24q-1 -1 -7 -1zM449 0h-220
q-42 0 -70.5 28t-28.5 70v1084q0 42 28.5 70t70.5 28h220q180 0 329 -86t234 -230q89 -152 89 -326q0 -173 -89 -325q-83 -140 -234 -227q-149 -86 -329 -86zM329 200h121q189 0 320 125q131 126 131 313q0 182 -130 312q-129 127 -316 129h-126v-879z" />
    <glyph glyph-name="dcaron" unicode="&#x10f;" horiz-adv-x="1097" 
d="M527 1063h-9q-7 0 -9 1q-25 3 -46 24l-212 214q-24 24 -24 55q0 16 4 25q6 18 21 33t33 21q15 4 24 4q32 0 56 -24l156 -157l157 157q24 24 56 24q9 0 24 -4q18 -6 33 -21t22 -33q4 -12 4 -24q0 -31 -25 -56l-212 -214q-23 -21 -46 -24q-1 -1 -7 -1zM520 -11
q-195 0 -337 140q-140 140 -140 336q0 198 140 338q141 139 337 139q150 0 277 -89v329q0 42 28.5 70t70.5 28t71 -28t29 -70v-1084q0 -42 -29 -70t-71 -28q-37 0 -64 22.5t-34 57.5q-125 -91 -278 -91zM520 189q116 0 193 77q79 76 84 187v23q-5 113 -84 189
q-78 76 -193 76t-195 -80q-82 -82 -82 -196q0 -113 82 -195q81 -81 195 -81z" />
    <glyph glyph-name="Dcroat" unicode="&#x110;" horiz-adv-x="1230" 
d="M452 0h-223q-42 0 -70.5 28t-28.5 70v457h-83q-35 0 -59 25.5t-24 61.5q0 35 24 59t59 24h83v457q0 42 28.5 70t70.5 28h220q180 0 329 -86t234 -230q89 -152 89 -326q0 -176 -88 -324q-85 -142 -234 -228q-151 -86 -327 -86zM329 200h121q189 0 320 125q131 126 131 313
q0 182 -130 312q-129 127 -316 129h-126v-354h123q36 0 60.5 -24.5t24.5 -58.5q0 -36 -24.5 -61.5t-60.5 -25.5h-123v-355z" />
    <glyph glyph-name="dslash" unicode="&#x111;" horiz-adv-x="1097" 
d="M520 -11q-195 0 -337 140q-140 140 -140 336q0 198 140 338q141 139 337 139q150 0 277 -89v132h-120q-29 0 -48.5 18.5t-19.5 47.5t19.5 48.5t48.5 19.5h120v63q0 42 28.5 70t70.5 28t71 -28t29 -70v-63h117q29 0 49.5 -20t20.5 -48q0 -29 -20 -47.5t-50 -18.5h-117
v-887q0 -42 -29 -70t-71 -28q-37 0 -64 22.5t-34 57.5q-125 -91 -278 -91zM520 189q116 0 193 77q79 76 84 187v23q-5 113 -84 189q-78 76 -193 76t-195 -80q-82 -82 -82 -196q0 -113 82 -195q81 -81 195 -81z" />
    <glyph glyph-name="Emacron" unicode="&#x112;" horiz-adv-x="912" 
d="M670 1379h-394q-36 0 -61 26t-25 63q0 36 24.5 60t61.5 24h394q36 0 62 -24q25 -26 25 -60q0 -36 -25 -62q-26 -27 -62 -27zM764 0h-542q-40 3 -66 30.5t-26 68.5v1081q0 42 29 71t71 29h534q41 0 70 -29q28 -28 28 -71q0 -42 -28 -70.5t-70 -28.5h-435v-346h314
q42 2 71 -27q28 -28 28 -71q0 -42 -28.5 -69t-70.5 -27h-314v-343h435q42 0 70 -29t28 -71t-28 -70q-30 -30 -70 -28z" />
    <glyph glyph-name="emacron" unicode="&#x113;" horiz-adv-x="1044" 
d="M718 1076h-394q-36 0 -61 26t-25 63q0 36 24.5 60t61.5 24h394q36 0 62 -24q25 -26 25 -60q0 -36 -25 -62q-26 -27 -62 -27zM522 -11q-197 0 -338 139q-67 67 -104 154t-37 183t37 184t104 154q141 139 338 139q195 0 336 -138t143 -334q0 -42 -27.5 -68.5t-70.5 -26.5
h-639q24 -85 95 -140q69 -55 163 -55q114 0 179 71q31 25 66 25q17 0 33 -6q28 -10 48 -42q17 -26 17 -56q0 -43 -38 -75q-56 -52 -118 -76q-81 -32 -187 -32zM258 541h538q-23 95 -95 151q-75 60 -176 60t-174 -60q-73 -61 -93 -151z" />
    <glyph glyph-name="Ebreve" unicode="&#x114;" horiz-adv-x="912" 
d="M466 1385q-94 0 -160 66t-66 159q0 29 20 49.5t48 20.5q29 0 49 -20.5t20 -49.5q0 -36 26 -62q25 -27 63 -27t64 27q26 26 26 62q0 29 19.5 49.5t48.5 20.5t48.5 -20.5t19.5 -49.5q0 -90 -66 -159q-66 -66 -160 -66zM764 0h-542q-40 3 -66 30.5t-26 68.5v1081q0 42 29 71
t71 29h534q41 0 70 -29q28 -28 28 -71q0 -42 -28 -70.5t-70 -28.5h-435v-346h314q42 2 71 -27q28 -28 28 -71q0 -42 -28.5 -69t-70.5 -27h-314v-343h435q42 0 70 -29t28 -71t-28 -70q-30 -30 -70 -28z" />
    <glyph glyph-name="ebreve" unicode="&#x115;" horiz-adv-x="1044" 
d="M556 1063q-94 0 -160 66t-66 159q0 29 20 49.5t48 20.5q29 0 49 -20.5t20 -49.5q0 -36 26 -62q25 -27 63 -27t64 27q26 26 26 62q0 29 19.5 49.5t48.5 20.5t48.5 -20.5t19.5 -49.5q0 -90 -66 -159q-66 -66 -160 -66zM522 -11q-197 0 -338 139q-67 67 -104 154t-37 183
t37 184t104 154q141 139 338 139q195 0 336 -138t143 -334q0 -42 -27.5 -68.5t-70.5 -26.5h-639q24 -85 95 -140q69 -55 163 -55q114 0 179 71q31 25 66 25q17 0 33 -6q28 -10 48 -42q17 -26 17 -56q0 -43 -38 -75q-56 -52 -118 -76q-81 -32 -187 -32zM258 541h538
q-23 95 -95 151q-75 60 -176 60t-174 -60q-73 -61 -93 -151z" />
    <glyph glyph-name="Edotaccent" unicode="&#x116;" horiz-adv-x="912" 
d="M475 1396q-48 0 -83 35t-35 84t35 84t83 35q49 0 84 -35t35 -84t-35 -84t-84 -35zM764 0h-542q-40 3 -66 30.5t-26 68.5v1081q0 42 29 71t71 29h534q41 0 70 -29q28 -28 28 -71q0 -42 -28 -70.5t-70 -28.5h-435v-346h314q42 2 71 -27q28 -28 28 -71q0 -42 -28.5 -69
t-70.5 -27h-314v-343h435q42 0 70 -29t28 -71t-28 -70q-30 -30 -70 -28z" />
    <glyph glyph-name="edotaccent" unicode="&#x117;" horiz-adv-x="1044" 
d="M533 1070q-48 0 -83 35t-35 84t35 84t83 35q49 0 84 -35t35 -84t-35 -84t-84 -35zM522 -11q-197 0 -338 139q-67 67 -104 154t-37 183t37 184t104 154q141 139 338 139q195 0 336 -138t143 -334q0 -42 -27.5 -68.5t-70.5 -26.5h-639q24 -85 95 -140q69 -55 163 -55
q114 0 179 71q31 25 66 25q17 0 33 -6q28 -10 48 -42q17 -26 17 -56q0 -43 -38 -75q-56 -52 -118 -76q-81 -32 -187 -32zM258 541h538q-23 95 -95 151q-75 60 -176 60t-174 -60q-73 -61 -93 -151z" />
    <glyph glyph-name="Eogonek" unicode="&#x118;" horiz-adv-x="912" 
d="M757 -394q-90 0 -152 64q-63 61 -63 153q0 94 65 157q1 0 1 1h1l19 19h-406q-40 3 -66 30.5t-26 68.5v1081q0 42 29 71t71 29h534q41 0 70 -29q28 -28 28 -71q0 -42 -28 -70.5t-70 -28.5h-435v-346h314q42 2 71 -27q28 -28 28 -71q0 -42 -28.5 -69t-70.5 -27h-314v-343
h435q42 0 70 -29t28 -71q0 -39 -26 -68l-5 -6l-134 -132l-8 -6q-24 -25 -24 -62q0 -36 26 -62q25 -27 63 -27t64 25.5t26 63.5q0 27 18.5 45t47.5 18q26 0 45 -18.5t19 -44.5v-6q-2 -87 -65 -150q-62 -62 -152 -62z" />
    <glyph glyph-name="eogonek" unicode="&#x119;" horiz-adv-x="1044" 
d="M761 -315q-90 0 -152 64q-63 61 -63 153q0 44 17 89q-34 -2 -41 -2q-197 0 -338 139q-67 67 -104 154t-37 183t37 184t104 154q141 139 338 139q195 0 336 -138t143 -334q0 -42 -27.5 -68.5t-70.5 -26.5h-639q24 -85 95 -140q69 -55 163 -55q114 0 179 71q31 25 66 25
q17 0 33 -6q28 -10 48 -42q17 -26 17 -55q0 -33 -24 -62l-6 -8l-134 -132l-8 -6q-24 -26 -24 -62t26 -62q25 -27 63 -27t64 25.5t26 63.5q0 27 18.5 45t47.5 18q26 0 45 -18.5t19 -44.5v-6q-2 -87 -65 -150q-62 -62 -152 -62zM258 541h538q-23 95 -95 151q-75 60 -176 60
t-174 -60q-73 -61 -93 -151z" />
    <glyph glyph-name="Ecaron" unicode="&#x11a;" horiz-adv-x="912" 
d="M513 1385h-9q-7 0 -9 1q-25 3 -46 24l-212 214q-24 24 -24 55q0 16 4 25q6 18 21 33t33 21q15 4 24 4q32 0 56 -24l156 -157l157 157q24 24 56 24q9 0 24 -4q18 -6 33 -21t22 -33q4 -12 4 -24q0 -31 -25 -56l-212 -214q-23 -21 -46 -24q-1 -1 -7 -1zM764 0h-542
q-40 3 -66 30.5t-26 68.5v1081q0 42 29 71t71 29h534q41 0 70 -29q28 -28 28 -71q0 -42 -28 -70.5t-70 -28.5h-435v-346h314q42 2 71 -27q28 -28 28 -71q0 -42 -28.5 -69t-70.5 -27h-314v-343h435q42 0 70 -29t28 -71t-28 -70q-30 -30 -70 -28z" />
    <glyph glyph-name="ecaron" unicode="&#x11b;" horiz-adv-x="1044" 
d="M548 1075h-9q-7 0 -9 1q-25 3 -46 24l-212 214q-24 24 -24 55q0 16 4 25q6 18 21 33t33 21q15 4 24 4q32 0 56 -24l156 -157l157 157q24 24 56 24q9 0 24 -4q18 -6 33 -21t22 -33q4 -12 4 -24q0 -31 -25 -56l-212 -214q-23 -21 -46 -24q-1 -1 -7 -1zM522 -11
q-197 0 -338 139q-67 67 -104 154t-37 183t37 184t104 154q141 139 338 139q195 0 336 -138t143 -334q0 -42 -27.5 -68.5t-70.5 -26.5h-639q24 -85 95 -140q69 -55 163 -55q114 0 179 71q31 25 66 25q17 0 33 -6q28 -10 48 -42q17 -26 17 -56q0 -43 -38 -75
q-56 -52 -118 -76q-81 -32 -187 -32zM258 541h538q-23 95 -95 151q-75 60 -176 60t-174 -60q-73 -61 -93 -151z" />
    <glyph glyph-name="Gcircumflex" unicode="&#x11c;" horiz-adv-x="1350" 
d="M454 1390q-19 6 -33.5 21t-20.5 34q-4 9 -4 25q0 30 24 54l212 214q21 21 46 24q2 1 9 1h9q6 0 7 -1q23 -3 46 -24l212 -214q25 -25 25 -56q0 -24 -17.5 -47t-41.5 -31q-9 -4 -25 -4q-31 0 -55 24l-157 157l-156 -157q-24 -24 -55 -24q-16 0 -25 4zM691 -12
q-132 0 -250.5 49.5t-208.5 140.5q-90 90 -139.5 209t-49.5 250q0 130 48.5 248.5t137.5 210.5q90 92 209 142.5t250 50.5q271 0 465 -193q30 -30 30 -70q0 -39 -29 -68q-32 -29 -70 -29q-42 -2 -71 27q-134 132 -323 132q-182 0 -314 -129q-133 -133 -133 -321
q0 -189 131 -320q61 -63 143.5 -97t174.5 -34q142 0 240.5 64t135.5 181h-211q-42 0 -70 28.5t-28 70.5t28 71t70 29l328 -2q43 -1 72.5 -29t29.5 -70q-6 -114 -53.5 -214t-129.5 -173q-171 -155 -413 -155z" />
    <glyph glyph-name="gcircumflex" unicode="&#x11d;" horiz-adv-x="1096" 
d="M289 1074q-19 6 -33.5 21t-20.5 34q-4 9 -4 25q0 30 24 54l212 214q21 21 46 24q2 1 9 1h9q6 0 7 -1q23 -3 46 -24l212 -214q25 -25 25 -56q0 -24 -17.5 -47t-41.5 -31q-9 -4 -25 -4q-31 0 -55 24l-157 157l-156 -157q-24 -24 -55 -24q-16 0 -25 4zM518 -382
q-96 0 -180.5 33t-144.5 95q-36 36 -36 80q-2 43 31 71q34 30 69 30q36 0 89 -43q83 -69 190 -64q102 2 178 78q70 70 81 177q-123 -87 -275 -87q-96 0 -183 36.5t-154 103.5q-140 140 -140 337t140 337q67 67 154 103.5t183 36.5q149 0 276 -89q4 38 32.5 63.5t67.5 25.5
q42 0 70.5 -28t28.5 -70v-350q0 -11 1 -14v-15v-15q-1 -3 -1 -15v-342q-5 -206 -141 -339q-136 -136 -336 -136zM520 188q108 0 189 75q76 73 87 179v46q-11 110 -87 180q-79 73 -189 73q-115 0 -195 -80q-82 -82 -82 -196q0 -113 82 -195t195 -82z" />
    <glyph glyph-name="Gbreve" unicode="&#x11e;" horiz-adv-x="1350" 
d="M701 1383q-94 0 -160 66t-66 159q0 29 20 49.5t48 20.5q29 0 49 -20.5t20 -49.5q0 -36 26 -62q26 -27 63 -27q39 0 64 27q26 26 26 62q0 29 19.5 49.5t48.5 20.5t48.5 -20.5t19.5 -49.5q0 -90 -66 -159q-66 -66 -160 -66zM691 -12q-132 0 -250.5 49.5t-208.5 140.5
q-90 90 -139.5 209t-49.5 250q0 130 48.5 248.5t137.5 210.5q90 92 209 142.5t250 50.5q271 0 465 -193q30 -30 30 -70q0 -39 -29 -68q-32 -29 -70 -29q-42 -2 -71 27q-134 132 -323 132q-182 0 -314 -129q-133 -133 -133 -321q0 -189 131 -320q61 -63 143.5 -97t174.5 -34
q142 0 240.5 64t135.5 181h-211q-42 0 -70 28.5t-28 70.5t28 71t70 29l328 -2q43 -1 72.5 -29t29.5 -70q-6 -114 -53.5 -214t-129.5 -173q-171 -155 -413 -155z" />
    <glyph glyph-name="gbreve" unicode="&#x11f;" horiz-adv-x="1096" 
d="M517 1068q-94 0 -160 66t-66 159q0 29 20 49.5t48 20.5q29 0 49 -20.5t20 -49.5q0 -36 26 -62q26 -27 63 -27q39 0 64 27q26 26 26 62q0 29 19.5 49.5t48.5 20.5t48.5 -20.5t19.5 -49.5q0 -90 -66 -159q-66 -66 -160 -66zM518 -382q-96 0 -180.5 33t-144.5 95
q-36 36 -36 80q-2 43 31 71q34 30 69 30q36 0 89 -43q83 -69 190 -64q102 2 178 78q70 70 81 177q-123 -87 -275 -87q-96 0 -183 36.5t-154 103.5q-140 140 -140 337t140 337q67 67 154 103.5t183 36.5q149 0 276 -89q4 38 32.5 63.5t67.5 25.5q42 0 70.5 -28t28.5 -70v-350
q0 -11 1 -14v-15v-15q-1 -3 -1 -15v-342q-5 -206 -141 -339q-136 -136 -336 -136zM520 188q108 0 189 75q76 73 87 179v46q-11 110 -87 180q-79 73 -189 73q-115 0 -195 -80q-82 -82 -82 -196q0 -113 82 -195t195 -82z" />
    <glyph glyph-name="Gdotaccent" unicode="&#x120;" horiz-adv-x="1350" 
d="M698 1398q-48 0 -83 35t-35 84t35 84t83 35q49 0 84 -35t35 -84t-35 -84t-84 -35zM691 -12q-132 0 -250.5 49.5t-208.5 140.5q-90 90 -139.5 209t-49.5 250q0 130 48.5 248.5t137.5 210.5q90 92 209 142.5t250 50.5q271 0 465 -193q30 -30 30 -70q0 -39 -29 -68
q-32 -29 -70 -29q-42 -2 -71 27q-134 132 -323 132q-182 0 -314 -129q-133 -133 -133 -321q0 -189 131 -320q61 -63 143.5 -97t174.5 -34q142 0 240.5 64t135.5 181h-211q-42 0 -70 28.5t-28 70.5t28 71t70 29l328 -2q43 -1 72.5 -29t29.5 -70q-6 -114 -53.5 -214
t-129.5 -173q-171 -155 -413 -155z" />
    <glyph glyph-name="gdotaccent" unicode="&#x121;" horiz-adv-x="1096" 
d="M523 1073q-48 0 -83 35t-35 84t35 84t83 35q49 0 84 -35t35 -84t-35 -84t-84 -35zM518 -382q-96 0 -180.5 33t-144.5 95q-36 36 -36 80q-2 43 31 71q34 30 69 30q36 0 89 -43q83 -69 190 -64q102 2 178 78q70 70 81 177q-123 -87 -275 -87q-96 0 -183 36.5t-154 103.5
q-140 140 -140 337t140 337q67 67 154 103.5t183 36.5q149 0 276 -89q4 38 32.5 63.5t67.5 25.5q42 0 70.5 -28t28.5 -70v-350q0 -11 1 -14v-15v-15q-1 -3 -1 -15v-342q-5 -206 -141 -339q-136 -136 -336 -136zM520 188q108 0 189 75q76 73 87 179v46q-11 110 -87 180
q-79 73 -189 73q-115 0 -195 -80q-82 -82 -82 -196q0 -113 82 -195t195 -82z" />
    <glyph glyph-name="Gcommaaccent" unicode="&#x122;" horiz-adv-x="1350" 
d="M691 -12q-132 0 -250.5 49.5t-208.5 140.5q-90 90 -139.5 209t-49.5 250q0 130 48.5 248.5t137.5 210.5q90 92 209 142.5t250 50.5q271 0 465 -193q30 -30 30 -70q0 -39 -29 -68q-32 -29 -70 -29q-42 -2 -71 27q-134 132 -323 132q-182 0 -314 -129q-133 -133 -133 -321
q0 -189 131 -320q61 -63 143.5 -97t174.5 -34q142 0 240.5 64t135.5 181h-211q-42 0 -70 28.5t-28 70.5t28 71t70 29l328 -2q43 -1 72.5 -29t29.5 -70q-6 -114 -53.5 -214t-129.5 -173q-171 -155 -413 -155zM670 -583q-42 0 -71 28.5t-29 70.5v277q0 42 29.5 70t71.5 28
q41 0 68.5 -28t27.5 -70v-277q0 -41 -28 -70q-27 -29 -69 -29z" />
    <glyph glyph-name="gcommaaccent" unicode="&#x123;" horiz-adv-x="1096" 
d="M524 1076q-42 0 -71 28.5t-29 70.5v277q0 42 29.5 70t71.5 28q41 0 68.5 -28t27.5 -70v-277q0 -41 -28 -70q-27 -29 -69 -29zM518 -382q-96 0 -180.5 33t-144.5 95q-36 36 -36 80q-2 43 31 71q34 30 69 30q36 0 89 -43q83 -69 190 -64q102 2 178 78q70 70 81 177
q-123 -87 -275 -87q-96 0 -183 36.5t-154 103.5q-140 140 -140 337t140 337q67 67 154 103.5t183 36.5q149 0 276 -89q4 38 32.5 63.5t67.5 25.5q42 0 70.5 -28t28.5 -70v-350q0 -11 1 -14v-15v-15q-1 -3 -1 -15v-342q-5 -206 -141 -339q-136 -136 -336 -136zM520 188
q108 0 189 75q76 73 87 179v46q-11 110 -87 180q-79 73 -189 73q-115 0 -195 -80q-82 -82 -82 -196q0 -113 82 -195t195 -82z" />
    <glyph glyph-name="Hcircumflex" unicode="&#x124;" horiz-adv-x="1204" 
d="M368 1387q-19 6 -33.5 21t-20.5 34q-4 9 -4 25q0 30 24 54l212 214q21 21 46 24q2 1 9 1h9q6 0 7 -1q23 -3 46 -24l212 -214q25 -25 25 -56q0 -11 -4 -23q-7 -19 -22 -34t-33 -21q-9 -4 -25 -4q-31 0 -55 24l-157 157l-156 -157q-24 -24 -56 -24q-9 0 -24 4zM229 0
q-42 0 -70.5 28t-28.5 70v1084q0 42 28.5 70t70.5 28t71 -28t29 -70v-445h546v445q0 42 29.5 70t71.5 28t70 -28t28 -70v-1084q0 -42 -29 -70t-71 -28t-70.5 28t-28.5 70v440h-546v-440q0 -42 -29 -70t-71 -28z" />
    <glyph glyph-name="hcircumflex" unicode="&#x125;" horiz-adv-x="1037" 
d="M-29 1283q-19 6 -33.5 21t-20.5 34q-4 9 -4 25q0 30 24 54l212 214q21 21 46 24q2 1 9 1h9q6 0 7 -1q23 -3 46 -24l212 -214q25 -25 25 -56q0 -11 -4 -23q-7 -19 -22 -34t-33 -21q-9 -4 -25 -4q-31 0 -55 24l-157 157l-156 -157q-24 -24 -55 -24q-16 0 -25 4zM845 -2
q-42 0 -70.5 28t-28.5 70v380q0 119 -56 195q-57 73 -158 73q-99 0 -164 -71q-64 -69 -69 -177v-397q0 -42 -28.5 -70.5t-70.5 -28.5t-71 29t-29 70v1080q0 42 30 72q29 29 70 29q42 0 71 -29q28 -28 28 -72v-350q118 113 255 113q174 0 282 -131q108 -130 108 -331v-384
q0 -42 -28.5 -70t-70.5 -28z" />
    <glyph glyph-name="Hbar" unicode="&#x126;" horiz-adv-x="1204" 
d="M229 0q-42 0 -70.5 28t-28.5 70v1084q0 42 28.5 70t70.5 28t71 -28t29 -70v-128l546 -1v129q0 42 29.5 70t71.5 28t70 -28t28 -70v-1084q0 -42 -29 -70t-71 -28t-70.5 28t-28.5 70v440h-546v-440q0 -42 -29 -70t-71 -28zM329 737h546v138h-546v-138z" />
    <glyph glyph-name="hbar" unicode="&#x127;" horiz-adv-x="1037" 
d="M845 -2q-42 0 -70.5 28t-28.5 70v380q0 119 -56 195q-57 73 -158 73q-99 0 -164 -71q-64 -69 -69 -177v-397q0 -42 -28.5 -70.5t-70.5 -28.5t-71 29t-29 70v932h-51q-29 0 -49.5 21t-20.5 50t20.5 48.5t49.5 19.5h51v9q0 42 30 72q29 29 70 29q42 0 71 -29q28 -28 28 -72
v-9h101q29 0 49.5 -20t20.5 -48q0 -29 -20.5 -50t-49.5 -21h-101v-202q118 113 255 113q174 0 282 -131q108 -130 108 -331v-384q0 -42 -28.5 -70t-70.5 -28z" />
    <glyph glyph-name="Itilde" unicode="&#x128;" horiz-adv-x="459" 
d="M354 1380q-68 0 -151 62l-18 14l-23 15q-32 17 -54 17q-49 0 -94 -58q-8 -13 -13 -18q-24 -24 -57 -24t-56 23q-24 23 -24 57q-2 32 22 56q24 37 73 74q67 52 142 52q74 0 149 -58l20 -15q7 -5 25 -16q34 -19 54 -19q48 0 96 62q9 12 10 13q23 23 56 23t56 -23
q25 -25 25 -57q0 -28 -23 -54q-20 -35 -72 -74q-68 -52 -143 -52zM229 0q-42 0 -70.5 28t-28.5 70v1084q0 42 28.5 70t70.5 28t71 -28t29 -70v-1084q0 -42 -29 -70t-71 -28z" />
    <glyph glyph-name="itilde" unicode="&#x129;" horiz-adv-x="400" 
d="M318 1068q-68 0 -151 62l-18 14l-23 15q-32 17 -54 17q-49 0 -94 -58q-8 -13 -13 -18q-24 -24 -57 -24t-56 23q-24 23 -24 57q-2 32 22 56q24 37 73 74q67 52 142 52q74 0 149 -58l20 -15q7 -5 25 -16q34 -19 54 -19q48 0 96 62q9 12 10 13q23 23 56 23t56 -23
q25 -25 25 -57q0 -28 -23 -54q-20 -35 -72 -74q-68 -52 -143 -52zM201 0q-39 0 -71 29q-30 28 -30 71v742q0 42 30 71q32 29 72 29q43 0 70 -29q28 -29 28 -71v-742q0 -43 -28 -71q-29 -29 -71 -29z" />
    <glyph glyph-name="Imacron" unicode="&#x12a;" horiz-adv-x="459" 
d="M427 1378h-394q-36 0 -61 26t-25 63q0 36 24.5 60t61.5 24h394q37 0 62 -24q25 -26 25 -60q0 -36 -25 -62q-25 -27 -62 -27zM229 0q-42 0 -70.5 28t-28.5 70v1084q0 42 28.5 70t70.5 28t71 -28t29 -70v-1084q0 -42 -29 -70t-71 -28z" />
    <glyph glyph-name="imacron" unicode="&#x12b;" horiz-adv-x="400" 
d="M403 1056h-394q-36 0 -61 26t-25 63q0 36 24.5 60t61.5 24h394q37 0 62 -24q25 -26 25 -60q0 -36 -25 -62q-25 -27 -62 -27zM201 0q-39 0 -71 29q-30 28 -30 71v742q0 42 30 71q32 29 72 29q43 0 70 -29q28 -29 28 -71v-742q0 -43 -28 -71q-29 -29 -71 -29z" />
    <glyph glyph-name="Ibreve" unicode="&#x12c;" horiz-adv-x="459" 
d="M230 1386q-94 0 -160 66t-66 159q0 29 20 49.5t48 20.5q29 0 49 -20.5t20 -49.5q0 -36 26 -62q25 -27 63 -27t64 27q26 26 26 62q0 29 19.5 49.5t48.5 20.5t48.5 -20.5t19.5 -49.5q0 -90 -66 -159q-66 -66 -160 -66zM229 0q-42 0 -70.5 28t-28.5 70v1084q0 42 28.5 70
t70.5 28t71 -28t29 -70v-1084q0 -42 -29 -70t-71 -28z" />
    <glyph glyph-name="ibreve" unicode="&#x12d;" horiz-adv-x="400" 
d="M206 1068q-94 0 -160 66t-66 159q0 29 20 49.5t48 20.5q29 0 49 -20.5t20 -49.5q0 -36 26 -62q25 -27 63 -27t64 27q26 26 26 62q0 29 19.5 49.5t48.5 20.5t48.5 -20.5t19.5 -49.5q0 -90 -66 -159q-66 -66 -160 -66zM201 0q-39 0 -71 29q-30 28 -30 71v742q0 42 30 71
q32 29 72 29q43 0 70 -29q28 -29 28 -71v-742q0 -43 -28 -71q-29 -29 -71 -29z" />
    <glyph glyph-name="Iogonek" unicode="&#x12e;" horiz-adv-x="459" 
d="M378 -108q26 0 45 -18.5t19 -44.5v-6q-2 -87 -65 -150q-62 -62 -152 -62t-152 64q-63 61 -63 153q0 94 65 157q1 0 1 1h1l65 64q-12 21 -12 48v1084q0 42 28.5 70t70.5 28t71 -28t29 -70v-1084q0 -49 -41 -80l-123 -121l-8 -6q-24 -26 -24 -62t26 -62q25 -27 63 -27
t64 25.5t26 63.5q0 27 18.5 45t47.5 18z" />
    <glyph glyph-name="iogonek" unicode="&#x12f;" horiz-adv-x="400" 
d="M199 1048q-46 0 -78 32q-33 33 -33 78q0 46 33 79q32 32 78 32t78 -32q33 -33 33 -79q0 -45 -33 -78q-32 -32 -78 -32zM203 -383q-90 0 -152 64q-63 61 -63 153q0 94 65 157q1 0 1 1h1l58 58q-13 22 -13 49v744q0 43 30 71q32 29 71 29q43 0 70 -29q28 -29 28 -71v-744
q0 -19 -9 -41q-4 -13 -13 -23l-134 -132l-8 -6q-24 -25 -24 -62q0 -36 26 -62q25 -27 63 -27t64 25.5t26 63.5q0 27 18.5 45t47.5 18q26 0 45 -18.5t19 -44.5v-6q-2 -87 -65 -150q-62 -62 -152 -62z" />
    <glyph glyph-name="Idot" unicode="&#x130;" horiz-adv-x="459" 
d="M230 1387q-48 0 -83 35t-35 84t35 84t83 35q49 0 84 -35t35 -84t-35 -84t-84 -35zM229 0q-42 0 -70.5 28t-28.5 70v1084q0 42 28.5 70t70.5 28t71 -28t29 -70v-1084q0 -42 -29 -70t-71 -28z" />
    <glyph glyph-name="dotlessi" unicode="&#x131;" horiz-adv-x="400" 
d="M201 0q-39 0 -71 29q-30 28 -30 71v742q0 42 30 71q32 29 72 29q43 0 70 -29q28 -29 28 -71v-742q0 -43 -28 -71q-29 -29 -71 -29z" />
    <glyph glyph-name="IJ" unicode="&#x132;" horiz-adv-x="919" 
d="M229 0q-42 0 -70.5 28t-28.5 70v1084q0 42 28.5 70t70.5 28t71 -28t29 -70v-1084q0 -42 -29 -70t-71 -28zM359 -353q-66 0 -92 51q-13 23 -13 49q0 21 11 45q26 50 90 54q99 2 168 72q67 69 67 166v1093q0 41 29 73q29 30 70 30q44 0 72.5 -30t28.5 -73l-1 -1100
q0 -179 -125 -304q-126 -126 -305 -126z" />
    <glyph glyph-name="ij" unicode="&#x133;" horiz-adv-x="943" 
d="M240 1048q-46 0 -78 32q-33 33 -33 78q0 46 33 79q32 32 78 32t78 -32q33 -33 33 -79q0 -45 -33 -78q-32 -32 -78 -32zM707 1048q-46 0 -78 32q-33 33 -33 78q0 46 33 79q32 32 78 32t78 -32q33 -33 33 -79q0 -45 -33 -78q-32 -32 -78 -32zM241 0q-41 0 -70 29
q-30 30 -30 70v744q0 43 30 71q32 29 71 29q43 0 70 -29q28 -29 28 -71v-744q0 -42 -28.5 -70.5t-70.5 -28.5zM490 -289h-5q-41 0 -70 29q-30 30 -30 71q0 42 30 72q29 29 70 29h5q48 0 83 34q36 31 36 81v813q0 42 30 72q29 29 70 29q42 0 70.5 -29t28.5 -72v-809
q0 -11 -1 -13q-6 -129 -97 -218q-94 -89 -220 -89z" />
    <glyph glyph-name="Jcircumflex" unicode="&#x134;" horiz-adv-x="460" 
d="M-12 1384q-19 6 -33.5 21t-20.5 34q-4 9 -4 25q0 30 24 54l212 214q21 21 46 24q2 1 9 1h9q6 0 7 -1q23 -3 46 -24l212 -214q25 -25 25 -56q0 -24 -17.5 -47t-41.5 -31q-9 -4 -25 -4q-31 0 -55 24l-157 157l-156 -157q-24 -24 -55 -24q-16 0 -25 4zM-101 -353
q-66 0 -92 51q-13 23 -13 49q0 21 11 45q26 50 90 54q99 2 168 72q67 69 67 166v1093q0 41 29 73q29 30 70 30q44 0 72.5 -30t28.5 -73l-1 -1100q0 -179 -125 -304q-126 -126 -305 -126z" />
    <glyph glyph-name="jcircumflex" unicode="&#x135;" horiz-adv-x="403" 
d="M-17 1054q-19 6 -33.5 21t-20.5 34q-4 9 -4 24q0 31 24 55l212 214q21 21 46 24q2 1 9 1h9q6 0 7 -1q23 -3 46 -24l212 -214q25 -25 25 -56q0 -24 -17.5 -47t-41.5 -31q-9 -4 -25 -4q-31 0 -55 24l-157 157l-156 -157q-24 -24 -55 -24q-16 0 -25 4zM-27 -299h-5
q-42 0 -71 29q-30 30 -30 70q0 43 29 72.5t72 29.5h5q53 0 91 38q37 37 37 90v810q0 46 30 73q32 29 71 29q42 0 71 -29t29 -73v-810q0 -10 -1 -12q-6 -135 -100 -224q-95 -93 -228 -93z" />
    <glyph glyph-name="Kcommaaccent" unicode="&#x136;" horiz-adv-x="1100" 
d="M229 0q-42 0 -70.5 28t-28.5 70v1084q0 42 28.5 70t70.5 28t71 -28t29 -70v-439l542 509q28 28 71 28q38 -1 70 -33q28 -28 28 -70q0 -39 -31 -70l-376 -352l399 -600q18 -27 18 -57q0 -50 -45 -81q-25 -17 -54 -17q-2 0 -20 2q-40 6 -63 42l-384 573l-155 -146v-373
q0 -42 -29 -70t-71 -28zM609 -503q-42 0 -71 28.5t-29 70.5v277q0 42 29.5 70t71.5 28q41 0 68.5 -28t27.5 -70v-277q0 -41 -28 -70q-27 -29 -69 -29z" />
    <glyph glyph-name="kcommaaccent" unicode="&#x137;" horiz-adv-x="880" 
d="M201 0q-42 0 -71.5 28t-29.5 70v1084q0 42 30 70q29 28 71 28t70 -28t28 -70v-632l363 355q28 27 65 27q41 0 71 -31v-2q28 -28 28 -69q0 -39 -29 -68l-227 -216l255 -391q16 -25 16 -54q0 -55 -45 -84q-25 -17 -54 -17q-53 0 -82 45l-238 362l-124 -118v-191
q0 -41 -28 -69q-29 -29 -69 -29zM463 -478q-42 0 -71 28.5t-29 70.5v277q0 42 29.5 70t71.5 28q41 0 68.5 -28t27.5 -70v-277q0 -41 -28 -70q-27 -29 -69 -29z" />
    <glyph glyph-name="kgreenlandic" unicode="&#x138;" horiz-adv-x="880" 
d="M201 0q-42 0 -71.5 28t-29.5 70v999q0 41 30 70q29 28 71 28t70 -28t28 -70v-547l363 355q28 27 65 27q41 0 71 -31v-2q28 -28 28 -69q0 -39 -29 -68l-264 -250l323 -346q19 -21 24 -44q3 -14 3 -26q0 -42 -30 -70q-29 -27 -69 -27q-42 0 -70 30l-318 353l-98 -93v-191
q0 -41 -28 -69q-29 -29 -69 -29z" />
    <glyph glyph-name="Lacute" unicode="&#x139;" horiz-adv-x="858" 
d="M198 1416q-30 30 -30 70q0 42 30 72l133 134q30 30 72 30q39 0 71 -29q30 -30 30 -71q0 -40 -30 -70l-135 -136q-30 -30 -71 -30q-40 0 -70 30zM217 0l-8 2q-35 7 -57 33.5t-22 62.5v1083q0 42 29 71q28 28 70 28q43 0 71 -28q29 -29 29 -71v-983l415 -1q42 0 70.5 -28.5
t28.5 -70.5t-28 -70q-29 -29 -71 -28h-527z" />
    <glyph glyph-name="lacute" unicode="&#x13a;" horiz-adv-x="400" 
d="M161 1410q-30 30 -30 70q0 42 30 72l133 134q30 30 72 30q39 0 71 -29q30 -30 30 -71q0 -40 -30 -70l-135 -136q-30 -30 -71 -30q-40 0 -70 30zM200 0q-42 0 -71 28t-29 70v1084q0 42 29 70t71 28t70.5 -28t28.5 -70v-1084q0 -42 -28.5 -70t-70.5 -28z" />
    <glyph glyph-name="Lcommaaccent" unicode="&#x13b;" horiz-adv-x="858" 
d="M217 0l-8 2q-35 7 -57 33.5t-22 62.5v1083q0 42 29 71q28 28 70 28q43 0 71 -28q29 -29 29 -71v-983l415 -1q42 0 70.5 -28.5t28.5 -70.5t-28 -70q-29 -29 -71 -28h-527zM528 -554q-42 0 -71 28.5t-29 70.5v277q0 42 29.5 70t71.5 28q41 0 68.5 -28t27.5 -70v-277
q0 -41 -28 -70q-27 -29 -69 -29z" />
    <glyph glyph-name="lcommaaccent" unicode="&#x13c;" horiz-adv-x="400" 
d="M200 0q-42 0 -71 28t-29 70v1084q0 42 29 70t71 28t70.5 -28t28.5 -70v-1084q0 -42 -28.5 -70t-70.5 -28zM195 -522q-42 0 -71 28.5t-29 70.5v277q0 42 29.5 70t71.5 28q41 0 68.5 -28t27.5 -70v-277q0 -41 -28 -70q-27 -29 -69 -29z" />
    <glyph glyph-name="Lcaron" unicode="&#x13d;" horiz-adv-x="858" 
d="M247 1387h-9q-7 0 -9 1q-25 3 -46 24l-212 214q-24 24 -24 55q0 16 4 25q6 18 21 33t33 21q15 4 24 4q32 0 56 -24l156 -157l157 157q24 24 55 24q16 0 25 -4q18 -6 33 -21t22 -33q4 -12 4 -24q0 -31 -25 -56l-212 -214q-23 -21 -46 -24q-1 -1 -7 -1zM217 0l-8 2
q-35 7 -57 33.5t-22 62.5v1083q0 42 29 71q28 28 70 28q43 0 71 -28q29 -29 29 -71v-983l415 -1q42 0 70.5 -28.5t28.5 -70.5t-28 -70q-29 -29 -71 -28h-527z" />
    <glyph glyph-name="lcaron" unicode="&#x13e;" horiz-adv-x="400" 
d="M200 0q-42 0 -71 28t-29 70v1084q0 42 29 70t71 28t70.5 -28t28.5 -70v-1084q0 -42 -28.5 -70t-70.5 -28zM497 804q-42 0 -71 28.5t-29 70.5v277q0 42 29.5 70t71.5 28q41 0 68.5 -28t27.5 -70v-277q0 -41 -28 -70q-27 -29 -69 -29z" />
    <glyph glyph-name="Ldot" unicode="&#x13f;" horiz-adv-x="858" 
d="M217 0l-8 2q-35 7 -57 33.5t-22 62.5v1083q0 42 29 71q28 28 70 28q43 0 71 -28q29 -29 29 -71v-983l415 -1q42 0 70.5 -28.5t28.5 -70.5t-28 -70q-29 -29 -71 -28h-527zM648 515q-48 0 -83 35t-35 84t35 84t83 35q49 0 84 -35t35 -84t-35 -84t-84 -35z" />
    <glyph glyph-name="ldot" unicode="&#x140;" horiz-adv-x="400" 
d="M200 0q-42 0 -71 28t-29 70v1084q0 42 29 70t71 28t70.5 -28t28.5 -70v-1084q0 -42 -28.5 -70t-70.5 -28zM498 509q-48 0 -83 35t-35 84t35 84t83 35q49 0 84 -35t35 -84t-35 -84t-84 -35z" />
    <glyph glyph-name="Lslash" unicode="&#x141;" horiz-adv-x="858" 
d="M763 0h-531q-40 0 -72 30q-30 28 -30 71v413l-66 -24q-17 -5 -26 -5q-26 0 -46 20q-9 8 -14 22q-4 9 -4 24q0 21 11.5 37.5t31.5 23.5l113 42v524q0 46 30 73q32 29 72 29q41 0 73 -29q30 -27 30 -73v-447l85 32q9 4 25 4q28 0 47.5 -18.5t19.5 -47.5q0 -46 -44 -61
l-133 -50v-385l428 -1q43 0 72 -30t29 -73t-29 -72q-31 -31 -72 -29z" />
    <glyph glyph-name="lslash" unicode="&#x142;" horiz-adv-x="400" 
d="M200 0q-42 0 -71 28t-29 70v429l-73 -29q-9 -4 -25 -4q-46 0 -65 45q-4 11 -4 26q0 45 44 64l123 49v504q0 42 29 70t71 28t70.5 -28t28.5 -70v-424l63 25q12 5 26 5q21 0 38.5 -12t24.5 -32q5 -13 5 -28q0 -47 -44 -64l-113 -46v-508q0 -42 -28.5 -70t-70.5 -28z" />
    <glyph glyph-name="Nacute" unicode="&#x143;" horiz-adv-x="1204" 
d="M511 1414q-30 30 -30 70q0 42 30 72l133 134q30 30 72 30q39 0 71 -29q30 -30 30 -71q0 -40 -30 -70l-135 -136q-30 -30 -71 -30q-40 0 -70 30zM229 0q-42 0 -70.5 28t-28.5 70v1081q0 42 28.5 70t70.5 28h1q8 0 16 -2l14 -3q17 -6 29 -15l11 -9q10 -10 18 -24l594 -830
v788q0 42 29.5 70t71.5 28q45 0 70 -28q28 -29 28 -70v-1084q0 -33 -19.5 -59t-50.5 -35q-14 -4 -18 -4h-11q-35 0 -62 21q-15 11 -18 17l-603 844v-784q0 -42 -29 -70t-71 -28z" />
    <glyph glyph-name="nacute" unicode="&#x144;" horiz-adv-x="1035" 
d="M588 1097q-30 30 -30 70q0 42 30 72l133 134q30 30 72 30q39 0 71 -29q30 -30 30 -71q0 -40 -30 -70l-135 -136q-30 -30 -71 -30q-40 0 -70 30zM845 -2q-42 0 -70.5 28t-28.5 70v384q-2 122 -57 192q-59 72 -157 72q-104 0 -167 -74q-66 -77 -66 -185v-386
q0 -42 -28.5 -70.5t-70.5 -28.5q-41 0 -70 29q-30 30 -30 70v744q0 43 30 71q32 29 71 29q43 0 70 -29q28 -29 28 -71v-14q118 113 255 113q174 0 282 -131q108 -130 108 -331v-384q0 -42 -28.5 -70t-70.5 -28z" />
    <glyph glyph-name="Ncommaaccent" unicode="&#x145;" horiz-adv-x="1204" 
d="M229 0q-42 0 -70.5 28t-28.5 70v1081q0 42 28.5 70t70.5 28h1q8 0 16 -2l14 -3q17 -6 29 -15l11 -9q10 -10 18 -24l594 -830v788q0 42 29.5 70t71.5 28q45 0 70 -28q28 -29 28 -70v-1084q0 -33 -19.5 -59t-50.5 -35q-14 -4 -18 -4h-11q-35 0 -62 21q-15 11 -18 17
l-603 844v-784q0 -42 -29 -70t-71 -28zM656 -484q-42 0 -71 28.5t-29 70.5v277q0 42 29.5 70t71.5 28q41 0 68.5 -28t27.5 -70v-277q0 -41 -28 -70q-27 -29 -69 -29z" />
    <glyph glyph-name="ncommaaccent" unicode="&#x146;" horiz-adv-x="1035" 
d="M845 -2q-42 0 -70.5 28t-28.5 70v384q-2 122 -57 192q-59 72 -157 72q-104 0 -167 -74q-66 -77 -66 -185v-386q0 -42 -28.5 -70.5t-70.5 -28.5q-41 0 -70 29q-30 30 -30 70v744q0 43 30 71q32 29 71 29q43 0 70 -29q28 -29 28 -71v-14q118 113 255 113q174 0 282 -131
q108 -130 108 -331v-384q0 -42 -28.5 -70t-70.5 -28zM557 -481q-42 0 -71 28.5t-29 70.5v277q0 42 29.5 70t71.5 28q41 0 68.5 -28t27.5 -70v-277q0 -41 -28 -70q-27 -29 -69 -29z" />
    <glyph glyph-name="Ncaron" unicode="&#x147;" horiz-adv-x="1204" 
d="M612 1359h-9q-7 0 -9 1q-25 3 -46 24l-212 214q-24 24 -24 55q0 16 4 25q6 18 21 33t33 21q15 4 24 4q32 0 56 -24l156 -157l157 157q24 24 56 24q9 0 24 -4q18 -6 33 -21t22 -33q4 -12 4 -24q0 -31 -25 -56l-212 -214q-23 -21 -46 -24q-1 -1 -7 -1zM229 0
q-42 0 -70.5 28t-28.5 70v1081q0 42 28.5 70t70.5 28h1q8 0 16 -2l14 -3q17 -6 29 -15l11 -9q10 -10 18 -24l594 -830v788q0 42 29.5 70t71.5 28q45 0 70 -28q28 -29 28 -70v-1084q0 -33 -19.5 -59t-50.5 -35q-14 -4 -18 -4h-11q-35 0 -62 21q-15 11 -18 17l-603 844v-784
q0 -42 -29 -70t-71 -28z" />
    <glyph glyph-name="ncaron" unicode="&#x148;" horiz-adv-x="1035" 
d="M563 1063h-9q-7 0 -9 1q-25 3 -46 24l-212 214q-24 24 -24 55q0 16 4 25q6 18 21 33t33 21q15 4 24 4q32 0 56 -24l156 -157l157 157q24 24 56 24q9 0 24 -4q18 -6 33 -21t22 -33q4 -12 4 -24q0 -31 -25 -56l-212 -214q-23 -21 -46 -24q-1 -1 -7 -1zM845 -2
q-42 0 -70.5 28t-28.5 70v384q-2 122 -57 192q-59 72 -157 72q-104 0 -167 -74q-66 -77 -66 -185v-386q0 -42 -28.5 -70.5t-70.5 -28.5q-41 0 -70 29q-30 30 -30 70v744q0 43 30 71q32 29 71 29q43 0 70 -29q28 -29 28 -71v-14q118 113 255 113q174 0 282 -131
q108 -130 108 -331v-384q0 -42 -28.5 -70t-70.5 -28z" />
    <glyph glyph-name="napostrophe" unicode="&#x149;" horiz-adv-x="1068" 
d="M832 -2q-42 0 -70.5 28t-28.5 70v384q-1 122 -57 192q-58 72 -157 72q-104 0 -167 -74q-66 -77 -66 -185v-386q0 -42 -28.5 -70.5t-70.5 -28.5q-41 0 -70 29q-30 30 -30 70v714q-24 -8 -41 -8q-42 0 -71 28.5t-29 70.5v277q0 42 29.5 70t71.5 28q41 0 68.5 -28t27.5 -70
v-249q20 11 45 11q43 0 70 -29q28 -29 28 -71v-14q118 113 255 113q174 0 282 -131q108 -130 108 -331v-384q0 -42 -28.5 -70t-70.5 -28z" />
    <glyph glyph-name="Eng" unicode="&#x14a;" horiz-adv-x="1204" 
d="M834 -302h-20q-43 0 -71 27.5t-28 70.5q0 42 28.5 70.5t70.5 28.5h4q69 0 111 36q44 36 44 97v36l-644 833v-796q0 -43 -27.5 -72t-69.5 -29q-40 0 -72 30q-30 28 -30 71v1074q0 38 24 65q15 25 53 36q16 4 27 4q24 0 49 -13q19 -11 31 -27l659 -849v784q0 43 28 72
t70 29q43 0 72 -29t29 -72v-1154q-2 -132 -102 -228q-97 -95 -236 -95z" />
    <glyph glyph-name="eng" unicode="&#x14b;" horiz-adv-x="1035" 
d="M545 -299h-20q-43 0 -70.5 27.5t-27.5 70.5q0 42 28 70t70 28h20q62 0 127 50q73 54 74 130v403q-2 122 -57 192q-59 72 -157 72q-99 0 -164 -71q-64 -69 -69 -177v-397q0 -42 -28.5 -70.5t-70.5 -28.5q-41 0 -70 29q-30 30 -30 70v744q0 43 30 71q32 29 71 29
q43 0 70 -29q28 -29 28 -71v-14q118 113 255 113q174 0 282 -131q108 -130 108 -331v-378q-1 -2 -1 -9q0 -2 -2 -10h3q0 -159 -131 -274q-58 -51 -128.5 -79.5t-139.5 -28.5z" />
    <glyph glyph-name="Omacron" unicode="&#x14c;" horiz-adv-x="1386" 
d="M896 1380h-394q-36 0 -61 26t-25 63q0 36 24.5 60t61.5 24h394q36 0 62 -24q25 -26 25 -60q0 -36 -25 -62q-26 -27 -62 -27zM691 -12q-131 0 -250 50t-209 141q-91 91 -140 209.5t-49 249.5q0 178 88 329q86 148 232 233q154 89 328 89q178 0 329 -89q149 -87 234 -233
q89 -155 89 -329q0 -131 -50 -249.5t-141 -209.5t-210.5 -141t-250.5 -50zM692 187q189 0 320 131t131 320q0 90 -34 172.5t-97 145.5q-132 132 -320 132q-92 0 -174.5 -34.5t-143.5 -97.5q-63 -63 -97 -145.5t-34 -172.5q0 -189 131 -320q61 -63 143.5 -97t174.5 -34z" />
    <glyph glyph-name="omacron" unicode="&#x14d;" 
d="M711 1057h-394q-36 0 -61 26t-25 63q0 36 24.5 60t61.5 24h394q37 0 62 -24q25 -26 25 -60q0 -36 -25 -62q-25 -27 -62 -27zM520 -12q-96 0 -183 36.5t-154 103.5q-140 140 -140 337t140 337q67 67 154 103.5t183 36.5t183 -36.5t154 -103.5q139 -141 139 -337t-139 -337
q-67 -67 -154 -103.5t-183 -36.5zM520 188q115 0 197 82q80 80 80 195q0 116 -80 196t-197 80q-115 0 -195 -80q-82 -82 -82 -196q0 -113 82 -195t195 -82z" />
    <glyph glyph-name="Obreve" unicode="&#x14e;" horiz-adv-x="1386" 
d="M695 1390q-94 0 -160 66t-66 159q0 29 20 49.5t48 20.5q29 0 49 -20.5t20 -49.5q0 -36 26 -62q26 -27 63 -27q39 0 64 27q26 26 26 62q0 29 19.5 49.5t48.5 20.5t48.5 -20.5t19.5 -49.5q0 -90 -66 -159q-66 -66 -160 -66zM691 -12q-131 0 -250 50t-209 141
q-91 91 -140 209.5t-49 249.5q0 178 88 329q86 148 232 233q154 89 328 89q178 0 329 -89q149 -87 234 -233q89 -155 89 -329q0 -131 -50 -249.5t-141 -209.5t-210.5 -141t-250.5 -50zM692 187q189 0 320 131t131 320q0 90 -34 172.5t-97 145.5q-132 132 -320 132
q-92 0 -174.5 -34.5t-143.5 -97.5q-63 -63 -97 -145.5t-34 -172.5q0 -189 131 -320q61 -63 143.5 -97t174.5 -34z" />
    <glyph glyph-name="obreve" unicode="&#x14f;" 
d="M515 1063q-94 0 -160 66t-66 159q0 29 20 49.5t48 20.5q29 0 49 -20.5t20 -49.5q0 -36 26 -62q26 -27 63 -27q39 0 64 27q26 26 26 62q0 29 19.5 49.5t48.5 20.5t48.5 -20.5t19.5 -49.5q0 -90 -66 -159q-66 -66 -160 -66zM520 -12q-96 0 -183 36.5t-154 103.5
q-140 140 -140 337t140 337q67 67 154 103.5t183 36.5t183 -36.5t154 -103.5q139 -141 139 -337t-139 -337q-67 -67 -154 -103.5t-183 -36.5zM520 188q115 0 197 82q80 80 80 195q0 116 -80 196t-197 80q-115 0 -195 -80q-82 -82 -82 -196q0 -113 82 -195t195 -82z" />
    <glyph glyph-name="Ohungarumlaut" unicode="&#x150;" horiz-adv-x="1386" 
d="M519 1366q-36 0 -60 26q-26 24 -26 61q0 35 26 61l122 123q26 26 62 26q35 0 60 -25q27 -27 27 -61t-27 -61l-123 -124q-26 -26 -61 -26zM889 1366q-37 0 -61 26q-26 24 -26 61q0 35 26 61l122 123q26 26 63 26q34 0 59 -25q27 -27 27 -61q0 -35 -26 -61l-123 -124
q-26 -26 -61 -26zM691 -12q-131 0 -250 50t-209 141q-91 91 -140 209.5t-49 249.5q0 178 88 329q86 148 232 233q154 89 328 89q178 0 329 -89q149 -87 234 -233q89 -155 89 -329q0 -131 -50 -249.5t-141 -209.5t-210.5 -141t-250.5 -50zM692 187q189 0 320 131t131 320
q0 90 -34 172.5t-97 145.5q-132 132 -320 132q-92 0 -174.5 -34.5t-143.5 -97.5q-63 -63 -97 -145.5t-34 -172.5q0 -189 131 -320q61 -63 143.5 -97t174.5 -34z" />
    <glyph glyph-name="ohungarumlaut" unicode="&#x151;" 
d="M377 1048q-36 0 -60 26q-26 24 -26 61q0 35 26 61l122 123q26 26 62 26q35 0 60 -25q27 -27 27 -61t-27 -61l-123 -124q-26 -26 -61 -26zM747 1048q-37 0 -61 26q-26 24 -26 61q0 35 26 61l122 123q26 26 63 26q34 0 59 -25q27 -27 27 -61q0 -35 -26 -61l-123 -124
q-26 -26 -61 -26zM520 -12q-96 0 -183 36.5t-154 103.5q-140 140 -140 337t140 337q67 67 154 103.5t183 36.5t183 -36.5t154 -103.5q139 -141 139 -337t-139 -337q-67 -67 -154 -103.5t-183 -36.5zM520 188q115 0 197 82q80 80 80 195q0 116 -80 196t-197 80
q-115 0 -195 -80q-82 -82 -82 -196q0 -113 82 -195t195 -82z" />
    <glyph glyph-name="OE" unicode="&#x152;" horiz-adv-x="2108" 
d="M691 -12q-131 0 -250 50t-209 141q-91 91 -140 209.5t-49 249.5q0 178 88 329q86 148 232 233q154 89 328 89q134 0 253 -50.5t212 -144.5v86q0 42 29 71t71 29h534q41 0 70 -29q28 -28 28 -71q0 -42 -28 -70.5t-70 -28.5h-435v-346h314q42 2 71 -27q28 -28 28 -71
q0 -42 -28.5 -69t-70.5 -27h-314v-343h435q42 0 70 -29t28 -71t-28 -70q-30 -30 -70 -28h-542q-40 3 -66 30.5t-26 68.5v83q-194 -194 -465 -194zM692 187q189 0 320 131t131 320q0 90 -34 172.5t-97 145.5q-132 132 -320 132q-92 0 -174.5 -34.5t-143.5 -97.5
q-63 -63 -97 -145.5t-34 -172.5q0 -189 131 -320q61 -63 143.5 -97t174.5 -34z" />
    <glyph glyph-name="oe" unicode="&#x153;" horiz-adv-x="1798" 
d="M520 -12q-96 0 -183 36.5t-154 103.5q-140 140 -140 337t140 337q67 67 154 103.5t183 36.5q111 0 213 -50q96 -49 164 -136q67 88 166.5 137t212.5 49q195 0 336 -138t143 -334q0 -42 -27.5 -68.5t-70.5 -26.5h-639q24 -85 95 -140q69 -55 163 -55q114 0 179 71
q31 25 66 25q17 0 33 -6q28 -10 48 -42q17 -26 17 -56q0 -43 -38 -75q-56 -52 -118 -76q-81 -32 -187 -32q-113 0 -212.5 49t-166.5 136q-69 -87 -164 -135q-99 -51 -213 -51zM1012 541h538q-23 95 -95 151q-75 60 -176 60t-174 -60q-73 -61 -93 -151zM520 188q115 0 197 82
q80 80 80 195q0 116 -80 196t-197 80q-115 0 -195 -80q-82 -82 -82 -196q0 -113 82 -195t195 -82z" />
    <glyph glyph-name="Racute" unicode="&#x154;" horiz-adv-x="1035" 
d="M430 1417q-30 30 -30 70q0 42 30 72l133 134q30 30 72 30q39 0 71 -29q30 -30 30 -71q0 -40 -30 -70l-135 -136q-30 -30 -71 -30q-40 0 -70 30zM229 0q-42 0 -70.5 28t-28.5 70v1084q0 42 28.5 70t70.5 28h335q159 0 274 -110q112 -109 112 -269q0 -124 -71 -220
q-70 -95 -182 -134l237 -400q14 -23 14 -47q0 -12 -5 -29q-14 -41 -49 -59q-22 -12 -47 -12q-16 0 -27 4q-40 12 -59 46l-279 475h-153v-427q0 -42 -29 -70t-71 -28zM329 724h236q77 0 132 55q54 51 54 127t-55 126q-56 51 -132 51h-235v-359z" />
    <glyph glyph-name="racute" unicode="&#x155;" horiz-adv-x="726" 
d="M410 1103q-30 30 -30 70q0 42 30 72l133 134q30 30 72 30q39 0 71 -29q30 -30 30 -71q0 -40 -30 -70l-135 -136q-30 -30 -71 -30q-40 0 -70 30zM201 0q-41 0 -70 29q-30 30 -30 70v744q0 41 30 71q29 29 71 29q43 0 70 -29q28 -29 28 -71q136 99 298 99h4q48 0 75.5 -27
t27.5 -72q0 -42 -30 -70.5t-73 -28.5h-4q-124 0 -210 -88q-88 -88 -88 -214v-343q0 -42 -28.5 -70.5t-70.5 -28.5z" />
    <glyph glyph-name="Rcommaaccent" unicode="&#x156;" horiz-adv-x="1035" 
d="M229 0q-42 0 -70.5 28t-28.5 70v1084q0 42 28.5 70t70.5 28h335q159 0 274 -110q112 -109 112 -269q0 -124 -71 -220q-70 -95 -182 -134l237 -400q14 -23 14 -47q0 -12 -5 -29q-14 -41 -49 -59q-22 -12 -47 -12q-16 0 -27 4q-40 12 -59 46l-279 475h-153v-427
q0 -42 -29 -70t-71 -28zM329 724h236q77 0 132 55q54 51 54 127t-55 126q-56 51 -132 51h-235v-359zM543 -464q-42 0 -71 28.5t-29 70.5v277q0 42 29.5 70t71.5 28q41 0 68.5 -28t27.5 -70v-277q0 -41 -28 -70q-27 -29 -69 -29z" />
    <glyph glyph-name="rcommaaccent" unicode="&#x157;" horiz-adv-x="726" 
d="M201 0q-41 0 -70 29q-30 30 -30 70v744q0 41 30 71q29 29 71 29q43 0 70 -29q28 -29 28 -71q136 99 298 99h4q48 0 75.5 -27t27.5 -72q0 -42 -30 -70.5t-73 -28.5h-4q-124 0 -210 -88q-88 -88 -88 -214v-343q0 -42 -28.5 -70.5t-70.5 -28.5zM195 -535q-42 0 -71 28.5
t-29 70.5v277q0 42 29.5 70t71.5 28q41 0 68.5 -28t27.5 -70v-277q0 -41 -28 -70q-27 -29 -69 -29z" />
    <glyph glyph-name="Rcaron" unicode="&#x158;" horiz-adv-x="1035" 
d="M522 1395h-9q-7 0 -9 1q-25 3 -46 24l-212 214q-24 24 -24 55q0 16 4 25q6 18 21 33t33 21q15 4 24 4q32 0 56 -24l156 -157l157 157q24 24 55 24q16 0 25 -4q18 -6 33 -21t22 -33q4 -12 4 -24q0 -31 -25 -56l-212 -214q-23 -21 -46 -24q-1 -1 -7 -1zM229 0
q-42 0 -70.5 28t-28.5 70v1084q0 42 28.5 70t70.5 28h335q159 0 274 -110q112 -109 112 -269q0 -124 -71 -220q-70 -95 -182 -134l237 -400q14 -23 14 -47q0 -12 -5 -29q-14 -41 -49 -59q-22 -12 -47 -12q-16 0 -27 4q-40 12 -59 46l-279 475h-153v-427q0 -42 -29 -70
t-71 -28zM329 724h236q77 0 132 55q54 51 54 127t-55 126q-56 51 -132 51h-235v-359z" />
    <glyph glyph-name="rcaron" unicode="&#x159;" horiz-adv-x="726" 
d="M486 1062h-9q-7 0 -9 1q-25 3 -46 24l-212 214q-24 24 -24 55q0 16 4 25q6 18 21 33t33 21q15 4 24 4q32 0 56 -24l156 -157l157 157q24 24 55 24q16 0 25 -4q18 -6 33 -21t22 -33q4 -12 4 -24q0 -31 -25 -56l-212 -214q-23 -21 -46 -24q-1 -1 -7 -1zM201 0q-41 0 -70 29
q-30 30 -30 70v744q0 41 30 71q29 29 71 29q43 0 70 -29q28 -29 28 -71q136 99 298 99h4q48 0 75.5 -27t27.5 -72q0 -42 -30 -70.5t-73 -28.5h-4q-124 0 -210 -88q-88 -88 -88 -214v-343q0 -42 -28.5 -70.5t-70.5 -28.5z" />
    <glyph glyph-name="Sacute" unicode="&#x15a;" horiz-adv-x="1003" 
d="M477 1416q-30 30 -30 70q0 42 30 72l133 134q30 30 72 30q39 0 71 -29q30 -30 30 -71q0 -40 -30 -70l-135 -136q-30 -30 -71 -30q-40 0 -70 30zM503 -13q-146 0 -269 73q-118 68 -166 174q-13 26 -13 53q0 14 5 32q10 31 47 52q23 13 44 13q44 0 92 -60q87 -138 268 -138
q98 0 164 48q76 52 76 136q0 82 -77 126q-42 24 -135 47l-26 7q-197 37 -304 121q-124 97 -124 249q0 159 129 267q124 102 291 102q120 0 223 -47q106 -51 159 -140q11 -19 11 -38q0 -3 -2 -19q-8 -28 -27 -47q-24 -24 -65 -24q-36 0 -59 18q-63 55 -105 74q-56 24 -132 24
q-94 0 -156 -45q-67 -45 -67 -123t87 -122q59 -29 203 -59q172 -45 258 -115q116 -93 116 -245q0 -166 -129 -281q-132 -113 -317 -113z" />
    <glyph glyph-name="sacute" unicode="&#x15b;" horiz-adv-x="781" 
d="M402 1094q-30 30 -30 70q0 42 30 72l133 134q30 30 72 30q39 0 71 -29q30 -30 30 -71q0 -40 -30 -70l-135 -136q-30 -30 -71 -30q-40 0 -70 30zM395 -11q-107 0 -194 40q-103 45 -148 129q-15 27 -15 55q0 26 12 44q25 44 80 44q52 0 89 -47q33 -48 73 -69t102 -21
q57 0 100 27q44 26 44 73q0 30 -16 49q-29 37 -92 56l-54 17q-149 52 -217 103q-98 71 -98 180q0 122 101 201q94 74 228 74q90 0 170 -33q89 -38 121 -101q11 -22 11 -44q0 -31 -22 -54q-27 -30 -65 -30q-19 0 -33 7l-40 30q-33 22 -38 25q-43 25 -90 25q-65 0 -104 -24.5
t-39 -69.5q0 -43 49 -74q39 -23 121 -48q148 -46 210 -95q90 -70 90 -186q0 -119 -96 -201t-240 -82z" />
    <glyph glyph-name="Scircumflex" unicode="&#x15c;" horiz-adv-x="1003" 
d="M279 1396q-19 6 -33.5 21t-20.5 34q-4 9 -4 25q0 30 24 54l212 214q21 21 46 24q2 1 9 1h9q6 0 7 -1q23 -3 46 -24l212 -214q25 -25 25 -56q0 -24 -17.5 -47t-41.5 -31q-9 -4 -25 -4q-31 0 -55 24l-157 157l-156 -157q-24 -24 -55 -24q-16 0 -25 4zM503 -13
q-146 0 -269 73q-118 68 -166 174q-13 26 -13 53q0 14 5 32q10 31 47 52q23 13 44 13q44 0 92 -60q87 -138 268 -138q98 0 164 48q76 52 76 136q0 82 -77 126q-42 24 -135 47l-26 7q-197 37 -304 121q-124 97 -124 249q0 159 129 267q124 102 291 102q120 0 223 -47
q106 -51 159 -140q11 -19 11 -38q0 -3 -2 -19q-8 -28 -27 -47q-24 -24 -65 -24q-36 0 -59 18q-63 55 -105 74q-56 24 -132 24q-94 0 -156 -45q-67 -45 -67 -123t87 -122q59 -29 203 -59q172 -45 258 -115q116 -93 116 -245q0 -166 -129 -281q-132 -113 -317 -113z" />
    <glyph glyph-name="scircumflex" unicode="&#x15d;" horiz-adv-x="781" 
d="M166 1076q-19 6 -33.5 21t-20.5 34q-4 9 -4 25q0 30 24 54l212 214q21 21 46 24q2 1 9 1h9q6 0 7 -1q23 -3 46 -24l212 -214q25 -25 25 -56q0 -24 -17.5 -47t-41.5 -31q-9 -4 -25 -4q-31 0 -55 24l-157 157l-156 -157q-24 -24 -55 -24q-16 0 -25 4zM395 -11
q-107 0 -194 40q-103 45 -148 129q-15 27 -15 55q0 26 12 44q25 44 80 44q52 0 89 -47q33 -48 73 -69t102 -21q57 0 100 27q44 26 44 73q0 30 -16 49q-29 37 -92 56l-54 17q-149 52 -217 103q-98 71 -98 180q0 122 101 201q94 74 228 74q90 0 170 -33q89 -38 121 -101
q11 -22 11 -44q0 -31 -22 -54q-27 -30 -65 -30q-19 0 -33 7l-40 30q-33 22 -38 25q-43 25 -90 25q-65 0 -104 -24.5t-39 -69.5q0 -43 49 -74q39 -23 121 -48q148 -46 210 -95q90 -70 90 -186q0 -119 -96 -201t-240 -82z" />
    <glyph glyph-name="Scedilla" unicode="&#x15e;" horiz-adv-x="1003" 
d="M537 -503q-89 0 -152 63t-63 151q0 28 18.5 47t46.5 19q25 0 43 -18.5t19 -45.5q0 -37 26.5 -63.5t63.5 -26.5q38 0 63.5 26.5t25.5 63.5q0 42 -28 66t-78 24q-71 0 -71 52v135q-131 12 -237 82q-104 66 -146 162q-13 26 -13 53q0 14 5 32q10 31 47 52q23 13 44 13
q44 0 92 -60q87 -138 268 -138q98 0 164 48q76 52 76 136q0 82 -77 126q-42 24 -135 47l-26 7q-197 37 -304 121q-124 97 -124 249q0 159 129 267q124 102 291 102q120 0 223 -47q106 -51 159 -140q11 -19 11 -38q0 -3 -2 -19q-8 -28 -27 -47q-24 -24 -65 -24q-36 0 -59 18
q-63 55 -105 74q-56 24 -132 24q-94 0 -156 -45q-67 -45 -67 -123t87 -122q59 -29 203 -59q172 -45 258 -115q116 -93 116 -245q0 -151 -105 -259q-105 -106 -265 -129v-69q74 -12 125 -72q49 -58 49 -141q0 -88 -63 -151q-65 -63 -153 -63z" />
    <glyph glyph-name="scedilla" unicode="&#x15f;" horiz-adv-x="781" 
d="M428 -478q-89 0 -152 63t-63 151q0 28 18.5 47t46.5 19q25 0 43 -18.5t19 -45.5q0 -37 26.5 -63.5t63.5 -26.5q38 0 63.5 26.5t25.5 63.5q0 42 -28 66t-78 24q-71 0 -71 52v112q-86 7 -166 49q-82 43 -123 117q-15 27 -15 55q0 26 12 44q25 44 80 44q52 0 89 -47
q33 -48 73 -69t102 -21q57 0 100 27q44 26 44 73q0 51 -56 83q-20 12 -52 22l-54 17q-149 52 -217 103q-98 71 -98 180q0 122 101 201q94 74 228 74q90 0 170 -33q89 -38 121 -101q11 -22 11 -44q0 -31 -22 -54q-27 -30 -65 -30q-19 0 -33 7l-40 30q-40 31 -79 43
q-20 7 -49 7q-65 0 -104 -24.5t-39 -69.5q0 -43 49 -74q39 -23 121 -48q148 -46 210 -95q90 -70 90 -186q0 -105 -72 -179q-74 -77 -189 -97v-47q74 -12 125 -72q49 -58 49 -141q0 -88 -63 -151q-65 -63 -153 -63z" />
    <glyph glyph-name="Scaron" unicode="&#x160;" horiz-adv-x="1003" 
d="M538 1381h-9q-7 0 -9 1q-25 3 -46 24l-212 214q-24 24 -24 55q0 16 4 25q14 40 54 54q15 4 24 4q32 0 56 -24l156 -157l157 157q24 24 56 24q9 0 24 -4q18 -6 33 -21t22 -33q4 -12 4 -24q0 -31 -25 -56l-212 -214q-23 -21 -46 -24q-1 -1 -7 -1zM503 -13q-146 0 -269 73
q-118 68 -166 174q-13 26 -13 53q0 14 5 32q10 31 47 52q23 13 44 13q44 0 92 -60q87 -138 268 -138q98 0 164 48q76 52 76 136q0 82 -77 126q-42 24 -135 47l-26 7q-197 37 -304 121q-124 97 -124 249q0 159 129 267q124 102 291 102q120 0 223 -47q106 -51 159 -140
q11 -19 11 -38q0 -3 -2 -19q-8 -28 -27 -47q-24 -24 -65 -24q-36 0 -59 18q-63 55 -105 74q-56 24 -132 24q-94 0 -156 -45q-67 -45 -67 -123t87 -122q59 -29 203 -59q172 -45 258 -115q116 -93 116 -245q0 -166 -129 -281q-132 -113 -317 -113z" />
    <glyph glyph-name="scaron" unicode="&#x161;" horiz-adv-x="781" 
d="M408 1062h-9q-7 0 -9 1q-25 3 -46 24l-212 214q-24 24 -24 55q0 16 4 25q6 18 21 33t33 21q15 4 24 4q32 0 56 -24l156 -157l157 157q24 24 55 24q16 0 25 -4q18 -6 33 -21t22 -33q4 -12 4 -24q0 -31 -25 -56l-212 -214q-23 -21 -46 -24q-1 -1 -7 -1zM395 -11
q-107 0 -194 40q-103 45 -148 129q-15 27 -15 55q0 26 12 44q25 44 80 44q52 0 89 -47q33 -48 73 -69t102 -21q57 0 100 27q44 26 44 73q0 30 -16 49q-29 37 -92 56l-54 17q-149 52 -217 103q-98 71 -98 180q0 122 101 201q94 74 228 74q90 0 170 -33q89 -38 121 -101
q11 -22 11 -44q0 -31 -22 -54q-27 -30 -65 -30q-19 0 -33 7l-40 30q-33 22 -38 25q-43 25 -90 25q-65 0 -104 -24.5t-39 -69.5q0 -43 49 -74q39 -23 121 -48q148 -46 210 -95q90 -70 90 -186q0 -119 -96 -201t-240 -82z" />
    <glyph glyph-name="uni0162" unicode="&#x162;" horiz-adv-x="972" 
d="M477 0q-42 0 -68.5 28t-26.5 70v984h-266q-42 0 -70 28.5t-28 70.5t28 70.5t70 28.5h728q42 0 70.5 -29t28.5 -71q0 -45 -28 -70q-29 -28 -71 -28h-267v-984q0 -42 -29 -70t-71 -28zM482 -582q-42 0 -71 28.5t-29 70.5v277q0 42 29.5 70t71.5 28q41 0 68.5 -28t27.5 -70
v-277q0 -41 -28 -70q-27 -29 -69 -29z" />
    <glyph glyph-name="uni0163" unicode="&#x163;" horiz-adv-x="587" 
d="M287 0q-42 0 -71 28t-29 70v643h-72q-41 0 -70 30q-30 31 -30 71q0 42 29 70t71 28h72v242q0 42 29 70t71 28t70.5 -28t28.5 -70v-242h86q43 0 71.5 -28t28.5 -70q0 -43 -28.5 -72t-71.5 -29h-86v-643q0 -42 -28.5 -70t-70.5 -28zM485 -552q-42 0 -71 28.5t-29 70.5v277
q0 42 29.5 70t71.5 28q41 0 68.5 -28t27.5 -70v-277q0 -41 -28 -70q-27 -29 -69 -29z" />
    <glyph glyph-name="Tcaron" unicode="&#x164;" horiz-adv-x="972" 
d="M468 1392h-9q-7 0 -9 1q-25 3 -46 24l-212 214q-24 24 -24 55q0 16 4 25q6 18 21 33t33 21q15 4 24 4q32 0 56 -24l156 -157l157 157q24 24 55 24q16 0 25 -4q18 -6 33 -21t22 -33q4 -12 4 -24q0 -31 -25 -56l-212 -214q-23 -21 -46 -24q-1 -1 -7 -1zM477 0
q-42 0 -68.5 28t-26.5 70v984h-266q-42 0 -70 28.5t-28 70.5t28 70.5t70 28.5h728q42 0 70.5 -29t28.5 -71q0 -45 -28 -70q-29 -28 -71 -28h-267v-984q0 -42 -29 -70t-71 -28z" />
    <glyph glyph-name="tcaron" unicode="&#x165;" horiz-adv-x="587" 
d="M566 1022q-32 0 -54.5 22t-22.5 54v212q0 32 22.5 53.5t55.5 21.5q31 0 52 -21.5t21 -53.5v-212q0 -32 -21 -54t-53 -22zM287 0q-42 0 -71 28t-29 70v643h-72q-41 0 -70 30q-30 31 -30 71q0 42 29 70t71 28h72v242q0 42 29 70t71 28t70.5 -28t28.5 -70v-242h86
q43 0 71.5 -28t28.5 -70q0 -43 -28.5 -72t-71.5 -29h-86v-643q0 -42 -28.5 -70t-70.5 -28z" />
    <glyph glyph-name="Tbar" unicode="&#x166;" horiz-adv-x="972" 
d="M476 0q-42 0 -68 28t-26 70v418h-197q-38 0 -63 26t-25 65q0 37 25 61.5t63 24.5h197v389h-324q-42 0 -70.5 28.5t-28.5 70.5t28.5 70.5t70.5 28.5h843q42 0 70.5 -29t28.5 -71q0 -45 -28 -70q-29 -28 -71 -28h-325v-389h182q38 0 64 -25q26 -26 26 -61q0 -38 -26 -64.5
t-64 -26.5h-182v-418q0 -40 -29 -69t-71 -29z" />
    <glyph glyph-name="tbar" unicode="&#x167;" horiz-adv-x="587" 
d="M384 0q-42 0 -71 28t-29 70v246h-63q-37 0 -61.5 25t-24.5 62q0 36 25 62t61 26h63v222h-72q-42 0 -70 30q-30 31 -30 71q0 42 29 70t71 28h72v242q0 42 29 70t71 28t70.5 -28t28.5 -70v-242h86q43 0 71.5 -28t28.5 -70q0 -43 -28.5 -72t-71.5 -29h-86v-222h58
q36 0 62 -26t26 -62t-26 -61.5t-62 -25.5h-58v-246q0 -42 -28.5 -70t-70.5 -28z" />
    <glyph glyph-name="Utilde" unicode="&#x168;" horiz-adv-x="1134" 
d="M713 1373q-68 0 -151 62l-18 14q-21 16 -50 27q-17 5 -27 5q-49 0 -94 -58q-8 -13 -13 -18q-24 -24 -57 -24t-56 23q-24 22 -24 57q-2 32 22 56q24 37 73 74q67 52 142 52q74 0 149 -58l20 -15q23 -18 52 -29q13 -6 27 -6q48 0 96 62q9 12 10 13q23 23 56 23t56.5 -23
t24.5 -55q0 -30 -23 -56q-20 -35 -72 -74q-68 -52 -143 -52zM571 -11q-206 0 -343 137q-66 64 -101.5 149.5t-35.5 180.5v723q0 42 29 71t70 29q42 0 71 -29t29 -71v-718q0 -112 79 -194q82 -82 201 -82t195 82q73 79 73 194v721q0 43 29 70q29 28 70 28q42 0 71 -28t29 -70
v-726q0 -199 -129 -330q-132 -137 -337 -137z" />
    <glyph glyph-name="utilde" unicode="&#x169;" horiz-adv-x="1034" 
d="M658 1058q-68 0 -151 62l-18 14q-21 16 -50 27q-17 5 -27 5q-49 0 -94 -58q-8 -13 -13 -18q-24 -24 -57 -24t-56 23q-24 23 -24 57q-2 32 22 56q24 37 73 74q67 52 142 52q74 0 149 -58l20 -15q23 -18 52 -29q14 -6 27 -6q48 0 96 62q9 12 10 13q23 23 56 23t56.5 -23
t24.5 -55q0 -30 -23 -56q-20 -35 -72 -74q-68 -52 -143 -52zM833 -2q-42 0 -69.5 29t-27.5 71v14q-118 -113 -256 -113q-174 0 -282 132q-108 131 -108 332v382q0 42 29 70t71 28t70.5 -28t28.5 -70v-384q0 -120 58 -191q57 -73 156 -73q101 0 167 74t66 185v386
q0 42 28.5 70.5t70.5 28.5q43 0 71 -28q29 -29 29 -71v-744q0 -42 -30 -70q-31 -30 -72 -30z" />
    <glyph glyph-name="Umacron" unicode="&#x16a;" horiz-adv-x="1134" 
d="M780 1379h-394q-36 0 -61 26t-25 63q0 36 24.5 60t61.5 24h394q36 0 62 -24q25 -26 25 -60q0 -36 -25 -62q-26 -27 -62 -27zM571 -11q-206 0 -343 137q-66 64 -101.5 149.5t-35.5 180.5v723q0 42 29 71t70 29q42 0 71 -29t29 -71v-718q0 -112 79 -194q82 -82 201 -82
t195 82q73 79 73 194v721q0 43 29 70q29 28 70 28q42 0 71 -28t29 -70v-726q0 -199 -129 -330q-132 -137 -337 -137z" />
    <glyph glyph-name="umacron" unicode="&#x16b;" horiz-adv-x="1034" 
d="M727 1058h-394q-36 0 -61 26t-25 63q0 36 24.5 60t61.5 24h394q37 0 62 -24q25 -26 25 -60q0 -36 -25 -62q-25 -27 -62 -27zM833 -2q-42 0 -69.5 29t-27.5 71v14q-118 -113 -256 -113q-174 0 -282 132q-108 131 -108 332v382q0 42 29 70t71 28t70.5 -28t28.5 -70v-384
q0 -120 58 -191q57 -73 156 -73q101 0 167 74t66 185v386q0 42 28.5 70.5t70.5 28.5q43 0 71 -28q29 -29 29 -71v-744q0 -42 -30 -70q-31 -30 -72 -30z" />
    <glyph glyph-name="Ubreve" unicode="&#x16c;" horiz-adv-x="1134" 
d="M565 1350q-94 0 -160 66t-66 159q0 29 20 49.5t48 20.5q29 0 49 -20.5t20 -49.5q0 -36 26 -62q26 -27 63 -27q39 0 64 27q26 26 26 62q0 29 19.5 49.5t48.5 20.5t48.5 -20.5t19.5 -49.5q0 -90 -66 -159q-66 -66 -160 -66zM571 -11q-206 0 -343 137q-66 64 -101.5 149.5
t-35.5 180.5v723q0 42 29 71t70 29q42 0 71 -29t29 -71v-718q0 -112 79 -194q82 -82 201 -82t195 82q73 79 73 194v721q0 43 29 70q29 28 70 28q42 0 71 -28t29 -70v-726q0 -199 -129 -330q-132 -137 -337 -137z" />
    <glyph glyph-name="ubreve" unicode="&#x16d;" horiz-adv-x="1034" 
d="M545 1047q-94 0 -160 66t-66 159q0 29 20 49.5t48 20.5q29 0 49 -20.5t20 -49.5q0 -36 26 -62q26 -27 63 -27q39 0 64 27q26 26 26 62q0 29 19.5 49.5t48.5 20.5t48.5 -20.5t19.5 -49.5q0 -90 -66 -159q-66 -66 -160 -66zM833 -2q-42 0 -69.5 29t-27.5 71v14
q-118 -113 -256 -113q-174 0 -282 132q-108 131 -108 332v382q0 42 29 70t71 28t70.5 -28t28.5 -70v-384q0 -120 58 -191q57 -73 156 -73q101 0 167 74t66 185v386q0 42 28.5 70.5t70.5 28.5q43 0 71 -28q29 -29 29 -71v-744q0 -42 -30 -70q-31 -30 -72 -30z" />
    <glyph glyph-name="Uring" unicode="&#x16e;" horiz-adv-x="1134" 
d="M569 1290q-88 0 -151 65q-63 63 -63 151q0 89 63 152q62 62 151 62t153 -62q62 -62 62 -152q0 -89 -62 -151q-65 -65 -153 -65zM570 1429q32 0 54.5 22.5t22.5 54.5t-22.5 55t-54.5 23t-54.5 -23t-22.5 -55t22.5 -54.5t54.5 -22.5zM571 -11q-206 0 -343 137
q-66 64 -101.5 149.5t-35.5 180.5v723q0 42 29 71t70 29q42 0 71 -29t29 -71v-718q0 -112 79 -194q82 -82 201 -82t195 82q73 79 73 194v721q0 43 29 70q29 28 70 28q42 0 71 -28t29 -70v-726q0 -199 -129 -330q-132 -137 -337 -137z" />
    <glyph glyph-name="uring" unicode="&#x16f;" horiz-adv-x="1034" 
d="M537 995q-88 0 -151 65q-63 63 -63 151q0 89 63 152q62 62 151 62t153 -62q62 -62 62 -152q0 -89 -62 -151q-65 -65 -153 -65zM538 1134q32 0 54.5 22.5t22.5 54.5t-22.5 55t-54.5 23t-54.5 -23t-22.5 -55t22.5 -54.5t54.5 -22.5zM833 -2q-42 0 -69.5 29t-27.5 71v14
q-118 -113 -256 -113q-174 0 -282 132q-108 131 -108 332v382q0 42 29 70t71 28t70.5 -28t28.5 -70v-384q0 -120 58 -191q57 -73 156 -73q101 0 167 74t66 185v386q0 42 28.5 70.5t70.5 28.5q43 0 71 -28q29 -29 29 -71v-744q0 -42 -30 -70q-31 -30 -72 -30z" />
    <glyph glyph-name="Uhungarumlaut" unicode="&#x170;" horiz-adv-x="1134" 
d="M375 1332q-36 0 -60 26q-26 24 -26 61q0 35 26 61l122 123q26 26 62 26q35 0 60 -25q27 -27 27 -61t-27 -61l-123 -124q-26 -26 -61 -26zM745 1332q-37 0 -61 26q-26 24 -26 61q0 35 26 61l122 123q26 26 63 26q34 0 59 -25q27 -27 27 -61q0 -35 -26 -61l-123 -124
q-26 -26 -61 -26zM571 -11q-206 0 -343 137q-66 64 -101.5 149.5t-35.5 180.5v723q0 42 29 71t70 29q42 0 71 -29t29 -71v-718q0 -112 79 -194q82 -82 201 -82t195 82q73 79 73 194v721q0 43 29 70q29 28 70 28q42 0 71 -28t29 -70v-726q0 -199 -129 -330
q-132 -137 -337 -137z" />
    <glyph glyph-name="uhungarumlaut" unicode="&#x171;" horiz-adv-x="1034" 
d="M342 1029q-36 0 -60 26q-26 24 -26 61q0 35 26 61l122 123q26 26 62 26q35 0 60 -25q27 -27 27 -61t-27 -61l-123 -124q-26 -26 -61 -26zM712 1029q-37 0 -61 26q-26 24 -26 61q0 35 26 61l122 123q26 26 63 26q34 0 59 -25q27 -27 27 -61q0 -35 -26 -61l-123 -124
q-26 -26 -61 -26zM833 -2q-42 0 -69.5 29t-27.5 71v14q-118 -113 -256 -113q-174 0 -282 132q-108 131 -108 332v382q0 42 29 70t71 28t70.5 -28t28.5 -70v-384q0 -120 58 -191q57 -73 156 -73q101 0 167 74t66 185v386q0 42 28.5 70.5t70.5 28.5q43 0 71 -28q29 -29 29 -71
v-744q0 -42 -30 -70q-31 -30 -72 -30z" />
    <glyph glyph-name="Uogonek" unicode="&#x172;" horiz-adv-x="1134" 
d="M837 -290q-90 0 -152 64q-63 61 -63 153q0 35 9 66q-23 -4 -60 -4q-206 0 -343 137q-66 64 -101.5 149.5t-35.5 180.5v723q0 42 29 71t70 29q42 0 71 -29t29 -71v-718q0 -112 79 -194q82 -82 201 -82t195 82q73 79 73 194v721q0 43 29 70q29 28 70 28q42 0 71 -28t29 -70
v-726q0 -188 -120 -320l-6 -8l-134 -132l-8 -6q-24 -25 -24 -62q0 -36 26 -62q25 -27 63 -27t64 25.5t26 63.5q0 27 18.5 45t47.5 18q26 0 45 -18.5t19 -44.5v-6q-2 -87 -65 -150q-62 -62 -152 -62z" />
    <glyph glyph-name="uogonek" unicode="&#x173;" horiz-adv-x="1034" 
d="M839 -380q-90 0 -152 64q-63 61 -63 153q0 94 65 157q1 0 1 1h1l56 56q-11 25 -11 47v14q-118 -113 -256 -113q-174 0 -282 132q-108 131 -108 332v382q0 42 29 70t71 28t70.5 -28t28.5 -70v-384q0 -120 58 -191q57 -73 156 -73q101 0 167 74t66 185v386q0 42 28.5 70.5
t70.5 28.5q43 0 71 -28q29 -29 29 -71v-744q0 -51 -46 -84l-110 -108l-8 -6q-24 -26 -24 -62t26 -62q25 -27 63 -27t64 25.5t26 63.5q0 27 18.5 45t47.5 18q26 0 45 -18.5t19 -44.5v-6q-2 -87 -65 -150q-62 -62 -152 -62z" />
    <glyph glyph-name="Wcircumflex" unicode="&#x174;" horiz-adv-x="1724" 
d="M642 1388q-19 6 -33.5 21t-20.5 34q-4 9 -4 25q0 30 24 54l212 214q21 21 46 24q2 1 9 1h9q6 0 7 -1q23 -3 46 -24l212 -214q25 -25 25 -56q0 -11 -4 -23q-7 -19 -22 -34t-33 -21q-9 -4 -25 -4q-31 0 -55 24l-157 157l-156 -157q-24 -24 -56 -24q-9 0 -24 4zM585 0
q-30 0 -54.5 16t-36.5 45l-465 1080q-8 22 -8 39q0 40 29 69t73 29q39 0 68 -28q14 -14 23 -33l373 -869l165 381l-177 412q-8 22 -8 39q0 40 29 69t73 29q39 0 68 -28q14 -14 23 -33l101 -236l102 236q25 61 91 61q23 0 38 -7q40 -16 55 -53q7 -15 7 -38q0 -17 -8 -39
l-177 -411l164 -382l376 869q17 39 54 54q14 7 37 7q42 0 71 -29t29 -69q0 -20 -9 -39l-464 -1080q-12 -29 -38 -45t-58 -16q-62 0 -92 61l-179 415l-178 -415q-12 -29 -38 -45t-59 -16z" />
    <glyph glyph-name="wcircumflex" unicode="&#x175;" horiz-adv-x="1324" 
d="M667 1036h-9q-7 0 -9 1q-25 3 -46 24l-212 214q-24 24 -24 55q0 16 4 25q6 18 21 33t33 21q15 4 24 4q32 0 56 -24l156 -157l157 157q24 24 55 24q16 0 25 -4q18 -6 33 -21t22 -33q4 -12 4 -24q0 -31 -25 -56l-212 -214q-23 -21 -46 -24q-1 -1 -7 -1zM468 0h-15
q-35 1 -65 31q-11 11 -19 29l-337 741q-9 19 -9 39q0 41 27 71q30 32 71 32t69 -28q14 -14 23 -33l247 -558l96 218l-117 259q-9 19 -9 42q0 19 6 35q12 37 52 56q20 9 39 9q41 0 69 -28q14 -14 23 -33l43 -99l44 99q17 39 55 53q14 7 37 7q42 0 72 -32q27 -30 27 -71
q-1 -18 -10 -39l-117 -259l96 -217l246 558q28 60 90 60q22 0 41 -9q40 -20 53 -56q7 -15 7 -38q0 -19 -9 -39l-336 -740q-14 -27 -32 -40q-24 -18 -51 -20h-12q-42 0 -67 30q-1 0 -1 1h-1v1q-12 10 -19 28l-112 246l-111 -246q-6 -14 -19 -28q-4 -5 -10.5 -10t-13 -8.5
t-7.5 -4.5q-16 -7 -34 -9z" />
    <glyph glyph-name="Ycircumflex" unicode="&#x176;" horiz-adv-x="1075" 
d="M372 1375q-19 6 -33.5 21t-20.5 34q-4 9 -4 24q0 31 24 55l212 214q21 21 46 24q2 1 9 1h9q6 0 7 -1q23 -3 46 -24l212 -214q25 -25 25 -56q0 -11 -4 -23q-7 -19 -22 -34t-33 -21q-9 -4 -25 -4q-31 0 -55 24l-157 157l-156 -157q-24 -24 -55 -24q-16 0 -25 4zM535 0
q-42 0 -70.5 28t-28.5 70v433l-391 579q-24 28 -24 65q0 45 35 77q29 25 69 25q42 0 71 -35l339 -514l337 516q28 34 74 34q34 0 63 -24q37 -31 37 -76q0 -36 -25 -67l-386 -579v-434q0 -42 -29 -70t-71 -28z" />
    <glyph glyph-name="ycircumflex" unicode="&#x177;" horiz-adv-x="917" 
d="M196 1063q-19 6 -33.5 21t-20.5 34q-4 9 -4 25q0 30 24 54l212 214q21 21 46 24q2 1 9 1h9q6 0 7 -1q23 -3 46 -24l212 -214q25 -25 25 -56q0 -24 -17.5 -47t-41.5 -31q-9 -4 -25 -4q-31 0 -55 24l-157 157l-156 -157q-24 -24 -56 -24q-9 0 -24 4zM294 -352q-20 0 -39 9
q-52 24 -52 80q0 25 12 51l136 306l-320 707q-9 19 -9 42q0 19 6 35q13 36 53 56q19 9 39 9q41 0 69 -28q14 -14 23 -33l244 -553l248 553q20 40 56 53q14 7 37 7q39 0 71 -32q28 -28 28 -71q-1 -18 -10 -39l-498 -1092q-20 -40 -56 -53q-15 -7 -38 -7z" />
    <glyph glyph-name="Ydieresis" unicode="&#x178;" horiz-adv-x="1075" 
d="M411 1351q-47 0 -79 32t-32 79t32 79q33 33 79 33t79 -33t33 -79t-33 -79q-32 -32 -79 -32zM780 1351q-46 0 -78 32q-33 33 -33 79t33 79t78 33q47 0 80 -33q32 -32 32 -79t-32 -79t-80 -32zM535 0q-42 0 -70.5 28t-28.5 70v433l-391 579q-24 28 -24 65q0 45 35 77
q29 25 69 25q42 0 71 -35l339 -514l337 516q28 34 74 34q34 0 63 -24q37 -31 37 -76q0 -36 -25 -67l-386 -579v-434q0 -42 -29 -70t-71 -28z" />
    <glyph glyph-name="Zacute" unicode="&#x179;" horiz-adv-x="1193" 
d="M561 1428q-30 30 -30 70q0 42 30 72l133 134q30 30 72 30q39 0 71 -29q30 -30 30 -71q0 -40 -30 -70l-135 -136q-30 -30 -71 -30q-40 0 -70 30zM152 0l-11 -1q-34 0 -63 26q-34 31 -34 77q0 38 23 63l760 916h-669q-42 0 -70.5 28.5t-28.5 70.5t30 71q32 29 72 29h876
q30 -2 54 -18l13 -9q34 -31 34 -74q0 -37 -25 -66l-759 -914h698q42 0 70 -29t28 -71t-28 -70.5t-70 -28.5h-900z" />
    <glyph glyph-name="zacute" unicode="&#x17a;" horiz-adv-x="1008" 
d="M460 1095q-30 30 -30 70q0 42 30 72l133 134q30 30 72 30q39 0 71 -29q30 -30 30 -71q0 -40 -30 -70l-135 -136q-30 -30 -71 -30q-40 0 -70 30zM865 0h-722q-59 0 -86 50q-14 23 -14 48q0 39 30 69l558 579h-480q-42 0 -70.5 28t-28.5 70t28.5 70t70.5 28h695q1 0 19 -2
q33 -5 55 -33q20 -23 23 -50q0 -4 1 -5v-6v-4q-2 -41 -28 -67l-2 -2l-559 -579h510q43 0 71.5 -27t28.5 -68q0 -42 -28 -70q-29 -29 -72 -29z" />
    <glyph glyph-name="Zdotaccent" unicode="&#x17b;" horiz-adv-x="1193" 
d="M623 1383q-48 0 -83 35t-35 84t35 84t83 35q49 0 84 -35t35 -84t-35 -84t-84 -35zM152 0l-11 -1q-34 0 -63 26q-34 31 -34 77q0 38 23 63l760 916h-669q-42 0 -70.5 28.5t-28.5 70.5t30 71q32 29 72 29h876q30 -2 54 -18l13 -9q34 -31 34 -74q0 -37 -25 -66l-759 -914
h698q42 0 70 -29t28 -71t-28 -70.5t-70 -28.5h-900z" />
    <glyph glyph-name="zdotaccent" unicode="&#x17c;" horiz-adv-x="1008" 
d="M514 1071q-48 0 -83 35t-35 84t35 84t83 35q49 0 84 -35t35 -84t-35 -84t-84 -35zM865 0h-722q-59 0 -86 50q-14 23 -14 48q0 39 30 69l558 579h-480q-42 0 -70.5 28t-28.5 70t28.5 70t70.5 28h695q1 0 19 -2q33 -5 55 -33q20 -23 23 -50q0 -4 1 -5v-6v-4q-2 -41 -28 -67
l-2 -2l-559 -579h510q43 0 71.5 -27t28.5 -68q0 -42 -28 -70q-29 -29 -72 -29z" />
    <glyph glyph-name="Zcaron" unicode="&#x17d;" horiz-adv-x="1193" 
d="M651 1399h-9q-7 0 -9 1q-25 3 -46 24l-212 214q-24 24 -24 55q0 16 4 25q14 40 54 54q15 4 24 4q32 0 56 -24l156 -157l157 157q24 24 56 24q9 0 24 -4q18 -6 33 -21t22 -33q4 -12 4 -24q0 -31 -25 -56l-212 -214q-23 -21 -46 -24q-1 -1 -7 -1zM152 0l-11 -1
q-34 0 -63 26q-34 31 -34 77q0 38 23 63l760 916h-669q-42 0 -70.5 28.5t-28.5 70.5t30 71q32 29 72 29h876q30 -2 54 -18l13 -9q34 -31 34 -74q0 -37 -25 -66l-759 -914h698q42 0 70 -29t28 -71t-28 -70.5t-70 -28.5h-900z" />
    <glyph glyph-name="zcaron" unicode="&#x17e;" horiz-adv-x="1008" 
d="M538 1058h-9q-7 0 -9 1q-25 3 -46 24l-212 214q-24 24 -24 55q0 16 4 25q6 18 21 33t33 21q15 4 24 4q32 0 56 -24l156 -157l157 157q24 24 56 24q9 0 24 -4q18 -6 33 -21t22 -33q4 -12 4 -24q0 -31 -25 -56l-212 -214q-23 -21 -46 -24q-1 -1 -7 -1zM865 0h-722
q-59 0 -86 50q-14 23 -14 48q0 39 30 69l558 579h-480q-42 0 -70.5 28t-28.5 70t28.5 70t70.5 28h695q1 0 19 -2q33 -5 55 -33q20 -23 23 -50q0 -4 1 -5v-6v-4q-2 -41 -28 -67l-2 -2l-559 -579h510q43 0 71.5 -27t28.5 -68q0 -42 -28 -70q-29 -29 -72 -29z" />
    <glyph glyph-name="longs" unicode="&#x17f;" horiz-adv-x="1667" 
 />
    <glyph glyph-name="florin" unicode="&#x192;" horiz-adv-x="702" 
d="M447 940h92q43 0 72 -28t29 -70q0 -43 -29 -72t-72 -29h-92v-639q0 -42 -29 -71q-30 -30 -70 -30t-70 30t-30 71v639h-66q-42 0 -70 30q-29 32 -29 71q0 42 28.5 70t70.5 28h66v52v4q1 135 92 224q87 84 226 84q44 0 72.5 -26t28.5 -68q0 -40 -29 -69t-72 -29
q-52 0 -85 -35q-34 -35 -34 -85v-52z" />
    <glyph glyph-name="AEacute" unicode="&#x1fc;" horiz-adv-x="1614" 
d="M1021 1419q-30 30 -30 70q0 42 30 72l133 134q30 30 72 30q39 0 71 -29q30 -30 30 -71q0 -40 -30 -70l-135 -136q-30 -30 -71 -30q-40 0 -70 30zM124 -3q-35 0 -63 22q-40 30 -40 80q0 34 23 62l831 1073q27 40 76 45q2 0 3 1h2h500q43 0 73 -30t30 -73q0 -42 -30 -72
q-28 -31 -73 -31h-393v-360h253q45 0 72 -29q29 -32 29 -72q0 -43 -29 -73t-72 -30l-253 -2v-304l391 -1q42 0 72 -30t30 -72q0 -43 -30 -72q-32 -30 -72 -29h-498q-40 2 -69 31t-29 70v151h-486l-167 -215q-34 -40 -81 -40zM531 456h327v421z" />
    <glyph glyph-name="aeacute" unicode="&#x1fd;" horiz-adv-x="1811" 
d="M931 1090q-30 30 -30 70q0 42 30 72l133 134q30 30 72 30q39 0 71 -29q30 -30 30 -71q0 -40 -30 -70l-135 -136q-30 -30 -71 -30q-40 0 -70 30zM1282 -13q-159 0 -288 95q-7 -36 -34.5 -59t-65.5 -23q-39 0 -66 26t-31 65q-127 -103 -277 -103q-96 0 -183 36.5
t-154 103.5q-140 140 -140 337t140 337q67 67 154 103.5t183 36.5q111 0 208.5 -48t164.5 -133q69 93 170.5 144.5t218.5 51.5q199 0 341 -140q143 -143 145 -340q0 -42 -27 -68.5t-71 -26.5h-651q24 -88 97 -145q74 -57 166 -57q116 0 184 74q31 25 67 25q17 0 33 -6
q30 -11 48 -42q17 -28 17 -55q0 -45 -38 -77q-55 -52 -121 -78q-83 -34 -190 -34zM1013 548h550q-22 95 -97 156q-77 61 -180 61q-100 0 -178 -63q-75 -61 -95 -154zM520 188q115 0 197 82q80 80 80 195q0 116 -80 196t-197 80q-115 0 -195 -80q-82 -82 -82 -196
q0 -113 82 -195t195 -82z" />
    <glyph glyph-name="Oslashacute" unicode="&#x1fe;" horiz-adv-x="1386" 
d="M691 1426q-30 30 -30 70q0 42 30 72l133 134q30 30 72 30q39 0 71 -29q30 -30 30 -71q0 -40 -30 -70l-135 -136q-30 -30 -71 -30q-40 0 -70 30zM693 -12q-202 0 -364 111l-59 -63q-32 -35 -77 -35q-40 0 -65 23q-35 29 -35 78q0 39 23 64l65 70q-138 174 -138 402
q0 178 88 329q86 147 233 233q151 89 329 89q198 0 367 -115l60 64q33 36 78 36q35 0 66 -25q35 -29 35 -73q0 -37 -24 -67l-69 -73q136 -177 136 -398q0 -131 -49.5 -249t-139.5 -210q-90 -91 -209.5 -141t-250.5 -50zM323 388l594 633q-101 61 -224 61q-90 0 -172 -34.5
t-143 -95.5t-95.5 -143t-34.5 -171q0 -138 75 -250zM693 193q187 0 314 130q61 61 95 143t34 172q0 136 -73 245l-592 -632q101 -58 222 -58z" />
    <glyph glyph-name="oslashacute" unicode="&#x1ff;" 
d="M541 1108q-30 30 -30 70q0 42 30 72l133 134q30 30 72 30q39 0 71 -29q30 -30 30 -71q0 -40 -30 -70l-135 -136q-30 -30 -71 -30q-40 0 -70 30zM267 -59q-11 -4 -28 -4q-25 0 -48 12q-36 19 -47 62q-3 12 -3 25q0 29 13 51l28 42q-139 139 -139 336t140 337
q67 67 154 103.5t183 36.5q99 0 182 -37l9 13q20 36 61 48q15 4 26 4q26 0 51 -13q36 -23 46 -61q3 -12 3 -25q0 -29 -13 -51l-19 -28q130 -139 130 -327q0 -196 -139 -337q-67 -67 -154 -103.5t-183 -36.5q-91 0 -171 31l-21 -31q-23 -37 -61 -47zM297 300l290 433
q-40 8 -67 8q-115 0 -195 -80q-82 -82 -82 -196q0 -91 54 -165zM520 188q115 0 197 82q80 80 80 195q0 83 -47 154l-285 -426q35 -5 55 -5z" />
    <glyph glyph-name="Scommaaccent" unicode="&#x218;" horiz-adv-x="1003" 
d="M503 -13q-146 0 -269 73q-118 68 -166 174q-13 26 -13 53q0 14 5 32q10 31 47 52q23 13 44 13q44 0 92 -60q87 -138 268 -138q98 0 164 48q76 52 76 136q0 82 -77 126q-42 24 -135 47l-26 7q-197 37 -304 121q-124 97 -124 249q0 159 129 267q124 102 291 102
q120 0 223 -47q106 -51 159 -140q11 -19 11 -38q0 -3 -2 -19q-8 -28 -27 -47q-24 -24 -65 -24q-36 0 -59 18q-63 55 -105 74q-56 24 -132 24q-94 0 -156 -45q-67 -45 -67 -123t87 -122q59 -29 203 -59q172 -45 258 -115q116 -93 116 -245q0 -166 -129 -281
q-132 -113 -317 -113zM521 -535q-42 0 -71 28.5t-29 70.5v277q0 42 29.5 70t71.5 28q41 0 68.5 -28t27.5 -70v-277q0 -41 -28 -70q-27 -29 -69 -29z" />
    <glyph glyph-name="scommaaccent" unicode="&#x219;" horiz-adv-x="781" 
d="M395 -11q-107 0 -194 40q-103 45 -148 129q-15 27 -15 55q0 26 12 44q25 44 80 44q52 0 89 -47q33 -48 73 -69t102 -21q57 0 100 27q44 26 44 73q0 30 -16 49q-29 37 -92 56l-54 17q-149 52 -217 103q-98 71 -98 180q0 122 101 201q94 74 228 74q90 0 170 -33
q89 -38 121 -101q11 -22 11 -44q0 -31 -22 -54q-27 -30 -65 -30q-19 0 -33 7l-40 30q-33 22 -38 25q-43 25 -90 25q-65 0 -104 -24.5t-39 -69.5q0 -43 49 -74q39 -23 121 -48q148 -46 210 -95q90 -70 90 -186q0 -119 -96 -201t-240 -82zM385 -524q-42 0 -71 28.5t-29 70.5
v277q0 42 29.5 70t71.5 28q41 0 68.5 -28t27.5 -70v-277q0 -41 -28 -70q-27 -29 -69 -29z" />
    <glyph glyph-name="uni021A" unicode="&#x21a;" horiz-adv-x="1091" 
d="M545 0q-42 0 -68.5 28t-26.5 70v984h-323q-42 0 -70.5 28.5t-28.5 70.5t28.5 70.5t70.5 28.5h842q42 0 71 -29t29 -71t-29 -70t-71 -28h-324v-984q0 -42 -29 -70t-71 -28zM544 -565q-43 0 -72 29.5t-29 73.5v279q0 43 30 74q28 30 71 30q44 0 71 -29.5t27 -74.5v-279
q0 -45 -27 -74t-71 -29z" />
    <glyph glyph-name="uni021B" unicode="&#x21b;" horiz-adv-x="587" 
d="M652 -12q-199 0 -338 137q-67 66 -103.5 152.5t-36.5 182.5v659q0 41 30 72q28 30 70 30q41 0 73 -29q31 -31 31 -73v-176h361q42 0 71 -29t29 -71q0 -41 -29 -68q-29 -28 -71 -28h-361v-288q0 -114 79 -193t195 -79q104 0 177 63q20 20 41 27q16 6 35 6q33 0 61 -24
q29 -27 29 -69q0 -48 -37 -85q-123 -117 -306 -117zM268 -484q-42 0 -71 30q-30 32 -30 74v279q0 43 30 74q29 30 71 30q44 0 71 -29.5t27 -74.5v-279q0 -45 -27 -74.5t-71 -29.5z" />
    <glyph glyph-name="uni0237" unicode="&#x237;" horiz-adv-x="461" 
d="M2 -299h-5q-42 0 -71 29q-30 30 -30 70q0 43 29 72.5t72 29.5h5q53 0 91 38q37 37 37 90v810q0 46 30 73q32 29 71 29q42 0 71 -29t29 -73v-810q0 -10 -1 -12q-6 -135 -100 -224q-95 -93 -228 -93z" />
    <glyph glyph-name="circumflex" unicode="&#x2c6;" horiz-adv-x="730" 
d="M108 1131q-19 6 -33.5 21t-20.5 34q-4 9 -4 25q0 30 24 54l212 214q21 21 46 24q2 1 9 1h9q6 0 7 -1q23 -3 46 -24l212 -214q25 -25 25 -56q0 -24 -17.5 -47t-41.5 -31q-9 -4 -25 -4q-31 0 -55 24l-157 157l-156 -157q-24 -24 -56 -24q-9 0 -24 4z" />
    <glyph glyph-name="caron" unicode="&#x2c7;" horiz-adv-x="728" 
d="M345 1124h-9q-7 0 -9 1q-25 3 -46 24l-212 214q-24 24 -24 55q0 16 4 25q6 18 21 33t33 21q15 4 24 4q32 0 56 -24l156 -157l157 157q24 24 55 24q16 0 25 -4q18 -6 33 -21t22 -33q4 -12 4 -24q0 -31 -25 -56l-212 -214q-23 -21 -46 -24q-1 -1 -7 -1z" />
    <glyph glyph-name="uni02C9" unicode="&#x2c9;" horiz-adv-x="884" 
d="M730 1102h-576q-36 0 -61 28q-25 25 -25 62q0 38 24 63t62 25h576q36 0 61 -25t25 -63q0 -36 -26 -62q-25 -28 -60 -28z" />
    <glyph glyph-name="breve" unicode="&#x2d8;" horiz-adv-x="546" 
d="M256 1081q-94 0 -160 66t-66 159q0 29 20 49.5t48 20.5q29 0 49 -20.5t20 -49.5q0 -36 26 -62q25 -27 63 -27t64 27q26 26 26 62q0 29 19.5 49.5t48.5 20.5t48.5 -20.5t19.5 -49.5q0 -90 -66 -159q-66 -66 -160 -66z" />
    <glyph glyph-name="dotaccent" unicode="&#x2d9;" horiz-adv-x="382" 
d="M168 1093q-48 0 -83 35t-35 84t35 84t83 35q49 0 84 -35t35 -84t-35 -84t-84 -35z" />
    <glyph glyph-name="ring" unicode="&#x2da;" horiz-adv-x="474" 
d="M215 1063q-88 0 -151 65q-63 63 -63 151q0 89 63 152q62 62 151 62t153 -62q62 -62 62 -152q0 -89 -62 -151q-65 -65 -153 -65zM216 1202q32 0 54.5 22.5t22.5 54.5t-22.5 55t-54.5 23t-54.5 -23t-22.5 -55t22.5 -54.5t54.5 -22.5z" />
    <glyph glyph-name="ogonek" unicode="&#x2db;" horiz-adv-x="472" 
d="M167 -537q-90 0 -152 64q-63 61 -63 153q0 94 65 157q1 0 1 1h1l134 133q10 10 30 10q12 0 15 -1q22 -6 44 -23q15 -15 15 -36t-16 -40l-134 -132l-8 -6q-24 -25 -24 -62q0 -36 26 -62q25 -27 63 -27t64 25.5t26 63.5q0 27 18.5 45t47.5 18q26 0 45 -18.5t19 -44.5v-6
q-2 -87 -65 -150q-62 -62 -152 -62z" />
    <glyph glyph-name="tilde" unicode="&#x2dc;" horiz-adv-x="806" 
d="M517 1090q-68 0 -151 62l-18 14q-21 16 -50 27q-17 5 -27 5q-49 0 -94 -58q-8 -13 -13 -18q-24 -24 -57 -24t-56 23q-24 23 -24 57q-2 32 22 56q24 37 73 74q67 52 142 52q74 0 149 -58l20 -15q23 -18 52 -29q13 -6 27 -6q48 0 96 62q9 12 10 13q23 23 56 23t56.5 -23
t24.5 -55q0 -30 -23 -56q-20 -35 -72 -74q-68 -52 -143 -52z" />
    <glyph glyph-name="hungarumlaut" unicode="&#x2dd;" horiz-adv-x="896" 
d="M200 1403q-36 0 -60 26q-26 24 -26 61q0 35 26 61l122 123q26 26 62 26q35 0 60 -25q27 -27 27 -61t-27 -61l-123 -124q-26 -26 -61 -26zM570 1403q-37 0 -61 26q-26 24 -26 61q0 35 26 61l122 123q26 26 63 26q34 0 59 -25q27 -27 27 -61q0 -35 -26 -61l-123 -124
q-26 -26 -61 -26z" />
    <glyph glyph-name="uni0326" unicode="&#x326;" horiz-adv-x="0" 
d="M-262 -661q-42 0 -71 28.5t-29 70.5v277q0 42 29.5 70t71.5 28q41 0 68.5 -28t27.5 -70v-277q0 -41 -28 -70q-27 -29 -69 -29z" />
    <glyph glyph-name="uni037E" unicode="&#x37e;" horiz-adv-x="444" 
d="M189 -2q-43 0 -71 30q-30 31 -30 73v279q0 42 30 74q28 30 71 30q44 0 71 -29.5t27 -74.5v-279q0 -45 -27 -74t-71 -29z" />
    <glyph glyph-name="tonos" unicode="&#x384;" horiz-adv-x="394" 
d="M164 1018q-42 0 -71 28t-29 70v196q0 42 29 71t71 29t70 -29t28 -71v-196q0 -40 -29 -69t-69 -29z" />
    <glyph glyph-name="dieresistonos" unicode="&#x385;" horiz-adv-x="1012" 
d="M470 1181q-42 0 -71 28t-29 70v196q0 42 29 71t71 29t70 -29t28 -71v-196q0 -40 -29 -69t-69 -29zM190 1087q-48 0 -83 35t-35 84t35 84t83 35q49 0 84 -35t35 -84t-35 -84t-84 -35zM753 1087q-48 0 -83 35t-35 84t35 84t83 35q49 0 84 -35t35 -84t-35 -84t-84 -35z" />
    <glyph glyph-name="Alphatonos" unicode="&#x386;" horiz-adv-x="1177" 
d="M588 1399q-42 0 -71 28t-29 70v196q0 42 29 71t71 29t70 -29t28 -71v-196q0 -40 -29 -69t-69 -29zM1024 6q-37 13 -57 53l-125 297h-507l-123 -296q-16 -40 -55 -53q-18 -7 -36 -7q-22 0 -43 9q-56 25 -56 85q0 26 10 46l469 1079q27 61 91 61q65 0 90 -60l464 -1080
q10 -20 10 -46q0 -60 -55 -85q-19 -9 -42 -9q-19 0 -35 6zM418 555h340l-171 407z" />
    <glyph glyph-name="anoteleia" unicode="&#x387;" horiz-adv-x="414" 
d="M177 391q-47 0 -78 34q-33 33 -33 79t33 79t78 33q48 0 81 -33t33 -79t-33 -79q-32 -34 -81 -34z" />
    <glyph glyph-name="Epsilontonos" unicode="&#x388;" horiz-adv-x="912" 
d="M592 1386q-42 0 -71 28t-29 70v196q0 42 29 71t71 29t70 -29t28 -71v-196q0 -40 -29 -69t-69 -29zM764 0h-542q-40 3 -66 30.5t-26 68.5v1081q0 42 29 71t71 29h534q41 0 70 -29q28 -28 28 -71q0 -42 -28 -70.5t-70 -28.5h-435v-346h314q42 2 71 -27q28 -28 28 -71
q0 -42 -28.5 -69t-70.5 -27h-314v-343h435q42 0 70 -29t28 -71t-28 -70q-30 -30 -70 -28z" />
    <glyph glyph-name="Etatonos" unicode="&#x389;" horiz-adv-x="1204" 
d="M678 1315q-42 0 -71 28t-29 70v196q0 42 29 71t71 29t70 -29t28 -71v-196q0 -40 -29 -69t-69 -29zM229 0q-42 0 -70.5 28t-28.5 70v1084q0 42 28.5 70t70.5 28t71 -28t29 -70v-445h546v445q0 42 29.5 70t71.5 28t70 -28t28 -70v-1084q0 -42 -29 -70t-71 -28t-70.5 28
t-28.5 70v440h-546v-440q0 -42 -29 -70t-71 -28z" />
    <glyph glyph-name="Iotatonos" unicode="&#x38a;" horiz-adv-x="459" 
d="M228 1385q-42 0 -71 28t-29 70v196q0 42 29 71t71 29t70 -29t28 -71v-196q0 -40 -29 -69t-69 -29zM229 0q-42 0 -70.5 28t-28.5 70v1084q0 42 28.5 70t70.5 28t71 -28t29 -70v-1084q0 -42 -29 -70t-71 -28z" />
    <glyph glyph-name="Omicrontonos" unicode="&#x38c;" horiz-adv-x="1386" 
d="M708 1389q-42 0 -71 28t-29 70v196q0 42 29 71t71 29t70 -29t28 -71v-196q0 -40 -29 -69t-69 -29zM691 -12q-131 0 -250 50t-209 141q-91 91 -140 209.5t-49 249.5q0 178 88 329q86 148 232 233q154 89 328 89q178 0 329 -89q149 -87 234 -233q89 -155 89 -329
q0 -131 -50 -249.5t-141 -209.5t-210.5 -141t-250.5 -50zM692 187q189 0 320 131t131 320q0 90 -34 172.5t-97 145.5q-132 132 -320 132q-92 0 -174.5 -34.5t-143.5 -97.5q-63 -63 -97 -145.5t-34 -172.5q0 -189 131 -320q61 -63 143.5 -97t174.5 -34z" />
    <glyph glyph-name="Upsilontonos" unicode="&#x38e;" horiz-adv-x="1060" 
d="M535 1346q-42 0 -71 28t-29 70v196q0 42 29 71t71 29t70 -29t28 -71v-196q0 -40 -29 -69t-69 -29zM593 0q-42 0 -70.5 28t-28.5 70v433l-391 579q-24 28 -24 65q0 45 35 77q29 25 69 25q42 0 71 -35l339 -514l337 516q28 34 74 34q34 0 63 -24q37 -31 37 -76
q0 -36 -25 -67l-386 -579v-434q0 -42 -29 -70t-71 -28z" />
    <glyph glyph-name="Omegatonos" unicode="&#x38f;" horiz-adv-x="1285" 
d="M462 0l-195 3q-41 -1 -71 29t-30 72q0 40 30 72q28 30 71 30l104 -1v43q-122 78 -189 199q-71 127 -71 273q0 116 43.5 219.5t123.5 183.5q79 79 183.5 122.5t220.5 43.5q115 0 218.5 -43.5t182.5 -122.5q164 -166 164 -403q0 -147 -70 -274q-70 -124 -188 -199v-42
l102 1q43 0 73 -30t30 -72q0 -44 -30 -72q-32 -31 -73 -29l-195 -3h-5q-20 0 -29 4q-1 0 -2 1q-3 1 -5 1q-30 11 -48 37t-18 58v228q0 65 54 91v1q94 37 148 115q57 82 57 198q0 138 -105 245q-110 112 -261 112q-152 0 -263 -111q-110 -108 -110 -246q0 -112 57 -193
q53 -76 137 -114q31 -10 49 -36t18 -62v-228q0 -31 -16 -55.5t-43 -36.5h-2l-2 -1q-22 -8 -39 -8h-6zM13 889q-42 0 -71 28t-29 70v196q0 42 29 71t71 29t70 -29t28 -71v-196q0 -40 -29 -69t-69 -29z" />
    <glyph glyph-name="iotadieresistonos" unicode="&#x390;" horiz-adv-x="400" 
d="M210 1152q-42 0 -71 28t-29 70v196q0 42 29 71t71 29t70 -29t28 -71v-196q0 -40 -29 -69t-69 -29zM-70 1058q-48 0 -83 35t-35 84t35 84t83 35q49 0 84 -35t35 -84t-35 -84t-84 -35zM493 1058q-48 0 -83 35t-35 84t35 84t83 35q49 0 84 -35t35 -84t-35 -84t-84 -35z
M201 0q-39 0 -71 29q-30 28 -30 71v742q0 42 30 71q32 29 72 29q43 0 70 -29q28 -29 28 -71v-742q0 -43 -28 -71q-29 -29 -71 -29z" />
    <glyph glyph-name="Alpha" unicode="&#x391;" horiz-adv-x="1177" 
d="M1024 6q-37 13 -57 53l-125 297h-507l-123 -296q-16 -40 -55 -53q-18 -7 -36 -7q-22 0 -43 9q-56 25 -56 85q0 26 10 46l469 1079q27 61 91 61q65 0 90 -60l464 -1080q10 -20 10 -46q0 -60 -55 -85q-19 -9 -42 -9q-19 0 -35 6zM418 555h340l-171 407z" />
    <glyph glyph-name="Beta" unicode="&#x392;" 
d="M594 0h-365q-42 0 -70.5 28t-28.5 70v1084q0 42 28.5 70t70.5 28h352q144 0 248 -102q102 -104 102 -249q0 -146 -106 -249q74 -54 114.5 -132.5t40.5 -171.5q0 -160 -112 -267q-112 -109 -274 -109zM329 755h246q64 1 111 55q45 50 45 113t-48 111q-47 47 -113 47h-241
v-326zM329 199h258q79 0 137 58q57 57 57 133q0 80 -57 132q-59 53 -138 53h-257v-376z" />
    <glyph glyph-name="Gamma" unicode="&#x393;" horiz-adv-x="938" 
d="M232 -2q-42 0 -72 30t-30 73v1076q0 38 22.5 65.5t58.5 35.5q2 1 12 1q2 0 3 1h2h581q43 0 72 -30q29 -32 29 -73q0 -42 -29 -69.5t-72 -27.5h-480v-979q0 -43 -27.5 -73t-69.5 -30z" />
    <glyph glyph-name="Epsilon" unicode="&#x395;" horiz-adv-x="912" 
d="M764 0h-542q-40 3 -66 30.5t-26 68.5v1081q0 42 29 71t71 29h534q41 0 70 -29q28 -28 28 -71q0 -42 -28 -70.5t-70 -28.5h-435v-346h314q42 2 71 -27q28 -28 28 -71q0 -42 -28.5 -69t-70.5 -27h-314v-343h435q42 0 70 -29t28 -71t-28 -70q-30 -30 -70 -28z" />
    <glyph glyph-name="Zeta" unicode="&#x396;" horiz-adv-x="1193" 
d="M152 0l-11 -1q-34 0 -63 26q-34 31 -34 77q0 38 23 63l760 916h-669q-42 0 -70.5 28.5t-28.5 70.5t30 71q32 29 72 29h876q30 -2 54 -18l13 -9q34 -31 34 -74q0 -37 -25 -66l-759 -914h698q42 0 70 -29t28 -71t-28 -70.5t-70 -28.5h-900z" />
    <glyph glyph-name="Eta" unicode="&#x397;" horiz-adv-x="1204" 
d="M229 0q-42 0 -70.5 28t-28.5 70v1084q0 42 28.5 70t70.5 28t71 -28t29 -70v-445h546v445q0 42 29.5 70t71.5 28t70 -28t28 -70v-1084q0 -42 -29 -70t-71 -28t-70.5 28t-28.5 70v440h-546v-440q0 -42 -29 -70t-71 -28z" />
    <glyph glyph-name="Theta" unicode="&#x398;" horiz-adv-x="1386" 
d="M691 -12q-131 0 -250 50t-209 141q-91 91 -140 209.5t-49 249.5q0 178 88 329q86 148 232 233q154 89 328 89q178 0 329 -89q149 -87 234 -233q89 -155 89 -329q0 -131 -50 -249.5t-141 -209.5t-210.5 -141t-250.5 -50zM692 187q189 0 320 131t131 320q0 90 -34 172.5
t-97 145.5q-132 132 -320 132q-92 0 -174.5 -34.5t-143.5 -97.5q-63 -63 -97 -145.5t-34 -172.5q0 -189 131 -320q61 -63 143.5 -97t174.5 -34zM947 541h-511q-43 0 -72 27.5t-29 69.5q0 43 29 72.5t72 29.5h511q42 0 72 -30t30 -72t-29.5 -69.5t-72.5 -27.5z" />
    <glyph glyph-name="Iota" unicode="&#x399;" horiz-adv-x="459" 
d="M229 0q-42 0 -70.5 28t-28.5 70v1084q0 42 28.5 70t70.5 28t71 -28t29 -70v-1084q0 -42 -29 -70t-71 -28z" />
    <glyph glyph-name="Kappa" unicode="&#x39a;" horiz-adv-x="1100" 
d="M229 0q-42 0 -70.5 28t-28.5 70v1084q0 42 28.5 70t70.5 28t71 -28t29 -70v-439l542 509q28 28 71 28q38 -1 70 -33q28 -28 28 -70q0 -39 -31 -70l-376 -352l399 -600q18 -27 18 -57q0 -50 -45 -81q-25 -17 -54 -17q-2 0 -20 2q-40 6 -63 42l-384 573l-155 -146v-373
q0 -42 -29 -70t-71 -28z" />
    <glyph glyph-name="Lambda" unicode="&#x39b;" horiz-adv-x="1168" 
d="M122 0q-42 0 -73 33q-28 30 -27 70q0 18 8 40l459 1075q12 27 37.5 43t55.5 16q31 0 56.5 -16t37.5 -43l462 -1075q9 -21 9 -42q0 -18 -7 -36q-15 -40 -55 -56q-19 -9 -40 -9q-40 0 -71 28q-15 12 -23 33l-368 854l-366 -854q-18 -40 -56 -54q-17 -7 -39 -7z" />
    <glyph glyph-name="Mu" unicode="&#x39c;" horiz-adv-x="1417" 
d="M710 0q-63 0 -88 60l-304 744l-99 -718q-5 -38 -32 -61t-64 -23q-44 0 -73 28.5t-29 70.5q0 11 1 14l149 1072q5 33 28 56q30 34 73 34q15 0 39 -8q37 -15 54 -53l351 -858l349 858q28 60 90 60q21 0 38 -7l11 -6q49 -22 55 -76l139 -1075q1 -3 1 -13q0 -41 -29.5 -69.5
t-72.5 -28.5q-37 0 -65 24t-32 62l-92 712l-302 -739q-12 -27 -38.5 -43.5t-57.5 -16.5z" />
    <glyph glyph-name="Nu" unicode="&#x39d;" horiz-adv-x="1204" 
d="M229 0q-42 0 -70.5 28t-28.5 70v1081q0 42 28.5 70t70.5 28h1q8 0 16 -2l14 -3q17 -6 29 -15l11 -9q10 -10 18 -24l594 -830v788q0 42 29.5 70t71.5 28q45 0 70 -28q28 -29 28 -70v-1084q0 -33 -19.5 -59t-50.5 -35q-14 -4 -18 -4h-11q-35 0 -62 21q-15 11 -18 17
l-603 844v-784q0 -42 -29 -70t-71 -28z" />
    <glyph glyph-name="Xi" unicode="&#x39e;" horiz-adv-x="975" 
d="M830 1081h-685q-43 0 -72.5 27t-29.5 69t30 72q31 31 72 31h685q43 0 72 -30t29 -73q0 -42 -29 -69t-72 -27zM699 563h-425q-44 0 -72.5 25t-28.5 66q0 40 30 72q29 30 71 30h425q40 1 73 -28q30 -27 30 -73q0 -41 -29 -66.5t-74 -25.5zM831 0h-693q-41 0 -68 29.5
t-27 72.5q0 44 27 76q26 33 68 33h693q41 0 72 -33q29 -32 29 -77q0 -43 -29 -72q-31 -31 -72 -29z" />
    <glyph glyph-name="Omicron" unicode="&#x39f;" horiz-adv-x="1386" 
d="M691 -12q-131 0 -250 50t-209 141q-91 91 -140 209.5t-49 249.5q0 178 88 329q86 148 232 233q154 89 328 89q178 0 329 -89q149 -87 234 -233q89 -155 89 -329q0 -131 -50 -249.5t-141 -209.5t-210.5 -141t-250.5 -50zM692 187q189 0 320 131t131 320q0 90 -34 172.5
t-97 145.5q-132 132 -320 132q-92 0 -174.5 -34.5t-143.5 -97.5q-63 -63 -97 -145.5t-34 -172.5q0 -189 131 -320q61 -63 143.5 -97t174.5 -34z" />
    <glyph glyph-name="Pi" unicode="&#x3a0;" horiz-adv-x="1204" 
d="M232 0q-40 0 -72 30q-30 28 -30 71v1076q0 43 29 73t72 30h742q41 -1 71 -31q28 -29 28 -72v-1076q0 -42 -30 -71q-32 -30 -72 -30q-42 0 -70 29t-28 72v974h-543v-974q0 -43 -27.5 -72t-69.5 -29z" />
    <glyph glyph-name="Rho" unicode="&#x3a1;" horiz-adv-x="1002" 
d="M229 0q-42 0 -70.5 28t-28.5 70v1084q0 42 28.5 70t70.5 28h335q159 0 274 -110q112 -109 112 -269t-112 -267q-112 -109 -274 -109h-235v-427q0 -42 -29 -70t-71 -28zM329 724h236q77 0 132 55q54 51 54 127t-55 126q-56 51 -132 51h-235v-359z" />
    <glyph glyph-name="Sigma" unicode="&#x3a3;" horiz-adv-x="893" 
d="M766 0h-618q-45 0 -77 32q-27 25 -27 64q0 42 30 81l382 469l-380 458q-31 40 -31 82q0 37 26 63q29 29 68 30q5 0 7 1h6h614q43 0 72 -30t29 -73q0 -42 -26 -69t-68 -27h-420l300 -361l10 -15q19 -25 19 -56q0 -10 -1 -13q-2 -30 -17 -48q-6 -12 -11 -17l-298 -366h411
q43 0 72 -30t29 -73q0 -40 -29 -72q-28 -30 -72 -30z" />
    <glyph glyph-name="Tau" unicode="&#x3a4;" horiz-adv-x="972" 
d="M477 0q-42 0 -68.5 28t-26.5 70v984h-266q-42 0 -70 28.5t-28 70.5t28 70.5t70 28.5h728q42 0 70.5 -29t28.5 -71q0 -45 -28 -70q-29 -28 -71 -28h-267v-984q0 -42 -29 -70t-71 -28z" />
    <glyph glyph-name="Upsilon" unicode="&#x3a5;" horiz-adv-x="1075" 
d="M535 0q-42 0 -70.5 28t-28.5 70v433l-391 579q-24 28 -24 65q0 45 35 77q29 25 69 25q42 0 71 -35l339 -514l337 516q28 34 74 34q34 0 63 -24q37 -31 37 -76q0 -36 -25 -67l-386 -579v-434q0 -42 -29 -70t-71 -28z" />
    <glyph glyph-name="Phi" unicode="&#x3a6;" horiz-adv-x="1222" 
d="M607 -21q-41 0 -72 30q-30 29 -30 71v19q-200 37 -331 188q-132 152 -132 360t132 360q130 150 331 187v3q0 43 30 72q32 29 72 29q43 0 73 -29t30 -72v-1q205 -36 335 -186q134 -156 134 -363q0 -210 -134 -363q-132 -154 -335 -186v-18q0 -43 -30 -72t-73 -29zM710 987
v-682q117 30 191 123q75 94 75 219q0 124 -75 218q-73 91 -191 122zM505 307v678q-113 -31 -187 -123q-74 -94 -74 -215q0 -123 74 -217q74 -92 187 -123z" />
    <glyph glyph-name="Chi" unicode="&#x3a7;" horiz-adv-x="1231" 
d="M1080 0q-42 0 -73 33l-401 454l-398 -454q-30 -33 -74 -33q-38 0 -66 25q-34 31 -34 75q0 37 25 65l415 472l-416 473q-24 26 -24 64q0 46 33 78q28 25 65 25q43 0 75 -35l399 -454l399 454q31 34 75 34q39 0 64 -25q34 -31 34 -77q0 -40 -25 -65l-414 -472l416 -472
q26 -28 26 -68q0 -45 -33 -72q-28 -25 -68 -25z" />
    <glyph glyph-name="Psi" unicode="&#x3a8;" horiz-adv-x="1239" 
d="M623 0q-41 0 -72 30q-30 28 -30 71v289q-182 6 -308 137q-126 128 -126 312v340q0 43 30 72q32 29 72 29q44 0 70.5 -28t26.5 -73v-344q0 -98 69 -167q70 -70 166 -76v587q0 44 31 72q32 29 73 29q42 0 68.5 -29t26.5 -72v-587q104 6 168 80q63 75 65 178v329
q0 43 26.5 72t67.5 29q45 0 74 -29t29 -72v-340q0 -89 -32.5 -170t-92.5 -142q-125 -131 -305 -137v-289q0 -43 -27.5 -72t-69.5 -29z" />
    <glyph glyph-name="Iotadieresis" unicode="&#x3aa;" horiz-adv-x="459" 
d="M45 1397q-47 0 -79 32t-32 79t32 79q33 33 79 33t79 -33t33 -79t-33 -79q-32 -32 -79 -32zM414 1397q-46 0 -78 32q-33 33 -33 79t33 79t78 33q47 0 80 -33q32 -32 32 -79t-32 -79t-80 -32zM229 0q-42 0 -70.5 28t-28.5 70v1084q0 42 28.5 70t70.5 28t71 -28t29 -70
v-1084q0 -42 -29 -70t-71 -28z" />
    <glyph glyph-name="Upsilondieresis" unicode="&#x3ab;" horiz-adv-x="1075" 
d="M329 1381q-47 0 -79 32t-32 79t32 79q33 33 79 33t79 -33t33 -79t-33 -79q-32 -32 -79 -32zM698 1381q-46 0 -78 32q-33 33 -33 79t33 79t78 33q47 0 80 -33q32 -32 32 -79t-32 -79t-80 -32zM535 0q-42 0 -70.5 28t-28.5 70v433l-391 579q-24 28 -24 65q0 45 35 77
q29 25 69 25q42 0 71 -35l339 -514l337 516q28 34 74 34q34 0 63 -24q37 -31 37 -76q0 -36 -25 -67l-386 -579v-434q0 -42 -29 -70t-71 -28z" />
    <glyph glyph-name="alphatonos" unicode="&#x3ac;" horiz-adv-x="1095" 
d="M533 1083q-42 0 -71 28t-29 70v196q0 42 29 71t71 29t70 -29t28 -71v-196q0 -40 -29 -69t-69 -29zM520 -12q-96 0 -183 36.5t-154 103.5q-140 140 -140 337t140 337q67 67 154 103.5t183 36.5q197 0 335 -138q139 -139 141 -335v-367q0 -40 -29 -72q-27 -30 -73 -30
q-39 0 -66 26t-31 65q-127 -103 -277 -103zM520 188q115 0 197 82q80 80 80 195q0 116 -80 196t-197 80q-115 0 -195 -80q-82 -82 -82 -196q0 -113 82 -195t195 -82z" />
    <glyph glyph-name="epsilontonos" unicode="&#x3ad;" horiz-adv-x="748" 
d="M426 1068q-42 0 -71 28t-29 70v196q0 42 29 71t71 29t70 -29t28 -71v-196q0 -40 -29 -69t-69 -29zM592 0h-272q-114 0 -195 83q-82 84 -82 197q0 100 92 192q-92 84 -92 188q0 117 83 200q81 81 199 81h267q43 0 71 -28q29 -29 29 -71t-29 -71t-71 -29h-249
q-41 -1 -67.5 -24t-26.5 -61t25 -61t66 -25h165q44 0 73 -26t29 -67t-29.5 -67.5t-72.5 -26.5h-163q-37 0 -63 -28q-28 -28 -28 -65q0 -39 27 -64q25 -28 65 -28h249q42 0 71 -28t29 -70t-29 -71q-30 -30 -71 -30z" />
    <glyph glyph-name="etatonos" unicode="&#x3ae;" horiz-adv-x="1035" 
d="M555 1085q-42 0 -71 28t-29 70v196q0 42 29 71t71 29t70 -29t28 -71v-196q0 -40 -29 -69t-69 -29zM837 -340q-40 0 -71 28q-30 27 -30 70v721q0 117 -54 187q-59 78 -163 78q-105 0 -164 -76q-56 -73 -56 -186v-386q0 -42 -27.5 -70t-69.5 -28q-40 0 -72 29
q-30 29 -30 69v387q0 195 114 326q118 134 305 134q185 0 301 -133q112 -130 114 -322v-730q0 -42 -27.5 -70t-69.5 -28z" />
    <glyph glyph-name="iotatonos" unicode="&#x3af;" horiz-adv-x="400" 
d="M201 1065q-42 0 -71 28t-29 70v196q0 42 29 71t71 29t70 -29t28 -71v-196q0 -40 -29 -69t-69 -29zM201 0q-39 0 -71 29q-30 28 -30 71v742q0 42 30 71q32 29 72 29q43 0 70 -29q28 -29 28 -71v-742q0 -43 -28 -71q-29 -29 -71 -29z" />
    <glyph glyph-name="upsilondieresistonos" unicode="&#x3b0;" horiz-adv-x="1034" 
d="M548 1153q-42 0 -71 28t-29 70v196q0 42 29 71t71 29t70 -29t28 -71v-196q0 -40 -29 -69t-69 -29zM268 1059q-48 0 -83 35t-35 84t35 84t83 35q49 0 84 -35t35 -84t-35 -84t-84 -35zM831 1059q-48 0 -83 35t-35 84t35 84t83 35q49 0 84 -35t35 -84t-35 -84t-84 -35z
M540 -12q-87 0 -167.5 32.5t-141.5 90.5q-128 122 -139 298q-1 2 -1 13v419q0 43 30 72t73 29q42 0 69 -29t27 -72v-410q0 -102 74 -173q72 -72 176 -72q103 0 176 73q72 72 74 174v408q0 43 27.5 72.5t69.5 29.5q40 0 72 -29q30 -27 30 -73v-414v-4q-1 -1 -1 -5
q-6 -176 -136 -304q-131 -126 -312 -126z" />
    <glyph glyph-name="alpha" unicode="&#x3b1;" horiz-adv-x="1095" 
d="M520 -12q-96 0 -183 36.5t-154 103.5q-140 140 -140 337t140 337q67 67 154 103.5t183 36.5q197 0 335 -138q139 -139 141 -335v-367q0 -40 -29 -72q-27 -30 -73 -30q-39 0 -66 26t-31 65q-127 -103 -277 -103zM520 188q115 0 197 82q80 80 80 195q0 116 -80 196t-197 80
q-115 0 -195 -80q-82 -82 -82 -196q0 -113 82 -195t195 -82z" />
    <glyph glyph-name="beta" unicode="&#x3b2;" horiz-adv-x="944" 
d="M238 -269q-42 0 -72 30t-30 72v1060q0 175 107 282q105 110 276 110q144 0 251 -97q106 -100 106 -243q0 -80 -30.5 -148.5t-85.5 -113.5q87 -43 138 -126q52 -83 52 -187q0 -144 -96 -248q-108 -116 -271 -122h-4q-41 0 -69.5 28.5t-28.5 69.5t28.5 69.5t69.5 28.5h5
q69 0 122 56q50 55 50 129q0 75 -54 126q-52 44 -122 44h-25q-45 0 -77 32t-32 77q0 46 32 78t77 32h4q59 1 96 55q33 49 33 114q0 66 -49 109q-49 45 -120 45q-75 0 -122 -44q-54 -52 -56 -153v-1063q0 -42 -30 -72t-73 -30z" />
    <glyph glyph-name="gamma" unicode="&#x3b3;" horiz-adv-x="960" 
d="M479 -340q-41 0 -71 30t-30 70v318l-332 725q-8 22 -8 40q0 41 29 70q30 30 73 30q40 0 69 -29q14 -14 22 -33l249 -562l248 562q19 40 56 55q14 7 37 7q45 0 72 -30q28 -29 28 -70q0 -18 -8 -40l-334 -729v-314q0 -42 -29 -71t-71 -29z" />
    <glyph glyph-name="delta" unicode="&#x3b4;" 
d="M520 -12q-96 0 -183 36.5t-154 103.5q-140 140 -140 337q0 183 124 320q58 64 136.5 104.5t165.5 49.5l-171 189q-18 24 -19 53v12q0 38 27.5 63t67.5 25h514q41 0 68.5 -26.5t27.5 -65.5q0 -41 -27.5 -69.5t-68.5 -28.5h-303l268 -285l6 -7q137 -140 137 -334
q0 -196 -139 -337q-67 -67 -154 -103.5t-183 -36.5zM520 188q115 0 197 82q80 80 80 195q0 116 -80 196t-197 80q-115 0 -195 -80q-82 -82 -82 -196q0 -113 82 -195t195 -82z" />
    <glyph glyph-name="epsilon" unicode="&#x3b5;" horiz-adv-x="748" 
d="M592 0h-272q-114 0 -195 83q-82 84 -82 197q0 100 92 192q-92 84 -92 188q0 117 83 200q81 81 199 81h267q43 0 71 -28q29 -29 29 -71t-29 -71t-71 -29h-249q-41 -1 -67.5 -24t-26.5 -61t25 -61t66 -25h165q44 0 73 -26t29 -67t-29.5 -67.5t-72.5 -26.5h-163
q-37 0 -63 -28q-28 -28 -28 -65q0 -39 27 -64q25 -28 65 -28h249q42 0 71 -28t29 -70t-29 -71q-30 -30 -71 -30z" />
    <glyph glyph-name="zeta" unicode="&#x3b6;" horiz-adv-x="899" 
d="M426 -391h-5q-40 1 -67.5 27.5t-27.5 63.5q0 39 28 65t68 26q47 0 79 32q33 31 33 73q0 52 -37 80q-33 24 -80 24h-38q-164 0 -252 104q-84 96 -84 235q0 59 23.5 119t62.5 102l3 3l433 518h-435q-43 0 -72.5 27t-29.5 69q0 41 30 73q28 30 72 30h645q42 0 72 -30t30 -73
q0 -28 -13 -47q-9 -16 -14 -21l-566 -673q-44 -51 -44 -100q0 -60 36 -99q40 -43 99 -43h40q136 0 218 -82q82 -80 82 -208q0 -125 -83 -208q-85 -85 -206 -87z" />
    <glyph glyph-name="eta" unicode="&#x3b7;" horiz-adv-x="1035" 
d="M837 -340q-40 0 -71 28q-30 27 -30 70v721q0 117 -54 187q-59 78 -163 78q-105 0 -164 -76q-56 -73 -56 -186v-386q0 -42 -27.5 -70t-69.5 -28q-40 0 -72 29q-30 29 -30 69v387q0 195 114 326q118 134 305 134q185 0 301 -133q112 -130 114 -322v-730q0 -42 -27.5 -70
t-69.5 -28z" />
    <glyph glyph-name="theta" unicode="&#x3b8;" 
d="M520 -12q-96 0 -183 36.5t-154 103.5q-140 140 -140 337t140 337q67 67 154 103.5t183 36.5t183 -36.5t154 -103.5q139 -141 139 -337t-139 -337q-67 -67 -154 -103.5t-183 -36.5zM258 556h524q-29 82 -99 133q-71 52 -163 52t-163 -52q-70 -51 -99 -133zM520 188
q91 0 161 52q70 49 99 131h-521q31 -82 100 -131q70 -52 161 -52z" />
    <glyph glyph-name="iota" unicode="&#x3b9;" horiz-adv-x="400" 
d="M201 0q-39 0 -71 29q-30 28 -30 71v742q0 42 30 71q32 29 72 29q43 0 70 -29q28 -29 28 -71v-742q0 -43 -28 -71q-29 -29 -71 -29z" />
    <glyph glyph-name="kappa" unicode="&#x3ba;" horiz-adv-x="965" 
d="M808 -1q-42 0 -72 32l-336 355l-71 -66v-220q0 -42 -29 -71t-71 -29t-70.5 29t-28.5 71v742q0 42 28.5 71t70.5 29t71 -29t29 -71v-250l347 323q32 27 70 27h76q42 0 71 -29t29 -71q0 -39 -29 -71q-29 -30 -71 -30h-38l-237 -219l334 -353q29 -29 29 -71q-1 -41 -31 -71
q-28 -28 -71 -28z" />
    <glyph glyph-name="lambda" unicode="&#x3bb;" horiz-adv-x="1006" 
d="M78 15q-36 24 -43 65q-2 18 -2 20q0 31 17 57l334 524l-273 434q-19 28 -19 61q0 13 1 16q4 42 40 65q26 18 59 18q14 0 17 -1q42 -7 65 -43l677 -1074q17 -26 17 -57q0 -15 -1 -19q-7 -42 -44 -66q-27 -18 -55 -18q-49 0 -80 44l-286 453l-289 -453q-31 -44 -79 -44
q-29 0 -56 18z" />
    <glyph glyph-name="uni03BC" unicode="&#x3bc;" horiz-adv-x="1080" 
d="M232 -338q-40 0 -72 29q-30 29 -30 69v1086q0 42 30 69q31 28 72 28q42 0 69.5 -27.5t27.5 -69.5v-387q0 -109 70 -185t180 -76q106 0 178 78q69 75 69 187v383q0 42 29.5 69.5t71.5 27.5t69.5 -27.5t27.5 -69.5v-387q0 -93 -33 -177t-94 -148q-130 -136 -318 -136
q-137 0 -250 76v-319q0 -41 -27.5 -67t-69.5 -26z" />
    <glyph glyph-name="nu" unicode="&#x3bd;" horiz-adv-x="939" 
d="M484 0q-34 -2 -62 14.5t-40 46.5l-340 741q-7 15 -7 37q0 19 8 41q17 39 54 54q22 8 39 8q38 0 70 -29q14 -14 22 -33l248 -562l248 562q19 40 56 55q14 7 37 7q45 0 72 -30q28 -29 28 -70q0 -18 -8 -40l-339 -741q-17 -35 -47 -51l-7 -3q-10 -4 -20 -6q-2 -1 -12 -1z
" />
    <glyph glyph-name="xi" unicode="&#x3be;" horiz-adv-x="813" 
d="M684 112q82 -82 82 -209q0 -123 -84 -210q-85 -85 -209 -85h-1q-39 1 -67 27t-28 64q0 39 28 65t68 26h1q45 0 78 33t33 72q0 55 -41 84q-34 23 -87 21h-28q-159 0 -272 113q-114 114 -114 271q0 93 40.5 171t113.5 129q-116 94 -116 242q0 151 105 253q99 99 250 101h1
h180q42 0 71 -28t29 -70t-29 -71t-71 -29h-188q-65 0 -107 -42q-45 -44 -45 -107q0 -58 38 -102q37 -43 93 -51h158q43 0 71 -28t28 -70q0 -43 -28 -71q-29 -29 -71 -29h-137q-81 0 -134 -59q-54 -61 -54 -137q0 -77 54 -136q53 -56 133 -56h38q134 0 218 -82z" />
    <glyph glyph-name="omicron" unicode="&#x3bf;" 
d="M520 -12q-96 0 -183 36.5t-154 103.5q-140 140 -140 337t140 337q67 67 154 103.5t183 36.5t183 -36.5t154 -103.5q139 -141 139 -337t-139 -337q-67 -67 -154 -103.5t-183 -36.5zM520 188q115 0 197 82q80 80 80 195q0 116 -80 196t-197 80q-115 0 -195 -80
q-82 -82 -82 -196q0 -113 82 -195t195 -82z" />
    <glyph glyph-name="pi" unicode="&#x3c0;" horiz-adv-x="1222" 
d="M358 -2q-40 0 -72 30q-30 28 -30 71v638h-112q-42 0 -71 30q-30 31 -30 72q0 43 29 73t72 30h956q43 0 72 -31q29 -32 29 -73q0 -43 -29 -72q-31 -31 -72 -29h-111v-638q0 -43 -30 -71q-31 -30 -73 -30q-41 0 -68 29t-27 72v638h-336v-638q0 -43 -27.5 -72t-69.5 -29z
" />
    <glyph glyph-name="rho" unicode="&#x3c1;" horiz-adv-x="1096" 
d="M199 -338q-42 0 -70.5 28t-28.5 70v1084q0 42 28.5 70t70.5 28q37 0 68 -26q28 -25 32 -64q128 90 278 90q96 0 183 -36.5t154 -103.5q139 -141 139 -337t-139 -337q-67 -67 -154 -103.5t-183 -36.5q-156 0 -278 90v-318q0 -42 -29 -70t-71 -28zM577 188q115 0 197 82
q80 80 80 195q0 116 -80 196t-197 80q-115 0 -195 -80q-82 -82 -82 -196q0 -113 82 -195t195 -82z" />
    <glyph glyph-name="uni03C2" unicode="&#x3c2;" horiz-adv-x="938" 
d="M605 -391h-1q-39 1 -67 27t-28 64q0 39 28.5 65t67.5 26h1q46 0 79 33q32 30 32 72q0 58 -47 85q-34 19 -98 19h-47q-202 0 -340 132q-142 134 -142 329v1q0 1 1 1v1q-1 0 -1 1q0 197 142 339q67 67 155 103.5t185 36.5q96 0 180.5 -33t144.5 -95q36 -36 37 -79
q0 -44 -32 -73q-34 -29 -67 -29q-36 0 -91 43q-80 64 -184 64q-111 0 -191 -87q-75 -81 -75 -188l-1 -2l1 -1q0 -104 74 -184q80 -85 186 -86h91q136 0 218 -82q82 -80 82 -208q0 -123 -84 -210q-85 -85 -209 -85z" />
    <glyph glyph-name="sigma" unicode="&#x3c3;" horiz-adv-x="1115" 
d="M520 -12q-96 0 -183 36.5t-154 103.5q-140 140 -140 337t140 337q67 67 154 103.5t183 36.5h452q42 0 71 -29t29 -71t-29 -71q-30 -30 -71 -30h-64q88 -124 88 -276q0 -196 -139 -337q-67 -67 -154 -103.5t-183 -36.5zM520 188q115 0 197 82q80 80 80 195q0 116 -80 196
t-197 80q-115 0 -195 -80q-82 -82 -82 -196q0 -113 82 -195t195 -82z" />
    <glyph glyph-name="tau" unicode="&#x3c4;" horiz-adv-x="986" 
d="M494 0q-42 0 -69.5 29t-27.5 72v641l-274 1q-43 0 -72 27t-29 69q0 44 29 73.5t72 29.5h739q43 0 73 -30t30 -73q0 -42 -30 -69.5t-73 -27.5h-266v-641q0 -42 -30 -71q-32 -30 -72 -30z" />
    <glyph glyph-name="upsilon" unicode="&#x3c5;" horiz-adv-x="1034" 
d="M540 -12q-87 0 -167.5 32.5t-141.5 90.5q-128 122 -139 298q-1 2 -1 13v419q0 43 30 72t73 29q42 0 69 -29t27 -72v-410q0 -102 74 -173q72 -72 176 -72q103 0 176 73q72 72 74 174v408q0 43 27.5 72.5t69.5 29.5q40 0 72 -29q30 -27 30 -73v-414v-4q-1 -1 -1 -5
q-6 -176 -136 -304q-131 -126 -312 -126z" />
    <glyph glyph-name="phi" unicode="&#x3c6;" horiz-adv-x="1171" 
d="M582 -339q-43 0 -72.5 29.5t-29.5 72.5v223q-190 32 -312 167q-125 136 -125 319q0 106 38 194q33 76 117 163q28 28 70 28q41 0 69 -28q29 -29 29 -59q0 -33 -31 -77q-49 -53 -69 -92q-32 -59 -32 -126q0 -111 69 -189q68 -77 177 -103v535q0 114 73 187q75 75 200 75
q104 0 195 -57q107 -80 147 -184q33 -85 33 -213q0 -212 -129 -361q-126 -148 -320 -180v-222q0 -43 -27.5 -72.5t-69.5 -29.5zM679 690v-505q111 29 178 123q66 92 66 208q0 94 -19 150t-67 91q-36 23 -74 23q-34 0 -58 -25.5t-26 -64.5z" />
    <glyph glyph-name="chi" unicode="&#x3c7;" horiz-adv-x="983" 
d="M844 -296q-38 6 -63 42l-291 414l-290 -414q-31 -43 -84 -43q-30 0 -55 17q-36 26 -42 64q-2 18 -2 20q0 31 17 56l333 476l-315 449q-18 25 -18 56q0 53 43 82q26 18 59 18q14 0 17 -1q43 -9 66 -42l271 -387l271 388q31 42 82 42q33 0 59 -18q36 -25 43 -63q1 -3 1 -16
q0 -34 -18 -59l-315 -450l333 -475q17 -26 17 -58q0 -14 -1 -18q-7 -39 -43 -64q-27 -18 -56 -18q-3 0 -19 2z" />
    <glyph glyph-name="psi" unicode="&#x3c8;" horiz-adv-x="1180" 
d="M597 -380q-42 0 -72 30t-30 72v273q-162 32 -284 155q-124 124 -124 283v408q0 44 31 72q32 29 73 29t68 -29t27 -72v-412q0 -81 63 -146q64 -66 146 -91v648q0 44 31 72q32 29 73 29q42 0 68.5 -29t26.5 -72v-647q87 32 141 92q59 65 59 143v412q0 43 28 73t70 30
q43 0 72 -30t29 -73v-413q-1 -151 -123 -277q-113 -118 -276 -154v-274q0 -43 -27.5 -72.5t-69.5 -29.5z" />
    <glyph glyph-name="omega" unicode="&#x3c9;" horiz-adv-x="1475" 
d="M460 -12q-152 0 -263 109q-110 108 -110 261v485q0 42 29 71q28 28 70 28q43 0 71 -28q29 -29 29 -71v-485q0 -72 52 -122q51 -51 124 -51q71 0 122 51q52 50 52 122v485q0 41 30 71q28 28 70 28t70 -28q29 -29 29 -71v-483q0 -11 -1 -13q6 -68 57 -114q55 -48 120 -48
q72 0 122 50q53 52 55 121v487q0 43 30 71q29 28 71 28t70 -28t28 -71v-486q-1 -150 -112 -261q-110 -108 -265 -108q-80 0 -151.5 31.5t-123.5 88.5q-51 -57 -123 -88.5t-152 -31.5z" />
    <glyph glyph-name="iotadieresis" unicode="&#x3ca;" horiz-adv-x="400" 
d="M201 0q-39 0 -71 29q-30 28 -30 71v742q0 42 30 71q32 29 72 29q43 0 70 -29q28 -29 28 -71v-742q0 -43 -28 -71q-29 -29 -71 -29z" />
    <glyph glyph-name="upsilondieresis" unicode="&#x3cb;" horiz-adv-x="1034" 
d="M353 1066q-47 0 -79 32t-32 79t32 79q33 33 79 33t79 -33t33 -79t-33 -79q-32 -32 -79 -32zM722 1066q-46 0 -78 32q-33 33 -33 79t33 79t78 33q47 0 80 -33q32 -32 32 -79t-32 -79t-80 -32zM540 -12q-87 0 -167.5 32.5t-141.5 90.5q-128 122 -139 298q-1 2 -1 13v419
q0 43 30 72t73 29q42 0 69 -29t27 -72v-410q0 -102 74 -173q72 -72 176 -72q103 0 176 73q72 72 74 174v408q0 43 27.5 72.5t69.5 29.5q40 0 72 -29q30 -27 30 -73v-414v-4q-1 -1 -1 -5q-6 -176 -136 -304q-131 -126 -312 -126z" />
    <glyph glyph-name="omicrontonos" unicode="&#x3cc;" 
d="M525 1063q-42 0 -71 28t-29 70v196q0 42 29 71t71 29t70 -29t28 -71v-196q0 -40 -29 -69t-69 -29zM520 -12q-96 0 -183 36.5t-154 103.5q-140 140 -140 337t140 337q67 67 154 103.5t183 36.5t183 -36.5t154 -103.5q139 -141 139 -337t-139 -337q-67 -67 -154 -103.5
t-183 -36.5zM520 188q115 0 197 82q80 80 80 195q0 116 -80 196t-197 80q-115 0 -195 -80q-82 -82 -82 -196q0 -113 82 -195t195 -82z" />
    <glyph glyph-name="upsilontonos" unicode="&#x3cd;" horiz-adv-x="1034" 
d="M547 1011q-42 0 -71 28t-29 70v196q0 42 29 71t71 29t70 -29t28 -71v-196q0 -40 -29 -69t-69 -29zM540 -12q-87 0 -167.5 32.5t-141.5 90.5q-128 122 -139 298q-1 2 -1 13v419q0 43 30 72t73 29q42 0 69 -29t27 -72v-410q0 -102 74 -173q72 -72 176 -72q103 0 176 73
q72 72 74 174v408q0 43 27.5 72.5t69.5 29.5q40 0 72 -29q30 -27 30 -73v-414v-4q-1 -1 -1 -5q-6 -176 -136 -304q-131 -126 -312 -126z" />
    <glyph glyph-name="omegatonos" unicode="&#x3ce;" horiz-adv-x="1475" 
d="M735 1066q-42 0 -71 28t-29 70v196q0 42 29 71t71 29t70 -29t28 -71v-196q0 -40 -29 -69t-69 -29zM460 -12q-152 0 -263 109q-110 108 -110 261v485q0 42 29 71q28 28 70 28q43 0 71 -28q29 -29 29 -71v-485q0 -72 52 -122q51 -51 124 -51q71 0 122 51q52 50 52 122v485
q0 41 30 71q28 28 70 28t70 -28q29 -29 29 -71v-483q0 -11 -1 -13q6 -68 57 -114q55 -48 120 -48q72 0 122 50q53 52 55 121v487q0 43 30 71q29 28 71 28t70 -28t28 -71v-486q-1 -150 -112 -261q-110 -108 -265 -108q-80 0 -151.5 31.5t-123.5 88.5q-51 -57 -123 -88.5
t-152 -31.5z" />
    <glyph glyph-name="uni03D0" unicode="&#x3d0;" horiz-adv-x="988" 
d="M542 -9h-3q-210 1 -319 125q-90 102 -90 254v523q0 10 1 12q2 167 110 274q106 106 272 106q144 0 251 -97q106 -100 106 -243q0 -80 -30.5 -148.5t-85.5 -113.5q87 -43 138 -126q52 -83 52 -187q0 -144 -110 -256q-56 -57 -131.5 -89.5t-160.5 -33.5zM539 187h19
q78 0 136 58q56 56 56 131q0 77 -54 128q-50 47 -122 47h-25q-45 0 -77 32t-32 77q0 46 32 78t77 32q61 0 99 54q34 52 34 115q0 66 -49 109q-49 45 -120 45q-75 0 -125 -44q-57 -52 -59 -153v-515q0 -78 55 -133q61 -61 155 -61z" />
    <glyph glyph-name="uni03D1" unicode="&#x3d1;" horiz-adv-x="1010" 
d="M414 -7h-2q-40 0 -71 31q-30 30 -30 71t30 73q30 30 73 30h4q95 0 154 53t59 132v105h-199q-160 1 -275 118q-114 116 -114 278q0 164 116 278q115 115 279 115q163 0 276 -113q115 -115 117 -275v-200h35q43 0 72 -29t29 -71q0 -39 -29 -71q-28 -30 -72 -30h-35v-108
q-5 -162 -124 -274q-123 -113 -293 -113zM433 689h198v193q0 81 -54 137t-136 56q-79 0 -138 -57q-58 -58 -58 -139q0 -77 54 -134q51 -54 134 -56z" />
    <glyph glyph-name="uni03F0" unicode="&#x3f0;" horiz-adv-x="1058" 
d="M158 0q-45 0 -73 28q-30 28 -28 69q0 38 29 70l300 302l-304 307q-28 28 -28 70q0 40 30 70q29 29 70 29q40 0 70 -30l302 -305l300 303q29 30 71 32q41 0 70 -29q30 -30 30 -70q0 -42 -27 -71l-304 -306l297 -299q29 -29 30 -70q0 -42 -29 -71t-71 -29q-40 0 -69 29
l-297 299l-297 -299q-29 -29 -72 -29z" />
    <glyph glyph-name="uni0401" unicode="&#x401;" horiz-adv-x="912" 
d="M310 1429q-47 0 -79 32t-32 79t32 79q33 33 79 33t79 -33t33 -79t-33 -79q-32 -32 -79 -32zM679 1429q-46 0 -78 32q-33 33 -33 79t33 79t78 33q47 0 80 -33q32 -32 32 -79t-32 -79t-80 -32zM764 0h-542q-40 3 -66 30.5t-26 68.5v1081q0 42 29 71t71 29h534q41 0 70 -29
q28 -28 28 -71q0 -42 -28 -70.5t-70 -28.5h-435v-346h314q42 2 71 -27q28 -28 28 -71q0 -42 -28.5 -69t-70.5 -27h-314v-343h435q42 0 70 -29t28 -71t-28 -70q-30 -30 -70 -28z" />
    <glyph glyph-name="uni0402" unicode="&#x402;" horiz-adv-x="1098" 
d="M593 -396q-41 0 -71 30t-30 71t30 71t71 30q100 0 144.5 44t44.5 142v89q-1 2 -1 15v380q0 119 -56 195q-57 73 -158 73q-99 0 -164 -71q-64 -69 -69 -177v-397q0 -42 -28.5 -70.5t-70.5 -28.5t-71 29t-29 70v903h-85q-43 0 -70.5 25t-27.5 66t27.5 65t70.5 24h85
q0 39 31 70q28 28 69 28t69 -28t30 -70h114q42 0 69 -24.5t27 -65.5t-27 -66t-69 -24h-114v-173q118 113 255 113q174 0 282 -131q108 -130 108 -331v-71h1v-418q0 -185 -103 -285q-103 -102 -284 -102z" />
    <glyph glyph-name="uni0403" unicode="&#x403;" horiz-adv-x="959" 
d="M544 1416q-30 30 -30 70q0 42 30 72l133 134q30 30 72 30q39 0 71 -29q30 -30 30 -71q0 -40 -30 -70l-135 -136q-30 -30 -71 -30q-40 0 -70 30zM233 -2q-42 0 -72 30t-30 73v1076q0 38 22.5 65.5t58.5 35.5q2 1 12 1q2 0 3 1h2h581q44 0 72 -30q29 -32 29 -73
q0 -42 -29 -69.5t-72 -27.5h-480v-979q0 -43 -27.5 -73t-69.5 -30z" />
    <glyph glyph-name="uni0404" unicode="&#x404;" horiz-adv-x="1230" 
d="M698 -12q-171 0 -322 89q-146 85 -234 233q-91 152 -91 327q0 168 88 321q85 146 233 237q151 93 328 93q130 0 247.5 -48t210.5 -141l3 -3q30 -28 30 -70q0 -43 -29 -72q-30 -30 -72 -30q-42 -2 -72 28l-3 3q-134 129 -316 129q-151 0 -272 -96q-123 -97 -159 -242h450
q44 0 73 -29t29 -71q0 -39 -29 -71q-27 -30 -73 -30h-453q33 -149 151 -249q120 -104 283 -104q186 0 316 130q29 27 73 27q43 -1 72 -29q29 -29 29 -71q0 -41 -29 -70q-93 -93 -212.5 -142t-249.5 -49z" />
    <glyph glyph-name="uni0405" unicode="&#x405;" horiz-adv-x="984" 
d="M494 -13q-146 0 -269 73q-118 68 -166 174q-13 26 -13 53q0 14 5 32q10 31 47 52q23 13 44 13q44 0 92 -60q87 -138 268 -138q98 0 164 48q76 52 76 136q0 82 -77 126q-42 24 -135 47l-26 7q-197 37 -304 121q-124 97 -124 249q0 159 129 267q124 102 291 102
q120 0 223 -47q106 -51 159 -140q11 -19 11 -38q0 -3 -2 -19q-8 -28 -27 -47q-24 -24 -65 -24q-37 0 -59 18q-63 55 -105 74q-55 24 -132 24q-94 0 -156 -45q-67 -45 -67 -123t87 -122q54 -28 203 -59q172 -45 258 -115q116 -93 116 -245q0 -166 -129 -281
q-132 -113 -317 -113z" />
    <glyph glyph-name="uni0406" unicode="&#x406;" horiz-adv-x="459" 
d="M229 0q-42 0 -70.5 28t-28.5 70v1084q0 42 28.5 70t70.5 28t71 -28t29 -70v-1084q0 -42 -29 -70t-71 -28z" />
    <glyph glyph-name="uni0407" unicode="&#x407;" horiz-adv-x="459" 
d="M54 1388q-47 0 -79 32t-32 79t32 79q33 33 79 33t79 -33t33 -79t-33 -79q-32 -32 -79 -32zM423 1388q-46 0 -78 32q-33 33 -33 79t33 79t78 33q47 0 80 -33q32 -32 32 -79t-32 -79t-80 -32zM229 0q-42 0 -70.5 28t-28.5 70v1084q0 42 28.5 70t70.5 28t71 -28t29 -70
v-1084q0 -42 -29 -70t-71 -28z" />
    <glyph glyph-name="uni0408" unicode="&#x408;" horiz-adv-x="460" 
d="M-101 -353q-66 0 -92 51q-13 23 -13 49q0 21 11 45q26 50 90 54q99 2 168 72q67 69 67 166v1093q0 41 29 73q29 30 70 30q44 0 72.5 -30t28.5 -73l-1 -1100q0 -179 -125 -304q-126 -126 -305 -126z" />
    <glyph glyph-name="uni0409" unicode="&#x409;" horiz-adv-x="1978" 
d="M142 -3q-41 0 -71 30t-30 71q0 43 30 73t71 30h4q95 1 136 44t42 141v791v11q0 7 5 22l4 11q12 27 37 43t55 16h712q43 0 73 -30t30 -73v-435h321q152 0 264 -112q108 -110 108 -266q0 -153 -108 -259q-108 -105 -264 -105h-424q-41 0 -72 30q-30 28 -30 71v974h-505
v-694q-2 -184 -104 -283q-106 -101 -284 -101zM1240 206l321 1q73 0 121 50t48 116q0 70 -50 115q-50 48 -121 48h-319v-330z" />
    <glyph glyph-name="uni040A" unicode="&#x40a;" horiz-adv-x="1826" 
d="M232 0q-40 0 -72 30q-30 28 -30 71v1076q0 47 31 73q32 29 73 29q43 0 72 -29t29 -73v-442h547v457q0 46 30 73q32 29 73 29t73 -29q30 -27 30 -73v-455h326q150 0 261 -111q108 -113 108 -265q0 -153 -108 -256q-107 -105 -261 -105h-429q-43 0 -73 29t-30 72v432h-547
v-432q0 -43 -30 -72t-73 -29zM1088 206l326 1q69 0 119 50q48 48 48 113q0 68 -49 114q-50 47 -119 47h-325v-325z" />
    <glyph glyph-name="uni040B" unicode="&#x40b;" horiz-adv-x="1037" 
d="M845 -2q-42 0 -70.5 28t-28.5 70v380q0 119 -56 195q-57 73 -158 73q-99 0 -164 -71q-64 -69 -69 -177v-397q0 -42 -28.5 -70.5t-70.5 -28.5t-71 29t-29 70v976h-100q-38 0 -64 27t-26 65t26 63t64 25h134q31 25 66 25q37 0 65 -25h135q37 0 62.5 -26t25.5 -64t-26 -64
t-62 -26h-101v-246q118 113 255 113q174 0 282 -131q108 -130 108 -331v-384q0 -42 -28.5 -70t-70.5 -28z" />
    <glyph glyph-name="uni040C" unicode="&#x40c;" horiz-adv-x="1100" 
d="M521 1364q-30 30 -30 70q0 42 30 72l133 134q30 30 72 30q39 0 71 -29q30 -30 30 -71q0 -40 -30 -70l-135 -136q-30 -30 -71 -30q-40 0 -70 30zM229 0q-42 0 -70.5 28t-28.5 70v1084q0 42 28.5 70t70.5 28t71 -28t29 -70v-439l542 509q28 28 71 28q38 -1 70 -33
q28 -28 28 -70q0 -39 -31 -70l-376 -352l399 -600q18 -27 18 -57q0 -50 -45 -81q-25 -17 -54 -17q-2 0 -20 2q-40 6 -63 42l-384 573l-155 -146v-373q0 -42 -29 -70t-71 -28z" />
    <glyph glyph-name="uni040E" unicode="&#x40e;" horiz-adv-x="993" 
d="M531 1380q-94 0 -160 66t-66 159q0 29 20 49.5t48 20.5q29 0 49 -20.5t20 -49.5q0 -36 26 -62q26 -27 63 -27q39 0 64 27q26 26 26 62q0 29 19.5 49.5t48.5 20.5t48.5 -20.5t19.5 -49.5q0 -90 -66 -159q-66 -66 -160 -66zM159 -9q-44 0 -72.5 24.5t-28.5 64.5q0 43 30 73
t71 30q90 -4 137 43q32 32 82 140l9 24l-350 750q-7 15 -7 37q0 19 8 41q16 39 54 54q21 8 37 8q18 0 40 -8q37 -14 54 -54l265 -588l258 588q20 41 56 54q22 8 40 8q15 0 36 -8q40 -18 54 -54q8 -22 8 -41q0 -16 -8 -37l-345 -758l-11 -25q-95 -206 -174 -280
q-90 -86 -243 -86z" />
    <glyph glyph-name="uni040F" unicode="&#x40f;" horiz-adv-x="1263" 
d="M639 -272q-41 0 -71 30t-30 71v171h-310q-41 1 -68.5 28.5t-29.5 69.5v1077q0 43 30 73t73 30q42 0 69 -30t27 -73v-970h606v970q0 43 27 73t68 30q43 0 73 -30t30 -73v-1073q0 -34 -19 -59l-2 -3l-3 -3q-31 -37 -78 -37h-288v-171q0 -43 -30 -71q-33 -30 -74 -30z" />
    <glyph glyph-name="uni0410" unicode="&#x410;" horiz-adv-x="1177" 
d="M1024 6q-37 13 -57 53l-125 297h-507l-123 -296q-16 -40 -55 -53q-18 -7 -36 -7q-22 0 -43 9q-56 25 -56 85q0 26 10 46l469 1079q27 61 91 61q65 0 90 -60l464 -1080q10 -20 10 -46q0 -60 -55 -85q-19 -9 -42 -9q-19 0 -35 6zM418 555h340l-171 407z" />
    <glyph glyph-name="uni0411" unicode="&#x411;" 
d="M598 0h-365q-43 0 -73 29t-30 72v1076q0 54 47 86q3 3 13 7l5 2q17 7 34 8h552q44 0 73 -29t29 -71t-29.5 -70.5t-72.5 -28.5h-451v-319l268 1q161 0 274 -113q112 -112 112 -273q0 -159 -112 -268t-274 -109zM330 199h267q80 0 134 56q54 55 54 133q0 80 -55 135
q-54 54 -135 54h-265v-378z" />
    <glyph glyph-name="uni0412" unicode="&#x412;" 
d="M594 0h-365q-42 0 -70.5 28t-28.5 70v1084q0 42 28.5 70t70.5 28h352q144 0 248 -102q102 -104 102 -249q0 -146 -106 -249q74 -54 114.5 -132.5t40.5 -171.5q0 -160 -112 -267q-112 -109 -274 -109zM329 755h246q64 1 111 55q45 50 45 113t-48 111q-47 47 -113 47h-241
v-326zM329 199h258q79 0 137 58q57 57 57 133q0 80 -57 132q-59 53 -138 53h-257v-376z" />
    <glyph glyph-name="uni0413" unicode="&#x413;" horiz-adv-x="878" 
d="M229 -2q-42 0 -72 30t-30 73v1076q0 38 22.5 65.5t58.5 35.5q2 1 12 1q2 0 3 1h2h531q44 0 72 -30q29 -32 29 -73q0 -42 -29 -69.5t-72 -27.5h-430v-979q0 -43 -27.5 -73t-69.5 -30z" />
    <glyph glyph-name="uni0414" unicode="&#x414;" horiz-adv-x="1210" 
d="M101 -278q-39 0 -71 29q-30 28 -30 71v280q0 42 29 70t72 28h7v1q97 0 139 43.5t43 141.5v791q0 51 40 81l4 4q15 9 23 11q1 1 3 1q9 4 14 4l14 2h588q42 0 70.5 -29t28.5 -71v-980h29q35 -2 61 -23l5 -4q12 -12 15 -17l4 -7l3 -6q10 -20 10 -42v-279q0 -42 -29 -71
t-71 -29t-71 29q-30 30 -30 71v178h-801v-178q0 -43 -28 -71q-29 -29 -71 -29zM453 200h422v879h-386v-693q-1 -108 -36 -186z" />
    <glyph glyph-name="uni0415" unicode="&#x415;" horiz-adv-x="912" 
d="M764 0h-542q-40 3 -66 30.5t-26 68.5v1081q0 42 29 71t71 29h534q41 0 70 -29q28 -28 28 -71q0 -42 -28 -70.5t-70 -28.5h-435v-346h314q42 2 71 -27q28 -28 28 -71q0 -42 -28.5 -69t-70.5 -27h-314v-343h435q42 0 70 -29t28 -71t-28 -70q-30 -30 -70 -28z" />
    <glyph glyph-name="uni0416" unicode="&#x416;" horiz-adv-x="1756" 
d="M168 -1q-38 0 -66 27q-31 32 -31 74t30 73l452 513l-357 394h-57q-42 0 -70.5 28.5t-28.5 70.5t28.5 71t70.5 29h106q11 0 22 -3l9 -2q20 -6 30 -16l7 -5l12 -14l385 -425h62v363q0 43 29.5 72t72.5 29q42 0 69.5 -28.5t27.5 -70.5v-363h74l393 436q29 28 72 28h104
q44 0 73 -29t29 -71t-29.5 -70.5t-72.5 -28.5h-61l-360 -398l455 -511q30 -30 30 -73q-1 -41 -32 -72q-28 -26 -66 -26q-41 0 -74 33l-520 581h-15v-513q0 -43 -27.5 -72.5t-69.5 -29.5q-43 0 -72.5 29t-29.5 72v513h-17l-514 -583q-32 -32 -73 -32z" />
    <glyph glyph-name="uni0417" unicode="&#x417;" horiz-adv-x="933" 
d="M492 1h-346q-42 0 -72 30t-30 73q0 42 30 72t72 30h340q65 2 112 49q45 45 45 113q0 66 -48 121q-47 52 -115 52h-196q-42 0 -72 30t-30 73q0 42 30 73q30 30 72 30h199q67 0 114 47q48 48 48 114t-49 115q-48 48 -115 50h-335q-42 0 -72 30t-30 73q0 42 30 72t72 30h346
q153 0 258 -105q107 -105 107 -259q0 -78 -32.5 -148.5t-90.5 -122.5q123 -115 123 -276q0 -152 -107 -259t-258 -107z" />
    <glyph glyph-name="uni0418" unicode="&#x418;" horiz-adv-x="1204" 
d="M217 0l-9 2l-8 2q-31 9 -50.5 35t-19.5 59v1084q0 41 28 70q25 28 70 28q42 0 71.5 -28t29.5 -70v-788l594 831l1 1q6 12 16 22l11 9l2 1l12 7q0 1 2 1l13 6l14 3h1q1 1 7 1l2 1h1h7q42 0 70.5 -28t28.5 -70v-1081q0 -42 -28.5 -70t-70.5 -28t-71 28t-29 70v784
l-603 -844q-7 -9 -18 -17q-24 -20 -58 -21h-16z" />
    <glyph glyph-name="uni0419" unicode="&#x419;" horiz-adv-x="1204" 
d="M700 1376q-94 0 -160 66t-66 159q0 29 20 49.5t48 20.5q29 0 49 -20.5t20 -49.5q0 -36 26 -62q25 -27 63 -27t64 27q26 26 26 62q0 29 19.5 49.5t48.5 20.5t48.5 -20.5t19.5 -49.5q0 -90 -66 -159q-66 -66 -160 -66zM217 0l-9 2l-8 2q-31 9 -50.5 35t-19.5 59v1084
q0 41 28 70q25 28 70 28q42 0 71.5 -28t29.5 -70v-788l594 831l1 1q6 12 16 22l11 9l4 2l3 2q2 2 9 5l13 6l14 3l2 1h2h5q1 1 8 1h7q38 -2 66 -30q27 -27 27 -68v-1081q0 -42 -28.5 -70t-70.5 -28t-71 28t-29 70v784l-603 -844q-7 -9 -18 -17q-24 -20 -58 -21h-16z" />
    <glyph glyph-name="uni041A" unicode="&#x41a;" horiz-adv-x="1100" 
d="M229 0q-42 0 -70.5 28t-28.5 70v1084q0 42 28.5 70t70.5 28t71 -28t29 -70v-439l542 509q28 28 71 28q38 -1 70 -33q28 -28 28 -70q0 -39 -31 -70l-376 -352l399 -600q18 -27 18 -57q0 -50 -45 -81q-25 -17 -54 -17q-2 0 -20 2q-40 6 -63 42l-384 573l-155 -146v-373
q0 -42 -29 -70t-71 -28z" />
    <glyph glyph-name="uni041B" unicode="&#x41b;" horiz-adv-x="1168" 
d="M122 0q-42 0 -73 33q-28 30 -27 70q0 18 8 40l459 1075q12 27 37.5 43t55.5 16q31 0 56.5 -16t37.5 -43l462 -1075q9 -21 9 -42q0 -18 -7 -36q-15 -40 -55 -56q-19 -9 -40 -9q-40 0 -71 28q-15 12 -23 33l-368 854l-366 -854q-18 -40 -56 -54q-17 -7 -39 -7z" />
    <glyph glyph-name="uni041C" unicode="&#x41c;" horiz-adv-x="1417" 
d="M710 0q-63 0 -88 60l-304 744l-99 -718q-5 -38 -32 -61t-64 -23q-44 0 -73 28.5t-29 70.5q0 11 1 14l149 1072q5 33 28 56q30 34 73 34q15 0 39 -8q37 -15 54 -53l351 -858l349 858q28 60 90 60q21 0 38 -7l11 -6q49 -22 55 -76l139 -1075q1 -3 1 -13q0 -41 -29.5 -69.5
t-72.5 -28.5q-37 0 -65 24t-32 62l-92 712l-302 -739q-12 -27 -38.5 -43.5t-57.5 -16.5z" />
    <glyph glyph-name="uni041D" unicode="&#x41d;" horiz-adv-x="1204" 
d="M229 0q-42 0 -70.5 28t-28.5 70v1084q0 42 28.5 70t70.5 28t71 -28t29 -70v-445h546v445q0 42 29.5 70t71.5 28t70 -28t28 -70v-1084q0 -42 -29 -70t-71 -28t-70.5 28t-28.5 70v440h-546v-440q0 -42 -29 -70t-71 -28z" />
    <glyph glyph-name="uni041E" unicode="&#x41e;" horiz-adv-x="1386" 
d="M691 -12q-131 0 -250 50t-209 141q-91 91 -140 209.5t-49 249.5q0 178 88 329q86 148 232 233q154 89 328 89q178 0 329 -89q149 -87 234 -233q89 -155 89 -329q0 -131 -50 -249.5t-141 -209.5t-210.5 -141t-250.5 -50zM692 187q189 0 320 131t131 320q0 90 -34 172.5
t-97 145.5q-132 132 -320 132q-92 0 -174.5 -34.5t-143.5 -97.5q-63 -63 -97 -145.5t-34 -172.5q0 -189 131 -320q61 -63 143.5 -97t174.5 -34z" />
    <glyph glyph-name="uni041F" unicode="&#x41f;" horiz-adv-x="1314" 
d="M232 0q-40 0 -72 30q-30 28 -30 71v1076q0 43 29 73t72 30h742q41 -1 71 -31q28 -29 28 -72v-1076q0 -42 -30 -71q-32 -30 -72 -30q-42 0 -70 29t-28 72v974h-543v-974q0 -43 -27.5 -72t-69.5 -29z" />
    </font>
</defs>
</svg>
