<?xml version="1.0" standalone="no"?>
<!DOCTYPE svg PUBLIC "-//W3C//DTD SVG 1.1//EN" "http://www.w3.org/Graphics/SVG/1.1/DTD/svg11.dtd" >
<svg xmlns="http://www.w3.org/2000/svg" xmlns:xlink="http://www.w3.org/1999/xlink" version="1.1">
<metadata></metadata>
<defs>
<font id="latobold" horiz-adv-x="1160" >
<font-face units-per-em="2000" ascent="1610" descent="-390" />
<missing-glyph horiz-adv-x="486" />
<glyph unicode="&#xfb01;" horiz-adv-x="1201" d="M195 0v840l-89 14q-29 6 -46.5 20.5t-17.5 41.5v101h153v33q0 94 31 174.5t94 139.5t159.5 92.5t227.5 33.5q42 0 85.5 -4.5t75.5 -14.5l-8 -128q-2 -23 -25 -27.5t-57 -4.5q-97 0 -162.5 -17t-106 -50.5t-58 -84t-17.5 -117.5v-25h636v-1017h-247v841h-381v-841h-247z " />
<glyph unicode="&#xfb02;" horiz-adv-x="1224" d="M195 0v840l-89 14q-29 6 -46.5 20.5t-17.5 41.5v101h153v43q0 82 26 157t79 132.5t134 92t191 34.5q85 0 160.5 -5.5t150.5 -6.5h163v-1464h-246v1292q-53 2 -103.5 5t-85.5 3q-112 0 -171 -62.5t-59 -177.5v-43h243v-176h-235v-841h-247z" />
<glyph horiz-adv-x="0" />
<glyph horiz-adv-x="0" />
<glyph unicode="&#xd;" horiz-adv-x="0" />
<glyph unicode=" "  horiz-adv-x="486" />
<glyph unicode="&#x09;" horiz-adv-x="486" />
<glyph unicode="&#xa0;" horiz-adv-x="486" />
<glyph unicode="!" horiz-adv-x="562" d="M398 1446v-572q0 -91 -9 -178.5t-23 -185.5h-168q-14 98 -23 185.5t-9 178.5v572h232zM127 136q0 31 11.5 59t32 48t48.5 32t60 12q31 0 59 -12t48.5 -32t32.5 -48t12 -59q0 -32 -12 -59.5t-32.5 -47.5t-48.5 -31.5t-59 -11.5q-32 0 -60 11.5t-48.5 31.5t-32 47.5 t-11.5 59.5z" />
<glyph unicode="&#x22;" horiz-adv-x="791" d="M104 911zM319 1446v-288l-22 -156q-8 -44 -26 -67.5t-60 -23.5q-37 0 -57 23.5t-28 67.5l-22 156v288h215zM687 1446v-288l-22 -156q-8 -44 -26 -67.5t-60 -23.5q-37 0 -57 23.5t-28 67.5l-22 156v288h215z" />
<glyph unicode="#" d="M827 408l-76 -408h-114q-17 0 -32 8t-25 22t-14.5 32.5t0.5 39.5l58 306h-205l-58 -318q-8 -48 -40 -69t-71 -21h-110l76 408h-115q-38 0 -54 22.5t-8 76.5l13 79h189l52 276h-214l19 103q8 38 32 56.5t77 18.5h111l62 322q8 40 37 62t68 22h113l-77 -406h205l77 406h110 q38 0 61 -24.5t17 -61.5l-62 -320h202l-18 -103q-8 -38 -32 -56.5t-77 -18.5h-100l-52 -276h142q38 0 54.5 -22.5t8.5 -77.5l-13 -78h-217zM444 586h205l52 276h-205z" />
<glyph unicode="$" d="M462 -9q-117 16 -220 64t-175 119l76 113q10 15 26.5 24.5t35.5 9.5q22 0 47 -15.5t57 -36.5t73 -42t97 -31l37 447q-71 21 -140.5 47.5t-125 71t-89.5 112.5t-34 171q0 76 30 148.5t88.5 129.5t143.5 94t195 42l11 126q2 24 20 43t47 19h91l-17 -196q107 -17 184 -60.5 t133 -97.5l-60 -91q-13 -20 -27 -30t-34 -10q-15 0 -36 9.5t-47 23t-58.5 27.5t-71.5 23l-35 -414q72 -22 143 -48.5t127.5 -68.5t91.5 -104.5t35 -156.5q0 -93 -31 -174.5t-91 -144t-147 -102t-199 -46.5l-12 -147q-1 -23 -19.5 -42.5t-46.5 -19.5h-91zM846 415 q0 38 -13.5 66.5t-38 50.5t-57.5 38t-72 29l-34 -406q106 14 160.5 71.5t54.5 150.5zM360 1069q0 -38 13 -67t36.5 -51.5t56 -40t70.5 -31.5l31 370q-56 -7 -95 -23.5t-64 -40.5t-36.5 -53.5t-11.5 -62.5z" />
<glyph unicode="%" horiz-adv-x="1639" d="M745 1096q0 -82 -27.5 -148t-73.5 -112.5t-107 -71.5t-127 -25q-72 0 -133 25t-105.5 71.5t-69.5 112.5t-25 148q0 84 25 152t69.5 115t105.5 72.5t133 25.5t133.5 -25.5t106.5 -72.5t70 -115t25 -152zM555 1096q0 58 -11.5 97t-31 63t-46 34.5t-56.5 10.5t-56 -10.5 t-44.5 -34.5t-29.5 -63t-11 -97q0 -56 11 -93.5t29.5 -60.5t44.5 -33t56 -10t56.5 10t46 33t31 60.5t11.5 93.5zM1226 1407q13 15 30.5 27t49.5 12h180l-1074 -1409q-13 -16 -31 -26.5t-44 -10.5h-184zM1562 340q0 -82 -27.5 -148t-73.5 -112.5t-107 -72t-127 -25.5 q-72 0 -133 25.5t-105.5 72t-69.5 112.5t-25 148q0 84 25 152t69.5 115t105.5 72.5t133 25.5t133.5 -25.5t106 -72.5t70 -115t25.5 -152zM1371 340q0 58 -11 97t-30.5 63t-46 34.5t-56.5 10.5t-56 -10.5t-45 -34.5t-29.5 -63t-10.5 -97q0 -56 10.5 -94t29.5 -61t45 -33 t56 -10t56.5 10t46 33t30.5 61t11 94z" />
<glyph unicode="&#x26;" horiz-adv-x="1447" d="M672 1462q88 0 157.5 -27t119 -72t78 -103t33.5 -120l-157 -33q-44 -9 -64 38q-9 26 -23.5 49.5t-34.5 41t-47 28t-62 10.5q-42 0 -75 -14.5t-55.5 -39t-34.5 -57t-12 -68.5q0 -30 6 -58t20 -56t36.5 -57.5t55.5 -63.5l384 -399q33 63 53 133t26 142q3 23 16 37t36 14 h154q-1 -132 -38 -252t-106 -221l303 -314h-242q-38 0 -61.5 9t-49.5 38l-100 103q-95 -78 -213 -122t-255 -44q-83 0 -163.5 28.5t-143.5 82.5t-101.5 130.5t-38.5 172.5q0 68 22 128.5t61 112t93 93.5t118 72q-54 75 -78 146.5t-24 142.5q0 75 27.5 142.5t79.5 117.5 t128 79.5t172 29.5zM564 181q88 0 161 27.5t132 76.5l-379 391q-80 -52 -116.5 -117.5t-36.5 -140.5q0 -55 19 -99t51.5 -74.5t76 -47t92.5 -16.5z" />
<glyph unicode="'" horiz-adv-x="423" d="M319 1446v-288l-22 -156q-8 -44 -26 -67.5t-60 -23.5q-37 0 -57 23.5t-28 67.5l-22 156v288h215z" />
<glyph unicode="(" horiz-adv-x="549" d="M287 627q0 -206 50 -405t143 -374q10 -20 11.5 -35.5t-2.5 -27t-12.5 -20t-18.5 -14.5l-110 -67q-74 114 -126 229t-85 232t-48.5 237t-15.5 245t15.5 245.5t48.5 237.5t85 231.5t126 228.5l110 -66q10 -6 18.5 -14.5t12.5 -20t2.5 -27t-11.5 -36.5q-93 -174 -143 -373.5 t-50 -405.5z" />
<glyph unicode=")" horiz-adv-x="549" d="M261 627q0 206 -49.5 405.5t-142.5 373.5q-11 21 -12.5 36.5t2.5 27t12.5 20t19.5 14.5l110 66q74 -114 126 -228.5t85 -231.5t48 -237.5t15 -245.5t-15 -245t-48 -237t-85 -232t-126 -229l-110 67q-11 6 -19.5 14.5t-12.5 20t-2.5 27t12.5 35.5q93 175 142.5 374 t49.5 405z" />
<glyph unicode="*" horiz-adv-x="850" d="M366 837v183q0 20 2.5 39t8.5 36q-11 -14 -26 -25t-32 -22l-158 -92l-59 100l159 92q18 11 35.5 18t36.5 10q-37 4 -72 29l-159 93l58 100l159 -94q17 -11 32.5 -22.5t26.5 -25.5q-7 17 -9.5 36t-2.5 39v185h118v-183q0 -21 -2.5 -40.5t-9.5 -36.5q11 14 26 25.5t33 22.5 l158 92l59 -100l-159 -91q-18 -11 -35.5 -18.5t-36.5 -10.5q34 -6 72 -28l159 -93l-58 -100l-159 93q-18 11 -33 22t-27 25q13 -32 13 -74v-184h-118z" />
<glyph unicode="+" d="M680 1173v-410h388v-183h-388v-412h-201v412h-386v183h386v410h201z" />
<glyph unicode="," horiz-adv-x="468" d="M86 152q0 28 10.5 52.5t29.5 43t46 29t59 10.5q38 0 66.5 -13.5t47 -37t28 -54t9.5 -64.5q0 -48 -14.5 -101t-42.5 -106t-69.5 -103t-94.5 -92l-43 39q-18 15 -18 37q0 8 5.5 18t13.5 18q11 12 27 29.5t32 40t29.5 49t19.5 56.5q-31 0 -57 11.5t-44.5 31.5t-29 47 t-10.5 59z" />
<glyph unicode="-" horiz-adv-x="746" d="M114 707h518v-206h-518v206z" />
<glyph unicode="." horiz-adv-x="475" d="M86 136q0 31 11.5 59t31.5 48t48 32t60 12t59.5 -12t48 -32t32.5 -48t12 -59q0 -32 -12 -59.5t-32.5 -47.5t-48 -31.5t-59.5 -11.5t-60 11.5t-48 31.5t-31.5 47.5t-11.5 59.5z" />
<glyph unicode="/" horiz-adv-x="932" d="M294 -3q-17 -46 -54.5 -69t-76.5 -23h-105l584 1494q16 42 49 64.5t77 22.5h106z" />
<glyph unicode="0" d="M1110 723q0 -189 -40.5 -328.5t-112 -230.5t-169 -135.5t-210.5 -44.5t-209.5 44.5t-167.5 135.5t-111 230.5t-40 328.5q0 190 40 329t111 230t167.5 135.5t209.5 44.5t210.5 -44.5t169 -135.5t112 -230t40.5 -329zM855 723q0 157 -23 260t-61.5 164t-88.5 85.5 t-104 24.5q-53 0 -102.5 -24.5t-87.5 -85.5t-60.5 -164t-22.5 -260t22.5 -260t60.5 -164t87.5 -85.5t102.5 -24.5q54 0 104 24.5t88.5 85.5t61.5 164t23 260z" />
<glyph unicode="1" d="M235 185h293v843q0 49 3 103l-208 -174q-18 -14 -35.5 -17.5t-33 -0.5t-27.5 10.5t-18 16.5l-78 107l441 375h203v-1263h260v-185h-800v185z" />
<glyph unicode="2" d="M594 1462q100 0 183 -29.5t142 -83.5t92 -130t33 -169q0 -80 -23.5 -148t-63 -130t-92.5 -120t-111 -118l-327 -333q48 14 94.5 21.5t88.5 7.5h371q40 0 63.5 -22.5t23.5 -59.5v-148h-992v82q0 25 10.5 52.5t33.5 49.5l439 440q55 56 98.5 107t72.5 101t44.5 101.5 t15.5 108.5q0 52 -15 91.5t-42.5 66.5t-66 40.5t-86.5 13.5q-44 0 -81.5 -12.5t-66.5 -35t-49 -52.5t-30 -66q-17 -46 -44 -61t-78 -7l-130 23q15 104 58 182.5t107.5 131t148 79t179.5 26.5z" />
<glyph unicode="3" d="M601 1462q100 0 180.5 -28.5t137.5 -79t87.5 -118.5t30.5 -147q0 -69 -15.5 -121.5t-45 -91.5t-72 -66t-96.5 -45q130 -41 194 -125t64 -211q0 -108 -40 -191t-108 -139.5t-157.5 -85.5t-189.5 -29q-109 0 -190 25t-141 74t-102 120t-72 164l109 45q43 18 80.5 9.5 t54.5 -40.5q18 -35 39.5 -69t51.5 -60.5t70.5 -43t96.5 -16.5q63 0 110 20.5t78.5 53.5t47 73.5t15.5 81.5q0 52 -11 94.5t-46 72.5t-100.5 47t-175.5 17v176q91 1 151 17t95.5 44.5t49.5 68.5t14 88q0 102 -57 155t-152 53q-44 0 -81 -12.5t-66.5 -35t-49.5 -52.5t-30 -66 q-17 -46 -44.5 -61t-77.5 -7l-130 23q15 104 58 182.5t107.5 131t148 79t179.5 26.5z" />
<glyph unicode="4" d="M927 545h182v-143q0 -20 -13 -34.5t-37 -14.5h-132v-353h-215v353h-610q-25 0 -44 15.5t-24 38.5l-26 125l685 915h234v-902zM712 1018q0 67 9 147l-449 -620h440v473z" />
<glyph unicode="5" d="M999 1341q0 -53 -33 -86t-112 -33h-397l-52 -302q98 20 178 20q114 0 201 -34t146 -94t89 -140.5t30 -173.5q0 -115 -40.5 -210t-112.5 -162.5t-170.5 -104.5t-214.5 -37q-68 0 -129 14t-114.5 37.5t-99 54t-81.5 64.5l76 105q24 34 63 34q25 0 51 -16t59.5 -35t79 -35 t109.5 -16q68 0 120 22t86.5 61.5t52 94t17.5 118.5q0 118 -68.5 184.5t-202.5 66.5q-103 0 -211 -38l-154 44l120 702h714v-105z" />
<glyph unicode="6" d="M522 921q-14 -17 -26.5 -32t-24.5 -31q42 21 90.5 33t105.5 12q82 0 159.5 -27t136.5 -81.5t95 -135.5t36 -189q0 -101 -37 -189.5t-104 -154.5t-161.5 -104t-208.5 -38q-116 0 -208 37t-157 103.5t-99.5 160t-34.5 207.5q0 102 41.5 209.5t128.5 223.5l345 463 q18 24 52.5 41t79.5 17h220zM321 454q0 -60 16.5 -109.5t49 -84.5t80.5 -54.5t111 -19.5q59 0 108.5 20t85 56t55.5 84.5t20 105.5q0 62 -19 111.5t-54 84t-84 52.5t-108 18t-107 -20t-82 -55.5t-53 -84t-19 -104.5z" />
<glyph unicode="7" d="M1092 1446v-107q0 -48 -10 -77.5t-20 -49.5l-548 -1128q-17 -35 -48 -59.5t-83 -24.5h-179l559 1105q18 34 36.5 62.5t41.5 54.5h-691q-23 0 -40 17t-17 40v167h999z" />
<glyph unicode="8" d="M580 -16q-112 0 -204.5 30t-158.5 85t-102.5 133t-36.5 174q0 128 63 216.5t196 131.5q-106 44 -158.5 125t-52.5 195q0 82 33.5 153t93.5 123.5t143.5 82t183.5 29.5t183.5 -29.5t143.5 -82t93.5 -123.5t33.5 -153q0 -114 -53 -195t-158 -125q133 -43 196 -131.5 t63 -216.5q0 -96 -36.5 -174t-102.5 -133t-158.5 -85t-204.5 -30zM580 177q61 0 107 17.5t77.5 48.5t47.5 74t16 93q0 119 -66 180t-182 61t-182 -61t-66 -180q0 -50 16 -93t47.5 -74t77.5 -48.5t107 -17.5zM580 845q60 0 101 19t66 50.5t35.5 72t10.5 83.5q0 41 -13 78 t-39 65.5t-66 45.5t-95 17t-95 -17t-66.5 -45.5t-39 -65.5t-12.5 -78q0 -43 10.5 -83.5t35.5 -72t66 -50.5t101 -19z" />
<glyph unicode="9" d="M658 561q17 21 32 41t29 40q-50 -32 -110 -48.5t-126 -16.5q-75 0 -147 26t-128 78.5t-90.5 130t-34.5 181.5q0 97 36 182t101 149t156 101t201 37q111 0 199.5 -35t151 -98t96 -151t33.5 -193q0 -67 -11.5 -127t-32.5 -115.5t-51 -108.5t-67 -105l-331 -472 q-17 -24 -51 -40.5t-77 -16.5h-227zM821 1010q0 59 -18 105.5t-51 78.5t-78.5 49t-99.5 17q-56 0 -101 -18.5t-77 -51.5t-49 -78.5t-17 -99.5q0 -121 62.5 -184.5t177.5 -63.5q60 0 107 19t79 52t48.5 78t16.5 97z" />
<glyph unicode=":" horiz-adv-x="515" d="M106 0zM106 136q0 31 11.5 59t31.5 48t48 32t60 12t59.5 -12t48 -32t32.5 -48t12 -59q0 -32 -12 -59.5t-32.5 -47.5t-48 -31.5t-59.5 -11.5t-60 11.5t-48 31.5t-31.5 47.5t-11.5 59.5zM106 849q0 31 11.5 59t31.5 48t48 32t60 12t59.5 -12t48 -32t32.5 -48t12 -59 q0 -32 -12 -59.5t-32.5 -47.5t-48 -31.5t-59.5 -11.5t-60 11.5t-48 31.5t-31.5 47.5t-11.5 59.5z" />
<glyph unicode=";" horiz-adv-x="541" d="M117 0zM124 152q0 28 10.5 52.5t29.5 43t46 29t59 10.5q38 0 66.5 -13.5t47 -37t28 -54t9.5 -64.5q0 -48 -14.5 -101t-42.5 -106t-69.5 -103t-94.5 -92l-43 39q-18 15 -18 37q0 8 5.5 18t13.5 18q11 12 27 29.5t32 40t29.5 49t19.5 56.5q-31 0 -57 11.5t-44.5 31.5 t-29 47t-10.5 59zM117 849q0 31 11.5 59t31.5 48t48 32t60 12t59.5 -12t48 -32t32.5 -48t12 -59q0 -32 -12 -59.5t-32.5 -47.5t-48 -31.5t-59.5 -11.5t-60 11.5t-48 31.5t-31.5 47.5t-11.5 59.5z" />
<glyph unicode="&#x3c;" d="M151 724l793 413v-176q0 -20 -10 -36.5t-33 -28.5l-363 -186q-23 -12 -48.5 -20.5t-54.5 -15.5q56 -13 103 -36l363 -187q23 -11 33 -28t10 -37v-176l-793 414v100z" />
<glyph unicode="=" d="M137 588h886v-184h-886v184zM137 940h886v-183h-886v183z" />
<glyph unicode="&#x3e;" d="M1009 624l-793 -414v176q0 20 10 37t33 28l363 187q44 22 103 36q-29 7 -54.5 15.5t-48.5 20.5l-363 186q-23 12 -33 28.5t-10 36.5v176l793 -413v-100z" />
<glyph unicode="?" horiz-adv-x="920" d="M71 1315q34 30 74.5 57t87.5 47t102 31.5t119 11.5q87 0 158.5 -24t122.5 -68.5t79 -107.5t28 -141q0 -76 -22 -131.5t-55 -96.5t-72.5 -71t-74.5 -56.5t-60.5 -52t-30.5 -57.5l-23 -146h-169l-17 163q-6 47 13.5 82.5t52 65t72.5 57t75 60t58.5 73t23.5 96.5 q0 36 -13.5 64.5t-37.5 49t-57.5 31.5t-72.5 11q-57 0 -96.5 -12.5t-67 -28t-46.5 -28t-34 -12.5q-36 0 -52 30zM260 136q0 31 11.5 59t31.5 48t48 32t60 12t59.5 -12t48 -32t32.5 -48t12 -59q0 -32 -12 -59.5t-32.5 -47.5t-48 -31.5t-59.5 -11.5t-60 11.5t-48 31.5 t-31.5 47.5t-11.5 59.5z" />
<glyph unicode="@" horiz-adv-x="1687" d="M1190 184q-69 0 -122 32t-74 103q-59 -72 -125 -103t-142 -31q-63 0 -109.5 22t-78 60.5t-47 91t-15.5 114.5q0 57 14.5 115.5t43.5 113t72.5 102t102 83t132 56t161.5 20.5q78 0 133 -12t106 -34l-96 -371q-16 -64 -15.5 -104.5t12.5 -64t34 -32.5t50 -9q42 0 79.5 26.5 t65.5 74.5t44.5 114t16.5 144q0 130 -40.5 229t-113.5 165.5t-173.5 100t-220.5 33.5q-132 0 -244 -49.5t-194.5 -135.5t-129 -203t-46.5 -252q0 -164 51 -288.5t140 -208t209.5 -125.5t260.5 -42q77 0 144 8.5t123 23t102 33t82 39.5q26 15 46 9t29 -30l34 -89 q-104 -68 -243 -111t-317 -43q-181 0 -335 57t-266.5 163.5t-176 259.5t-63.5 344q0 107 27.5 208t78.5 189.5t123 162.5t160 127t190.5 82.5t214.5 29.5q142 0 272.5 -47.5t231 -136t160.5 -216t60 -287.5q0 -107 -31.5 -200.5t-88 -162.5t-133 -108.5t-166.5 -39.5z M776 344q26 0 52.5 8t50.5 28.5t44 54.5t33 85l73 282q-32 6 -66 6q-62 0 -116 -27t-93.5 -73t-62.5 -105.5t-23 -123.5t27.5 -99.5t80.5 -35.5z" />
<glyph unicode="A" horiz-adv-x="1389" d="M1400 0h-208q-35 0 -57 17.5t-33 43.5l-108 295h-599l-108 -295q-8 -23 -31 -42t-57 -19h-210l569 1446h274zM464 546h461l-176 481q-13 32 -27 75.5t-28 94.5q-14 -51 -27.5 -95t-26.5 -77z" />
<glyph unicode="B" horiz-adv-x="1317" d="M161 0v1446h498q142 0 243 -27t165.5 -77t94.5 -121t30 -160q0 -51 -15 -97.5t-46.5 -87t-80 -73.5t-115.5 -56q298 -67 298 -322q0 -92 -35 -170t-102 -134.5t-165 -88.5t-224 -32h-546zM430 634v-424h272q75 0 126 18t81.5 48t44 70t13.5 85q0 47 -15 84.5t-47 64 t-82.5 40.5t-121.5 14h-271zM430 820h214q138 0 208.5 50t70.5 159q0 113 -64 161t-200 48h-229v-418z" />
<glyph unicode="C" horiz-adv-x="1323" d="M1154 341q22 0 39 -17l106 -115q-88 -109 -216.5 -167t-308.5 -58q-161 0 -289.5 55t-219.5 153t-139.5 234t-48.5 297q0 163 52 298.5t146.5 233.5t225.5 152.5t290 54.5q158 0 280.5 -52t208.5 -136l-90 -125q-8 -12 -20.5 -21t-34.5 -9q-15 0 -31 8.5t-35 21t-44 27.5 t-58 27.5t-76.5 21t-100.5 8.5q-97 0 -177.5 -34.5t-138.5 -100t-90 -160t-32 -215.5q0 -122 34.5 -217t93.5 -160t139 -99.5t172 -34.5q55 0 99.5 6t82 19t71 33.5t66.5 50.5q10 9 21 14.5t23 5.5z" />
<glyph unicode="D" horiz-adv-x="1521" d="M1445 723q0 -159 -53 -292t-149 -229t-231 -149t-300 -53h-551v1446h551q165 0 300 -53.5t231 -149t149 -228.5t53 -292zM1169 723q0 119 -31.5 213.5t-91 160t-144 100.5t-190.5 35h-281v-1018h281q106 0 190.5 35t144 100.5t91 160t31.5 213.5z" />
<glyph unicode="E" horiz-adv-x="1150" d="M1073 1446v-214h-642v-401h506v-207h-506v-409h642v-215h-912v1446h912z" />
<glyph unicode="F" horiz-adv-x="1132" d="M1073 1446v-214h-642v-428h542v-215h-542v-589h-270v1446h912z" />
<glyph unicode="G" horiz-adv-x="1452" d="M1353 140q-110 -81 -234.5 -118.5t-266.5 -37.5q-177 0 -320.5 55t-245 153t-156.5 234t-55 297q0 163 53 299t150.5 234t236.5 152t312 54q88 0 164.5 -14t142 -38.5t119.5 -59.5t99 -77l-77 -122q-18 -29 -47 -35.5t-63 14.5l-66 38t-73.5 33t-91 23t-116.5 9 q-107 0 -193.5 -36t-147.5 -103t-94 -161t-33 -210q0 -124 35.5 -221.5t100 -165t155.5 -103t203 -35.5q80 0 143 16.5t123 45.5v263h-182q-26 0 -40.5 14.5t-14.5 35.5v152h480v-585v0z" />
<glyph unicode="H" horiz-adv-x="1541" d="M1380 0h-270v632h-679v-632h-270v1446h270v-622h679v622h270v-1446z" />
<glyph unicode="I" horiz-adv-x="593" d="M431 0h-270v1446h270v-1446z" />
<glyph unicode="J" horiz-adv-x="859" d="M712 514q0 -122 -30 -220t-89.5 -167t-148.5 -106t-207 -37q-54 0 -106 6.5t-109 20.5q3 40 7 80t7 80q3 22 17.5 35.5t41.5 13.5q17 0 44.5 -7t69.5 -7q57 0 101 16.5t73.5 52.5t44.5 93.5t15 139.5v938h269v-932z" />
<glyph unicode="K" horiz-adv-x="1371" d="M430 840h63q38 0 63 10.5t43 33.5l399 505q25 32 52.5 44.5t69.5 12.5h232l-487 -601q-43 -55 -89 -78q33 -12 59.5 -33.5t50.5 -56.5l502 -677h-237q-48 0 -71.5 13.5t-39.5 39.5l-409 534q-19 27 -44 38t-72 11h-85v-636h-269v1446h269v-606z" />
<glyph unicode="L" horiz-adv-x="1039" d="M430 222h578v-222h-847v1446h269v-1224z" />
<glyph unicode="M" horiz-adv-x="1890" d="M887 600q17 -32 31.5 -66.5t28.5 -69.5q14 37 29 71.5t32 66.5l427 801q8 15 17 24t19.5 13t23.5 5t31 1h203v-1446h-237v934q0 26 1.5 57t4.5 63l-437 -820q-31 -59 -95 -59h-38q-64 0 -95 59l-442 823q3 -33 5 -64.5t2 -58.5v-934h-237v1446h203q18 0 31 -1t23.5 -5 t19 -13t16.5 -24l433 -803v0z" />
<glyph unicode="N" horiz-adv-x="1541" d="M302 1446q17 0 29.5 -1.5t22 -6t18.5 -13t20 -22.5l758 -968q-3 35 -5 69t-2 63v879h237v-1446h-138q-32 0 -53.5 10.5t-41.5 35.5l-755 963q3 -32 4.5 -63.5t1.5 -57.5v-888h-237v1446h141v0z" />
<glyph unicode="O" horiz-adv-x="1616" d="M1540 723q0 -159 -52.5 -294.5t-148.5 -234.5t-231 -154.5t-300 -55.5q-164 0 -299 55.5t-231.5 154.5t-149.5 234.5t-53 294.5t53 294.5t149.5 234.5t231.5 154.5t299 55.5q110 0 207 -25.5t178 -72t145.5 -113t109.5 -148.5t68.5 -178t23.5 -202zM1265 723 q0 119 -32 213.5t-91 160.5t-143.5 101t-190.5 35t-190.5 -35t-144 -101t-91.5 -160.5t-32 -213.5t32 -213.5t91.5 -160t144 -100.5t190.5 -35t190.5 35t143.5 100.5t91 160t32 213.5z" />
<glyph unicode="P" horiz-adv-x="1238" d="M430 509v-509h-269v1446h470q145 0 251 -34t175 -95t102.5 -146t33.5 -186q0 -105 -35 -192.5t-105 -150.5t-175.5 -98t-246.5 -35h-201zM430 719h201q74 0 129 18.5t91.5 53t54.5 84t18 110.5q0 58 -18 105t-54 80t-91 50.5t-130 17.5h-201v-519z" />
<glyph unicode="Q" horiz-adv-x="1616" d="M1541 723q0 -97 -20 -185.5t-57.5 -166t-91.5 -142t-123 -113.5l367 -399h-222q-48 0 -86.5 13t-70.5 48l-212 234q-51 -14 -104.5 -21t-111.5 -7q-164 0 -299 55.5t-231.5 154.5t-149.5 234.5t-53 294.5t53 294.5t149.5 234.5t231.5 154.5t299 55.5q110 0 207 -25.5 t178 -72t145.5 -113t109.5 -148.5t68.5 -178t23.5 -202zM1266 723q0 119 -32 213.5t-91 160.5t-143.5 101t-190.5 35t-190.5 -35t-144 -101t-91.5 -160.5t-32 -213.5t32 -213.5t91.5 -160t144 -100.5t190.5 -35t190.5 35t143.5 100.5t91 160t32 213.5z" />
<glyph unicode="R" horiz-adv-x="1286" d="M430 565v-565h-269v1446h441q147 0 252.5 -30.5t173 -85.5t99.5 -131.5t32 -168.5q0 -73 -21.5 -138t-62 -118t-100 -93t-135.5 -64q51 -29 88 -83l362 -534h-243q-69 0 -100 54l-304 463q-17 26 -37.5 37t-60.5 11h-115zM430 758h168q76 0 132.5 19t93 52.5t54.5 79.5 t18 101q0 110 -72.5 169t-221.5 59h-172v-480z" />
<glyph unicode="S" horiz-adv-x="1097" d="M931 1183q-12 -21 -25.5 -30.5t-33.5 -9.5q-21 0 -45.5 15.5t-58.5 34.5t-79.5 34.5t-107.5 15.5q-56 0 -98 -13.5t-70.5 -37.5t-42.5 -57.5t-14 -73.5q0 -51 28.5 -85t75.5 -58t107 -43t123 -40.5t123 -50t107 -72t75.5 -106.5t28.5 -153q0 -98 -33.5 -183.5t-98 -149 t-157.5 -100t-213 -36.5q-69 0 -136 13.5t-128.5 38.5t-115.5 60t-96 78l79 129q10 14 26 23.5t34 9.5q25 0 54 -20.5t69 -45.5t93.5 -45.5t128.5 -20.5q115 0 178 54.5t63 156.5q0 57 -28.5 93t-75.5 60.5t-107 41.5t-122 37t-122 48t-107 73t-75.5 112.5t-28.5 166.5 q0 79 31.5 154t91.5 133t148 93t202 35q128 0 236 -40t184 -112z" />
<glyph unicode="T" horiz-adv-x="1200" d="M1171 1446v-221h-436v-1225h-269v1225h-436v221h1141z" />
<glyph unicode="U" horiz-adv-x="1485" d="M743 217q78 0 139.5 26t103.5 73t64.5 114t22.5 150v866h269v-866q0 -129 -41.5 -238.5t-119 -189t-188.5 -124t-250 -44.5q-140 0 -251 44.5t-188.5 124t-119 189t-41.5 238.5v866h269v-865q0 -83 22.5 -150t65 -114.5t104 -73.5t139.5 -26z" />
<glyph unicode="V" horiz-adv-x="1389" d="M-11 1446h216q35 0 57 -17t33 -44l341 -882q17 -43 32.5 -94.5t29.5 -107.5q11 56 25.5 107.5t31.5 94.5l339 882q8 23 31.5 42t57.5 19h217l-584 -1446h-243z" />
<glyph unicode="W" horiz-adv-x="2102" d="M17 1446h225q35 0 58.5 -16.5t31.5 -44.5l246 -865q8 -32 15.5 -69.5t15.5 -79.5q8 42 17.5 79.5t20.5 69.5l284 865q8 23 31.5 42t57.5 19h79q35 0 57 -17t33 -44l283 -865q21 -62 38 -143q13 79 29 143l246 865q6 25 30.5 43t58.5 18h211l-449 -1446h-243l-316 988 q-7 19 -13 41t-12 46q-5 -24 -11.5 -46t-12.5 -41l-319 -988h-244z" />
<glyph unicode="X" horiz-adv-x="1341" d="M483 744l-461 702h268q28 0 40.5 -7.5t23.5 -24.5l328 -530q5 12 11 24.5t14 25.5l302 475q11 19 24 28t33 9h257l-465 -691l478 -755h-268q-28 0 -44.5 14t-26.5 32l-335 554q-7 -22 -19 -42l-321 -512q-12 -17 -27.5 -31.5t-40.5 -14.5h-251z" />
<glyph unicode="Y" horiz-adv-x="1296" d="M782 560v-560h-268v560l-527 886h237q35 0 55.5 -17t34.5 -43l264 -483q23 -44 40.5 -82t31.5 -75q13 38 30 76t39 81l263 483q11 22 33 41t56 19h238z" />
<glyph unicode="Z" horiz-adv-x="1211" d="M1157 1446v-99q0 -46 -26 -84l-742 -1048h751v-215h-1100v106q0 20 7 38.5t18 34.5l744 1053h-722v214h1070z" />
<glyph unicode="[" horiz-adv-x="627" d="M165 -308v1855h410v-97q0 -26 -18 -44.5t-47 -18.5h-139v-1535h139q29 0 47 -18.5t18 -44.5v-97h-410z" />
<glyph unicode="\" horiz-adv-x="932" d="M58 1486h106q44 0 77 -22.5t49 -64.5l584 -1494h-105q-39 0 -76.5 23t-54.5 69z" />
<glyph unicode="]" horiz-adv-x="627" d="M52 -308v97q0 26 18 44.5t47 18.5h139v1535h-139q-29 0 -47 18.5t-18 44.5v97h410v-1855h-410z" />
<glyph unicode="^" d="M1061 681h-181q-23 0 -38 12t-24 30l-190 384q-16 32 -28 60.5t-21 57.5q-9 -29 -20 -57.5t-25 -60.5l-180 -384q-8 -18 -24 -30t-41 -12h-190l397 765h160z" />
<glyph unicode="_" horiz-adv-x="933" d="M860 -134v-160h-788v160h788z" />
<glyph unicode="`" horiz-adv-x="800" d="M311 1462q41 0 61 -13.5t34 -39.5l143 -243h-141q-28 0 -45.5 7.5t-35.5 27.5l-247 261h231z" />
<glyph unicode="a" horiz-adv-x="1015" d="M793 0q-35 0 -54 10.5t-30 42.5l-22 73q-39 -35 -76 -61.5t-77 -44.5t-85.5 -27t-100.5 -9q-65 0 -120 17.5t-95 52.5t-62 87t-22 121q0 58 30.5 114.5t101.5 102t189 75.5t294 34v60q0 103 -44 152.5t-127 49.5q-60 0 -99.5 -14t-69.5 -31.5t-54.5 -31.5t-54.5 -14 q-26 0 -44 13.5t-29 31.5l-44 79q177 162 426 162q90 0 161 -29.5t120 -82t74.5 -125.5t25.5 -160v-648h-112zM424 154q76 0 131.5 27.5t108.5 83.5v173q-108 -5 -180.5 -18.5t-116.5 -34.5t-63 -49t-19 -61q0 -65 38.5 -93t100.5 -28z" />
<glyph unicode="b" horiz-adv-x="1135" d="M122 0v1486h247v-587q62 66 137.5 104.5t172.5 38.5q89 0 160.5 -35t122 -100.5t77.5 -158.5t27 -209q0 -125 -31 -227t-88.5 -174.5t-138.5 -112.5t-180 -40q-48 0 -87.5 9.5t-72 26.5t-60 41.5t-52.5 54.5l-11 -69q-6 -26 -20.5 -37t-39.5 -11h-163zM594 850 q-71 0 -124 -32.5t-101 -91.5v-460q42 -52 91.5 -72.5t104.5 -20.5q57 0 102.5 20.5t77.5 64t49 111t17 161.5q0 169 -56 244.5t-161 75.5z" />
<glyph unicode="c" horiz-adv-x="964" d="M857 809q-11 -14 -21.5 -22t-30.5 -8q-19 0 -37 11.5t-43 26t-59.5 26t-85.5 11.5q-65 0 -114 -23.5t-81.5 -67.5t-48.5 -106.5t-16 -141.5q0 -82 17.5 -146t50.5 -107.5t80 -66t106 -22.5t95.5 14.5t61.5 32t43.5 32t41.5 14.5q30 0 45 -23l71 -90q-41 -48 -89 -80.5 t-99.5 -52t-106 -27.5t-108.5 -8q-95 0 -179 35.5t-147 103.5t-99.5 166.5t-36.5 224.5q0 113 32.5 209.5t95.5 167t156 110.5t214 40q115 0 201.5 -37t155.5 -106z" />
<glyph unicode="d" horiz-adv-x="1135" d="M862 0q-49 0 -62 45l-21 99q-32 -36 -67 -65t-75.5 -50t-87 -32.5t-100.5 -11.5q-84 0 -154 35t-120.5 101.5t-78 164.5t-27.5 224q0 114 31 212t89 170t139 112.5t182 40.5q86 0 147 -27.5t109 -73.5v542h247v-1486h-151zM533 181q77 0 131 32t102 91v460 q-42 51 -91.5 72t-106.5 21q-56 0 -101 -21t-77 -63.5t-49 -108t-17 -154.5q0 -90 14.5 -152.5t41.5 -102t66 -57t87 -17.5z" />
<glyph unicode="e" horiz-adv-x="1068" d="M559 1042q97 0 179 -31t141 -90.5t92.5 -146t33.5 -197.5q0 -56 -12 -75.5t-46 -19.5h-635q6 -79 28 -136.5t58 -95t85.5 -56t109.5 -18.5t103.5 14t76 31t57 31t47.5 14q31 0 46 -23l71 -90q-41 -48 -92 -80.5t-106.5 -52t-113 -27.5t-111.5 -8q-107 0 -199 35.5 t-160 105t-107 172t-39 237.5q0 105 34 197.5t97.5 161t155 108.5t206.5 40zM564 865q-108 0 -169 -61t-78 -173h466q0 48 -13.5 90.5t-40.5 74.5t-68.5 50.5t-96.5 18.5z" />
<glyph unicode="f" horiz-adv-x="717" d="M194 0v840l-89 14q-29 6 -46.5 20.5t-17.5 41.5v101h153v76q0 88 26.5 158t76 119t120.5 75t160 26q71 0 132 -19l-5 -124q-1 -14 -8 -22.5t-18.5 -13t-26.5 -6t-32 -1.5q-44 0 -78.5 -9.5t-58.5 -33t-36.5 -62t-12.5 -95.5v-68h267v-176h-259v-841h-247z" />
<glyph unicode="g" horiz-adv-x="1056" d="M497 1044q66 0 123.5 -13.5t106.5 -39.5h295v-92q0 -44 -53 -54l-92 -17q10 -26 15.5 -55t5.5 -61q0 -76 -30.5 -137.5t-84.5 -104.5t-127.5 -66.5t-158.5 -23.5q-58 0 -113 11q-48 -29 -48 -65q0 -31 28.5 -45.5t75.5 -20.5t107 -7.5t123 -6.5t123 -17.5t107 -39.5 t75.5 -73.5t28.5 -119.5q0 -68 -33.5 -132t-97 -114t-156 -80.5t-210.5 -30.5q-116 0 -202 22.5t-143 60t-85 86.5t-28 102q0 71 43.5 120t118.5 78q-40 21 -64 56t-24 92q0 23 8 47.5t24.5 48.5t42 45.5t59.5 38.5q-78 42 -122.5 112t-44.5 164q0 76 30.5 137.5t85 105 t129 66.5t162.5 23zM776 -46q0 30 -18 48.5t-49 29.5t-72.5 16t-88 7.5t-96 4.5t-96.5 8q-41 -23 -66.5 -54t-25.5 -72q0 -27 13.5 -50.5t43 -40.5t76.5 -26.5t115 -9.5q69 0 119 10.5t82.5 29t47.5 44t15 55.5zM497 538q46 0 80 12.5t56.5 34.5t34 53t11.5 68 q0 76 -45.5 120.5t-136.5 44.5t-136.5 -44.5t-45.5 -120.5q0 -36 11.5 -67t34 -53.5t57 -35t79.5 -12.5z" />
<glyph unicode="h" horiz-adv-x="1128" d="M122 0v1486h247v-571q60 57 132 92t169 35q84 0 149 -28.5t108.5 -80t66 -123t22.5 -157.5v-653h-247v653q0 94 -43 145.5t-131 51.5q-64 0 -120 -29t-106 -79v-742h-247z" />
<glyph unicode="i" horiz-adv-x="508" d="M378 1026v-1026h-248v1026h248zM412 1325q0 -32 -13 -60t-34.5 -49t-50.5 -33.5t-62 -12.5q-32 0 -60.5 12.5t-49.5 33.5t-33.5 49t-12.5 60q0 33 12.5 62t33.5 50t49.5 33.5t60.5 12.5q33 0 62 -12.5t50.5 -33.5t34.5 -50t13 -62z" />
<glyph unicode="j" horiz-adv-x="508" d="M378 1026v-1061q0 -67 -17.5 -126t-56 -103.5t-101 -70t-152.5 -25.5q-35 0 -65 4.5t-62 14.5l9 133q3 20 16 25.5t50 5.5t62.5 7.5t40.5 24t21.5 43.5t6.5 67v1061h248zM412 1325q0 -32 -13 -60t-34.5 -49t-51 -33.5t-62.5 -12.5q-32 0 -60 12.5t-49 33.5t-33.5 49 t-12.5 60q0 33 12.5 62t33.5 50t49 33.5t60 12.5q33 0 62.5 -12.5t51 -33.5t34.5 -50t13 -62z" />
<glyph unicode="k" horiz-adv-x="1069" d="M369 1486v-851h46q25 0 39.5 6.5t29.5 26.5l255 315q16 21 35.5 32t50.5 11h226l-319 -381q-34 -45 -74 -69q21 -15 37.5 -35t31.5 -43l342 -498h-223q-29 0 -50 9.5t-35 34.5l-262 389q-14 23 -29 30t-45 7h-56v-470h-247v1486h247z" />
<glyph unicode="l" horiz-adv-x="497" d="M372 1486v-1486h-247v1486h247z" />
<glyph unicode="m" horiz-adv-x="1675" d="M122 0v1026h151q48 0 63 -45l16 -76q27 30 56.5 55t63 43t72 28.5t84.5 10.5q97 0 159.5 -52.5t93.5 -139.5q24 51 60 87.5t79 59.5t91.5 34t97.5 11q85 0 151 -26t111 -76t68.5 -122t23.5 -165v-653h-247v653q0 98 -43 147.5t-126 49.5q-38 0 -70.5 -13t-57 -37.5 t-38.5 -61.5t-14 -85v-653h-248v653q0 103 -41.5 150t-121.5 47q-54 0 -100.5 -26.5t-86.5 -72.5v-751h-247z" />
<glyph unicode="n" horiz-adv-x="1128" d="M122 0v1026h151q48 0 63 -45l17 -81q31 32 65.5 58t73 45t82.5 29t96 10q84 0 149 -28.5t108.5 -80t66 -123t22.5 -157.5v-653h-247v653q0 94 -43 145.5t-131 51.5q-64 0 -120 -29t-106 -79v-742h-247z" />
<glyph unicode="o" horiz-adv-x="1149" d="M576 1042q114 0 207.5 -37t160 -105t102.5 -166t36 -219q0 -122 -36 -220t-102.5 -167t-160 -106t-207.5 -37q-115 0 -209 37t-160.5 106t-103 167t-36.5 220q0 121 36.5 219t103 166t160.5 105t209 37zM576 175q128 0 189.5 86t61.5 252t-61.5 253t-189.5 87 q-130 0 -192.5 -87.5t-62.5 -252.5t62.5 -251.5t192.5 -86.5z" />
<glyph unicode="p" horiz-adv-x="1136" d="M122 -335v1361h151q48 0 63 -45l20 -95q62 71 142.5 115t188.5 44q84 0 153.5 -35t120 -101.5t78 -164t27.5 -223.5q0 -115 -31 -213t-88.5 -170t-139 -112.5t-182.5 -40.5q-87 0 -147.5 26.5t-108.5 73.5v-420h-247zM602 850q-77 0 -131.5 -32.5t-101.5 -91.5v-460 q42 -52 91.5 -72.5t107.5 -20.5q56 0 101 21t76.5 64t48.5 108.5t17 154.5q0 90 -14.5 152.5t-41.5 101.5t-65.5 57t-87.5 18z" />
<glyph unicode="q" horiz-adv-x="1135" d="M1013 1026v-1361h-247v464q-31 -33 -65.5 -59.5t-73.5 -45t-83 -29t-95 -10.5q-84 0 -154 35t-120.5 101.5t-78 164.5t-27.5 224q0 114 31 212t89 170t139 112.5t182 40.5q48 0 87.5 -8.5t73 -24.5t61.5 -38.5t54 -50.5l14 58q13 45 62 45h151zM533 181q77 0 131 32 t102 91v460q-42 51 -91.5 72t-106.5 21q-56 0 -101 -21t-77 -63.5t-49 -108t-17 -154.5q0 -90 14.5 -152.5t41.5 -102t66 -57t87 -17.5z" />
<glyph unicode="r" horiz-adv-x="746" d="M122 0v1026h145q38 0 53 -13.5t20 -48.5l14 -116q49 92 115 144.5t156 52.5q71 0 114 -31l-16 -185q-5 -18 -14.5 -25.5t-25.5 -7.5q-15 0 -44.5 5t-57.5 5q-41 0 -73 -12t-57.5 -34.5t-45 -54.5t-36.5 -73v-632h-247z" />
<glyph unicode="s" horiz-adv-x="879" d="M748 826q-10 -16 -21 -22.5t-28 -6.5q-18 0 -38.5 10t-47.5 22.5t-61.5 22.5t-81.5 10q-73 0 -114.5 -31t-41.5 -81q0 -33 21.5 -55.5t57 -39.5t80.5 -30.5t91.5 -29.5t91.5 -36.5t80.5 -52t57 -75.5t21.5 -106q0 -74 -26.5 -136.5t-78.5 -108t-128.5 -71t-176.5 -25.5 q-53 0 -103.5 9.5t-97 26.5t-86 40t-69.5 50l57 94q11 17 26 26t38 9t43.5 -13t47.5 -28t63.5 -28t92.5 -13q44 0 75.5 10.5t52 27.5t30 39.5t9.5 46.5q0 36 -21.5 59t-57 40t-81 30.5t-93 29.5t-93 37.5t-81 54.5t-57 81t-21.5 116q0 63 25 120t73.5 99.5t121 68 t167.5 25.5q106 0 193 -35t145 -92z" />
<glyph unicode="t" horiz-adv-x="744" d="M464 -16q-134 0 -205.5 75.5t-71.5 208.5v573h-105q-20 0 -34 13t-14 39v98l165 27l52 280q5 20 19 31t36 11h128v-323h274v-176h-274v-556q0 -48 23.5 -75t64.5 -27q23 0 38.5 5.5t27 11.5t20.5 11.5t18 5.5q11 0 18 -5.5t15 -16.5l74 -120q-54 -45 -124 -68t-145 -23z " />
<glyph unicode="u" horiz-adv-x="1128" d="M359 1026v-652q0 -94 43.5 -145.5t130.5 -51.5q64 0 120 28.5t106 78.5v742h247v-1026h-151q-49 0 -62 45l-17 82q-32 -32 -66 -58.5t-73 -45.5t-83 -29t-96 -10q-84 0 -148.5 28.5t-108.5 80.5t-66.5 123.5t-22.5 157.5v652h247z" />
<glyph unicode="v" horiz-adv-x="1056" d="M9 1026h204q28 0 46.5 -13t24.5 -33l198 -548q16 -48 27.5 -94t21.5 -92q10 46 22 92t29 94l202 548q7 20 25 33t43 13h195l-407 -1026h-224z" />
<glyph unicode="w" horiz-adv-x="1605" d="M18 1026h197q27 0 46 -13t25 -33l147 -548q11 -45 19 -88t15 -85q11 42 23.5 85t26.5 88l170 550q6 20 23.5 33t42.5 13h109q26 0 44.5 -13t24.5 -33l165 -550q13 -46 24.5 -89t21.5 -86q8 43 17 86t21 89l151 548q7 20 25 33t43 13h188l-326 -1026h-198q-34 0 -47 44 l-184 593q-19 61 -29 118q-12 -60 -30 -120l-187 -591q-12 -44 -53 -44h-190z" />
<glyph unicode="x" horiz-adv-x="1044" d="M357 529l-337 497h238q27 0 40 -7.5t23 -24.5l215 -343q5 17 12.5 34t18.5 34l173 270q22 37 57 37h227l-338 -486l352 -540h-238q-27 0 -43.5 14t-27.5 32l-218 357q-9 -36 -25 -60l-192 -297q-11 -17 -27 -31.5t-40 -14.5h-221z" />
<glyph unicode="y" horiz-adv-x="1055" d="M495 -282q-11 -26 -28.5 -39.5t-53.5 -13.5h-184l192 411l-415 950h217q29 0 45.5 -14t24.5 -32l218 -532q20 -55 33 -109q8 28 17.5 55.5t20.5 54.5l206 531q8 20 26.5 33t41.5 13h198z" />
<glyph unicode="z" horiz-adv-x="919" d="M859 924q0 -26 -9 -51t-24 -41l-488 -642h506v-190h-792v103q0 17 8 40.5t24 44.5l492 649h-495v189h778v-102z" />
<glyph unicode="{" horiz-adv-x="612" d="M177 410q0 61 -28.5 99.5t-91.5 38.5v143q63 0 91.5 38.5t28.5 99.5q0 47 -6.5 93.5t-15 93.5t-15 94.5t-6.5 96.5q0 76 22 138.5t67.5 107.5t115 69.5t163.5 24.5h53v-110q0 -13 -5.5 -22.5t-14 -15.5t-17.5 -9t-16 -3h-9q-70 0 -107 -44t-37 -121q0 -55 6 -105.5 t12.5 -98t12.5 -93.5t6 -93q0 -38 -10.5 -72t-31 -61.5t-49 -48.5t-64.5 -31q36 -11 64.5 -31.5t49 -48.5t31 -62t10.5 -71q0 -47 -6 -93t-12.5 -93.5t-12.5 -98t-6 -105.5q0 -76 37 -120t107 -44h9q7 0 16 -3t17.5 -9t14 -16t5.5 -23v-109h-53q-94 0 -163.5 24.5t-115 69 t-67.5 107t-22 138.5q0 49 6.5 96.5t15 94.5t15 94t6.5 94z" />
<glyph unicode="|" horiz-adv-x="522" d="M165 1547h192v-1891h-192v1891z" />
<glyph unicode="}" horiz-adv-x="612" d="M435 410q0 -47 6.5 -94t15 -94t15 -94.5t6.5 -96.5q0 -76 -22 -138.5t-67.5 -107t-115 -69t-163.5 -24.5h-53v109q0 13 5.5 23t14 16t17.5 9t16 3h9q70 0 106.5 44t36.5 120q0 55 -5.5 105.5t-12.5 98t-12.5 93.5t-5.5 93q0 37 10.5 71t30.5 62t49 48.5t65 31.5 q-36 10 -65 31t-49 48.5t-30.5 61.5t-10.5 72q0 47 5.5 93t12.5 93.5t12.5 98t5.5 105.5q0 77 -36.5 121t-106.5 44h-9q-7 0 -16 3t-17.5 9t-14 15.5t-5.5 22.5v110h53q94 0 163.5 -24.5t115 -69.5t67.5 -107.5t22 -138.5q0 -49 -6.5 -96.5t-15 -94.5t-15 -93.5t-6.5 -93.5 q0 -61 28.5 -99.5t91.5 -38.5v-143q-63 0 -91.5 -38.5t-28.5 -99.5z" />
<glyph unicode="~" d="M748 648q56 0 87 36t31 101h199q0 -77 -20.5 -139.5t-59 -107t-94.5 -68.5t-128 -24q-53 0 -101.5 14t-92 30.5t-81.5 30.5t-70 14q-56 0 -87 -36t-31 -101h-199q0 77 20.5 139.5t59 107t94.5 68.5t128 24q53 0 101.5 -14t92 -30.5t81.5 -30.5t70 -14z" />
<glyph unicode="&#xa1;" horiz-adv-x="540" d="M155 -335v533q0 91 9 178.5t24 185.5h167q15 -98 23.5 -185.5t8.5 -178.5v-533h-232zM117 892q0 32 11.5 59.5t31.5 47.5t48 31.5t60 11.5q31 0 59 -11.5t48.5 -31.5t32.5 -47.5t12 -59.5t-12 -59.5t-32.5 -47.5t-48.5 -32t-59 -12q-32 0 -60 12t-48 32t-31.5 47.5 t-11.5 59.5z" />
<glyph unicode="&#xa2;" d="M535 -8q-89 13 -165.5 54t-132.5 107t-87.5 156.5t-31.5 203.5q0 109 33.5 203.5t98 164.5t158.5 112t216 47l14 157q3 23 20.5 42.5t46.5 19.5h91l-20 -229q79 -14 143 -47.5t118 -83.5l-63 -87q-10 -14 -20.5 -21t-29.5 -7q-14 0 -29.5 6.5t-34.5 16.5t-43.5 20 t-56.5 18l-58 -673q53 5 88.5 19.5t61 29.5t44.5 27t40 12q29 0 45 -21l68 -88q-71 -81 -165.5 -118.5t-197.5 -44.5l-12 -147q-2 -24 -20 -43.5t-46 -19.5h-91zM362 513q0 -134 49 -216.5t140 -111.5l57 667q-125 -16 -185.5 -104t-60.5 -235z" />
<glyph unicode="&#xa3;" d="M37 679q0 34 20.5 58.5t62.5 24.5h107v236q0 94 28.5 178.5t85.5 148t143 100.5t202 37q79 0 142.5 -20.5t113 -55.5t86 -82.5t63.5 -102.5l-99 -63q-35 -18 -66.5 -16t-57.5 32q-19 22 -37.5 40.5t-39.5 32t-46.5 20.5t-58.5 7q-103 0 -154 -67.5t-51 -187.5v-237h409 v-98q0 -24 -20 -44t-50 -20h-339v-194q0 -66 -24.5 -117.5t-66.5 -95.5q36 8 72 12.5t74 4.5h586v-104q0 -18 -7.5 -37t-21.5 -34.5t-34 -25t-44 -9.5h-958v155q33 8 64 22.5t54.5 37t37.5 53t14 71.5v261h-190v79z" />
<glyph unicode="&#xa5;" d="M137 633h275l-398 813h206q35 0 57.5 -16t33.5 -44l218 -488q18 -45 31 -83t22 -75q8 38 20 75.5t30 82.5l217 488q11 23 33 41.5t56 18.5h208l-399 -813h276v-138h-319v-95h319v-137h-319v-263h-248v263h-319v137h319v95h-319v138z" />
<glyph unicode="&#xa7;" horiz-adv-x="1007" d="M820 1245q-17 -30 -49 -30q-18 0 -38.5 10t-47.5 22.5t-61.5 22.5t-81.5 10q-42 0 -74 -9.5t-53.5 -26t-33 -38.5t-11.5 -47q0 -32 23.5 -56t62.5 -45.5t88.5 -41.5t101.5 -42.5t101.5 -49.5t88.5 -62t62.5 -81t23.5 -106q0 -81 -37.5 -146.5t-120.5 -105.5 q45 -37 73.5 -86t28.5 -117q0 -74 -26.5 -136.5t-78.5 -108t-128.5 -71t-176.5 -25.5q-53 0 -103.5 9.5t-97 26.5t-86 40t-69.5 50l58 94q10 17 25 26t38 9t43.5 -13t48.5 -28t67 -28t98 -13q82 0 127.5 34t45.5 94q0 40 -24 69t-64 51.5t-90.5 41t-103 39.5t-103 46.5 t-90.5 60.5t-64 83t-24 114q0 79 41.5 141.5t126.5 99.5q-46 39 -75 92.5t-29 129.5q0 63 24.5 119.5t73.5 99.5t121 68.5t167 25.5q106 0 193.5 -35t144.5 -92zM307 725q0 -42 29 -72.5t75.5 -55t104.5 -47t115 -48.5q40 20 58 50.5t18 66.5q0 44 -28 74.5t-73 55.5 t-101.5 47t-112.5 48q-45 -24 -65 -52.5t-20 -66.5z" />
<glyph unicode="&#xa8;" horiz-adv-x="800" d="M336 1292q0 -28 -11 -52.5t-30.5 -42.5t-45 -28.5t-54.5 -10.5q-27 0 -51.5 10.5t-43 28.5t-29.5 42.5t-11 52.5q0 29 11 54.5t29.5 44.5t43 30t51.5 11q29 0 54.5 -11t45 -30t30.5 -44.5t11 -54.5zM740 1292q0 -28 -11 -52.5t-29.5 -42.5t-44 -28.5t-54.5 -10.5 q-28 0 -53 10.5t-43.5 28.5t-29.5 42.5t-11 52.5q0 29 11 54.5t29.5 44.5t43.5 30t53 11q29 0 54.5 -11t44 -30t29.5 -44.5t11 -54.5z" />
<glyph unicode="&#xa9;" horiz-adv-x="1648" d="M1050 512q20 0 35 -17l82 -87q-56 -71 -141.5 -108.5t-200.5 -37.5q-100 0 -181 35.5t-138 98t-88 147t-31 183.5q0 102 35 187t97 146.5t145.5 95.5t181.5 34q111 0 191 -37.5t134 -95.5l-65 -89q-6 -8 -16.5 -16t-26.5 -8q-17 0 -32 10t-36.5 22t-53.5 22t-83 10 q-60 0 -106.5 -19.5t-79 -56t-49.5 -88.5t-17 -117q0 -68 17.5 -120t48 -87.5t73 -54t93.5 -18.5q49 0 80.5 8t53 19t39 22t39.5 17zM86 723q0 102 26.5 196.5t74.5 176.5t115.5 149.5t149 115.5t175.5 74.5t196 26.5t196.5 -26.5t176.5 -74.5t149.5 -115.5t115.5 -149.5 t74.5 -176.5t26.5 -196.5q0 -101 -26.5 -195.5t-74.5 -176t-115.5 -149t-149.5 -115.5t-176.5 -74.5t-196.5 -26.5t-196 26.5t-175.5 74.5t-149 115.5t-115.5 149t-74.5 175.5t-26.5 196zM221 723q0 -130 46.5 -243t127.5 -196.5t191 -131.5t237 -48q85 0 163 22t145.5 62 t123 96t94.5 125t60.5 148t21.5 166t-21.5 167t-60.5 149.5t-94.5 126t-123 97t-145.5 62.5t-163 22t-162 -22t-144 -62.5t-121.5 -97t-93.5 -126t-60 -149.5t-21 -167z" />
<glyph unicode="&#xaa;" horiz-adv-x="734" d="M539 841q-24 0 -36.5 7t-23.5 29l-12 36q-24 -20 -46 -35t-45 -25t-49.5 -15t-59.5 -5q-42 0 -76 11t-58.5 32.5t-38 53t-13.5 72.5q0 33 17 67.5t59 62.5t113 46.5t179 21.5v25q0 54 -23.5 76.5t-68.5 22.5q-34 0 -56 -7t-39 -16t-32 -16t-36 -7q-19 0 -31.5 10.5 t-20.5 22.5l-31 57q56 51 123 74.5t145 23.5q57 0 102 -18t76.5 -50.5t48 -76.5t16.5 -96v-384h-83zM323 954q38 0 67 13.5t59 42.5v81q-59 -2 -97 -9t-60.5 -17.5t-31.5 -24t-9 -29.5q0 -32 18.5 -44.5t53.5 -12.5z" />
<glyph unicode="&#xab;" horiz-adv-x="911" d="M90 126zM90 522v32l256 396l81 -38q32 -14 37 -40.5t-12 -56.5l-138 -235q-14 -26 -32 -42q16 -14 32 -42l138 -236q17 -30 12 -56t-37 -40l-81 -38zM419 522v32l256 396l81 -38q32 -14 37 -40.5t-12 -56.5l-138 -235q-14 -26 -32 -42q16 -14 32 -42l138 -236 q17 -30 12 -56t-37 -40l-81 -38z" />
<glyph unicode="&#xac;" d="M132 763h887v-466h-210v283h-677v183z" />
<glyph unicode="&#xad;" horiz-adv-x="746" d="M114 707h518v-206h-518v206z" />
<glyph unicode="&#xae;" horiz-adv-x="1648" d="M86 723q0 102 26.5 196.5t74.5 176.5t115.5 149.5t149 115.5t175.5 74.5t196 26.5t196.5 -26.5t176.5 -74.5t149.5 -115.5t115.5 -149.5t74.5 -176.5t26.5 -196.5q0 -101 -26.5 -195.5t-74.5 -176t-115.5 -149t-149.5 -115.5t-176.5 -74.5t-196.5 -26.5t-196 26.5 t-175.5 74.5t-149 115.5t-115.5 149t-74.5 175.5t-26.5 196zM221 723q0 -130 46.5 -243t127.5 -196.5t191 -131.5t237 -48q85 0 163 22t145.5 62t123 96t94.5 125t60.5 148t21.5 166t-21.5 167t-60.5 149.5t-94.5 126t-123 97t-145.5 62.5t-163 22t-162 -22t-144 -62.5 t-121.5 -97t-93.5 -126t-60 -149.5t-21 -167zM712 602v-325h-215v897h322q187 0 274 -67t87 -192q0 -89 -46 -155.5t-143 -97.5q22 -13 37.5 -32.5t29.5 -45.5l181 -307h-205q-45 0 -63 33l-144 263q-10 14 -22.5 21.5t-37.5 7.5h-55zM712 755h88q52 0 84.5 8.5t51 25.5 t25.5 42t7 57q0 31 -6 54.5t-22.5 39t-45.5 23t-75 7.5h-107v-257z" />
<glyph unicode="&#xaf;" horiz-adv-x="800" d="M101 1372h598v-158h-598v158z" />
<glyph unicode="&#xb0;" horiz-adv-x="831" d="M69 1123q0 71 26.5 133.5t73 108.5t110 72.5t136.5 26.5t136.5 -26.5t110 -72.5t73.5 -108.5t27 -133.5q0 -69 -27 -131t-73.5 -108.5t-110 -73.5t-136.5 -27t-136.5 27t-110 73.5t-73 108.5t-26.5 131zM241 1121q0 -37 13 -69t36.5 -55.5t55 -37t69.5 -13.5 q37 0 68.5 13.5t55 37t36.5 55.5t13 69q0 38 -13 70.5t-36.5 56.5t-55 38t-68.5 14q-38 0 -69.5 -14t-55 -38t-36.5 -56.5t-13 -70.5z" />
<glyph unicode="&#xb1;" d="M679 1241v-354h389v-184h-389v-341h-200v341h-387v184h387v354h200zM92 263h976v-183h-976v183z" />
<glyph unicode="&#xb4;" horiz-adv-x="800" d="M746 1462l-247 -261q-19 -20 -36.5 -27.5t-45.5 -7.5h-148l142 243q15 26 35 39.5t60 13.5h240z" />
<glyph unicode="&#xb5;" horiz-adv-x="1320" d="M412 1026v-606q0 -93 43.5 -149t129.5 -56q80 0 136 43.5t91 122.5v645h247v-723q0 -68 32.5 -100t87.5 -32h73v-98q0 -16 -10.5 -31t-30.5 -26.5t-49 -18.5t-65 -7q-42 0 -81.5 12t-72 36.5t-57 62.5t-37.5 89q-54 -84 -122.5 -129.5t-156.5 -45.5q-119 0 -191 63 q10 -43 13.5 -88.5t3.5 -84.5v-240h-123q-52 0 -80 26.5t-28 76.5v1258h247z" />
<glyph unicode="&#xb6;" horiz-adv-x="1474" d="M1402 1446v-207h-214v-1448h-216v1448h-235v-1448h-216v839q-104 0 -188 32.5t-143.5 88t-92 129.5t-32.5 157q0 91 32.5 166t92 129t143.5 84t188 30h881z" />
<glyph unicode="&#xb7;" horiz-adv-x="549" d="M86 595q0 39 14.5 73.5t40 60t59.5 40t73 14.5q40 0 74.5 -14.5t60 -40t40.5 -60t15 -73.5t-15 -72.5t-40.5 -59t-60 -40t-74.5 -14.5q-39 0 -73 14.5t-59.5 40t-40 59t-14.5 72.5z" />
<glyph unicode="&#xb8;" horiz-adv-x="800" d="M281 -234q14 0 30.5 -7.5t48.5 -7.5q33 0 49.5 12.5t16.5 30.5q0 29 -36 41.5t-111 23.5l60 176h138l-27 -96q94 -22 132 -59.5t38 -89.5q0 -34 -17.5 -61t-50 -46t-77.5 -29t-99 -10q-41 0 -76.5 5.5t-70.5 16.5l23 77q6 23 29 23z" />
<glyph unicode="&#xba;" horiz-adv-x="801" d="M402 1464q73 0 133 -22t103 -62.5t66.5 -99t23.5 -131.5q0 -74 -23.5 -133.5t-66.5 -101t-103 -63.5t-133 -22t-133.5 22t-104 63.5t-67.5 101t-24 133.5q0 73 24 131.5t67.5 99t104 62.5t133.5 22zM402 973q67 0 99.5 42.5t32.5 131.5t-32.5 131t-99.5 42 q-70 0 -102.5 -42t-32.5 -131t32.5 -131.5t102.5 -42.5z" />
<glyph unicode="&#xbb;" horiz-adv-x="911" d="M112 126zM492 554v-32l-256 -396l-81 38q-32 14 -37.5 40t11.5 56l139 236q8 13 15.5 23.5t16.5 18.5q-9 8 -16.5 18t-15.5 24l-139 235q-17 30 -11.5 56.5t37.5 40.5l81 38zM821 554v-32l-256 -396l-81 38q-32 14 -37.5 40t11.5 56l139 236q8 13 15.5 23.5t16.5 18.5 q-9 8 -16.5 18t-15.5 24l-139 235q-17 30 -11.5 56.5t37.5 40.5l81 38z" />
<glyph unicode="&#xbf;" horiz-adv-x="910" d="M847 -203q-35 -30 -75 -56.5t-87.5 -47t-102 -32t-118.5 -11.5q-87 0 -158.5 23t-122.5 66t-79 104.5t-28 139.5q0 76 22 129t55 90.5t72.5 63.5t74.5 49t60 46.5t31 55.5l23 145h169l18 -163q6 -51 -13.5 -85t-52.5 -59.5t-73 -47.5t-74.5 -49t-58 -63t-23.5 -90 q0 -36 13.5 -64.5t37.5 -49t57 -31.5t72 -11q57 0 96 13t67 28t47 28t34 13q36 0 52 -31zM352 892q0 31 11.5 59t31.5 48t48 32t60 12t59.5 -12t48 -32t32.5 -48t12 -59q0 -32 -12 -59.5t-32.5 -47.5t-48 -31.5t-59.5 -11.5t-60 11.5t-48 31.5t-31.5 47.5t-11.5 59.5z" />
<glyph unicode="&#xc0;" horiz-adv-x="1389" d="M0 0zM1400 0h-208q-35 0 -57 17.5t-33 43.5l-108 295h-599l-108 -295q-8 -23 -31 -42t-57 -19h-210l569 1446h274zM464 546h461l-176 481q-13 32 -27 75.5t-28 94.5q-14 -51 -27.5 -95t-26.5 -77zM530 1861q20 0 34.5 -1t26 -5.5t21.5 -12.5t21 -22l218 -271h-179 q-29 0 -45.5 3.5t-36.5 20.5l-319 288h259z" />
<glyph unicode="&#xc1;" horiz-adv-x="1389" d="M0 0zM1400 0h-208q-35 0 -57 17.5t-33 43.5l-108 295h-599l-108 -295q-8 -23 -31 -42t-57 -19h-210l569 1446h274zM464 546h461l-176 481q-13 32 -27 75.5t-28 94.5q-14 -51 -27.5 -95t-26.5 -77zM1114 1861l-324 -286q-20 -18 -38 -22t-46 -4h-179l209 271 q10 14 20 22.5t22 12.5t26.5 5t34.5 1h275z" />
<glyph unicode="&#xc2;" horiz-adv-x="1389" d="M0 0zM1400 0h-208q-35 0 -57 17.5t-33 43.5l-108 295h-599l-108 -295q-8 -23 -31 -42t-57 -19h-210l569 1446h274zM464 546h461l-176 481q-13 32 -27 75.5t-28 94.5q-14 -51 -27.5 -95t-26.5 -77zM1051 1549h-179q-15 0 -36.5 5.5t-44.5 32.5l-82 106q-5 5 -8.5 11 t-6.5 11l-15 -22l-82 -106q-23 -27 -44.5 -32.5t-36.5 -5.5h-171l241 275h224z" />
<glyph unicode="&#xc3;" horiz-adv-x="1389" d="M0 0zM1400 0h-208q-35 0 -57 17.5t-33 43.5l-108 295h-599l-108 -295q-8 -23 -31 -42t-57 -19h-210l569 1446h274zM464 546h461l-176 481q-13 32 -27 75.5t-28 94.5q-14 -51 -27.5 -95t-26.5 -77zM819 1699q22 0 38.5 9t27 22.5t15.5 30t5 32.5h151q0 -50 -13.5 -95.5 t-40 -81t-65 -56.5t-88.5 -21q-51 0 -88.5 16t-68.5 34.5t-56.5 34.5t-52.5 16q-23 0 -39 -9t-26 -23t-15 -31t-5 -33h-153q0 49 14 95.5t40.5 82t65 57t88.5 21.5q51 0 89 -16t68 -34.5t56 -34.5t53 -16z" />
<glyph unicode="&#xc4;" horiz-adv-x="1389" d="M0 0zM1400 0h-208q-35 0 -57 17.5t-33 43.5l-108 295h-599l-108 -295q-8 -23 -31 -42t-57 -19h-210l569 1446h274zM464 546h461l-176 481q-13 32 -27 75.5t-28 94.5q-14 -51 -27.5 -95t-26.5 -77zM608 1667q0 -27 -11 -51t-29.5 -42t-43.5 -28t-53 -10q-26 0 -49.5 10 t-41.5 28t-29 42t-11 51t11 51.5t29 43t41.5 29.5t49.5 11q28 0 53 -11t43.5 -29.5t29.5 -43t11 -51.5zM1048 1667q0 -27 -10.5 -51t-29 -42t-43 -28t-51.5 -10q-28 0 -52.5 10t-42.5 28t-28.5 42t-10.5 51t10.5 51.5t28.5 43t42.5 29.5t52.5 11q27 0 51.5 -11t43 -29.5 t29 -43t10.5 -51.5z" />
<glyph unicode="&#xc5;" horiz-adv-x="1389" d="M0 0zM1400 0h-208q-35 0 -57 17.5t-33 43.5l-108 295h-599l-108 -295q-8 -23 -31 -42t-57 -19h-210l569 1446h274zM464 546h461l-176 481q-13 32 -27 75.5t-28 94.5q-14 -51 -27.5 -95t-26.5 -77zM487 1706q0 43 17 78.5t45.5 60.5t65.5 39t78 14q42 0 80.5 -14t67 -39 t45.5 -60.5t17 -78.5q0 -42 -17 -76t-45.5 -59t-67 -38.5t-80.5 -13.5q-41 0 -78 13.5t-65.5 38.5t-45.5 59t-17 76zM606 1706q0 -39 23 -64t67 -25q40 0 64 25t24 64q0 42 -24 66.5t-64 24.5q-44 0 -67 -24.5t-23 -66.5z" />
<glyph unicode="&#xc6;" horiz-adv-x="1866" d="M1788 1232h-694l49 -401h509v-207h-484l50 -409h570v-215h-797l-44 356h-520l-142 -296q-13 -27 -39 -43.5t-62 -16.5h-204l735 1446h1073v-214zM519 546h405l-86 700q-16 -51 -33.5 -96t-34.5 -83z" />
<glyph unicode="&#xc7;" horiz-adv-x="1323" d="M658 -234q14 0 30.5 -7.5t48.5 -7.5q33 0 49.5 12.5t16.5 30.5q0 29 -36 41.5t-111 23.5l44 129q-144 12 -259.5 71.5t-196.5 156.5t-124 226t-43 281q0 163 52 298.5t146.5 233.5t225.5 152.5t290 54.5q158 0 280.5 -52t208.5 -136l-90 -125q-8 -12 -20.5 -21t-34.5 -9 q-15 0 -31 8.5t-35 21t-44 27.5t-58 27.5t-76.5 21t-100.5 8.5q-97 0 -177.5 -34.5t-138.5 -100t-90 -160t-32 -215.5q0 -122 34.5 -217t93.5 -160t139 -99.5t172 -34.5q55 0 99.5 6t82 19t71 33.5t66.5 50.5q10 9 21 14.5t23 5.5q22 0 39 -17l106 -115q-79 -99 -192 -155.5 t-267 -66.5l-13 -48q94 -22 132 -59.5t38 -89.5q0 -34 -17.5 -61t-50 -46t-77.5 -29t-99 -10q-41 0 -76.5 5.5t-70.5 16.5l23 77q6 23 29 23z" />
<glyph unicode="&#xc8;" horiz-adv-x="1150" d="M161 0zM1073 1446v-214h-642v-401h506v-207h-506v-409h642v-215h-912v1446h912zM468 1861q20 0 34.5 -1t26 -5.5t21.5 -12.5t21 -22l218 -271h-179q-29 0 -45.5 3.5t-36.5 20.5l-319 288h259z" />
<glyph unicode="&#xc9;" horiz-adv-x="1150" d="M161 0zM1073 1446v-214h-642v-401h506v-207h-506v-409h642v-215h-912v1446h912zM1052 1861l-324 -286q-20 -18 -38 -22t-46 -4h-179l209 271q10 14 20 22.5t22 12.5t26.5 5t34.5 1h275z" />
<glyph unicode="&#xca;" horiz-adv-x="1150" d="M161 0zM1073 1446v-214h-642v-401h506v-207h-506v-409h642v-215h-912v1446h912zM989 1549h-179q-15 0 -36.5 5.5t-44.5 32.5l-82 106q-5 5 -8.5 11t-6.5 11l-15 -22l-82 -106q-23 -27 -44.5 -32.5t-36.5 -5.5h-171l241 275h224z" />
<glyph unicode="&#xcb;" horiz-adv-x="1150" d="M161 0zM1073 1446v-214h-642v-401h506v-207h-506v-409h642v-215h-912v1446h912zM546 1667q0 -27 -11 -51t-29.5 -42t-43.5 -28t-53 -10q-26 0 -49.5 10t-41.5 28t-29 42t-11 51t11 51.5t29 43t41.5 29.5t49.5 11q28 0 53 -11t43.5 -29.5t29.5 -43t11 -51.5zM986 1667 q0 -27 -10.5 -51t-29 -42t-43 -28t-51.5 -10q-28 0 -52.5 10t-42.5 28t-28.5 42t-10.5 51t10.5 51.5t28.5 43t42.5 29.5t52.5 11q27 0 51.5 -11t43 -29.5t29 -43t10.5 -51.5z" />
<glyph unicode="&#xcc;" horiz-adv-x="593" d="M0 0zM431 0h-270v1446h270v-1446zM136 1861q20 0 34.5 -1t26 -5.5t21.5 -12.5t21 -22l218 -271h-179q-29 0 -45.5 3.5t-36.5 20.5l-319 288h259z" />
<glyph unicode="&#xcd;" horiz-adv-x="593" d="M133 0zM431 0h-270v1446h270v-1446zM720 1861l-324 -286q-20 -18 -38 -22t-46 -4h-179l209 271q10 14 20 22.5t22 12.5t26.5 5t34.5 1h275z" />
<glyph unicode="&#xce;" horiz-adv-x="593" d="M0 0zM431 0h-270v1446h270v-1446zM657 1549h-179q-15 0 -36.5 5.5t-44.5 32.5l-82 106q-5 5 -8.5 11t-6.5 11l-15 -22l-82 -106q-23 -27 -44.5 -32.5t-36.5 -5.5h-171l241 275h224z" />
<glyph unicode="&#xcf;" horiz-adv-x="593" d="M0 0zM431 0h-270v1446h270v-1446zM214 1667q0 -27 -11 -51t-29.5 -42t-43.5 -28t-53 -10q-26 0 -49.5 10t-41.5 28t-29 42t-11 51t11 51.5t29 43t41.5 29.5t49.5 11q28 0 53 -11t43.5 -29.5t29.5 -43t11 -51.5zM654 1667q0 -27 -10.5 -51t-29 -42t-43 -28t-51.5 -10 q-28 0 -52.5 10t-42.5 28t-28.5 42t-10.5 51t10.5 51.5t28.5 43t42.5 29.5t52.5 11q27 0 51.5 -11t43 -29.5t29 -43t10.5 -51.5z" />
<glyph unicode="&#xd0;" horiz-adv-x="1540" d="M-1 804h181v642h551q165 0 300 -53.5t231 -149t149 -228.5t53 -292t-53 -292t-149 -229t-231 -149t-300 -53h-551v651h-181v153zM1188 723q0 119 -32 213.5t-91 160t-143.5 100.5t-190.5 35h-281v-428h266v-153h-266v-437h281q106 0 190.5 35t143.5 100.5t91 160 t32 213.5z" />
<glyph unicode="&#xd1;" horiz-adv-x="1541" d="M302 1446q17 0 29.5 -1.5t22 -6t18.5 -13t20 -22.5l758 -968q-3 35 -5 69t-2 63v879h237v-1446h-138q-32 0 -53.5 10.5t-41.5 35.5l-755 963q3 -32 4.5 -63.5t1.5 -57.5v-888h-237v1446h141zM904 1699q22 0 38.5 9t27 22.5t15.5 30t5 32.5h151q0 -50 -13.5 -95.5t-40 -81 t-65 -56.5t-88.5 -21q-51 0 -88.5 16t-68.5 34.5t-56.5 34.5t-52.5 16q-23 0 -39 -9t-26 -23t-15 -31t-5 -33h-153q0 49 14 95.5t40.5 82t65 57t88.5 21.5q51 0 89 -16t68 -34.5t56 -34.5t53 -16z" />
<glyph unicode="&#xd2;" horiz-adv-x="1616" d="M75 0zM1540 723q0 -159 -52.5 -294.5t-148.5 -234.5t-231 -154.5t-300 -55.5q-164 0 -299 55.5t-231.5 154.5t-149.5 234.5t-53 294.5t53 294.5t149.5 234.5t231.5 154.5t299 55.5q110 0 207 -25.5t178 -72t145.5 -113t109.5 -148.5t68.5 -178t23.5 -202zM1265 723 q0 119 -32 213.5t-91 160.5t-143.5 101t-190.5 35t-190.5 -35t-144 -101t-91.5 -160.5t-32 -213.5t32 -213.5t91.5 -160t144 -100.5t190.5 -35t190.5 35t143.5 100.5t91 160t32 213.5zM646 1861q20 0 34.5 -1t26 -5.5t21.5 -12.5t21 -22l218 -271h-179q-29 0 -45.5 3.5 t-36.5 20.5l-319 288h259z" />
<glyph unicode="&#xd3;" horiz-adv-x="1616" d="M75 0zM1540 723q0 -159 -52.5 -294.5t-148.5 -234.5t-231 -154.5t-300 -55.5q-164 0 -299 55.5t-231.5 154.5t-149.5 234.5t-53 294.5t53 294.5t149.5 234.5t231.5 154.5t299 55.5q110 0 207 -25.5t178 -72t145.5 -113t109.5 -148.5t68.5 -178t23.5 -202zM1265 723 q0 119 -32 213.5t-91 160.5t-143.5 101t-190.5 35t-190.5 -35t-144 -101t-91.5 -160.5t-32 -213.5t32 -213.5t91.5 -160t144 -100.5t190.5 -35t190.5 35t143.5 100.5t91 160t32 213.5zM1230 1861l-324 -286q-20 -18 -38 -22t-46 -4h-179l209 271q10 14 20 22.5t22 12.5 t26.5 5t34.5 1h275z" />
<glyph unicode="&#xd4;" horiz-adv-x="1616" d="M75 0zM1540 723q0 -159 -52.5 -294.5t-148.5 -234.5t-231 -154.5t-300 -55.5q-164 0 -299 55.5t-231.5 154.5t-149.5 234.5t-53 294.5t53 294.5t149.5 234.5t231.5 154.5t299 55.5q110 0 207 -25.5t178 -72t145.5 -113t109.5 -148.5t68.5 -178t23.5 -202zM1265 723 q0 119 -32 213.5t-91 160.5t-143.5 101t-190.5 35t-190.5 -35t-144 -101t-91.5 -160.5t-32 -213.5t32 -213.5t91.5 -160t144 -100.5t190.5 -35t190.5 35t143.5 100.5t91 160t32 213.5zM1167 1549h-179q-15 0 -36.5 5.5t-44.5 32.5l-82 106q-5 5 -8.5 11t-6.5 11l-15 -22 l-82 -106q-23 -27 -44.5 -32.5t-36.5 -5.5h-171l241 275h224z" />
<glyph unicode="&#xd5;" horiz-adv-x="1616" d="M75 0zM1540 723q0 -159 -52.5 -294.5t-148.5 -234.5t-231 -154.5t-300 -55.5q-164 0 -299 55.5t-231.5 154.5t-149.5 234.5t-53 294.5t53 294.5t149.5 234.5t231.5 154.5t299 55.5q110 0 207 -25.5t178 -72t145.5 -113t109.5 -148.5t68.5 -178t23.5 -202zM1265 723 q0 119 -32 213.5t-91 160.5t-143.5 101t-190.5 35t-190.5 -35t-144 -101t-91.5 -160.5t-32 -213.5t32 -213.5t91.5 -160t144 -100.5t190.5 -35t190.5 35t143.5 100.5t91 160t32 213.5zM935 1699q22 0 38.5 9t27 22.5t15.5 30t5 32.5h151q0 -50 -13.5 -95.5t-40 -81 t-65 -56.5t-88.5 -21q-51 0 -88.5 16t-68.5 34.5t-56.5 34.5t-52.5 16q-23 0 -39 -9t-26 -23t-15 -31t-5 -33h-153q0 49 14 95.5t40.5 82t65 57t88.5 21.5q51 0 89 -16t68 -34.5t56 -34.5t53 -16z" />
<glyph unicode="&#xd6;" horiz-adv-x="1616" d="M75 0zM1540 723q0 -159 -52.5 -294.5t-148.5 -234.5t-231 -154.5t-300 -55.5q-164 0 -299 55.5t-231.5 154.5t-149.5 234.5t-53 294.5t53 294.5t149.5 234.5t231.5 154.5t299 55.5q110 0 207 -25.5t178 -72t145.5 -113t109.5 -148.5t68.5 -178t23.5 -202zM1265 723 q0 119 -32 213.5t-91 160.5t-143.5 101t-190.5 35t-190.5 -35t-144 -101t-91.5 -160.5t-32 -213.5t32 -213.5t91.5 -160t144 -100.5t190.5 -35t190.5 35t143.5 100.5t91 160t32 213.5zM724 1667q0 -27 -11 -51t-29.5 -42t-43.5 -28t-53 -10q-26 0 -49.5 10t-41.5 28t-29 42 t-11 51t11 51.5t29 43t41.5 29.5t49.5 11q28 0 53 -11t43.5 -29.5t29.5 -43t11 -51.5zM1164 1667q0 -27 -10.5 -51t-29 -42t-43 -28t-51.5 -10q-28 0 -52.5 10t-42.5 28t-28.5 42t-10.5 51t10.5 51.5t28.5 43t42.5 29.5t52.5 11q27 0 51.5 -11t43 -29.5t29 -43t10.5 -51.5z " />
<glyph unicode="&#xd8;" horiz-adv-x="1616" d="M1540 723q0 -159 -52.5 -294.5t-148.5 -234.5t-231 -154.5t-300 -55.5q-101 0 -190 21t-167 61l-76 -105q-29 -40 -69 -56t-79 -16h-106l195 268q-115 100 -178 245t-63 321q0 159 53 294.5t149.5 234.5t231.5 154.5t299 55.5q110 0 207 -25.5t178 -72.5l60 82 q13 18 24 30.5t23 20.5t27.5 11.5t37.5 3.5h137l-179 -246q104 -100 160.5 -238.5t56.5 -304.5zM350 723q0 -115 29 -206t84 -157l589 810q-104 63 -244 63q-106 0 -190.5 -35t-144 -101t-91.5 -160.5t-32 -213.5zM1265 723q0 103 -24 187t-69 148l-580 -798q95 -46 216 -46 q106 0 190.5 35t143.5 100.5t91 160t32 213.5z" />
<glyph unicode="&#xd9;" horiz-adv-x="1485" d="M143 0zM743 217q78 0 139.5 26t103.5 73t64.5 114t22.5 150v866h269v-866q0 -129 -41.5 -238.5t-119 -189t-188.5 -124t-250 -44.5q-140 0 -251 44.5t-188.5 124t-119 189t-41.5 238.5v866h269v-865q0 -83 22.5 -150t65 -114.5t104 -73.5t139.5 -26zM579 1861 q20 0 34.5 -1t26 -5.5t21.5 -12.5t21 -22l218 -271h-179q-29 0 -45.5 3.5t-36.5 20.5l-319 288h259z" />
<glyph unicode="&#xda;" horiz-adv-x="1485" d="M143 0zM743 217q78 0 139.5 26t103.5 73t64.5 114t22.5 150v866h269v-866q0 -129 -41.5 -238.5t-119 -189t-188.5 -124t-250 -44.5q-140 0 -251 44.5t-188.5 124t-119 189t-41.5 238.5v866h269v-865q0 -83 22.5 -150t65 -114.5t104 -73.5t139.5 -26zM1163 1861l-324 -286 q-20 -18 -38 -22t-46 -4h-179l209 271q10 14 20 22.5t22 12.5t26.5 5t34.5 1h275z" />
<glyph unicode="&#xdb;" horiz-adv-x="1485" d="M143 0zM743 217q78 0 139.5 26t103.5 73t64.5 114t22.5 150v866h269v-866q0 -129 -41.5 -238.5t-119 -189t-188.5 -124t-250 -44.5q-140 0 -251 44.5t-188.5 124t-119 189t-41.5 238.5v866h269v-865q0 -83 22.5 -150t65 -114.5t104 -73.5t139.5 -26zM1100 1549h-179 q-15 0 -36.5 5.5t-44.5 32.5l-82 106q-5 5 -8.5 11t-6.5 11l-15 -22l-82 -106q-23 -27 -44.5 -32.5t-36.5 -5.5h-171l241 275h224z" />
<glyph unicode="&#xdc;" horiz-adv-x="1485" d="M143 0zM743 217q78 0 139.5 26t103.5 73t64.5 114t22.5 150v866h269v-866q0 -129 -41.5 -238.5t-119 -189t-188.5 -124t-250 -44.5q-140 0 -251 44.5t-188.5 124t-119 189t-41.5 238.5v866h269v-865q0 -83 22.5 -150t65 -114.5t104 -73.5t139.5 -26zM657 1667 q0 -27 -11 -51t-29.5 -42t-43.5 -28t-53 -10q-26 0 -49.5 10t-41.5 28t-29 42t-11 51t11 51.5t29 43t41.5 29.5t49.5 11q28 0 53 -11t43.5 -29.5t29.5 -43t11 -51.5zM1097 1667q0 -27 -10.5 -51t-29 -42t-43 -28t-51.5 -10q-28 0 -52.5 10t-42.5 28t-28.5 42t-10.5 51 t10.5 51.5t28.5 43t42.5 29.5t52.5 11q27 0 51.5 -11t43 -29.5t29 -43t10.5 -51.5z" />
<glyph unicode="&#xdd;" horiz-adv-x="1296" d="M0 0zM782 560v-560h-268v560l-527 886h237q35 0 55.5 -17t34.5 -43l264 -483q23 -44 40.5 -82t31.5 -75q13 38 30 76t39 81l263 483q11 22 33 41t56 19h238zM1071 1861l-324 -286q-20 -18 -38 -22t-46 -4h-179l209 271q10 14 20 22.5t22 12.5t26.5 5t34.5 1h275z" />
<glyph unicode="&#xde;" horiz-adv-x="1231" d="M430 261v-261h-269v1446h269v-248h201q145 0 251 -34t175 -95t102.5 -146t33.5 -186q0 -105 -35 -192.5t-105 -150.5t-175.5 -98t-246.5 -35h-201zM430 471h201q74 0 129 18.5t91.5 53t54.5 84t18 110.5q0 58 -18 105t-54 80t-91 50.5t-130 17.5h-201v-519z" />
<glyph unicode="&#xdf;" horiz-adv-x="1205" d="M646 1471q117 0 200 -34t135 -85t76 -110t24 -110q0 -58 -19.5 -99t-49 -72t-63.5 -54t-63.5 -44t-49 -43.5t-19.5 -51.5q0 -33 25 -57t62 -47t81 -49t81 -63.5t62 -90.5t25 -130q0 -85 -31.5 -149.5t-85.5 -108.5t-125.5 -66.5t-151.5 -22.5q-46 0 -91 9.5t-86.5 26.5 t-78.5 40t-67 50l58 94q10 17 25 26t38 9t44 -13t46 -28t57 -28t77 -13q63 0 101.5 37.5t38.5 97.5q0 47 -27 78t-67 55.5t-87.5 48t-87.5 55t-67 76.5t-27 114q0 57 21 98t52.5 73t68 57.5t68 52.5t52.5 58t21 73q0 33 -11.5 62.5t-36.5 51t-64 34.5t-94 13 q-131 0 -198.5 -80.5t-67.5 -235.5v-976h-247v984q0 106 36 195t104 154t165 101.5t219 36.5z" />
<glyph unicode="&#xe0;" horiz-adv-x="1015" d="M49 0zM793 0q-35 0 -54 10.5t-30 42.5l-22 73q-39 -35 -76 -61.5t-77 -44.5t-85.5 -27t-100.5 -9q-65 0 -120 17.5t-95 52.5t-62 87t-22 121q0 58 30.5 114.5t101.5 102t189 75.5t294 34v60q0 103 -44 152.5t-127 49.5q-60 0 -99.5 -14t-69.5 -31.5t-54.5 -31.5 t-54.5 -14q-26 0 -44 13.5t-29 31.5l-44 79q177 162 426 162q90 0 161 -29.5t120 -82t74.5 -125.5t25.5 -160v-648h-112zM424 154q76 0 131.5 27.5t108.5 83.5v173q-108 -5 -180.5 -18.5t-116.5 -34.5t-63 -49t-19 -61q0 -65 38.5 -93t100.5 -28zM412 1462q41 0 61 -13.5 t34 -39.5l143 -243h-141q-28 0 -45.5 7.5t-35.5 27.5l-247 261h231z" />
<glyph unicode="&#xe1;" horiz-adv-x="1015" d="M49 0zM793 0q-35 0 -54 10.5t-30 42.5l-22 73q-39 -35 -76 -61.5t-77 -44.5t-85.5 -27t-100.5 -9q-65 0 -120 17.5t-95 52.5t-62 87t-22 121q0 58 30.5 114.5t101.5 102t189 75.5t294 34v60q0 103 -44 152.5t-127 49.5q-60 0 -99.5 -14t-69.5 -31.5t-54.5 -31.5 t-54.5 -14q-26 0 -44 13.5t-29 31.5l-44 79q177 162 426 162q90 0 161 -29.5t120 -82t74.5 -125.5t25.5 -160v-648h-112zM424 154q76 0 131.5 27.5t108.5 83.5v173q-108 -5 -180.5 -18.5t-116.5 -34.5t-63 -49t-19 -61q0 -65 38.5 -93t100.5 -28zM847 1462l-247 -261 q-19 -20 -36.5 -27.5t-45.5 -7.5h-148l142 243q15 26 35 39.5t60 13.5h240z" />
<glyph unicode="&#xe2;" horiz-adv-x="1015" d="M49 0zM793 0q-35 0 -54 10.5t-30 42.5l-22 73q-39 -35 -76 -61.5t-77 -44.5t-85.5 -27t-100.5 -9q-65 0 -120 17.5t-95 52.5t-62 87t-22 121q0 58 30.5 114.5t101.5 102t189 75.5t294 34v60q0 103 -44 152.5t-127 49.5q-60 0 -99.5 -14t-69.5 -31.5t-54.5 -31.5 t-54.5 -14q-26 0 -44 13.5t-29 31.5l-44 79q177 162 426 162q90 0 161 -29.5t120 -82t74.5 -125.5t25.5 -160v-648h-112zM424 154q76 0 131.5 27.5t108.5 83.5v173q-108 -5 -180.5 -18.5t-116.5 -34.5t-63 -49t-19 -61q0 -65 38.5 -93t100.5 -28zM846 1168h-165 q-14 0 -28.5 5.5t-28.5 19.5l-98 104q-11 10 -21 24q-11 -14 -21 -24l-100 -104q-12 -13 -27 -19t-30 -6h-171l229 278h232z" />
<glyph unicode="&#xe3;" horiz-adv-x="1015" d="M49 0zM793 0q-35 0 -54 10.5t-30 42.5l-22 73q-39 -35 -76 -61.5t-77 -44.5t-85.5 -27t-100.5 -9q-65 0 -120 17.5t-95 52.5t-62 87t-22 121q0 58 30.5 114.5t101.5 102t189 75.5t294 34v60q0 103 -44 152.5t-127 49.5q-60 0 -99.5 -14t-69.5 -31.5t-54.5 -31.5 t-54.5 -14q-26 0 -44 13.5t-29 31.5l-44 79q177 162 426 162q90 0 161 -29.5t120 -82t74.5 -125.5t25.5 -160v-648h-112zM424 154q76 0 131.5 27.5t108.5 83.5v173q-108 -5 -180.5 -18.5t-116.5 -34.5t-63 -49t-19 -61q0 -65 38.5 -93t100.5 -28zM608 1359q30 0 47 16.5 t17 59.5h150q0 -56 -15.5 -101.5t-42.5 -78t-64.5 -50t-82.5 -17.5q-36 0 -67 13t-58 28t-50.5 28t-43.5 13q-29 0 -45.5 -17.5t-16.5 -59.5h-153q0 56 15.5 101.5t43.5 78t65.5 50.5t81.5 18q36 0 67.5 -13t58.5 -28t50 -28t43 -13z" />
<glyph unicode="&#xe4;" horiz-adv-x="1015" d="M49 0zM793 0q-35 0 -54 10.5t-30 42.5l-22 73q-39 -35 -76 -61.5t-77 -44.5t-85.5 -27t-100.5 -9q-65 0 -120 17.5t-95 52.5t-62 87t-22 121q0 58 30.5 114.5t101.5 102t189 75.5t294 34v60q0 103 -44 152.5t-127 49.5q-60 0 -99.5 -14t-69.5 -31.5t-54.5 -31.5 t-54.5 -14q-26 0 -44 13.5t-29 31.5l-44 79q177 162 426 162q90 0 161 -29.5t120 -82t74.5 -125.5t25.5 -160v-648h-112zM424 154q76 0 131.5 27.5t108.5 83.5v173q-108 -5 -180.5 -18.5t-116.5 -34.5t-63 -49t-19 -61q0 -65 38.5 -93t100.5 -28zM437 1292q0 -28 -11 -52.5 t-30.5 -42.5t-45 -28.5t-54.5 -10.5q-27 0 -51.5 10.5t-43 28.5t-29.5 42.5t-11 52.5q0 29 11 54.5t29.5 44.5t43 30t51.5 11q29 0 54.5 -11t45 -30t30.5 -44.5t11 -54.5zM841 1292q0 -28 -11 -52.5t-29.5 -42.5t-44 -28.5t-54.5 -10.5q-28 0 -53 10.5t-43.5 28.5 t-29.5 42.5t-11 52.5q0 29 11 54.5t29.5 44.5t43.5 30t53 11q29 0 54.5 -11t44 -30t29.5 -44.5t11 -54.5z" />
<glyph unicode="&#xe5;" horiz-adv-x="1015" d="M49 0zM793 0q-35 0 -54 10.5t-30 42.5l-22 73q-39 -35 -76 -61.5t-77 -44.5t-85.5 -27t-100.5 -9q-65 0 -120 17.5t-95 52.5t-62 87t-22 121q0 58 30.5 114.5t101.5 102t189 75.5t294 34v60q0 103 -44 152.5t-127 49.5q-60 0 -99.5 -14t-69.5 -31.5t-54.5 -31.5 t-54.5 -14q-26 0 -44 13.5t-29 31.5l-44 79q177 162 426 162q90 0 161 -29.5t120 -82t74.5 -125.5t25.5 -160v-648h-112zM424 154q76 0 131.5 27.5t108.5 83.5v173q-108 -5 -180.5 -18.5t-116.5 -34.5t-63 -49t-19 -61q0 -65 38.5 -93t100.5 -28zM279 1325q0 46 18 84 t48.5 65t70.5 42t84 15q45 0 86 -15t72 -42t49.5 -65t18.5 -84q0 -45 -18.5 -82t-49.5 -63.5t-72 -41t-86 -14.5q-44 0 -84 14.5t-70.5 41t-48.5 63.5t-18 82zM413 1325q0 -38 23.5 -63.5t67.5 -25.5q40 0 64 25.5t24 63.5q0 42 -24 66.5t-64 24.5q-44 0 -67.5 -24.5 t-23.5 -66.5z" />
<glyph unicode="&#xe6;" horiz-adv-x="1619" d="M1144 1042q87 0 162 -33.5t130 -96.5t86.5 -153t31.5 -202q0 -28 -2.5 -46.5t-8.5 -29t-16.5 -15t-27.5 -4.5h-599q14 -147 83.5 -216.5t178.5 -69.5q68 0 111 13t71 29t46.5 29t39.5 13q36 0 50 -23l67 -84q-41 -48 -90.5 -80.5t-102.5 -52t-108 -27.5t-107 -8 q-109 0 -203.5 49t-155.5 153q-30 -54 -74.5 -92.5t-97.5 -63t-113 -36t-121 -11.5q-74 0 -134 19t-102 55.5t-64.5 91t-22.5 125.5q0 38 13 77.5t42.5 76t76.5 69t115.5 57t159.5 40t208 18.5v35q0 103 -44 156t-127 53q-60 0 -99.5 -15.5t-69.5 -33.5t-54.5 -33.5 t-54.5 -15.5q-26 0 -44 13.5t-29 31.5l-44 79q89 81 185.5 121.5t214.5 40.5q115 0 189 -44t113 -121q57 75 142 118.5t200 43.5zM666 462q-108 -5 -180.5 -20.5t-116.5 -38.5t-62.5 -53t-18.5 -63q0 -69 38.5 -101t107.5 -32q49 0 91.5 15t73.5 46.5t49 81.5t18 119v46z M1134 865q-105 0 -162.5 -66.5t-70.5 -187.5h433q0 49 -12 95t-37 81.5t-62.5 56.5t-88.5 21z" />
<glyph unicode="&#xe7;" horiz-adv-x="966" d="M419 -234q14 0 31 -7.5t49 -7.5q33 0 49.5 12.5t16.5 30.5q0 29 -36 41.5t-111 23.5l44 131q-84 12 -156 52.5t-125 107t-83.5 158.5t-30.5 207q0 113 32.5 209.5t95.5 167t156 110.5t214 40q115 0 201.5 -37t155.5 -106l-65 -90q-11 -14 -21.5 -22t-30.5 -8 q-19 0 -37 11.5t-43 26t-59.5 26t-85.5 11.5q-65 0 -114 -23.5t-81.5 -67.5t-48.5 -106.5t-16 -141.5q0 -82 17.5 -146t50.5 -107.5t80 -66t106 -22.5t95.5 14.5t61.5 32t43.5 32t41.5 14.5q30 0 45 -23l71 -90q-68 -80 -154 -117.5t-176 -46.5l-13 -50q94 -22 131.5 -59.5 t37.5 -89.5q0 -34 -17.5 -61t-50 -46t-77 -29t-98.5 -10q-41 0 -77 5.5t-70 16.5l22 77q6 23 29 23z" />
<glyph unicode="&#xe8;" horiz-adv-x="1068" d="M66 0zM559 1042q97 0 179 -31t141 -90.5t92.5 -146t33.5 -197.5q0 -56 -12 -75.5t-46 -19.5h-635q6 -79 28 -136.5t58 -95t85.5 -56t109.5 -18.5t103.5 14t76 31t57 31t47.5 14q31 0 46 -23l71 -90q-41 -48 -92 -80.5t-106.5 -52t-113 -27.5t-111.5 -8q-107 0 -199 35.5 t-160 105t-107 172t-39 237.5q0 105 34 197.5t97.5 161t155 108.5t206.5 40zM564 865q-108 0 -169 -61t-78 -173h466q0 48 -13.5 90.5t-40.5 74.5t-68.5 50.5t-96.5 18.5zM476 1462q41 0 61 -13.5t34 -39.5l143 -243h-141q-28 0 -45.5 7.5t-35.5 27.5l-247 261h231z" />
<glyph unicode="&#xe9;" horiz-adv-x="1068" d="M66 0zM559 1042q97 0 179 -31t141 -90.5t92.5 -146t33.5 -197.5q0 -56 -12 -75.5t-46 -19.5h-635q6 -79 28 -136.5t58 -95t85.5 -56t109.5 -18.5t103.5 14t76 31t57 31t47.5 14q31 0 46 -23l71 -90q-41 -48 -92 -80.5t-106.5 -52t-113 -27.5t-111.5 -8q-107 0 -199 35.5 t-160 105t-107 172t-39 237.5q0 105 34 197.5t97.5 161t155 108.5t206.5 40zM564 865q-108 0 -169 -61t-78 -173h466q0 48 -13.5 90.5t-40.5 74.5t-68.5 50.5t-96.5 18.5zM911 1462l-247 -261q-19 -20 -36.5 -27.5t-45.5 -7.5h-148l142 243q15 26 35 39.5t60 13.5h240z" />
<glyph unicode="&#xea;" horiz-adv-x="1068" d="M66 0zM559 1042q97 0 179 -31t141 -90.5t92.5 -146t33.5 -197.5q0 -56 -12 -75.5t-46 -19.5h-635q6 -79 28 -136.5t58 -95t85.5 -56t109.5 -18.5t103.5 14t76 31t57 31t47.5 14q31 0 46 -23l71 -90q-41 -48 -92 -80.5t-106.5 -52t-113 -27.5t-111.5 -8q-107 0 -199 35.5 t-160 105t-107 172t-39 237.5q0 105 34 197.5t97.5 161t155 108.5t206.5 40zM564 865q-108 0 -169 -61t-78 -173h466q0 48 -13.5 90.5t-40.5 74.5t-68.5 50.5t-96.5 18.5zM910 1168h-165q-14 0 -28.5 5.5t-28.5 19.5l-98 104q-11 10 -21 24q-11 -14 -21 -24l-100 -104 q-12 -13 -27 -19t-30 -6h-171l229 278h232z" />
<glyph unicode="&#xeb;" horiz-adv-x="1068" d="M66 0zM559 1042q97 0 179 -31t141 -90.5t92.5 -146t33.5 -197.5q0 -56 -12 -75.5t-46 -19.5h-635q6 -79 28 -136.5t58 -95t85.5 -56t109.5 -18.5t103.5 14t76 31t57 31t47.5 14q31 0 46 -23l71 -90q-41 -48 -92 -80.5t-106.5 -52t-113 -27.5t-111.5 -8q-107 0 -199 35.5 t-160 105t-107 172t-39 237.5q0 105 34 197.5t97.5 161t155 108.5t206.5 40zM564 865q-108 0 -169 -61t-78 -173h466q0 48 -13.5 90.5t-40.5 74.5t-68.5 50.5t-96.5 18.5zM501 1292q0 -28 -11 -52.5t-30.5 -42.5t-45 -28.5t-54.5 -10.5q-27 0 -51.5 10.5t-43 28.5 t-29.5 42.5t-11 52.5q0 29 11 54.5t29.5 44.5t43 30t51.5 11q29 0 54.5 -11t45 -30t30.5 -44.5t11 -54.5zM905 1292q0 -28 -11 -52.5t-29.5 -42.5t-44 -28.5t-54.5 -10.5q-28 0 -53 10.5t-43.5 28.5t-29.5 42.5t-11 52.5q0 29 11 54.5t29.5 44.5t43.5 30t53 11 q29 0 54.5 -11t44 -30t29.5 -44.5t11 -54.5z" />
<glyph unicode="&#xec;" horiz-adv-x="508" d="M0 0zM377 1026v-1026h-247v1026h247zM172 1462q41 0 61 -13.5t34 -39.5l143 -243h-141q-28 0 -45.5 7.5t-35.5 27.5l-247 261h231z" />
<glyph unicode="&#xed;" horiz-adv-x="509" d="M131 0zM378 1026v-1026h-247v1026h247zM608 1462l-247 -261q-19 -20 -36.5 -27.5t-45.5 -7.5h-148l142 243q15 26 35 39.5t60 13.5h240z" />
<glyph unicode="&#xee;" horiz-adv-x="508" d="M0 0zM377 1026v-1026h-247v1026h247zM606 1168h-165q-14 0 -28.5 5.5t-28.5 19.5l-98 104q-11 10 -21 24q-11 -14 -21 -24l-100 -104q-12 -13 -27 -19t-30 -6h-171l229 278h232z" />
<glyph unicode="&#xef;" horiz-adv-x="508" d="M0 0zM377 1026v-1026h-247v1026h247zM229 1292q0 -28 -11 -52.5t-30.5 -42.5t-45 -28.5t-53.5 -10.5q-27 0 -51.5 10.5t-43.5 28.5t-30 42.5t-11 52.5q0 29 11 54.5t30 44.5t43.5 30t51.5 11q28 0 53.5 -11t45 -30t30.5 -44.5t11 -54.5zM569 1292q0 -28 -11 -52.5 t-29.5 -42.5t-44 -28.5t-54.5 -10.5q-28 0 -53 10.5t-43.5 28.5t-29.5 42.5t-11 52.5q0 29 11 54.5t29.5 44.5t43.5 30t53 11q29 0 54.5 -11t44 -30t29.5 -44.5t11 -54.5z" />
<glyph unicode="&#xf0;" horiz-adv-x="1141" d="M384 1062q-15 23 -9 45t31 36l75 43q-32 13 -67.5 24t-74.5 22q-16 4 -29 13.5t-20.5 24t-8 34t8.5 43.5l28 85q101 -17 194.5 -48t176.5 -79l176 113l49 -80q14 -22 8 -42.5t-27 -34.5l-81 -46q57 -51 103 -113.5t79 -137.5t50.5 -164t17.5 -192q0 -147 -33.5 -262.5 t-98.5 -196t-161 -122.5t-220 -42q-104 0 -193 33.5t-154 96.5t-102.5 153.5t-37.5 205.5q0 92 32.5 175t92 145.5t144 99.5t188.5 37q190 0 313 -134q-21 106 -71 182t-135 133l-197 -128zM557 173q58 0 107 21t85 67.5t57.5 120.5t24.5 181q-16 37 -39 70t-55 57.5 t-73.5 38.5t-92.5 14q-64 0 -113 -21t-82 -58t-50 -86t-17 -106q0 -73 19.5 -128.5t53 -93.5t79 -57.5t96.5 -19.5z" />
<glyph unicode="&#xf1;" horiz-adv-x="1128" d="M122 0zM122 0v1026h151q48 0 63 -45l17 -81q31 32 65.5 58t73 45t82.5 29t96 10q84 0 149 -28.5t108.5 -80t66 -123t22.5 -157.5v-653h-247v653q0 94 -43 145.5t-131 51.5q-64 0 -120 -29t-106 -79v-742h-247zM681 1359q30 0 47 16.5t17 59.5h150q0 -56 -15.5 -101.5 t-42.5 -78t-64.5 -50t-82.5 -17.5q-36 0 -67 13t-58 28t-50.5 28t-43.5 13q-29 0 -45.5 -17.5t-16.5 -59.5h-153q0 56 15.5 101.5t43.5 78t65.5 50.5t81.5 18q36 0 67.5 -13t58.5 -28t50 -28t43 -13z" />
<glyph unicode="&#xf2;" horiz-adv-x="1149" d="M67 0zM576 1042q114 0 207.5 -37t160 -105t102.5 -166t36 -219q0 -122 -36 -220t-102.5 -167t-160 -106t-207.5 -37q-115 0 -209 37t-160.5 106t-103 167t-36.5 220q0 121 36.5 219t103 166t160.5 105t209 37zM576 175q128 0 189.5 86t61.5 252t-61.5 253t-189.5 87 q-130 0 -192.5 -87.5t-62.5 -252.5t62.5 -251.5t192.5 -86.5zM487 1462q41 0 61 -13.5t34 -39.5l143 -243h-141q-28 0 -45.5 7.5t-35.5 27.5l-247 261h231z" />
<glyph unicode="&#xf3;" horiz-adv-x="1149" d="M67 0zM576 1042q114 0 207.5 -37t160 -105t102.5 -166t36 -219q0 -122 -36 -220t-102.5 -167t-160 -106t-207.5 -37q-115 0 -209 37t-160.5 106t-103 167t-36.5 220q0 121 36.5 219t103 166t160.5 105t209 37zM576 175q128 0 189.5 86t61.5 252t-61.5 253t-189.5 87 q-130 0 -192.5 -87.5t-62.5 -252.5t62.5 -251.5t192.5 -86.5zM922 1462l-247 -261q-19 -20 -36.5 -27.5t-45.5 -7.5h-148l142 243q15 26 35 39.5t60 13.5h240z" />
<glyph unicode="&#xf4;" horiz-adv-x="1149" d="M67 0zM576 1042q114 0 207.5 -37t160 -105t102.5 -166t36 -219q0 -122 -36 -220t-102.5 -167t-160 -106t-207.5 -37q-115 0 -209 37t-160.5 106t-103 167t-36.5 220q0 121 36.5 219t103 166t160.5 105t209 37zM576 175q128 0 189.5 86t61.5 252t-61.5 253t-189.5 87 q-130 0 -192.5 -87.5t-62.5 -252.5t62.5 -251.5t192.5 -86.5zM921 1168h-165q-14 0 -28.5 5.5t-28.5 19.5l-98 104q-11 10 -21 24q-11 -14 -21 -24l-100 -104q-12 -13 -27 -19t-30 -6h-171l229 278h232z" />
<glyph unicode="&#xf5;" horiz-adv-x="1149" d="M67 0zM576 1042q114 0 207.5 -37t160 -105t102.5 -166t36 -219q0 -122 -36 -220t-102.5 -167t-160 -106t-207.5 -37q-115 0 -209 37t-160.5 106t-103 167t-36.5 220q0 121 36.5 219t103 166t160.5 105t209 37zM576 175q128 0 189.5 86t61.5 252t-61.5 253t-189.5 87 q-130 0 -192.5 -87.5t-62.5 -252.5t62.5 -251.5t192.5 -86.5zM683 1359q30 0 47 16.5t17 59.5h150q0 -56 -15.5 -101.5t-42.5 -78t-64.5 -50t-82.5 -17.5q-36 0 -67 13t-58 28t-50.5 28t-43.5 13q-29 0 -45.5 -17.5t-16.5 -59.5h-153q0 56 15.5 101.5t43.5 78t65.5 50.5 t81.5 18q36 0 67.5 -13t58.5 -28t50 -28t43 -13z" />
<glyph unicode="&#xf6;" horiz-adv-x="1149" d="M67 0zM576 1042q114 0 207.5 -37t160 -105t102.5 -166t36 -219q0 -122 -36 -220t-102.5 -167t-160 -106t-207.5 -37q-115 0 -209 37t-160.5 106t-103 167t-36.5 220q0 121 36.5 219t103 166t160.5 105t209 37zM576 175q128 0 189.5 86t61.5 252t-61.5 253t-189.5 87 q-130 0 -192.5 -87.5t-62.5 -252.5t62.5 -251.5t192.5 -86.5zM512 1292q0 -28 -11 -52.5t-30.5 -42.5t-45 -28.5t-54.5 -10.5q-27 0 -51.5 10.5t-43 28.5t-29.5 42.5t-11 52.5q0 29 11 54.5t29.5 44.5t43 30t51.5 11q29 0 54.5 -11t45 -30t30.5 -44.5t11 -54.5zM916 1292 q0 -28 -11 -52.5t-29.5 -42.5t-44 -28.5t-54.5 -10.5q-28 0 -53 10.5t-43.5 28.5t-29.5 42.5t-11 52.5q0 29 11 54.5t29.5 44.5t43.5 30t53 11q29 0 54.5 -11t44 -30t29.5 -44.5t11 -54.5z" />
<glyph unicode="&#xf7;" d="M92 763h975v-183h-975v183zM427 1027q0 31 11.5 59t32 48t48.5 32t60 12q31 0 59 -12t48.5 -32t32.5 -48t12 -59q0 -32 -12 -59.5t-32.5 -47.5t-48.5 -31.5t-59 -11.5q-32 0 -60 11.5t-48.5 31.5t-32 47.5t-11.5 59.5zM427 315q0 31 11.5 59t32 48t48.5 32t60 12 q31 0 59 -12t48.5 -32t32.5 -48t12 -59q0 -32 -12 -59.5t-32.5 -47.5t-48.5 -31.5t-59 -11.5q-32 0 -60 11.5t-48.5 31.5t-32 47.5t-11.5 59.5z" />
<glyph unicode="&#xf8;" horiz-adv-x="1148" d="M949 893q64 -69 98.5 -164t34.5 -214q0 -122 -36 -220t-102.5 -167t-160 -106t-207.5 -37q-72 0 -135.5 14.5t-118.5 42.5l-34 -47q-14 -20 -31.5 -34t-37 -22.5t-40.5 -12t-40 -3.5h-90l154 209q-66 69 -101 165.5t-35 217.5t36.5 219t103 166t160.5 105t209 37 q144 0 254 -58l56 75q12 18 22.5 31t23 20.5t28.5 11t38 3.5h122zM306 513q0 -119 32 -197l376 510q-56 34 -138 34q-131 0 -200.5 -90.5t-69.5 -256.5zM576 167q128 0 197 90t69 256q0 113 -31 192l-373 -506q55 -32 138 -32z" />
<glyph unicode="&#xf9;" horiz-adv-x="1128" d="M112 0zM359 1026v-652q0 -94 43.5 -145.5t130.5 -51.5q64 0 120 28.5t106 78.5v742h247v-1026h-151q-49 0 -62 45l-17 82q-32 -32 -66 -58.5t-73 -45.5t-83 -29t-96 -10q-84 0 -148.5 28.5t-108.5 80.5t-66.5 123.5t-22.5 157.5v652h247zM475 1462q41 0 61 -13.5 t34 -39.5l143 -243h-141q-28 0 -45.5 7.5t-35.5 27.5l-247 261h231z" />
<glyph unicode="&#xfa;" horiz-adv-x="1128" d="M112 0zM359 1026v-652q0 -94 43.5 -145.5t130.5 -51.5q64 0 120 28.5t106 78.5v742h247v-1026h-151q-49 0 -62 45l-17 82q-32 -32 -66 -58.5t-73 -45.5t-83 -29t-96 -10q-84 0 -148.5 28.5t-108.5 80.5t-66.5 123.5t-22.5 157.5v652h247zM910 1462l-247 -261 q-19 -20 -36.5 -27.5t-45.5 -7.5h-148l142 243q15 26 35 39.5t60 13.5h240z" />
<glyph unicode="&#xfb;" horiz-adv-x="1128" d="M112 0zM359 1026v-652q0 -94 43.5 -145.5t130.5 -51.5q64 0 120 28.5t106 78.5v742h247v-1026h-151q-49 0 -62 45l-17 82q-32 -32 -66 -58.5t-73 -45.5t-83 -29t-96 -10q-84 0 -148.5 28.5t-108.5 80.5t-66.5 123.5t-22.5 157.5v652h247zM909 1168h-165q-14 0 -28.5 5.5 t-28.5 19.5l-98 104q-11 10 -21 24q-11 -14 -21 -24l-100 -104q-12 -13 -27 -19t-30 -6h-171l229 278h232z" />
<glyph unicode="&#xfc;" horiz-adv-x="1128" d="M112 0zM359 1026v-652q0 -94 43.5 -145.5t130.5 -51.5q64 0 120 28.5t106 78.5v742h247v-1026h-151q-49 0 -62 45l-17 82q-32 -32 -66 -58.5t-73 -45.5t-83 -29t-96 -10q-84 0 -148.5 28.5t-108.5 80.5t-66.5 123.5t-22.5 157.5v652h247zM500 1292q0 -28 -11 -52.5 t-30.5 -42.5t-45 -28.5t-54.5 -10.5q-27 0 -51.5 10.5t-43 28.5t-29.5 42.5t-11 52.5q0 29 11 54.5t29.5 44.5t43 30t51.5 11q29 0 54.5 -11t45 -30t30.5 -44.5t11 -54.5zM904 1292q0 -28 -11 -52.5t-29.5 -42.5t-44 -28.5t-54.5 -10.5q-28 0 -53 10.5t-43.5 28.5 t-29.5 42.5t-11 52.5q0 29 11 54.5t29.5 44.5t43.5 30t53 11q29 0 54.5 -11t44 -30t29.5 -44.5t11 -54.5z" />
<glyph unicode="&#xfd;" horiz-adv-x="1055" d="M6 0zM495 -282q-11 -26 -28.5 -39.5t-53.5 -13.5h-184l192 411l-415 950h217q29 0 45.5 -14t24.5 -32l218 -532q20 -55 33 -109q8 28 17.5 55.5t20.5 54.5l206 531q8 20 26.5 33t41.5 13h198zM899 1462l-247 -261q-19 -20 -36.5 -27.5t-45.5 -7.5h-148l142 243 q15 26 35 39.5t60 13.5h240z" />
<glyph unicode="&#xfe;" horiz-adv-x="1136" d="M122 -335v1821h247v-586q61 65 138 103.5t180 38.5q84 0 153.5 -34.5t120 -100.5t78 -163t27.5 -223q0 -115 -31 -213t-88.5 -170t-139 -112.5t-182.5 -40.5q-44 0 -81 8t-68 23.5t-57 37t-50 48.5v-437h-247zM602 850q-77 0 -131.5 -32.5t-101.5 -91.5v-460 q42 -52 91.5 -72.5t107.5 -20.5q56 0 101 21t76.5 64t48.5 108.5t17 154.5q0 90 -14.5 152.5t-41.5 101.5t-65.5 57t-87.5 18z" />
<glyph unicode="&#xff;" horiz-adv-x="1055" d="M6 0zM495 -282q-11 -26 -28.5 -39.5t-53.5 -13.5h-184l192 411l-415 950h217q29 0 45.5 -14t24.5 -32l218 -532q20 -55 33 -109q8 28 17.5 55.5t20.5 54.5l206 531q8 20 26.5 33t41.5 13h198zM489 1292q0 -28 -11 -52.5t-30.5 -42.5t-45 -28.5t-54.5 -10.5 q-27 0 -51.5 10.5t-43 28.5t-29.5 42.5t-11 52.5q0 29 11 54.5t29.5 44.5t43 30t51.5 11q29 0 54.5 -11t45 -30t30.5 -44.5t11 -54.5zM893 1292q0 -28 -11 -52.5t-29.5 -42.5t-44 -28.5t-54.5 -10.5q-28 0 -53 10.5t-43.5 28.5t-29.5 42.5t-11 52.5q0 29 11 54.5t29.5 44.5 t43.5 30t53 11q29 0 54.5 -11t44 -30t29.5 -44.5t11 -54.5z" />
<glyph unicode="&#x131;" horiz-adv-x="510" d="M378 1026v-1026h-247v1026h247z" />
<glyph unicode="&#x152;" horiz-adv-x="2163" d="M2085 1446v-214h-641v-401h506v-207h-506v-409h642l-1 -215h-879v186q-87 -95 -205 -148t-264 -53q-148 0 -269.5 55.5t-208.5 154t-134.5 234t-47.5 294.5t47.5 294.5t134.5 234.5t208.5 154.5t269.5 55.5q146 0 264 -53.5t205 -148.5v186h879zM1174 723 q0 119 -28 214.5t-81 163t-129 103.5t-171 36q-96 0 -172.5 -36t-129.5 -103.5t-81.5 -163t-28.5 -214.5t28.5 -214.5t81.5 -162.5t129.5 -103t172.5 -36q95 0 171 36t129 103t81 162.5t28 214.5z" />
<glyph unicode="&#x153;" horiz-adv-x="1752" d="M1278 1042q87 0 161.5 -33.5t129.5 -96.5t86 -153t31 -202q0 -28 -2.5 -46.5t-8.5 -29t-16.5 -15t-27.5 -4.5h-598q14 -147 83.5 -216.5t179.5 -69.5q55 0 95.5 14t71 31t54.5 31t47 14q29 0 43 -23l73 -90q-41 -48 -90.5 -80.5t-102.5 -52t-108 -27.5t-107 -8 q-108 0 -202.5 48.5t-155.5 152.5q-60 -97 -156.5 -149t-225.5 -52q-101 0 -186.5 37t-147.5 106t-96.5 167t-34.5 220q0 121 35 219t97.5 166t150 105t192.5 37q124 0 217.5 -51.5t152.5 -146.5q55 90 147 144t219 54zM556 175q118 0 175 86t57 252t-57 253t-175 87 q-120 0 -177 -87.5t-57 -252.5q0 -166 56.5 -252t177.5 -86zM1267 865q-105 0 -162.5 -66.5t-70.5 -187.5h432q0 49 -12 95t-36.5 81.5t-62 56.5t-88.5 21z" />
<glyph unicode="&#x178;" horiz-adv-x="1296" d="M0 0zM782 560v-560h-268v560l-527 886h237q35 0 55.5 -17t34.5 -43l264 -483q23 -44 40.5 -82t31.5 -75q13 38 30 76t39 81l263 483q11 22 33 41t56 19h238zM564 1667q0 -27 -11 -51t-29.5 -42t-43.5 -28t-53 -10q-26 0 -49.5 10t-41.5 28t-29 42t-11 51t11 51.5t29 43 t41.5 29.5t49.5 11q28 0 53 -11t43.5 -29.5t29.5 -43t11 -51.5zM1004 1667q0 -27 -10.5 -51t-29 -42t-43 -28t-51.5 -10q-28 0 -52.5 10t-42.5 28t-28.5 42t-10.5 51t10.5 51.5t28.5 43t42.5 29.5t52.5 11q27 0 51.5 -11t43 -29.5t29 -43t10.5 -51.5z" />
<glyph unicode="&#x192;" horiz-adv-x="701" d="M176 840l-89 14q-29 6 -46.5 20.5t-17.5 41.5v101h153v76q0 88 26.5 158t76 119t120.5 75t160 26q71 0 132 -19l-6 -124q-2 -29 -26.5 -36t-57.5 -7q-44 0 -78.5 -9.5t-58.5 -33t-36.5 -62t-12.5 -95.5v-68h266v-176h-258v-840q0 -87 -21.5 -159.5t-67 -125t-116.5 -82 t-169 -29.5q-53 0 -95.5 9.5t-91.5 30.5l27 107q8 29 22.5 38t31.5 9q15 0 32.5 -6t50.5 -6q75 0 112.5 45.5t37.5 140.5v867z" />
<glyph unicode="&#x292;" horiz-adv-x="894" d="M156 403q0 40 33 65l299 369h-462v189h757v-102q0 -33 -14 -59.5t-34 -46.5l-282 -333q98 -12 170 -44t119 -81.5t70 -114.5t23 -142q0 -94 -32.5 -177t-97 -144.5t-160 -97.5t-221.5 -36q-64 0 -117 9.5t-97.5 26t-80.5 39.5t-66 50l57 94q21 35 62 35q24 0 45 -11.5 t47.5 -25t63 -25t90.5 -11.5q124 0 194.5 66.5t70.5 191.5q0 53 -14 97t-44.5 75.5t-78.5 49t-115 17.5h-185v77z" />
<glyph unicode="&#x2c6;" horiz-adv-x="800" d="M745 1168h-165q-14 0 -28.5 5.5t-28.5 19.5l-98 104q-11 10 -21 24q-11 -14 -21 -24l-100 -104q-12 -13 -27 -19t-30 -6h-171l229 278h232z" />
<glyph unicode="&#x2c7;" horiz-adv-x="800" d="M55 1446h171q15 0 28.5 -5t21.5 -12l106 -111q5 -5 10.5 -11.5t10.5 -13.5q10 13 22 25l105 111q8 6 22 11.5t28 5.5h165l-229 -278h-232z" />
<glyph unicode="&#x2d8;" horiz-adv-x="800" d="M400 1161q-86 0 -143.5 22.5t-93 61.5t-50.5 91t-15 110h173q0 -30 5.5 -54t20 -40.5t39.5 -25.5t64 -9t64 9t39.5 25.5t20 40.5t5.5 54h173q0 -58 -15 -110t-50.5 -91t-93.5 -61.5t-143 -22.5z" />
<glyph unicode="&#x2d9;" horiz-adv-x="800" d="M559 1329q0 -32 -13 -60.5t-34.5 -49.5t-51 -33.5t-62.5 -12.5q-32 0 -60 12.5t-49 33.5t-33.5 49.5t-12.5 60.5q0 33 12.5 61.5t33.5 50t49 34t60 12.5q33 0 62.5 -12.5t51 -34t34.5 -50t13 -61.5z" />
<glyph unicode="&#x2da;" horiz-adv-x="800" d="M177 1325q0 46 18 84t48.5 65t70.5 42t84 15q45 0 86 -15t72 -42t49.5 -65t18.5 -84q0 -45 -18.5 -82t-49.5 -63.5t-72 -41t-86 -14.5q-44 0 -84 14.5t-70.5 41t-48.5 63.5t-18 82zM311 1325q0 -38 23.5 -63.5t67.5 -25.5q40 0 64 25.5t24 63.5q0 42 -24 66.5t-64 24.5 q-44 0 -67.5 -24.5t-23.5 -66.5z" />
<glyph unicode="&#x2db;" horiz-adv-x="800" d="M542 -187q18 0 23 -16l38 -91q-33 -22 -82.5 -36.5t-104.5 -14.5q-98 0 -151 41t-53 106q0 59 42 113.5t120 96.5l128 -12q-20 -11 -39 -25t-34 -31.5t-24 -37.5t-9 -42q0 -30 19 -47.5t53 -17.5q19 0 31 2t19.5 5t13 5t10.5 2z" />
<glyph unicode="&#x2dc;" horiz-adv-x="800" d="M507 1359q30 0 47 16.5t17 59.5h150q0 -56 -15.5 -101.5t-42.5 -78t-64.5 -50t-82.5 -17.5q-36 0 -67 13t-58 28t-50.5 28t-43.5 13q-29 0 -45.5 -17.5t-16.5 -59.5h-153q0 56 15.5 101.5t43.5 78t65.5 50.5t81.5 18q36 0 67.5 -13t58.5 -28t50 -28t43 -13z" />
<glyph unicode="&#x2dd;" horiz-adv-x="800" d="M532 1462l-199 -261q-16 -20 -35 -27.5t-47 -7.5h-101l126 243q14 26 34.5 39.5t60.5 13.5h161zM881 1462l-252 -261q-18 -20 -35.5 -27.5t-46.5 -7.5h-116l177 243q9 13 17.5 22.5t19 16.5t24.5 10.5t34 3.5h178z" />
<glyph unicode="&#x3a9;" horiz-adv-x="1631" d="M925 304q69 12 129.5 54.5t106 107.5t71.5 149t26 179q0 111 -35.5 193.5t-96 136.5t-141 81t-170.5 27t-170.5 -27t-140.5 -81t-95.5 -136.5t-35.5 -193.5q0 -95 26 -179t71.5 -149t106 -107.5t129.5 -54.5v-304h-531q-42 0 -66 23.5t-24 60.5v137h230q48 0 97.5 -5 t97.5 -12q-89 32 -163.5 89t-128 134t-83 171t-29.5 199q0 144 54.5 265.5t150.5 210.5t225.5 139t279.5 50t279.5 -50t225 -139t150.5 -210.5t55 -265.5q0 -105 -29.5 -199t-83 -171t-128 -134t-163.5 -89q48 7 97 12t97 5h230v-137q0 -37 -24 -60.5t-66 -23.5h-531v304z " />
<glyph unicode="&#x3c0;" horiz-adv-x="1263" d="M1207 1022v-116q0 -32 -19.5 -54t-57.5 -22h-127v-63q0 -135 3.5 -232t10.5 -163t18 -105.5t25.5 -60.5t32.5 -27.5t40 -6.5h45v-98q0 -20 -12 -35t-33 -25.5t-48.5 -16t-58.5 -5.5q-133 0 -196 89t-63 261q0 45 4.5 94t10.5 107.5t12.5 128.5t10.5 158h-316 q-4 -172 -15.5 -301.5t-30.5 -222.5t-45 -154t-59 -97t-73 -50t-87 -14q-15 0 -32.5 2.5t-32.5 8.5t-25 15t-10 21v165h21q32 0 61 33.5t52.5 108t39.5 194t22 291.5h-207v104q0 14 6 29.5t18 28.5t29.5 21.5t39.5 8.5h1046z" />
<glyph unicode="&#x400;" horiz-adv-x="1150" d="M161 0zM1073 1446v-214h-642v-401h506v-207h-506v-409h642v-215h-912v1446h912zM468 1861q20 0 34.5 -1t26 -5.5t21.5 -12.5t21 -22l218 -271h-179q-29 0 -45.5 3.5t-36.5 20.5l-319 288h259z" />
<glyph unicode="&#x401;" horiz-adv-x="1150" d="M161 0zM1073 1446v-214h-642v-401h506v-207h-506v-409h642v-215h-912v1446h912zM546 1667q0 -27 -11 -51t-29.5 -42t-43.5 -28t-53 -10q-26 0 -49.5 10t-41.5 28t-29 42t-11 51t11 51.5t29 43t41.5 29.5t49.5 11q28 0 53 -11t43.5 -29.5t29.5 -43t11 -51.5zM986 1667 q0 -27 -10.5 -51t-29 -42t-43 -28t-51.5 -10q-28 0 -52.5 10t-42.5 28t-28.5 42t-10.5 51t10.5 51.5t28.5 43t42.5 29.5t52.5 11q27 0 51.5 -11t43 -29.5t29 -43t10.5 -51.5z" />
<glyph unicode="&#x402;" horiz-adv-x="1504" d="M1096 1446v-213h-418v-385h271q141 0 241.5 -31t164 -84.5t93.5 -126t30 -155.5q0 -102 -35.5 -185t-103.5 -142.5t-166.5 -91.5t-224.5 -32h-86v210h86q75 0 125.5 16.5t81.5 45.5t44 68t13 84q0 49 -13 89t-43.5 67.5t-81 42.5t-125.5 15h-271v-638h-269v1233h-382v213 h1069z" />
<glyph unicode="&#x403;" horiz-adv-x="1083" d="M161 0zM1053 1239h-622v-1239h-270v1446h892v-207zM1037 1861l-324 -286q-20 -18 -38 -22t-46 -4h-179l209 271q10 14 20 22.5t22 12.5t26.5 5t34.5 1h275z" />
<glyph unicode="&#x404;" horiz-adv-x="1337" d="M1154 341q22 0 39 -17l106 -115q-88 -109 -216.5 -167t-308.5 -58q-161 0 -289.5 55t-219.5 153t-139.5 234t-48.5 297q0 163 52 298.5t146.5 233.5t225.5 152.5t290 54.5q158 0 280.5 -52t208.5 -136l-90 -125q-8 -12 -20.5 -21t-34.5 -9q-15 0 -31 8.5t-35 21t-44 27.5 t-58 27.5t-76.5 21t-100.5 8.5q-85 0 -158 -26.5t-129 -77.5t-93 -125.5t-51 -169.5h667v-200h-669q12 -101 50 -179.5t96 -132.5t131.5 -82t156.5 -28q55 0 99.5 6t82 19t71 33.5t66.5 50.5q10 9 21 14.5t23 5.5z" />
<glyph unicode="&#x405;" horiz-adv-x="1097" d="M931 1183q-12 -21 -25.5 -30.5t-33.5 -9.5q-21 0 -45.5 15.5t-58.5 34.5t-79.5 34.5t-107.5 15.5q-56 0 -98 -13.5t-70.5 -37.5t-42.5 -57.5t-14 -73.5q0 -51 28.5 -85t75.5 -58t107 -43t123 -40.5t123 -50t107 -72t75.5 -106.5t28.5 -153q0 -98 -33.5 -183.5t-98 -149 t-157.5 -100t-213 -36.5q-69 0 -136 13.5t-128.5 38.5t-115.5 60t-96 78l79 129q10 14 26 23.5t34 9.5q25 0 54 -20.5t69 -45.5t93.5 -45.5t128.5 -20.5q115 0 178 54.5t63 156.5q0 57 -28.5 93t-75.5 60.5t-107 41.5t-122 37t-122 48t-107 73t-75.5 112.5t-28.5 166.5 q0 79 31.5 154t91.5 133t148 93t202 35q128 0 236 -40t184 -112z" />
<glyph unicode="&#x406;" horiz-adv-x="593" d="M431 0h-270v1446h270v-1446z" />
<glyph unicode="&#x407;" horiz-adv-x="593" d="M0 0zM431 0h-270v1446h270v-1446zM214 1667q0 -27 -11 -51t-29.5 -42t-43.5 -28t-53 -10q-26 0 -49.5 10t-41.5 28t-29 42t-11 51t11 51.5t29 43t41.5 29.5t49.5 11q28 0 53 -11t43.5 -29.5t29.5 -43t11 -51.5zM654 1667q0 -27 -10.5 -51t-29 -42t-43 -28t-51.5 -10 q-28 0 -52.5 10t-42.5 28t-28.5 42t-10.5 51t10.5 51.5t28.5 43t42.5 29.5t52.5 11q27 0 51.5 -11t43 -29.5t29 -43t10.5 -51.5z" />
<glyph unicode="&#x408;" horiz-adv-x="859" d="M712 514q0 -122 -30 -220t-89.5 -167t-148.5 -106t-207 -37q-54 0 -106 6.5t-109 20.5q3 40 7 80t7 80q3 22 17.5 35.5t41.5 13.5q17 0 44.5 -7t69.5 -7q57 0 101 16.5t73.5 52.5t44.5 93.5t15 139.5v938h269v-932z" />
<glyph unicode="&#x409;" horiz-adv-x="2133" d="M1327 1446v-598h235q141 0 241.5 -31t164.5 -84.5t93.5 -126t29.5 -155.5q0 -102 -35.5 -185t-103 -142.5t-166 -91.5t-224.5 -32h-506v1239h-395q-14 -272 -39.5 -470.5t-61.5 -338t-81 -226.5t-99 -135.5t-116 -66t-130 -17.5q-72 0 -105 13t-33 38v168h77q26 0 52.5 6 t53 25.5t52 56.5t49 99.5t44 153.5t37 219t29 296.5t18.5 385.5h919zM1327 638v-428h235q75 0 125.5 16.5t81 45.5t44 68t13.5 84q0 49 -13 89t-44 67.5t-81.5 42.5t-125.5 15h-235z" />
<glyph unicode="&#x40a;" horiz-adv-x="2187" d="M1380 848h236q141 0 241.5 -31t164 -84.5t93.5 -126t30 -155.5q0 -102 -35.5 -185t-103.5 -142.5t-166.5 -91.5t-224.5 -32h-505v632h-679v-632h-270v1446h270v-622h679v622h270v-598zM1380 638v-428h235q75 0 125.5 16.5t81.5 45.5t44 68t13 84q0 49 -13 89t-43.5 67.5 t-81 42.5t-125.5 15h-236z" />
<glyph unicode="&#x40b;" horiz-adv-x="1515" d="M1446 -1h-270v451q0 83 -20 138.5t-74.5 81.5t-152 21t-251.5 -42v-649h-269v1233h-382v213h1069v-213h-418v-393q115 28 216 42t186.5 8.5t153 -32t115 -79.5t72.5 -134.5t25 -195.5v-450z" />
<glyph unicode="&#x40c;" horiz-adv-x="1392" d="M161 0zM430 840h136q41 0 71 14t56 52l317 468q20 32 47 52t65 20h230l-393 -580q-25 -38 -58.5 -63t-72.5 -39q60 -17 101.5 -53.5t79.5 -100.5l379 -610h-244q-38 0 -63.5 20t-47.5 59l-308 486q-12 21 -25.5 34.5t-29 22t-35 11.5t-44.5 3h-161v-636h-269v1446h269 v-606zM1151 1861l-324 -286q-20 -18 -38 -22t-46 -4h-179l209 271q10 14 20 22.5t22 12.5t26.5 5t34.5 1h275z" />
<glyph unicode="&#x40d;" horiz-adv-x="1541" d="M161 0zM1059 1363q9 15 21.5 30t27.5 26.5t32.5 19t37.5 7.5h202v-1446h-270v906q0 51 2.5 106.5t10.5 118.5q-20 -55 -43 -102.5t-45 -83.5l-553 -862q-9 -15 -21.5 -30t-27.5 -26.5t-33 -19t-37 -7.5h-202v1446h270v-906q0 -51 -3 -108t-11 -120q20 56 43.5 104 t46.5 85zM619 1861q20 0 34.5 -1t26 -5.5t21.5 -12.5t21 -22l218 -271h-179q-29 0 -45.5 3.5t-36.5 20.5l-319 288h259z" />
<glyph unicode="&#x40e;" horiz-adv-x="1289" d="M336 204q22 0 45 4t45.5 16t43.5 34t39 58l57 115l-580 1015h252q35 0 56 -17t35 -43l281 -530q46 -85 73 -175q13 45 30 88t38 87l245 530q11 22 33 41t56 19h223l-584 -1245q-31 -65 -66 -107t-75.5 -66t-87 -33.5t-99.5 -9.5q-72 0 -105 13t-33 38v168h78zM673 1655 q37 0 62 7t40 24.5t21 47.5t6 76h146q26 0 38.5 -22t12.5 -48q0 -51 -23 -90t-66 -65t-103 -39.5t-134 -13.5t-134 13.5t-103 39.5t-66 65t-23 90q0 26 12.5 48t38.5 22h146q0 -46 6 -76t21 -47.5t39.5 -24.5t62.5 -7z" />
<glyph unicode="&#x40f;" horiz-adv-x="1491" d="M1330 0h-462v-267q0 -35 -23.5 -56t-61.5 -21h-161v344h-461v1446h270v-1239h628v1239h271v-1446z" />
<glyph unicode="&#x410;" horiz-adv-x="1383" d="M1397 0h-208q-35 0 -57 17.5t-33 43.5l-108 295h-599l-108 -295q-8 -23 -31 -42t-58 -19h-209l568 1446h275zM461 546h461l-176 481q-13 32 -27 75.5t-28 94.5q-14 -51 -27.5 -95t-26.5 -77z" />
<glyph unicode="&#x411;" horiz-adv-x="1259" d="M1142 1238h-712v-390h236q141 0 241.5 -31t164 -84.5t93.5 -126t30 -155.5q0 -102 -35.5 -185t-103.5 -142.5t-166.5 -91.5t-224.5 -32h-504v1446h981v-208zM430 638v-428h235q75 0 125.5 16.5t81.5 45.5t44 68t13 84q0 49 -13 89t-44 67.5t-81 42.5t-125 15h-236z" />
<glyph unicode="&#x412;" horiz-adv-x="1317" d="M161 0v1446h498q142 0 243 -27t165.5 -77t94.5 -121t30 -160q0 -51 -15 -97.5t-46.5 -87t-80 -73.5t-115.5 -56q298 -67 298 -322q0 -92 -35 -170t-102 -134.5t-165 -88.5t-224 -32h-546zM430 634v-424h272q75 0 126 18t81.5 48t44 70t13.5 85q0 47 -15 84.5t-47 64 t-82.5 40.5t-121.5 14h-271zM430 820h214q138 0 208.5 50t70.5 159q0 113 -64 161t-200 48h-229v-418z" />
<glyph unicode="&#x413;" horiz-adv-x="1083" d="M1053 1239h-622v-1239h-270v1446h892v-207z" />
<glyph unicode="&#x414;" horiz-adv-x="1616" d="M1345 1446v-1239h225v-474q0 -35 -23.5 -56t-61.5 -21h-162v344h-1062v-267q0 -35 -23.5 -56t-61.5 -21h-162v551h157q28 15 56 48t54 93t49.5 151.5t42.5 224t32.5 311t20.5 411.5h919zM680 1239q-12 -213 -32.5 -378t-47.5 -290t-60.5 -214t-71.5 -150h607v1032h-395z " />
<glyph unicode="&#x415;" horiz-adv-x="1150" d="M1073 1446v-214h-642v-401h506v-207h-506v-409h642v-215h-912v1446h912z" />
<glyph unicode="&#x416;" horiz-adv-x="2136" d="M255 1446q41 0 75.5 -20t55.5 -56l296 -458q27 -44 59 -58t73 -14h127v606h253v-606h128q41 0 72.5 14t59.5 58l295 458q21 36 55.5 56t76.5 20h212l-373 -558q-29 -46 -60.5 -76.5t-75.5 -47.5q53 -18 95 -54t77 -97l377 -613h-179q-59 0 -100.5 25.5t-66.5 67.5 l-296 463q-27 44 -60 62t-84 18h-153v-636h-253v636h-153q-50 0 -83.5 -18t-59.5 -62l-296 -463q-25 -42 -67 -67.5t-100 -25.5h-180l378 613q35 61 76.5 97t94.5 54q-45 17 -76 47.5t-60 76.5l-373 558h213z" />
<glyph unicode="&#x417;" horiz-adv-x="1163" d="M1043 1083q0 -102 -47 -185t-140 -134q50 -24 91.5 -56.5t71 -72t46 -85.5t16.5 -97q0 -98 -36.5 -183t-106 -148t-170.5 -99.5t-231 -36.5q-76 0 -148.5 13.5t-138.5 38.5t-124 60t-103 78l79 129q11 14 26.5 23.5t34.5 9.5q26 0 57 -20.5t75 -45.5t104.5 -45.5 t145.5 -20.5q135 0 209 58t74 178q0 49 -20 88t-57 66t-89.5 41.5t-116.5 14.5h-204l-1 216h186q125 0 195.5 49.5t70.5 143.5q0 83 -66.5 132.5t-192.5 49.5q-73 0 -125.5 -16t-91 -34.5t-65 -34.5t-47.5 -16q-20 0 -34 10t-26 30l-66 128q84 72 199.5 112t256.5 40 q117 0 211.5 -28t160.5 -78.5t101.5 -120t35.5 -152.5z" />
<glyph unicode="&#x418;" horiz-adv-x="1541" d="M1059 1363q9 15 21.5 30t27.5 26.5t32.5 19t37.5 7.5h202v-1446h-270v906q0 51 2.5 106.5t10.5 118.5q-20 -55 -43 -102.5t-45 -83.5l-553 -862q-9 -15 -21.5 -30t-27.5 -26.5t-33 -19t-37 -7.5h-202v1446h270v-906q0 -51 -3 -108t-11 -120q20 56 43.5 104t46.5 85z" />
<glyph unicode="&#x419;" horiz-adv-x="1541" d="M161 0zM1059 1363q9 15 21.5 30t27.5 26.5t32.5 19t37.5 7.5h202v-1446h-270v906q0 51 2.5 106.5t10.5 118.5q-20 -55 -43 -102.5t-45 -83.5l-553 -862q-9 -15 -21.5 -30t-27.5 -26.5t-33 -19t-37 -7.5h-202v1446h270v-906q0 -51 -3 -108t-11 -120q20 56 43.5 104 t46.5 85zM783 1655q37 0 62 7t40 24.5t21 47.5t6 76h146q26 0 38.5 -22t12.5 -48q0 -51 -23 -90t-66 -65t-103 -39.5t-134 -13.5t-134 13.5t-103 39.5t-66 65t-23 90q0 26 12.5 48t38.5 22h146q0 -46 6 -76t21 -47.5t39.5 -24.5t62.5 -7z" />
<glyph unicode="&#x41a;" horiz-adv-x="1392" d="M430 840h136q41 0 71 14t56 52l317 468q20 32 47 52t65 20h230l-393 -580q-25 -38 -58.5 -63t-72.5 -39q60 -17 101.5 -53.5t79.5 -100.5l379 -610h-244q-38 0 -63.5 20t-47.5 59l-308 486q-12 21 -25.5 34.5t-29 22t-35 11.5t-44.5 3h-161v-636h-269v1446h269v-606z" />
<glyph unicode="&#x41b;" horiz-adv-x="1488" d="M1327 1446v-1446h-271v1239h-395q-14 -272 -39.5 -470.5t-61.5 -338t-81 -226.5t-99 -135.5t-116 -66t-130 -17.5q-72 0 -105 13t-33 38v168h77q26 0 52.5 6t53 25.5t52 56.5t49 99.5t44 153.5t37 219t29 296.5t18.5 385.5h919z" />
<glyph unicode="&#x41c;" horiz-adv-x="1890" d="M887 600q17 -32 31.5 -66.5t28.5 -69.5q14 37 29 71.5t32 66.5l427 801q8 15 17 24t19.5 13t23.5 5t31 1h203v-1446h-237v934q0 26 1.5 57t4.5 63l-437 -820q-31 -59 -95 -59h-38q-64 0 -95 59l-442 823q3 -33 5 -64.5t2 -58.5v-934h-237v1446h203q18 0 31 -1t23.5 -5 t19 -13t16.5 -24l433 -803v0z" />
<glyph unicode="&#x41d;" horiz-adv-x="1541" d="M1380 0h-270v632h-679v-632h-270v1446h270v-622h679v622h270v-1446z" />
<glyph unicode="&#x41e;" horiz-adv-x="1616" d="M1540 723q0 -159 -52.5 -294.5t-148.5 -234.5t-231 -154.5t-300 -55.5q-164 0 -299 55.5t-231.5 154.5t-149.5 234.5t-53 294.5t53 294.5t149.5 234.5t231.5 154.5t299 55.5q110 0 207 -25.5t178 -72t145.5 -113t109.5 -148.5t68.5 -178t23.5 -202zM1265 723 q0 119 -32 213.5t-91 160.5t-143.5 101t-190.5 35t-190.5 -35t-144 -101t-91.5 -160.5t-32 -213.5t32 -213.5t91.5 -160t144 -100.5t190.5 -35t190.5 35t143.5 100.5t91 160t32 213.5z" />
<glyph unicode="&#x41f;" horiz-adv-x="1491" d="M1330 0h-271v1239h-628v-1239h-270v1446h1169v-1446z" />
<glyph unicode="&#x420;" horiz-adv-x="1238" d="M430 509v-509h-269v1446h470q145 0 251 -34t175 -95t102.5 -146t33.5 -186q0 -105 -35 -192.5t-105 -150.5t-175.5 -98t-246.5 -35h-201zM430 719h201q74 0 129 18.5t91.5 53t54.5 84t18 110.5q0 58 -18 105t-54 80t-91 50.5t-130 17.5h-201v-519z" />
<glyph unicode="&#x421;" horiz-adv-x="1323" d="M1154 341q22 0 39 -17l106 -115q-88 -109 -216.5 -167t-308.5 -58q-161 0 -289.5 55t-219.5 153t-139.5 234t-48.5 297q0 163 52 298.5t146.5 233.5t225.5 152.5t290 54.5q158 0 280.5 -52t208.5 -136l-90 -125q-8 -12 -20.5 -21t-34.5 -9q-15 0 -31 8.5t-35 21t-44 27.5 t-58 27.5t-76.5 21t-100.5 8.5q-97 0 -177.5 -34.5t-138.5 -100t-90 -160t-32 -215.5q0 -122 34.5 -217t93.5 -160t139 -99.5t172 -34.5q55 0 99.5 6t82 19t71 33.5t66.5 50.5q10 9 21 14.5t23 5.5z" />
<glyph unicode="&#x422;" horiz-adv-x="1200" d="M1171 1446v-221h-436v-1225h-269v1225h-436v221h1141z" />
<glyph unicode="&#x423;" horiz-adv-x="1289" d="M336 204q22 0 45 4t45.5 16t43.5 34t39 58l57 115l-580 1015h252q35 0 56 -17t35 -43l281 -530q46 -85 73 -175q13 45 30 88t38 87l245 530q11 22 33 41t56 19h223l-584 -1245q-31 -65 -66 -107t-75.5 -66t-87 -33.5t-99.5 -9.5q-72 0 -105 13t-33 38v168h78v0z" />
<glyph unicode="&#x424;" horiz-adv-x="1609" d="M932 1337q134 -4 247 -51t195 -125.5t128 -182.5t46 -222q0 -119 -46 -223.5t-128 -183.5t-195 -126t-247 -51v-172h-255v172q-134 4 -247 51.5t-195 126t-128 183t-46 223.5q0 118 46 222t128 182.5t195 125.5t247 51v170h255v-170zM1280 756q0 76 -25.5 143.5 t-71.5 118t-110 80.5t-141 32v-750q77 2 141 32t110 80.5t71.5 118t25.5 145.5zM330 756q0 -78 25 -145.5t71 -118t109.5 -80.5t141.5 -32v750q-78 -2 -141.5 -32t-109.5 -80.5t-71 -118t-25 -143.5z" />
<glyph unicode="&#x425;" horiz-adv-x="1341" d="M483 744l-461 702h268q28 0 40.5 -7.5t23.5 -24.5l328 -530q5 12 11 24.5t14 25.5l302 475q11 19 24 28t33 9h257l-465 -691l478 -755h-268q-28 0 -44.5 14t-26.5 32l-335 554q-7 -22 -19 -42l-321 -512q-12 -17 -27.5 -31.5t-40.5 -14.5h-251z" />
<glyph unicode="&#x426;" horiz-adv-x="1589" d="M161 0v1446h270v-1239h628v1239h271v-1239h207v-474q0 -35 -23.5 -56t-61.5 -21h-162v344h-1129z" />
<glyph unicode="&#x427;" horiz-adv-x="1352" d="M1191 0h-271v579q-117 -29 -224.5 -43t-201 -9t-170.5 31t-131.5 79t-84.5 134.5t-30 197.5v477h271v-477q0 -84 29 -140t95.5 -82t176 -20.5t270.5 43.5v676h271v-1446z" />
<glyph unicode="&#x428;" horiz-adv-x="2170" d="M2009 0h-1848v1446h270v-1239h518v1239h270v-1239h520v1239h270v-1446z" />
<glyph unicode="&#x429;" horiz-adv-x="2268" d="M161 0v1446h270v-1239h518v1239h270v-1239h520v1239h270v-1239h207v-474q0 -35 -23.5 -56t-61.5 -21h-162v344h-1808z" />
<glyph unicode="&#x42a;" horiz-adv-x="1513" d="M29 1446h677v-598h236q141 0 241.5 -31t164 -84.5t93.5 -126t30 -155.5q0 -102 -35.5 -185t-103.5 -142.5t-166.5 -91.5t-224.5 -32h-504v1232h-408v214zM706 638v-428h235q75 0 125.5 16.5t81.5 45.5t44 68t13 84q0 49 -13 89t-44 67.5t-81 42.5t-125 15h-236z" />
<glyph unicode="&#x42b;" horiz-adv-x="1838" d="M161 0zM430 1446v-598h236q141 0 241.5 -31t164 -84.5t93.5 -126t30 -155.5q0 -102 -35.5 -185t-103.5 -142.5t-166.5 -91.5t-224.5 -32h-504v1446h269zM430 638v-428h235q75 0 125.5 16.5t81.5 45.5t44 68t13 84q0 49 -13 89t-44 67.5t-81 42.5t-125 15h-236zM1676 0 h-270v1446h270v-1446z" />
<glyph unicode="&#x42c;" horiz-adv-x="1236" d="M430 1446v-598h236q141 0 241.5 -31t164 -84.5t93.5 -126t30 -155.5q0 -102 -35.5 -185t-103.5 -142.5t-166.5 -91.5t-224.5 -32h-504v1446h269zM430 638v-428h235q75 0 125.5 16.5t81.5 45.5t44 68t13 84q0 49 -13 89t-44 67.5t-81 42.5t-125 15h-236z" />
<glyph unicode="&#x42d;" horiz-adv-x="1336" d="M182 341q22 0 45 -20q33 -30 66.5 -50.5t71 -33.5t82 -19t99.5 -6q82 0 155.5 28t131.5 82t96.5 132.5t50.5 179.5h-670v200h667q-14 95 -51 169.5t-93 125.5t-128.5 77.5t-157.5 26.5q-86 0 -142 -18t-93.5 -39t-62.5 -39t-47 -18t-34.5 9t-21.5 21l-89 125 q85 84 207.5 136t280.5 52q159 0 290.5 -54.5t226 -152.5t146.5 -233.5t52 -298.5q0 -161 -49 -297t-139.5 -234t-219.5 -153t-289 -55q-179 0 -308.5 58t-217.5 167l107 115q16 17 38 17z" />
<glyph unicode="&#x42e;" horiz-adv-x="2133" d="M431 824h261q15 139 68.5 256.5t141.5 202t206.5 132t262.5 47.5q157 0 283.5 -55.5t215.5 -154.5t137 -234.5t48 -294.5t-48 -294.5t-137 -234t-215.5 -154t-283.5 -55.5q-144 0 -262 46.5t-205.5 130.5t-141.5 200t-69 255h-262v-617h-270v1446h270v-622zM1371 207 q96 0 172 36t128.5 103t80.5 162.5t28 214.5t-28 214.5t-80.5 163t-128.5 103.5t-172 36t-172 -36t-128.5 -103.5t-80.5 -163t-28 -214.5t28 -214.5t80.5 -162.5t128.5 -103t172 -36z" />
<glyph unicode="&#x42f;" horiz-adv-x="1358" d="M928 0v598h-148q-24 0 -46.5 -4.5t-43 -16t-40.5 -31t-39 -50.5l-255 -403q-25 -42 -67 -67.5t-100 -25.5h-203l332 508q60 96 153 137q-80 21 -139.5 57t-98.5 84.5t-58 108t-19 127.5q0 93 35.5 171t103 134t166 87.5t224.5 31.5h512v-1446h-269zM421 1024 q0 -49 13 -89t44 -68t81.5 -43.5t125.5 -15.5h243v429h-243q-75 0 -125.5 -16.5t-81 -45.5t-44 -67.5t-13.5 -83.5z" />
<glyph unicode="&#x430;" horiz-adv-x="1015" d="M793 0q-35 0 -54 10.5t-30 42.5l-22 73q-39 -35 -76 -61.5t-77 -44.5t-85.5 -27t-100.5 -9q-65 0 -120 17.5t-95 52.5t-62 87t-22 121q0 58 30.5 114.5t101.5 102t189 75.5t294 34v60q0 103 -44 152.5t-127 49.5q-60 0 -99.5 -14t-69.5 -31.5t-54.5 -31.5t-54.5 -14 q-26 0 -44 13.5t-29 31.5l-44 79q177 162 426 162q90 0 161 -29.5t120 -82t74.5 -125.5t25.5 -160v-648h-112zM424 154q76 0 131.5 27.5t108.5 83.5v173q-108 -5 -180.5 -18.5t-116.5 -34.5t-63 -49t-19 -61q0 -65 38.5 -93t100.5 -28z" />
<glyph unicode="&#x431;" horiz-adv-x="1182" d="M676 1212q-94 -6 -160.5 -37t-110 -82.5t-66 -123t-26.5 -158.5q51 79 142.5 128.5t214.5 49.5q102 0 184 -36t139.5 -102t88 -158.5t30.5 -204.5q0 -116 -36.5 -209t-103 -158.5t-160.5 -100.5t-208 -35q-111 0 -204.5 36t-161.5 117t-106 210.5t-38 316.5q0 157 29 292 t95 236.5t173 163.5t264 74l365 28l13 -128q4 -41 -12 -69.5t-57 -30.5zM604 165q128 0 191 82t63 240q0 157 -61.5 239t-187.5 82t-192 -77.5t-66 -231.5q0 -163 62.5 -248.5t190.5 -85.5z" />
<glyph unicode="&#x432;" horiz-adv-x="1005" d="M122 1026h404q97 0 167.5 -19t116.5 -52t68 -78.5t22 -98.5q0 -33 -8.5 -69t-30.5 -68.5t-59 -59.5t-94 -42q51 -11 93.5 -30.5t72.5 -49t46.5 -69t16.5 -88.5q0 -78 -32.5 -135t-87 -94t-126 -55t-149.5 -18h-420v1026zM357 444v-275h184q78 0 123.5 38t45.5 104 q0 28 -7.5 52.5t-26.5 42.5t-51.5 28t-82.5 10h-185zM357 596h162q36 0 66 10.5t52 30t34 46t12 58.5q0 23 -8 45.5t-27 40t-50.5 28t-78.5 10.5h-162v-269z" />
<glyph unicode="&#x433;" horiz-adv-x="841" d="M817 1026v-183h-448v-843h-247v1026h695z" />
<glyph unicode="&#x434;" horiz-adv-x="1267" d="M1046 1026v-843h188v-453q0 -34 -19.5 -54t-50.5 -20h-154v344h-768v-274q0 -26 -16.5 -48t-51.5 -22h-156v520h39q34 1 66 12t61.5 43t55.5 89.5t47.5 151.5t37.5 230t26 324h695zM553 837q-10 -129 -25 -232.5t-35 -184.5t-43.5 -141t-50.5 -103h407v661h-253z" />
<glyph unicode="&#x435;" horiz-adv-x="1068" d="M559 1042q97 0 179 -31t141 -90.5t92.5 -146t33.5 -197.5q0 -56 -12 -75.5t-46 -19.5h-635q6 -79 28 -136.5t58 -95t85.5 -56t109.5 -18.5t103.5 14t76 31t57 31t47.5 14q31 0 46 -23l71 -90q-41 -48 -92 -80.5t-106.5 -52t-113 -27.5t-111.5 -8q-107 0 -199 35.5 t-160 105t-107 172t-39 237.5q0 105 34 197.5t97.5 161t155 108.5t206.5 40zM564 865q-108 0 -169 -61t-78 -173h466q0 48 -13.5 90.5t-40.5 74.5t-68.5 50.5t-96.5 18.5z" />
<glyph unicode="&#x436;" horiz-adv-x="1634" d="M518 666q19 -32 44.5 -47.5t67.5 -15.5h68v423h239v-423h63q42 0 69.5 15.5t46.5 47.5l174 295q16 30 44.5 47.5t63.5 17.5h194l-240 -381q-24 -40 -50 -64.5t-63 -38.5q50 -15 82 -44.5t57 -74.5l241 -423h-171q-66 0 -100 20t-54 65l-152 284q-19 37 -50.5 55t-73.5 18 h-81v-442h-239v442h-82q-41 0 -73 -18t-51 -55l-152 -284q-20 -45 -54 -65t-100 -20h-170l240 423q25 45 57 74.5t82 44.5q-37 14 -63 38.5t-50 64.5l-240 381h195q34 0 62.5 -17.5t44.5 -47.5z" />
<glyph unicode="&#x437;" horiz-adv-x="901" d="M62 915q58 56 144 91.5t206 35.5q95 0 169 -22.5t124.5 -61t77 -88t26.5 -103.5q0 -30 -8.5 -61.5t-28.5 -61t-52 -55.5t-79 -44q85 -31 136.5 -92.5t51.5 -153.5q0 -75 -34.5 -133t-91.5 -98.5t-130.5 -61.5t-151.5 -21q-44 0 -94.5 8t-101.5 27.5t-100 52t-89 80.5 l71 90q15 23 45 23q23 0 44 -14.5t48.5 -32t65.5 -32t95 -14.5q93 0 141 42t48 105q0 62 -49.5 97t-160.5 35h-116v161h116q97 0 149 34t52 90q0 51 -45.5 84t-134.5 33q-53 0 -90 -11t-63.5 -23.5t-44.5 -23.5t-34 -11q-17 0 -29 6.5t-26 28.5z" />
<glyph unicode="&#x438;" horiz-adv-x="1166" d="M122 -1v1026h247v-599q0 -23 -2.5 -50.5t-6.5 -55.5q22 49 44 81q1 2 19 27t46.5 65t64.5 90.5t73 103.5q87 123 198 278q14 22 37 41.5t52 19.5h150v-1026h-247v599q0 23 2 50t7 55q-11 -23 -22 -43.5t-22 -36.5q-2 -2 -20 -27.5t-46.5 -65.5t-64.5 -90.5t-73 -102.5 q-87 -123 -197 -278q-14 -21 -36.5 -41t-51.5 -20h-151z" />
<glyph unicode="&#x439;" horiz-adv-x="1166" d="M122 0zM122 -1v1026h247v-599q0 -23 -2.5 -50.5t-6.5 -55.5q22 49 44 81q1 2 19 27t46.5 65t64.5 90.5t73 103.5q87 123 198 278q14 22 37 41.5t52 19.5h150v-1026h-247v599q0 23 2 50t7 55q-11 -23 -22 -43.5t-22 -36.5q-2 -2 -20 -27.5t-46.5 -65.5t-64.5 -90.5 t-73 -102.5q-87 -123 -197 -278q-14 -21 -36.5 -41t-51.5 -20h-151zM597 1286q37 0 62 8t40 26.5t21 49.5t6 76h146q26 0 38.5 -21.5t12.5 -47.5q0 -51 -23 -92.5t-66 -70t-103 -44t-134 -15.5t-134 15.5t-103 44t-66 70t-23 92.5q0 26 12.5 47.5t38.5 21.5h146q0 -45 6 -76 t21 -49.5t39.5 -26.5t62.5 -8z" />
<glyph unicode="&#x43a;" horiz-adv-x="1086" d="M735 961q18 29 49 47t66 18h194l-239 -381q-25 -40 -51 -64.5t-63 -38.5q50 -15 82 -44.5t58 -74.5l240 -423h-171q-65 0 -101 22t-61 63l-151 284q-20 37 -51.5 55t-73.5 18h-93v-442h-247v1026h247v-423h80q42 0 67.5 15.5t43.5 47.5z" />
<glyph unicode="&#x43b;" horiz-adv-x="1196" d="M1074 1026v-1026h-247v837h-252q-12 -189 -37 -325.5t-59.5 -231.5t-77 -152.5t-90.5 -89.5t-99 -42.5t-103 -10.5q-55 0 -80.5 9.5t-25.5 26.5v154h59q33 0 66 10t64 41t59 88.5t51.5 152t41.5 231.5t28 328h702z" />
<glyph unicode="&#x43c;" horiz-adv-x="1433" d="M662 541q15 -30 29.5 -63.5t26.5 -67.5q12 35 25.5 68t29.5 63l240 432q18 34 43 44.5t51 10.5h204v-1028h-223v572q0 35 3.5 79t10.5 82l-301 -554q-22 -43 -70 -43h-26q-48 0 -70 43l-306 557q6 -38 11 -83.5t5 -80.5v-572h-223v1028h204q26 0 51.5 -11t42.5 -44 l242 -432v0z" />
<glyph unicode="&#x43d;" horiz-adv-x="1139" d="M1016 1026v-1026h-247v454h-400v-454h-247v1026h247v-389h400v389h247z" />
<glyph unicode="&#x43e;" horiz-adv-x="1149" d="M576 1042q114 0 207.5 -37t160 -105t102.5 -166t36 -219q0 -122 -36 -220t-102.5 -167t-160 -106t-207.5 -37q-115 0 -209 37t-160.5 106t-103 167t-36.5 220q0 121 36.5 219t103 166t160.5 105t209 37zM576 175q128 0 189.5 86t61.5 252t-61.5 253t-189.5 87 q-130 0 -192.5 -87.5t-62.5 -252.5t62.5 -251.5t192.5 -86.5z" />
<glyph unicode="&#x43f;" horiz-adv-x="1139" d="M1016 1026v-1026h-247v843h-400v-843h-247v1026h894z" />
<glyph unicode="&#x440;" horiz-adv-x="1135" d="M122 -335v1361h151q48 0 63 -45l20 -95q62 71 142.5 115t188.5 44q84 0 153.5 -35t120 -101.5t78 -164t27.5 -223.5q0 -115 -31 -213t-88.5 -170t-139 -112.5t-182.5 -40.5q-87 0 -147.5 26.5t-108.5 73.5v-420h-247zM602 850q-77 0 -131.5 -32.5t-101.5 -91.5v-460 q42 -52 91.5 -72.5t107.5 -20.5q56 0 101 21t76.5 64t48.5 108.5t17 154.5q0 90 -14.5 152.5t-41.5 101.5t-65.5 57t-87.5 18z" />
<glyph unicode="&#x441;" horiz-adv-x="964" d="M857 809q-11 -14 -21.5 -22t-30.5 -8q-19 0 -37 11.5t-43 26t-59.5 26t-85.5 11.5q-65 0 -114 -23.5t-81.5 -67.5t-48.5 -106.5t-16 -141.5q0 -82 17.5 -146t50.5 -107.5t80 -66t106 -22.5t95.5 14.5t61.5 32t43.5 32t41.5 14.5q30 0 45 -23l71 -90q-41 -48 -89 -80.5 t-99.5 -52t-106 -27.5t-108.5 -8q-95 0 -179 35.5t-147 103.5t-99.5 166.5t-36.5 224.5q0 113 32.5 209.5t95.5 167t156 110.5t214 40q115 0 201.5 -37t155.5 -106z" />
<glyph unicode="&#x442;" horiz-adv-x="1026" d="M24 1026h978v-183h-366v-843h-247v843h-365v183z" />
<glyph unicode="&#x443;" horiz-adv-x="1055" d="M495 -282q-11 -26 -28.5 -39.5t-53.5 -13.5h-184l192 411l-415 950h217q29 0 45.5 -14t24.5 -32l218 -532q20 -55 33 -109q8 28 17.5 55.5t20.5 54.5l206 531q8 20 26.5 33t41.5 13h198z" />
<glyph unicode="&#x444;" horiz-adv-x="1462" d="M847 1446v-406q123 -7 224.5 -46.5t174 -107.5t112.5 -162t40 -209q0 -117 -40 -211.5t-112.5 -162.5t-174 -107.5t-224.5 -46.5v-331h-232v331q-123 7 -224.5 46.5t-174 107.5t-112.5 162.5t-40 211.5q0 115 40 209t112.5 162t174 107.5t224.5 46.5v406h232zM1151 513 q0 77 -21 138.5t-61.5 105.5t-98.5 69.5t-131 31.5v-690q73 6 131 31.5t98.5 69.5t61.5 105.5t21 138.5zM311 513q0 -77 21 -138.5t61.5 -105.5t98 -69.5t131.5 -31.5v690q-74 -6 -131.5 -31.5t-98 -69.5t-61.5 -105.5t-21 -138.5z" />
<glyph unicode="&#x445;" horiz-adv-x="1044" d="M357 529l-337 497h238q27 0 40 -7.5t23 -24.5l215 -343q5 17 12.5 34t18.5 34l173 270q22 37 57 37h227l-338 -486l352 -540h-238q-27 0 -43.5 14t-27.5 32l-218 357q-9 -36 -25 -60l-192 -297q-11 -17 -27 -31.5t-40 -14.5h-221z" />
<glyph unicode="&#x446;" horiz-adv-x="1238" d="M122 1026h247v-843h400v843h247v-843h189v-453q0 -34 -20 -54t-51 -20h-154v344h-858v1026z" />
<glyph unicode="&#x447;" horiz-adv-x="1054" d="M932 0h-247v403q-133 -32 -245.5 -36.5t-195 27t-129 102t-46.5 189.5v341h247v-303q0 -63 20.5 -101.5t65 -56t114.5 -14.5t169 24v451h247v-1026z" />
<glyph unicode="&#x448;" horiz-adv-x="1663" d="M122 1026h247v-843h339v843h247v-843h339v843h247v-1026h-1419v1026z" />
<glyph unicode="&#x449;" horiz-adv-x="1763" d="M122 1026h247v-843h339v843h247v-843h339v843h247v-843h188v-453q0 -34 -19.5 -54t-50.5 -20h-154v344h-1383v1026z" />
<glyph unicode="&#x44a;" horiz-adv-x="1187" d="M25 1026h549v-380h182q107 0 181 -26t120 -70t66.5 -101.5t20.5 -120.5q0 -72 -25.5 -132.5t-75 -104t-121 -67.5t-163.5 -24h-420v840h-314v186zM574 470v-293h184q84 0 125.5 42t41.5 108q0 28 -9.5 54t-29.5 46t-52 31.5t-77 11.5h-183z" />
<glyph unicode="&#x44b;" horiz-adv-x="1483" d="M357 1026v-380h182q107 0 181 -26t120 -70t66.5 -101.5t20.5 -120.5q0 -72 -25.5 -132.5t-75 -104t-121 -67.5t-163.5 -24h-420v1026h235zM1361 1026v-1026h-247v1026h247zM357 470v-293h184q84 0 125.5 42t41.5 108q0 28 -9.5 54t-29.5 46t-52 31.5t-77 11.5h-183z" />
<glyph unicode="&#x44c;" horiz-adv-x="970" d="M357 1026v-380h182q107 0 181 -26t120 -70t66.5 -101.5t20.5 -120.5q0 -72 -25.5 -132.5t-75 -104t-121 -67.5t-163.5 -24h-420v1026h235zM357 470v-293h184q84 0 125.5 42t41.5 108q0 28 -9.5 54t-29.5 46t-52 31.5t-77 11.5h-183z" />
<glyph unicode="&#x44d;" horiz-adv-x="974" d="M52 899q69 69 155.5 106t201.5 37q121 0 214 -40t156.5 -110.5t96 -167t32.5 -209.5q0 -126 -36.5 -224.5t-99.5 -166.5t-147 -103.5t-179 -35.5q-54 0 -109 8t-106.5 27.5t-99.5 52t-89 80.5l67 83q16 22 46 22q15 0 28 -6.5t27.5 -15.5t31 -20.5t38.5 -20.5t51 -15.5 t69 -6.5q103 0 171.5 68.5t85.5 198.5h-435v168h433q-19 116 -85 181t-176 65q-51 0 -86 -10.5t-60.5 -23t-44 -23t-37.5 -10.5q-20 0 -30.5 8t-21.5 22z" />
<glyph unicode="&#x44e;" horiz-adv-x="1604" d="M369 1026v-418h204q12 101 50.5 181.5t99.5 136.5t143.5 86t182.5 30q111 0 201 -37t154 -105t99 -166t35 -219q0 -122 -36 -220t-101 -167t-155 -106t-197 -37q-104 0 -187.5 31t-144 89t-98 141t-47.5 187h-203v-433h-247v1026h247zM1049 175q120 0 177 86t57 252 t-57 253t-177 87t-177 -87.5t-57 -252.5q0 -166 56.5 -252t177.5 -86z" />
<glyph unicode="&#x44f;" horiz-adv-x="1015" d="M892 0h-235v412h-43q-30 0 -49.5 -5.5t-33 -15t-23 -23.5t-19.5 -31l-164 -252q-12 -21 -25.5 -37t-31 -26.5t-41 -16t-56.5 -5.5h-171l259 362q41 72 114 98q-72 13 -122 40.5t-81 64t-45 78.5t-14 83q0 57 22.5 111t71.5 96t126 67.5t185 25.5h376v-1026zM359 715 q0 -71 47.5 -111t127.5 -40h123v301h-134q-47 0 -78 -13.5t-50.5 -35t-27.5 -48.5t-8 -53z" />
<glyph unicode="&#x450;" horiz-adv-x="1068" d="M66 0zM559 1042q97 0 179 -31t141 -90.5t92.5 -146t33.5 -197.5q0 -56 -12 -75.5t-46 -19.5h-635q6 -79 28 -136.5t58 -95t85.5 -56t109.5 -18.5t103.5 14t76 31t57 31t47.5 14q31 0 46 -23l71 -90q-41 -48 -92 -80.5t-106.5 -52t-113 -27.5t-111.5 -8q-107 0 -199 35.5 t-160 105t-107 172t-39 237.5q0 105 34 197.5t97.5 161t155 108.5t206.5 40zM564 865q-108 0 -169 -61t-78 -173h466q0 48 -13.5 90.5t-40.5 74.5t-68.5 50.5t-96.5 18.5zM476 1462q41 0 61 -13.5t34 -39.5l143 -243h-141q-28 0 -45.5 7.5t-35.5 27.5l-247 261h231z" />
<glyph unicode="&#x451;" horiz-adv-x="1068" d="M66 0zM559 1042q97 0 179 -31t141 -90.5t92.5 -146t33.5 -197.5q0 -56 -12 -75.5t-46 -19.5h-635q6 -79 28 -136.5t58 -95t85.5 -56t109.5 -18.5t103.5 14t76 31t57 31t47.5 14q31 0 46 -23l71 -90q-41 -48 -92 -80.5t-106.5 -52t-113 -27.5t-111.5 -8q-107 0 -199 35.5 t-160 105t-107 172t-39 237.5q0 105 34 197.5t97.5 161t155 108.5t206.5 40zM564 865q-108 0 -169 -61t-78 -173h466q0 48 -13.5 90.5t-40.5 74.5t-68.5 50.5t-96.5 18.5zM501 1292q0 -28 -11 -52.5t-30.5 -42.5t-45 -28.5t-54.5 -10.5q-27 0 -51.5 10.5t-43 28.5 t-29.5 42.5t-11 52.5q0 29 11 54.5t29.5 44.5t43 30t51.5 11q29 0 54.5 -11t45 -30t30.5 -44.5t11 -54.5zM905 1292q0 -28 -11 -52.5t-29.5 -42.5t-44 -28.5t-54.5 -10.5q-28 0 -53 10.5t-43.5 28.5t-29.5 42.5t-11 52.5q0 29 11 54.5t29.5 44.5t43.5 30t53 11 q29 0 54.5 -11t44 -30t29.5 -44.5t11 -54.5z" />
<glyph unicode="&#x452;" horiz-adv-x="1123" d="M-42 1266h164v220h247v-220h317v-186h-317v-256q60 57 132 92t169 35q187 0 276.5 -119t89.5 -348q0 -105 -16.5 -210t-47 -208t-74 -201.5t-98.5 -190.5l-199 75q46 88 81 174t59 175.5t36 185t12 200.5q0 74 -14 126t-39.5 85t-61.5 48t-79 15q-64 0 -120.5 -29 t-105.5 -78v-651h-247v1080h-164v186z" />
<glyph unicode="&#x453;" horiz-adv-x="841" d="M122 0zM817 1026v-183h-448v-843h-247v1026h695zM784 1462l-247 -261q-19 -20 -36.5 -27.5t-45.5 -7.5h-148l142 243q15 26 35 39.5t60 13.5h240z" />
<glyph unicode="&#x454;" horiz-adv-x="974" d="M860 817q-11 -14 -21.5 -22t-29.5 -8t-38 10.5t-44.5 23t-60.5 23t-86 10.5q-111 0 -177 -65t-84 -181h433v-168h-436q17 -130 86 -198.5t172 -68.5q39 0 68.5 6.5t51.5 15.5t39 20.5t31 20.5t27 15.5t29 6.5q29 0 45 -22l67 -83q-41 -48 -89 -80.5t-99.5 -52t-106 -27.5 t-108.5 -8q-95 0 -179 35.5t-147 103.5t-99.5 166.5t-36.5 224.5q0 113 32.5 209.5t95.5 167t156 110.5t214 40q115 0 201.5 -37t155.5 -106z" />
<glyph unicode="&#x455;" horiz-adv-x="879" d="M748 826q-10 -16 -21 -22.5t-28 -6.5q-18 0 -38.5 10t-47.5 22.5t-61.5 22.5t-81.5 10q-73 0 -114.5 -31t-41.5 -81q0 -33 21.5 -55.5t57 -39.5t80.5 -30.5t91.5 -29.5t91.5 -36.5t80.5 -52t57 -75.5t21.5 -106q0 -74 -26.5 -136.5t-78.5 -108t-128.5 -71t-176.5 -25.5 q-53 0 -103.5 9.5t-97 26.5t-86 40t-69.5 50l57 94q11 17 26 26t38 9t43.5 -13t47.5 -28t63.5 -28t92.5 -13q44 0 75.5 10.5t52 27.5t30 39.5t9.5 46.5q0 36 -21.5 59t-57 40t-81 30.5t-93 29.5t-93 37.5t-81 54.5t-57 81t-21.5 116q0 63 25 120t73.5 99.5t121 68 t167.5 25.5q106 0 193 -35t145 -92z" />
<glyph unicode="&#x456;" horiz-adv-x="508" d="M378 1026v-1026h-248v1026h248zM412 1325q0 -32 -13 -60t-34.5 -49t-50.5 -33.5t-62 -12.5q-32 0 -60.5 12.5t-49.5 33.5t-33.5 49t-12.5 60q0 33 12.5 62t33.5 50t49.5 33.5t60.5 12.5q33 0 62 -12.5t50.5 -33.5t34.5 -50t13 -62z" />
<glyph unicode="&#x457;" horiz-adv-x="508" d="M0 0zM377 1026v-1026h-247v1026h247zM229 1292q0 -28 -11 -52.5t-30.5 -42.5t-45 -28.5t-53.5 -10.5q-27 0 -51.5 10.5t-43.5 28.5t-30 42.5t-11 52.5q0 29 11 54.5t30 44.5t43.5 30t51.5 11q28 0 53.5 -11t45 -30t30.5 -44.5t11 -54.5zM569 1292q0 -28 -11 -52.5 t-29.5 -42.5t-44 -28.5t-54.5 -10.5q-28 0 -53 10.5t-43.5 28.5t-29.5 42.5t-11 52.5q0 29 11 54.5t29.5 44.5t43.5 30t53 11q29 0 54.5 -11t44 -30t29.5 -44.5t11 -54.5z" />
<glyph unicode="&#x458;" horiz-adv-x="508" d="M378 1026v-1061q0 -67 -17.5 -126t-56 -103.5t-101 -70t-152.5 -25.5q-35 0 -65 4.5t-62 14.5l9 133q3 20 16 25.5t50 5.5t62.5 7.5t40.5 24t21.5 43.5t6.5 67v1061h248zM412 1325q0 -32 -13 -60t-34.5 -49t-51 -33.5t-62.5 -12.5q-32 0 -60 12.5t-49 33.5t-33.5 49 t-12.5 60q0 33 12.5 62t33.5 50t49 33.5t60 12.5q33 0 62.5 -12.5t51 -33.5t34.5 -50t13 -62z" />
<glyph unicode="&#x459;" horiz-adv-x="1686" d="M1074 1026v-380h181q108 0 182 -26t120 -70t66.5 -101.5t20.5 -120.5q0 -72 -26 -132.5t-75.5 -104t-121 -67.5t-163.5 -24h-431v837h-252q-12 -189 -37 -325.5t-59.5 -231.5t-77 -152.5t-90.5 -89.5t-99 -42.5t-103 -10.5q-55 0 -80.5 9.5t-25.5 26.5v154h59q33 0 66 10 t64 41t59 88.5t51.5 152t41.5 231.5t28 328h702zM1074 470v-293h184q84 0 125 42t41 108q0 28 -9 54t-29.5 46t-52.5 31.5t-77 11.5h-182z" />
<glyph unicode="&#x45a;" horiz-adv-x="1629" d="M1016 1026v-380h182q107 0 181 -26t120 -70t66.5 -101.5t20.5 -120.5q0 -72 -25.5 -132.5t-75 -104t-121 -67.5t-163.5 -24h-432v454h-400v-454h-247v1026h247v-389h400v389h247zM1016 470v-293h184q84 0 125.5 42t41.5 108q0 28 -9.5 54t-29.5 46t-52 31.5t-77 11.5 h-183z" />
<glyph unicode="&#x45b;" horiz-adv-x="1128" d="M-22 1291h144v195h247v-195h281v-153h-281v-254q60 57 132 92t169 35q84 0 148.5 -28.5t108 -80t66 -123t22.5 -157.5v-622h-247v622q0 94 -43 145.5t-130 51.5q-64 0 -120.5 -29t-105.5 -79v-711h-247v1138h-144v153z" />
<glyph unicode="&#x45c;" horiz-adv-x="1086" d="M122 0zM735 961q18 29 49 47t66 18h194l-239 -381q-25 -40 -51 -64.5t-63 -38.5q50 -15 82 -44.5t58 -74.5l240 -423h-171q-65 0 -101 22t-61 63l-151 284q-20 37 -51.5 55t-73.5 18h-93v-442h-247v1026h247v-423h80q42 0 67.5 15.5t43.5 47.5zM901 1462l-247 -261 q-19 -20 -36.5 -27.5t-45.5 -7.5h-148l142 243q15 26 35 39.5t60 13.5h240z" />
<glyph unicode="&#x45d;" horiz-adv-x="1166" d="M122 0zM122 -1v1026h247v-599q0 -23 -2.5 -50.5t-6.5 -55.5q22 49 44 81q1 2 19 27t46.5 65t64.5 90.5t73 103.5q87 123 198 278q14 22 37 41.5t52 19.5h150v-1026h-247v599q0 23 2 50t7 55q-11 -23 -22 -43.5t-22 -36.5q-2 -2 -20 -27.5t-46.5 -65.5t-64.5 -90.5 t-73 -102.5q-87 -123 -197 -278q-14 -21 -36.5 -41t-51.5 -20h-151zM508 1462q41 0 61 -13.5t34 -39.5l143 -243h-141q-28 0 -45.5 7.5t-35.5 27.5l-247 261h231z" />
<glyph unicode="&#x45e;" horiz-adv-x="1055" d="M6 0zM495 -282q-11 -26 -28.5 -39.5t-53.5 -13.5h-184l192 411l-415 950h217q29 0 45.5 -14t24.5 -32l218 -532q20 -55 33 -109q8 28 17.5 55.5t20.5 54.5l206 531q8 20 26.5 33t41.5 13h198zM553 1286q37 0 62 8t40 26.5t21 49.5t6 76h146q26 0 38.5 -21.5t12.5 -47.5 q0 -51 -23 -92.5t-66 -70t-103 -44t-134 -15.5t-134 15.5t-103 44t-66 70t-23 92.5q0 26 12.5 47.5t38.5 21.5h146q0 -45 6 -76t21 -49.5t39.5 -26.5t62.5 -8z" />
<glyph unicode="&#x45f;" horiz-adv-x="1139" d="M122 1026h247v-843h400v843h247v-1026h-335v-270q0 -34 -19.5 -54t-50.5 -20h-154v344h-335v1026z" />
<glyph unicode="&#x460;" horiz-adv-x="2153" d="M1204 1331q59 57 140.5 93.5t198.5 36.5q141 0 240.5 -57t162.5 -155.5t92 -231t29 -282.5q0 -174 -36.5 -313.5t-108.5 -236.5t-178 -149t-245 -52q-129 0 -233 43.5t-190 125.5q-86 -81 -190 -125t-232 -44q-139 0 -245.5 52t-178.5 149t-108.5 236.5t-36.5 313.5 q0 150 29 282.5t92 231t163 155.5t241 57q116 0 198 -36.5t141 -93.5l-56 -133q-14 -22 -26 -28.5t-29 -6.5q-16 0 -33 11t-39.5 23.5t-53.5 23.5t-74 11q-135 0 -210 -126.5t-75 -384.5q0 -247 78.5 -378t245.5 -131q79 0 144.5 29t119.5 85v456h271v-457q54 -56 119 -84.5 t144 -28.5q167 0 246 131t79 378q0 258 -75 384.5t-210 126.5q-44 0 -74.5 -11t-53 -23.5t-39.5 -23.5t-33 -11q-17 0 -29 6.5t-26 28.5z" />
<glyph unicode="&#x461;" horiz-adv-x="1568" d="M385 0q-60 58 -112 126.5t-90 144t-60 156.5t-22 164v435h168q38 0 54 -22t16 -49v-337q0 -124 44 -222t119 -170q34 35 63.5 79t51.5 94t35 105.5t13 113.5v408h168q38 0 54 -22t16 -49v-328q0 -115 43 -218t120 -182q34 35 66 80.5t56 103t38.5 128t14.5 156.5 q0 61 -6.5 105t-14 76t-14 54.5t-6.5 40.5q0 20 13 37.5t38 17.5h187q20 -89 30 -168t10 -159q0 -115 -20 -213t-58 -183.5t-92.5 -160t-124.5 -142.5h-145q-20 0 -31.5 7t-26.5 24q-54 58 -106.5 135.5t-90.5 168.5q-37 -90 -88.5 -168t-106.5 -136q-15 -17 -24 -24t-30 -7 h-149z" />
<glyph unicode="&#x462;" horiz-adv-x="1470" d="M663 1446v-201h425v-197h-425v-200h236q141 0 241.5 -31t164 -84.5t93.5 -126t30 -155.5q0 -102 -35.5 -185t-103.5 -142.5t-166.5 -91.5t-224.5 -32h-504v1048h-349v197h349v201h269zM663 638v-428h235q75 0 125.5 16.5t81.5 45.5t44 68t13 84q0 49 -13 89t-44 67.5 t-81 42.5t-125 15h-236z" />
<glyph unicode="&#x463;" horiz-adv-x="1138" d="M513 1293v-268h313v-187h-313v-192h202q107 0 181 -26t120 -70t66.5 -101.5t20.5 -120.5q0 -72 -26 -132.5t-75.5 -104t-121 -67.5t-163.5 -24h-439v838h-251v187h251v268h235zM513 470v-293h204q84 0 125.5 42t41.5 108q0 28 -9.5 54t-29.5 46t-52.5 31.5t-77.5 11.5 h-202z" />
<glyph unicode="&#x464;" horiz-adv-x="1911" d="M1729 341q22 0 38 -17l107 -115q-85 -109 -209.5 -167t-296.5 -58q-144 0 -261.5 47.5t-203.5 133.5t-138 205.5t-64 263.5h-270v-634h-270v1446h270v-612h272q16 140 72.5 256t145.5 198.5t206.5 128t257.5 45.5q152 0 270 -52t200 -136l-90 -125q-8 -12 -20.5 -21 t-34.5 -9t-45.5 18t-59 39t-88.5 39t-134 18q-80 0 -148.5 -26.5t-121 -77.5t-87 -125.5t-47.5 -169.5h605v-200h-607q11 -101 47 -179.5t90.5 -132.5t123.5 -82t147 -28q51 0 92.5 6t77 19t66.5 33.5t63 50.5q10 9 21.5 14.5t23.5 5.5z" />
<glyph unicode="&#x465;" horiz-adv-x="1398" d="M1231 269q8 0 16.5 -3t15.5 -11l95 -102q-120 -164 -362 -164q-102 0 -185 33t-144 91.5t-98.5 139.5t-48.5 178h-159v-431h-239v1026h239v-419h160q14 96 55 175t104.5 135.5t146 88t180.5 31.5q112 0 197.5 -38.5t141.5 -99.5l-80 -111q-7 -11 -17.5 -18t-30.5 -7 q-18 0 -34 11t-37.5 24.5t-54.5 25t-86 11.5q-92 0 -156 -59t-84 -169h390v-176h-392q10 -59 33 -103.5t56 -75.5t73.5 -46.5t85.5 -15.5q30 0 54.5 3t45.5 10t40.5 19.5t39.5 30.5q18 16 39 16z" />
<glyph unicode="&#x466;" horiz-adv-x="1447" d="M1468 0h-216q-35 0 -57 17.5t-33 43.5l-202 513h-111v-574h-255v574h-107l-202 -513q-9 -23 -32 -42t-57 -19h-217l615 1446h259zM562 764h323l-103 263q-14 35 -29.5 82.5t-29.5 103.5q-14 -57 -29 -105t-29 -83z" />
<glyph unicode="&#x467;" horiz-adv-x="1159" d="M1166 0h-192q-30 0 -49.5 15t-28.5 38l-133 302h-73v-355h-224v355h-70l-132 -302q-8 -20 -28 -36.5t-50 -16.5h-192l472 1026h228zM469 522h221l-61 141q-12 29 -25 70.5t-26 89.5q-11 -48 -24 -90t-24 -71z" />
<glyph unicode="&#x468;" horiz-adv-x="2055" d="M831 574h-400v-574h-270v1446h270v-682h481l290 682h259l615 -1446h-216q-35 0 -57 17.5t-33 43.5l-202 513h-111v-574h-255v574h-107l-202 -513q-9 -23 -32 -42t-57 -19h-217zM1170 764h323l-103 263q-14 35 -29.5 82.5t-29.5 103.5q-14 -56 -29 -104.5t-29 -83.5z" />
<glyph unicode="&#x469;" horiz-adv-x="1632" d="M630 355h-269v-355h-239v1026h239v-504h346l232 504h229l471 -1026h-192q-31 0 -50 15t-28 38l-132 302h-73v-355h-224v355h-71l-131 -302q-8 -20 -28.5 -36.5t-50.5 -16.5h-192zM942 522h222l-61 141q-12 29 -25.5 70.5t-25.5 89.5q-12 -48 -25 -90t-24 -71z" />
<glyph unicode="&#x46a;" horiz-adv-x="1707" d="M718 636h-29q-54 0 -91 -7.5t-63.5 -27t-45.5 -53t-36 -84.5l-136 -403q-9 -23 -32 -42t-57 -19h-217l187 486q27 70 61 127t78.5 99.5t101.5 69t131 37.5l-502 626h1569l-502 -625q75 -11 132.5 -37.5t102.5 -69t79 -99.5t61 -128l188 -486h-218q-34 0 -56.5 19 t-32.5 42l-135 403q-17 51 -36 84.5t-45.5 53t-63.5 27t-91 7.5h-32l-1 -1h-9v-635h-255v635h-4zM700 1003q29 -37 53 -67t43.5 -58.5t33.5 -56.5t23 -60q9 32 22.5 60t32.5 56.5t43.5 58.5t53.5 67l201 253h-708z" />
<glyph unicode="&#x46b;" horiz-adv-x="1338" d="M547 433q-38 0 -65 -5.5t-47.5 -19t-35.5 -38t-28 -63.5l-91 -254q-9 -20 -29.5 -36.5t-49.5 -16.5h-192l139 326q22 52 47.5 95.5t57 76.5t71.5 55.5t92 34.5l-370 438h188h6h856h6h189l-370 -438q52 -11 92.5 -33.5t72.5 -55.5t57.5 -76.5t48.5 -96.5l139 -326h-192 q-29 0 -49.5 16.5t-29.5 36.5l-91 254q-14 39 -29 64t-35.5 38.5t-48.5 18.5t-67 5l-1 -1h-10v-432h-224v432h-6zM536 751q25 -32 46 -58t37.5 -50t28.5 -48.5t20 -52.5q8 28 20 52.5t28.5 48.5t37.5 50t47 58l98 108h-462z" />
<glyph unicode="&#x46c;" horiz-adv-x="2324" d="M813 485q19 48 58 86t92 65h-532v-636h-270v1446h270v-620h752l-497 619h1569l-502 -625q75 -11 132.5 -37.5t102.5 -69t79 -99.5t61 -128l188 -486h-217q-34 0 -57 19t-32 42l-136 403q-17 51 -36 84.5t-45.5 53t-63.5 27t-91 7.5h-32l-1 -1h-9v-635h-255v635h-4l-1 1 h-37q-47 0 -81.5 -7.5t-61.5 -27t-47.5 -52.5t-38.5 -85l-138 -403q-9 -23 -32 -42t-57 -19h-217zM1318 1003q29 -37 53 -67t43.5 -58.5t33.5 -56.5t23 -60q9 32 22.5 60t32.5 56.5t43.5 58.5t53.5 67l201 253h-708z" />
<glyph unicode="&#x46d;" horiz-adv-x="1818" d="M626 326q13 35 41 61t66 46h-372v-433h-239v1026h239v-426h526l-360 426h1245l-371 -438q52 -11 92.5 -33.5t73 -55.5t58 -76.5t48.5 -96.5l139 -326h-193q-29 0 -49.5 16.5t-28.5 36.5l-92 254q-14 39 -29 64t-35.5 38.5t-48.5 18.5t-67 5l-1 -1h-9v-432h-224v432h-6 l-1 1h-1q-35 0 -61.5 -5t-47.5 -18.5t-37 -38t-30 -64.5l-95 -254q-8 -20 -28 -36.5t-49 -16.5h-192zM1017 751q25 -32 46 -58t37.5 -50t28.5 -48.5t20 -52.5q8 28 20 52.5t28.5 48.5t37.5 50t47 58l98 108h-462z" />
<glyph unicode="&#x46e;" horiz-adv-x="1132" d="M817 -398q-2 51 -32 70.5t-100 19.5q-24 0 -43 -1.5t-40.5 -3.5t-48.5 -3.5t-66 -1.5q-240 0 -353 69.5t-113 215.5q0 134 85.5 207t240.5 73q62 0 113 -8.5t102 -8.5q57 0 100.5 15.5t72.5 43.5t44 66.5t15 84.5q0 54 -20 94t-57 66.5t-89.5 39t-116.5 12.5h-205v216 h186q125 0 195 49.5t70 143.5q0 83 -66.5 132.5t-191.5 49.5q-73 0 -125.5 -16t-91 -34.5t-65 -34.5t-47.5 -16q-20 0 -34 10t-26 30l-66 128q83 72 199 112t257 40q117 0 211 -28t160.5 -78.5t102 -120t35.5 -152.5q0 -100 -45 -182t-135 -133q48 -23 88.5 -54.5t69 -73 t44.5 -92t16 -110.5q0 -82 -30.5 -159t-93.5 -137t-159 -96.5t-227 -36.5q-33 0 -59 2t-46.5 5t-38 5t-33.5 2q-45 0 -66 -17t-21 -48q0 -19 8.5 -33t28.5 -23.5t53.5 -14.5t83.5 -5q66 0 131.5 5t114.5 5q73 0 121 -16t77 -45t41 -69t12 -88q0 -13 -1.5 -25.5t-7 -23 t-17 -17t-31.5 -6.5h-70v0z" />
<glyph unicode="&#x46f;" horiz-adv-x="887" d="M742 1173h-18q-26 0 -42.5 -13.5t-29.5 -27.5l-100 -109q59 -15 104.5 -41.5t76 -60.5t46.5 -73t16 -81q0 -30 -8.5 -61.5t-28.5 -61t-52 -55t-78 -43.5q94 -35 140.5 -99.5t46.5 -139.5q0 -68 -26 -125.5t-76 -100t-122 -66.5t-163 -24q-42 0 -79.5 4t-61.5 4 q-33 0 -52 -13t-19 -43q0 -38 31 -55t87 -17q21 0 49 1.5t58 3.5t59.5 3.5t54.5 1.5q73 0 121 -16t76.5 -45t40.5 -69t12 -88q0 -13 -1.5 -25.5t-7 -22.5t-16.5 -16.5t-31 -6.5h-71q-2 50 -31.5 69.5t-100.5 19.5q-48 0 -96.5 -5t-94.5 -5q-71 0 -132 17.5t-106 52t-71 84.5 t-26 116q0 51 16.5 94.5t49 75t81 49.5t112.5 18q30 0 63.5 -3.5t60.5 -3.5q43 0 76 11.5t55.5 30.5t34 44t11.5 53q0 69 -50 105.5t-160 36.5h-116v161h116q97 0 148.5 34t51.5 90q0 51 -45 84t-134 33q-54 0 -91 -11t-63 -23.5t-44.5 -23.5t-34.5 -11q-17 0 -29 6.5 t-26 28.5l-56 95q50 48 117.5 80t158.5 43l-209 254h141q27 0 45 -6.5t32 -26.5l77 -96q7 -10 14.5 -21.5t15.5 -24.5q7 13 14 24.5t15 21.5l67 87q20 26 51.5 39t69.5 13q26 0 46 -4.5t40 -11.5v-113z" />
<glyph unicode="&#x470;" horiz-adv-x="1666" d="M266 1446q43 0 66.5 -26t23.5 -64v-429q0 -85 17.5 -150t57.5 -111t105 -72t160 -32v884h270v-884q96 6 161.5 32t106 71.5t58 111t17.5 150.5v429q0 38 23.5 64t66.5 26h180v-519q0 -128 -39 -231.5t-116.5 -178.5t-192 -119t-265.5 -52v-346h-270v346q-151 8 -265 52.5 t-190.5 119.5t-115.5 178.5t-39 230.5v519h180z" />
<glyph unicode="&#x471;" horiz-adv-x="1580" d="M915 1446v-1263q75 8 135 30.5t102 65t64.5 107.5t22.5 160q0 78 -7 134t-16 100t-17.5 83t-11.5 83q0 22 5.5 37.5t15.5 25t22.5 13.5t24.5 4h178q12 -63 22 -122.5t16.5 -117.5t10.5 -117.5t4 -122.5q0 -148 -45 -250t-122.5 -166.5t-181.5 -97t-222 -42.5v-325h-247 v323q-146 11 -252 50.5t-174.5 105t-101.5 155t-33 200.5v527h171q15 0 29 -9t24.5 -23t16.5 -30t6 -31v-434q0 -139 82 -216t232 -98v1261h247z" />
<glyph unicode="&#x472;" horiz-adv-x="1616" d="M1540 723q0 -159 -52.5 -294.5t-148.5 -234.5t-231 -154.5t-300 -55.5q-164 0 -299 55.5t-231.5 154.5t-149.5 234.5t-53 294.5t53 294.5t149.5 234.5t231.5 154.5t299 55.5q110 0 207 -25.5t178 -72t145.5 -113t109.5 -148.5t68.5 -178t23.5 -202zM808 214 q95 0 173.5 28.5t136.5 82.5t94.5 132t47.5 177h-905q11 -99 47.5 -177t94.5 -132t136.5 -82.5t174.5 -28.5zM808 1233q-93 0 -170 -27t-134.5 -78.5t-95 -125.5t-51.5 -168h900q-14 94 -51 168t-94.5 125.5t-134 78.5t-169.5 27z" />
<glyph unicode="&#x473;" horiz-adv-x="1149" d="M576 1042q114 0 207.5 -37t160 -105t102.5 -166t36 -219q0 -122 -36 -220t-102.5 -167t-160 -106t-207.5 -37q-115 0 -209 37t-160.5 106t-103 167t-36.5 220q0 121 36.5 219t103 166t160.5 105t209 37zM576 167q113 0 180.5 68.5t81.5 204.5h-528q14 -136 82 -204.5 t184 -68.5zM576 860q-112 0 -180 -65.5t-85 -193.5h525q-17 128 -84 193.5t-176 65.5z" />
<glyph unicode="&#x474;" horiz-adv-x="1426" d="M-15 1446h216q35 0 57 -17t33 -44l341 -882q17 -43 32.5 -94.5t29.5 -108.5q23 115 57 203l240 732q36 112 109.5 166.5t194.5 54.5q35 0 57.5 -3t35 -9t17.5 -16t5 -23v-167h-55q-90 0 -128 -104l-415 -1134h-243z" />
<glyph unicode="&#x475;" horiz-adv-x="1100" d="M638 0h-224l-408 1026h205q27 0 45.5 -13t25.5 -33l198 -548q17 -50 28.5 -97t21.5 -95q20 94 49 192l133 405q19 63 44.5 102t56.5 61.5t68.5 30.5t80.5 8q33 0 54 -4t33 -9.5t16.5 -11.5t4.5 -11v-135h-30q-42 0 -71 -17.5t-43 -56.5z" />
<glyph unicode="&#x476;" horiz-adv-x="1426" d="M0 0zM-15 1446h216q35 0 57 -17t33 -44l341 -882q17 -43 32.5 -94.5t29.5 -108.5q23 115 57 203l240 732q36 112 109.5 166.5t194.5 54.5q35 0 57.5 -3t35 -9t17.5 -16t5 -23v-167h-55q-90 0 -128 -104l-415 -1134h-243zM725 1824q40 0 65.5 -14t41.5 -39l138 -222h-117 q-28 0 -45 9.5t-37 26.5l-206 239h160zM352 1824q41 0 67 -14.5t46 -38.5l183 -222h-133q-28 0 -48.5 9t-40.5 27l-258 239h184z" />
<glyph unicode="&#x477;" horiz-adv-x="1100" d="M6 0zM638 0h-224l-408 1026h205q27 0 45.5 -13t25.5 -33l198 -548q17 -50 28.5 -97t21.5 -95q20 94 49 192l133 405q19 63 44.5 102t56.5 61.5t68.5 30.5t80.5 8q33 0 54 -4t33 -9.5t16.5 -11.5t4.5 -11v-135h-30q-42 0 -71 -17.5t-43 -56.5zM550 1462q41 0 61 -13.5 t34 -39.5l127 -243h-101q-29 0 -47.5 7.5t-34.5 27.5l-199 261h160zM219 1462q20 0 34 -3.5t24.5 -10.5t19 -16.5t17.5 -22.5l177 -243h-117q-28 0 -45.5 7.5t-35.5 27.5l-252 261h178z" />
<glyph unicode="&#x478;" horiz-adv-x="2657" d="M76 0zM1541 723q0 -159 -52.5 -294.5t-148.5 -234.5t-231 -154.5t-300 -55.5q-164 0 -299 55.5t-231.5 154.5t-149.5 234.5t-53 294.5t53 294.5t149.5 234.5t231.5 154.5t299 55.5q110 0 207 -25.5t178 -72t145.5 -113t109.5 -148.5t68.5 -178t23.5 -202zM1266 723 q0 119 -32 213.5t-91 160.5t-143.5 101t-190.5 35t-190.5 -35t-144 -101t-91.5 -160.5t-32 -213.5t32 -213.5t91.5 -160t144 -100.5t190.5 -35t190.5 35t143.5 100.5t91 160t32 213.5zM2102 -282q-11 -26 -28.5 -39.5t-53.5 -13.5h-184l192 411l-415 950h217q29 0 45.5 -14 t24.5 -32l218 -532q20 -55 33 -109q8 28 17.5 55.5t20.5 54.5l206 531q8 20 26.5 33t41.5 13h198z" />
<glyph unicode="&#x479;" horiz-adv-x="2206" d="M67 0zM576 1042q114 0 207.5 -37t160 -105t102.5 -166t36 -219q0 -122 -36 -220t-102.5 -167t-160 -106t-207.5 -37q-115 0 -209 37t-160.5 106t-103 167t-36.5 220q0 121 36.5 219t103 166t160.5 105t209 37zM576 175q128 0 189.5 86t61.5 252t-61.5 253t-189.5 87 q-130 0 -192.5 -87.5t-62.5 -252.5t62.5 -251.5t192.5 -86.5zM1646 -282q-11 -26 -28.5 -39.5t-53.5 -13.5h-184l192 411l-415 950h217q29 0 45.5 -14t24.5 -32l218 -532q20 -55 33 -109q8 28 17.5 55.5t20.5 54.5l206 531q8 20 26.5 33t41.5 13h198z" />
<glyph unicode="&#x47a;" horiz-adv-x="1723" d="M75 723q0 145 44 271t125.5 222t196 158.5t255.5 80.5q26 42 70 67t99 25q54 0 98.5 -25.5t70.5 -67.5q139 -20 252.5 -82t194 -158t124 -221t43.5 -269t-43.5 -269.5t-124 -221.5t-193.5 -159t-252 -82q-26 -42 -71 -67t-99 -25q-55 0 -99 24.5t-70 66.5 q-141 18 -255.5 80t-196 158.5t-125.5 222t-44 271.5zM350 723q0 -105 25 -191t71.5 -149.5t113.5 -104.5t151 -56q26 33 66 52.5t88 19.5q47 0 86 -19.5t67 -51.5q83 16 149 57t111.5 105t70 149.5t24.5 189.5q0 103 -24.5 188t-70 149t-111.5 105t-148 57q-27 -33 -67 -52 t-87 -19q-49 0 -89 19.5t-67 52.5q-84 -15 -150.5 -56t-113 -105t-71 -150t-24.5 -190z" />
<glyph unicode="&#x47b;" horiz-adv-x="1305" d="M66 515q0 108 29 197t82 155.5t129 109t170 57.5q25 47 71 75t105 28q57 0 103 -28t72 -75q94 -15 170.5 -57t130 -109t82.5 -156t29 -197q0 -110 -29.5 -200t-83.5 -157.5t-131.5 -110t-173.5 -55.5q-26 -42 -70.5 -67t-98.5 -25q-56 0 -100 25t-70 67q-96 14 -173 56.5 t-131 109.5t-83 157t-29 200zM321 513q0 -131 38 -211.5t117 -110.5q25 47 71 75t105 28q57 0 103.5 -28t71.5 -75q80 29 118.5 110t38.5 212q0 132 -39.5 214t-120.5 111q-26 -44 -71 -70t-101 -26q-57 0 -102 25.5t-71 69.5q-81 -29 -119.5 -111t-38.5 -213z" />
<glyph unicode="&#x47c;" horiz-adv-x="2154" d="M1205 1331q58 57 140 93.5t198 36.5q142 0 241.5 -57t162.5 -155.5t92 -231t29 -282.5q0 -174 -36.5 -313.5t-108.5 -236.5t-178 -149t-245 -52q-129 0 -233 44t-190 125q-85 -82 -189.5 -125.5t-233.5 -43.5q-139 0 -245 52t-178 149t-108.5 236.5t-36.5 313.5 q0 150 29 282.5t92 231t162.5 155.5t241.5 57q58 0 107 -9.5t90.5 -27t76.5 -41.5t64 -52l-56 -133q-14 -22 -25.5 -28.5t-28.5 -6.5q-16 0 -33 11t-39.5 23.5t-53.5 23.5t-74 11q-136 0 -210.5 -126.5t-74.5 -384.5q0 -247 78.5 -378t245.5 -131q108 0 180 54.5t118 155.5 h202q46 -101 118 -155.5t180 -54.5q167 0 246 131t79 378q0 258 -75 384.5t-211 126.5q-43 0 -73.5 -11t-53 -23.5t-39.5 -23.5t-33 -11q-17 0 -29 6.5t-26 28.5zM731 1655q0 127 70.5 194t192.5 67q48 0 89.5 -10t80.5 -25t77.5 -32t80.5 -32t89.5 -25t104.5 -10v-128 q-100 0 -175 20.5t-134.5 45.5t-108.5 45.5t-96 20.5q-56 0 -88 -33t-32 -98h-151zM1052 1439q32 8 48 22t18 45q-5 -2 -10 -2h-10q-59 0 -82.5 25.5t-23.5 58.5q0 42 27 69.5t77 27.5q58 0 89 -38t31 -98q0 -39 -12.5 -72.5t-38 -57.5t-64 -37.5t-90.5 -12.5v39q0 12 9 19 t32 12z" />
<glyph unicode="&#x47d;" horiz-adv-x="1563" d="M857 940q44 42 105 69t149 27q103 0 175.5 -40.5t117.5 -111t65.5 -164.5t20.5 -200q0 -120 -25 -218t-76 -167.5t-128 -107.5t-180 -38q-91 0 -164 28.5t-135 84.5q-63 -56 -136 -84.5t-163 -28.5q-104 0 -181 38t-128 107.5t-76 167.5t-25 218q0 106 20.5 200t66 164.5 t117.5 111t176 40.5q88 0 149.5 -27t104.5 -69l-49 -119q-12 -20 -22.5 -25t-25.5 -5q-13 0 -25.5 7t-27.5 15t-34 15t-45 7q-78 0 -123.5 -78t-45.5 -250q0 -75 10 -134t33 -99.5t60 -62t92 -21.5q70 0 114.5 36t75.5 111h176q31 -75 75.5 -111t114.5 -36q55 0 92 21.5 t60 62t33 99.5t10 134q0 172 -45.5 250t-123.5 78q-26 0 -45 -7t-34 -15t-28 -15t-26 -7q-15 0 -25 5t-23 25zM437 1278q0 127 70.5 194t192.5 67q48 0 89.5 -10t80.5 -25t77.5 -32t80.5 -32t89.5 -25t105.5 -10v-127q-100 0 -175 20.5t-134.5 45t-108.5 45t-97 20.5 q-56 0 -87.5 -32.5t-31.5 -98.5h-152zM758 1063q32 7 48.5 21t18.5 45q-5 -2 -10.5 -2h-10.5q-29 0 -49 7t-32.5 18.5t-18 26.5t-5.5 32q0 42 26.5 69.5t76.5 27.5q59 0 89.5 -38t30.5 -98q0 -39 -12.5 -72.5t-38 -57.5t-63.5 -37.5t-90 -12.5v39q0 12 9 19.5t31 12.5z" />
<glyph unicode="&#x47e;" horiz-adv-x="2153" d="M85 0zM1204 1331q59 57 140.5 93.5t198.5 36.5q141 0 240.5 -57t162.5 -155.5t92 -231t29 -282.5q0 -174 -36.5 -313.5t-108.5 -236.5t-178 -149t-245 -52q-129 0 -233 43.5t-190 125.5q-86 -81 -190 -125t-232 -44q-139 0 -245.5 52t-178.5 149t-108.5 236.5 t-36.5 313.5q0 150 29 282.5t92 231t163 155.5t241 57q116 0 198 -36.5t141 -93.5l-56 -133q-14 -22 -26 -28.5t-29 -6.5q-16 0 -33 11t-39.5 23.5t-53.5 23.5t-74 11q-135 0 -210 -126.5t-75 -384.5q0 -247 78.5 -378t245.5 -131q79 0 144.5 29t119.5 85v456h271v-457 q54 -56 119 -84.5t144 -28.5q167 0 246 131t79 378q0 258 -75 384.5t-210 126.5q-44 0 -74.5 -11t-53 -23.5t-39.5 -23.5t-33 -11q-17 0 -29 6.5t-26 28.5zM1521 1792q0 -14 -2 -24t-4 -22l-61 -202q-5 -15 -15 -22t-21.5 -7t-21.5 7.5t-14 21.5l-37 127h-195l-39 -127 q-5 -15 -15 -22t-21 -7t-21 7.5t-14 21.5l-37 127h-198l-39 -127q-5 -15 -15 -22t-21 -7t-21.5 7.5t-14.5 21.5l-57 201l-4 22t-2 25h890z" />
<glyph unicode="&#x47f;" horiz-adv-x="1568" d="M101 0zM385 0q-60 58 -112 126.5t-90 144t-60 156.5t-22 164v435h168q38 0 54 -22t16 -49v-337q0 -124 44 -222t119 -170q34 35 63.5 79t51.5 94t35 105.5t13 113.5v408h168q38 0 54 -22t16 -49v-328q0 -115 43 -218t120 -182q34 35 66 80.5t56 103t38.5 128t14.5 156.5 q0 61 -6.5 105t-14 76t-14 54.5t-6.5 40.5q0 20 13 37.5t38 17.5h187q20 -89 30 -168t10 -159q0 -115 -20 -213t-58 -183.5t-92.5 -160t-124.5 -142.5h-145q-20 0 -31.5 7t-26.5 24q-54 58 -106.5 135.5t-90.5 168.5q-37 -90 -88.5 -168t-106.5 -136q-15 -17 -24 -24t-30 -7 h-149zM1229 1372q0 -14 -2 -24t-4 -22l-61 -202q-5 -15 -15 -22t-21.5 -7t-21.5 7.5t-14 21.5l-37 127h-195l-39 -127q-5 -15 -15 -22t-21 -7t-21 7.5t-14 21.5l-37 127h-198l-39 -127q-5 -15 -15 -22t-21 -7t-21.5 7.5t-14.5 21.5l-57 201l-4 22t-2 25h890z" />
<glyph unicode="&#x480;" horiz-adv-x="1272" d="M1090 245v-515q0 -34 -19.5 -54t-50.5 -20h-154v338q-26 -2 -50.5 -2.5t-41.5 -0.5q-160 0 -289 54t-219.5 151t-139.5 231.5t-49 295.5q0 163 52 298.5t146.5 233.5t226 152.5t290.5 54.5q158 0 280.5 -52t208.5 -136l-90 -125q-9 -12 -21.5 -21t-34.5 -9 q-15 0 -30.5 8.5t-34.5 21t-44 27.5t-58 27.5t-77 21t-101 8.5q-96 0 -176.5 -34.5t-138.5 -100t-90 -160t-32 -215.5q0 -122 33.5 -217t92 -160t139 -99.5t175.5 -34.5q57 0 90.5 5t55 11.5t37.5 11.5t38 5h76z" />
<glyph unicode="&#x481;" horiz-adv-x="934" d="M857 809q-11 -14 -21.5 -22t-30.5 -8q-19 0 -37 11.5t-43 26t-59.5 26t-85.5 11.5q-65 0 -114 -23.5t-81.5 -67.5t-48.5 -106.5t-16 -141.5q0 -82 17.5 -146t50.5 -107.5t80 -66t106 -22.5q34 0 57 5t38.5 11t24.5 11t16 5h94v-476q0 -34 -19.5 -54t-50.5 -20h-154v332 q-13 -1 -25.5 -1.5t-25.5 -0.5q-95 0 -179 35.5t-147 103.5t-99.5 166.5t-36.5 224.5q0 113 32.5 209.5t95.5 167t156 110.5t214 40q115 0 201.5 -37t155.5 -106z" />
<glyph unicode="&#x482;" horiz-adv-x="1465" d="M868 1135l226 328l207 -136l-229 -333l361 -248l-121 -179l-363 249l-225 -326l362 -249l-122 -179l-363 250l-227 -329l-206 136l229 333l-365 252l121 179l367 -253l225 327l-366 252l122 179z" />
<glyph unicode="&#x483;" horiz-adv-x="800" d="M181 1178v-96h-66q-28 0 -54 8.5t-45.5 25t-31 41t-11.5 57.5q0 36 11 61.5t30.5 42t45 24t55.5 7.5h504v97h66q28 0 53.5 -8.5t45 -25.5t31.5 -41.5t12 -57.5q0 -36 -11 -61.5t-30.5 -42t-45.5 -24t-55 -7.5h-504z" />
<glyph unicode="&#x484;" horiz-adv-x="800" d="M531 1303q-40 0 -74 -11t-68 -27t-71 -35t-83 -35t-104 -27t-133 -11v148q64 0 114.5 11t94 27.5t82 35.5t78.5 35.5t84 27.5t99 11q148 0 212.5 -75.5t64.5 -220.5h-175q0 43 -10 71.5t-27 45t-39 23t-45 6.5z" />
<glyph unicode="&#x485;" horiz-adv-x="800" d="M421 1270h-12.5t-10.5 1q5 -32 23.5 -49t54.5 -25q28 -6 39 -15t11 -24v-48q-63 -1 -110 17.5t-77.5 50t-46 73.5t-15.5 89q0 72 37.5 111t109.5 39q60 0 92.5 -33t32.5 -84q0 -20 -6.5 -39t-21.5 -33t-39.5 -22.5t-60.5 -8.5z" />
<glyph unicode="&#x486;" horiz-adv-x="800" d="M350 1195q38 8 57 24.5t22 51.5q-11 -3 -24 -3q-36 0 -60.5 8.5t-39.5 22.5t-21.5 33t-6.5 39q0 51 32.5 83.5t92.5 32.5q36 0 63 -12.5t46 -34t28.5 -51.5t9.5 -66q0 -47 -15.5 -87t-46 -68.5t-77.5 -44.5t-110 -16v49q0 15 11 24t39 15z" />
<glyph unicode="&#x488;" horiz-adv-x="2265" d="M1132 24q67 0 117.5 -19t84 -52.5t50 -80.5t16.5 -103h-173q0 52 -19.5 77.5t-75.5 25.5t-75.5 -25.5t-19.5 -77.5h-173q0 56 17 103t50.5 80.5t83.5 52.5t117 19zM1132 1602q67 0 117.5 -19t84 -53t50 -81t16.5 -103h-173q0 52 -19.5 78t-75.5 26t-75.5 -26t-19.5 -78 h-173q0 56 17 103t50.5 81t83.5 53t117 19zM339 813q67 0 117 -19t83.5 -52.5t50.5 -80.5t17 -103h-173q0 52 -19.5 77.5t-75.5 25.5t-75.5 -25.5t-19.5 -77.5h-173q0 56 17 103t50.5 80.5t83.5 52.5t117 19zM1925 813q67 0 117.5 -19t84 -52.5t50.5 -80.5t17 -103h-173 q0 52 -20 77.5t-76 25.5t-75 -25.5t-19 -77.5h-173q0 56 16.5 103t50 80.5t83.5 52.5t117 19zM531 364q67 0 117.5 -19t84 -52.5t50.5 -80.5t17 -103h-173q0 51 -20 77t-76 26t-75 -26t-19 -77h-173q0 56 17 103t50.5 80.5t83.5 52.5t116 19zM1732 364q67 0 117.5 -19 t84 -52.5t50.5 -80.5t17 -103h-173q0 51 -20 77t-76 26t-75 -26t-19 -77h-173q0 56 16.5 103t50 80.5t83.5 52.5t117 19zM531 1262q67 0 117.5 -19t84 -52.5t50.5 -80.5t17 -103h-173q0 52 -20 77.5t-76 25.5t-75 -25.5t-19 -77.5h-173q0 56 17 103t50.5 80.5t83.5 52.5 t116 19zM1732 1262q67 0 117.5 -19t84 -52.5t50.5 -80.5t17 -103h-173q0 52 -20 77.5t-76 25.5t-75 -25.5t-19 -77.5h-173q0 56 16.5 103t50 80.5t83.5 52.5t117 19z" />
<glyph unicode="&#x489;" horiz-adv-x="2188" d="M1246 1291q0 -26 -9.5 -48t-27 -38.5t-41.5 -26t-53 -9.5q-35 0 -60.5 12t-42.5 33t-25.5 49t-8.5 59q0 43 13.5 91.5t39 96.5t63 94t85.5 84l38 -35q10 -8 13.5 -15.5t3.5 -18.5q0 -7 -5.5 -15.5t-12.5 -15.5q-10 -11 -24.5 -27t-29 -37t-27 -45.5t-18.5 -52.5 q28 0 52 -10.5t41 -28.5t26.5 -43t9.5 -53zM1662 997q-18 -18 -40.5 -27t-46.5 -8.5t-47.5 10.5t-44.5 30q-24 25 -33.5 51.5t-7 53.5t16.5 52.5t36 47.5q31 30 74.5 55t96 41.5t111 22.5t120.5 -1l1 -52q3 -22 -12 -35q-5 -5 -15 -7.5t-20 -2.5q-15 -1 -36.5 -2t-46 -5.5 t-51 -13.5t-50.5 -24q20 -20 29.5 -44t9 -48.5t-11.5 -48.5t-32 -45zM743 1206q36 -37 36 -87t-41 -91q-25 -24 -52 -33.5t-54 -7t-52.5 16.5t-47.5 36q-30 31 -55 74.5t-41.5 95.5t-22.5 110.5t1 119.5l52 2q12 1 20 -2t16 -11q5 -5 7.5 -14.5t2.5 -19.5q0 -15 1.5 -36.5 t5.5 -46t13 -51t24 -50.5q42 40 93.5 37.5t93.5 -42.5zM951 -7q0 25 9.5 47.5t26.5 39t41 26t53 9.5q34 0 60 -12t43 -33t25.5 -49t8.5 -59q0 -43 -13 -91.5t-38.5 -96.5t-63 -94t-86.5 -84l-38 35q-16 13 -16 34q0 7 5 15.5t13 15.5q10 11 24 27t28.5 37t26.5 45.5t18 52.5 q-28 0 -51.5 10.5t-40 28.5t-26 42.5t-9.5 53.5zM534 287q18 18 41 27t47 8.5t47.5 -10.5t43.5 -30q24 -25 34 -51.5t7 -53.5t-17 -52.5t-36 -47.5q-31 -30 -74.5 -55t-95.5 -41.5t-111 -22.5t-120 1l-2 52q-2 12 1 19.5t11 15.5q5 5 15 7.5t20 2.5q15 0 36.5 1.5t46 6 t51 13.5t50.5 24q-40 41 -38 92.5t43 93.5zM1453 78q-18 18 -27 40.5t-8.5 46.5t10.5 47.5t31 43.5q24 24 51 33.5t54 7t52.5 -16.5t47.5 -36q31 -31 56 -74.5t41 -95.5t22 -110.5t-1 -119.5l-52 -2q-12 -1 -19.5 2t-15.5 11q-5 5 -8 14.5t-2 19.5q-1 15 -2 36.5t-5.5 46.5 t-13.5 51t-24 50q-20 -20 -44.5 -29t-49 -8.5t-49 11.5t-44.5 31zM1747 495q-26 0 -48.5 9.5t-39 26.5t-26 40.5t-9.5 52.5q0 34 12.5 60t33.5 42.5t49 25t59 8.5q43 0 91.5 -13t97 -38.5t94.5 -63t84 -85.5l-35 -37q-14 -17 -34 -16q-8 0 -16.5 5t-15.5 12q-11 9 -27 23.5 t-36.5 29t-45 27t-52.5 18.5q0 -28 -10.5 -51.5t-29 -40t-43 -26t-53.5 -9.5zM449 789q26 0 48.5 -9.5t39 -26.5t26 -40.5t9.5 -52.5q0 -35 -12.5 -60.5t-33.5 -42t-49 -25t-59 -8.5q-44 0 -92 13t-96.5 38.5t-94.5 63t-84 85.5l36 37q14 17 33 16q8 0 16.5 -5t15.5 -12 q11 -10 27 -24.5t36.5 -29t45 -27t52.5 -18.5q1 57 39.5 92.5t96.5 35.5z" />
<glyph unicode="&#x48a;" horiz-adv-x="1614" d="M1059 1363q9 15 21.5 30t27.5 26.5t32.5 19t37.5 7.5h202v-1239h202l-158 -551h-263l110 344h-161v906q0 51 2.5 106.5t10.5 118.5q-20 -55 -43 -102.5t-45 -83.5l-553 -862q-9 -15 -21.5 -30t-27.5 -26.5t-33 -19t-37 -7.5h-202v1446h270v-906q0 -51 -3 -108t-11 -120 q20 56 43.5 104t46.5 85zM783 1655q37 0 62 7t40 24.5t21 47.5t6 76h146q26 0 38.5 -22t12.5 -48q0 -51 -23 -90t-66 -65t-103 -39.5t-134 -13.5t-134 13.5t-103 39.5t-66 65t-23 90q0 26 12.5 48t38.5 22h146q0 -46 6 -76t21 -47.5t39.5 -24.5t62.5 -7z" />
<glyph unicode="&#x48b;" horiz-adv-x="1251" d="M122 -1v1026h247v-599q0 -23 -2.5 -50.5t-6.5 -55.5q22 49 44 81q1 2 19 27t46.5 65t64.5 90.5t73 103.5q87 123 198 278q14 22 37 41.5t52 19.5h150v-843h195l-152 -527h-231l110 344h-169v599q0 23 2 50t7 55q-11 -23 -22 -43.5t-22 -36.5q-2 -2 -20 -27.5t-46.5 -65.5 t-64.5 -90.5t-73 -102.5q-87 -123 -197 -278q-14 -21 -36.5 -41t-51.5 -20h-151zM597 1286q37 0 62 8t40 26.5t21 49.5t6 76h146q26 0 38.5 -21.5t12.5 -47.5q0 -51 -23 -92.5t-66 -70t-103 -44t-134 -15.5t-134 15.5t-103 44t-66 70t-23 92.5q0 26 12.5 47.5t38.5 21.5h146 q0 -45 6 -76t21 -49.5t39.5 -26.5t62.5 -8z" />
<glyph unicode="&#x48c;" horiz-adv-x="1347" d="M541 1446v-193h344v-199h-344v-206h236q141 0 241.5 -31t164 -84.5t93.5 -126t30 -155.5q0 -102 -35.5 -185t-103.5 -142.5t-166.5 -91.5t-224.5 -32h-504v1054h-236v199h236v193h269zM541 638v-428h235q75 0 125.5 16.5t81.5 45.5t44 68t13 84q0 49 -13 89t-44 67.5 t-81 42.5t-125 15h-236z" />
<glyph unicode="&#x48d;" horiz-adv-x="1058" d="M445 1049v-118h213v-175h-213v-110h182q108 0 182 -26t120 -70t66.5 -101.5t20.5 -120.5q0 -72 -26 -132.5t-75.5 -104t-121 -67.5t-163.5 -24h-419v756h-171v175h171v118h234zM445 470v-293h184q84 0 125.5 42t41.5 108q0 28 -9.5 54t-29.5 46t-52 31.5t-77 11.5h-183z " />
<glyph unicode="&#x48e;" horiz-adv-x="1238" d="M430 509v-509h-269v1446h470q145 0 251 -34t175 -95t102.5 -146t33.5 -186q0 -136 -57.5 -240t-172.5 -165l85 -132l-161 -102l-113 174q-33 -5 -69 -8t-74 -3h-201zM716 962l119 -185q45 35 67 87.5t22 120.5q0 58 -18 105t-54 80t-91 50.5t-130 17.5h-201v-519h201h15 l-91 141z" />
<glyph unicode="&#x48f;" horiz-adv-x="1135" d="M122 -335v1361h151q48 0 63 -45l20 -95q62 71 142.5 115t188.5 44q84 0 153.5 -35t120 -101.5t78 -164t27.5 -223.5q0 -147 -50 -264.5t-141 -188.5l100 -154l-161 -102l-116 179q-35 -6 -73 -6q-87 0 -147.5 26.5t-108.5 73.5v-420h-247zM643 428l106 -165 q30 44 46 107.5t16 150.5q0 90 -14.5 152.5t-41.5 101.5t-65.5 57t-87.5 18q-77 0 -131.5 -32.5t-101.5 -91.5v-460q42 -52 91.5 -72.5t107.5 -20.5h12l-98 153z" />
<glyph unicode="&#x490;" horiz-adv-x="1083" d="M1053 1239h-622v-1239h-270v1446h684v321h208v-528z" />
<glyph unicode="&#x491;" horiz-adv-x="841" d="M817 1273v-430h-448v-843h-247v1026h471v247h224z" />
<glyph unicode="&#x492;" horiz-adv-x="1195" d="M1163 1239h-622v-398h344v-200h-344v-641h-270v641h-236v200h236v605h892v-207z" />
<glyph unicode="&#x493;" horiz-adv-x="932" d="M211 600v426h695v-183h-448v-243h202v-175h-202v-425h-247v425h-171v175h171z" />
<glyph unicode="&#x494;" horiz-adv-x="1271" d="M651 -138q72 0 130.5 23t100.5 72.5t65 126t23 184.5q0 115 -24.5 191.5t-69 122t-105.5 64.5t-134 19q-72 0 -119.5 -17.5t-86.5 -40.5v-607h-270v1446h892v-207h-622v-438q59 28 121.5 43t136.5 15q106 0 203 -29.5t170.5 -98t117 -179t43.5 -272.5q0 -149 -39.5 -268 t-111.5 -201.5t-172 -126.5t-221 -44q-54 0 -106.5 6.5t-109.5 20.5l15 161q2 21 16.5 34.5t42.5 13.5q17 0 44.5 -7t69.5 -7z" />
<glyph unicode="&#x495;" horiz-adv-x="997" d="M817 1026v-183h-448v-310q45 33 97.5 51t117.5 18q90 0 158.5 -32.5t114.5 -91.5t69.5 -142t23.5 -184q0 -117 -31.5 -212t-86 -162t-129.5 -103t-162 -36q-41 0 -80 4.5t-82 15.5q1 19 3 33t3.5 27.5t3 28t3.5 33.5q2 20 15.5 32.5t37.5 12.5q12 0 29.5 -3.5t40.5 -3.5 q41 0 75.5 15.5t59 53t38.5 99t14 154.5q0 82 -13.5 136t-39 85t-62 43.5t-81.5 12.5q-47 0 -78 -13t-59 -33v-372h-247v1026h695z" />
<glyph unicode="&#x496;" horiz-adv-x="2230" d="M254 1446q41 0 75.5 -20t55.5 -56l296 -458q27 -44 59 -58t73 -14h127v606h253v-606h128q41 0 72.5 14t59.5 58l295 458q21 36 55.5 56t76.5 20h212l-373 -558q-29 -46 -60.5 -76.5t-75.5 -47.5q53 -18 95 -54t77 -97l249 -406h224v-474q0 -35 -23.5 -56t-61.5 -21h-162 v344h-28q-59 0 -100.5 25.5t-66.5 67.5l-296 463q-27 44 -60 62t-84 18h-153v-636h-253v636h-153q-50 0 -83.5 -18t-59.5 -62l-296 -463q-25 -42 -67 -67.5t-100 -25.5h-180l378 613q35 61 76.5 97t94.5 54q-45 17 -76 47.5t-60 76.5l-373 558h213z" />
<glyph unicode="&#x497;" horiz-adv-x="1728" d="M518 666q19 -32 44.5 -47.5t67.5 -15.5h68v423h239v-423h63q42 0 69.5 15.5t46.5 47.5l174 295q16 30 44.5 47.5t63.5 17.5h194l-240 -381q-24 -40 -50 -64.5t-63 -38.5q50 -15 82 -44.5t57 -74.5l136 -240h196v-453q0 -34 -19.5 -54t-50.5 -20h-154v344h-38 q-66 0 -100 20t-54 65l-152 284q-19 37 -50.5 55t-73.5 18h-81v-442h-239v442h-82q-41 0 -73 -18t-51 -55l-152 -284q-20 -45 -54 -65t-100 -20h-170l240 423q25 45 57 74.5t82 44.5q-37 14 -63 38.5t-50 64.5l-240 381h195q34 0 62.5 -17.5t44.5 -47.5z" />
<glyph unicode="&#x498;" horiz-adv-x="1163" d="M420 -189q5 0 10.5 -2t13 -5t19.5 -5t31 -2q45 0 67.5 28t22.5 67q0 29 -10 54.5t-42 39.5q-75 0 -147 14t-137.5 39t-122.5 60t-102 77l79 129q11 14 26.5 23.5t34.5 9.5q26 0 57 -20.5t75 -45.5t104.5 -45.5t145.5 -20.5q135 0 209 58t74 178q0 49 -20 88t-57 66 t-89.5 41.5t-116.5 14.5h-204l-1 216h186q125 0 195.5 49.5t70.5 143.5q0 83 -66.5 132.5t-192.5 49.5q-73 0 -125.5 -16t-91 -34.5t-65 -34.5t-47.5 -16q-20 0 -34 10t-26 30l-66 128q84 72 199.5 112t256.5 40q117 0 211.5 -28t160.5 -78.5t101.5 -120t35.5 -152.5 q0 -102 -47 -185t-140 -134q50 -24 91.5 -56.5t71 -72t46 -85.5t16.5 -97q0 -87 -28.5 -163.5t-83.5 -137t-135 -101.5t-183 -56q51 -26 79 -66t28 -87q0 -41 -14.5 -75.5t-42 -59.5t-67 -39.5t-88.5 -14.5q-56 0 -105.5 14.5t-81.5 36.5l37 91q6 16 24 16z" />
<glyph unicode="&#x499;" horiz-adv-x="901" d="M321 -189q5 0 10.5 -2t13 -5t19.5 -5t31 -2q45 0 67.5 28t22.5 67q0 28 -10 53.5t-40 39.5h-14q-44 0 -94.5 8t-101.5 27.5t-100 52t-89 80.5l71 90q15 23 45 23q23 0 44 -14.5t48.5 -32t65.5 -32t95 -14.5q93 0 141 42t48 105q0 62 -49.5 97t-160.5 35h-116v161h116 q97 0 149 34t52 90q0 51 -45.5 84t-134.5 33q-53 0 -90 -11t-63.5 -23.5t-44.5 -23.5t-34 -11q-17 0 -29 6.5t-26 28.5l-56 95q58 56 144 91.5t206 35.5q95 0 169 -22.5t124.5 -61t77 -88t26.5 -103.5q0 -30 -8.5 -61.5t-28.5 -61t-52 -55.5t-79 -44q85 -31 136.5 -92.5 t51.5 -153.5q0 -60 -22.5 -109t-61.5 -87.5t-91 -64.5t-111 -39q56 -26 86 -67.5t30 -89.5q0 -41 -14.5 -75.5t-42 -59.5t-67 -39.5t-88.5 -14.5q-56 0 -105.5 14.5t-81.5 36.5l37 91q6 16 24 16z" />
<glyph unicode="&#x49a;" horiz-adv-x="1468" d="M430 840h136q41 0 71 14t56 52l317 468q20 32 47 52t65 20h230l-393 -580q-25 -38 -58.5 -63t-72.5 -39q60 -17 101.5 -53.5t79.5 -100.5l250 -403h203v-474q0 -35 -24 -56t-61 -21h-162v344h-71q-38 0 -63.5 20t-47.5 59l-308 486q-12 21 -25.5 34.5t-29 22t-35 11.5 t-44.5 3h-161v-636h-269v1446h269v-606z" />
<glyph unicode="&#x49b;" horiz-adv-x="1179" d="M735 961q18 29 49 47t66 18h194l-239 -381q-25 -40 -51 -64.5t-63 -38.5q50 -15 82 -44.5t58 -74.5l136 -240h195v-453q0 -34 -20 -54t-51 -20h-154v344h-37q-65 0 -101 22t-61 63l-151 284q-20 37 -51.5 55t-73.5 18h-93v-442h-247v1026h247v-423h80q42 0 67.5 15.5 t43.5 47.5z" />
<glyph unicode="&#x49c;" horiz-adv-x="1482" d="M729 843q26 5 46.5 19.5t37.5 43.5l277 468q17 32 45.5 52t66.5 20h222l-360 -580q-23 -38 -53.5 -62.5t-67.5 -38.5q60 -16 102 -52.5t76 -102.5l340 -610h-244q-75 0 -112 79l-267 486q-20 37 -45.5 52.5t-63.5 17.5v-251h-190v252h-109v-636h-269v1446h269v-606h109 v286h190v-283z" />
<glyph unicode="&#x49d;" horiz-adv-x="1176" d="M806 961q6 16 18.5 28t28 20t33.5 12.5t35 4.5h195l-202 -381q-21 -41 -46.5 -65.5t-62.5 -37.5q50 -14 81.5 -43.5t53.5 -75.5l202 -423h-170q-66 0 -107 19t-55 66l-114 284q-11 29 -34 45.5t-52 23.5v-251h-166v255h-75v-442h-247v1026h247v-423h75v226h166v-219 q39 13 60 56z" />
<glyph unicode="&#x49e;" horiz-adv-x="1503" d="M541 1253h259v-199h-259v-214h136q41 0 71 14t56 52l317 468q20 32 47 52t65 20h230l-393 -580q-25 -38 -58.5 -63t-72.5 -39q60 -17 101.5 -53.5t79.5 -100.5l379 -610h-244q-38 0 -63.5 20t-47.5 59l-308 486q-12 21 -25.5 34.5t-29 22t-35 11.5t-44.5 3h-161v-636 h-269v1054h-236v199h236v193h269v-193z" />
<glyph unicode="&#x49f;" horiz-adv-x="1175" d="M211 931v95h247v-95h170v-175h-170v-153h79q42 0 67.5 15.5t44.5 47.5l174 295q19 29 50 47t65 18h195l-240 -381q-25 -40 -51 -64.5t-63 -38.5q50 -15 82 -44.5t58 -74.5l240 -423h-170q-33 0 -58 5.5t-44 16.5t-33.5 26.5t-26.5 36.5l-152 284q-19 37 -51 55t-73 18 h-93v-442h-247v756h-171v175h171z" />
<glyph unicode="&#x4a0;" horiz-adv-x="1668" d="M29 1446h677v-606h136q41 0 71 14t56 52l317 468q20 32 47 52t65 20h230l-393 -580q-25 -38 -58 -63t-73 -39q60 -17 101.5 -53.5t79.5 -100.5l380 -610h-245q-38 0 -63.5 20t-47.5 59l-308 486q-12 21 -25.5 34.5t-29 22t-35 11.5t-44.5 3h-161v-636h-269v1232h-408v214 z" />
<glyph unicode="&#x4a1;" horiz-adv-x="1304" d="M25 1026h562v-423h79q42 0 67.5 15.5t43.5 47.5l175 295q18 29 49 47t66 18h194l-239 -381q-25 -40 -51 -64.5t-63 -38.5q50 -15 82 -44.5t58 -74.5l240 -423h-171q-65 0 -101 22t-61 63l-151 284q-20 37 -51.5 55t-73.5 18h-92v-442h-248v840h-314v186z" />
<glyph unicode="&#x4a2;" horiz-adv-x="1639" d="M1110 0v632h-679v-632h-270v1446h270v-622h679v622h270v-1239h207v-474q0 -35 -23.5 -56t-61.5 -21h-161v344h-231z" />
<glyph unicode="&#x4a3;" horiz-adv-x="1238" d="M1016 1026v-843h189v-453q0 -34 -20 -54t-51 -20h-154v344h-211v454h-400v-454h-247v1026h247v-389h400v389h247z" />
<glyph unicode="&#x4a4;" horiz-adv-x="2031" d="M2001 1239h-621v-1239h-270v632h-679v-632h-270v1446h270v-622h679v622h891v-207z" />
<glyph unicode="&#x4a5;" horiz-adv-x="1489" d="M369 1026v-389h400v389h695v-183h-448v-843h-247v454h-400v-454h-247v1026h247z" />
<glyph unicode="&#x4a6;" horiz-adv-x="2168" d="M1549 -138q72 0 130.5 23t100.5 72.5t65 126t23 184.5q0 115 -24.5 191.5t-69 122t-105.5 64.5t-134 19q-71 0 -119 -17.5t-86 -39.5v-608h-271v1239h-628v-1239h-270v1446h1169v-644q59 28 121.5 42.5t135.5 14.5q106 0 203 -29.5t170.5 -98t117 -179t43.5 -272.5 q0 -149 -39.5 -268t-111.5 -201.5t-172 -126.5t-221 -44q-54 0 -106 6.5t-109 20.5q3 39 6.5 79.5t7.5 80.5q3 21 17 34.5t42 13.5q17 0 44.5 -6.5t69.5 -6.5z" />
<glyph unicode="&#x4a7;" horiz-adv-x="1637" d="M1161 -181q41 0 75.5 15.5t59.5 53t39 99t14 154.5q0 82 -14 136t-39.5 85t-61.5 43.5t-81 12.5q-47 0 -78 -13t-59 -33v-372h-247v843h-400v-843h-247v1026h894v-492q45 33 97.5 50.5t117.5 17.5q90 0 158.5 -32.5t114.5 -91.5t69.5 -142t23.5 -184q0 -117 -31.5 -212 t-86 -162t-129.5 -103t-162 -36q-42 0 -81 4.5t-82 15.5q2 19 3.5 33t3.5 27.5t3.5 28t3.5 33.5q2 20 15.5 32.5t37.5 12.5q12 0 29 -3.5t40 -3.5z" />
<glyph unicode="&#x4a8;" horiz-adv-x="1654" d="M1635 23q-60 -18 -129.5 -27t-137.5 -9q-67 0 -141 15.5t-146 50.5q-72 -34 -151 -51.5t-163 -17.5q-155 0 -282 55t-218 153t-140.5 234t-49.5 297q0 163 49.5 298.5t144.5 233t233.5 152t316.5 54.5q33 0 61.5 -2.5t56.5 -7t56 -11.5t60 -16l-14 -101q-3 -20 -10 -39 t-17.5 -33.5t-24 -23t-28.5 -8.5q-16 0 -32 2t-35.5 5t-44.5 5t-59 2q-97 0 -177.5 -34.5t-138.5 -100t-90 -160t-32 -215.5q0 -122 32 -217t91 -160t141 -99.5t183 -34.5q19 0 37.5 1.5t35.5 3.5q-65 80 -104 192.5t-39 264.5q0 106 23.5 190t70 141.5t115.5 88t159 30.5 q97 0 167.5 -35.5t116 -96.5t67 -144t21.5 -177q0 -143 -48 -261t-133 -207q27 -5 50.5 -6.5t42.5 -1.5q55 0 90.5 6.5t65.5 6.5q31 0 54.5 -21.5t28.5 -62.5zM967 668q0 -68 9 -123.5t25 -100t37.5 -79t47.5 -60.5q73 63 109 155.5t36 204.5q0 45 -6 91.5t-21 84t-40.5 61 t-64.5 23.5q-58 0 -95 -62.5t-37 -194.5z" />
<glyph unicode="&#x4a9;" horiz-adv-x="1256" d="M1224 5q-30 -9 -71.5 -14.5t-87.5 -5.5q-72 0 -136.5 14t-121.5 40q-59 -26 -123 -40t-130 -14q-100 0 -189 35.5t-155.5 103.5t-105 166.5t-38.5 224.5q0 113 32.5 209.5t96 167t156.5 110.5t214 40q40 0 79.5 -6t77.5 -20l-14 -101q-3 -20 -9 -32.5t-15.5 -19.5 t-22 -9.5t-27.5 -2.5q-11 1 -25.5 2t-28.5 1q-65 0 -114 -23.5t-81.5 -67.5t-48.5 -106.5t-16 -141.5q0 -82 20 -147.5t58 -111t93.5 -69.5t126.5 -24h19q-60 68 -92.5 154.5t-32.5 189.5q0 78 23 139t65 102.5t101 63t130 21.5q72 0 132.5 -24.5t104 -67.5t67.5 -102.5 t24 -128.5q-1 -96 -43.5 -184t-115.5 -158q14 -2 28.5 -3.5t30.5 -1.5q26 0 40 3t29 4q39 0 58 -15t25 -54zM744 503q0 -75 24.5 -140t70.5 -112q44 45 66.5 107.5t22.5 134.5q0 69 -24 107.5t-69 38.5t-68 -36.5t-23 -99.5z" />
<glyph unicode="&#x4aa;" horiz-adv-x="1323" d="M613 -189q5 0 10.5 -2t13 -5t19.5 -5t31 -2q45 0 67.5 28t22.5 67q0 29 -10 54.5t-41 39.5q-150 8 -270 66t-204.5 155.5t-129.5 229t-45 286.5q0 163 52 298.5t146.5 233.5t225.5 152.5t290 54.5q158 0 280.5 -52t208.5 -136l-90 -125q-8 -12 -20.5 -21t-34.5 -9 q-15 0 -31 8.5t-35 21t-44 27.5t-58 27.5t-76.5 21t-100.5 8.5q-97 0 -177.5 -34.5t-138.5 -100t-90 -160t-32 -215.5q0 -122 34.5 -217t93.5 -160t139 -99.5t172 -34.5q55 0 99.5 6t82 19t71 33.5t66.5 50.5q10 9 21 14.5t23 5.5q22 0 39 -17l106 -115q-77 -97 -186 -153 t-256 -68q45 -26 69.5 -64t24.5 -82q0 -41 -14.5 -75.5t-42 -59.5t-67 -39.5t-88.5 -14.5q-56 0 -105.5 14.5t-81.5 36.5l37 91q6 16 24 16z" />
<glyph unicode="&#x4ab;" horiz-adv-x="964" d="M427 -189q5 0 10.5 -2t13 -5t19.5 -5t31 -2q45 0 67.5 28t22.5 67q0 28 -10 53.5t-40 39.5h-12q-95 0 -179 35.5t-147 103.5t-99.5 166.5t-36.5 224.5q0 113 32.5 209.5t95.5 167t156 110.5t214 40q115 0 201.5 -37t155.5 -106l-65 -90q-11 -14 -21.5 -22t-30.5 -8 q-19 0 -37 11.5t-43 26t-59.5 26t-85.5 11.5q-65 0 -114 -23.5t-81.5 -67.5t-48.5 -106.5t-16 -141.5q0 -82 17.5 -146t50.5 -107.5t80 -66t106 -22.5t95.5 14.5t61.5 32t43.5 32t41.5 14.5q30 0 45 -23l71 -90q-59 -69 -130 -106t-148 -51q54 -26 82.5 -66t28.5 -88 q0 -41 -14.5 -75.5t-42 -59.5t-67 -39.5t-88.5 -14.5q-56 0 -105.5 14.5t-81.5 36.5l37 91q6 16 24 16z" />
<glyph unicode="&#x4ac;" horiz-adv-x="1208" d="M1171 1446v-221h-436v-1018h207v-474q0 -35 -23.5 -56t-61.5 -21h-162v344h-229v1225h-436v221h1141z" />
<glyph unicode="&#x4ad;" horiz-adv-x="1036" d="M24 1026h978v-183h-366v-660h189v-453q0 -34 -20 -54t-50 -20h-155v344h-211v843h-365v183z" />
<glyph unicode="&#x4ae;" horiz-adv-x="1290" d="M779 562v-562h-269v562l-526 884h237q35 0 55.5 -17t34.5 -43l264 -483q23 -44 40.5 -82t31.5 -75q13 38 30 76t39 81l263 483q11 22 33 41t56 19h238z" />
<glyph unicode="&#x4af;" horiz-adv-x="1051" d="M649 71v-406h-247v409l-396 952h205q27 0 45 -13.5t26 -32.5l198 -503q16 -45 27.5 -87.5t20.5 -86.5q9 44 21.5 86.5t29.5 87.5l203 503q8 20 25.5 33t42.5 13h195z" />
<glyph unicode="&#x4b0;" horiz-adv-x="1325" d="M528 573v64l-527 809h237q35 0 55 -17t36 -43l264 -437q23 -39 40.5 -71t31.5 -63q12 31 29 63.5t40 70.5l262 437q13 21 34 40.5t55 19.5h239l-527 -809v-64h300v-199h-300v-374h-269v374h-300v199h300z" />
<glyph unicode="&#x4b1;" horiz-adv-x="1059" d="M653 71v-60h207v-175h-207v-171h-247v171h-207v175h207v63l-396 952h205q27 0 45 -13.5t26 -32.5l198 -503q16 -45 27.5 -87.5t20.5 -86.5q9 44 21.5 86.5t29.5 87.5l203 503q8 20 25.5 33t42.5 13h195z" />
<glyph unicode="&#x4b2;" horiz-adv-x="1396" d="M482 744l-461 702h268q28 0 40.5 -7.5t23.5 -24.5l328 -530q5 12 11 24.5t14 25.5l302 475q11 19 24 28t33 9h257l-465 -691l347 -548h172v-474q0 -35 -23.5 -56t-61.5 -21h-162v344h-62q-28 0 -44.5 14t-26.5 32l-335 554q-7 -22 -19 -42l-321 -512q-12 -17 -27.5 -31.5 t-40.5 -14.5h-251z" />
<glyph unicode="&#x4b3;" horiz-adv-x="1124" d="M355 529l-337 497h238q27 0 40 -7.5t23 -24.5l215 -343q5 17 12.5 34t18.5 34l173 270q22 37 57 37h227l-338 -486l233 -358v1h188v-453q0 -34 -20 -54t-50 -20h-154v344h-83q-27 0 -43.5 14t-27.5 32l-218 357q-9 -36 -25 -60l-192 -297q-11 -17 -27 -31.5t-40 -14.5 h-221z" />
<glyph unicode="&#x4b4;" horiz-adv-x="1865" d="M29 1446h1087v-214h-408v-1025h627v1239h271v-1239h207v-474q0 -35 -23.5 -56t-61.5 -21h-162v344h-1129v1232h-408v214z" />
<glyph unicode="&#x4b5;" horiz-adv-x="1455" d="M25 1026h805v-186h-243v-657h399v843h247v-843h189v-453q0 -34 -20 -54t-51 -20h-154v344h-858v840h-314v186z" />
<glyph unicode="&#x4b6;" horiz-adv-x="1450" d="M1191 207h207v-474q0 -35 -23.5 -56t-61.5 -21h-162v344h-231v579q-117 -29 -224.5 -43t-201 -9t-170.5 31t-131.5 79t-84.5 134.5t-30 197.5v477h271v-477q0 -84 29 -140t95.5 -82t176 -20.5t270.5 43.5v676h271v-1239z" />
<glyph unicode="&#x4b7;" horiz-adv-x="1154" d="M932 183h188v-453q0 -34 -19.5 -54t-50.5 -20h-154v344h-211v403q-133 -32 -245.5 -36.5t-195 27t-129 102t-46.5 189.5v341h247v-303q0 -63 20.5 -101.5t65 -56t114.5 -14.5t169 24v451h247v-843z" />
<glyph unicode="&#x4b8;" horiz-adv-x="1352" d="M1191 0h-271v579q-45 -11 -87 -19.5t-84 -15.5v-250h-190v232q-107 -2 -195.5 20t-152 74t-98.5 138t-35 211v477h271v-477q0 -107 48 -168t162 -73v307h190v-299q38 6 80.5 14.5t90.5 19.5v676h271v-1446z" />
<glyph unicode="&#x4b9;" horiz-adv-x="1053" d="M930 0h-247v403q-24 -6 -47.5 -10.5t-46.5 -9.5v-196h-165v179q-81 -1 -146.5 16t-112.5 55.5t-72.5 99.5t-25.5 148v341h247v-303q0 -71 26 -110.5t84 -53.5v270h165v-271q22 3 45 7.5t49 9.5v451h247v-1026z" />
<glyph unicode="&#x4ba;" horiz-adv-x="1302" d="M161 1446h270v-580q116 29 220.5 43.5t193 9.5t160 -31.5t121.5 -79t77 -134.5t27 -197v-477h-270v478q0 83 -23 138.5t-82 81.5t-161.5 20.5t-262.5 -43.5v-675h-270v1446z" />
<glyph unicode="&#x4bb;" horiz-adv-x="1046" d="M122 1026h247v-404q132 32 245 36.5t195.5 -26.5t129.5 -102t47 -189v-341h-247v303q0 63 -21 101.5t-65.5 55.5t-114.5 14t-169 -23v-451h-247v1026z" />
<glyph unicode="&#x4bc;" horiz-adv-x="1733" d="M354 867q17 127 71.5 237t142.5 190.5t206.5 126.5t264.5 46q136 0 250.5 -43.5t197.5 -127t129.5 -205t46.5 -276.5q0 -40 -3.5 -65.5t-12.5 -40.5t-24.5 -20.5t-38.5 -5.5h-958q8 -117 42.5 -204t93 -144.5t140 -86.5t184.5 -29q86 0 149.5 20.5t112 45.5t85 45.5 t69.5 20.5q21 0 37 -8.5t27 -22.5l81 -100q-60 -69 -131.5 -114.5t-148 -72.5t-155.5 -38t-156 -11q-143 0 -267 45t-218.5 133.5t-152.5 219t-69 301.5h-4q-64 0 -124 11t-107 40.5t-75.5 81t-28.5 132.5q0 44 9.5 84.5t30.5 89.5l143 -27q30 -6 41.5 -24t11.5 -32 q0 -15 -6 -36.5t-6 -48.5q0 -50 31 -68.5t85 -18.5h4zM1037 1245q-88 0 -158 -26.5t-121 -76t-83 -119.5t-44 -156h771q0 82 -24.5 151.5t-71.5 120t-114.5 78.5t-154.5 28z" />
<glyph unicode="&#x4bd;" horiz-adv-x="1325" d="M816 1042q97 0 179 -31t141 -90.5t92.5 -146t33.5 -197.5q0 -56 -12 -75.5t-46 -19.5h-635q6 -79 28 -136.5t58 -95t85.5 -56t109.5 -18.5t103.5 14t76 31t57 31t47.5 14q31 0 46 -23l71 -90q-41 -48 -92 -80.5t-106.5 -52t-113 -27.5t-111.5 -8q-102 0 -190.5 32 t-155.5 94.5t-108.5 155.5t-49.5 215q-58 1 -110 9.5t-91.5 32.5t-63 69t-23.5 120q0 44 9.5 84.5t30.5 89.5l93 -19q29 -8 38.5 -24t9.5 -30q0 -15 -6 -36t-6 -50q0 -48 29.5 -71.5t95.5 -25.5q14 88 54 163t102 130t145.5 86.5t184.5 31.5zM821 865q-108 0 -169 -61 t-78 -173h466q0 48 -13.5 90.5t-40.5 74.5t-68.5 50.5t-96.5 18.5z" />
<glyph unicode="&#x4be;" horiz-adv-x="1733" d="M354 867q17 127 71.5 237t142.5 190.5t206.5 126.5t264.5 46q136 0 250.5 -43.5t197.5 -127t129.5 -205t46.5 -276.5q0 -40 -3.5 -65.5t-12.5 -40.5t-24.5 -20.5t-38.5 -5.5h-958q8 -117 42.5 -204t93 -144.5t140 -86.5t184.5 -29q86 0 149.5 20.5t112 45.5t85 45.5 t69.5 20.5q21 0 37 -8.5t27 -22.5l81 -100q-48 -55 -102.5 -94.5t-113.5 -66.5t-120.5 -43.5t-123.5 -23.5v-327h-247v327q-122 17 -225.5 69.5t-181.5 139.5t-126 208t-58 274h-4q-64 0 -124 11t-107 40.5t-75.5 81t-28.5 132.5q0 44 9.5 84.5t30.5 89.5l143 -27 q30 -6 41.5 -24t11.5 -32q0 -15 -6 -36.5t-6 -48.5q0 -50 31 -68.5t85 -18.5h4zM1037 1245q-88 0 -158 -26.5t-121 -76t-83 -119.5t-44 -156h771q0 82 -24.5 151.5t-71.5 120t-114.5 78.5t-154.5 28z" />
<glyph unicode="&#x4bf;" horiz-adv-x="1325" d="M816 1042q97 0 179 -31t141 -90.5t92.5 -146t33.5 -197.5q0 -56 -12 -75.5t-46 -19.5h-635q6 -79 28 -136.5t58 -95t85.5 -56t109.5 -18.5t103.5 14t76 31t57 31t47.5 14q31 0 46 -23l71 -90q-32 -36 -69 -63.5t-77.5 -47t-83 -31.5t-85.5 -18v-263q0 -34 -19.5 -54 t-50.5 -20h-154v341q-80 16 -148.5 54.5t-119.5 99.5t-82 144t-38 187q-58 1 -110 9.5t-91.5 32.5t-63 69t-23.5 120q0 44 9.5 84.5t30.5 89.5l93 -19q29 -8 38.5 -24t9.5 -30q0 -15 -6 -36t-6 -50q0 -48 29.5 -71.5t95.5 -25.5q14 88 54 163t102 130t145.5 86.5t184.5 31.5 zM821 865q-108 0 -169 -61t-78 -173h466q0 48 -13.5 90.5t-40.5 74.5t-68.5 50.5t-96.5 18.5z" />
<glyph unicode="&#x4c0;" horiz-adv-x="593" d="M431 0h-270v1446h270v-1446z" />
<glyph unicode="&#x4c1;" horiz-adv-x="2136" d="M2 0zM255 1446q41 0 75.5 -20t55.5 -56l296 -458q27 -44 59 -58t73 -14h127v606h253v-606h128q41 0 72.5 14t59.5 58l295 458q21 36 55.5 56t76.5 20h212l-373 -558q-29 -46 -60.5 -76.5t-75.5 -47.5q53 -18 95 -54t77 -97l377 -613h-179q-59 0 -100.5 25.5t-66.5 67.5 l-296 463q-27 44 -60 62t-84 18h-153v-636h-253v636h-153q-50 0 -83.5 -18t-59.5 -62l-296 -463q-25 -42 -67 -67.5t-100 -25.5h-180l378 613q35 61 76.5 97t94.5 54q-45 17 -76 47.5t-60 76.5l-373 558h213zM1069 1655q37 0 62 7t40 24.5t21 47.5t6 76h146q26 0 38.5 -22 t12.5 -48q0 -51 -23 -90t-66 -65t-103 -39.5t-134 -13.5t-134 13.5t-103 39.5t-66 65t-23 90q0 26 12.5 48t38.5 22h146q0 -46 6 -76t21 -47.5t39.5 -24.5t62.5 -7z" />
<glyph unicode="&#x4c2;" horiz-adv-x="1634" d="M16 0zM518 666q19 -32 44.5 -47.5t67.5 -15.5h68v423h239v-423h63q42 0 69.5 15.5t46.5 47.5l174 295q16 30 44.5 47.5t63.5 17.5h194l-240 -381q-24 -40 -50 -64.5t-63 -38.5q50 -15 82 -44.5t57 -74.5l241 -423h-171q-66 0 -100 20t-54 65l-152 284q-19 37 -50.5 55 t-73.5 18h-81v-442h-239v442h-82q-41 0 -73 -18t-51 -55l-152 -284q-20 -45 -54 -65t-100 -20h-170l240 423q25 45 57 74.5t82 44.5q-37 14 -63 38.5t-50 64.5l-240 381h195q34 0 62.5 -17.5t44.5 -47.5zM817 1286q37 0 62 8t40 26.5t21 49.5t6 76h146q26 0 38.5 -21.5 t12.5 -47.5q0 -51 -23 -92.5t-66 -70t-103 -44t-134 -15.5t-134 15.5t-103 44t-66 70t-23 92.5q0 26 12.5 47.5t38.5 21.5h146q0 -45 6 -76t21 -49.5t39.5 -26.5t62.5 -8z" />
<glyph unicode="&#x4c3;" horiz-adv-x="1441" d="M785 -131q72 0 130.5 21.5t100.5 67.5t65 118t23 173q0 121 -32.5 196.5t-86 118t-122.5 57.5t-142 15h-291v-636h-269v1446h269v-606h136q41 0 71 14t56 52l317 468q20 32 47 52t65 20h230l-393 -580q-26 -39 -59 -64q90 -11 172.5 -43.5t146 -95t101 -160.5t37.5 -240 q0 -144 -38 -258t-109 -193.5t-171.5 -122t-225.5 -42.5q-54 0 -106.5 6.5t-109.5 20.5l15 160q2 21 16.5 34.5t42.5 13.5q17 0 44.5 -6.5t69.5 -6.5z" />
<glyph unicode="&#x4c4;" horiz-adv-x="1113" d="M604 -181q41 0 75.5 18t59.5 58.5t39 104t14 155.5q0 82 -14 137.5t-39.5 88.5t-61.5 47t-81 14h-227v-442h-247v1026h247v-423h80q42 0 67.5 15.5t43.5 47.5l175 295q18 29 49 47t66 18h194l-239 -381q-17 -29 -35 -49t-40 -34q153 -17 231.5 -123t78.5 -292 q0 -114 -31.5 -208t-86.5 -160.5t-129.5 -103t-161.5 -36.5q-42 0 -81 4.5t-82 15.5q2 19 3.5 33t3.5 27.5t3.5 28t3.5 33.5q2 20 15.5 32.5t37.5 12.5q12 0 29 -3.5t40 -3.5z" />
<glyph unicode="&#x4c5;" horiz-adv-x="1568" d="M1327 1446v-1239h216l-158 -551h-262l109 344h-176v1239h-395q-14 -272 -39.5 -470.5t-61.5 -338t-81 -226.5t-99 -135.5t-116 -66t-130 -17.5q-72 0 -105 13t-33 38v168h77q26 0 52.5 6t53 25.5t52 56.5t49 99.5t44 153.5t37 219t29 296.5t18.5 385.5h919z" />
<glyph unicode="&#x4c6;" horiz-adv-x="1291" d="M1074 1026v-843h200l-152 -527h-231l110 344h-174v837h-252q-12 -189 -37 -325.5t-59.5 -231.5t-77 -152.5t-90.5 -89.5t-99 -42.5t-103 -10.5q-55 0 -80.5 9.5t-25.5 26.5v154h59q33 0 66 10t64 41t59 88.5t51.5 152t41.5 231.5t28 328h702z" />
<glyph unicode="&#x4c7;" horiz-adv-x="1541" d="M1380 126q0 -113 -30 -203t-89.5 -153t-148 -96.5t-206.5 -33.5q-54 0 -106.5 6.5t-109.5 20.5l15 160q2 21 16.5 34.5t41.5 13.5q17 0 45 -6.5t70 -6.5q57 0 100.5 13t73 43t44 79.5t14.5 122.5v512h-679v-632h-270v1446h270v-622h679v622h270v-1320z" />
<glyph unicode="&#x4c8;" horiz-adv-x="1138" d="M1016 1026l1 -982q0 -110 -26 -187t-76.5 -125.5t-125 -70.5t-172.5 -22q-43 0 -78.5 4t-78.5 15q2 19 3.5 33.5t3.5 28t3.5 28t3.5 33.5q2 20 15.5 32.5t37.5 12.5q11 0 26.5 -4t48.5 -4q36 0 66.5 8.5t53 33.5t35 70t12.5 117v407h-400v-454h-247v1026h247v-389h400 v389h247z" />
<glyph unicode="&#x4c9;" horiz-adv-x="1622" d="M1380 207h217l-158 -551h-263l110 344h-176v632h-679v-632h-270v1446h270v-622h679v622h270v-1239z" />
<glyph unicode="&#x4ca;" horiz-adv-x="1233" d="M1016 1026v-843h201l-152 -527h-231l109 344h-174v454h-400v-454h-247v1026h247v-389h400v389h247z" />
<glyph unicode="&#x4cb;" horiz-adv-x="1352" d="M1191 0h-231v-259q0 -34 -23.5 -55t-61.5 -21h-162v542h207v372q-117 -29 -224.5 -43t-201 -9t-170.5 31t-131.5 79t-84.5 134.5t-30 197.5v477h271v-477q0 -84 29 -140t95.5 -82t176 -20.5t270.5 43.5v676h271v-1446z" />
<glyph unicode="&#x4cc;" horiz-adv-x="1052" d="M683 183v220q-132 -32 -245 -36.5t-195.5 27t-129 102t-46.5 189.5v341h247v-303q0 -63 20.5 -101.5t65 -56t114.5 -14.5t169 24v451h247v-1026h-211v-270q0 -34 -19.5 -54t-50.5 -20h-154v527h188z" />
<glyph unicode="&#x4cd;" horiz-adv-x="1970" d="M1946 207l-159 -551h-262l110 344h-143v934q0 26 1.5 57t4.5 63l-437 -820q-31 -59 -95 -59h-38q-64 0 -95 59l-442 823q3 -33 5 -64.5t2 -58.5v-934h-237v1446h203q18 0 31 -1t23.5 -5t19 -13t16.5 -24l433 -803q17 -32 31.5 -66.5t28.5 -69.5q14 37 29 71.5t32 66.5 l427 801q8 15 17 24t19.5 13t23.5 5t31 1h203v-1239h217z" />
<glyph unicode="&#x4ce;" horiz-adv-x="1527" d="M662 541q15 -30 29.5 -63.5t26.5 -67.5q12 35 25.5 68t29.5 63l240 432q18 34 43 44.5t51 10.5h204v-845h199l-152 -527h-231l110 344h-149v572q0 35 3.5 79t10.5 82l-301 -554q-22 -43 -70 -43h-26q-48 0 -70 43l-306 557q6 -38 11 -83.5t5 -80.5v-572h-223v1028h204 q26 0 51.5 -11t42.5 -44l242 -432v0z" />
<glyph unicode="&#x4cf;" horiz-adv-x="593" d="M431 0h-270v1446h270v-1446z" />
<glyph unicode="&#x4d0;" horiz-adv-x="1383" d="M0 0zM1397 0h-208q-35 0 -57 17.5t-33 43.5l-108 295h-599l-108 -295q-8 -23 -31 -42t-57 -19h-210l569 1446h274zM461 546h461l-176 481q-13 32 -27 75.5t-28 94.5q-14 -51 -27.5 -95t-26.5 -77zM691 1655q37 0 62 7t40 24.5t21 47.5t6 76h146q26 0 38.5 -22t12.5 -48 q0 -51 -23 -90t-66 -65t-103 -39.5t-134 -13.5t-134 13.5t-103 39.5t-66 65t-23 90q0 26 12.5 48t38.5 22h146q0 -46 6 -76t21 -47.5t39.5 -24.5t62.5 -7z" />
<glyph unicode="&#x4d1;" horiz-adv-x="1015" d="M49 0zM793 0q-35 0 -54 10.5t-30 42.5l-22 73q-39 -35 -76 -61.5t-77 -44.5t-85.5 -27t-100.5 -9q-65 0 -120 17.5t-95 52.5t-62 87t-22 121q0 58 30.5 114.5t101.5 102t189 75.5t294 34v60q0 103 -44 152.5t-127 49.5q-60 0 -99.5 -14t-69.5 -31.5t-54.5 -31.5 t-54.5 -14q-26 0 -44 13.5t-29 31.5l-44 79q177 162 426 162q90 0 161 -29.5t120 -82t74.5 -125.5t25.5 -160v-648h-112zM424 154q76 0 131.5 27.5t108.5 83.5v173q-108 -5 -180.5 -18.5t-116.5 -34.5t-63 -49t-19 -61q0 -65 38.5 -93t100.5 -28zM501 1286q37 0 62 8 t40 26.5t21 49.5t6 76h146q26 0 38.5 -21.5t12.5 -47.5q0 -51 -23 -92.5t-66 -70t-103 -44t-134 -15.5t-134 15.5t-103 44t-66 70t-23 92.5q0 26 12.5 47.5t38.5 21.5h146q0 -45 6 -76t21 -49.5t39.5 -26.5t62.5 -8z" />
<glyph unicode="&#x4d2;" horiz-adv-x="1383" d="M0 0zM1397 0h-208q-35 0 -57 17.5t-33 43.5l-108 295h-599l-108 -295q-8 -23 -31 -42t-57 -19h-210l569 1446h274zM461 546h461l-176 481q-13 32 -27 75.5t-28 94.5q-14 -51 -27.5 -95t-26.5 -77zM605 1667q0 -27 -11 -51t-29.5 -42t-43.5 -28t-53 -10q-26 0 -49.5 10 t-41.5 28t-29 42t-11 51t11 51.5t29 43t41.5 29.5t49.5 11q28 0 53 -11t43.5 -29.5t29.5 -43t11 -51.5zM1045 1667q0 -27 -10.5 -51t-29 -42t-43 -28t-51.5 -10q-28 0 -52.5 10t-42.5 28t-28.5 42t-10.5 51t10.5 51.5t28.5 43t42.5 29.5t52.5 11q27 0 51.5 -11t43 -29.5 t29 -43t10.5 -51.5z" />
<glyph unicode="&#x4d3;" horiz-adv-x="1015" d="M49 0zM793 0q-35 0 -54 10.5t-30 42.5l-22 73q-39 -35 -76 -61.5t-77 -44.5t-85.5 -27t-100.5 -9q-65 0 -120 17.5t-95 52.5t-62 87t-22 121q0 58 30.5 114.5t101.5 102t189 75.5t294 34v60q0 103 -44 152.5t-127 49.5q-60 0 -99.5 -14t-69.5 -31.5t-54.5 -31.5 t-54.5 -14q-26 0 -44 13.5t-29 31.5l-44 79q177 162 426 162q90 0 161 -29.5t120 -82t74.5 -125.5t25.5 -160v-648h-112zM424 154q76 0 131.5 27.5t108.5 83.5v173q-108 -5 -180.5 -18.5t-116.5 -34.5t-63 -49t-19 -61q0 -65 38.5 -93t100.5 -28zM437 1292q0 -28 -11 -52.5 t-30.5 -42.5t-45 -28.5t-54.5 -10.5q-27 0 -51.5 10.5t-43 28.5t-29.5 42.5t-11 52.5q0 29 11 54.5t29.5 44.5t43 30t51.5 11q29 0 54.5 -11t45 -30t30.5 -44.5t11 -54.5zM841 1292q0 -28 -11 -52.5t-29.5 -42.5t-44 -28.5t-54.5 -10.5q-28 0 -53 10.5t-43.5 28.5 t-29.5 42.5t-11 52.5q0 29 11 54.5t29.5 44.5t43.5 30t53 11q29 0 54.5 -11t44 -30t29.5 -44.5t11 -54.5z" />
<glyph unicode="&#x4d4;" horiz-adv-x="1862" d="M1785 1232h-694l49 -401h509v-207h-484l50 -409h570v-215h-797l-44 356h-520l-142 -296q-13 -27 -39 -43.5t-62 -16.5h-204l735 1446h1073v-214zM516 546h405l-86 698q-16 -51 -33.5 -95t-34.5 -82z" />
<glyph unicode="&#x4d5;" horiz-adv-x="1619" d="M1144 1042q87 0 162 -33.5t130 -96.5t86.5 -153t31.5 -202q0 -28 -2.5 -46.5t-8.5 -29t-16.5 -15t-27.5 -4.5h-599q14 -147 83.5 -216.5t178.5 -69.5q68 0 111 13t71 29t46.5 29t39.5 13q36 0 50 -23l67 -84q-41 -48 -90.5 -80.5t-102.5 -52t-108 -27.5t-107 -8 q-109 0 -203.5 49t-155.5 153q-30 -54 -74.5 -92.5t-97.5 -63t-113 -36t-121 -11.5q-74 0 -134 19t-102 55.5t-64.5 91t-22.5 125.5q0 38 13 77.5t42.5 76t76.5 69t115.5 57t159.5 40t208 18.5v35q0 103 -44 156t-127 53q-60 0 -99.5 -15.5t-69.5 -33.5t-54.5 -33.5 t-54.5 -15.5q-26 0 -44 13.5t-29 31.5l-44 79q89 81 185.5 121.5t214.5 40.5q115 0 189 -44t113 -121q57 75 142 118.5t200 43.5zM666 462q-108 -5 -180.5 -20.5t-116.5 -38.5t-62.5 -53t-18.5 -63q0 -69 38.5 -101t107.5 -32q49 0 91.5 15t73.5 46.5t49 81.5t18 119v46z M1134 865q-105 0 -162.5 -66.5t-70.5 -187.5h433q0 49 -12 95t-37 81.5t-62.5 56.5t-88.5 21z" />
<glyph unicode="&#x4d6;" horiz-adv-x="1150" d="M161 0zM1073 1446v-214h-642v-401h506v-207h-506v-409h642v-215h-912v1446h912zM632 1655q37 0 62 7t40 24.5t21 47.5t6 76h146q26 0 38.5 -22t12.5 -48q0 -51 -23 -90t-66 -65t-103 -39.5t-134 -13.5t-134 13.5t-103 39.5t-66 65t-23 90q0 26 12.5 48t38.5 22h146 q0 -46 6 -76t21 -47.5t39.5 -24.5t62.5 -7z" />
<glyph unicode="&#x4d7;" horiz-adv-x="1068" d="M66 0zM559 1042q97 0 179 -31t141 -90.5t92.5 -146t33.5 -197.5q0 -56 -12 -75.5t-46 -19.5h-635q6 -79 28 -136.5t58 -95t85.5 -56t109.5 -18.5t103.5 14t76 31t57 31t47.5 14q31 0 46 -23l71 -90q-41 -48 -92 -80.5t-106.5 -52t-113 -27.5t-111.5 -8q-107 0 -199 35.5 t-160 105t-107 172t-39 237.5q0 105 34 197.5t97.5 161t155 108.5t206.5 40zM564 865q-108 0 -169 -61t-78 -173h466q0 48 -13.5 90.5t-40.5 74.5t-68.5 50.5t-96.5 18.5zM565 1286q37 0 62 8t40 26.5t21 49.5t6 76h146q26 0 38.5 -21.5t12.5 -47.5q0 -51 -23 -92.5t-66 -70 t-103 -44t-134 -15.5t-134 15.5t-103 44t-66 70t-23 92.5q0 26 12.5 47.5t38.5 21.5h146q0 -45 6 -76t21 -49.5t39.5 -26.5t62.5 -8z" />
<glyph unicode="&#x4d8;" horiz-adv-x="1465" d="M695 -16q-136 0 -250.5 43.5t-197.5 127t-129.5 205t-46.5 277.5q0 39 3.5 64.5t12.5 40.5t24 21t39 6h957q-16 233 -135 348t-324 115q-87 0 -150.5 -20.5t-111.5 -45.5t-84.5 -45.5t-69.5 -20.5q-21 0 -37 8.5t-27 22.5l-82 101q61 69 132 114t147.5 72t156 38 t156.5 11q150 0 279.5 -49.5t225 -147t150 -241.5t54.5 -333q0 -147 -48 -277t-137.5 -226.5t-217.5 -152.5t-289 -56zM697 207q88 0 158 26.5t121 76t82.5 119t43.5 156.5h-771q0 -83 24.5 -152.5t71.5 -119.5t115 -78t155 -28z" />
<glyph unicode="&#x4d9;" horiz-adv-x="1068" d="M508 -15q-97 0 -178.5 31t-141 90.5t-92.5 146t-33 197.5q0 28 2.5 46.5t9 29t17.5 15t28 4.5h636q-11 157 -85.5 231.5t-195.5 74.5q-60 0 -104 -14t-76.5 -31t-57.5 -31t-47 -14q-30 0 -45 23l-71 90q41 48 91.5 80.5t106 52t113 27.5t111.5 8q107 0 199.5 -35.5 t160.5 -105t107 -172t39 -236.5q0 -105 -34 -197.5t-98 -161.5t-155.5 -109t-206.5 -40zM504 162q106 0 167.5 61t79.5 173h-466q0 -48 13.5 -90.5t40.5 -74.5t68 -50.5t97 -18.5z" />
<glyph unicode="&#x4da;" horiz-adv-x="1465" d="M71 0zM695 -16q-136 0 -250.5 43.5t-197.5 127t-129.5 205t-46.5 277.5q0 39 3.5 64.5t12.5 40.5t24 21t39 6h957q-16 233 -135 348t-324 115q-87 0 -150.5 -20.5t-111.5 -45.5t-84.5 -45.5t-69.5 -20.5q-21 0 -37 8.5t-27 22.5l-82 101q61 69 132 114t147.5 72t156 38 t156.5 11q150 0 279.5 -49.5t225 -147t150 -241.5t54.5 -333q0 -147 -48 -277t-137.5 -226.5t-217.5 -152.5t-289 -56zM697 207q88 0 158 26.5t121 76t82.5 119t43.5 156.5h-771q0 -83 24.5 -152.5t71.5 -119.5t115 -78t155 -28zM599 1667q0 -27 -11 -51t-29.5 -42 t-43.5 -28t-53 -10q-26 0 -49.5 10t-41.5 28t-29 42t-11 51t11 51.5t29 43t41.5 29.5t49.5 11q28 0 53 -11t43.5 -29.5t29.5 -43t11 -51.5zM1039 1667q0 -27 -10.5 -51t-29 -42t-43 -28t-51.5 -10q-28 0 -52.5 10t-42.5 28t-28.5 42t-10.5 51t10.5 51.5t28.5 43t42.5 29.5 t52.5 11q27 0 51.5 -11t43 -29.5t29 -43t10.5 -51.5z" />
<glyph unicode="&#x4db;" horiz-adv-x="1068" d="M63 0zM508 -15q-97 0 -178.5 31t-141 90.5t-92.5 146t-33 197.5q0 28 2.5 46.5t9 29t17.5 15t28 4.5h636q-11 157 -85.5 231.5t-195.5 74.5q-60 0 -104 -14t-76.5 -31t-57.5 -31t-47 -14q-30 0 -45 23l-71 90q41 48 91.5 80.5t106 52t113 27.5t111.5 8q107 0 199.5 -35.5 t160.5 -105t107 -172t39 -236.5q0 -105 -34 -197.5t-98 -161.5t-155.5 -109t-206.5 -40zM504 162q106 0 167.5 61t79.5 173h-466q0 -48 13.5 -90.5t40.5 -74.5t68 -50.5t97 -18.5zM469 1292q0 -28 -11 -52.5t-30.5 -42.5t-45 -28.5t-54.5 -10.5q-27 0 -51.5 10.5t-43 28.5 t-29.5 42.5t-11 52.5q0 29 11 54.5t29.5 44.5t43 30t51.5 11q29 0 54.5 -11t45 -30t30.5 -44.5t11 -54.5zM873 1292q0 -28 -11 -52.5t-29.5 -42.5t-44 -28.5t-54.5 -10.5q-28 0 -53 10.5t-43.5 28.5t-29.5 42.5t-11 52.5q0 29 11 54.5t29.5 44.5t43.5 30t53 11 q29 0 54.5 -11t44 -30t29.5 -44.5t11 -54.5z" />
<glyph unicode="&#x4dc;" horiz-adv-x="2136" d="M2 0zM255 1446q41 0 75.5 -20t55.5 -56l296 -458q27 -44 59 -58t73 -14h127v606h253v-606h128q41 0 72.5 14t59.5 58l295 458q21 36 55.5 56t76.5 20h212l-373 -558q-29 -46 -60.5 -76.5t-75.5 -47.5q53 -18 95 -54t77 -97l377 -613h-179q-59 0 -100.5 25.5t-66.5 67.5 l-296 463q-27 44 -60 62t-84 18h-153v-636h-253v636h-153q-50 0 -83.5 -18t-59.5 -62l-296 -463q-25 -42 -67 -67.5t-100 -25.5h-180l378 613q35 61 76.5 97t94.5 54q-45 17 -76 47.5t-60 76.5l-373 558h213zM983 1667q0 -27 -11 -51t-29.5 -42t-43.5 -28t-53 -10 q-26 0 -49.5 10t-41.5 28t-29 42t-11 51t11 51.5t29 43t41.5 29.5t49.5 11q28 0 53 -11t43.5 -29.5t29.5 -43t11 -51.5zM1423 1667q0 -27 -10.5 -51t-29 -42t-43 -28t-51.5 -10q-28 0 -52.5 10t-42.5 28t-28.5 42t-10.5 51t10.5 51.5t28.5 43t42.5 29.5t52.5 11 q27 0 51.5 -11t43 -29.5t29 -43t10.5 -51.5z" />
<glyph unicode="&#x4dd;" horiz-adv-x="1634" d="M16 0zM518 666q19 -32 44.5 -47.5t67.5 -15.5h68v423h239v-423h63q42 0 69.5 15.5t46.5 47.5l174 295q16 30 44.5 47.5t63.5 17.5h194l-240 -381q-24 -40 -50 -64.5t-63 -38.5q50 -15 82 -44.5t57 -74.5l241 -423h-171q-66 0 -100 20t-54 65l-152 284q-19 37 -50.5 55 t-73.5 18h-81v-442h-239v442h-82q-41 0 -73 -18t-51 -55l-152 -284q-20 -45 -54 -65t-100 -20h-170l240 423q25 45 57 74.5t82 44.5q-37 14 -63 38.5t-50 64.5l-240 381h195q34 0 62.5 -17.5t44.5 -47.5zM753 1292q0 -28 -11 -52.5t-30.5 -42.5t-45 -28.5t-54.5 -10.5 q-27 0 -51.5 10.5t-43 28.5t-29.5 42.5t-11 52.5q0 29 11 54.5t29.5 44.5t43 30t51.5 11q29 0 54.5 -11t45 -30t30.5 -44.5t11 -54.5zM1157 1292q0 -28 -11 -52.5t-29.5 -42.5t-44 -28.5t-54.5 -10.5q-28 0 -53 10.5t-43.5 28.5t-29.5 42.5t-11 52.5q0 29 11 54.5t29.5 44.5 t43.5 30t53 11q29 0 54.5 -11t44 -30t29.5 -44.5t11 -54.5z" />
<glyph unicode="&#x4de;" horiz-adv-x="1163" d="M23 0zM1043 1083q0 -102 -47 -185t-140 -134q50 -24 91.5 -56.5t71 -72t46 -85.5t16.5 -97q0 -98 -36.5 -183t-106 -148t-170.5 -99.5t-231 -36.5q-76 0 -148.5 13.5t-138.5 38.5t-124 60t-103 78l79 129q11 14 26.5 23.5t34.5 9.5q26 0 57 -20.5t75 -45.5t104.5 -45.5 t145.5 -20.5q135 0 209 58t74 178q0 49 -20 88t-57 66t-89.5 41.5t-116.5 14.5h-204l-1 216h186q125 0 195.5 49.5t70.5 143.5q0 83 -66.5 132.5t-192.5 49.5q-73 0 -125.5 -16t-91 -34.5t-65 -34.5t-47.5 -16q-20 0 -34 10t-26 30l-66 128q84 72 199.5 112t256.5 40 q117 0 211.5 -28t160.5 -78.5t101.5 -120t35.5 -152.5zM472 1667q0 -27 -11 -51t-29.5 -42t-43.5 -28t-53 -10q-26 0 -49.5 10t-41.5 28t-29 42t-11 51t11 51.5t29 43t41.5 29.5t49.5 11q28 0 53 -11t43.5 -29.5t29.5 -43t11 -51.5zM912 1667q0 -27 -10.5 -51t-29 -42 t-43 -28t-51.5 -10q-28 0 -52.5 10t-42.5 28t-28.5 42t-10.5 51t10.5 51.5t28.5 43t42.5 29.5t52.5 11q27 0 51.5 -11t43 -29.5t29 -43t10.5 -51.5z" />
<glyph unicode="&#x4df;" horiz-adv-x="900" d="M36 0zM62 915q58 56 144 91.5t206 35.5q95 0 169 -22.5t124.5 -61t77 -88t26.5 -103.5q0 -30 -8.5 -61.5t-28.5 -61t-52 -55.5t-79 -44q85 -31 136.5 -92.5t51.5 -153.5q0 -75 -34.5 -133t-91.5 -98.5t-130.5 -61.5t-151.5 -21q-44 0 -94.5 8t-101.5 27.5t-100 52 t-89 80.5l71 90q15 23 45 23q23 0 44 -14.5t48.5 -32t65.5 -32t95 -14.5q93 0 141 42t48 105q0 62 -49.5 97t-160.5 35h-116v161h116q97 0 149 34t52 90q0 51 -45.5 84t-134.5 33q-53 0 -90 -11t-63.5 -23.5t-44.5 -23.5t-34 -11q-17 0 -29 6.5t-26 28.5zM364 1292 q0 -28 -11 -52.5t-30.5 -42.5t-45 -28.5t-54.5 -10.5q-27 0 -51.5 10.5t-43 28.5t-29.5 42.5t-11 52.5q0 29 11 54.5t29.5 44.5t43 30t51.5 11q29 0 54.5 -11t45 -30t30.5 -44.5t11 -54.5zM768 1292q0 -28 -11 -52.5t-29.5 -42.5t-44 -28.5t-54.5 -10.5q-28 0 -53 10.5 t-43.5 28.5t-29.5 42.5t-11 52.5q0 29 11 54.5t29.5 44.5t43.5 30t53 11q29 0 54.5 -11t44 -30t29.5 -44.5t11 -54.5z" />
<glyph unicode="&#x4e0;" horiz-adv-x="1183" d="M1064 1446v-99q0 -22 -7 -46.5t-33 -50.5l-364 -349q118 -8 202.5 -42t138.5 -87.5t79.5 -123.5t25.5 -150q0 -122 -48.5 -217t-129 -160.5t-184.5 -100t-216 -34.5q-143 0 -271.5 57.5t-223.5 175.5l105 117q14 16 25.5 18t19.5 2q14 0 26.5 -5t36.5 -25q16 -16 40 -36 t58 -37.5t79.5 -29.5t103.5 -12q76 0 133 22.5t95 60.5t57 88t19 105q0 49 -17 90t-54.5 70.5t-97.5 46t-147 16.5h-194v115q0 20 8 42t30 42l333 323h-607v214h979z" />
<glyph unicode="&#x4e1;" horiz-adv-x="905" d="M0 0zM167 403q0 40 33 65l299 369h-462v189h757v-102q0 -33 -14 -59.5t-34 -46.5l-282 -333q98 -12 170 -44t119 -81.5t70 -114.5t23 -142q0 -94 -32.5 -177t-97 -144.5t-160 -97.5t-221.5 -36q-64 0 -117 9.5t-97.5 26t-80.5 39.5t-66 50l57 94q21 35 62 35 q24 0 45 -11.5t47.5 -25t63 -25t90.5 -11.5q124 0 194.5 66.5t70.5 191.5q0 53 -14 97t-44.5 75.5t-78.5 49t-115 17.5h-185v77z" />
<glyph unicode="&#x4e2;" horiz-adv-x="1541" d="M161 0zM1059 1363q9 15 21.5 30t27.5 26.5t32.5 19t37.5 7.5h202v-1446h-270v906q0 51 2.5 106.5t10.5 118.5q-20 -55 -43 -102.5t-45 -83.5l-553 -862q-9 -15 -21.5 -30t-27.5 -26.5t-33 -19t-37 -7.5h-202v1446h270v-906q0 -51 -3 -108t-11 -120q20 56 43.5 104 t46.5 85zM483 1712h600v-142h-600v142z" />
<glyph unicode="&#x4e3;" horiz-adv-x="1166" d="M122 0zM122 -1v1026h247v-599q0 -23 -2.5 -50.5t-6.5 -55.5q22 49 44 81q1 2 19 27t46.5 65t64.5 90.5t73 103.5q87 123 198 278q14 22 37 41.5t52 19.5h150v-1026h-247v599q0 23 2 50t7 55q-11 -23 -22 -43.5t-22 -36.5q-2 -2 -20 -27.5t-46.5 -65.5t-64.5 -90.5 t-73 -102.5q-87 -123 -197 -278q-14 -21 -36.5 -41t-51.5 -20h-151zM298 1372h598v-158h-598v158z" />
<glyph unicode="&#x4e4;" horiz-adv-x="1541" d="M161 0zM1059 1363q9 15 21.5 30t27.5 26.5t32.5 19t37.5 7.5h202v-1446h-270v906q0 51 2.5 106.5t10.5 118.5q-20 -55 -43 -102.5t-45 -83.5l-553 -862q-9 -15 -21.5 -30t-27.5 -26.5t-33 -19t-37 -7.5h-202v1446h270v-906q0 -51 -3 -108t-11 -120q20 56 43.5 104 t46.5 85zM697 1667q0 -27 -11 -51t-29.5 -42t-43.5 -28t-53 -10q-26 0 -49.5 10t-41.5 28t-29 42t-11 51t11 51.5t29 43t41.5 29.5t49.5 11q28 0 53 -11t43.5 -29.5t29.5 -43t11 -51.5zM1137 1667q0 -27 -10.5 -51t-29 -42t-43 -28t-51.5 -10q-28 0 -52.5 10t-42.5 28 t-28.5 42t-10.5 51t10.5 51.5t28.5 43t42.5 29.5t52.5 11q27 0 51.5 -11t43 -29.5t29 -43t10.5 -51.5z" />
<glyph unicode="&#x4e5;" horiz-adv-x="1166" d="M122 0zM122 -1v1026h247v-599q0 -23 -2.5 -50.5t-6.5 -55.5q22 49 44 81q1 2 19 27t46.5 65t64.5 90.5t73 103.5q87 123 198 278q14 22 37 41.5t52 19.5h150v-1026h-247v599q0 23 2 50t7 55q-11 -23 -22 -43.5t-22 -36.5q-2 -2 -20 -27.5t-46.5 -65.5t-64.5 -90.5 t-73 -102.5q-87 -123 -197 -278q-14 -21 -36.5 -41t-51.5 -20h-151zM533 1292q0 -28 -11 -52.5t-30.5 -42.5t-45 -28.5t-54.5 -10.5q-27 0 -51.5 10.5t-43 28.5t-29.5 42.5t-11 52.5q0 29 11 54.5t29.5 44.5t43 30t51.5 11q29 0 54.5 -11t45 -30t30.5 -44.5t11 -54.5z M937 1292q0 -28 -11 -52.5t-29.5 -42.5t-44 -28.5t-54.5 -10.5q-28 0 -53 10.5t-43.5 28.5t-29.5 42.5t-11 52.5q0 29 11 54.5t29.5 44.5t43.5 30t53 11q29 0 54.5 -11t44 -30t29.5 -44.5t11 -54.5z" />
<glyph unicode="&#x4e6;" horiz-adv-x="1616" d="M75 0zM1540 723q0 -159 -52.5 -294.5t-148.5 -234.5t-231 -154.5t-300 -55.5q-164 0 -299 55.5t-231.5 154.5t-149.5 234.5t-53 294.5t53 294.5t149.5 234.5t231.5 154.5t299 55.5q110 0 207 -25.5t178 -72t145.5 -113t109.5 -148.5t68.5 -178t23.5 -202zM1265 723 q0 119 -32 213.5t-91 160.5t-143.5 101t-190.5 35t-190.5 -35t-144 -101t-91.5 -160.5t-32 -213.5t32 -213.5t91.5 -160t144 -100.5t190.5 -35t190.5 35t143.5 100.5t91 160t32 213.5zM724 1667q0 -27 -11 -51t-29.5 -42t-43.5 -28t-53 -10q-26 0 -49.5 10t-41.5 28t-29 42 t-11 51t11 51.5t29 43t41.5 29.5t49.5 11q28 0 53 -11t43.5 -29.5t29.5 -43t11 -51.5zM1164 1667q0 -27 -10.5 -51t-29 -42t-43 -28t-51.5 -10q-28 0 -52.5 10t-42.5 28t-28.5 42t-10.5 51t10.5 51.5t28.5 43t42.5 29.5t52.5 11q27 0 51.5 -11t43 -29.5t29 -43t10.5 -51.5z " />
<glyph unicode="&#x4e7;" horiz-adv-x="1149" d="M67 0zM576 1042q114 0 207.5 -37t160 -105t102.5 -166t36 -219q0 -122 -36 -220t-102.5 -167t-160 -106t-207.5 -37q-115 0 -209 37t-160.5 106t-103 167t-36.5 220q0 121 36.5 219t103 166t160.5 105t209 37zM576 175q128 0 189.5 86t61.5 252t-61.5 253t-189.5 87 q-130 0 -192.5 -87.5t-62.5 -252.5t62.5 -251.5t192.5 -86.5zM512 1292q0 -28 -11 -52.5t-30.5 -42.5t-45 -28.5t-54.5 -10.5q-27 0 -51.5 10.5t-43 28.5t-29.5 42.5t-11 52.5q0 29 11 54.5t29.5 44.5t43 30t51.5 11q29 0 54.5 -11t45 -30t30.5 -44.5t11 -54.5zM916 1292 q0 -28 -11 -52.5t-29.5 -42.5t-44 -28.5t-54.5 -10.5q-28 0 -53 10.5t-43.5 28.5t-29.5 42.5t-11 52.5q0 29 11 54.5t29.5 44.5t43.5 30t53 11q29 0 54.5 -11t44 -30t29.5 -44.5t11 -54.5z" />
<glyph unicode="&#x4e8;" horiz-adv-x="1616" d="M1540 723q0 -159 -52.5 -294.5t-148.5 -234.5t-231 -154.5t-300 -55.5q-164 0 -299 55.5t-231.5 154.5t-149.5 234.5t-53 294.5t53 294.5t149.5 234.5t231.5 154.5t299 55.5q110 0 207 -25.5t178 -72t145.5 -113t109.5 -148.5t68.5 -178t23.5 -202zM808 214 q95 0 173.5 28.5t136.5 82.5t94.5 132t47.5 177h-905q11 -99 47.5 -177t94.5 -132t136.5 -82.5t174.5 -28.5zM808 1233q-93 0 -170 -27t-134.5 -78.5t-95 -125.5t-51.5 -168h900q-14 94 -51 168t-94.5 125.5t-134 78.5t-169.5 27z" />
<glyph unicode="&#x4e9;" horiz-adv-x="1149" d="M576 1042q114 0 207.5 -37t160 -105t102.5 -166t36 -219q0 -122 -36 -220t-102.5 -167t-160 -106t-207.5 -37q-115 0 -209 37t-160.5 106t-103 167t-36.5 220q0 121 36.5 219t103 166t160.5 105t209 37zM576 175q116 0 177 71t72 210h-502q10 -139 72 -210t181 -71z M576 853q-115 0 -177 -68t-75 -199h499q-13 131 -74 199t-173 68z" />
<glyph unicode="&#x4ea;" horiz-adv-x="1616" d="M75 0zM1540 723q0 -159 -52.5 -294.5t-148.5 -234.5t-231 -154.5t-300 -55.5q-164 0 -299 55.5t-231.5 154.5t-149.5 234.5t-53 294.5t53 294.5t149.5 234.5t231.5 154.5t299 55.5q110 0 207 -25.5t178 -72t145.5 -113t109.5 -148.5t68.5 -178t23.5 -202zM808 214 q95 0 173.5 28.5t136.5 82.5t94.5 132t47.5 177h-905q11 -99 47.5 -177t94.5 -132t136.5 -82.5t174.5 -28.5zM808 1233q-93 0 -170 -27t-134.5 -78.5t-95 -125.5t-51.5 -168h900q-14 94 -51 168t-94.5 125.5t-134 78.5t-169.5 27zM727 1667q0 -27 -11 -51t-29.5 -42 t-43.5 -28t-53 -10q-26 0 -49.5 10t-41.5 28t-29 42t-11 51t11 51.5t29 43t41.5 29.5t49.5 11q28 0 53 -11t43.5 -29.5t29.5 -43t11 -51.5zM1167 1667q0 -27 -10.5 -51t-29 -42t-43 -28t-51.5 -10q-28 0 -52.5 10t-42.5 28t-28.5 42t-10.5 51t10.5 51.5t28.5 43t42.5 29.5 t52.5 11q27 0 51.5 -11t43 -29.5t29 -43t10.5 -51.5z" />
<glyph unicode="&#x4eb;" horiz-adv-x="1149" d="M67 0zM576 1042q114 0 207.5 -37t160 -105t102.5 -166t36 -219q0 -122 -36 -220t-102.5 -167t-160 -106t-207.5 -37q-115 0 -209 37t-160.5 106t-103 167t-36.5 220q0 121 36.5 219t103 166t160.5 105t209 37zM576 175q116 0 177 71t72 210h-502q10 -139 72 -210t181 -71 zM576 853q-115 0 -177 -68t-75 -199h499q-13 131 -74 199t-173 68zM512 1292q0 -28 -11 -52.5t-30.5 -42.5t-45 -28.5t-54.5 -10.5q-27 0 -51.5 10.5t-43 28.5t-29.5 42.5t-11 52.5q0 29 11 54.5t29.5 44.5t43 30t51.5 11q29 0 54.5 -11t45 -30t30.5 -44.5t11 -54.5z M916 1292q0 -28 -11 -52.5t-29.5 -42.5t-44 -28.5t-54.5 -10.5q-28 0 -53 10.5t-43.5 28.5t-29.5 42.5t-11 52.5q0 29 11 54.5t29.5 44.5t43.5 30t53 11q29 0 54.5 -11t44 -30t29.5 -44.5t11 -54.5z" />
<glyph unicode="&#x4ec;" horiz-adv-x="1336" d="M37 0zM182 341q22 0 45 -20q33 -30 66.5 -50.5t71 -33.5t82 -19t99.5 -6q82 0 155.5 28t131.5 82t96.5 132.5t50.5 179.5h-670v200h667q-14 95 -51 169.5t-93 125.5t-128.5 77.5t-157.5 26.5q-86 0 -142 -18t-93.5 -39t-62.5 -39t-47 -18t-34.5 9t-21.5 21l-89 125 q85 84 207.5 136t280.5 52q159 0 290.5 -54.5t226 -152.5t146.5 -233.5t52 -298.5q0 -161 -49 -297t-139.5 -234t-219.5 -153t-289 -55q-179 0 -308.5 58t-217.5 167l107 115q16 17 38 17zM489 1667q0 -27 -11 -51t-29.5 -42t-43.5 -28t-53 -10q-26 0 -49.5 10t-41.5 28 t-29 42t-11 51t11 51.5t29 43t41.5 29.5t49.5 11q28 0 53 -11t43.5 -29.5t29.5 -43t11 -51.5zM929 1667q0 -27 -10.5 -51t-29 -42t-43 -28t-51.5 -10q-28 0 -52.5 10t-42.5 28t-28.5 42t-10.5 51t10.5 51.5t28.5 43t42.5 29.5t52.5 11q27 0 51.5 -11t43 -29.5t29 -43 t10.5 -51.5z" />
<glyph unicode="&#x4ed;" horiz-adv-x="974" d="M42 0zM52 899q69 69 155.5 106t201.5 37q121 0 214 -40t156.5 -110.5t96 -167t32.5 -209.5q0 -126 -36.5 -224.5t-99.5 -166.5t-147 -103.5t-179 -35.5q-54 0 -109 8t-106.5 27.5t-99.5 52t-89 80.5l67 83q16 22 46 22q15 0 28 -6.5t27.5 -15.5t31 -20.5t38.5 -20.5 t51 -15.5t69 -6.5q103 0 171.5 68.5t85.5 198.5h-435v168h433q-19 116 -85 181t-176 65q-51 0 -86 -10.5t-60.5 -23t-44 -23t-37.5 -10.5q-20 0 -30.5 8t-21.5 22zM379 1292q0 -28 -11 -52.5t-30.5 -42.5t-45 -28.5t-54.5 -10.5q-27 0 -51.5 10.5t-43 28.5t-29.5 42.5 t-11 52.5q0 29 11 54.5t29.5 44.5t43 30t51.5 11q29 0 54.5 -11t45 -30t30.5 -44.5t11 -54.5zM783 1292q0 -28 -11 -52.5t-29.5 -42.5t-44 -28.5t-54.5 -10.5q-28 0 -53 10.5t-43.5 28.5t-29.5 42.5t-11 52.5q0 29 11 54.5t29.5 44.5t43.5 30t53 11q29 0 54.5 -11t44 -30 t29.5 -44.5t11 -54.5z" />
<glyph unicode="&#x4ee;" horiz-adv-x="1289" d="M336 204q22 0 45 4t45.5 16t43.5 34t39 58l57 115l-580 1015h252q35 0 56 -17t35 -43l281 -530q46 -85 73 -175q13 45 30 88t38 87l245 530q11 22 33 41t56 19h223l-584 -1245q-31 -65 -66 -107t-75.5 -66t-87 -33.5t-99.5 -9.5q-72 0 -105 13t-33 38v168h78zM349 1712 h600v-142h-600v142z" />
<glyph unicode="&#x4ef;" horiz-adv-x="1055" d="M6 0zM495 -282q-11 -26 -28.5 -39.5t-53.5 -13.5h-184l192 411l-415 950h217q29 0 45.5 -14t24.5 -32l218 -532q20 -55 33 -109q8 28 17.5 55.5t20.5 54.5l206 531q8 20 26.5 33t41.5 13h198zM254 1372h598v-158h-598v158z" />
<glyph unicode="&#x4f0;" horiz-adv-x="1289" d="M336 204q22 0 45 4t45.5 16t43.5 34t39 58l57 115l-580 1015h252q35 0 56 -17t35 -43l281 -530q46 -85 73 -175q13 45 30 88t38 87l245 530q11 22 33 41t56 19h223l-584 -1245q-31 -65 -66 -107t-75.5 -66t-87 -33.5t-99.5 -9.5q-72 0 -105 13t-33 38v168h78zM563 1667 q0 -27 -11 -51t-29.5 -42t-43.5 -28t-53 -10q-26 0 -49.5 10t-41.5 28t-29 42t-11 51t11 51.5t29 43t41.5 29.5t49.5 11q28 0 53 -11t43.5 -29.5t29.5 -43t11 -51.5zM1003 1667q0 -27 -10.5 -51t-29 -42t-43 -28t-51.5 -10q-28 0 -52.5 10t-42.5 28t-28.5 42t-10.5 51 t10.5 51.5t28.5 43t42.5 29.5t52.5 11q27 0 51.5 -11t43 -29.5t29 -43t10.5 -51.5z" />
<glyph unicode="&#x4f1;" horiz-adv-x="1055" d="M6 0zM495 -282q-11 -26 -28.5 -39.5t-53.5 -13.5h-184l192 411l-415 950h217q29 0 45.5 -14t24.5 -32l218 -532q20 -55 33 -109q8 28 17.5 55.5t20.5 54.5l206 531q8 20 26.5 33t41.5 13h198zM489 1292q0 -28 -11 -52.5t-30.5 -42.5t-45 -28.5t-54.5 -10.5 q-27 0 -51.5 10.5t-43 28.5t-29.5 42.5t-11 52.5q0 29 11 54.5t29.5 44.5t43 30t51.5 11q29 0 54.5 -11t45 -30t30.5 -44.5t11 -54.5zM893 1292q0 -28 -11 -52.5t-29.5 -42.5t-44 -28.5t-54.5 -10.5q-28 0 -53 10.5t-43.5 28.5t-29.5 42.5t-11 52.5q0 29 11 54.5t29.5 44.5 t43.5 30t53 11q29 0 54.5 -11t44 -30t29.5 -44.5t11 -54.5z" />
<glyph unicode="&#x4f2;" horiz-adv-x="1289" d="M336 204q22 0 45 4t45.5 16t43.5 34t39 58l57 115l-580 1015h252q35 0 56 -17t35 -43l281 -530q46 -85 73 -175q13 45 30 88t38 87l245 530q11 22 33 41t56 19h223l-584 -1245q-31 -65 -66 -107t-75.5 -66t-87 -33.5t-99.5 -9.5q-72 0 -105 13t-33 38v168h78zM787 1824 l-206 -239q-20 -17 -37 -26.5t-45 -9.5h-117l138 222q16 25 41 39t66 14h160zM1184 1824l-258 -239q-20 -18 -40.5 -27t-49.5 -9h-132l183 222q20 24 46 38.5t67 14.5h184z" />
<glyph unicode="&#x4f3;" horiz-adv-x="1055" d="M6 0zM495 -282q-11 -26 -28.5 -39.5t-53.5 -13.5h-184l192 411l-415 950h217q29 0 45.5 -14t24.5 -32l218 -532q20 -55 33 -109q8 28 17.5 55.5t20.5 54.5l206 531q8 20 26.5 33t41.5 13h198zM685 1462l-199 -261q-16 -20 -35 -27.5t-47 -7.5h-101l126 243 q14 26 34.5 39.5t60.5 13.5h161zM1034 1462l-252 -261q-18 -20 -35.5 -27.5t-46.5 -7.5h-116l177 243q9 13 17.5 22.5t19 16.5t24.5 10.5t34 3.5h178z" />
<glyph unicode="&#x4f4;" horiz-adv-x="1352" d="M78 0zM1191 0h-271v579q-117 -29 -224.5 -43t-201 -9t-170.5 31t-131.5 79t-84.5 134.5t-30 197.5v477h271v-477q0 -84 29 -140t95.5 -82t176 -20.5t270.5 43.5v676h271v-1446zM557 1667q0 -27 -11 -51t-29.5 -42t-43.5 -28t-53 -10q-26 0 -49.5 10t-41.5 28t-29 42 t-11 51t11 51.5t29 43t41.5 29.5t49.5 11q28 0 53 -11t43.5 -29.5t29.5 -43t11 -51.5zM997 1667q0 -27 -10.5 -51t-29 -42t-43 -28t-51.5 -10q-28 0 -52.5 10t-42.5 28t-28.5 42t-10.5 51t10.5 51.5t28.5 43t42.5 29.5t52.5 11q27 0 51.5 -11t43 -29.5t29 -43t10.5 -51.5z " />
<glyph unicode="&#x4f5;" horiz-adv-x="1054" d="M69 0zM932 0h-247v403q-133 -32 -245.5 -36.5t-195 27t-129 102t-46.5 189.5v341h247v-303q0 -63 20.5 -101.5t65 -56t114.5 -14.5t169 24v451h247v-1026zM445 1292q0 -28 -11 -52.5t-30.5 -42.5t-45 -28.5t-54.5 -10.5q-27 0 -51.5 10.5t-43 28.5t-29.5 42.5t-11 52.5 q0 29 11 54.5t29.5 44.5t43 30t51.5 11q29 0 54.5 -11t45 -30t30.5 -44.5t11 -54.5zM849 1292q0 -28 -11 -52.5t-29.5 -42.5t-44 -28.5t-54.5 -10.5q-28 0 -53 10.5t-43.5 28.5t-29.5 42.5t-11 52.5q0 29 11 54.5t29.5 44.5t43.5 30t53 11q29 0 54.5 -11t44 -30t29.5 -44.5 t11 -54.5z" />
<glyph unicode="&#x4f6;" horiz-adv-x="1086" d="M1053 1239h-622v-1032h207v-474q0 -35 -23.5 -56t-61.5 -21h-161v344h-231v1446h892v-207z" />
<glyph unicode="&#x4f7;" horiz-adv-x="845" d="M816 1026v-183h-448v-843h1v183h188v-454q0 -34 -19.5 -54t-50.5 -20h-154v345h-212v1026h695z" />
<glyph unicode="&#x4f8;" horiz-adv-x="1838" d="M161 0zM430 1446v-598h236q141 0 241.5 -31t164 -84.5t93.5 -126t30 -155.5q0 -102 -35.5 -185t-103.5 -142.5t-166.5 -91.5t-224.5 -32h-504v1446h269zM430 638v-428h235q75 0 125.5 16.5t81.5 45.5t44 68t13 84q0 49 -13 89t-44 67.5t-81 42.5t-125 15h-236zM1676 0 h-270v1446h270v-1446zM833 1667q0 -27 -11 -51t-29.5 -42t-43.5 -28t-53 -10q-26 0 -49.5 10t-41.5 28t-29 42t-11 51t11 51.5t29 43t41.5 29.5t49.5 11q28 0 53 -11t43.5 -29.5t29.5 -43t11 -51.5zM1273 1667q0 -27 -10.5 -51t-29 -42t-43 -28t-51.5 -10q-28 0 -52.5 10 t-42.5 28t-28.5 42t-10.5 51t10.5 51.5t28.5 43t42.5 29.5t52.5 11q27 0 51.5 -11t43 -29.5t29 -43t10.5 -51.5z" />
<glyph unicode="&#x4f9;" horiz-adv-x="1483" d="M122 0zM357 1026v-380h182q107 0 181 -26t120 -70t66.5 -101.5t20.5 -120.5q0 -72 -25.5 -132.5t-75 -104t-121 -67.5t-163.5 -24h-420v1026h235zM1361 1026v-1026h-247v1026h247zM357 470v-293h184q84 0 125.5 42t41.5 108q0 28 -9.5 54t-29.5 46t-52 31.5t-77 11.5 h-183zM658 1292q0 -28 -11 -52.5t-30.5 -42.5t-45 -28.5t-54.5 -10.5q-27 0 -51.5 10.5t-43 28.5t-29.5 42.5t-11 52.5q0 29 11 54.5t29.5 44.5t43 30t51.5 11q29 0 54.5 -11t45 -30t30.5 -44.5t11 -54.5zM1062 1292q0 -28 -11 -52.5t-29.5 -42.5t-44 -28.5t-54.5 -10.5 q-28 0 -53 10.5t-43.5 28.5t-29.5 42.5t-11 52.5q0 29 11 54.5t29.5 44.5t43.5 30t53 11q29 0 54.5 -11t44 -30t29.5 -44.5t11 -54.5z" />
<glyph unicode="&#x4fa;" horiz-adv-x="1196" d="M533 0h-262v641h-237v200h237v605h892v-207h-622v-398h343v-200h-343v-434h207v-276q0 -64 -16 -117.5t-51 -92t-91.5 -60t-137.5 -21.5q-44 0 -84.5 9.5t-89.5 30.5l19 99q8 29 24 38t31 9t35.5 -6t49.5 -6q55 0 75.5 36.5t20.5 104.5v45z" />
<glyph unicode="&#x4fb;" horiz-adv-x="933" d="M211 600v426h695v-183h-448v-243h202v-175h-202v-242h189v-209q0 -63 -16 -123.5t-51 -107t-91.5 -75t-137.5 -28.5q-44 0 -84.5 9.5t-89.5 30.5l19 99q8 29 24 38t31 9q14 0 35 -6t50 -6q54 0 75 36.5t21 104.5v45h-221v425h-171v175h171z" />
<glyph unicode="&#x4fc;" horiz-adv-x="1413" d="M482 744l-461 702h268q28 0 40.5 -7.5t23.5 -24.5l328 -530q5 12 11 24.5t14 25.5l302 475q11 19 24 28t33 9h257l-465 -691l348 -550h194v-231q0 -63 -16 -123.5t-51 -107t-91.5 -75t-137.5 -28.5q-44 0 -84.5 9.5t-88.5 30.5l19 99q8 29 24 38t30 9q15 0 36 -6t50 -6 q54 0 74.5 36.5t20.5 104.5v45h-117q-28 0 -44.5 14t-26.5 32l-335 554q-7 -22 -19 -42l-321 -512q-12 -17 -27.5 -31.5t-40.5 -14.5h-251z" />
<glyph unicode="&#x4fd;" horiz-adv-x="1123" d="M356 528l-337 498h237q28 0 40.5 -7.5t22.5 -24.5l215 -343q5 17 12.5 34t18.5 34l174 270q22 37 57 37h226l-338 -486l233 -357h186v-209q0 -63 -16 -123.5t-51 -107t-91.5 -75t-137.5 -28.5q-44 0 -84.5 9.5t-89.5 30.5l19 99q8 29 24 38t30 9q15 0 36 -6t50 -6 q54 0 75 36.5t21 104.5v45h-89q-28 0 -44.5 14t-26.5 32l-218 357q-9 -36 -25 -60l-192 -297q-11 -17 -27 -31.5t-41 -14.5h-220z" />
<glyph unicode="&#x4fe;" horiz-adv-x="1435" d="M468 838l-399 608h269q27 0 40 -7.5t23 -24.5l329 -532q5 13 11 25.5t14 26.5l301 475q22 37 57 37h257l-410 -608h338v-199h-319l405 -639h-269q-27 0 -44 14t-27 32l-335 554q-7 -22 -19 -42l-321 -512q-11 -17 -27 -31.5t-41 -14.5h-251l413 639h-327v199h332z" />
<glyph unicode="&#x4ff;" horiz-adv-x="1110" d="M99 623h227l-273 403h237q28 0 40.5 -7.5t22.5 -24.5l215 -343q5 17 12.5 34t18.5 34l174 270q22 37 57 37h226l-280 -403h234v-176h-231l291 -447h-237q-28 0 -44.5 14t-26.5 32l-218 357q-9 -36 -25 -60l-192 -297q-11 -17 -27 -31.5t-41 -14.5h-220l297 447h-237v176z " />
<glyph unicode="&#x2000;" horiz-adv-x="958" />
<glyph unicode="&#x2001;" horiz-adv-x="1916" />
<glyph unicode="&#x2002;" horiz-adv-x="958" />
<glyph unicode="&#x2003;" horiz-adv-x="1916" />
<glyph unicode="&#x2004;" horiz-adv-x="638" />
<glyph unicode="&#x2005;" horiz-adv-x="479" />
<glyph unicode="&#x2006;" horiz-adv-x="319" />
<glyph unicode="&#x2007;" horiz-adv-x="319" />
<glyph unicode="&#x2008;" horiz-adv-x="239" />
<glyph unicode="&#x2009;" horiz-adv-x="383" />
<glyph unicode="&#x200a;" horiz-adv-x="106" />
<glyph unicode="&#x2010;" horiz-adv-x="746" d="M114 707h518v-206h-518v206z" />
<glyph unicode="&#x2011;" horiz-adv-x="746" d="M114 707h518v-206h-518v206z" />
<glyph unicode="&#x2012;" horiz-adv-x="746" d="M114 707h518v-206h-518v206z" />
<glyph unicode="&#x2013;" d="M175 687h810v-175h-810v175z" />
<glyph unicode="&#x2014;" horiz-adv-x="1596" d="M119 687h1357v-175h-1357v175z" />
<glyph unicode="&#x2018;" horiz-adv-x="441" d="M158 929q-48 79 -65 165t-3 169t58.5 159.5t119.5 137.5l77 -47q20 -13 18 -32t-13 -30q-21 -25 -40 -66t-26.5 -92t1.5 -109t45 -116q18 -29 10 -50.5t-33 -30.5z" />
<glyph unicode="&#x2019;" horiz-adv-x="441" d="M290 1543q48 -79 65 -164.5t3 -169t-58.5 -160t-119.5 -137.5l-78 47q-10 6 -14 14.5t-3.5 17t4 16.5t9.5 14q21 25 40 66t26.5 92t-2 109t-45.5 116q-17 29 -9.5 50.5t32.5 30.5z" />
<glyph unicode="&#x201a;" horiz-adv-x="436" d="M271 302q48 -79 65 -164.5t3 -169t-58.5 -160t-119.5 -137.5l-78 47q-10 6 -14 14.5t-3.5 17t4 16.5t9.5 14q21 25 40 66t26.5 92t-2 109t-45.5 116q-17 29 -9.5 50.5t32.5 30.5z" />
<glyph unicode="&#x201c;" horiz-adv-x="773" d="M76 929zM158 929q-48 79 -65 165t-3 169t58.5 159.5t119.5 137.5l77 -47q20 -13 18 -32t-13 -30q-21 -25 -40 -66t-26.5 -92t1.5 -109t45 -116q18 -29 10 -50.5t-33 -30.5zM490 929q-48 79 -65 165t-3 169t58.5 159.5t119.5 137.5l77 -47q20 -13 18 -32t-13 -30 q-21 -25 -40 -66t-26.5 -92t1.5 -109t45 -116q18 -29 10 -50.5t-33 -30.5z" />
<glyph unicode="&#x201d;" horiz-adv-x="773" d="M84 912zM290 1543q48 -79 65 -164.5t3 -169t-58.5 -160t-119.5 -137.5l-78 47q-10 6 -14 14.5t-3.5 17t4 16.5t9.5 14q21 25 40 66t26.5 92t-2 109t-45.5 116q-17 29 -9.5 50.5t32.5 30.5zM622 1543q48 -79 65 -164.5t3 -169t-58.5 -160t-119.5 -137.5l-78 47 q-10 6 -14 14.5t-3.5 17t4 16.5t9.5 14q21 25 40 66t26.5 92t-2 109t-45.5 116q-17 29 -9.5 50.5t32.5 30.5z" />
<glyph unicode="&#x201e;" horiz-adv-x="768" d="M65 0zM271 302q48 -79 65 -164.5t3 -169t-58.5 -160t-119.5 -137.5l-78 47q-10 6 -14 14.5t-3.5 17t4 16.5t9.5 14q21 25 40 66t26.5 92t-2 109t-45.5 116q-17 29 -9.5 50.5t32.5 30.5zM603 302q48 -79 65 -164.5t3 -169t-58.5 -160t-119.5 -137.5l-78 47q-10 6 -14 14.5 t-3.5 17t4 16.5t9.5 14q21 25 40 66t26.5 92t-2 109t-45.5 116q-17 29 -9.5 50.5t32.5 30.5z" />
<glyph unicode="&#x2020;" d="M81 913q0 21 7 40t21 34t36 24t52 9q63 -1 137 -17t149 -27l-31 489q26 16 59 24t69 8t69 -8t59 -24l-32 -489q37 5 74.5 12.5t74.5 14.5t71.5 12t66.5 5q30 0 52 -9t36 -24t21 -34t7 -40v-82h-403v-354l32 -800q-26 -16 -59 -24t-69 -8t-69 8t-59 24l32 800v354h-403v82 z" />
<glyph unicode="&#x2021;" d="M81 913q0 21 7 40t21 34t36 24t52 9q63 -1 137 -17t149 -27l-31 489q26 16 59 24t69 8t69 -8t59 -24l-32 -489q37 5 74.5 12.5t74.5 14.5t71.5 12t66.5 5q30 0 52 -9t36 -24t21 -34t7 -40v-82h-403v-520h403v-82q0 -21 -7 -40t-21 -34t-36 -24t-52 -9q-32 0 -66.5 5 t-71.5 11.5t-74.5 14t-74.5 12.5l32 -488q-26 -16 -59 -24t-69 -8t-69 8t-59 24l31 488q-75 -11 -149 -26.5t-137 -16.5q-30 0 -52 9t-36 24t-21 34t-7 40v82h403v520h-403v82z" />
<glyph unicode="&#x2022;" d="M144 593q0 90 34.5 169t93.5 138.5t138 93.5t169 34t170 -34t139 -93.5t93.5 -138.5t34.5 -169q0 -89 -34.5 -167.5t-93.5 -137.5t-139 -93t-170 -34t-169 34t-138 93t-93.5 137.5t-34.5 167.5z" />
<glyph unicode="&#x2026;" horiz-adv-x="1543" d="M86 0zM86 136q0 31 11.5 59t31.5 48t48 32t60 12t59.5 -12t48 -32t32.5 -48t12 -59q0 -32 -12 -59.5t-32.5 -47.5t-48 -31.5t-59.5 -11.5t-60 11.5t-48 31.5t-31.5 47.5t-11.5 59.5zM1154 136q0 31 11.5 59t31.5 48t48 32t60 12t59.5 -12t48 -32t32.5 -48t12 -59 q0 -32 -12 -59.5t-32.5 -47.5t-48 -31.5t-59.5 -11.5t-60 11.5t-48 31.5t-31.5 47.5t-11.5 59.5zM620 136q0 31 11.5 59t31.5 48t48 32t60 12t59.5 -12t48 -32t32.5 -48t12 -59q0 -32 -12 -59.5t-32.5 -47.5t-48 -31.5t-59.5 -11.5t-60 11.5t-48 31.5t-31.5 47.5t-11.5 59.5 z" />
<glyph unicode="&#x202f;" horiz-adv-x="383" />
<glyph unicode="&#x2030;" horiz-adv-x="2372" d="M745 1096q0 -82 -27.5 -148t-73.5 -112.5t-107 -71.5t-127 -25q-72 0 -133 25t-105.5 71.5t-69.5 112.5t-25 148q0 84 25 152t69.5 115t105.5 72.5t133 25.5t133.5 -25.5t106.5 -72.5t70 -115t25 -152zM555 1096q0 58 -11.5 97t-31 63t-46 34.5t-56.5 10.5t-56 -10.5 t-44.5 -34.5t-29.5 -63t-11 -97q0 -56 11 -93.5t29.5 -60.5t44.5 -33t56 -10t56.5 10t46 33t31 60.5t11.5 93.5zM1226 1407q13 15 30.5 27t49.5 12h180l-1074 -1409q-13 -16 -31 -26.5t-44 -10.5h-184zM1562 340q0 -82 -27.5 -148t-73.5 -112.5t-107 -72t-127 -25.5 q-72 0 -133 25.5t-105.5 72t-69.5 112.5t-25 148q0 84 25 152t69.5 115t105.5 72.5t133 25.5t133.5 -25.5t106 -72.5t70 -115t25.5 -152zM1371 340q0 58 -11 97t-30.5 63t-46 34.5t-56.5 10.5t-56 -10.5t-45 -34.5t-29.5 -63t-10.5 -97q0 -56 10.5 -94t29.5 -61t45 -33 t56 -10t56.5 10t46 33t30.5 61t11 94zM2302 340q0 -82 -27.5 -148t-73.5 -112.5t-106.5 -72t-126.5 -25.5q-72 0 -133 25.5t-105.5 72t-69.5 112.5t-25 148q0 84 25 152t69.5 115t105.5 72.5t133 25.5t133 -25.5t106 -72.5t70 -115t25 -152zM2112 340q0 58 -11 97t-30.5 63 t-46 34.5t-56.5 10.5t-56 -10.5t-45 -34.5t-29.5 -63t-10.5 -97q0 -56 10.5 -94t29.5 -61t45 -33t56 -10t56.5 10t46 33t30.5 61t11 94z" />
<glyph unicode="&#x2039;" horiz-adv-x="581" d="M90 522v32l256 396l81 -38q32 -14 37 -40.5t-12 -56.5l-138 -235q-14 -26 -32 -42q16 -14 32 -42l138 -236q17 -30 12 -56t-37 -40l-81 -38z" />
<glyph unicode="&#x203a;" horiz-adv-x="582" d="M492 554v-32l-256 -396l-81 38q-32 14 -37.5 40t11.5 56l139 236q8 13 15.5 23.5t16.5 18.5q-9 8 -16.5 18t-15.5 24l-139 235q-17 30 -11.5 56.5t37.5 40.5l81 38z" />
<glyph unicode="&#x2044;" horiz-adv-x="280" d="M-166 71q-26 -41 -55.5 -56t-68.5 -15h-105l834 1365q24 38 54.5 59.5t74.5 21.5h106z" />
<glyph unicode="&#x205f;" horiz-adv-x="479" />
<glyph unicode="&#x20ac;" d="M26 928h133q23 122 73 220.5t122 167.5t163 106.5t198 37.5q139 0 238 -53.5t166 -144.5l-87 -94q-10 -11 -21 -19.5t-31 -8.5q-14 0 -25.5 8t-25.5 20t-31 26t-40.5 26t-55.5 20t-76 8q-118 0 -199 -81t-113 -239h502v-76q0 -23 -18.5 -42.5t-50.5 -19.5h-450 q-1 -17 -1 -33.5v-33.5v-24t1 -23h424v-75q0 -23 -19 -42.5t-50 -19.5h-343q28 -172 107.5 -256.5t197.5 -84.5q72 0 115.5 19.5t71 43.5t46 43.5t40.5 19.5q11 0 19 -3.5t17 -13.5l107 -98q-70 -108 -178 -165.5t-251 -57.5q-118 0 -211.5 39.5t-162.5 111.5t-112.5 174 t-61.5 228h-127v137h116q-1 11 -1 23v24v33.5t1 33.5h-116v138z" />
<glyph unicode="&#x2122;" horiz-adv-x="1513" d="M985 1165q8 -18 14.5 -35.5t12.5 -35.5q5 18 12 36t16 35l133 255q14 17 24 21.5t31 4.5h147v-603h-150v302l11 96l-152 -299q-19 -37 -59 -37h-24q-41 0 -58 37l-152 300l11 -97v-302h-150v603h147q22 0 32 -4.5t24 -21.5zM580 1446v-140h-164v-463h-171v463h-163v140 h498z" />
<glyph unicode="&#x2202;" horiz-adv-x="1167" d="M307 1335q40 30 80.5 53.5t84 39t92.5 24t108 8.5q93 0 171.5 -38t134.5 -109.5t87.5 -174t31.5 -232.5q0 -207 -37.5 -377t-113.5 -291t-190.5 -187t-268.5 -66q-91 0 -167.5 30t-132.5 85.5t-87.5 134.5t-31.5 177q0 117 40 217.5t109.5 174.5t165 116t206.5 42 q98 0 167.5 -35t116.5 -99q1 20 1 39.5v37.5q0 90 -17 157.5t-47.5 112.5t-74 67.5t-97.5 22.5q-38 0 -71.5 -10t-62 -22t-51 -22t-38.5 -10q-14 0 -27 8t-27 32zM516 177q54 0 103.5 22t91.5 70t74.5 124t51.5 184q-10 38 -27 73t-43.5 62t-63.5 43t-88 16 q-74 0 -128.5 -26.5t-91 -74t-54.5 -112.5t-18 -143q0 -114 51.5 -176t141.5 -62z" />
<glyph unicode="&#x2206;" horiz-adv-x="1482" d="M62 76q0 73 32 155l513 1215h274l507 -1211q32 -79 32 -158v-77h-1358v76zM339 213h778l-325 814q-14 35 -29.5 83.5t-29.5 105.5q-14 -58 -29.5 -106t-29.5 -85z" />
<glyph unicode="&#x220f;" horiz-adv-x="1410" d="M1340 1446v-207h-167v-1574h-255v1574h-426v-1574h-254v1574h-168v207h1270z" />
<glyph unicode="&#x2211;" horiz-adv-x="1366" d="M71 1446h1208v-207h-826l514 -648v-71l-514 -648h826v-207h-1208v86q0 18 6 37.5t20 36.5l595 733l-595 728q-14 17 -20 36.5t-6 37.5v86z" />
<glyph unicode="&#x221a;" horiz-adv-x="1242" d="M246 642h-121q-38 0 -65.5 22.5t-27.5 76.5v79h352q28 0 46.5 -13t24.5 -33l102 -311q14 -42 22.5 -84t13.5 -85q6 33 13 67.5t18 70.5l386 1228q7 20 25 33t43 13h163l-550 -1706h-208z" />
<glyph unicode="&#x221e;" horiz-adv-x="1464" d="M1044 232q-55 0 -100.5 15t-83.5 40.5t-69.5 59.5t-58.5 72q-27 -38 -59 -72t-70 -59.5t-83 -40.5t-100 -15q-66 0 -126 26.5t-105.5 74t-72 113.5t-26.5 146q0 79 26.5 145t72 113.5t105.5 74t126 26.5q55 0 100 -15t83 -40.5t70 -59.5t59 -72q27 38 58.5 72t69.5 59.5 t83.5 40.5t100.5 15q66 0 126 -26.5t105 -74t71.5 -113.5t26.5 -145q0 -80 -26.5 -146t-71.5 -113.5t-105 -74t-126 -26.5zM430 431q30 0 56.5 12.5t49.5 34t44.5 51t42.5 62.5q-21 34 -42.5 63t-44.5 51t-49.5 34.5t-56.5 12.5q-29 0 -55.5 -9t-46.5 -28.5t-32 -50 t-12 -72.5q0 -43 12 -73.5t32 -50t46.5 -28.5t55.5 -9zM1035 431q29 0 55 9t46 28.5t31.5 50t11.5 73.5q0 42 -12 72.5t-31.5 50t-46 28.5t-54.5 9q-31 0 -57 -12.5t-49.5 -34.5t-45 -51t-42.5 -63q21 -33 42.5 -62.5t45 -51t49.5 -34t57 -12.5z" />
<glyph unicode="&#x222b;" horiz-adv-x="1002" d="M448 1236q13 103 47.5 178.5t86 124t119.5 72t148 23.5q36 0 77.5 -7.5t76.5 -25.5l-13 -104q-2 -13 -6 -22.5t-13 -15.5t-24 -8.5t-40 -2.5q-58 0 -97.5 -11.5t-65.5 -36.5t-40 -63.5t-20 -93.5l-129 -1186q-13 -104 -47 -179.5t-86 -124t-119.5 -72t-148.5 -23.5 q-36 0 -77.5 7.5t-76.5 26.5l13 103q2 13 6 22.5t13 15.5t24.5 9t40.5 3q58 0 97.5 11.5t65.5 36t40 63t20 93.5z" />
<glyph unicode="&#x2248;" d="M790 896q31 0 61 7t54 17.5t41.5 22t25.5 20.5l29 -157q-19 -25 -44.5 -43.5t-55 -30.5t-62 -17.5t-64.5 -5.5q-53 0 -105.5 15.5t-103.5 34.5t-99 34.5t-91 15.5q-32 0 -62 -7.5t-55 -18t-42.5 -23t-24.5 -21.5l-36 150q19 28 45 48t57 33t65 19t69 6q53 0 106 -15.5 t103.5 -34t98 -34t90.5 -15.5zM790 540q31 0 61 7t54 17.5t41.5 22t25.5 20.5l29 -157q-19 -25 -44.5 -43.5t-55 -30.5t-62 -17.5t-64.5 -5.5q-53 0 -105.5 15.5t-103.5 34.5t-99 34.5t-91 15.5q-32 0 -62 -7.5t-55 -18t-42.5 -23t-24.5 -21.5l-36 150q19 28 45 48t57 33 t65 19t69 6q53 0 106 -15.5t103.5 -34t98 -34t90.5 -15.5z" />
<glyph unicode="&#x2260;" d="M137 940h502l111 221h176l-111 -221h208v-183h-299l-85 -169h384v-184h-476l-117 -235h-176l117 235h-234v184h326l85 169h-411v183z" />
<glyph unicode="&#x2264;" d="M173 839l793 379v-168q0 -20 -11 -38t-43 -31l-353 -158q-50 -19 -113 -33q31 -7 59 -15t54 -19l352 -161q32 -13 43.5 -31t11.5 -38v-168l-793 382v99zM173 263h793v-183h-793v183z" />
<glyph unicode="&#x2265;" d="M987 839v-99l-793 -382v168q0 20 11.5 38t43.5 31l352 161q25 11 53 19t60 15q-63 14 -113 33l-353 158q-32 13 -43 31t-11 38v168zM987 80h-793v183h793v-183z" />
<glyph unicode="&#x25ca;" d="M82 720l412 811h172l412 -811l-412 -811h-172zM323 720l201 -425q20 -43 33.5 -85t22.5 -84q10 42 24 83.5t34 83.5l203 427l-209 436q-35 72 -52 153q-8 -39 -20.5 -77t-29.5 -74z" />
<glyph unicode="&#x25fc;" horiz-adv-x="1025" d="M0 1025h1025v-1025h-1025v1025z" />
<glyph unicode="&#xf8ff;" horiz-adv-x="1578" d="M636 1484q-85 -57 -150.5 -148.5t-113.5 -201.5t-80.5 -232t-51.5 -241.5t-27.5 -229.5t-8.5 -195t11 -144.5t30.5 -104.5t45.5 -79t57 -68l-12 -12q-59 55 -106 113t-80.5 127.5t-51.5 155.5t-18 198q0 154 35 308.5t104 296t172.5 262.5t240.5 207zM1080 780h-174v-342 q0 -38 25.5 -60t78.5 -22q9 0 25 0.5t33 3.5l20 -214q-50 -20 -107 -31t-119 -11q-96 0 -160 23t-103 68t-55 111t-16 152v300l-100 46v218l120 12l100 244h258v-252h174v-246zM942 -160q85 58 150.5 148.5t113.5 200t80 231.5t52 241t28 228t8 195t-11 146.5t-30.5 105.5 t-45.5 79.5t-57 68.5l12 12q59 -56 106.5 -114t80.5 -128t51 -156t18 -196q0 -154 -35 -308.5t-104 -296t-172.5 -262.5t-240.5 -207z" />
<glyph horiz-adv-x="800" d="M252 1861q20 0 34.5 -1t26 -5.5t21.5 -12.5t21 -22l218 -271h-179q-29 0 -45.5 3.5t-36.5 20.5l-319 288h259z" />
<glyph horiz-adv-x="800" d="M836 1861l-324 -286q-20 -18 -38 -22t-46 -4h-179l209 271q10 14 20 22.5t22 12.5t26.5 5t34.5 1h275z" />
<glyph horiz-adv-x="800" d="M757 1549h-179q-15 0 -36.5 5.5t-44.5 32.5l-82 106q-5 5 -8.5 11t-6.5 11l-15 -22l-82 -106q-23 -27 -44.5 -32.5t-36.5 -5.5h-171l241 275h224z" />
<glyph horiz-adv-x="800" d="M525 1699q22 0 38.5 9t27 22.5t15.5 30t5 32.5h151q0 -50 -13.5 -95.5t-40 -81t-65 -56.5t-88.5 -21q-51 0 -88.5 16t-68.5 34.5t-56.5 34.5t-52.5 16q-23 0 -39 -9t-26 -23t-15 -31t-5 -33h-153q0 49 14 95.5t40.5 82t65 57t88.5 21.5q51 0 89 -16t68 -34.5t56 -34.5 t53 -16z" />
<glyph horiz-adv-x="800" d="M314 1667q0 -27 -11 -51t-29.5 -42t-43.5 -28t-53 -10q-26 0 -49.5 10t-41.5 28t-29 42t-11 51t11 51.5t29 43t41.5 29.5t49.5 11q28 0 53 -11t43.5 -29.5t29.5 -43t11 -51.5zM754 1667q0 -27 -10.5 -51t-29 -42t-43 -28t-51.5 -10q-28 0 -52.5 10t-42.5 28t-28.5 42 t-10.5 51t10.5 51.5t28.5 43t42.5 29.5t52.5 11q27 0 51.5 -11t43 -29.5t29 -43t10.5 -51.5z" />
<glyph horiz-adv-x="800" d="M100 1712h600v-142h-600v142z" />
<glyph horiz-adv-x="800" d="M192 1706q0 43 17 78.5t45.5 60.5t65.5 39t78 14q42 0 80.5 -14t67 -39t45.5 -60.5t17 -78.5q0 -42 -17 -76t-45.5 -59t-67 -38.5t-80.5 -13.5q-41 0 -78 13.5t-65.5 38.5t-45.5 59t-17 76zM311 1706q0 -39 23 -64t67 -25q40 0 64 25t24 64q0 42 -24 66.5t-64 24.5 q-44 0 -67 -24.5t-23 -66.5z" />
<glyph horiz-adv-x="800" d="M400 1286q37 0 62 8t40 26.5t21 49.5t6 76h146q26 0 38.5 -21.5t12.5 -47.5q0 -51 -23 -92.5t-66 -70t-103 -44t-134 -15.5t-134 15.5t-103 44t-66 70t-23 92.5q0 26 12.5 47.5t38.5 21.5h146q0 -45 6 -76t21 -49.5t39.5 -26.5t62.5 -8z" />
<glyph horiz-adv-x="800" d="M400 1655q37 0 62 7t40 24.5t21 47.5t6 76h146q26 0 38.5 -22t12.5 -48q0 -51 -23 -90t-66 -65t-103 -39.5t-134 -13.5t-134 13.5t-103 39.5t-66 65t-23 90q0 26 12.5 48t38.5 22h146q0 -46 6 -76t21 -47.5t39.5 -24.5t62.5 -7z" />
<glyph horiz-adv-x="800" d="M429 1462q41 0 61 -13.5t34 -39.5l127 -243h-101q-29 0 -47.5 7.5t-34.5 27.5l-199 261h160zM98 1462q20 0 34 -3.5t24.5 -10.5t19 -16.5t17.5 -22.5l177 -243h-117q-28 0 -45.5 7.5t-35.5 27.5l-252 261h178z" />
<glyph horiz-adv-x="800" d="M428 1824q40 0 65.5 -14t41.5 -39l138 -222h-117q-28 0 -45 9.5t-37 26.5l-206 239h160zM55 1824q41 0 67 -14.5t46 -38.5l183 -222h-133q-28 0 -48.5 9t-40.5 27l-258 239h184z" />
<glyph horiz-adv-x="800" d="M845 1372q0 -14 -2 -24t-4 -22l-61 -202q-5 -15 -15 -22t-21.5 -7t-21.5 7.5t-14 21.5l-37 127h-195l-39 -127q-5 -15 -15 -22t-21 -7t-21 7.5t-14 21.5l-37 127h-198l-39 -127q-5 -15 -15 -22t-21 -7t-21.5 7.5t-14.5 21.5l-57 201l-4 22t-2 25h890z" />
<glyph horiz-adv-x="800" d="M368 1292q0 -28 -11 -52.5t-30.5 -42.5t-45 -28.5t-53.5 -10.5q-27 0 -51.5 10.5t-43.5 28.5t-30 42.5t-11 52.5q0 29 11 54.5t30 44.5t43.5 30t51.5 11q28 0 53.5 -11t45 -30t30.5 -44.5t11 -54.5zM708 1292q0 -28 -11 -52.5t-29.5 -42.5t-44 -28.5t-54.5 -10.5 q-28 0 -53 10.5t-43.5 28.5t-29.5 42.5t-11 52.5q0 29 11 54.5t29.5 44.5t43.5 30t53 11q29 0 54.5 -11t44 -30t29.5 -44.5t11 -54.5z" />
<glyph horiz-adv-x="265" d="M0 0z" />
</font>
</defs>
</svg>
