<?xml version="1.0" standalone="no"?>
<!DOCTYPE svg PUBLIC "-//W3C//DTD SVG 1.1//EN" "http://www.w3.org/Graphics/SVG/1.1/DTD/svg11.dtd" >
<svg xmlns="http://www.w3.org/2000/svg" xmlns:xlink="http://www.w3.org/1999/xlink" version="1.1">
<metadata></metadata>
<defs>
<font id="latoheavy" horiz-adv-x="1160" >
<font-face units-per-em="2000" ascent="1610" descent="-390" />
<missing-glyph horiz-adv-x="475" />
<glyph unicode="&#xfb01;" horiz-adv-x="1225" d="M189 0v833l-80 14q-31 6 -50.5 22t-19.5 46v110h150v25q0 94 31.5 175.5t97 142t166 95t238.5 34.5q43 0 89 -4.5t79 -13.5l-9 -141q-1 -12 -7.5 -19t-17.5 -11t-24.5 -5t-28.5 -1q-100 0 -167 -16.5t-107 -49.5t-56.5 -82t-16.5 -113v-16h646v-1025h-276v833h-361v-833 h-276z" />
<glyph unicode="&#xfb02;" horiz-adv-x="1243" d="M189 0v833l-80 14q-31 6 -50.5 22t-19.5 46v110h150v40q0 81 26 156t79.5 133t136 93t195.5 35q94 0 177.5 -6.5t168.5 -6.5h155v-1469h-274v1282q-52 2 -101.5 4.5t-81.5 2.5q-104 0 -159 -57.5t-55 -166.5v-40h234v-192h-225v-833h-276z" />
<glyph horiz-adv-x="0" />
<glyph horiz-adv-x="0" />
<glyph unicode="&#xd;" horiz-adv-x="0" />
<glyph unicode=" "  horiz-adv-x="475" />
<glyph unicode="&#x09;" horiz-adv-x="475" />
<glyph unicode="&#xa0;" horiz-adv-x="475" />
<glyph unicode="!" horiz-adv-x="572" d="M416 1451v-572q0 -91 -9.5 -180t-26.5 -185h-186q-17 96 -26.5 185t-9.5 180v572h258zM121 145q0 33 12.5 62.5t34.5 51t51.5 34t64.5 12.5q34 0 63.5 -12.5t51.5 -34t35 -51t13 -62.5q0 -34 -13 -63t-35 -50.5t-51.5 -33.5t-63.5 -12q-35 0 -64.5 12t-51.5 33.5 t-34.5 50.5t-12.5 63z" />
<glyph unicode="&#x22;" horiz-adv-x="811" d="M94 907zM334 1451v-287l-24 -157q-8 -48 -28.5 -74t-67.5 -26q-41 0 -63 26t-32 74l-25 157v287h240zM716 1451v-287l-24 -157q-8 -48 -28.5 -74t-67.5 -26q-41 0 -63 26t-32 74l-25 157v287h240z" />
<glyph unicode="#" d="M842 402l-74 -402h-127q-19 0 -35.5 9t-28 24.5t-16 35.5t0.5 43l53 290h-186l-54 -304q-10 -53 -45 -75.5t-79 -22.5h-122l73 402h-103q-42 0 -59.5 24.5t-8.5 84.5l14 87h184l47 257h-207l21 114q8 42 35.5 62t86.5 20h91l58 309q8 42 40.5 66.5t75.5 24.5h126 l-74 -400h187l74 400h123q43 0 68.5 -26.5t18.5 -66.5l-57 -307h198l-21 -114q-8 -42 -35 -62t-86 -20h-83l-47 -257h127q42 0 59.5 -25t8.5 -85l-14 -86h-208zM455 598h187l47 257h-187z" />
<glyph unicode="$" d="M450 -7q-58 8 -113.5 24.5t-106.5 40t-95.5 53t-80.5 64.5l85 125q11 16 30 26.5t39 10.5q23 0 48 -14t55.5 -33.5t69 -39.5t89.5 -31l38 415q-48 13 -95.5 29.5t-91.5 38.5t-81.5 51.5t-65.5 70.5t-44 94.5t-16 123.5q0 78 31 151.5t90.5 131.5t146.5 95.5t200 43.5 l11 119q2 26 22.5 46.5t51.5 20.5h102l-18 -196q107 -19 184.5 -62.5t132.5 -96.5l-68 -100q-14 -23 -30 -33.5t-38 -10.5q-15 0 -35.5 8.5t-46 21t-55.5 25.5t-65 22l-35 -388q72 -22 143 -48.5t128 -69t92 -106t35 -157.5q0 -93 -32 -175.5t-92.5 -146t-149 -103.5 t-201.5 -48l-12 -136q-2 -26 -22 -47t-52 -21h-101zM831 417q0 34 -12 59.5t-33 45.5t-50.5 35.5t-63.5 27.5l-33 -371q95 14 143.5 65.5t48.5 137.5zM373 1069q0 -34 11.5 -60.5t32.5 -47.5t50 -37.5t64 -30.5l30 340q-51 -7 -87 -22.5t-58.5 -37t-32.5 -48t-10 -56.5z" />
<glyph unicode="%" horiz-adv-x="1654" d="M755 1100q0 -81 -28 -147t-75.5 -113.5t-109.5 -73t-129 -25.5q-74 0 -136 25.5t-107.5 73t-71 113.5t-25.5 147q0 84 25.5 151.5t71 115t107.5 73.5t136 26t137 -26t108.5 -73.5t71 -115t25.5 -151.5zM543 1100q0 54 -10 90.5t-27.5 58.5t-41.5 31.5t-51 9.5t-50.5 -9.5 t-40 -31.5t-26 -58.5t-9.5 -90.5q0 -53 9.5 -88t26 -56.5t40 -30.5t50.5 -9t51 9t41.5 30.5t27.5 56.5t10 88zM1225 1409q14 16 33.5 29t54.5 13h201l-1085 -1411q-14 -17 -34 -28.5t-49 -11.5h-205zM1581 341q0 -81 -28 -147t-75.5 -113.5t-109.5 -73t-129 -25.5 q-74 0 -136 25.5t-107.5 73t-71 113.5t-25.5 147q0 84 25.5 151.5t71 115t107.5 73t136 25.5t137 -25.5t108.5 -73t71 -115t25.5 -151.5zM1369 341q0 54 -10 90.5t-27.5 58.5t-41.5 31.5t-51 9.5t-50.5 -9.5t-40 -31.5t-26 -58.5t-9.5 -90.5q0 -53 9.5 -88t26 -56.5 t40 -30.5t50.5 -9t51 9t41.5 30.5t27.5 56.5t10 88z" />
<glyph unicode="&#x26;" horiz-adv-x="1456" d="M674 1467q92 0 164 -27.5t122 -73.5t78.5 -105t34.5 -123l-176 -36q-49 -10 -71 40q-20 52 -55.5 85.5t-96.5 33.5q-38 0 -68 -13.5t-50.5 -36.5t-31 -53.5t-10.5 -64.5q0 -28 5.5 -54t18 -52.5t33.5 -54.5t51 -60l373 -391q31 61 49 129t24 139q3 26 17.5 41t39.5 15 h173q-1 -138 -39 -261t-107 -226l304 -318h-271q-21 0 -37.5 2t-30.5 8t-27 16t-27 25l-83 86q-95 -73 -210.5 -113t-247.5 -40q-85 0 -167 29.5t-146 84t-103 132t-39 174.5q0 67 21 126.5t59 111t90.5 93t115.5 72.5q-50 74 -72.5 144.5t-22.5 139.5q0 76 28 144.5t81 120 t130.5 81.5t176.5 30zM571 200q78 0 144.5 22.5t121.5 63.5l-361 376q-69 -50 -98.5 -109.5t-29.5 -126.5q0 -52 17 -93.5t47 -71t71 -45.5t88 -16z" />
<glyph unicode="'" horiz-adv-x="429" d="M334 1451v-287l-24 -157q-8 -48 -28.5 -74t-67.5 -26q-41 0 -63 26t-32 74l-25 157v287h240z" />
<glyph unicode="(" horiz-adv-x="555" d="M305 627q0 -203 47.5 -401t135.5 -371q12 -22 13.5 -38.5t-3 -29.5t-14 -22t-21.5 -16l-122 -73q-74 114 -126 229t-85 233.5t-48.5 240t-15.5 248.5q0 126 15.5 248t48.5 240t85 233.5t126 228.5l122 -72q12 -7 21.5 -16t14 -22t3 -30t-13.5 -39q-88 -172 -135.5 -370 t-47.5 -401z" />
<glyph unicode=")" horiz-adv-x="555" d="M250 627q0 203 -47.5 401t-135.5 370q-12 22 -13.5 39t3 30t14 22t20.5 16l123 72q73 -113 125 -228.5t85 -233.5t48.5 -240t15.5 -248q0 -127 -15.5 -248.5t-48.5 -240t-85 -233.5t-125 -229l-123 73q-11 7 -20.5 16t-14 22t-3 29.5t13.5 38.5q88 173 135.5 371 t47.5 401z" />
<glyph unicode="*" horiz-adv-x="850" d="M359 827v178q0 20 2.5 39t8.5 36q-12 -13 -27.5 -24t-32.5 -21l-152 -89l-65 109l153 89q18 11 36.5 18.5t38.5 10.5q-20 3 -38.5 11t-36.5 19l-153 91l64 108l153 -91q18 -11 33.5 -22t27.5 -25q-12 34 -12 75v181h131v-179q0 -21 -2.5 -40.5t-8.5 -36.5q12 14 27.5 25 t33.5 22l152 89l65 -108l-153 -89q-18 -11 -36.5 -18.5t-37.5 -11.5q37 -6 74 -29l153 -91l-64 -109l-153 91q-38 20 -62 47q12 -35 12 -75v-180h-131z" />
<glyph unicode="+" d="M691 1176v-404h380v-201h-380v-405h-224v405h-378v201h378v404h224z" />
<glyph unicode="," horiz-adv-x="473" d="M78 163q0 30 11 56t31.5 45t49 30t63.5 11q41 0 71.5 -14.5t50.5 -38.5t30 -56.5t10 -68.5q0 -49 -15 -103.5t-45 -109.5t-73.5 -107.5t-100.5 -95.5l-48 43q-11 9 -15.5 18t-4.5 22q0 9 6.5 19.5t15.5 19.5q11 12 27 29.5t31.5 39t29 47.5t20.5 55q-33 1 -59.5 14 t-45.5 34t-29.5 49.5t-10.5 61.5z" />
<glyph unicode="-" horiz-adv-x="747" d="M109 719h528v-226h-528v226z" />
<glyph unicode="." horiz-adv-x="476" d="M75 145q0 33 12.5 62.5t34.5 51t51.5 34t64.5 12.5q34 0 64 -12.5t52 -34t34.5 -51t12.5 -62.5q0 -34 -12.5 -63t-34.5 -50.5t-52 -33.5t-64 -12q-35 0 -64.5 12t-51.5 33.5t-34.5 50.5t-12.5 63z" />
<glyph unicode="/" horiz-adv-x="944" d="M317 4q-19 -50 -60.5 -75.5t-84.5 -25.5h-117l577 1493q17 45 54 70t85 25h118z" />
<glyph unicode="0" d="M1115 726q0 -190 -41 -330t-113 -231.5t-170.5 -136t-212.5 -44.5t-212 44.5t-169 136t-111.5 231.5t-40.5 330t40.5 329.5t111.5 231t169 136t212 44.5t212.5 -44.5t170.5 -136t113 -231t41 -329.5zM830 726q0 154 -21.5 254t-56.5 158t-80.5 81t-93.5 23t-92.5 -23 t-79 -81t-55.5 -158t-21 -254q0 -155 21 -255t55.5 -158t79 -81t92.5 -23t93.5 23t80.5 81t56.5 158t21.5 255z" />
<glyph unicode="1" d="M228 203h288v794q0 51 3 107l-189 -157q-20 -15 -39 -19t-36 -0.5t-30 12t-20 17.5l-87 117l446 378h227v-1249h251v-203h-814v203z" />
<glyph unicode="2" d="M595 1467q103 0 187.5 -30.5t144.5 -85t93 -131.5t33 -170q0 -80 -23 -148t-62.5 -129.5t-91.5 -119.5t-110 -117l-308 -315q51 14 101 23t94 9h326q45 0 70.5 -25t25.5 -66v-162h-1006v90q0 26 11 56.5t37 55.5l430 431q55 55 97 105.5t70 99t42 98.5t14 105 q0 97 -50 147.5t-141 50.5q-40 0 -73.5 -11.5t-60 -31.5t-45.5 -47t-28 -59q-18 -50 -48.5 -66.5t-86.5 -7.5l-146 26q16 106 60 186t110 133t151 79.5t183 26.5z" />
<glyph unicode="3" d="M602 1467q104 0 186.5 -29.5t139.5 -80.5t87.5 -119t30.5 -146q0 -69 -15 -121.5t-43.5 -91.5t-70 -66t-95.5 -45q251 -84 251 -333q0 -111 -41 -195.5t-110 -141.5t-160.5 -85.5t-191.5 -28.5q-106 0 -187 24t-142.5 72t-105.5 120.5t-77 169.5l122 50q48 20 89.5 11 t59.5 -44q20 -38 42.5 -70t50.5 -55.5t63.5 -36.5t81.5 -13q58 0 101 19t72 49.5t43.5 69t14.5 76.5q0 50 -9 90.5t-41.5 69t-96 44t-172.5 15.5v194q91 0 149 15t91 42t45.5 65t12.5 83q0 95 -49.5 145t-140.5 50q-40 0 -73.5 -11.5t-60 -31.5t-45.5 -47t-28 -59 q-19 -50 -49 -66.5t-87 -7.5l-145 26q16 106 60 186t110 133t150.5 79.5t182.5 26.5z" />
<glyph unicode="4" d="M944 554h168v-156q0 -22 -14.5 -37.5t-40.5 -15.5h-113v-345h-240v345h-599q-26 0 -47.5 16t-26.5 42l-29 138l680 911h262v-898zM704 986q0 34 2 72t7 80l-419 -584h410v432z" />
<glyph unicode="5" d="M1006 1335q0 -29 -8.5 -52.5t-28 -41t-50 -27t-74.5 -9.5h-375l-48 -274q45 8 87 12.5t81 4.5q114 0 201.5 -34.5t147 -94.5t89.5 -141t30 -174q0 -116 -41 -211.5t-113.5 -164t-173 -106.5t-219.5 -38q-69 0 -132 14.5t-117.5 39t-101.5 56.5t-84 67l85 116q27 37 70 37 q27 0 53 -16t59 -35.5t77 -35.5t107 -16q65 0 113 21.5t79.5 59t47 89t15.5 110.5q0 113 -64.5 174.5t-187.5 61.5q-101 0 -203 -38l-171 48l122 714h728v-116z" />
<glyph unicode="6" d="M542 930q-24 -27 -45 -54q38 17 82.5 26.5t95.5 9.5q81 0 158 -27t137 -81t96.5 -135.5t36.5 -191.5q0 -101 -37.5 -191t-106 -157t-164 -106t-212.5 -39q-119 0 -213 37.5t-160 105.5t-101 162.5t-35 208.5q0 105 41.5 213t126.5 222l337 454q20 26 59 45t89 19h245z M339 458q0 -57 15 -103.5t45 -79.5t74.5 -51t104.5 -18q54 0 100 19t79 53t52 79.5t19 99.5q0 59 -18 106t-51 79.5t-79 49.5t-102 17q-53 0 -97 -18.5t-75.5 -52t-49 -79.5t-17.5 -101z" />
<glyph unicode="7" d="M1097 1451v-118q0 -52 -11.5 -84t-22.5 -54l-528 -1103q-20 -38 -54 -65t-92 -27h-200l541 1077q20 38 41 69t47 59h-669q-24 0 -43.5 19t-19.5 43v184h1011z" />
<glyph unicode="8" d="M580 -16q-114 0 -208 30.5t-161 86t-104 134.5t-37 176q0 124 60 212.5t192 132.5q-103 45 -153.5 126t-50.5 193q0 84 34 155.5t95.5 124t146.5 82.5t186 30t186 -30t146.5 -82.5t95.5 -124t34 -155.5q0 -112 -51 -193t-153 -126q131 -44 191.5 -132.5t60.5 -212.5 q0 -97 -37 -176t-104 -134.5t-161 -86t-208 -30.5zM580 195q57 0 99.5 17t70.5 46.5t42 70t14 87.5q0 108 -55.5 167.5t-170.5 59.5t-170.5 -59.5t-55.5 -167.5q0 -47 14 -87.5t42 -70t70.5 -46.5t99.5 -17zM580 856q57 0 94 18t59 48t31 68.5t9 79.5q0 38 -11 73 t-34.5 61.5t-60 42.5t-87.5 16t-87.5 -16t-60 -42.5t-34.5 -61.5t-11 -73q0 -41 9 -79.5t31 -68.5t59 -48t94 -18z" />
<glyph unicode="9" d="M641 557q15 19 29 37l28 36q-48 -28 -104.5 -42.5t-119.5 -14.5q-73 0 -144.5 26t-128.5 78t-92 130.5t-35 184.5q0 97 36 183.5t102 151t158.5 102.5t205.5 38q114 0 205 -35.5t154 -99.5t97 -152.5t34 -194.5q0 -69 -11 -131t-32 -118t-50.5 -109t-66.5 -104l-323 -461 q-20 -26 -57.5 -44t-85.5 -18h-254zM803 1011q0 57 -17 100.5t-47.5 73.5t-72.5 45.5t-93 15.5q-52 0 -93 -17.5t-70 -49t-44.5 -74.5t-15.5 -93q0 -115 56.5 -175t165.5 -60q55 0 98.5 17.5t72.5 48.5t44.5 74t15.5 94z" />
<glyph unicode=":" horiz-adv-x="522" d="M98 0zM98 145q0 33 12.5 62.5t34.5 51t51.5 34t64.5 12.5q34 0 64 -12.5t52 -34t34.5 -51t12.5 -62.5q0 -34 -12.5 -63t-34.5 -50.5t-52 -33.5t-64 -12q-35 0 -64.5 12t-51.5 33.5t-34.5 50.5t-12.5 63zM98 845q0 33 12.5 62.5t34.5 51t51.5 34t64.5 12.5q34 0 64 -12.5 t52 -34t34.5 -51t12.5 -62.5q0 -34 -12.5 -63t-34.5 -50.5t-52 -33.5t-64 -12q-35 0 -64.5 12t-51.5 33.5t-34.5 50.5t-12.5 63z" />
<glyph unicode=";" horiz-adv-x="549" d="M109 0zM117 163q0 30 11 56t31.5 45t49 30t63.5 11q41 0 71.5 -14.5t50.5 -38.5t30 -56.5t10 -68.5q0 -49 -15 -103.5t-45 -109.5t-73.5 -107.5t-100.5 -95.5l-48 43q-11 9 -15.5 18t-4.5 22q0 9 6.5 19.5t15.5 19.5q11 12 27 29.5t31.5 39t29 47.5t20.5 55 q-33 1 -59.5 14t-45.5 34t-29.5 49.5t-10.5 61.5zM109 845q0 33 12.5 62.5t34.5 51t51.5 34t64.5 12.5q34 0 64 -12.5t52 -34t34.5 -51t12.5 -62.5q0 -34 -12.5 -63t-34.5 -50.5t-52 -33.5t-64 -12q-35 0 -64.5 12t-51.5 33.5t-34.5 50.5t-12.5 63z" />
<glyph unicode="&#x3c;" d="M147 729l801 418v-194q0 -21 -10.5 -39t-36.5 -30l-327 -172q-25 -12 -52 -21t-57 -17q30 -7 57 -16.5t52 -21.5l327 -171q26 -12 36.5 -30t10.5 -40v-194l-801 419v109z" />
<glyph unicode="=" d="M132 593h896v-201h-896v201zM132 952h896v-201h-896v201z" />
<glyph unicode="&#x3e;" d="M212 201v194q0 22 10.5 40t36.5 30l327 171q24 12 51.5 21t58.5 17q-61 13 -110 38l-327 172q-26 12 -36.5 30t-10.5 39v194l801 -418v-109z" />
<glyph unicode="?" horiz-adv-x="930" d="M66 1319q36 31 77.5 58t90 47t105 31.5t121.5 11.5q90 0 163 -24.5t125 -70t80.5 -109.5t28.5 -143q0 -76 -21.5 -131.5t-54 -96.5t-71.5 -71t-74 -56t-60.5 -51.5t-31.5 -56.5l-25 -143h-189l-19 162q-7 48 12 83.5t51 65t71.5 57t74 59t58 71t23.5 93.5q0 66 -45.5 105 t-120.5 39q-55 0 -92.5 -12t-64.5 -26.5t-46 -26.5t-36 -12q-38 0 -57 33zM253 145q0 33 12.5 62.5t34.5 51t51.5 34t64.5 12.5q34 0 64 -12.5t52 -34t34.5 -51t12.5 -62.5q0 -34 -12.5 -63t-34.5 -50.5t-52 -33.5t-64 -12q-35 0 -64.5 12t-51.5 33.5t-34.5 50.5t-12.5 63z " />
<glyph unicode="@" horiz-adv-x="1692" d="M1192 183q-66 0 -120 30t-78 99q-59 -69 -125 -98.5t-141 -29.5q-64 0 -111.5 22t-79.5 61.5t-48 93.5t-16 117q0 57 14.5 115.5t43.5 113t73 102.5t103 83.5t133.5 56t165.5 20.5q41 0 75 -3t64 -9t56.5 -15t53.5 -20l-97 -375q-14 -59 -14.5 -97.5t10.5 -60.5 t31.5 -30.5t47.5 -8.5q39 0 74 26t61 72.5t41 110t15 138.5q0 127 -39 224.5t-109.5 162.5t-169.5 98.5t-218 33.5q-87 0 -165.5 -22t-145.5 -62.5t-121 -97.5t-92 -127t-58.5 -150.5t-20.5 -168.5q0 -162 50 -285t137.5 -205t206.5 -123.5t258 -41.5q78 0 144.5 8.5 t122 22.5t99.5 32t77 37q29 16 50.5 9.5t31.5 -32.5l38 -97q-103 -68 -242.5 -111t-320.5 -43q-184 0 -340 57.5t-269.5 165t-177.5 261t-64 345.5q0 106 28 207t79 190t123.5 163.5t161.5 128t192.5 83.5t217.5 30q95 0 186.5 -21.5t173 -63t150 -102t118 -137.5t77 -169.5 t27.5 -199.5t-32 -200.5t-89 -163.5t-135.5 -110t-171.5 -40zM783 358q24 0 48 7.5t46 26t39.5 49t29.5 77.5l72 278q-14 2 -28.5 3t-29.5 1q-57 0 -107 -25.5t-87.5 -69t-59 -100.5t-21.5 -120q0 -62 25 -94.5t73 -32.5z" />
<glyph unicode="A" horiz-adv-x="1404" d="M1422 0h-233q-39 0 -63.5 18.5t-36.5 47.5l-98 277h-578l-98 -277q-10 -25 -35 -45.5t-63 -20.5h-235l567 1451h307zM486 551h432l-157 444q-14 35 -29.5 82t-30.5 101q-14 -55 -29 -102.5t-29 -82.5z" />
<glyph unicode="B" horiz-adv-x="1327" d="M152 0v1451h515q146 0 249.5 -27.5t169 -78t95.5 -122.5t30 -161q0 -50 -14.5 -96t-45 -86.5t-78.5 -73.5t-114 -56q290 -68 290 -319q0 -92 -35.5 -171t-103.5 -137t-167.5 -90.5t-228.5 -32.5h-562zM452 627v-397h257q72 0 118.5 17.5t74.5 46.5t39 66.5t11 77.5 q0 44 -13 79t-42 59.5t-75.5 37.5t-114.5 13h-255zM452 831h197q63 0 112 10.5t82 33.5t50.5 60.5t17.5 90.5q0 54 -14.5 92t-44.5 61t-76 33.5t-109 10.5h-215v-392z" />
<glyph unicode="C" horiz-adv-x="1318" d="M1140 357q25 0 42 -18l119 -127q-88 -112 -218.5 -170t-310.5 -58q-163 0 -293 55.5t-221 154.5t-140 235t-49 297q0 108 23.5 205.5t68.5 179.5t108.5 148t143.5 112.5t174.5 71t201.5 24.5q80 0 151.5 -14t133.5 -39t114.5 -60.5t94.5 -77.5l-101 -138q-9 -13 -23 -23 t-38 -10t-48.5 17t-60 38t-89 38t-135.5 17q-91 0 -167 -33t-130.5 -95.5t-84.5 -153.5t-30 -207q0 -117 32.5 -208.5t89 -154.5t132 -95.5t161.5 -32.5q51 0 92.5 5t77 17t67 31t63.5 48q11 9 23 15t26 6z" />
<glyph unicode="D" horiz-adv-x="1522" d="M1453 726q0 -159 -53.5 -292.5t-151 -229.5t-234.5 -150t-304 -54h-558v1451h558q167 0 304 -54t234.5 -150.5t151 -229.5t53.5 -291zM1145 726q0 114 -30 205t-86 154t-136.5 97t-182.5 34h-256v-981h256q102 0 182.5 33.5t136.5 97t86 154.5t30 206z" />
<glyph unicode="E" horiz-adv-x="1148" d="M1076 1451v-235h-622v-373h484v-227h-484v-381h622v-235h-924v1451h924z" />
<glyph unicode="F" horiz-adv-x="1132" d="M1076 1451v-235h-622v-401h522v-236h-522v-579h-302v1451h924z" />
<glyph unicode="G" horiz-adv-x="1449" d="M1356 140q-111 -81 -236.5 -118.5t-265.5 -37.5q-179 0 -324 55.5t-248 154.5t-159 235t-56 297q0 163 53.5 299t152.5 234t239.5 153t314.5 55q90 0 168 -14.5t144 -40t121 -60.5t100 -77l-87 -134q-20 -32 -52 -39t-70 16q-36 22 -70.5 39.5t-73.5 30.5t-85 20t-106 7 q-101 0 -183 -35t-139.5 -99t-88.5 -154t-31 -201q0 -120 34 -214.5t96 -159.5t148.5 -99t192.5 -34q72 0 128.5 14.5t110.5 39.5v244h-164q-29 0 -45.5 15.5t-16.5 39.5v167h498v-599v0z" />
<glyph unicode="H" horiz-adv-x="1547" d="M1395 0h-302v625h-639v-625h-302v1451h302v-616h639v616h302v-1451z" />
<glyph unicode="I" horiz-adv-x="606" d="M454 0h-302v1451h302v-1451z" />
<glyph unicode="J" horiz-adv-x="864" d="M726 520q0 -122 -30 -220.5t-90.5 -169t-151.5 -108.5t-212 -38q-55 0 -108.5 6.5t-112.5 20.5l16 176q3 24 19 38.5t46 14.5q17 0 43.5 -6t65.5 -6q54 0 94 15t67 49t40.5 88.5t13.5 132.5v938h300v-931z" />
<glyph unicode="K" horiz-adv-x="1390" d="M452 852h59q74 0 107 46l367 491q26 35 57 48.5t76 13.5h260l-462 -595q-45 -58 -93 -83q35 -14 63 -36.5t54 -59.5l474 -677h-267q-26 0 -44.5 4t-32.5 11t-24 17.5t-19 24.5l-373 522q-19 27 -45 38.5t-73 11.5h-84v-629h-300v1451h300v-599z" />
<glyph unicode="L" horiz-adv-x="1044" d="M452 244h561v-244h-861v1451h300v-1207z" />
<glyph unicode="M" horiz-adv-x="1903" d="M886 630q18 -35 34.5 -72t31.5 -76q15 40 32 78t36 73l403 771q9 17 19 26.5t21.5 14t26 5.5t34.5 1h228v-1451h-265v891q0 27 1.5 59t4.5 66l-414 -787q-34 -65 -105 -65h-42q-35 0 -62 16.5t-43 48.5l-417 789q3 -34 5 -66.5t2 -60.5v-891h-265v1451h228q19 0 34 -1 t26.5 -5.5t21 -14t18.5 -26.5l406 -774v0z" />
<glyph unicode="N" horiz-adv-x="1547" d="M310 1451q19 0 32.5 -1.5t24.5 -7t21 -14.5t22 -24l728 -925q-4 38 -6 74t-2 68v830h265v-1451h-155q-35 0 -59 11.5t-47 39.5l-723 919q3 -35 4.5 -68.5t1.5 -62.5v-839h-265v1451h158v0z" />
<glyph unicode="O" horiz-adv-x="1622" d="M1554 726q0 -159 -53.5 -295t-151 -235t-234.5 -155.5t-304 -56.5t-304 56.5t-235 155.5t-151.5 235t-53.5 295t53.5 294.5t151.5 234.5t235 155.5t304 56.5t304 -56.5t234.5 -156t151 -235t53.5 -293.5zM1247 726q0 114 -30 204.5t-86.5 154t-137 97t-182.5 33.5 t-183 -33.5t-137.5 -97t-86.5 -154t-30 -204.5q0 -115 30 -205.5t86.5 -153.5t137.5 -96.5t183 -33.5t182.5 33.5t137 96.5t86.5 153.5t30 205.5z" />
<glyph unicode="P" horiz-adv-x="1254" d="M452 499v-499h-300v1451h490q149 0 257.5 -35t178.5 -97.5t103.5 -148.5t33.5 -187q0 -107 -35 -196t-106 -153t-179 -99.5t-253 -35.5h-190zM452 729h190q141 0 206.5 68t65.5 186q0 54 -16.5 98.5t-50 76t-84.5 48.5t-121 17h-190v-494z" />
<glyph unicode="Q" horiz-adv-x="1623" d="M1555 726q0 -96 -19.5 -183.5t-57 -164.5t-91.5 -141.5t-122 -114.5l368 -400h-247q-54 0 -96.5 14t-78.5 52l-197 219q-97 -23 -202 -23q-167 0 -304 56.5t-235 155.5t-151.5 235t-53.5 295t53.5 294.5t151.5 234.5t235 155.5t304 56.5t304 -56.5t234.5 -156t151 -235 t53.5 -293.5zM1248 726q0 114 -30 204.5t-86.5 154t-137 97t-182.5 33.5t-183 -33.5t-137.5 -97t-86.5 -154t-30 -204.5q0 -115 30 -205.5t86.5 -153.5t137.5 -96.5t183 -33.5t182.5 33.5t137 96.5t86.5 153.5t30 205.5z" />
<glyph unicode="R" horiz-adv-x="1299" d="M452 553v-553h-300v1451h456q152 0 260 -31.5t177 -87.5t101 -133.5t32 -170.5q0 -72 -20.5 -136.5t-59.5 -117.5t-96 -94t-131 -66q29 -16 54.5 -38.5t45.5 -53.5l338 -522h-271q-76 0 -110 58l-276 445q-17 26 -37.5 38t-60.5 12h-102zM452 764h154q73 0 126 18.5 t87 51t50 76.5t16 96q0 103 -68.5 160t-208.5 57h-156v-459z" />
<glyph unicode="S" horiz-adv-x="1102" d="M938 1173q-14 -23 -28.5 -33.5t-37.5 -10.5q-22 0 -47.5 15.5t-59.5 33.5t-78 33.5t-103 15.5q-104 0 -156 -46.5t-52 -121.5q0 -48 28.5 -79.5t75 -54.5t105.5 -41t121 -39.5t121 -50.5t105.5 -73t75 -107.5t28.5 -154.5q0 -99 -34.5 -185.5t-99.5 -151t-160.5 -101.5 t-216.5 -37q-69 0 -137.5 14t-132 39t-119.5 60t-98 78l88 142q11 16 29 26.5t38 10.5q27 0 57 -20t69 -44t90.5 -44t123.5 -20q105 0 162.5 48t57.5 143q0 55 -28.5 89t-74.5 57t-105 39.5t-121 36.5t-121 48t-105 74t-74.5 114t-28.5 169q0 81 32 157t94 135t152.5 95 t207.5 36q131 0 242.5 -40.5t188.5 -112.5z" />
<glyph unicode="T" horiz-adv-x="1208" d="M1179 1451v-242h-424v-1209h-301v1209h-424v242h1149z" />
<glyph unicode="U" horiz-adv-x="1491" d="M746 240q73 0 131 24.5t98 69.5t61 109t21 144v864h300v-864q0 -132 -42.5 -242.5t-121.5 -190.5t-192 -125t-255 -45t-255.5 45t-192.5 125t-121.5 190.5t-42.5 242.5v864h300v-864q0 -80 21 -144t61 -109t98 -69.5t132 -24.5z" />
<glyph unicode="V" horiz-adv-x="1404" d="M-18 1451h242q39 0 63.5 -18.5t36.5 -47.5l314 -836q18 -47 35.5 -102.5t31.5 -116.5q13 61 29 116.5t34 102.5l312 836q10 25 35.5 45.5t63.5 20.5h243l-584 -1451h-272z" />
<glyph unicode="W" horiz-adv-x="2115" d="M11 1451h252q39 0 65.5 -18t34.5 -48l225 -818q8 -35 16.5 -74t16.5 -83q9 44 19 83.5t22 73.5l262 818q8 25 34.5 45.5t64.5 20.5h88q39 0 63.5 -18.5t36.5 -47.5l261 -818q11 -32 21.5 -70t18.5 -80q8 42 16 80t16 70l225 818q7 26 34 46t65 20h236l-450 -1451h-271 l-297 949q-8 20 -14.5 44t-12.5 50q-7 -26 -13.5 -50t-13.5 -44l-300 -949h-272z" />
<glyph unicode="X" horiz-adv-x="1359" d="M471 746l-457 705h300q30 0 44 -8t25 -26l311 -513q5 12 11.5 24.5t14.5 25.5l280 458q12 20 26.5 29.5t35.5 9.5h287l-461 -692l473 -759h-300q-30 0 -48.5 15t-29.5 35l-315 534q-4 -11 -9 -21.5t-10 -19.5l-298 -493q-13 -19 -30.5 -34.5t-44.5 -15.5h-280z" />
<glyph unicode="Y" horiz-adv-x="1316" d="M808 557v-557h-300v557l-527 894h264q39 0 62.5 -18.5t37.5 -47.5l238 -457q24 -46 43.5 -86t33.5 -80q28 77 75 166l236 457q12 24 36 45t62 21h266z" />
<glyph unicode="Z" horiz-adv-x="1214" d="M1165 1451v-110q0 -23 -7.5 -46.5t-21.5 -43.5l-716 -1016h725v-235h-1110v117q0 21 7 41.5t20 37.5l717 1020h-693v235h1079z" />
<glyph unicode="[" horiz-adv-x="633" d="M158 -315v1867h428v-107q0 -28 -20.5 -48.5t-52.5 -20.5h-125v-1516h125q32 0 52.5 -20.5t20.5 -48.5v-106h-428z" />
<glyph unicode="\" horiz-adv-x="944" d="M55 1491h117q49 0 86 -25t54 -70l577 -1493h-117q-44 0 -85 25.5t-61 75.5z" />
<glyph unicode="]" horiz-adv-x="633" d="M48 1552h427v-1867h-427v106q0 28 20 48.5t52 20.5h125v1516h-125q-32 0 -52 20.5t-20 48.5v107z" />
<glyph unicode="^" d="M1075 676h-202q-25 0 -41.5 12t-26.5 32l-174 363q-17 34 -30 65t-23 61q-9 -30 -21 -61t-27 -65l-161 -363q-8 -19 -26 -31.5t-45 -12.5h-213l401 775h179z" />
<glyph unicode="_" horiz-adv-x="939" d="M863 -122v-176h-788v176h788z" />
<glyph unicode="`" horiz-adv-x="800" d="M316 1467q43 0 64.5 -14t37.5 -42l139 -244h-156q-31 0 -50.5 8.5t-39.5 29.5l-253 262h258z" />
<glyph unicode="a" horiz-adv-x="1024" d="M796 0q-39 0 -59.5 11t-33.5 46l-22 65q-39 -34 -75.5 -59.5t-76 -43t-84 -26.5t-98.5 -9q-68 0 -124 18t-96.5 53.5t-62.5 88.5t-22 122q0 57 29 113.5t99.5 103t188 77.5t294.5 35v53q0 97 -41 142.5t-118 45.5q-57 0 -95 -13.5t-66.5 -29t-53.5 -29t-58 -13.5 q-29 0 -48.5 14.5t-32.5 34.5l-49 88q91 82 201 122.5t238 40.5q92 0 164.5 -30t123 -83.5t77.5 -127.5t27 -162v-648h-126zM433 170q68 0 119 24.5t101 75.5v160q-101 -4 -168 -17t-106.5 -32.5t-56 -45t-16.5 -55.5q0 -60 33.5 -85t93.5 -25z" />
<glyph unicode="b" horiz-adv-x="1142" d="M114 0v1491h276v-579q61 61 134.5 98t166.5 37q89 0 160.5 -35.5t122 -101.5t78 -159.5t27.5 -209.5q0 -125 -31.5 -227.5t-89.5 -175.5t-138.5 -113t-179.5 -40q-48 0 -86 9.5t-70 26.5t-59 40.5t-51 52.5l-11 -62q-7 -29 -23 -40.5t-43 -11.5h-183zM595 836 q-65 0 -112.5 -29t-92.5 -83v-452q39 -45 84.5 -63t94.5 -18q51 0 92.5 18.5t71.5 59t46 105.5t16 157q0 82 -13 139.5t-38.5 94.5t-62.5 54t-86 17z" />
<glyph unicode="c" horiz-adv-x="968" d="M862 801q-12 -16 -24 -24.5t-34 -8.5q-20 0 -38.5 11.5t-42.5 25t-57 25t-82 11.5q-62 0 -107.5 -22.5t-75.5 -64.5t-44.5 -102t-14.5 -135q0 -158 63.5 -242t173.5 -84q38 0 65.5 6.5t48 16.5t35.5 22t28.5 22t27 16.5t30.5 6.5q32 0 50 -24l79 -100q-44 -51 -94 -84.5 t-103.5 -53t-108.5 -27t-109 -7.5q-95 0 -180 35.5t-149 103.5t-101.5 167t-37.5 226q0 113 33 210t97 168t158.5 111.5t218.5 40.5q118 0 207 -38t160 -110z" />
<glyph unicode="d" horiz-adv-x="1142" d="M857 0q-53 0 -68 48l-23 90q-62 -68 -140.5 -110.5t-185.5 -42.5q-83 0 -152 35t-119.5 102.5t-78.5 165.5t-28 224q0 115 31.5 214t89.5 171t140 113t182 41q84 0 141.5 -25t104.5 -68v533h276v-1491h-170zM535 199q73 0 122.5 28.5t93.5 82.5v453q-39 45 -84.5 63 t-96.5 18q-50 0 -91 -19t-70.5 -59.5t-45.5 -103.5t-16 -150q0 -86 13 -146t37.5 -97t59.5 -53.5t78 -16.5z" />
<glyph unicode="e" horiz-adv-x="1072" d="M561 1047q99 0 182.5 -31.5t144 -91.5t94 -147.5t33.5 -199.5q0 -31 -3 -51t-10 -32t-19 -16.5t-31 -4.5h-619q13 -145 82.5 -212t182.5 -67q57 0 98.5 13.5t73 30t57 30t50.5 13.5q32 0 50 -24l80 -100q-44 -51 -97 -84.5t-110 -53t-115 -27t-112 -7.5 q-108 0 -201.5 35.5t-163 105t-109.5 172.5t-40 239q0 105 34.5 198t99.5 162t158 109.5t210 40.5zM566 853q-99 0 -155 -56.5t-73 -159.5h430q0 43 -11.5 82t-36.5 69t-63 47.5t-91 17.5z" />
<glyph unicode="f" horiz-adv-x="724" d="M189 0v833l-80 14q-31 6 -50.5 22t-19.5 46v110h150v68q0 88 27.5 159.5t78.5 121t125 76.5t167 27q36 0 68.5 -4.5t65.5 -13.5l-6 -136q-2 -31 -26.5 -40.5t-54.5 -9.5q-42 0 -75.5 -9t-56.5 -30.5t-35 -58t-12 -90.5v-60h256v-192h-247v-833h-275z" />
<glyph unicode="g" horiz-adv-x="1063" d="M498 1049q66 0 124.5 -13.5t107.5 -38.5h303v-101q0 -24 -13.5 -38t-44.5 -21l-84 -17q17 -49 17 -105q0 -77 -31.5 -138.5t-86.5 -105t-130 -67t-162 -23.5q-27 0 -53 2t-51 6q-41 -25 -41 -56q0 -29 28.5 -42t75 -18.5t106 -7t121 -6.5t121 -17.5t106 -41t75 -75.5 t28.5 -121q0 -69 -34 -134t-98.5 -116t-158.5 -82t-214 -31q-119 0 -206.5 22.5t-145 60t-85.5 86.5t-28 102q0 69 42 117t115 77q-39 22 -62 57.5t-23 92.5q0 46 33.5 96.5t102.5 84.5q-79 43 -124.5 113.5t-45.5 164.5q0 77 31.5 139t87.5 105.5t132 66.5t165 23zM759 -42 q0 27 -17 44t-45.5 27t-67.5 14.5t-83 7t-91.5 4.5t-92.5 7q-35 -21 -57 -49.5t-22 -64.5q0 -25 11.5 -46t38.5 -36t71 -23.5t110 -8.5q68 0 115 9t76 25.5t41.5 39.5t12.5 50zM498 554q85 0 125.5 43t40.5 111q0 71 -40.5 111.5t-125.5 40.5t-125 -40.5t-40 -111.5 q0 -67 40.5 -110.5t124.5 -43.5z" />
<glyph unicode="h" horiz-adv-x="1134" d="M114 0v1491h276v-562q58 53 127 85.5t164 32.5q84 0 149 -29t109.5 -81t67 -124t22.5 -158v-655h-275v655q0 86 -40 133.5t-118 47.5q-59 0 -109.5 -25.5t-96.5 -69.5v-741h-276z" />
<glyph unicode="i" horiz-adv-x="520" d="M398 1031v-1031h-276v1031h276zM431 1324q0 -35 -14 -65t-37.5 -53t-55 -36t-67.5 -13q-34 0 -64.5 13t-53.5 36t-36.5 53t-13.5 65t13.5 65.5t36.5 53.5t53.5 36t64.5 13q36 0 67.5 -13t55 -36t37.5 -53.5t14 -65.5z" />
<glyph unicode="j" horiz-adv-x="520" d="M398 1031v-1051q0 -70 -18 -131.5t-58.5 -107.5t-106 -73t-161.5 -27q-36 0 -67.5 5t-64.5 14l10 146q2 20 14.5 28t49.5 8t61 6.5t38.5 22.5t20.5 42.5t6 66.5v1051h276zM431 1324q0 -35 -14 -65t-37.5 -53t-55 -36t-67.5 -13q-34 0 -64.5 13t-53.5 36t-36.5 53 t-13.5 65t13.5 65.5t36.5 53.5t53.5 36t64.5 13q36 0 67.5 -13t55 -36t37.5 -53.5t14 -65.5z" />
<glyph unicode="k" horiz-adv-x="1091" d="M390 1491v-846h46q26 0 41 7.5t30 27.5l228 304q17 23 38.5 35t54.5 12h252l-296 -376q-35 -47 -81 -74q23 -16 40 -37t33 -47l319 -497h-248q-32 0 -55 10.5t-38 37.5l-232 379q-14 24 -29 31t-45 7h-58v-465h-276v1491h276z" />
<glyph unicode="l" horiz-adv-x="508" d="M392 1491v-1491h-276v1491h276z" />
<glyph unicode="m" horiz-adv-x="1687" d="M114 0v1031h170q52 0 69 -48l16 -67q27 28 55.5 52t61.5 41.5t71.5 27.5t83.5 10q95 0 157 -50.5t94 -134.5q25 49 61.5 84.5t80 57.5t92 32.5t97.5 10.5q87 0 154 -26t112.5 -76.5t69.5 -123.5t24 -166v-655h-276v655q0 181 -155 181q-35 0 -64.5 -11.5t-52 -34.5 t-35 -57t-12.5 -78v-655h-276v655q0 98 -38.5 139.5t-113.5 41.5q-48 0 -90.5 -22.5t-79.5 -62.5v-751h-276z" />
<glyph unicode="n" horiz-adv-x="1134" d="M114 0v1031h170q52 0 69 -48l17 -72q31 30 64.5 55t71 43t81 28t94.5 10q84 0 149 -29t109.5 -81t67 -124t22.5 -158v-655h-275v655q0 86 -40 133.5t-118 47.5q-59 0 -109.5 -25.5t-96.5 -69.5v-741h-276z" />
<glyph unicode="o" horiz-adv-x="1155" d="M579 1047q116 0 211 -37t163 -105.5t105 -166.5t37 -221t-37 -221.5t-105 -167.5t-163 -106t-211 -37q-117 0 -212.5 37t-163.5 106t-105.5 167.5t-37.5 221.5t37.5 221t105.5 166.5t163.5 105.5t212.5 37zM579 192q118 0 175 81.5t57 242.5q0 160 -57 241.5t-175 81.5 q-121 0 -178 -81.5t-57 -241.5q0 -161 57 -242.5t178 -81.5z" />
<glyph unicode="p" horiz-adv-x="1142" d="M114 -333v1364h170q52 0 69 -48l21 -87q31 34 66 62.5t75 49t86 32t100 11.5q83 0 152.5 -35.5t119.5 -103t78 -165.5t28 -224q0 -116 -31.5 -214.5t-89.5 -170.5t-139.5 -112.5t-181.5 -40.5q-84 0 -142.5 25t-104.5 68v-411h-276zM606 836q-73 0 -122.5 -29t-93.5 -83 v-452q39 -45 84.5 -63t97.5 -18q50 0 91 19t70.5 59.5t45.5 103.5t16 150q0 86 -13.5 146t-38 97t-59.5 53.5t-78 16.5z" />
<glyph unicode="q" horiz-adv-x="1141" d="M1027 1031v-1364h-276v455q-60 -62 -135 -99.5t-176 -37.5q-83 0 -152 35t-119.5 102.5t-78.5 165.5t-28 224q0 115 31.5 214t89.5 171t140 113t182 41q47 0 86 -8.5t71.5 -24t60 -37t52.5 -48.5l14 50q15 48 68 48h170zM535 199q73 0 122.5 28.5t93.5 82.5v453 q-39 45 -84.5 63t-96.5 18q-50 0 -91 -19t-70.5 -59.5t-45.5 -103.5t-16 -150q0 -86 13 -146t37.5 -97t59.5 -53.5t78 -16.5z" />
<glyph unicode="r" horiz-adv-x="754" d="M114 0v1031h163q42 0 58 -15t23 -52l14 -103q49 88 113.5 139t150.5 51q70 0 114 -33l-18 -204q-5 -20 -15.5 -27.5t-28.5 -7.5q-16 0 -46 4.5t-56 4.5q-76 0 -120.5 -41.5t-75.5 -115.5v-631h-276z" />
<glyph unicode="s" horiz-adv-x="885" d="M755 819q-11 -17 -22.5 -24.5t-31.5 -7.5t-41 10t-47 21.5t-59.5 21.5t-77.5 10q-67 0 -104 -27.5t-37 -72.5q0 -31 21 -52t55.5 -36.5t78.5 -29t90.5 -29.5t90.5 -37t78.5 -52.5t55.5 -76t21 -107.5q0 -75 -27.5 -138.5t-80.5 -109.5t-132 -72t-182 -26q-53 0 -105 9.5 t-99 27t-88 40.5t-71 50l64 103q11 18 27.5 28t42.5 10q25 0 46 -12.5t47 -27t61.5 -27t88.5 -12.5q40 0 69 9t47 24.5t26.5 35t8.5 40.5q0 34 -21.5 55.5t-56 37.5t-79.5 29t-91.5 29t-91 38t-79 55.5t-56 82.5t-21.5 119q0 64 25 121.5t75 101.5t124.5 70t172.5 26 q110 0 200 -36t148 -94z" />
<glyph unicode="t" horiz-adv-x="755" d="M470 -16q-70 0 -124 20.5t-91 58.5t-56 92t-19 122v556h-97q-22 0 -37.5 14t-15.5 42v108l165 30l56 267q11 45 61 45h144v-314h266v-192h-266v-538q0 -43 20.5 -68t58.5 -25q20 0 34 4.5t24 10t18.5 10t17.5 4.5q12 0 20 -5.5t16 -18.5l83 -132q-57 -45 -129 -68 t-149 -23z" />
<glyph unicode="u" horiz-adv-x="1133" d="M380 1031v-655q0 -86 39.5 -133.5t117.5 -47.5q58 0 109 25.5t97 69.5v741h276v-1031h-170q-53 0 -68 48l-18 72q-62 -61 -135.5 -98.5t-174.5 -37.5q-84 0 -149.5 29t-109.5 81t-67 124t-23 158v655h276z" />
<glyph unicode="v" horiz-adv-x="1066" d="M3 1031h229q30 0 50 -14t28 -36l173 -510q17 -52 30 -101.5t23 -99.5q11 50 24.5 99.5t31.5 101.5l179 510q7 22 27 36t47 14h218l-405 -1031h-250z" />
<glyph unicode="w" horiz-adv-x="1619" d="M12 1031h220q30 0 50.5 -14t27.5 -36l127 -510q11 -49 20.5 -95t16.5 -91q12 45 26 91t29 95l151 512q7 21 27 35t47 14h122q29 0 49.5 -14t27.5 -35l146 -512q14 -49 27 -95t24 -92q8 45 17.5 91.5t22.5 95.5l133 510q7 22 27 36t47 14h210l-324 -1031h-223 q-17 0 -30.5 11t-20.5 37l-168 558q-10 32 -18 63t-14 63q-6 -32 -13.5 -64t-17.5 -64l-170 -556q-14 -48 -60 -48h-212z" />
<glyph unicode="x" horiz-adv-x="1064" d="M349 532l-336 499h265q30 0 44 -8t25 -26l201 -327q6 17 14 34t19 35l155 253q24 39 62 39h253l-336 -487l350 -544h-265q-30 0 -48.5 15t-29.5 35l-203 339q-9 -34 -26 -60l-174 -279q-12 -19 -29.5 -34.5t-44.5 -15.5h-246z" />
<glyph unicode="y" horiz-adv-x="1064" d="M514 -277q-13 -28 -31.5 -42t-58.5 -14h-205l195 415l-414 949h242q33 0 51 -15t26 -35l196 -493q21 -59 36 -117q9 30 19.5 59.5t21.5 58.5l182 492q8 22 29 36t46 14h221z" />
<glyph unicode="z" horiz-adv-x="925" d="M867 919q0 -29 -10 -56.5t-26 -44.5l-463 -610h486v-208h-805v114q0 17 9.5 43t26.5 49l466 617h-473v208h789v-112z" />
<glyph unicode="{" horiz-adv-x="616" d="M166 404q0 60 -26 98t-88 38v156q62 0 88 38t26 98q0 46 -6.5 91.5t-14 92t-13.5 93t-6 94.5q0 78 22.5 142.5t70 110.5t120 71t171.5 25h53v-121q0 -15 -6.5 -25t-15.5 -17t-19 -10t-17 -3h-5q-67 0 -100.5 -41.5t-33.5 -114.5q0 -55 5 -105t11.5 -96.5t11.5 -91.5 t5 -91q0 -38 -10.5 -72.5t-30.5 -63t-49.5 -50t-67.5 -32.5q38 -11 67.5 -32.5t49.5 -50t30.5 -63t10.5 -71.5q0 -46 -5 -91.5t-11.5 -92t-11.5 -96.5t-5 -105q0 -72 33.5 -114t100.5 -42h5q7 0 17 -3t19 -10t15.5 -17t6.5 -25v-120h-53q-99 0 -171.5 25t-120 70.5t-70 110 t-22.5 142.5q0 48 6 94.5t13.5 93t14 92t6.5 91.5z" />
<glyph unicode="|" horiz-adv-x="530" d="M158 1552h214v-1894h-214v1894z" />
<glyph unicode="}" horiz-adv-x="616" d="M450 404q0 -46 6 -91.5t13.5 -92t14 -93t6.5 -94.5q0 -78 -22.5 -142.5t-70 -110t-120 -70.5t-171.5 -25h-53v120q0 15 6 25t15 17t19 10t18 3h5q67 0 100.5 42t33.5 114q0 55 -5 105t-11.5 96.5t-11.5 92t-5 91.5q0 37 10.5 71.5t30.5 63t49.5 50t67.5 32.5 q-38 11 -67.5 32.5t-49.5 50t-30.5 63t-10.5 72.5q0 46 5 91t11.5 91.5t11.5 96.5t5 105q0 73 -33.5 114.5t-100.5 41.5h-5q-8 0 -18 3t-19 10t-15 17t-6 25v121h53q99 0 171.5 -25t120 -71t70 -110.5t22.5 -142.5q0 -48 -6.5 -94.5t-14 -93t-13.5 -92t-6 -91.5 q0 -60 26 -98t88 -38v-156q-62 0 -88 -38t-26 -98z" />
<glyph unicode="~" d="M741 661q53 0 81.5 33.5t28.5 96.5h222q0 -81 -21 -145.5t-61.5 -110.5t-99 -70.5t-132.5 -24.5q-53 0 -101 13t-90 28t-77.5 28t-65.5 13q-53 0 -81.5 -33.5t-28.5 -96.5h-222q0 81 21 146t61.5 110.5t99 70.5t132.5 25q53 0 101 -13t90 -28.5t77.5 -28.5t65.5 -13z" />
<glyph unicode="&#xa1;" horiz-adv-x="555" d="M150 -333v531q0 91 9.5 180t26.5 186h186q17 -97 26.5 -186t9.5 -180v-531h-258zM113 888q0 34 12.5 63t34 50.5t51.5 33.5t65 12q34 0 63.5 -12t51.5 -33.5t35 -50.5t13 -63q0 -33 -13 -62.5t-35 -51t-51.5 -34t-63.5 -12.5q-35 0 -65 12.5t-51.5 34t-34 51t-12.5 62.5z " />
<glyph unicode="&#xa2;" d="M523 -7q-88 14 -163.5 55.5t-131 108t-87 157t-31.5 202.5q0 109 33.5 203t98 164.5t160 113t219.5 48.5l14 149q3 25 22.5 46t51.5 21h101l-21 -228q78 -16 141 -49.5t117 -84.5l-71 -95q-11 -15 -22.5 -23t-32.5 -8q-14 0 -29 6t-33 14.5t-39.5 18t-49.5 17.5l-60 -639 q49 6 81.5 19.5t56.5 28t43 25.5t41 11q16 0 29 -6t21 -16l76 -97q-37 -42 -80 -72t-90 -49.5t-96.5 -30.5t-99.5 -15l-13 -138q-2 -25 -22 -46t-51 -21h-102zM382 516q0 -121 41.5 -199t119.5 -110l59 631q-113 -18 -166.5 -102t-53.5 -220z" />
<glyph unicode="&#xa3;" d="M32 682q0 37 23 63.5t69 26.5h97v227q0 94 28.5 179t86.5 149.5t145.5 102t206.5 37.5q80 0 144.5 -20.5t115 -56t88.5 -84t65 -104.5l-110 -70q-38 -20 -73.5 -17.5t-64.5 34.5q-19 21 -36.5 37.5t-36.5 28.5t-41.5 18t-50.5 6q-94 0 -139 -62.5t-45 -176.5v-228h395 v-107q0 -13 -5.5 -25.5t-16 -22.5t-24.5 -16t-31 -6h-318v-177q0 -63 -23.5 -113.5t-64.5 -93.5q40 8 80 13.5t82 5.5h548v-114q0 -20 -8.5 -41t-24 -37.5t-37 -27t-48.5 -10.5h-957v169q33 7 64 21t54.5 35t37.5 51t14 69v250h-189v87z" />
<glyph unicode="&#xa5;" d="M132 635h263l-395 816h230q38 0 63 -18t37 -48l195 -459q20 -48 34 -89.5t23 -81.5q9 41 22 82t33 89l193 459q11 25 36 45.5t63 20.5h231l-395 -816h263v-149h-310v-93h310v-149h-310v-244h-276v244h-310v149h310v93h-310v149z" />
<glyph unicode="&#xa7;" horiz-adv-x="1014" d="M827 1237q-11 -17 -23 -24t-31 -7q-20 0 -41 9.5t-47.5 21.5t-60 21.5t-77.5 9.5q-78 0 -118 -31.5t-40 -78.5q0 -29 23.5 -52t62 -43t87.5 -39.5t100 -42t100 -49.5t87.5 -62.5t62 -81t23.5 -105.5q0 -80 -37 -146t-119 -108q45 -36 72 -85t27 -117q0 -75 -27.5 -138.5 t-81 -109.5t-132.5 -72t-182 -26q-53 0 -105 9.5t-99 27t-88 40.5t-71 50l64 103q11 18 28 28t43 10q25 0 46 -12.5t48 -27t64.5 -27t94.5 -12.5q75 0 116 29.5t41 83.5q0 39 -24 66t-63 48.5t-88.5 39.5t-101.5 38t-101.5 45.5t-88.5 61t-63 83.5t-24 115q0 79 40 141.5 t123 100.5q-45 39 -73 93t-28 131q0 64 25 122t75 102t124 70t173 26q109 0 199.5 -36.5t147.5 -94.5zM327 725q0 -39 27 -67.5t70 -51.5t97 -44t109 -46q35 20 50 46.5t15 58.5q0 40 -26 68.5t-68.5 51.5t-95.5 44t-107 45q-38 -21 -54.5 -46.5t-16.5 -58.5z" />
<glyph unicode="&#xa8;" horiz-adv-x="800" d="M341 1294q0 -30 -12 -56t-32.5 -45.5t-48 -30.5t-58.5 -11q-29 0 -55.5 11t-46.5 30.5t-32 45.5t-12 56t12 57t32 47.5t46.5 32t55.5 11.5q31 0 58.5 -11.5t48 -32t32.5 -47.5t12 -57zM756 1294q0 -30 -12 -56t-32 -45.5t-47.5 -30.5t-58.5 -11q-30 0 -57 11t-47 30.5 t-31.5 45.5t-11.5 56t11.5 57t31.5 47.5t47 32t57 11.5q31 0 58.5 -11.5t47.5 -32t32 -47.5t12 -57z" />
<glyph unicode="&#xa9;" horiz-adv-x="1642" d="M1035 526q11 0 20.5 -5.5t17.5 -13.5l91 -95q-55 -73 -141.5 -111t-201.5 -38q-101 0 -182 36t-138 99t-88 148t-31 183q0 102 35.5 187t97.5 147t146 96.5t181 34.5q113 0 194 -38.5t134 -97.5l-72 -99q-7 -8 -18.5 -17t-28.5 -9q-19 0 -33.5 9.5t-34.5 21t-49.5 21 t-77.5 9.5q-56 0 -98.5 -18.5t-72 -53t-44.5 -83.5t-15 -110q0 -65 15.5 -114t43.5 -83t66.5 -51t83.5 -17q48 0 77.5 8.5t50 19t36 20.5t36.5 14zM80 726q0 102 26.5 197t74.5 177t116 150t150 116t176.5 74.5t196.5 26.5t197 -26.5t177.5 -74.5t150 -116t116 -150t75 -177 t26.5 -197t-26.5 -196.5t-75 -176.5t-116 -150t-150 -116t-177.5 -74.5t-197 -26.5t-196.5 26.5t-176.5 74.5t-150 116t-116 150t-74.5 176.5t-26.5 196.5zM229 726q0 -129 45.5 -240.5t125 -194t187.5 -130t233 -47.5t234 47.5t189.5 130t127 194t46.5 240.5q0 86 -21 165 t-59.5 147.5t-92.5 124.5t-120.5 96t-143.5 61.5t-160 21.5q-125 0 -233 -48t-187.5 -131t-125 -195.5t-45.5 -241.5z" />
<glyph unicode="&#xaa;" horiz-adv-x="734" d="M537 841q-27 0 -40.5 8t-25.5 31l-13 32q-23 -20 -44.5 -35t-44.5 -24.5t-49 -14.5t-58 -5q-86 0 -137.5 44.5t-51.5 128.5q0 32 16 66.5t57.5 63t112 48t178.5 22.5v21q0 51 -21.5 70.5t-61.5 19.5q-32 0 -52.5 -6.5t-37 -15t-32.5 -15t-38 -6.5q-20 0 -33.5 12 t-23.5 25l-34 62q57 52 126 75.5t150 23.5q58 0 104.5 -18.5t79 -51.5t50 -78t17.5 -97v-386h-93zM326 966q33 0 58.5 11t52.5 37v73q-53 -2 -87 -8t-53.5 -16t-27 -22.5t-7.5 -25.5q0 -28 16 -38.5t48 -10.5z" />
<glyph unicode="&#xab;" horiz-adv-x="933" d="M86 124zM86 523v35l259 399l90 -41q35 -17 40.5 -45t-11.5 -60l-131 -226q-15 -26 -34 -44q16 -15 34 -44l131 -227q17 -32 11.5 -60t-40.5 -44l-90 -42zM429 523v35l259 399l90 -41q35 -17 40.5 -45t-11.5 -60l-131 -226q-15 -26 -34 -44q16 -15 34 -44l131 -227 q17 -32 11.5 -60t-40.5 -44l-90 -42z" />
<glyph unicode="&#xac;" d="M126 772h897v-482h-233v281h-664v201z" />
<glyph unicode="&#xad;" horiz-adv-x="747" d="M109 719h528v-226h-528v226z" />
<glyph unicode="&#xae;" horiz-adv-x="1642" d="M80 726q0 102 26.5 197t74.5 177t116 150t150 116t176.5 74.5t196.5 26.5t197 -26.5t177.5 -74.5t150 -116t116 -150t75 -177t26.5 -197t-26.5 -196.5t-75 -176.5t-116 -150t-150 -116t-177.5 -74.5t-197 -26.5t-196.5 26.5t-176.5 74.5t-150 116t-116 150t-74.5 176.5 t-26.5 196.5zM229 726q0 -129 45.5 -240.5t125 -194t187.5 -130t233 -47.5q121 0 226 43.5t185 121.5h-215q-49 0 -69 35l-121 249q-10 15 -22.5 22.5t-37.5 7.5h-44v-314h-239v899h335q193 0 282 -68t89 -195q0 -87 -43.5 -154.5t-137.5 -99.5q26 -14 43.5 -35t32.5 -50 l156 -288q83 83 130 195t47 243q0 86 -21 165t-59.5 147.5t-92.5 124.5t-120.5 96t-143.5 61.5t-160 21.5q-125 0 -233 -48t-187.5 -131t-125 -195.5t-45.5 -241.5zM722 760h77q50 0 80.5 8t47 24t22 39t5.5 53q0 29 -5 50.5t-19.5 36t-41.5 22t-70 7.5h-96v-240z" />
<glyph unicode="&#xaf;" horiz-adv-x="800" d="M96 1381h608v-172h-608v172z" />
<glyph unicode="&#xb0;" horiz-adv-x="831" d="M61 1121q0 72 27 135.5t75 111t112.5 74.5t139.5 27t140 -27t112.5 -74.5t75 -111t27.5 -135.5q0 -71 -27.5 -133.5t-75 -110t-112.5 -75t-140 -27.5t-139.5 27.5t-112.5 75t-75 110t-27 133.5zM252 1120q0 -36 12 -66.5t34 -53t51.5 -35.5t65.5 -13q35 0 65 13 t51.5 35.5t33.5 53t12 66.5t-12 67t-33.5 54t-51.5 36t-65 13q-36 0 -65.5 -13t-51.5 -36t-34 -54t-12 -67z" />
<glyph unicode="&#xb1;" d="M691 1255v-346h380v-201h-380v-331h-224v331h-378v201h378v346h224zM89 281h982v-201h-982v201z" />
<glyph unicode="&#xb4;" horiz-adv-x="800" d="M769 1467l-253 -262q-20 -21 -39.5 -29.5t-50.5 -8.5h-166l140 244q15 28 36.5 42t65.5 14h267z" />
<glyph unicode="&#xb5;" horiz-adv-x="1329" d="M434 1031v-604q0 -86 39.5 -137.5t117.5 -51.5q75 0 125.5 40.5t81.5 113.5v639h276v-718q0 -64 29 -94.5t80 -30.5h78v-107q0 -17 -11.5 -33.5t-33.5 -29.5t-53 -21t-70 -8q-42 0 -81.5 12t-72.5 36.5t-58.5 61.5t-39.5 88q-52 -81 -117.5 -125t-150.5 -44 q-108 0 -176 53q11 -43 15 -89.5t4 -87.5v-227h-137q-58 0 -89.5 29t-31.5 84v1251h276z" />
<glyph unicode="&#xb6;" horiz-adv-x="1504" d="M1432 1451v-227h-212v-1436h-241v1436h-217v-1436h-240v831q-104 0 -189 33t-145 89.5t-92.5 132t-32.5 159.5q0 92 32.5 169t92.5 132.5t145 86t189 30.5h910z" />
<glyph unicode="&#xb7;" horiz-adv-x="561" d="M75 595q0 42 16 79t44 64.5t65.5 43t79.5 15.5q43 0 80.5 -15.5t65.5 -43t44 -64.5t16 -79q0 -41 -16 -77.5t-44 -63.5t-65.5 -43t-80.5 -16q-42 0 -79.5 16t-65.5 43t-44 63.5t-16 77.5z" />
<glyph unicode="&#xb8;" horiz-adv-x="800" d="M280 -228q14 0 30 -5.5t42 -5.5q30 0 44 11t14 26q0 25 -33.5 36.5t-107.5 22.5l62 182h154l-26 -95q47 -11 79 -26.5t51.5 -34.5t28 -42t8.5 -48q0 -35 -18.5 -62.5t-52 -46.5t-80.5 -29.5t-104 -10.5q-41 0 -76.5 4.5t-70.5 14.5l25 85q6 24 31 24z" />
<glyph unicode="&#xba;" horiz-adv-x="800" d="M402 1470q73 0 134.5 -22t105.5 -63t68.5 -100t24.5 -133q0 -75 -24.5 -135t-68.5 -101.5t-105.5 -64t-134.5 -22.5q-75 0 -137 22.5t-106.5 64t-69 101.5t-24.5 135q0 74 24.5 133t69 100t106.5 63t137 22zM402 987q60 0 88.5 39t28.5 124q0 86 -28.5 124t-88.5 38 q-64 0 -93 -38t-29 -124q0 -85 29 -124t93 -39z" />
<glyph unicode="&#xbb;" horiz-adv-x="933" d="M108 124zM504 558v-35l-259 -399l-91 42q-35 16 -40.5 44t12.5 60l130 227q15 26 34 44q-19 18 -34 44l-130 226q-18 32 -12.5 60t40.5 45l91 41zM847 558v-35l-259 -399l-91 42q-35 16 -40.5 44t12.5 60l130 227q15 26 34 44q-19 18 -34 44l-130 226q-18 32 -12.5 60 t40.5 45l91 41z" />
<glyph unicode="&#xbf;" horiz-adv-x="923" d="M864 -200q-36 -31 -77.5 -58t-90.5 -47t-105 -31.5t-121 -11.5q-90 0 -163.5 23.5t-125 67t-80 106.5t-28.5 142q0 76 21.5 129t54 90t71.5 62.5t74 48t60.5 45.5t31.5 55l25 143h189l19 -162q6 -52 -12.5 -86.5t-51 -60.5t-72 -47t-73.5 -46.5t-57.5 -60t-23.5 -86.5 q0 -66 45.5 -105.5t120.5 -39.5q54 0 92 12t64.5 26.5t45.5 26.5t36 12q39 0 58 -33zM348 887q0 33 12.5 62.5t34.5 51t51.5 34t64.5 12.5q34 0 64 -12.5t52 -34t34.5 -51t12.5 -62.5q0 -34 -12.5 -63t-34.5 -50.5t-52 -33.5t-64 -12q-35 0 -64.5 12t-51.5 33.5t-34.5 50.5 t-12.5 63z" />
<glyph unicode="&#xc0;" horiz-adv-x="1404" d="M0 0zM1422 0h-233q-39 0 -63.5 18.5t-36.5 47.5l-98 277h-578l-98 -277q-10 -25 -35 -45.5t-63 -20.5h-235l567 1451h307zM486 551h432l-157 444q-14 35 -29.5 82t-30.5 101q-14 -55 -29 -102.5t-29 -82.5zM544 1864q21 0 36.5 -1t28 -5.5t23.5 -13t23 -23.5l213 -271 h-200q-16 0 -28 0.5t-22 3t-19.5 8t-20.5 14.5l-322 288h288z" />
<glyph unicode="&#xc1;" horiz-adv-x="1404" d="M0 0zM1422 0h-233q-39 0 -63.5 18.5t-36.5 47.5l-98 277h-578l-98 -277q-10 -25 -35 -45.5t-63 -20.5h-235l567 1451h307zM486 551h432l-157 444q-14 35 -29.5 82t-30.5 101q-14 -55 -29 -102.5t-29 -82.5zM1139 1864l-323 -286q-11 -9 -21 -14.5t-20.5 -8.5t-23 -4 t-27.5 -1h-200l200 271q11 15 21.5 23.5t23 13t28.5 5.5t37 1h305z" />
<glyph unicode="&#xc2;" horiz-adv-x="1404" d="M0 0zM1422 0h-233q-39 0 -63.5 18.5t-36.5 47.5l-98 277h-578l-98 -277q-10 -25 -35 -45.5t-63 -20.5h-235l567 1451h307zM486 551h432l-157 444q-14 35 -29.5 82t-30.5 101q-14 -55 -29 -102.5t-29 -82.5zM1073 1550h-200q-16 0 -39.5 6t-48.5 35l-68 94l-16 23l-16 -23 l-68 -94q-25 -29 -48.5 -35t-39.5 -6h-191l242 276h250z" />
<glyph unicode="&#xc3;" horiz-adv-x="1404" d="M0 0zM1422 0h-233q-39 0 -63.5 18.5t-36.5 47.5l-98 277h-578l-98 -277q-10 -25 -35 -45.5t-63 -20.5h-235l567 1451h307zM486 551h432l-157 444q-14 35 -29.5 82t-30.5 101q-14 -55 -29 -102.5t-29 -82.5zM825 1713q22 0 38 8.5t26 22t15 29.5t5 31h167q0 -52 -14 -100 t-41.5 -85t-68 -59.5t-93.5 -22.5t-91.5 15.5t-69 34t-56 34t-52.5 15.5q-22 0 -37.5 -9t-25 -23t-14.5 -30t-5 -31h-169q0 52 14.5 100.5t42 86t68 60t93.5 22.5t92 -15.5t69 -34t55.5 -34t51.5 -15.5z" />
<glyph unicode="&#xc4;" horiz-adv-x="1404" d="M0 0zM1422 0h-233q-39 0 -63.5 18.5t-36.5 47.5l-98 277h-578l-98 -277q-10 -25 -35 -45.5t-63 -20.5h-235l567 1451h307zM486 551h432l-157 444q-14 35 -29.5 82t-30.5 101q-14 -55 -29 -102.5t-29 -82.5zM621 1667q0 -29 -11.5 -54.5t-32 -44t-47.5 -29.5t-57 -11 q-28 0 -53 11t-44.5 29.5t-31 44t-11.5 54.5t11.5 55.5t31 46t44.5 31t53 11.5q30 0 57 -11.5t47.5 -31t32 -46t11.5 -55.5zM1069 1667q0 -29 -11.5 -54.5t-31 -44t-45.5 -29.5t-56 -11t-56 11t-45.5 29.5t-31 44t-11.5 54.5t11.5 55.5t31 46t45.5 31t56 11.5t56 -11.5 t45.5 -31t31 -46t11.5 -55.5z" />
<glyph unicode="&#xc5;" horiz-adv-x="1404" d="M0 0zM1422 0h-233q-39 0 -63.5 18.5t-36.5 47.5l-98 277h-578l-98 -277q-10 -25 -35 -45.5t-63 -20.5h-235l567 1451h307zM486 551h432l-157 444q-14 35 -29.5 82t-30.5 101q-14 -55 -29 -102.5t-29 -82.5zM487 1710q0 44 17.5 80.5t47 62.5t68 40t80.5 14q44 0 84 -14 t70 -40t47.5 -62.5t17.5 -80.5q0 -43 -17.5 -78.5t-47.5 -60.5t-70 -39t-84 -14q-42 0 -80.5 14t-68 39t-47 60.5t-17.5 78.5zM618 1710q0 -38 22 -61.5t64 -23.5q38 0 61 23.5t23 61.5q0 40 -23 63.5t-61 23.5q-42 0 -64 -23.5t-22 -63.5z" />
<glyph unicode="&#xc6;" horiz-adv-x="1868" d="M701 1451h1094v-235h-672l46 -373h488v-227h-460l46 -381h552v-235h-808l-42 343h-503l-128 -277q-14 -29 -43 -47.5t-69 -18.5h-228zM538 551h382l-82 678q-17 -55 -36 -102.5t-38 -87.5z" />
<glyph unicode="&#xc7;" horiz-adv-x="1318" d="M656 -228q14 0 30 -5.5t42 -5.5q30 0 44 11t14 26q0 25 -33.5 36.5t-107.5 22.5l44 131q-144 14 -259 74.5t-195.5 158t-123 226.5t-42.5 279q0 108 23.5 205.5t68.5 179.5t108.5 148t143.5 112.5t174.5 71t201.5 24.5q80 0 151.5 -14t133.5 -39t114.5 -60.5t94.5 -77.5 l-101 -138q-9 -13 -23 -23t-38 -10t-48.5 17t-60 38t-89 38t-135.5 17q-91 0 -167 -33t-130.5 -95.5t-84.5 -153.5t-30 -207q0 -117 32.5 -208.5t89 -154.5t132 -95.5t161.5 -32.5q51 0 92.5 5t77 17t67 31t63.5 48q11 9 23 15t26 6q25 0 42 -18l119 -127 q-78 -100 -190.5 -157t-264.5 -68l-11 -43q47 -11 79 -26.5t51.5 -34.5t28 -42t8.5 -48q0 -35 -18.5 -62.5t-52 -46.5t-80.5 -29.5t-104 -10.5q-41 0 -76.5 4.5t-70.5 14.5l25 85q6 24 31 24z" />
<glyph unicode="&#xc8;" horiz-adv-x="1148" d="M152 0zM1076 1451v-235h-622v-373h484v-227h-484v-381h622v-235h-924v1451h924zM472 1864q21 0 36.5 -1t28 -5.5t23.5 -13t23 -23.5l213 -271h-200q-16 0 -28 0.5t-22 3t-19.5 8t-20.5 14.5l-322 288h288z" />
<glyph unicode="&#xc9;" horiz-adv-x="1148" d="M152 0zM1076 1451v-235h-622v-373h484v-227h-484v-381h622v-235h-924v1451h924zM1067 1864l-323 -286q-11 -9 -21 -14.5t-20.5 -8.5t-23 -4t-27.5 -1h-200l200 271q11 15 21.5 23.5t23 13t28.5 5.5t37 1h305z" />
<glyph unicode="&#xca;" horiz-adv-x="1148" d="M152 0zM1076 1451v-235h-622v-373h484v-227h-484v-381h622v-235h-924v1451h924zM1002 1550h-200q-16 0 -39.5 6t-48.5 35l-68 94l-16 23l-16 -23l-68 -94q-25 -29 -48.5 -35t-39.5 -6h-191l242 276h250z" />
<glyph unicode="&#xcb;" horiz-adv-x="1148" d="M152 0zM1076 1451v-235h-622v-373h484v-227h-484v-381h622v-235h-924v1451h924zM550 1667q0 -29 -11.5 -54.5t-32 -44t-47.5 -29.5t-57 -11q-28 0 -53 11t-44.5 29.5t-31 44t-11.5 54.5t11.5 55.5t31 46t44.5 31t53 11.5q30 0 57 -11.5t47.5 -31t32 -46t11.5 -55.5z M998 1667q0 -29 -11.5 -54.5t-31 -44t-45.5 -29.5t-56 -11t-56 11t-45.5 29.5t-31 44t-11.5 54.5t11.5 55.5t31 46t45.5 31t56 11.5t56 -11.5t45.5 -31t31 -46t11.5 -55.5z" />
<glyph unicode="&#xcc;" horiz-adv-x="606" d="M0 0zM454 0h-302v1451h302v-1451zM149 1864q21 0 36.5 -1t28 -5.5t23.5 -13t23 -23.5l213 -271h-200q-16 0 -28 0.5t-22 3t-19.5 8t-20.5 14.5l-322 288h288z" />
<glyph unicode="&#xcd;" horiz-adv-x="606" d="M129 0zM454 0h-302v1451h302v-1451zM744 1864l-323 -286q-11 -9 -21 -14.5t-20.5 -8.5t-23 -4t-27.5 -1h-200l200 271q11 15 21.5 23.5t23 13t28.5 5.5t37 1h305z" />
<glyph unicode="&#xce;" horiz-adv-x="606" d="M0 0zM454 0h-302v1451h302v-1451zM679 1550h-200q-16 0 -39.5 6t-48.5 35l-68 94l-16 23l-16 -23l-68 -94q-25 -29 -48.5 -35t-39.5 -6h-191l242 276h250z" />
<glyph unicode="&#xcf;" horiz-adv-x="606" d="M0 0zM454 0h-302v1451h302v-1451zM227 1667q0 -29 -11.5 -54.5t-32 -44t-47.5 -29.5t-57 -11q-28 0 -53 11t-44.5 29.5t-31 44t-11.5 54.5t11.5 55.5t31 46t44.5 31t53 11.5q30 0 57 -11.5t47.5 -31t32 -46t11.5 -55.5zM675 1667q0 -29 -11.5 -54.5t-31 -44t-45.5 -29.5 t-56 -11t-56 11t-45.5 29.5t-31 44t-11.5 54.5t11.5 55.5t31 46t45.5 31t56 11.5t56 -11.5t45.5 -31t31 -46t11.5 -55.5z" />
<glyph unicode="&#xd0;" horiz-adv-x="1541" d="M-2 813h174v638h558q167 0 304 -54t234.5 -150.5t151 -229.5t53.5 -291q0 -159 -53.5 -292.5t-151 -229.5t-234.5 -150t-304 -54h-558v646h-174v167zM1165 726q0 114 -30 205t-86 154t-136.5 97t-182.5 34h-256v-403h256v-167h-256v-411h256q102 0 182.5 33.5t136.5 97 t86 154.5t30 206z" />
<glyph unicode="&#xd1;" horiz-adv-x="1547" d="M310 1451q19 0 32.5 -1.5t24.5 -7t21 -14.5t22 -24l728 -925q-4 38 -6 74t-2 68v830h265v-1451h-155q-35 0 -59 11.5t-47 39.5l-723 919q3 -35 4.5 -68.5t1.5 -62.5v-839h-265v1451h158zM903 1713q22 0 38 8.5t26 22t15 29.5t5 31h167q0 -52 -14 -100t-41.5 -85 t-68 -59.5t-93.5 -22.5t-91.5 15.5t-69 34t-56 34t-52.5 15.5q-22 0 -37.5 -9t-25 -23t-14.5 -30t-5 -31h-169q0 52 14.5 100.5t42 86t68 60t93.5 22.5t92 -15.5t69 -34t55.5 -34t51.5 -15.5z" />
<glyph unicode="&#xd2;" horiz-adv-x="1622" d="M67 0zM1554 726q0 -159 -53.5 -295t-151 -235t-234.5 -155.5t-304 -56.5t-304 56.5t-235 155.5t-151.5 235t-53.5 295t53.5 294.5t151.5 234.5t235 155.5t304 56.5t304 -56.5t234.5 -156t151 -235t53.5 -293.5zM1247 726q0 114 -30 204.5t-86.5 154t-137 97t-182.5 33.5 t-183 -33.5t-137.5 -97t-86.5 -154t-30 -204.5q0 -115 30 -205.5t86.5 -153.5t137.5 -96.5t183 -33.5t182.5 33.5t137 96.5t86.5 153.5t30 205.5zM656 1864q21 0 36.5 -1t28 -5.5t23.5 -13t23 -23.5l213 -271h-200q-16 0 -28 0.5t-22 3t-19.5 8t-20.5 14.5l-322 288h288z " />
<glyph unicode="&#xd3;" horiz-adv-x="1622" d="M67 0zM1554 726q0 -159 -53.5 -295t-151 -235t-234.5 -155.5t-304 -56.5t-304 56.5t-235 155.5t-151.5 235t-53.5 295t53.5 294.5t151.5 234.5t235 155.5t304 56.5t304 -56.5t234.5 -156t151 -235t53.5 -293.5zM1247 726q0 114 -30 204.5t-86.5 154t-137 97t-182.5 33.5 t-183 -33.5t-137.5 -97t-86.5 -154t-30 -204.5q0 -115 30 -205.5t86.5 -153.5t137.5 -96.5t183 -33.5t182.5 33.5t137 96.5t86.5 153.5t30 205.5zM1251 1864l-323 -286q-11 -9 -21 -14.5t-20.5 -8.5t-23 -4t-27.5 -1h-200l200 271q11 15 21.5 23.5t23 13t28.5 5.5t37 1h305z " />
<glyph unicode="&#xd4;" horiz-adv-x="1622" d="M67 0zM1554 726q0 -159 -53.5 -295t-151 -235t-234.5 -155.5t-304 -56.5t-304 56.5t-235 155.5t-151.5 235t-53.5 295t53.5 294.5t151.5 234.5t235 155.5t304 56.5t304 -56.5t234.5 -156t151 -235t53.5 -293.5zM1247 726q0 114 -30 204.5t-86.5 154t-137 97t-182.5 33.5 t-183 -33.5t-137.5 -97t-86.5 -154t-30 -204.5q0 -115 30 -205.5t86.5 -153.5t137.5 -96.5t183 -33.5t182.5 33.5t137 96.5t86.5 153.5t30 205.5zM1185 1550h-200q-16 0 -39.5 6t-48.5 35l-68 94l-16 23l-16 -23l-68 -94q-25 -29 -48.5 -35t-39.5 -6h-191l242 276h250z" />
<glyph unicode="&#xd5;" horiz-adv-x="1622" d="M67 0zM1554 726q0 -159 -53.5 -295t-151 -235t-234.5 -155.5t-304 -56.5t-304 56.5t-235 155.5t-151.5 235t-53.5 295t53.5 294.5t151.5 234.5t235 155.5t304 56.5t304 -56.5t234.5 -156t151 -235t53.5 -293.5zM1247 726q0 114 -30 204.5t-86.5 154t-137 97t-182.5 33.5 t-183 -33.5t-137.5 -97t-86.5 -154t-30 -204.5q0 -115 30 -205.5t86.5 -153.5t137.5 -96.5t183 -33.5t182.5 33.5t137 96.5t86.5 153.5t30 205.5zM937 1713q22 0 38 8.5t26 22t15 29.5t5 31h167q0 -52 -14 -100t-41.5 -85t-68 -59.5t-93.5 -22.5t-91.5 15.5t-69 34t-56 34 t-52.5 15.5q-22 0 -37.5 -9t-25 -23t-14.5 -30t-5 -31h-169q0 52 14.5 100.5t42 86t68 60t93.5 22.5t92 -15.5t69 -34t55.5 -34t51.5 -15.5z" />
<glyph unicode="&#xd6;" horiz-adv-x="1622" d="M67 0zM1554 726q0 -159 -53.5 -295t-151 -235t-234.5 -155.5t-304 -56.5t-304 56.5t-235 155.5t-151.5 235t-53.5 295t53.5 294.5t151.5 234.5t235 155.5t304 56.5t304 -56.5t234.5 -156t151 -235t53.5 -293.5zM1247 726q0 114 -30 204.5t-86.5 154t-137 97t-182.5 33.5 t-183 -33.5t-137.5 -97t-86.5 -154t-30 -204.5q0 -115 30 -205.5t86.5 -153.5t137.5 -96.5t183 -33.5t182.5 33.5t137 96.5t86.5 153.5t30 205.5zM733 1667q0 -29 -11.5 -54.5t-32 -44t-47.5 -29.5t-57 -11q-28 0 -53 11t-44.5 29.5t-31 44t-11.5 54.5t11.5 55.5t31 46 t44.5 31t53 11.5q30 0 57 -11.5t47.5 -31t32 -46t11.5 -55.5zM1181 1667q0 -29 -11.5 -54.5t-31 -44t-45.5 -29.5t-56 -11t-56 11t-45.5 29.5t-31 44t-11.5 54.5t11.5 55.5t31 46t45.5 31t56 11.5t56 -11.5t45.5 -31t31 -46t11.5 -55.5z" />
<glyph unicode="&#xd8;" horiz-adv-x="1622" d="M1554 726q0 -159 -53.5 -295t-151 -235t-234.5 -155.5t-304 -56.5q-98 0 -185 19.5t-163 55.5l-67 -93q-32 -43 -76.5 -60.5t-88.5 -17.5h-117l197 272q-116 101 -180 246t-64 320q0 159 53.5 294.5t151.5 234.5t235 155.5t304 56.5q108 0 203 -23.5t176 -68.5l51 70 q15 20 27 33.5t25.5 22t30.5 12.5t41 4h153l-181 -250q104 -101 160.5 -239t56.5 -302zM374 726q0 -107 25.5 -192t74.5 -148l561 775q-48 26 -103.5 40t-120.5 14q-102 0 -183 -33.5t-137.5 -97t-86.5 -154t-30 -204.5zM1247 726q0 94 -20.5 171t-58.5 137l-549 -760 q86 -37 192 -37q102 0 182.5 33.5t137 96.5t86.5 153.5t30 205.5z" />
<glyph unicode="&#xd9;" horiz-adv-x="1491" d="M134 0zM746 240q73 0 131 24.5t98 69.5t61 109t21 144v864h300v-864q0 -132 -42.5 -242.5t-121.5 -190.5t-192 -125t-255 -45t-255.5 45t-192.5 125t-121.5 190.5t-42.5 242.5v864h300v-864q0 -80 21 -144t61 -109t98 -69.5t132 -24.5zM588 1864q21 0 36.5 -1t28 -5.5 t23.5 -13t23 -23.5l213 -271h-200q-16 0 -28 0.5t-22 3t-19.5 8t-20.5 14.5l-322 288h288z" />
<glyph unicode="&#xda;" horiz-adv-x="1491" d="M134 0zM746 240q73 0 131 24.5t98 69.5t61 109t21 144v864h300v-864q0 -132 -42.5 -242.5t-121.5 -190.5t-192 -125t-255 -45t-255.5 45t-192.5 125t-121.5 190.5t-42.5 242.5v864h300v-864q0 -80 21 -144t61 -109t98 -69.5t132 -24.5zM1183 1864l-323 -286 q-11 -9 -21 -14.5t-20.5 -8.5t-23 -4t-27.5 -1h-200l200 271q11 15 21.5 23.5t23 13t28.5 5.5t37 1h305z" />
<glyph unicode="&#xdb;" horiz-adv-x="1491" d="M134 0zM746 240q73 0 131 24.5t98 69.5t61 109t21 144v864h300v-864q0 -132 -42.5 -242.5t-121.5 -190.5t-192 -125t-255 -45t-255.5 45t-192.5 125t-121.5 190.5t-42.5 242.5v864h300v-864q0 -80 21 -144t61 -109t98 -69.5t132 -24.5zM1118 1550h-200q-16 0 -39.5 6 t-48.5 35l-68 94l-16 23l-16 -23l-68 -94q-25 -29 -48.5 -35t-39.5 -6h-191l242 276h250z" />
<glyph unicode="&#xdc;" horiz-adv-x="1491" d="M134 0zM746 240q73 0 131 24.5t98 69.5t61 109t21 144v864h300v-864q0 -132 -42.5 -242.5t-121.5 -190.5t-192 -125t-255 -45t-255.5 45t-192.5 125t-121.5 190.5t-42.5 242.5v864h300v-864q0 -80 21 -144t61 -109t98 -69.5t132 -24.5zM666 1667q0 -29 -11.5 -54.5 t-32 -44t-47.5 -29.5t-57 -11q-28 0 -53 11t-44.5 29.5t-31 44t-11.5 54.5t11.5 55.5t31 46t44.5 31t53 11.5q30 0 57 -11.5t47.5 -31t32 -46t11.5 -55.5zM1114 1667q0 -29 -11.5 -54.5t-31 -44t-45.5 -29.5t-56 -11t-56 11t-45.5 29.5t-31 44t-11.5 54.5t11.5 55.5t31 46 t45.5 31t56 11.5t56 -11.5t45.5 -31t31 -46t11.5 -55.5z" />
<glyph unicode="&#xdd;" horiz-adv-x="1316" d="M0 0zM808 557v-557h-300v557l-527 894h264q39 0 62.5 -18.5t37.5 -47.5l238 -457q24 -46 43.5 -86t33.5 -80q28 77 75 166l236 457q12 24 36 45t62 21h266zM1098 1864l-323 -286q-11 -9 -21 -14.5t-20.5 -8.5t-23 -4t-27.5 -1h-200l200 271q11 15 21.5 23.5t23 13 t28.5 5.5t37 1h305z" />
<glyph unicode="&#xde;" horiz-adv-x="1246" d="M452 257v-257h-300v1451h300v-242h190q149 0 257.5 -35t178.5 -97.5t103.5 -148.5t33.5 -187q0 -107 -35 -196t-106 -153t-179 -99.5t-253 -35.5h-190zM452 487h190q141 0 206.5 67.5t65.5 186.5q0 54 -16.5 98.5t-50 76t-84.5 48.5t-121 17h-190v-494z" />
<glyph unicode="&#xdf;" horiz-adv-x="1224" d="M653 1477q82 0 147.5 -16.5t115.5 -43.5t85.5 -63t58.5 -74.5t33.5 -77.5t10.5 -73q0 -57 -19 -97.5t-47 -70.5t-61 -52.5t-61 -42.5t-47 -41.5t-19 -48.5q0 -31 24 -54.5t60.5 -46.5t78.5 -50t78.5 -65.5t60.5 -92.5t24 -130q0 -87 -32.5 -153.5t-88 -110.5 t-128.5 -66.5t-154 -22.5q-45 0 -90.5 9.5t-87.5 27t-80 40.5t-68 50l64 103q11 18 27.5 28t42.5 10q25 0 46.5 -12.5t45.5 -27t53.5 -27t71.5 -12.5q52 0 86 33.5t34 87.5q0 44 -26.5 73.5t-66 54t-86 48.5t-86 57t-66 79t-26.5 116q0 59 20.5 100.5t51 73t66 57t66 51 t51 55t20.5 69.5q0 33 -11 61t-35 48.5t-61 32t-88 11.5q-129 0 -190.5 -80.5t-61.5 -228.5v-972h-275v981q0 106 37 197t106.5 157.5t169.5 104t226 37.5z" />
<glyph unicode="&#xe0;" horiz-adv-x="1024" d="M42 0zM796 0q-39 0 -59.5 11t-33.5 46l-22 65q-39 -34 -75.5 -59.5t-76 -43t-84 -26.5t-98.5 -9q-68 0 -124 18t-96.5 53.5t-62.5 88.5t-22 122q0 57 29 113.5t99.5 103t188 77.5t294.5 35v53q0 97 -41 142.5t-118 45.5q-57 0 -95 -13.5t-66.5 -29t-53.5 -29t-58 -13.5 q-29 0 -48.5 14.5t-32.5 34.5l-49 88q91 82 201 122.5t238 40.5q92 0 164.5 -30t123 -83.5t77.5 -127.5t27 -162v-648h-126zM433 170q68 0 119 24.5t101 75.5v160q-101 -4 -168 -17t-106.5 -32.5t-56 -45t-16.5 -55.5q0 -60 33.5 -85t93.5 -25zM421 1467q43 0 64.5 -14 t37.5 -42l139 -244h-156q-31 0 -50.5 8.5t-39.5 29.5l-253 262h258z" />
<glyph unicode="&#xe1;" horiz-adv-x="1024" d="M42 0zM796 0q-39 0 -59.5 11t-33.5 46l-22 65q-39 -34 -75.5 -59.5t-76 -43t-84 -26.5t-98.5 -9q-68 0 -124 18t-96.5 53.5t-62.5 88.5t-22 122q0 57 29 113.5t99.5 103t188 77.5t294.5 35v53q0 97 -41 142.5t-118 45.5q-57 0 -95 -13.5t-66.5 -29t-53.5 -29t-58 -13.5 q-29 0 -48.5 14.5t-32.5 34.5l-49 88q91 82 201 122.5t238 40.5q92 0 164.5 -30t123 -83.5t77.5 -127.5t27 -162v-648h-126zM433 170q68 0 119 24.5t101 75.5v160q-101 -4 -168 -17t-106.5 -32.5t-56 -45t-16.5 -55.5q0 -60 33.5 -85t93.5 -25zM874 1467l-253 -262 q-20 -21 -39.5 -29.5t-50.5 -8.5h-166l140 244q15 28 36.5 42t65.5 14h267z" />
<glyph unicode="&#xe2;" horiz-adv-x="1024" d="M42 0zM796 0q-39 0 -59.5 11t-33.5 46l-22 65q-39 -34 -75.5 -59.5t-76 -43t-84 -26.5t-98.5 -9q-68 0 -124 18t-96.5 53.5t-62.5 88.5t-22 122q0 57 29 113.5t99.5 103t188 77.5t294.5 35v53q0 97 -41 142.5t-118 45.5q-57 0 -95 -13.5t-66.5 -29t-53.5 -29t-58 -13.5 q-29 0 -48.5 14.5t-32.5 34.5l-49 88q91 82 201 122.5t238 40.5q92 0 164.5 -30t123 -83.5t77.5 -127.5t27 -162v-648h-126zM433 170q68 0 119 24.5t101 75.5v160q-101 -4 -168 -17t-106.5 -32.5t-56 -45t-16.5 -55.5q0 -60 33.5 -85t93.5 -25zM866 1168h-184q-16 0 -31 5.5 t-31 20.5l-88 95q-6 5 -11.5 11.5t-10.5 13.5q-6 -8 -12 -14l-11 -11l-90 -95q-28 -26 -62 -26h-191l232 283h258z" />
<glyph unicode="&#xe3;" horiz-adv-x="1024" d="M42 0zM796 0q-39 0 -59.5 11t-33.5 46l-22 65q-39 -34 -75.5 -59.5t-76 -43t-84 -26.5t-98.5 -9q-68 0 -124 18t-96.5 53.5t-62.5 88.5t-22 122q0 57 29 113.5t99.5 103t188 77.5t294.5 35v53q0 97 -41 142.5t-118 45.5q-57 0 -95 -13.5t-66.5 -29t-53.5 -29t-58 -13.5 q-29 0 -48.5 14.5t-32.5 34.5l-49 88q91 82 201 122.5t238 40.5q92 0 164.5 -30t123 -83.5t77.5 -127.5t27 -162v-648h-126zM433 170q68 0 119 24.5t101 75.5v160q-101 -4 -168 -17t-106.5 -32.5t-56 -45t-16.5 -55.5q0 -60 33.5 -85t93.5 -25zM611 1372q27 0 43 14.5 t16 56.5h168q0 -59 -16.5 -107t-45.5 -81.5t-69 -52t-86 -18.5q-36 0 -67.5 12.5t-59 27t-50.5 27t-41 12.5q-27 0 -42.5 -15.5t-15.5 -57.5h-170q0 59 16.5 107t46 82t69 52.5t85.5 18.5q37 0 69 -12t59 -27t49.5 -27t41.5 -12z" />
<glyph unicode="&#xe4;" horiz-adv-x="1024" d="M42 0zM796 0q-39 0 -59.5 11t-33.5 46l-22 65q-39 -34 -75.5 -59.5t-76 -43t-84 -26.5t-98.5 -9q-68 0 -124 18t-96.5 53.5t-62.5 88.5t-22 122q0 57 29 113.5t99.5 103t188 77.5t294.5 35v53q0 97 -41 142.5t-118 45.5q-57 0 -95 -13.5t-66.5 -29t-53.5 -29t-58 -13.5 q-29 0 -48.5 14.5t-32.5 34.5l-49 88q91 82 201 122.5t238 40.5q92 0 164.5 -30t123 -83.5t77.5 -127.5t27 -162v-648h-126zM433 170q68 0 119 24.5t101 75.5v160q-101 -4 -168 -17t-106.5 -32.5t-56 -45t-16.5 -55.5q0 -60 33.5 -85t93.5 -25zM446 1294q0 -30 -12 -56 t-32.5 -45.5t-48 -30.5t-58.5 -11q-29 0 -55.5 11t-46.5 30.5t-32 45.5t-12 56t12 57t32 47.5t46.5 32t55.5 11.5q31 0 58.5 -11.5t48 -32t32.5 -47.5t12 -57zM861 1294q0 -30 -12 -56t-32 -45.5t-47.5 -30.5t-58.5 -11q-30 0 -57 11t-47 30.5t-31.5 45.5t-11.5 56t11.5 57 t31.5 47.5t47 32t57 11.5q31 0 58.5 -11.5t47.5 -32t32 -47.5t12 -57z" />
<glyph unicode="&#xe5;" horiz-adv-x="1024" d="M42 0zM796 0q-39 0 -59.5 11t-33.5 46l-22 65q-39 -34 -75.5 -59.5t-76 -43t-84 -26.5t-98.5 -9q-68 0 -124 18t-96.5 53.5t-62.5 88.5t-22 122q0 57 29 113.5t99.5 103t188 77.5t294.5 35v53q0 97 -41 142.5t-118 45.5q-57 0 -95 -13.5t-66.5 -29t-53.5 -29t-58 -13.5 q-29 0 -48.5 14.5t-32.5 34.5l-49 88q91 82 201 122.5t238 40.5q92 0 164.5 -30t123 -83.5t77.5 -127.5t27 -162v-648h-126zM433 170q68 0 119 24.5t101 75.5v160q-101 -4 -168 -17t-106.5 -32.5t-56 -45t-16.5 -55.5q0 -60 33.5 -85t93.5 -25zM275 1329q0 48 19 87.5 t50.5 67t73 43t87.5 15.5q47 0 90 -15.5t75.5 -43t51.5 -67t19 -87.5q0 -47 -19 -85t-51.5 -65t-75.5 -42t-90 -15q-46 0 -87.5 15t-73 42t-50.5 65t-19 85zM423 1329q0 -38 22 -61.5t64 -23.5q38 0 61 23.5t23 61.5q0 40 -23 63.5t-61 23.5q-42 0 -64 -23.5t-22 -63.5z" />
<glyph unicode="&#xe6;" horiz-adv-x="1623" d="M1145 1047q90 0 166.5 -34t132.5 -98t88 -154.5t32 -203.5q0 -31 -2.5 -51t-9.5 -32t-18.5 -16.5t-30.5 -4.5h-586q16 -134 81 -196.5t167 -62.5q67 0 108.5 12.5t68.5 27.5t45.5 27.5t41.5 12.5q38 0 56 -24l74 -93q-44 -51 -96 -84.5t-107 -53t-110.5 -27t-107.5 -7.5 q-53 0 -103.5 11.5t-96.5 35t-86.5 60t-71.5 86.5q-31 -51 -75 -87.5t-97.5 -60.5t-113 -35t-122.5 -11q-77 0 -137.5 19.5t-103 57t-65 92t-22.5 124.5q0 38 12.5 77.5t41 76t75 69.5t114.5 58.5t159 41t209 18.5v30q0 97 -41 146.5t-118 49.5q-57 0 -95 -14.5t-66.5 -32 t-53.5 -32t-58 -14.5q-29 0 -48.5 14.5t-32.5 34.5l-49 88q91 82 190 122.5t219 40.5q115 0 189 -42t115 -115q57 71 142 112t197 41zM1133 853q-97 0 -149.5 -61.5t-66.5 -174.5h402q0 44 -10.5 86.5t-33 75.5t-58 53.5t-84.5 20.5zM655 453q-101 -5 -168 -19.5t-106.5 -36 t-56 -49t-16.5 -57.5q0 -62 34 -91.5t97 -29.5q46 0 85.5 14t68.5 44t45.5 77.5t16.5 115.5v32z" />
<glyph unicode="&#xe7;" horiz-adv-x="970" d="M418 -228q14 0 30 -5.5t42 -5.5q30 0 44 11t14 26q0 25 -33.5 36.5t-107.5 22.5l45 134q-82 13 -153.5 54t-124.5 108t-83.5 158.5t-30.5 205.5q0 113 33 210t97 168t158.5 111.5t218.5 40.5q118 0 207 -38t160 -110l-72 -98q-12 -16 -24 -24.5t-34 -8.5 q-20 0 -38.5 11.5t-42.5 25t-57 25t-82 11.5q-62 0 -107.5 -22.5t-75.5 -64.5t-44.5 -102t-14.5 -135q0 -158 63.5 -242t173.5 -84q38 0 65.5 6.5t48 16.5t35.5 22t28.5 22t27 16.5t30.5 6.5q32 0 50 -24l79 -100q-36 -42 -76 -72t-83 -49.5t-87 -31t-89 -15.5l-12 -45 q48 -11 80 -26.5t51.5 -34.5t28 -42t8.5 -48q0 -35 -18.5 -62.5t-52 -46.5t-80.5 -29.5t-104 -10.5q-41 0 -76.5 4.5t-71.5 14.5l26 85q6 24 31 24z" />
<glyph unicode="&#xe8;" horiz-adv-x="1072" d="M59 0zM561 1047q99 0 182.5 -31.5t144 -91.5t94 -147.5t33.5 -199.5q0 -31 -3 -51t-10 -32t-19 -16.5t-31 -4.5h-619q13 -145 82.5 -212t182.5 -67q57 0 98.5 13.5t73 30t57 30t50.5 13.5q32 0 50 -24l80 -100q-44 -51 -97 -84.5t-110 -53t-115 -27t-112 -7.5 q-108 0 -201.5 35.5t-163 105t-109.5 172.5t-40 239q0 105 34.5 198t99.5 162t158 109.5t210 40.5zM566 853q-99 0 -155 -56.5t-73 -159.5h430q0 43 -11.5 82t-36.5 69t-63 47.5t-91 17.5zM483 1467q43 0 64.5 -14t37.5 -42l139 -244h-156q-31 0 -50.5 8.5t-39.5 29.5 l-253 262h258z" />
<glyph unicode="&#xe9;" horiz-adv-x="1072" d="M59 0zM561 1047q99 0 182.5 -31.5t144 -91.5t94 -147.5t33.5 -199.5q0 -31 -3 -51t-10 -32t-19 -16.5t-31 -4.5h-619q13 -145 82.5 -212t182.5 -67q57 0 98.5 13.5t73 30t57 30t50.5 13.5q32 0 50 -24l80 -100q-44 -51 -97 -84.5t-110 -53t-115 -27t-112 -7.5 q-108 0 -201.5 35.5t-163 105t-109.5 172.5t-40 239q0 105 34.5 198t99.5 162t158 109.5t210 40.5zM566 853q-99 0 -155 -56.5t-73 -159.5h430q0 43 -11.5 82t-36.5 69t-63 47.5t-91 17.5zM936 1467l-253 -262q-20 -21 -39.5 -29.5t-50.5 -8.5h-166l140 244q15 28 36.5 42 t65.5 14h267z" />
<glyph unicode="&#xea;" horiz-adv-x="1072" d="M59 0zM561 1047q99 0 182.5 -31.5t144 -91.5t94 -147.5t33.5 -199.5q0 -31 -3 -51t-10 -32t-19 -16.5t-31 -4.5h-619q13 -145 82.5 -212t182.5 -67q57 0 98.5 13.5t73 30t57 30t50.5 13.5q32 0 50 -24l80 -100q-44 -51 -97 -84.5t-110 -53t-115 -27t-112 -7.5 q-108 0 -201.5 35.5t-163 105t-109.5 172.5t-40 239q0 105 34.5 198t99.5 162t158 109.5t210 40.5zM566 853q-99 0 -155 -56.5t-73 -159.5h430q0 43 -11.5 82t-36.5 69t-63 47.5t-91 17.5zM928 1168h-184q-16 0 -31 5.5t-31 20.5l-88 95q-6 5 -11.5 11.5t-10.5 13.5 q-6 -8 -12 -14l-11 -11l-90 -95q-28 -26 -62 -26h-191l232 283h258z" />
<glyph unicode="&#xeb;" horiz-adv-x="1072" d="M59 0zM561 1047q99 0 182.5 -31.5t144 -91.5t94 -147.5t33.5 -199.5q0 -31 -3 -51t-10 -32t-19 -16.5t-31 -4.5h-619q13 -145 82.5 -212t182.5 -67q57 0 98.5 13.5t73 30t57 30t50.5 13.5q32 0 50 -24l80 -100q-44 -51 -97 -84.5t-110 -53t-115 -27t-112 -7.5 q-108 0 -201.5 35.5t-163 105t-109.5 172.5t-40 239q0 105 34.5 198t99.5 162t158 109.5t210 40.5zM566 853q-99 0 -155 -56.5t-73 -159.5h430q0 43 -11.5 82t-36.5 69t-63 47.5t-91 17.5zM508 1294q0 -30 -12 -56t-32.5 -45.5t-48 -30.5t-58.5 -11q-29 0 -55.5 11 t-46.5 30.5t-32 45.5t-12 56t12 57t32 47.5t46.5 32t55.5 11.5q31 0 58.5 -11.5t48 -32t32.5 -47.5t12 -57zM923 1294q0 -30 -12 -56t-32 -45.5t-47.5 -30.5t-58.5 -11q-30 0 -57 11t-47 30.5t-31.5 45.5t-11.5 56t11.5 57t31.5 47.5t47 32t57 11.5q31 0 58.5 -11.5 t47.5 -32t32 -47.5t12 -57z" />
<glyph unicode="&#xec;" horiz-adv-x="520" d="M0 0zM398 1031v-1031h-276v1031h276zM184 1467q43 0 64.5 -14t37.5 -42l139 -244h-156q-31 0 -50.5 8.5t-39.5 29.5l-253 262h258z" />
<glyph unicode="&#xed;" horiz-adv-x="521" d="M123 0zM399 1031v-1031h-276v1031h276zM638 1467l-253 -262q-20 -21 -39.5 -29.5t-50.5 -8.5h-166l140 244q15 28 36.5 42t65.5 14h267z" />
<glyph unicode="&#xee;" horiz-adv-x="520" d="M0 0zM398 1031v-1031h-276v1031h276zM629 1168h-184q-16 0 -31 5.5t-31 20.5l-88 95q-6 5 -11.5 11.5t-10.5 13.5q-6 -8 -12 -14l-11 -11l-90 -95q-28 -26 -62 -26h-191l232 283h258z" />
<glyph unicode="&#xef;" horiz-adv-x="520" d="M0 0zM398 1031v-1031h-276v1031h276zM240 1294q0 -30 -12 -56t-32.5 -45.5t-48 -30.5t-58.5 -11q-29 0 -55 11t-46 30.5t-32 45.5t-12 56t12 57t32 47.5t46 32t55 11.5q31 0 58.5 -11.5t48 -32t32.5 -47.5t12 -57zM592 1294q0 -30 -11.5 -56t-32 -45.5t-47.5 -30.5 t-58 -11q-30 0 -57 11t-47 30.5t-31.5 45.5t-11.5 56t11.5 57t31.5 47.5t47 32t57 11.5q31 0 58 -11.5t47.5 -32t32 -47.5t11.5 -57z" />
<glyph unicode="&#xf0;" horiz-adv-x="1145" d="M368 1060q-17 26 -9.5 50t34.5 38l63 34q-27 10 -55.5 19t-60.5 18q-18 5 -32.5 15t-22.5 26t-8.5 37t9.5 48l32 94q103 -17 197.5 -48.5t179.5 -80.5l179 110l55 -87q15 -24 8.5 -47t-29.5 -37l-74 -40q111 -102 176.5 -250.5t65.5 -349.5q0 -148 -34.5 -264t-101 -196 t-164 -122t-223.5 -42q-106 0 -197 33.5t-157.5 96.5t-104.5 154.5t-38 207.5q0 91 33 173.5t93.5 145.5t145.5 100t189 37q93 0 167.5 -31t133.5 -90q-20 94 -66.5 164t-127.5 124l-204 -126zM560 191q52 0 97 19t79.5 62.5t55.5 114.5t24 175q-15 34 -37 64.5t-51.5 52.5 t-67.5 35t-86 13q-60 0 -105.5 -19.5t-76 -54t-46.5 -80.5t-16 -98q0 -69 18 -122t49 -89t73 -54.5t90 -18.5z" />
<glyph unicode="&#xf1;" horiz-adv-x="1134" d="M114 0zM114 0v1031h170q52 0 69 -48l17 -72q31 30 64.5 55t71 43t81 28t94.5 10q84 0 149 -29t109.5 -81t67 -124t22.5 -158v-655h-275v655q0 86 -40 133.5t-118 47.5q-59 0 -109.5 -25.5t-96.5 -69.5v-741h-276zM684 1372q27 0 43 14.5t16 56.5h168q0 -59 -16.5 -107 t-45.5 -81.5t-69 -52t-86 -18.5q-36 0 -67.5 12.5t-59 27t-50.5 27t-41 12.5q-27 0 -42.5 -15.5t-15.5 -57.5h-170q0 59 16.5 107t46 82t69 52.5t85.5 18.5q37 0 69 -12t59 -27t49.5 -27t41.5 -12z" />
<glyph unicode="&#xf2;" horiz-adv-x="1155" d="M60 0zM579 1047q116 0 211 -37t163 -105.5t105 -166.5t37 -221t-37 -221.5t-105 -167.5t-163 -106t-211 -37q-117 0 -212.5 37t-163.5 106t-105.5 167.5t-37.5 221.5t37.5 221t105.5 166.5t163.5 105.5t212.5 37zM579 192q118 0 175 81.5t57 242.5q0 160 -57 241.5 t-175 81.5q-121 0 -178 -81.5t-57 -241.5q0 -161 57 -242.5t178 -81.5zM495 1467q43 0 64.5 -14t37.5 -42l139 -244h-156q-31 0 -50.5 8.5t-39.5 29.5l-253 262h258z" />
<glyph unicode="&#xf3;" horiz-adv-x="1155" d="M60 0zM579 1047q116 0 211 -37t163 -105.5t105 -166.5t37 -221t-37 -221.5t-105 -167.5t-163 -106t-211 -37q-117 0 -212.5 37t-163.5 106t-105.5 167.5t-37.5 221.5t37.5 221t105.5 166.5t163.5 105.5t212.5 37zM579 192q118 0 175 81.5t57 242.5q0 160 -57 241.5 t-175 81.5q-121 0 -178 -81.5t-57 -241.5q0 -161 57 -242.5t178 -81.5zM948 1467l-253 -262q-20 -21 -39.5 -29.5t-50.5 -8.5h-166l140 244q15 28 36.5 42t65.5 14h267z" />
<glyph unicode="&#xf4;" horiz-adv-x="1155" d="M60 0zM579 1047q116 0 211 -37t163 -105.5t105 -166.5t37 -221t-37 -221.5t-105 -167.5t-163 -106t-211 -37q-117 0 -212.5 37t-163.5 106t-105.5 167.5t-37.5 221.5t37.5 221t105.5 166.5t163.5 105.5t212.5 37zM579 192q118 0 175 81.5t57 242.5q0 160 -57 241.5 t-175 81.5q-121 0 -178 -81.5t-57 -241.5q0 -161 57 -242.5t178 -81.5zM940 1168h-184q-16 0 -31 5.5t-31 20.5l-88 95q-6 5 -11.5 11.5t-10.5 13.5q-6 -8 -12 -14l-11 -11l-90 -95q-28 -26 -62 -26h-191l232 283h258z" />
<glyph unicode="&#xf5;" horiz-adv-x="1155" d="M60 0zM579 1047q116 0 211 -37t163 -105.5t105 -166.5t37 -221t-37 -221.5t-105 -167.5t-163 -106t-211 -37q-117 0 -212.5 37t-163.5 106t-105.5 167.5t-37.5 221.5t37.5 221t105.5 166.5t163.5 105.5t212.5 37zM579 192q118 0 175 81.5t57 242.5q0 160 -57 241.5 t-175 81.5q-121 0 -178 -81.5t-57 -241.5q0 -161 57 -242.5t178 -81.5zM685 1372q27 0 43 14.5t16 56.5h168q0 -59 -16.5 -107t-45.5 -81.5t-69 -52t-86 -18.5q-36 0 -67.5 12.5t-59 27t-50.5 27t-41 12.5q-27 0 -42.5 -15.5t-15.5 -57.5h-170q0 59 16.5 107t46 82t69 52.5 t85.5 18.5q37 0 69 -12t59 -27t49.5 -27t41.5 -12z" />
<glyph unicode="&#xf6;" horiz-adv-x="1155" d="M60 0zM579 1047q116 0 211 -37t163 -105.5t105 -166.5t37 -221t-37 -221.5t-105 -167.5t-163 -106t-211 -37q-117 0 -212.5 37t-163.5 106t-105.5 167.5t-37.5 221.5t37.5 221t105.5 166.5t163.5 105.5t212.5 37zM579 192q118 0 175 81.5t57 242.5q0 160 -57 241.5 t-175 81.5q-121 0 -178 -81.5t-57 -241.5q0 -161 57 -242.5t178 -81.5zM520 1294q0 -30 -12 -56t-32.5 -45.5t-48 -30.5t-58.5 -11q-29 0 -55.5 11t-46.5 30.5t-32 45.5t-12 56t12 57t32 47.5t46.5 32t55.5 11.5q31 0 58.5 -11.5t48 -32t32.5 -47.5t12 -57zM935 1294 q0 -30 -12 -56t-32 -45.5t-47.5 -30.5t-58.5 -11q-30 0 -57 11t-47 30.5t-31.5 45.5t-11.5 56t11.5 57t31.5 47.5t47 32t57 11.5q31 0 58.5 -11.5t47.5 -32t32 -47.5t12 -57z" />
<glyph unicode="&#xf7;" d="M89 772h982v-201h-982v201zM416 1027q0 33 12.5 62.5t34.5 51t51.5 34t64.5 12.5q34 0 63.5 -12.5t51.5 -34t35 -51t13 -62.5q0 -34 -13 -63t-35 -50.5t-51.5 -33.5t-63.5 -12q-35 0 -64.5 12t-51.5 33.5t-34.5 50.5t-12.5 63zM416 315q0 33 12.5 62.5t34.5 51t51.5 34 t64.5 12.5q34 0 63.5 -12.5t51.5 -34t35 -51t13 -62.5q0 -34 -13 -63t-35 -50.5t-51.5 -33.5t-63.5 -12q-35 0 -64.5 12t-51.5 33.5t-34.5 50.5t-12.5 63z" />
<glyph unicode="&#xf8;" horiz-adv-x="1154" d="M961 895q64 -69 99 -164t35 -214q0 -123 -37 -221.5t-105 -167.5t-163 -106t-211 -37q-139 0 -249 52l-27 -36q-15 -22 -34.5 -37t-41.5 -24t-44.5 -13t-44.5 -4h-100l157 213q-65 69 -100 165t-35 216q0 123 37.5 221t105.5 166.5t163.5 105.5t212.5 37q139 0 247 -53 l51 69q13 20 25 33.5t26 22t31.5 12t41.5 3.5h136zM326 516q0 -51 5.5 -93t17.5 -77l350 475q-51 27 -120 27q-121 0 -187 -86t-66 -246zM579 184q118 0 183.5 85.5t65.5 246.5q0 98 -23 167l-348 -473q49 -26 122 -26z" />
<glyph unicode="&#xf9;" horiz-adv-x="1133" d="M104 0zM380 1031v-655q0 -86 39.5 -133.5t117.5 -47.5q58 0 109 25.5t97 69.5v741h276v-1031h-170q-53 0 -68 48l-18 72q-62 -61 -135.5 -98.5t-174.5 -37.5q-84 0 -149.5 29t-109.5 81t-67 124t-23 158v655h276zM483 1467q43 0 64.5 -14t37.5 -42l139 -244h-156 q-31 0 -50.5 8.5t-39.5 29.5l-253 262h258z" />
<glyph unicode="&#xfa;" horiz-adv-x="1133" d="M104 0zM380 1031v-655q0 -86 39.5 -133.5t117.5 -47.5q58 0 109 25.5t97 69.5v741h276v-1031h-170q-53 0 -68 48l-18 72q-62 -61 -135.5 -98.5t-174.5 -37.5q-84 0 -149.5 29t-109.5 81t-67 124t-23 158v655h276zM936 1467l-253 -262q-20 -21 -39.5 -29.5t-50.5 -8.5 h-166l140 244q15 28 36.5 42t65.5 14h267z" />
<glyph unicode="&#xfb;" horiz-adv-x="1133" d="M104 0zM380 1031v-655q0 -86 39.5 -133.5t117.5 -47.5q58 0 109 25.5t97 69.5v741h276v-1031h-170q-53 0 -68 48l-18 72q-62 -61 -135.5 -98.5t-174.5 -37.5q-84 0 -149.5 29t-109.5 81t-67 124t-23 158v655h276zM928 1168h-184q-16 0 -31 5.5t-31 20.5l-88 95 q-6 5 -11.5 11.5t-10.5 13.5q-6 -8 -12 -14l-11 -11l-90 -95q-28 -26 -62 -26h-191l232 283h258z" />
<glyph unicode="&#xfc;" horiz-adv-x="1133" d="M104 0zM380 1031v-655q0 -86 39.5 -133.5t117.5 -47.5q58 0 109 25.5t97 69.5v741h276v-1031h-170q-53 0 -68 48l-18 72q-62 -61 -135.5 -98.5t-174.5 -37.5q-84 0 -149.5 29t-109.5 81t-67 124t-23 158v655h276zM508 1294q0 -30 -12 -56t-32.5 -45.5t-48 -30.5 t-58.5 -11q-29 0 -55.5 11t-46.5 30.5t-32 45.5t-12 56t12 57t32 47.5t46.5 32t55.5 11.5q31 0 58.5 -11.5t48 -32t32.5 -47.5t12 -57zM923 1294q0 -30 -12 -56t-32 -45.5t-47.5 -30.5t-58.5 -11q-30 0 -57 11t-47 30.5t-31.5 45.5t-11.5 56t11.5 57t31.5 47.5t47 32 t57 11.5q31 0 58.5 -11.5t47.5 -32t32 -47.5t12 -57z" />
<glyph unicode="&#xfd;" horiz-adv-x="1064" d="M0 0zM514 -277q-13 -28 -31.5 -42t-58.5 -14h-205l195 415l-414 949h242q33 0 51 -15t26 -35l196 -493q21 -59 36 -117q9 30 19.5 59.5t21.5 58.5l182 492q8 22 29 36t46 14h221zM926 1467l-253 -262q-20 -21 -39.5 -29.5t-50.5 -8.5h-166l140 244q15 28 36.5 42t65.5 14 h267z" />
<glyph unicode="&#xfe;" horiz-adv-x="1142" d="M114 -333v1824h276v-579q60 61 135 98t176 37q83 0 152.5 -35t119.5 -101.5t78 -164t28 -223.5q0 -116 -31.5 -214.5t-89.5 -170.5t-139.5 -112.5t-181.5 -40.5q-43 0 -78.5 8t-65.5 22.5t-55 35t-48 45.5v-429h-276zM606 836q-73 0 -122.5 -29t-93.5 -83v-452 q39 -45 84.5 -63t97.5 -18q50 0 91 19t70.5 59.5t45.5 103.5t16 150q0 86 -13.5 146t-38 97t-59.5 53.5t-78 16.5z" />
<glyph unicode="&#xff;" horiz-adv-x="1064" d="M0 0zM514 -277q-13 -28 -31.5 -42t-58.5 -14h-205l195 415l-414 949h242q33 0 51 -15t26 -35l196 -493q21 -59 36 -117q9 30 19.5 59.5t21.5 58.5l182 492q8 22 29 36t46 14h221zM498 1294q0 -30 -12 -56t-32.5 -45.5t-48 -30.5t-58.5 -11q-29 0 -55.5 11t-46.5 30.5 t-32 45.5t-12 56t12 57t32 47.5t46.5 32t55.5 11.5q31 0 58.5 -11.5t48 -32t32.5 -47.5t12 -57zM913 1294q0 -30 -12 -56t-32 -45.5t-47.5 -30.5t-58.5 -11q-30 0 -57 11t-47 30.5t-31.5 45.5t-11.5 56t11.5 57t31.5 47.5t47 32t57 11.5q31 0 58.5 -11.5t47.5 -32t32 -47.5 t12 -57z" />
<glyph unicode="&#x131;" horiz-adv-x="522" d="M399 1031v-1031h-276v1031h276z" />
<glyph unicode="&#x152;" horiz-adv-x="2156" d="M2083 1216h-622v-373h484v-227h-484v-381h622v-235h-888v168q-87 -87 -201.5 -135t-254.5 -48q-150 0 -273.5 56t-211.5 155.5t-136.5 235t-48.5 294.5t48.5 294.5t136.5 234.5t211.5 155.5t273.5 56.5q140 0 254.5 -48.5t201.5 -135.5v168h888v-235zM1159 726 q0 114 -26.5 206t-76.5 156.5t-122.5 99.5t-163.5 35q-93 0 -166 -35t-123.5 -99.5t-77 -156.5t-26.5 -206q0 -115 26.5 -207t77 -156.5t123.5 -99.5t166 -35q91 0 163.5 35t122.5 99.5t76.5 156.5t26.5 207z" />
<glyph unicode="&#x153;" horiz-adv-x="1754" d="M1276 1047q90 0 166.5 -34t132.5 -98t88 -154.5t32 -203.5q0 -31 -2.5 -51t-9.5 -32t-18.5 -16.5t-30.5 -4.5h-586q16 -134 81 -196.5t167 -62.5q54 0 92 13.5t68 30t54.5 30t50.5 13.5q30 0 48 -24l82 -100q-44 -51 -96 -84.5t-107 -53t-110.5 -27t-107.5 -7.5 q-53 0 -103.5 11.5t-96 34.5t-85.5 59t-71 85q-61 -92 -157.5 -141t-222.5 -49q-102 0 -189 37t-150.5 106t-99 167.5t-35.5 221.5t36 221t100 166.5t153 105.5t195 37q121 0 214.5 -48t153.5 -138q57 85 148 135.5t216 50.5zM560 192q110 0 162 81.5t52 242.5 q0 160 -52 241.5t-162 81.5q-112 0 -164 -81.5t-52 -241.5q0 -161 52 -242.5t164 -81.5zM1264 853q-97 0 -149.5 -61.5t-66.5 -174.5h401q0 44 -10.5 86.5t-32.5 75.5t-57.5 53.5t-84.5 20.5z" />
<glyph unicode="&#x178;" horiz-adv-x="1316" d="M0 0zM808 557v-557h-300v557l-527 894h264q39 0 62.5 -18.5t37.5 -47.5l238 -457q24 -46 43.5 -86t33.5 -80q28 77 75 166l236 457q12 24 36 45t62 21h266zM581 1667q0 -29 -11.5 -54.5t-32 -44t-47.5 -29.5t-57 -11q-28 0 -53 11t-44.5 29.5t-31 44t-11.5 54.5 t11.5 55.5t31 46t44.5 31t53 11.5q30 0 57 -11.5t47.5 -31t32 -46t11.5 -55.5zM1029 1667q0 -29 -11.5 -54.5t-31 -44t-45.5 -29.5t-56 -11t-56 11t-45.5 29.5t-31 44t-11.5 54.5t11.5 55.5t31 46t45.5 31t56 11.5t56 -11.5t45.5 -31t31 -46t11.5 -55.5z" />
<glyph unicode="&#x192;" horiz-adv-x="712" d="M171 833l-79 14q-32 6 -51 22t-19 46v110h149v68q0 88 27.5 159.5t79 121t125.5 76.5t167 27q36 0 68.5 -4.5t65.5 -13.5l-6 -136q-2 -31 -26.5 -40.5t-54.5 -9.5q-42 0 -75.5 -9t-56.5 -30.5t-35 -58t-12 -90.5v-60h256v-192h-247v-820q0 -89 -22.5 -164t-69.5 -129 t-121.5 -84.5t-177.5 -30.5q-28 0 -52 2.5t-47 7.5t-46.5 12.5t-48.5 18.5l30 118q9 32 24.5 42t35.5 10q8 0 15.5 -1.5t16.5 -4t20.5 -4t26.5 -1.5q71 0 105.5 42.5t34.5 133.5v852z" />
<glyph unicode="&#x292;" horiz-adv-x="901" d="M796 919q0 -36 -16 -65t-38 -51l-265 -312q94 -14 163.5 -46.5t115 -82t67.5 -113.5t22 -139q0 -94 -33 -177.5t-99 -146.5t-164 -99.5t-227 -36.5q-65 0 -119.5 9.5t-99.5 26.5t-82 40t-67 50l64 104q11 18 27.5 28t41.5 10t46.5 -11t47 -23.5t60 -23.5t86.5 -11 q118 0 183 62t65 181q0 50 -13 92t-41.5 72t-73.5 46.5t-109 16.5h-188v85q0 44 36 70l280 349h-443v208h773v-112z" />
<glyph unicode="&#x2c6;" horiz-adv-x="800" d="M761 1168h-184q-16 0 -31 5.5t-31 20.5l-88 95q-6 5 -11.5 11.5t-10.5 13.5q-6 -8 -12 -14l-11 -11l-90 -95q-28 -26 -62 -26h-191l232 283h258z" />
<glyph unicode="&#x2c7;" horiz-adv-x="800" d="M39 1451h191q17 0 31.5 -5.5t22.5 -12.5l96 -102q5 -6 11.5 -12.5t12.5 -14.5q5 8 11 14.5t12 12.5l96 102q8 6 23 12t31 6h184l-232 -283h-258z" />
<glyph unicode="&#x2d8;" horiz-adv-x="800" d="M400 1160q-89 0 -149.5 23t-97 63t-52 93t-15.5 112h193q0 -29 5 -51.5t18.5 -38t37 -23.5t60.5 -8t60.5 8t37 23.5t18.5 38t5 51.5h193q0 -59 -15.5 -112t-52 -93t-97 -63t-149.5 -23z" />
<glyph unicode="&#x2d9;" horiz-adv-x="800" d="M572 1326q0 -34 -14 -64.5t-37.5 -53t-55 -36t-67.5 -13.5q-34 0 -64.5 13.5t-53.5 36t-36.5 53t-13.5 64.5q0 35 13.5 65.5t36.5 53.5t53.5 36.5t64.5 13.5q36 0 67.5 -13.5t55 -36.5t37.5 -53.5t14 -65.5z" />
<glyph unicode="&#x2da;" horiz-adv-x="800" d="M168 1329q0 48 19 87.5t50.5 67t73 43t87.5 15.5q47 0 90 -15.5t75.5 -43t51.5 -67t19 -87.5q0 -47 -19 -85t-51.5 -65t-75.5 -42t-90 -15q-46 0 -87.5 15t-73 42t-50.5 65t-19 85zM316 1329q0 -38 22 -61.5t64 -23.5q38 0 61 23.5t23 61.5q0 40 -23 63.5t-61 23.5 q-42 0 -64 -23.5t-22 -63.5z" />
<glyph unicode="&#x2db;" horiz-adv-x="800" d="M541 -178q19 0 26 -17l41 -100q-34 -22 -84.5 -36.5t-107.5 -14.5q-103 0 -156.5 41.5t-53.5 106.5q0 57 41 111.5t122 98.5l142 -12q-20 -11 -38 -24.5t-31.5 -30t-22 -35t-8.5 -39.5q0 -28 16.5 -44t46.5 -16q17 0 28 1.5t17.5 4t11.5 4t10 1.5z" />
<glyph unicode="&#x2dc;" horiz-adv-x="800" d="M506 1372q27 0 43 14.5t16 56.5h168q0 -59 -16.5 -107t-45.5 -81.5t-69 -52t-86 -18.5q-36 0 -67.5 12.5t-59 27t-50.5 27t-41 12.5q-27 0 -42.5 -15.5t-15.5 -57.5h-170q0 59 16.5 107t46 82t69 52.5t85.5 18.5q37 0 69 -12t59 -27t49.5 -27t41.5 -12z" />
<glyph unicode="&#x2dd;" horiz-adv-x="800" d="M537 1467l-200 -262q-17 -23 -38 -30.5t-52 -7.5h-113l122 244q14 28 36.5 42t65.5 14h179zM899 1467l-255 -262q-20 -21 -39.5 -29.5t-50.5 -8.5h-130l177 244q9 13 18 23.5t20.5 17.5t27 11t36.5 4h196z" />
<glyph unicode="&#x3a9;" horiz-adv-x="1637" d="M926 333q64 10 120.5 50.5t99 103t67.5 143t25 171.5q0 105 -33 183t-90 129t-133.5 76.5t-163.5 25.5q-86 0 -162 -25.5t-133 -76.5t-90.5 -129t-33.5 -183q0 -91 25 -171.5t67.5 -143t99.5 -103t121 -50.5v-333h-535q-46 0 -73 25.5t-27 66.5v151h206q51 0 104.5 -5 t105.5 -13q-87 33 -159.5 90t-124 132t-80 165.5t-28.5 191.5q0 141 55 262.5t151 210.5t227.5 139.5t284.5 50.5t284 -50.5t227.5 -139.5t151.5 -210.5t55 -262.5q0 -101 -28.5 -191.5t-80 -165.5t-124 -132t-159.5 -90q52 8 105 13t104 5h207v-151q0 -41 -27.5 -66.5 t-72.5 -25.5h-535v333z" />
<glyph unicode="&#x3c0;" horiz-adv-x="1276" d="M1224 1028v-126q0 -35 -21.5 -59.5t-63.5 -24.5h-117v-11q0 -141 3.5 -242t10 -169.5t17 -109.5t24 -62.5t30.5 -28t38 -6.5h49v-108q0 -22 -13.5 -38.5t-36.5 -28t-53 -17t-64 -5.5q-138 0 -203.5 91.5t-65.5 257.5q0 45 4.5 93t11.5 104.5t13.5 125t11.5 154.5h-292 q-4 -172 -15.5 -300t-30.5 -220t-45.5 -151.5t-60.5 -94t-76 -48t-92 -13.5q-17 0 -36.5 3t-36 9t-27.5 15.5t-11 23.5v181h21q33 0 62 32t51 102.5t36.5 184t20.5 276.5h-201v114q0 16 7 33t20 31t32 23t43 9h1056z" />
<glyph unicode="&#x400;" horiz-adv-x="1148" d="M152 0zM1076 1451v-235h-622v-373h484v-227h-484v-381h622v-235h-924v1451h924zM472 1864q21 0 36.5 -1t28 -5.5t23.5 -13t23 -23.5l213 -271h-200q-16 0 -28 0.5t-22 3t-19.5 8t-20.5 14.5l-322 288h288z" />
<glyph unicode="&#x401;" horiz-adv-x="1148" d="M152 0zM1076 1451v-235h-622v-373h484v-227h-484v-381h622v-235h-924v1451h924zM550 1667q0 -29 -11.5 -54.5t-32 -44t-47.5 -29.5t-57 -11q-28 0 -53 11t-44.5 29.5t-31 44t-11.5 54.5t11.5 55.5t31 46t44.5 31t53 11.5q30 0 57 -11.5t47.5 -31t32 -46t11.5 -55.5z M998 1667q0 -29 -11.5 -54.5t-31 -44t-45.5 -29.5t-56 -11t-56 11t-45.5 29.5t-31 44t-11.5 54.5t11.5 55.5t31 46t45.5 31t56 11.5t56 -11.5t45.5 -31t31 -46t11.5 -55.5z" />
<glyph unicode="&#x402;" horiz-adv-x="1514" d="M1105 1451v-234h-404v-357h256q145 0 248 -32t167.5 -87t94.5 -127.5t30 -154.5q0 -104 -36.5 -188.5t-105.5 -144.5t-169.5 -93t-229.5 -33h-82v230h82q72 0 119 16t74.5 43.5t39 63.5t11.5 76q0 45 -11.5 82t-39 63.5t-74.5 40.5t-118 14h-256v-629h-300v1217h-373v234 h1077z" />
<glyph unicode="&#x403;" horiz-adv-x="1086" d="M152 0zM1056 1224h-602v-1224h-302v1451h904v-227zM1054 1864l-323 -286q-11 -9 -21 -14.5t-20.5 -8.5t-23 -4t-27.5 -1h-200l200 271q11 15 21.5 23.5t23 13t28.5 5.5t37 1h305z" />
<glyph unicode="&#x404;" horiz-adv-x="1330" d="M1140 357q25 0 42 -18l119 -127q-88 -112 -218.5 -170t-310.5 -58q-163 0 -293 55.5t-221 154.5t-140 235t-49 297q0 108 23.5 205.5t68.5 179.5t108.5 148t143.5 112.5t174.5 71t201.5 24.5q80 0 151.5 -14t133.5 -39t114.5 -60.5t94.5 -77.5l-101 -138q-9 -13 -23 -23 t-38 -10t-48.5 17t-60 38t-89 38t-135.5 17q-79 0 -146.5 -24.5t-119.5 -72t-87.5 -116.5t-49.5 -157h644v-219h-646q13 -94 50 -167t91 -122.5t122 -75.5t145 -26q51 0 92.5 5t77 17t67 31t63.5 48q11 9 23 15t26 6z" />
<glyph unicode="&#x405;" horiz-adv-x="1102" d="M938 1173q-14 -23 -28.5 -33.5t-37.5 -10.5q-22 0 -47.5 15.5t-59.5 33.5t-78 33.5t-103 15.5q-104 0 -156 -46.5t-52 -121.5q0 -48 28.5 -79.5t75 -54.5t105.5 -41t121 -39.5t121 -50.5t105.5 -73t75 -107.5t28.5 -154.5q0 -99 -34.5 -185.5t-99.5 -151t-160.5 -101.5 t-216.5 -37q-69 0 -137.5 14t-132 39t-119.5 60t-98 78l88 142q11 16 29 26.5t38 10.5q27 0 57 -20t69 -44t90.5 -44t123.5 -20q105 0 162.5 48t57.5 143q0 55 -28.5 89t-74.5 57t-105 39.5t-121 36.5t-121 48t-105 74t-74.5 114t-28.5 169q0 81 32 157t94 135t152.5 95 t207.5 36q131 0 242.5 -40.5t188.5 -112.5z" />
<glyph unicode="&#x406;" horiz-adv-x="606" d="M454 0h-302v1451h302v-1451z" />
<glyph unicode="&#x407;" horiz-adv-x="606" d="M0 0zM454 0h-302v1451h302v-1451zM227 1667q0 -29 -11.5 -54.5t-32 -44t-47.5 -29.5t-57 -11q-28 0 -53 11t-44.5 29.5t-31 44t-11.5 54.5t11.5 55.5t31 46t44.5 31t53 11.5q30 0 57 -11.5t47.5 -31t32 -46t11.5 -55.5zM675 1667q0 -29 -11.5 -54.5t-31 -44t-45.5 -29.5 t-56 -11t-56 11t-45.5 29.5t-31 44t-11.5 54.5t11.5 55.5t31 46t45.5 31t56 11.5t56 -11.5t45.5 -31t31 -46t11.5 -55.5z" />
<glyph unicode="&#x408;" horiz-adv-x="864" d="M726 520q0 -122 -30 -220.5t-90.5 -169t-151.5 -108.5t-212 -38q-55 0 -108.5 6.5t-112.5 20.5l16 176q3 24 19 38.5t46 14.5q17 0 43.5 -6t65.5 -6q54 0 94 15t67 49t40.5 88.5t13.5 132.5v938h300v-931z" />
<glyph unicode="&#x409;" horiz-adv-x="2143" d="M1351 1451v-591h217q146 0 248.5 -32t167.5 -87t95 -127.5t30 -154.5q0 -104 -36.5 -188.5t-105.5 -144.5t-169.5 -93t-229.5 -33h-519v1224h-362q-15 -270 -41 -467t-62.5 -334.5t-83 -223t-102 -133t-119 -64.5t-133.5 -17q-79 0 -114 14t-35 41v185h80q32 0 66.5 10.5 t68 50t65 117.5t57 214.5t44 340t26.5 493.5h947zM1351 629v-399h217q72 0 119 16t74.5 43.5t39 63.5t11.5 76q0 45 -11.5 82t-39 63.5t-74.5 40.5t-119 14h-217z" />
<glyph unicode="&#x40a;" horiz-adv-x="2188" d="M1395 860h218q145 0 248 -32t167.5 -87t94.5 -127.5t30 -154.5q0 -104 -36.5 -188.5t-105.5 -144.5t-169.5 -93t-229.5 -33h-519v625h-639v-625h-302v1451h302v-616h639v616h302v-591zM1395 629v-399h217q72 0 119 16t74.5 43.5t39 63.5t11.5 76q0 45 -11 82t-39 63.5 t-74.5 40.5t-118.5 14h-218z" />
<glyph unicode="&#x40b;" horiz-adv-x="1524" d="M1463 -1h-303v446q0 77 -15 130.5t-63 80.5t-138.5 24.5t-242.5 -38.5v-642h-300v1217h-373v234h1077v-234h-404v-365q172 41 313 47.5t240.5 -37t154 -144t54.5 -274.5v-445z" />
<glyph unicode="&#x40c;" horiz-adv-x="1413" d="M152 0zM452 852h131q39 0 68 14t54 52l293 454q21 35 51 57t72 22h257l-376 -577q-25 -39 -59 -64.5t-75 -40.5q63 -17 107.5 -55.5t83.5 -107.5l355 -606h-274q-41 0 -69 21.5t-52 63.5l-277 472q-12 21 -25.5 35t-29 22.5t-35 11.5t-43.5 3h-157v-629h-300v1451h300 v-599zM1178 1864l-323 -286q-11 -9 -21 -14.5t-20.5 -8.5t-23 -4t-27.5 -1h-200l200 271q11 15 21.5 23.5t23 13t28.5 5.5t37 1h305z" />
<glyph unicode="&#x40d;" horiz-adv-x="1547" d="M152 0zM1037 1360q10 16 24 32.5t30.5 29.5t36 21t41.5 8h226v-1451h-302v865q0 54 3 113t12 126q-22 -59 -47 -110t-48 -89l-503 -813q-10 -17 -24 -33t-30.5 -29.5t-36 -21.5t-41.5 -8h-226v1451h302v-865q0 -54 -3 -113.5t-12 -125.5q21 59 46.5 110t48.5 89z M631 1864q21 0 36.5 -1t28 -5.5t23.5 -13t23 -23.5l213 -271h-200q-16 0 -28 0.5t-22 3t-19.5 8t-20.5 14.5l-322 288h288z" />
<glyph unicode="&#x40e;" horiz-adv-x="1305" d="M337 225q20 0 42.5 3.5t45 15t43.5 32.5t39 57l52 103l-582 1015h282q39 0 62 -18.5t38 -47.5l252 -486q25 -46 44.5 -92t34.5 -93q27 94 72 185l222 486q12 24 36.5 45t62.5 21h249l-585 -1245q-32 -67 -69 -110t-79.5 -67.5t-90.5 -34t-103 -9.5q-79 0 -114 14t-35 41 v185h81zM683 1668q36 0 59.5 6.5t37 23.5t19 45.5t5.5 73.5h163q29 0 42.5 -24t13.5 -51q0 -52 -24.5 -91t-69.5 -65.5t-107.5 -39.5t-138.5 -13t-138.5 13t-107.5 39.5t-69.5 65.5t-24.5 91q0 27 13.5 51t42.5 24h163q0 -45 5.5 -73.5t19 -45.5t37 -23.5t59.5 -6.5z" />
<glyph unicode="&#x40f;" horiz-adv-x="1499" d="M1347 0h-460v-258q0 -38 -26.5 -61t-68.5 -23h-181v342h-459v1451h302v-1224h591v1224h302v-1451z" />
<glyph unicode="&#x410;" horiz-adv-x="1397" d="M1418 0h-232q-39 0 -63.5 18.5t-36.5 47.5l-98 277h-579l-98 -277q-9 -25 -34.5 -45.5t-63.5 -20.5h-234l566 1451h307zM482 551h433l-157 444q-14 35 -29.5 82.5t-30.5 102.5q-14 -56 -29.5 -104t-29.5 -83z" />
<glyph unicode="&#x411;" horiz-adv-x="1267" d="M1156 1223h-704v-363h218q145 0 248 -32t167.5 -87t94.5 -127.5t30 -154.5q0 -104 -36.5 -188.5t-105.5 -144.5t-169.5 -93t-228.5 -33h-518v1451h1004v-228zM452 629v-399h218q71 0 118 16t75 43.5t39.5 63.5t11.5 76q0 45 -11.5 82t-39 63.5t-74.5 40.5t-119 14h-218z " />
<glyph unicode="&#x412;" horiz-adv-x="1327" d="M152 0v1451h515q146 0 249.5 -27.5t169 -78t95.5 -122.5t30 -161q0 -50 -14.5 -96t-45 -86.5t-78.5 -73.5t-114 -56q290 -68 290 -319q0 -92 -35.5 -171t-103.5 -137t-167.5 -90.5t-228.5 -32.5h-562zM452 627v-397h257q72 0 118.5 17.5t74.5 46.5t39 66.5t11 77.5 q0 44 -13 79t-42 59.5t-75.5 37.5t-114.5 13h-255zM452 831h197q63 0 112 10.5t82 33.5t50.5 60.5t17.5 90.5q0 54 -14.5 92t-44.5 61t-76 33.5t-109 10.5h-215v-392z" />
<glyph unicode="&#x413;" horiz-adv-x="1086" d="M1056 1224h-602v-1224h-302v1451h904v-227z" />
<glyph unicode="&#x414;" horiz-adv-x="1635" d="M1368 1451v-1224h221v-485q0 -38 -26.5 -61t-68.5 -23h-180v342h-1024v-258q0 -38 -26.5 -61t-68.5 -23h-181v569h161q26 15 53 48t52.5 92t48 149.5t41 221.5t32 307t19.5 406h947zM705 1224q-12 -202 -32 -360t-46 -279t-58.5 -209t-68.5 -149h566v997h-361z" />
<glyph unicode="&#x415;" horiz-adv-x="1148" d="M1076 1451v-235h-622v-373h484v-227h-484v-381h622v-235h-924v1451h924z" />
<glyph unicode="&#x416;" horiz-adv-x="2160" d="M277 1451q45 0 83.5 -22t61.5 -61l269 -444q25 -44 56 -58t70 -14h121v599h283v-599h121q40 0 70.5 14t56.5 58l269 444q23 39 61.5 61t83.5 22h238l-354 -553q-30 -48 -62.5 -79.5t-78.5 -49.5q56 -20 99 -57.5t81 -101.5l358 -610h-201q-65 0 -111.5 27.5t-73.5 74.5 l-268 446q-26 45 -59.5 63t-81.5 18h-148v-629h-283v629h-147q-49 0 -82 -18t-59 -63l-268 -446q-28 -47 -74 -74.5t-112 -27.5h-200l357 610q38 64 81.5 101.5t98.5 57.5q-45 18 -77.5 49.5t-62.5 79.5l-354 553h238z" />
<glyph unicode="&#x417;" horiz-adv-x="1168" d="M1057 1084q0 -100 -44.5 -183.5t-137.5 -136.5q48 -24 88.5 -56t69 -70.5t44.5 -83.5t16 -95q0 -99 -37 -185.5t-107.5 -150t-173.5 -100.5t-235 -37q-75 0 -149.5 14t-142.5 39t-127.5 60t-105.5 78l89 142q11 16 28.5 26.5t38.5 10.5q28 0 60 -20t75 -44t102 -44 t141 -20q124 0 193 52t69 167q0 46 -19.5 82.5t-54.5 61.5t-85 38t-110 12h-208l-1 238h186q125 0 191 46t66 134q0 77 -61.5 122t-181.5 45q-69 0 -120 -15t-88.5 -33.5t-65 -33.5t-49.5 -15q-23 0 -38 10.5t-29 32.5l-74 141q85 72 204 113t262 41q120 0 216.5 -28 t164.5 -78.5t104.5 -121t36.5 -155.5z" />
<glyph unicode="&#x418;" horiz-adv-x="1547" d="M1037 1360q10 16 24 32.5t30.5 29.5t36 21t41.5 8h226v-1451h-302v865q0 54 3 113t12 126q-22 -59 -47 -110t-48 -89l-503 -813q-10 -17 -24 -33t-30.5 -29.5t-36 -21.5t-41.5 -8h-226v1451h302v-865q0 -54 -3 -113.5t-12 -125.5q21 59 46.5 110t48.5 89z" />
<glyph unicode="&#x419;" horiz-adv-x="1547" d="M152 0zM1037 1360q10 16 24 32.5t30.5 29.5t36 21t41.5 8h226v-1451h-302v865q0 54 3 113t12 126q-22 -59 -47 -110t-48 -89l-503 -813q-10 -17 -24 -33t-30.5 -29.5t-36 -21.5t-41.5 -8h-226v1451h302v-865q0 -54 -3 -113.5t-12 -125.5q21 59 46.5 110t48.5 89z M789 1668q36 0 59.5 6.5t37 23.5t19 45.5t5.5 73.5h163q29 0 42.5 -24t13.5 -51q0 -52 -24.5 -91t-69.5 -65.5t-107.5 -39.5t-138.5 -13t-138.5 13t-107.5 39.5t-69.5 65.5t-24.5 91q0 27 13.5 51t42.5 24h163q0 -45 5.5 -73.5t19 -45.5t37 -23.5t59.5 -6.5z" />
<glyph unicode="&#x41a;" horiz-adv-x="1413" d="M452 852h131q39 0 68 14t54 52l293 454q21 35 51 57t72 22h257l-376 -577q-25 -39 -59 -64.5t-75 -40.5q63 -17 107.5 -55.5t83.5 -107.5l355 -606h-274q-41 0 -69 21.5t-52 63.5l-277 472q-12 21 -25.5 35t-29 22.5t-35 11.5t-43.5 3h-157v-629h-300v1451h300v-599z" />
<glyph unicode="&#x41b;" horiz-adv-x="1503" d="M1351 1451v-1451h-302v1224h-362q-15 -270 -41 -467t-62.5 -334.5t-83 -223t-102 -133t-119 -64.5t-133.5 -17q-79 0 -114 14t-35 41v185h80q32 0 66.5 10.5t68 50t65 117.5t57 214.5t44 340t26.5 493.5h947z" />
<glyph unicode="&#x41c;" horiz-adv-x="1903" d="M886 630q18 -35 34.5 -72t31.5 -76q15 40 32 78t36 73l403 771q9 17 19 26.5t21.5 14t26 5.5t34.5 1h228v-1451h-265v891q0 27 1.5 59t4.5 66l-414 -787q-34 -65 -105 -65h-42q-35 0 -62 16.5t-43 48.5l-417 789q3 -34 5 -66.5t2 -60.5v-891h-265v1451h228q19 0 34 -1 t26.5 -5.5t21 -14t18.5 -26.5l406 -774v0z" />
<glyph unicode="&#x41d;" horiz-adv-x="1547" d="M1395 0h-302v625h-639v-625h-302v1451h302v-616h639v616h302v-1451z" />
<glyph unicode="&#x41e;" horiz-adv-x="1622" d="M1554 726q0 -159 -53.5 -295t-151 -235t-234.5 -155.5t-304 -56.5t-304 56.5t-235 155.5t-151.5 235t-53.5 295t53.5 294.5t151.5 234.5t235 155.5t304 56.5t304 -56.5t234.5 -156t151 -235t53.5 -293.5zM1247 726q0 114 -30 204.5t-86.5 154t-137 97t-182.5 33.5 t-183 -33.5t-137.5 -97t-86.5 -154t-30 -204.5q0 -115 30 -205.5t86.5 -153.5t137.5 -96.5t183 -33.5t182.5 33.5t137 96.5t86.5 153.5t30 205.5z" />
<glyph unicode="&#x41f;" horiz-adv-x="1499" d="M1347 0h-302v1224h-591v-1224h-302v1451h1195v-1451z" />
<glyph unicode="&#x420;" horiz-adv-x="1254" d="M452 499v-499h-300v1451h490q149 0 257.5 -35t178.5 -97.5t103.5 -148.5t33.5 -187q0 -107 -35 -196t-106 -153t-179 -99.5t-253 -35.5h-190zM452 729h190q141 0 206.5 68t65.5 186q0 54 -16.5 98.5t-50 76t-84.5 48.5t-121 17h-190v-494z" />
<glyph unicode="&#x421;" horiz-adv-x="1318" d="M1140 357q25 0 42 -18l119 -127q-88 -112 -218.5 -170t-310.5 -58q-163 0 -293 55.5t-221 154.5t-140 235t-49 297q0 108 23.5 205.5t68.5 179.5t108.5 148t143.5 112.5t174.5 71t201.5 24.5q80 0 151.5 -14t133.5 -39t114.5 -60.5t94.5 -77.5l-101 -138q-9 -13 -23 -23 t-38 -10t-48.5 17t-60 38t-89 38t-135.5 17q-91 0 -167 -33t-130.5 -95.5t-84.5 -153.5t-30 -207q0 -117 32.5 -208.5t89 -154.5t132 -95.5t161.5 -32.5q51 0 92.5 5t77 17t67 31t63.5 48q11 9 23 15t26 6z" />
<glyph unicode="&#x422;" horiz-adv-x="1208" d="M1179 1451v-242h-424v-1209h-301v1209h-424v242h1149z" />
<glyph unicode="&#x423;" horiz-adv-x="1305" d="M337 225q20 0 42.5 3.5t45 15t43.5 32.5t39 57l52 103l-582 1015h282q39 0 62 -18.5t38 -47.5l252 -486q25 -46 44.5 -92t34.5 -93q27 94 72 185l222 486q12 24 36.5 45t62.5 21h249l-585 -1245q-32 -67 -69 -110t-79.5 -67.5t-90.5 -34t-103 -9.5q-79 0 -114 14t-35 41 v185h81v0z" />
<glyph unicode="&#x424;" horiz-adv-x="1627" d="M956 1339q133 -5 246 -52t195.5 -125t129 -182.5t46.5 -222.5q0 -119 -46.5 -223.5t-129 -183t-195.5 -126t-246 -52.5v-172h-284v172q-134 5 -247 52.5t-195.5 126t-129 183t-46.5 223.5q0 118 46.5 222.5t129 182.5t195.5 125t247 52v171h284v-171zM354 757 q0 -74 23 -138t65 -112t100.5 -76.5t129.5 -30.5v712q-71 -2 -129.5 -30.5t-100.5 -76.5t-65 -111.5t-23 -136.5zM1273 757q0 73 -23.5 136.5t-65.5 111.5t-100 76.5t-128 30.5v-712q70 2 128 30.5t100 76.5t65.5 112t23.5 138z" />
<glyph unicode="&#x425;" horiz-adv-x="1359" d="M471 746l-457 705h300q30 0 44 -8t25 -26l311 -513q5 12 11.5 24.5t14.5 25.5l280 458q12 20 26.5 29.5t35.5 9.5h287l-461 -692l473 -759h-300q-30 0 -48.5 15t-29.5 35l-315 534q-4 -11 -9 -21.5t-10 -19.5l-298 -493q-13 -19 -30.5 -34.5t-44.5 -15.5h-280z" />
<glyph unicode="&#x426;" horiz-adv-x="1601" d="M152 0v1451h302v-1224h591v1224h302v-1224h202v-485q0 -38 -26 -61t-68 -23h-181v342h-1122z" />
<glyph unicode="&#x427;" horiz-adv-x="1364" d="M1212 0h-302v565q-118 -28 -225.5 -41t-200.5 -7t-169 34t-129.5 82.5t-83 137.5t-29.5 200v480h302v-481q0 -78 24 -132t85 -80t164.5 -23t261.5 40v676h302v-1451z" />
<glyph unicode="&#x428;" horiz-adv-x="2177" d="M2025 0h-1873v1451h302v-1224h483v1224h302v-1224h484v1224h302v-1451z" />
<glyph unicode="&#x429;" horiz-adv-x="2279" d="M152 0v1451h302v-1224h483v1224h302v-1224h484v1224h302v-1224h202v-485q0 -38 -26 -61t-68 -23h-181v342h-1800z" />
<glyph unicode="&#x42a;" horiz-adv-x="1529" d="M29 1451h707v-591h218q145 0 248 -32t167.5 -87t94.5 -127.5t30 -154.5q0 -104 -36.5 -188.5t-105.5 -144.5t-169.5 -93t-228.5 -33h-518v1216h-407v235zM736 629v-399h218q71 0 118 16t75 43.5t39.5 63.5t11.5 76q0 45 -11.5 82t-39 63.5t-74.5 40.5t-119 14h-218z" />
<glyph unicode="&#x42b;" horiz-adv-x="1854" d="M152 0zM452 1451v-591h218q145 0 248 -32t167.5 -87t94.5 -127.5t30 -154.5q0 -104 -36.5 -188.5t-105.5 -144.5t-169.5 -93t-228.5 -33h-518v1451h300zM452 629v-399h218q71 0 118 16t75 43.5t39.5 63.5t11.5 76q0 45 -11.5 82t-39 63.5t-74.5 40.5t-119 14h-218z M1702 0h-302v1451h302v-1451z" />
<glyph unicode="&#x42c;" horiz-adv-x="1245" d="M452 1451v-591h218q145 0 248 -32t167.5 -87t94.5 -127.5t30 -154.5q0 -104 -36.5 -188.5t-105.5 -144.5t-169.5 -93t-228.5 -33h-518v1451h300zM452 629v-399h218q71 0 118 16t75 43.5t39.5 63.5t11.5 76q0 45 -11.5 82t-39 63.5t-74.5 40.5t-119 14h-218z" />
<glyph unicode="&#x42d;" horiz-adv-x="1329" d="M190 357q14 0 26.5 -6t23.5 -15q31 -29 63 -48t67 -31t76.5 -17t92.5 -5q76 0 144.5 26t122.5 75.5t91 122.5t50 167h-647v219h645q-14 88 -49.5 157t-87.5 116.5t-119.5 72t-145.5 24.5q-83 0 -136 -17t-89 -38t-60 -38t-49 -17q-24 0 -37.5 10t-23.5 23l-101 138 q84 85 208.5 138t285.5 53q106 0 201 -24.5t175 -71t143.5 -112.5t108.5 -148t68.5 -179.5t23.5 -205.5q0 -161 -49 -297t-140 -235t-221 -154.5t-293 -55.5q-180 0 -310.5 58t-218.5 170l119 127q10 10 20.5 14t21.5 4z" />
<glyph unicode="&#x42e;" horiz-adv-x="2152" d="M454 836h240q16 138 71 253.5t144 199.5t209.5 131t266.5 47q160 0 289 -56.5t220 -155.5t139.5 -234.5t48.5 -294.5t-48.5 -294.5t-139.5 -235t-220 -155.5t-289 -56q-146 0 -265.5 46.5t-208 129t-144 197t-72.5 251.5h-241v-609h-302v1451h302v-615zM1385 228 q93 0 165.5 35t122.5 99.5t76 156.5t26 207q0 114 -26 206t-76 156.5t-122.5 99.5t-165.5 35t-165 -35t-122 -99.5t-76 -156.5t-26 -206q0 -115 26 -207t76 -156.5t122 -99.5t165 -35z" />
<glyph unicode="&#x42f;" horiz-adv-x="1370" d="M918 0v592h-139q-44 -2 -81.5 -23t-71.5 -78l-232 -389q-28 -47 -74 -74.5t-112 -27.5h-227l317 503q31 51 69.5 85.5t89.5 56.5q-78 22 -136 59t-95.5 85.5t-56 107t-18.5 124.5q0 93 36.5 172t105.5 136.5t169.5 89.5t229.5 32h526v-1451h-300zM448 1023q0 -45 11 -82 t39 -63.5t75 -41t118 -14.5h227v399h-226q-72 0 -119 -16t-74.5 -43t-39 -63t-11.5 -76z" />
<glyph unicode="&#x430;" horiz-adv-x="1024" d="M796 0q-39 0 -59.5 11t-33.5 46l-22 65q-39 -34 -75.5 -59.5t-76 -43t-84 -26.5t-98.5 -9q-68 0 -124 18t-96.5 53.5t-62.5 88.5t-22 122q0 57 29 113.5t99.5 103t188 77.5t294.5 35v53q0 97 -41 142.5t-118 45.5q-57 0 -95 -13.5t-66.5 -29t-53.5 -29t-58 -13.5 q-29 0 -48.5 14.5t-32.5 34.5l-49 88q91 82 201 122.5t238 40.5q92 0 164.5 -30t123 -83.5t77.5 -127.5t27 -162v-648h-126zM433 170q68 0 119 24.5t101 75.5v160q-101 -4 -168 -17t-106.5 -32.5t-56 -45t-16.5 -55.5q0 -60 33.5 -85t93.5 -25z" />
<glyph unicode="&#x431;" horiz-adv-x="1186" d="M680 1198q-91 -6 -155 -34.5t-106 -76.5t-63.5 -114t-25.5 -147q51 73 139.5 120t209.5 47q102 0 184.5 -36t140.5 -102t89 -159t31 -206q0 -117 -37.5 -210.5t-105.5 -159t-163 -100.5t-211 -35q-115 0 -210.5 37t-164.5 118.5t-107.5 212t-38.5 317.5q0 155 28.5 290 t95.5 237.5t176.5 165.5t270.5 75l365 26l15 -140q5 -45 -13 -76t-64 -33zM607 182q118 0 175.5 77.5t57.5 229.5t-56.5 229.5t-174.5 77.5q-237 0 -237 -299q0 -156 57 -235.5t178 -79.5z" />
<glyph unicode="&#x432;" horiz-adv-x="1010" d="M114 1031h418q99 0 171 -19t119 -52.5t69.5 -79.5t22.5 -100q0 -33 -8.5 -69t-30 -68t-58.5 -59t-94 -42q49 -11 90.5 -31t71.5 -49.5t47 -68.5t17 -88q0 -80 -33.5 -138t-89.5 -95t-128.5 -54.5t-150.5 -17.5h-433v1031zM376 437v-252h169q69 0 109.5 35t40.5 95 q0 25 -6 47.5t-22.5 39t-45.5 26t-75 9.5h-170zM376 604h148q66 0 107 37.5t41 97.5q0 22 -7 42.5t-24.5 37t-46 26.5t-70.5 10h-148v-251z" />
<glyph unicode="&#x433;" horiz-adv-x="847" d="M825 1031v-201h-435v-830h-276v1031h711z" />
<glyph unicode="&#x434;" horiz-adv-x="1280" d="M1060 1031v-830h190v-463q0 -37 -22 -58.5t-56 -21.5h-173v342h-733v-266q0 -29 -18 -52.5t-58 -23.5h-174v535h37q33 1 65 11t61 40.5t54.5 86.5t46.5 149t37 228t26 323h717zM568 824q-9 -120 -23.5 -218t-33 -175.5t-41 -136t-47.5 -101.5h370v631h-225z" />
<glyph unicode="&#x435;" horiz-adv-x="1072" d="M561 1047q99 0 182.5 -31.5t144 -91.5t94 -147.5t33.5 -199.5q0 -31 -3 -51t-10 -32t-19 -16.5t-31 -4.5h-619q13 -145 82.5 -212t182.5 -67q57 0 98.5 13.5t73 30t57 30t50.5 13.5q32 0 50 -24l80 -100q-44 -51 -97 -84.5t-110 -53t-115 -27t-112 -7.5 q-108 0 -201.5 35.5t-163 105t-109.5 172.5t-40 239q0 105 34.5 198t99.5 162t158 109.5t210 40.5zM566 853q-99 0 -155 -56.5t-73 -159.5h430q0 43 -11.5 82t-36.5 69t-63 47.5t-91 17.5z" />
<glyph unicode="&#x436;" horiz-adv-x="1659" d="M531 675q17 -32 40.5 -46.5t65.5 -14.5h59v417h267v-417h54q42 0 68 14.5t43 46.5l157 285q17 32 49 51.5t70 19.5h217l-230 -379q-24 -41 -50 -66t-63 -39q51 -16 82.5 -46t56.5 -76l230 -425h-190q-73 0 -111 22t-60 71l-133 273q-17 36 -47.5 53.5t-69.5 17.5h-73 v-437h-267v437h-73q-39 0 -69.5 -17.5t-47.5 -53.5l-133 -273q-22 -49 -60 -71t-111 -22h-190l229 425q25 46 56.5 76t82.5 46q-36 14 -62 38.5t-51 66.5l-229 379h217q38 0 69.5 -19.5t49.5 -51.5z" />
<glyph unicode="&#x437;" horiz-adv-x="902" d="M56 917q60 58 147 94t210 36q96 0 171.5 -23t127.5 -61.5t79 -89t27 -105.5q0 -29 -8.5 -60.5t-27.5 -61t-50 -55t-77 -43.5q40 -16 73.5 -39t57.5 -54t37.5 -69t13.5 -84q0 -76 -35.5 -135t-93.5 -99.5t-132.5 -61.5t-152.5 -21q-43 0 -93.5 7.5t-102.5 27t-103.5 53 t-95.5 84.5l80 100q18 24 50 24q25 0 46 -14t47.5 -31t62.5 -31t90 -14q86 0 128.5 38t42.5 96q0 57 -45 89t-148 32h-116v175h116q91 0 138.5 31t47.5 83q0 48 -42 77t-121 29q-51 0 -86 -10.5t-60.5 -22.5t-44 -22.5t-35.5 -10.5q-19 0 -32.5 7t-28.5 31z" />
<glyph unicode="&#x438;" horiz-adv-x="1173" d="M114 -1v1031h276v-567q0 -24 -2.5 -53.5t-7.5 -59.5q23 53 47 87q1 2 17.5 26t42.5 61.5t58.5 84.5t66.5 96q79 114 180 259q15 24 40.5 45.5t57.5 21.5h168v-1031h-276v567q0 23 2.5 52t7.5 58q-23 -52 -47 -84q-2 -2 -18 -26t-42 -61.5t-58.5 -84.5t-66.5 -96 q-79 -114 -179 -259q-8 -12 -18.5 -23.5t-23 -21.5t-26.5 -16t-30 -6h-169z" />
<glyph unicode="&#x439;" horiz-adv-x="1173" d="M114 0zM114 -1v1031h276v-567q0 -24 -2.5 -53.5t-7.5 -59.5q23 53 47 87q1 2 17.5 26t42.5 61.5t58.5 84.5t66.5 96q79 114 180 259q15 24 40.5 45.5t57.5 21.5h168v-1031h-276v567q0 23 2.5 52t7.5 58q-23 -52 -47 -84q-2 -2 -18 -26t-42 -61.5t-58.5 -84.5t-66.5 -96 q-79 -114 -179 -259q-8 -12 -18.5 -23.5t-23 -21.5t-26.5 -16t-30 -6h-169zM601 1296q36 0 59.5 7.5t37 25.5t19 47.5t5.5 74.5h163q29 0 42.5 -24t13.5 -51q0 -52 -24.5 -93.5t-69.5 -70.5t-107.5 -44.5t-138.5 -15.5t-138.5 15.5t-107.5 44.5t-69.5 70.5t-24.5 93.5 q0 27 13.5 51t42.5 24h163q0 -45 5.5 -74.5t19 -47.5t37 -25.5t59.5 -7.5z" />
<glyph unicode="&#x43a;" horiz-adv-x="1108" d="M726 960q20 31 54.5 51t72.5 20h218l-230 -379q-25 -42 -51 -66.5t-63 -38.5q51 -16 83 -46t57 -76l229 -425h-190q-36 0 -63.5 6t-49 18t-37.5 29t-30 40l-132 273q-17 36 -48 53.5t-70 17.5h-86v-437h-276v1031h276v-417h72q42 0 65.5 14.5t40.5 46.5z" />
<glyph unicode="&#x43b;" horiz-adv-x="1207" d="M1093 1031v-1031h-276v824h-223q-13 -188 -38 -323t-60 -228.5t-78 -150t-92 -87t-101 -40.5t-105 -10q-62 0 -89 10t-27 29v168h62q32 0 64 9.5t62.5 39.5t57.5 86t50 149t40 229t27 326h726z" />
<glyph unicode="&#x43c;" horiz-adv-x="1442" d="M660 575q17 -32 32.5 -68.5t29.5 -74.5q13 38 28.5 74.5t32.5 68.5l211 397q20 38 48 49t56 11h230v-1032h-249v536q0 36 4 81.5t11 86.5l-280 -526q-25 -47 -77 -47h-30q-51 0 -78 47l-283 528q7 -41 12 -87t5 -83v-536h-249v1032h230q28 0 56 -12t48 -48l212 -397v0z " />
<glyph unicode="&#x43d;" horiz-adv-x="1144" d="M1029 1031v-1031h-275v447h-364v-447h-276v1031h276v-383h364v383h275z" />
<glyph unicode="&#x43e;" horiz-adv-x="1155" d="M579 1047q116 0 211 -37t163 -105.5t105 -166.5t37 -221t-37 -221.5t-105 -167.5t-163 -106t-211 -37q-117 0 -212.5 37t-163.5 106t-105.5 167.5t-37.5 221.5t37.5 221t105.5 166.5t163.5 105.5t212.5 37zM579 192q118 0 175 81.5t57 242.5q0 160 -57 241.5t-175 81.5 q-121 0 -178 -81.5t-57 -241.5q0 -161 57 -242.5t178 -81.5z" />
<glyph unicode="&#x43f;" horiz-adv-x="1144" d="M1029 1031v-1031h-275v830h-364v-830h-276v1031h915z" />
<glyph unicode="&#x440;" horiz-adv-x="1142" d="M114 -333v1364h170q52 0 69 -48l21 -87q31 34 66 62.5t75 49t86 32t100 11.5q83 0 152.5 -35.5t119.5 -103t78 -165.5t28 -224q0 -116 -31.5 -214.5t-89.5 -170.5t-139.5 -112.5t-181.5 -40.5q-84 0 -142.5 25t-104.5 68v-411h-276zM606 836q-73 0 -122.5 -29t-93.5 -83 v-452q39 -45 84.5 -63t97.5 -18q50 0 91 19t70.5 59.5t45.5 103.5t16 150q0 86 -13.5 146t-38 97t-59.5 53.5t-78 16.5z" />
<glyph unicode="&#x441;" horiz-adv-x="968" d="M862 801q-12 -16 -24 -24.5t-34 -8.5q-20 0 -38.5 11.5t-42.5 25t-57 25t-82 11.5q-62 0 -107.5 -22.5t-75.5 -64.5t-44.5 -102t-14.5 -135q0 -158 63.5 -242t173.5 -84q38 0 65.5 6.5t48 16.5t35.5 22t28.5 22t27 16.5t30.5 6.5q32 0 50 -24l79 -100q-44 -51 -94 -84.5 t-103.5 -53t-108.5 -27t-109 -7.5q-95 0 -180 35.5t-149 103.5t-101.5 167t-37.5 226q0 113 33 210t97 168t158.5 111.5t218.5 40.5q118 0 207 -38t160 -110z" />
<glyph unicode="&#x442;" horiz-adv-x="1032" d="M22 1031h988v-201h-356v-830h-276v830h-356v201z" />
<glyph unicode="&#x443;" horiz-adv-x="1064" d="M514 -277q-13 -28 -31.5 -42t-58.5 -14h-205l195 415l-414 949h242q33 0 51 -15t26 -35l196 -493q21 -59 36 -117q9 30 19.5 59.5t21.5 58.5l182 492q8 22 29 36t46 14h221z" />
<glyph unicode="&#x444;" horiz-adv-x="1484" d="M871 1451v-406q123 -8 225 -47.5t175.5 -107.5t114.5 -162.5t41 -210.5q0 -117 -41 -211.5t-114.5 -163t-175.5 -108.5t-225 -47v-329h-258v329q-123 7 -225.5 47t-176 108.5t-114 163t-40.5 211.5q0 116 40.5 210.5t114 162.5t176 108t225.5 47v406h258zM332 516 q0 -74 20 -132.5t57.5 -100.5t91.5 -66.5t121 -30.5v660q-67 -6 -121 -31t-91.5 -67t-57.5 -100.5t-20 -131.5zM1152 516q0 73 -20 131.5t-57.5 100.5t-91.5 67t-121 31v-660q67 6 121 30.5t91.5 66.5t57.5 100.5t20 132.5z" />
<glyph unicode="&#x445;" horiz-adv-x="1064" d="M349 532l-336 499h265q30 0 44 -8t25 -26l201 -327q6 17 14 34t19 35l155 253q24 39 62 39h253l-336 -487l350 -544h-265q-30 0 -48.5 15t-29.5 35l-203 339q-9 -34 -26 -60l-174 -279q-12 -19 -29.5 -34.5t-44.5 -15.5h-246z" />
<glyph unicode="&#x446;" horiz-adv-x="1250" d="M114 1031h276v-830h364v830h275v-830h190v-463q0 -37 -22 -58.5t-56 -21.5h-173v342h-854v1031z" />
<glyph unicode="&#x447;" horiz-adv-x="1065" d="M950 0h-276v394q-133 -32 -245 -34.5t-193.5 30.5t-127 106t-45.5 192v343h276v-302q0 -59 17 -96t56.5 -54.5t103.5 -16t158 19.5v449h276v-1031z" />
<glyph unicode="&#x448;" horiz-adv-x="1671" d="M114 1031h276v-830h308v830h275v-830h308v830h275v-1031h-1442v1031z" />
<glyph unicode="&#x449;" horiz-adv-x="1777" d="M114 1031h276v-830h308v830h275v-830h308v830h275v-1031h1v201h189v-463q0 -37 -22 -58.5t-56 -21.5h-172v342h-1382v1031z" />
<glyph unicode="&#x44a;" horiz-adv-x="1195" d="M24 1031h572v-374h168q108 0 183.5 -26.5t122 -71t67.5 -103t21 -123.5q0 -74 -26.5 -135t-76.5 -105t-123 -68.5t-166 -24.5h-432v827h-310v204zM596 464v-271h169q74 0 111.5 39t37.5 100q0 26 -8.5 50t-27 42t-46.5 29t-67 11h-169z" />
<glyph unicode="&#x44b;" horiz-adv-x="1500" d="M376 1031v-374h168q108 0 183.5 -26.5t122.5 -71t68 -103t21 -123.5q0 -74 -26.5 -135t-77 -105t-123.5 -68.5t-166 -24.5h-432v1031h262zM1385 1031v-1031h-275v1031h275zM376 464v-271h169q74 0 111.5 39t37.5 100q0 26 -8.5 50t-27 42t-46.5 29t-67 11h-169z" />
<glyph unicode="&#x44c;" horiz-adv-x="975" d="M376 1031v-374h168q108 0 183.5 -26.5t122.5 -71t68 -103t21 -123.5q0 -74 -26.5 -135t-77 -105t-123.5 -68.5t-166 -24.5h-432v1031h262zM376 464v-271h169q74 0 111.5 39t37.5 100q0 26 -8.5 50t-27 42t-46.5 29t-67 11h-169z" />
<glyph unicode="&#x44d;" horiz-adv-x="978" d="M44 899q71 72 160 110t207 38q124 0 218.5 -40.5t159 -111.5t97.5 -168t33 -210q0 -127 -37.5 -226t-101.5 -167t-149.5 -103.5t-180.5 -35.5q-54 0 -109 7.5t-108.5 27t-103.5 53t-94 84.5l75 91q17 25 50 25q25 0 44.5 -13t43.5 -28t59 -28t92 -13q94 0 158.5 62.5 t81.5 181.5h-416v184h413q-20 105 -80.5 163.5t-161.5 58.5q-49 0 -82.5 -10t-58 -22.5t-43.5 -22.5t-40 -10t-33 9t-24 24z" />
<glyph unicode="&#x44e;" horiz-adv-x="1621" d="M390 1031v-411h187q13 100 53 179t102.5 134t145.5 84.5t183 29.5q112 0 204.5 -37t158 -105.5t101.5 -166.5t36 -221t-37.5 -221.5t-104 -167.5t-158 -106t-200.5 -37q-104 0 -188.5 30.5t-147 87.5t-100.5 139t-50 186h-185v-428h-276v1031h276zM1061 192 q112 0 164 81.5t52 242.5q0 160 -52 241.5t-164 81.5t-164 -81.5t-52 -241.5q0 -161 52 -242.5t164 -81.5z" />
<glyph unicode="&#x44f;" horiz-adv-x="1027" d="M912 0h-262v406h-28q-31 0 -51 -5.5t-33.5 -16t-22.5 -24.5t-19 -31l-141 -236q-13 -23 -27.5 -40.5t-34 -29t-46 -17.5t-63.5 -6h-190l244 355q23 40 53 65.5t72 39.5q-71 13 -120 41.5t-79.5 65t-44 78t-13.5 81.5q0 58 23.5 113t73.5 97.5t129.5 68.5t190.5 26h389 v-1031zM383 715q0 -66 42.5 -104t111.5 -38h113v282h-119q-42 0 -70.5 -12.5t-46 -32.5t-24.5 -45t-7 -50z" />
<glyph unicode="&#x450;" horiz-adv-x="1072" d="M59 0zM561 1047q99 0 182.5 -31.5t144 -91.5t94 -147.5t33.5 -199.5q0 -31 -3 -51t-10 -32t-19 -16.5t-31 -4.5h-619q13 -145 82.5 -212t182.5 -67q57 0 98.5 13.5t73 30t57 30t50.5 13.5q32 0 50 -24l80 -100q-44 -51 -97 -84.5t-110 -53t-115 -27t-112 -7.5 q-108 0 -201.5 35.5t-163 105t-109.5 172.5t-40 239q0 105 34.5 198t99.5 162t158 109.5t210 40.5zM566 853q-99 0 -155 -56.5t-73 -159.5h430q0 43 -11.5 82t-36.5 69t-63 47.5t-91 17.5zM483 1467q43 0 64.5 -14t37.5 -42l139 -244h-156q-31 0 -50.5 8.5t-39.5 29.5 l-253 262h258z" />
<glyph unicode="&#x451;" horiz-adv-x="1072" d="M59 0zM561 1047q99 0 182.5 -31.5t144 -91.5t94 -147.5t33.5 -199.5q0 -31 -3 -51t-10 -32t-19 -16.5t-31 -4.5h-619q13 -145 82.5 -212t182.5 -67q57 0 98.5 13.5t73 30t57 30t50.5 13.5q32 0 50 -24l80 -100q-44 -51 -97 -84.5t-110 -53t-115 -27t-112 -7.5 q-108 0 -201.5 35.5t-163 105t-109.5 172.5t-40 239q0 105 34.5 198t99.5 162t158 109.5t210 40.5zM566 853q-99 0 -155 -56.5t-73 -159.5h430q0 43 -11.5 82t-36.5 69t-63 47.5t-91 17.5zM508 1294q0 -30 -12 -56t-32.5 -45.5t-48 -30.5t-58.5 -11q-29 0 -55.5 11 t-46.5 30.5t-32 45.5t-12 56t12 57t32 47.5t46.5 32t55.5 11.5q31 0 58.5 -11.5t48 -32t32.5 -47.5t12 -57zM923 1294q0 -30 -12 -56t-32 -45.5t-47.5 -30.5t-58.5 -11q-30 0 -57 11t-47 30.5t-31.5 45.5t-11.5 56t11.5 57t31.5 47.5t47 32t57 11.5q31 0 58.5 -11.5 t47.5 -32t32 -47.5t12 -57z" />
<glyph unicode="&#x452;" horiz-adv-x="1132" d="M-42 1276h156v215h275v-215h304v-203h-304v-238q58 53 127 85.5t164 32.5q190 0 280.5 -120.5t90.5 -354.5q0 -102 -16 -206.5t-45.5 -206.5t-71.5 -200.5t-94 -188.5l-222 82q43 87 75 171.5t54 172.5t33 181t11 195q0 73 -13.5 123.5t-37.5 82t-57 45t-72 13.5 q-58 0 -109 -25.5t-97 -69.5v-647h-275v1073h-156v203z" />
<glyph unicode="&#x453;" horiz-adv-x="847" d="M114 0zM825 1031v-201h-435v-830h-276v1031h711zM807 1467l-253 -262q-20 -21 -39.5 -29.5t-50.5 -8.5h-166l140 244q15 28 36.5 42t65.5 14h267z" />
<glyph unicode="&#x454;" horiz-adv-x="978" d="M865 809q-12 -15 -24 -24t-33 -9t-40 10t-43.5 22.5t-58 22.5t-82.5 10q-101 0 -162 -58.5t-80 -163.5h414v-184h-418q17 -119 81.5 -181.5t159.5 -62.5q57 0 92 13t59.5 28t43.5 28t44 13q33 0 50 -25l75 -91q-44 -51 -94 -84.5t-103.5 -53t-108.5 -27t-109 -7.5 q-95 0 -180 35.5t-149 103.5t-101.5 167t-37.5 226q0 113 33 210t97 168t158.5 111.5t218.5 40.5q118 0 207 -38t160 -110z" />
<glyph unicode="&#x455;" horiz-adv-x="885" d="M755 819q-11 -17 -22.5 -24.5t-31.5 -7.5t-41 10t-47 21.5t-59.5 21.5t-77.5 10q-67 0 -104 -27.5t-37 -72.5q0 -31 21 -52t55.5 -36.5t78.5 -29t90.5 -29.5t90.5 -37t78.5 -52.5t55.5 -76t21 -107.5q0 -75 -27.5 -138.5t-80.5 -109.5t-132 -72t-182 -26q-53 0 -105 9.5 t-99 27t-88 40.5t-71 50l64 103q11 18 27.5 28t42.5 10q25 0 46 -12.5t47 -27t61.5 -27t88.5 -12.5q40 0 69 9t47 24.5t26.5 35t8.5 40.5q0 34 -21.5 55.5t-56 37.5t-79.5 29t-91.5 29t-91 38t-79 55.5t-56 82.5t-21.5 119q0 64 25 121.5t75 101.5t124.5 70t172.5 26 q110 0 200 -36t148 -94z" />
<glyph unicode="&#x456;" horiz-adv-x="520" d="M398 1031v-1031h-276v1031h276zM431 1324q0 -35 -14 -65t-37.5 -53t-55 -36t-67.5 -13q-34 0 -64.5 13t-53.5 36t-36.5 53t-13.5 65t13.5 65.5t36.5 53.5t53.5 36t64.5 13q36 0 67.5 -13t55 -36t37.5 -53.5t14 -65.5z" />
<glyph unicode="&#x457;" horiz-adv-x="520" d="M0 0zM398 1031v-1031h-276v1031h276zM240 1294q0 -30 -12 -56t-32.5 -45.5t-48 -30.5t-58.5 -11q-29 0 -55 11t-46 30.5t-32 45.5t-12 56t12 57t32 47.5t46 32t55 11.5q31 0 58.5 -11.5t48 -32t32.5 -47.5t12 -57zM592 1294q0 -30 -11.5 -56t-32 -45.5t-47.5 -30.5 t-58 -11q-30 0 -57 11t-47 30.5t-31.5 45.5t-11.5 56t11.5 57t31.5 47.5t47 32t57 11.5q31 0 58 -11.5t47.5 -32t32 -47.5t11.5 -57z" />
<glyph unicode="&#x458;" horiz-adv-x="520" d="M398 1031v-1051q0 -70 -18 -131.5t-58.5 -107.5t-106 -73t-161.5 -27q-36 0 -67.5 5t-64.5 14l10 146q2 20 14.5 28t49.5 8t61 6.5t38.5 22.5t20.5 42.5t6 66.5v1051h276zM431 1324q0 -35 -14 -65t-37.5 -53t-55 -36t-67.5 -13q-34 0 -64.5 13t-53.5 36t-36.5 53 t-13.5 65t13.5 65.5t36.5 53.5t53.5 36t64.5 13q36 0 67.5 -13t55 -36t37.5 -53.5t14 -65.5z" />
<glyph unicode="&#x459;" horiz-adv-x="1691" d="M1093 1031v-374h167q108 0 183.5 -26.5t122.5 -71t68 -103t21 -123.5q0 -74 -26.5 -135t-77 -105t-123 -68.5t-165.5 -24.5h-446v824h-223q-13 -188 -38 -323t-60 -228.5t-78 -150t-92 -87t-101 -40.5t-105 -10q-62 0 -89 10t-27 29v168h62q32 0 64 9.5t62.5 39.5 t57.5 86t50 149t40 229t27 326h726zM1093 464v-271h169q74 0 111 39t37 100q0 26 -8.5 50t-26.5 42t-46.5 29t-67.5 11h-168z" />
<glyph unicode="&#x45a;" horiz-adv-x="1628" d="M1029 1031v-374h168q108 0 183.5 -26.5t122.5 -71t68 -103t21 -123.5q0 -74 -26.5 -135t-77 -105t-123.5 -68.5t-166 -24.5h-445v447h-364v-447h-276v1031h276v-383h364v383h275zM1029 464v-271h170q73 0 110.5 39t37.5 100q0 26 -8.5 50t-26.5 42t-46.5 29t-67.5 11 h-169z" />
<glyph unicode="&#x45b;" horiz-adv-x="1134" d="M-25 1299h139v192h275v-192h276v-167h-276v-237q58 53 127 85.5t164 32.5q84 0 149 -29t109.5 -81t67 -124t22.5 -158v-621h-275v621q0 86 -40 133.5t-118 47.5q-58 0 -109 -25.5t-97 -69.5v-707h-275v1132h-139v167z" />
<glyph unicode="&#x45c;" horiz-adv-x="1108" d="M114 0zM726 960q20 31 54.5 51t72.5 20h218l-230 -379q-25 -42 -51 -66.5t-63 -38.5q51 -16 83 -46t57 -76l229 -425h-190q-36 0 -63.5 6t-49 18t-37.5 29t-30 40l-132 273q-17 36 -48 53.5t-70 17.5h-86v-437h-276v1031h276v-417h72q42 0 65.5 14.5t40.5 46.5zM932 1467 l-253 -262q-20 -21 -39.5 -29.5t-50.5 -8.5h-166l140 244q15 28 36.5 42t65.5 14h267z" />
<glyph unicode="&#x45d;" horiz-adv-x="1173" d="M114 0zM114 -1v1031h276v-567q0 -24 -2.5 -53.5t-7.5 -59.5q23 53 47 87q1 2 17.5 26t42.5 61.5t58.5 84.5t66.5 96q79 114 180 259q15 24 40.5 45.5t57.5 21.5h168v-1031h-276v567q0 23 2.5 52t7.5 58q-23 -52 -47 -84q-2 -2 -18 -26t-42 -61.5t-58.5 -84.5t-66.5 -96 q-79 -114 -179 -259q-8 -12 -18.5 -23.5t-23 -21.5t-26.5 -16t-30 -6h-169zM517 1467q43 0 64.5 -14t37.5 -42l139 -244h-156q-31 0 -50.5 8.5t-39.5 29.5l-253 262h258z" />
<glyph unicode="&#x45e;" horiz-adv-x="1064" d="M0 0zM514 -277q-13 -28 -31.5 -42t-58.5 -14h-205l195 415l-414 949h242q33 0 51 -15t26 -35l196 -493q21 -59 36 -117q9 30 19.5 59.5t21.5 58.5l182 492q8 22 29 36t46 14h221zM557 1296q36 0 59.5 7.5t37 25.5t19 47.5t5.5 74.5h163q29 0 42.5 -24t13.5 -51 q0 -52 -24.5 -93.5t-69.5 -70.5t-107.5 -44.5t-138.5 -15.5t-138.5 15.5t-107.5 44.5t-69.5 70.5t-24.5 93.5q0 27 13.5 51t42.5 24h163q0 -45 5.5 -74.5t19 -47.5t37 -25.5t59.5 -7.5z" />
<glyph unicode="&#x45f;" horiz-adv-x="1144" d="M114 1031h276v-830h364v830h275v-1031h-332v-262q0 -37 -22 -58.5t-56 -21.5h-172v342h-333v1031z" />
<glyph unicode="&#x460;" horiz-adv-x="2153" d="M1195 1333q60 58 144.5 95.5t204.5 37.5q144 0 245 -57.5t164.5 -156.5t92.5 -231.5t29 -283.5q0 -173 -36.5 -312.5t-108.5 -237.5t-179.5 -150.5t-250.5 -52.5q-128 0 -232 41.5t-192 122.5q-87 -81 -191 -122.5t-232 -41.5q-143 0 -250.5 52.5t-179.5 150.5 t-108.5 237.5t-36.5 312.5q0 151 29 283.5t93 231.5t165 156.5t245 57.5q119 0 204 -37.5t145 -95.5l-63 -147q-15 -23 -28 -30.5t-32 -7.5q-17 0 -34.5 10.5t-39.5 23t-51.5 23t-69.5 10.5q-62 0 -111 -30t-83 -91t-52 -154t-18 -219q0 -117 17 -207.5t53 -152.5t93.5 -94 t138.5 -32q73 0 134 26t113 77v442h302v-443q52 -51 112.5 -76.5t133.5 -25.5q81 0 138.5 32t94 94t53.5 152.5t17 207.5q0 126 -18 219t-52 154t-83 91t-111 30q-41 0 -70 -10.5t-51 -23t-39.5 -23t-34.5 -10.5q-19 0 -32.5 7.5t-28.5 30.5z" />
<glyph unicode="&#x461;" horiz-adv-x="1574" d="M376 0q-58 57 -109.5 125t-89.5 142.5t-60.5 154.5t-22.5 161v448h189q41 0 59 -24t18 -54v-340q0 -115 41 -206t107 -157q30 33 57 73t46.5 86t31 97.5t11.5 105.5v419h188q42 0 60 -24t18 -54v-331q0 -109 38 -203t108 -169q31 33 60 76t51.5 98t36 123t13.5 151 q0 60 -6.5 103.5t-14 75t-14 54t-6.5 40.5q0 23 14.5 41.5t42.5 18.5h208q20 -92 30 -171t10 -158q0 -116 -20 -215t-57.5 -184.5t-92 -160t-123.5 -142.5h-162q-21 0 -34 8t-29 26q-51 54 -100 125.5t-87 155.5q-37 -83 -85.5 -155t-99.5 -127q-8 -9 -14 -15t-12 -10 t-13.5 -6t-19.5 -2h-166z" />
<glyph unicode="&#x462;" horiz-adv-x="1478" d="M685 1451v-193h417v-217h-417v-181h218q145 0 248 -32t167.5 -87t94.5 -127.5t30 -154.5q0 -104 -36.5 -188.5t-105.5 -144.5t-169.5 -93t-228.5 -33h-518v1041h-343v217h343v193h300zM685 629v-399h218q71 0 118 16t75 43.5t39.5 63.5t11.5 76q0 45 -11.5 82t-39 63.5 t-74.5 40.5t-119 14h-218z" />
<glyph unicode="&#x463;" horiz-adv-x="1143" d="M532 1292v-262h308v-204h-308v-169h188q108 0 183.5 -26.5t122 -71t67.5 -103t21 -123.5q0 -74 -26.5 -135t-76.5 -105t-123 -68.5t-166 -24.5h-452v826h-244v204h244v262h262zM532 464v-271h189q74 0 111.5 39t37.5 100q0 26 -8.5 50t-27 42t-46.5 29t-67 11h-189z" />
<glyph unicode="&#x464;" horiz-adv-x="1914" d="M1723 357q25 0 43 -18l119 -127q-85 -112 -211 -170t-299 -58q-145 0 -263 47.5t-204 132.5t-138.5 203t-66.5 259h-249v-626h-302v1451h302v-606h251q18 139 75 253.5t146.5 196.5t207.5 127t258 45q156 0 275 -53t200 -138l-100 -138q-10 -13 -23.5 -23t-37.5 -10 t-47 17t-57 38t-84 38t-128 17q-74 0 -136.5 -24.5t-111.5 -72t-82 -116.5t-46 -157h582v-219h-584q12 -94 46.5 -167t85.5 -122.5t115 -75.5t136 -26q47 0 85.5 5t71.5 17t62.5 31t59.5 48q11 9 23.5 15t25.5 6z" />
<glyph unicode="&#x465;" horiz-adv-x="1401" d="M1227 284q20 0 36 -16l105 -112q-59 -84 -150.5 -125.5t-214.5 -41.5q-103 0 -186 32.5t-144.5 90t-100 137.5t-50.5 175h-142v-424h-266v1031h266v-415h144q15 94 56.5 172.5t105 135t147 87.5t181.5 31q114 0 201.5 -39.5t142.5 -100.5l-90 -123q-8 -11 -20 -19t-33 -8 q-20 0 -35.5 10.5t-35.5 23.5t-50.5 23.5t-81.5 10.5q-81 0 -138 -52t-77 -152h370v-192h-370q10 -52 31.5 -92t51 -67t65.5 -41t76 -14q26 0 48 2.5t41.5 8.5t37.5 17t36 28q20 18 43 18z" />
<glyph unicode="&#x466;" horiz-adv-x="1469" d="M1499 0h-242q-39 0 -64 18.5t-36 47.5l-191 494h-91v-560h-285v560h-87l-191 -494q-10 -25 -35 -45.5t-63 -20.5h-243l619 1451h289zM584 768h301l-87 227q-15 38 -31.5 89.5t-32.5 111.5q-15 -61 -31.5 -113t-31.5 -90z" />
<glyph unicode="&#x467;" horiz-adv-x="1179" d="M1193 0h-214q-34 0 -55.5 16t-31.5 42l-121 282h-58v-340h-250v340h-54l-121 -282q-9 -22 -31.5 -40t-54.5 -18h-215l475 1031h255zM487 523h205l-48 113q-13 32 -27.5 76.5t-28.5 96.5q-13 -53 -27 -98t-26 -77z" />
<glyph unicode="&#x468;" horiz-adv-x="2082" d="M823 560h-369v-560h-302v1451h302v-683h457l292 683h289l620 -1451h-242q-39 0 -64 18.5t-36 47.5l-191 494h-91v-560h-285v560h-87l-191 -494q-10 -25 -35 -45.5t-63 -20.5h-243zM1197 768h301l-87 227q-15 38 -31.5 89.5t-32.5 111.5q-15 -61 -31.5 -113t-31.5 -90z " />
<glyph unicode="&#x469;" horiz-adv-x="1659" d="M623 340h-243v-340h-266v1031h266v-508h327l235 508h255l475 -1031h-213q-35 0 -56 16t-32 42l-121 282h-57v-340h-250v340h-55l-120 -282q-9 -22 -31.5 -40t-55.5 -18h-215zM966 523h206l-48 113q-14 32 -28 76.5t-28 96.5q-13 -53 -27 -98t-27 -77z" />
<glyph unicode="&#x46a;" horiz-adv-x="1734" d="M714 628h-11q-51 0 -87 -7.5t-61.5 -26t-44 -51t-34.5 -82.5l-129 -395q-11 -25 -36 -45.5t-63 -20.5h-243l187 485q27 69 60.5 126t77.5 100t99.5 72t126.5 42l-500 625h238h8h1374l-500 -624q71 -13 127.5 -42t101 -72t78.5 -100t61 -127l187 -485h-244q-38 0 -63 20.5 t-35 45.5l-129 395q-17 50 -35 82.5t-43.5 51t-61.5 26t-87 7.5h-15l-1 -1h-11v-627h-285v627h-6zM698 1028q32 -40 58.5 -73t47.5 -64t36.5 -61.5t25.5 -65.5q9 35 24.5 65.5t36.5 61.5t48 64t59 73l167 215h-670z" />
<glyph unicode="&#x46b;" horiz-adv-x="1361" d="M955 593q51 -14 90.5 -38t71.5 -58t57 -77.5t48 -95.5l138 -324h-215q-32 0 -54.5 18t-32.5 40l-85 245q-14 38 -28 62t-33.5 37.5t-46 18.5t-63.5 5v-426h-250v426q-35 -1 -60 -6.5t-43.5 -19t-32 -37t-26.5 -60.5l-85 -245q-10 -22 -32 -40t-55 -18h-215l138 324 q22 52 47 95t56.5 77t71 58t89.5 38l-370 439h210h7h1073zM534 773q27 -35 50 -63t41.5 -54.5t32 -53t22.5 -56.5q8 30 21.5 56.5t32 53t41.5 54.5t51 63l66 75h-425z" />
<glyph unicode="&#x46c;" horiz-adv-x="2359" d="M814 484q17 45 54.5 81.5t88.5 62.5h-503v-628h-302v1451h302v-615h720l-491 614h1619l-500 -624q72 -13 128 -42t100.5 -72t78.5 -100t61 -127l187 -485h-243q-38 0 -63 20.5t-36 45.5l-129 395q-17 50 -35 82.5t-43.5 51t-61.5 26t-87 7.5h-15l-1 -1h-11v-627h-285v627 h-5l-1 1h-36q-42 -1 -73 -9t-55 -27t-42.5 -51t-34.5 -80l-131 -395q-10 -25 -35 -45.5t-63 -20.5h-243zM1324 1028q32 -40 58.5 -73t47.5 -63.5t36.5 -60.5t25.5 -65q10 35 25.5 65t36.5 60.5t47.5 63.5t58.5 73l167 215h-670z" />
<glyph unicode="&#x46d;" horiz-adv-x="1848" d="M627 324q12 32 38.5 57t63.5 45h-349v-426h-266v1031h266v-422h499l-355 422h1072h7h210l-370 -438q51 -14 90.5 -38t71.5 -58t57 -77.5t48 -95.5l138 -324h-215q-33 0 -55 18t-32 40l-85 245q-13 38 -27 61.5t-33.5 37t-46 19t-63.5 5.5v-426h-250v426h-4 q-32 -1 -56.5 -6.5t-43 -19t-33 -37t-27.5 -60.5l-88 -245q-9 -22 -31 -40t-55 -18h-214zM1023 773q27 -35 50 -63t41.5 -54.5t32 -53t22.5 -56.5q8 30 21.5 56.5t32 53t41.5 54.5t51 63l66 75h-425z" />
<glyph unicode="&#x46e;" horiz-adv-x="1140" d="M820 -395q-2 49 -31 67.5t-96 18.5q-24 0 -42.5 -1.5t-39 -3.5t-47 -3.5t-66.5 -1.5q-245 0 -362 72t-117 224q0 140 89.5 216.5t251.5 76.5q63 0 113 -8.5t99 -8.5q51 0 90 14t65 39.5t39 61t13 77.5q0 52 -19.5 89.5t-55 61.5t-85 35t-110.5 10h-207l-1 238h185 q126 0 192 46t66 134q0 77 -62 122t-181 45q-69 0 -120 -15t-88.5 -33.5t-65.5 -33.5t-50 -15q-23 0 -37.5 10.5t-28.5 32.5l-74 141q84 72 203.5 113t262.5 41q120 0 216.5 -28t164.5 -78.5t104.5 -121t36.5 -155.5q0 -98 -43 -180t-132 -135q47 -23 86 -55t66.5 -72.5 t43 -90t15.5 -108.5q0 -81 -30.5 -159t-93.5 -138.5t-160.5 -97.5t-232.5 -37q-33 0 -57.5 2t-44 4.5t-35.5 4.5t-31 2q-39 0 -57.5 -15.5t-18.5 -42.5q0 -17 7.5 -29t25 -20t47 -12t73.5 -4q33 0 67 1.5t66.5 3.5t62 3.5t53.5 1.5q75 0 125 -17t80 -48t42 -73t12 -92 q0 -13 -1.5 -26.5t-7.5 -24.5t-18.5 -18t-34.5 -7h-79v0z" />
<glyph unicode="&#x46f;" horiz-adv-x="889" d="M750 1169h-17q-27 0 -42.5 -13t-27.5 -26l-97 -105q57 -16 101.5 -42.5t75 -60.5t46.5 -73t16 -81q0 -29 -8.5 -60.5t-27.5 -61t-50.5 -55t-76.5 -43.5q45 -18 79 -43.5t57 -56t34.5 -65.5t11.5 -71q0 -69 -26.5 -128t-76.5 -101.5t-122.5 -67t-165.5 -24.5 q-39 0 -76 3.5t-59 3.5q-29 0 -45.5 -11t-16.5 -37q0 -33 26 -46.5t74 -13.5q21 0 49 1.5t58.5 3.5t60.5 3.5t54 1.5q75 0 124.5 -17.5t79.5 -48t42 -73t12 -92.5q0 -13 -1.5 -26t-7.5 -24t-18.5 -18t-34.5 -7h-79q-2 49 -30.5 67.5t-96.5 18.5q-48 0 -95 -5t-93 -5 q-72 0 -134 18t-108.5 53t-73 87t-26.5 120q0 53 17 98t51.5 78t85 52t118.5 19q29 0 60.5 -3t54.5 -3q38 0 67 10.5t49 27.5t30 40t10 48q0 65 -44.5 98t-147.5 33h-116v175h116q91 0 138 31t47 83q0 48 -41.5 77t-121.5 29q-51 0 -86 -10.5t-60.5 -22.5t-44 -22.5 t-35.5 -10.5q-19 0 -32 7t-28 31l-63 104q49 47 115.5 80.5t155.5 44.5l-210 258h157q29 0 49 -7t35 -28l64 -85q8 -11 16.5 -24t16.5 -27q13 27 32 51l60 79q19 25 51 38.5t73 13.5q27 0 49.5 -5t43.5 -13v-124z" />
<glyph unicode="&#x470;" horiz-adv-x="1681" d="M282 1451q48 0 74 -28.5t26 -70.5v-423q0 -80 14.5 -141.5t50 -105t94 -68.5t146.5 -32v869h302v-870q88 7 147.5 32t95 68.5t50.5 105.5t15 142v423q0 42 26 70.5t74 28.5h202v-522q0 -127 -39 -231t-115.5 -179.5t-190.5 -120t-265 -53.5v-345h-302v345q-150 9 -264 54 t-190 120.5t-114.5 179t-38.5 230.5v522h202z" />
<glyph unicode="&#x471;" horiz-adv-x="1602" d="M941 1451v-1249q72 9 127.5 30.5t93.5 62t57.5 102t19.5 150.5q0 81 -7.5 137t-16.5 99.5t-17.5 80t-9.5 80.5q0 24 6.5 40.5t17.5 27t24.5 15t27.5 4.5h199q12 -64 21.5 -123.5t16.5 -118.5t10.5 -119t3.5 -123q0 -148 -44.5 -249.5t-122 -166t-182.5 -97.5t-225 -43 v-323h-276v321q-151 12 -258 52.5t-175.5 107t-100.5 157t-32 201.5v524h191q17 0 32 -10t26.5 -25t18.5 -33t7 -34v-422q0 -133 75.5 -206.5t215.5 -95.5v1246h276z" />
<glyph unicode="&#x472;" horiz-adv-x="1622" d="M1554 726q0 -159 -53.5 -295t-151 -235t-234.5 -155.5t-304 -56.5t-304 56.5t-235 155.5t-151.5 235t-53.5 295t53.5 294.5t151.5 234.5t235 155.5t304 56.5t304 -56.5t234.5 -156t151 -235t53.5 -293.5zM811 237q90 0 164 26t128.5 76t89.5 122.5t47 164.5h-860 q12 -92 47 -164.5t90.5 -122.5t129.5 -76t164 -26zM811 1215q-88 0 -160.5 -25t-127 -73t-90 -116.5t-50.5 -155.5h854q-14 87 -49.5 155.5t-90 116.5t-127 73t-159.5 25z" />
<glyph unicode="&#x473;" horiz-adv-x="1155" d="M579 1047q116 0 211 -37t163 -105.5t105 -166.5t37 -221t-37 -221.5t-105 -167.5t-163 -106t-211 -37q-117 0 -212.5 37t-163.5 106t-105.5 167.5t-37.5 221.5t37.5 221t105.5 166.5t163.5 105.5t212.5 37zM579 184q103 0 166 62t78 190h-493q16 -128 79.5 -190 t169.5 -62zM579 848q-103 0 -166 -59t-81 -177h489q-18 118 -80 177t-162 59z" />
<glyph unicode="&#x474;" horiz-adv-x="1438" d="M-22 1451h241q39 0 63.5 -18.5t36.5 -47.5l314 -836q18 -47 36 -102.5t32 -115.5q13 60 29 115.5t34 102.5l216 682q37 117 114 173.5t208 56.5q39 0 63 -3t37 -9.5t17.5 -17t4.5 -25.5v-184h-54q-46 0 -77 -24t-51 -78l-408 -1120h-272z" />
<glyph unicode="&#x475;" horiz-adv-x="1110" d="M657 0h-250l-407 1031h229q30 0 50.5 -14t27.5 -36l175 -510q18 -54 31 -105t24 -103q11 51 24 102t30 106l110 362q19 66 45.5 107t59.5 64.5t72.5 32t85.5 8.5q37 0 60 -4t36 -10t17.5 -13t4.5 -12v-149h-31q-40 0 -69 -16.5t-43 -54.5z" />
<glyph unicode="&#x476;" horiz-adv-x="1438" d="M0 0zM-22 1451h241q39 0 63.5 -18.5t36.5 -47.5l314 -836q18 -47 36 -102.5t32 -115.5q13 60 29 115.5t34 102.5l216 682q37 117 114 173.5t208 56.5q39 0 63 -3t37 -9.5t17.5 -17t4.5 -25.5v-184h-54q-46 0 -77 -24t-51 -78l-408 -1120h-272zM740 1826q43 0 70.5 -15 t43.5 -41l134 -220h-130q-31 0 -49.5 10t-40.5 29l-206 237h178zM359 1826q44 0 72.5 -15.5t49.5 -40.5l182 -220h-148q-31 0 -53.5 9.5t-45.5 29.5l-262 237h205z" />
<glyph unicode="&#x477;" horiz-adv-x="1110" d="M0 0zM657 0h-250l-407 1031h229q30 0 50.5 -14t27.5 -36l175 -510q18 -54 31 -105t24 -103q11 51 24 102t30 106l110 362q19 66 45.5 107t59.5 64.5t72.5 32t85.5 8.5q37 0 60 -4t36 -10t17.5 -13t4.5 -12v-149h-31q-40 0 -69 -16.5t-43 -54.5zM569 1467q43 0 65 -14 t36 -42l122 -244h-112q-32 0 -52.5 7.5t-37.5 30.5l-200 262h179zM224 1467q21 0 36.5 -4t26.5 -11t20.5 -17.5t18.5 -23.5l177 -244h-130q-32 0 -51 8.5t-39 29.5l-256 262h197z" />
<glyph unicode="&#x478;" horiz-adv-x="2673" d="M68 0zM1555 726q0 -159 -53.5 -295t-151 -235t-234.5 -155.5t-304 -56.5t-304 56.5t-235 155.5t-151.5 235t-53.5 295t53.5 294.5t151.5 234.5t235 155.5t304 56.5t304 -56.5t234.5 -156t151 -235t53.5 -293.5zM1248 726q0 114 -30 204.5t-86.5 154t-137 97t-182.5 33.5 t-183 -33.5t-137.5 -97t-86.5 -154t-30 -204.5q0 -115 30 -205.5t86.5 -153.5t137.5 -96.5t183 -33.5t182.5 33.5t137 96.5t86.5 153.5t30 205.5zM2128 -277q-13 -28 -31.5 -42t-58.5 -14h-205l195 415l-414 949h242q33 0 51 -15t26 -35l196 -493q21 -59 36 -117 q9 30 19.5 59.5t21.5 58.5l182 492q8 22 29 36t46 14h221z" />
<glyph unicode="&#x479;" horiz-adv-x="2228" d="M60 0zM579 1047q116 0 211 -37t163 -105.5t105 -166.5t37 -221t-37 -221.5t-105 -167.5t-163 -106t-211 -37q-117 0 -212.5 37t-163.5 106t-105.5 167.5t-37.5 221.5t37.5 221t105.5 166.5t163.5 105.5t212.5 37zM579 192q118 0 175 81.5t57 242.5q0 160 -57 241.5 t-175 81.5q-121 0 -178 -81.5t-57 -241.5q0 -161 57 -242.5t178 -81.5zM1678 -277q-13 -28 -31.5 -42t-58.5 -14h-205l195 415l-414 949h242q33 0 51 -15t26 -35l196 -493q21 -59 36 -117q9 30 19.5 59.5t21.5 58.5l182 492q8 22 29 36t46 14h221z" />
<glyph unicode="&#x47a;" horiz-adv-x="1737" d="M67 726q0 144 44.5 269t126 221.5t196.5 159t257 82.5q28 44 75 70.5t106 26.5q58 0 106 -26.5t77 -71.5q140 -21 253.5 -84.5t194 -159.5t124 -220.5t43.5 -266.5q0 -143 -43.5 -267t-124 -220.5t-194 -160t-252.5 -84.5q-29 -45 -77 -71.5t-107 -26.5q-60 0 -107 26 t-75 71q-142 19 -257 82t-196.5 159.5t-125.5 222t-44 269.5zM374 726q0 -100 22.5 -181.5t65.5 -143t105 -101t141 -54.5q29 34 71 53.5t93 19.5q49 0 91 -19t72 -52q77 16 138 56.5t103 101.5t64.5 141.5t22.5 178.5t-22 179t-64 142t-103 100.5t-138 56.5 q-29 -34 -71.5 -53t-92.5 -19q-51 0 -93.5 19.5t-71.5 53.5q-79 -16 -141 -55.5t-104.5 -101t-65 -142.5t-22.5 -180z" />
<glyph unicode="&#x47b;" horiz-adv-x="1324" d="M59 517q0 108 29 197t83 156t130.5 110t171.5 58q27 49 76.5 78.5t112.5 29.5q62 0 111.5 -29.5t77.5 -78.5q94 -15 171 -58t131 -110t83.5 -156t29.5 -197q0 -110 -30 -200t-85 -157.5t-133 -110t-174 -56.5q-29 -45 -76.5 -71t-105.5 -26q-60 0 -107.5 26t-76.5 71 q-95 15 -172.5 57.5t-132.5 110t-84.5 157.5t-29.5 199zM344 516q0 -120 31.5 -196t97.5 -107q28 48 77.5 77t111.5 29q61 0 110.5 -29.5t77.5 -77.5q67 31 99 107t32 197q0 122 -33.5 198.5t-102.5 105.5q-29 -45 -76.5 -71t-106.5 -26q-60 0 -107.5 26t-76.5 71 q-69 -30 -101.5 -106.5t-32.5 -197.5z" />
<glyph unicode="&#x47c;" horiz-adv-x="2155" d="M1195 1333q60 58 145 95.5t205 37.5q144 0 245 -57.5t164.5 -156.5t92.5 -231.5t29 -283.5q0 -173 -36.5 -312.5t-108.5 -237.5t-179.5 -150.5t-250.5 -52.5q-128 0 -232 42t-192 122q-87 -80 -191 -122t-232 -42q-143 0 -250.5 52.5t-179.5 150.5t-108.5 237.5 t-36.5 312.5q0 151 29 283.5t92.5 231.5t164.5 156.5t245 57.5q120 0 205 -37.5t145 -95.5l-63 -147q-15 -23 -28 -30.5t-32 -7.5q-17 0 -34.5 10.5t-39.5 23t-51.5 23t-69.5 10.5q-62 0 -111.5 -30t-83.5 -91t-52 -154t-18 -219q0 -117 17 -207.5t53.5 -152.5t94 -94 t138.5 -32q105 0 173 53t113 156h223q45 -103 113 -156t173 -53q81 0 138.5 32t94 94t53.5 152.5t17 207.5q0 126 -18 219t-52 154t-83.5 91t-111.5 30q-41 0 -70 -10.5t-51 -23t-39 -23t-34 -10.5q-20 0 -33 7.5t-28 30.5zM724 1656q0 66 19 116.5t54 84.5t85 51.5 t112 17.5q48 0 89.5 -9.5t80 -24.5t76 -31.5t79 -31.5t89 -24.5t105.5 -9.5v-140q-102 0 -177.5 20t-135 44t-106.5 44t-92 20q-51 0 -80.5 -31.5t-29.5 -95.5h-168zM1049 1442q32 8 48 20t18 40q-4 -1 -8.5 -1h-9.5q-32 0 -53.5 7.5t-35 19.5t-19 28t-5.5 34 q0 44 28.5 72.5t81.5 28.5q63 0 95.5 -40.5t32.5 -101.5q0 -41 -13.5 -74.5t-40.5 -58t-67.5 -38t-95.5 -12.5v42q0 14 10 21.5t34 12.5z" />
<glyph unicode="&#x47d;" horiz-adv-x="1564" d="M849 942q45 43 108.5 71t154.5 28q106 0 179.5 -41t119.5 -111.5t66.5 -165t20.5 -201.5q0 -120 -25 -218t-76 -168t-129.5 -108.5t-185.5 -38.5q-91 0 -164 27.5t-136 82.5q-63 -54 -136 -82t-163 -28q-107 0 -185.5 38.5t-130 108.5t-76.5 168t-25 218q0 107 21 201.5 t67 165t119.5 111.5t178.5 41q91 0 155.5 -28t108.5 -71l-54 -131q-14 -21 -25.5 -27t-28.5 -6q-14 0 -27 6.5t-27.5 14.5t-32 14.5t-41.5 6.5q-34 0 -62 -17.5t-47.5 -55t-30.5 -96.5t-11 -143q0 -70 8 -125.5t28 -93.5t54 -58.5t86 -20.5q67 0 108.5 35t71.5 112h195 q29 -77 71 -112t109 -35q52 0 86 20.5t53.5 58.5t27.5 93.5t8 125.5q0 84 -10.5 143t-30 96.5t-47.5 55t-62 17.5q-24 0 -41.5 -6.5t-32.5 -14.5t-28 -14.5t-27 -6.5q-17 0 -28 6t-25 27zM432 1278q0 66 19 116.5t54 84.5t85 51.5t112 17.5q48 0 89.5 -9.5t80 -24.5 t76.5 -31.5t79.5 -31.5t89 -24.5t105.5 -9.5v-139q-68 0 -124.5 9.5t-103 23.5t-85.5 30.5t-73.5 30.5t-65 23.5t-60.5 9.5q-51 0 -80.5 -31t-29.5 -96h-168zM757 1064q32 8 48 20.5t18 40.5q-4 -1 -8.5 -1h-9.5q-32 0 -53.5 7.5t-35 19.5t-19 28t-5.5 33q0 44 28.5 73 t81.5 29q63 0 95.5 -41t32.5 -102q0 -41 -13.5 -74.5t-40.5 -58t-67.5 -37.5t-95.5 -13v42q0 14 10 21.5t34 12.5z" />
<glyph unicode="&#x47e;" horiz-adv-x="2153" d="M78 0zM1195 1333q60 58 144.5 95.5t204.5 37.5q144 0 245 -57.5t164.5 -156.5t92.5 -231.5t29 -283.5q0 -173 -36.5 -312.5t-108.5 -237.5t-179.5 -150.5t-250.5 -52.5q-128 0 -232 41.5t-192 122.5q-87 -81 -191 -122.5t-232 -41.5q-143 0 -250.5 52.5t-179.5 150.5 t-108.5 237.5t-36.5 312.5q0 151 29 283.5t93 231.5t165 156.5t245 57.5q119 0 204 -37.5t145 -95.5l-63 -147q-15 -23 -28 -30.5t-32 -7.5q-17 0 -34.5 10.5t-39.5 23t-51.5 23t-69.5 10.5q-62 0 -111 -30t-83 -91t-52 -154t-18 -219q0 -117 17 -207.5t53 -152.5t93.5 -94 t138.5 -32q73 0 134 26t113 77v442h302v-443q52 -51 112.5 -76.5t133.5 -25.5q81 0 138.5 32t94 94t53.5 152.5t17 207.5q0 126 -18 219t-52 154t-83 91t-111 30q-41 0 -70 -10.5t-51 -23t-39.5 -23t-34.5 -10.5q-19 0 -32.5 7.5t-28.5 30.5zM1528 1801q0 -16 -2 -26.5 t-5 -22.5l-68 -214q-5 -16 -16.5 -24t-23.5 -8t-23 8t-16 24l-40 131h-178l-41 -131q-5 -16 -16.5 -24t-23.5 -8t-23 8t-16 24l-40 131h-181l-41 -131q-5 -16 -16.5 -24t-24 -8t-23.5 8t-16 24l-63 213q-2 11 -4.5 22.5t-2.5 27.5h904z" />
<glyph unicode="&#x47f;" horiz-adv-x="1574" d="M94 0zM376 0q-58 57 -109.5 125t-89.5 142.5t-60.5 154.5t-22.5 161v448h189q41 0 59 -24t18 -54v-340q0 -115 41 -206t107 -157q30 33 57 73t46.5 86t31 97.5t11.5 105.5v419h188q42 0 60 -24t18 -54v-331q0 -109 38 -203t108 -169q31 33 60 76t51.5 98t36 123t13.5 151 q0 60 -6.5 103.5t-14 75t-14 54t-6.5 40.5q0 23 14.5 41.5t42.5 18.5h208q20 -92 30 -171t10 -158q0 -116 -20 -215t-57.5 -184.5t-92 -160t-123.5 -142.5h-162q-21 0 -34 8t-29 26q-51 54 -100 125.5t-87 155.5q-37 -83 -85.5 -155t-99.5 -127q-8 -9 -14 -15t-12 -10 t-13.5 -6t-19.5 -2h-166zM1239 1381q0 -16 -2 -26.5t-5 -22.5l-68 -214q-5 -16 -16.5 -24t-23.5 -8t-23 8t-16 24l-40 131h-178l-41 -131q-5 -16 -16.5 -24t-23.5 -8t-23 8t-16 24l-40 131h-181l-41 -131q-5 -16 -16.5 -24t-24 -8t-23.5 8t-16 24l-63 213q-2 11 -4.5 22.5 t-2.5 27.5h904z" />
<glyph unicode="&#x480;" horiz-adv-x="1270" d="M1111 269v-531q0 -37 -22 -58.5t-56 -21.5h-173v337q-25 -2 -48.5 -2.5t-38.5 -0.5q-163 0 -293 54.5t-221 152t-140 232t-49 295.5q0 108 24 205.5t68 179.5t108 148t144 112.5t174.5 71t201.5 24.5q80 0 151.5 -14t133.5 -39t114.5 -60.5t94.5 -77.5l-101 -138 q-9 -13 -23 -23t-38 -10q-25 0 -49 17t-60 38t-89 38t-136 17q-91 0 -166.5 -33t-130 -95.5t-84.5 -153.5t-30 -207q0 -117 31.5 -208.5t87.5 -154.5t132.5 -95.5t165.5 -32.5q61 0 96 5.5t57 11.5t38.5 11.5t40.5 5.5h85z" />
<glyph unicode="&#x481;" horiz-adv-x="941" d="M862 801q-12 -16 -24 -24.5t-34 -8.5q-20 0 -38.5 11.5t-42.5 25t-57 25t-82 11.5q-62 0 -107.5 -22.5t-75.5 -64.5t-44.5 -102t-14.5 -135q0 -158 63.5 -242t173.5 -84q35 0 58.5 5.5t39 11.5t25 11.5t16.5 5.5h105v-488q0 -37 -22 -58.5t-56 -21.5h-172v329 q-11 0 -22.5 -0.5t-22.5 -0.5q-95 0 -180 35.5t-149 103.5t-101.5 167t-37.5 226q0 113 33 210t97 168t158.5 111.5t218.5 40.5q118 0 207 -38t160 -110z" />
<glyph unicode="&#x482;" horiz-adv-x="1470" d="M860 1150l220 319l231 -149l-225 -326l360 -246l-135 -196l-360 246l-206 -299l361 -247l-136 -196l-360 247l-220 -320l-230 149l224 326l-360 248l135 196l360 -248l206 300l-361 248l136 196z" />
<glyph unicode="&#x483;" horiz-adv-x="800" d="M191 1176v-99h-72q-30 0 -57.5 9t-48.5 27t-33.5 44.5t-12.5 61.5q0 37 12 64.5t32.5 45t48.5 26t60 8.5h489v99h72q30 0 57.5 -9t48.5 -27t33.5 -45t12.5 -62q0 -38 -12 -65t-33 -44.5t-49 -25.5t-59 -8h-489z" />
<glyph unicode="&#x484;" horiz-adv-x="800" d="M523 1302q-38 0 -70.5 -10.5t-65.5 -26.5t-69 -35t-82 -35t-104.5 -26.5t-136.5 -10.5v162q65 0 116 11t94 27t80.5 35.5t76.5 35.5t83 27t99 11q79 0 134 -19.5t89.5 -58.5t50 -96.5t15.5 -133.5h-195q0 44 -10 72t-26 43.5t-36.5 21.5t-42.5 6z" />
<glyph unicode="&#x485;" horiz-adv-x="800" d="M400 1265q5 -29 24 -44.5t55 -23.5q31 -7 43 -16.5t12 -26.5v-52q-68 -1 -118 18t-83 51.5t-49.5 76.5t-16.5 93q0 75 40 116t118 41q64 0 99 -35t35 -89q0 -21 -7 -40.5t-23 -35t-42.5 -24.5t-65.5 -9h-21z" />
<glyph unicode="&#x486;" horiz-adv-x="800" d="M346 1195q39 8 58 23t22 48q-5 -2 -10 -2h-11q-39 0 -65.5 9t-42.5 24t-23 35t-7 41q0 54 34.5 88.5t99.5 34.5q39 0 68.5 -13.5t49.5 -36.5t30 -54.5t10 -68.5q0 -49 -16.5 -90t-50 -71t-83.5 -46t-117 -16v53q0 16 12 26t42 16z" />
<glyph unicode="&#x488;" horiz-adv-x="2276" d="M1137 23q70 0 123 -19.5t88 -54.5t52.5 -83t17.5 -105h-192q0 48 -17.5 72t-71.5 24q-53 0 -70 -24t-17 -72h-193q0 57 17.5 105t52.5 83t87.5 54.5t122.5 19.5zM1137 1610q70 0 123 -19.5t88 -54.5t52.5 -83.5t17.5 -105.5h-192q0 49 -17.5 73t-71.5 24q-53 0 -70 -24 t-17 -73h-193q0 57 17.5 105.5t52.5 83.5t87.5 54.5t122.5 19.5zM339 817q70 0 122.5 -19.5t88 -54.5t53 -83.5t17.5 -105.5h-193q0 49 -17 73t-71 24t-71 -24t-17 -73h-192q0 57 17.5 105.5t52.5 83.5t87.5 54.5t122.5 19.5zM1936 817q70 0 122.5 -19.5t88 -54.5t53 -83.5 t17.5 -105.5h-193q0 49 -17 73t-71 24t-70.5 -24t-16.5 -73h-193q0 57 17.5 105.5t52.5 83.5t87.5 54.5t122.5 19.5zM532 368q70 0 123 -19.5t88 -54.5t52.5 -83t17.5 -105h-192q0 48 -17.5 72t-71.5 24t-70.5 -24t-16.5 -72h-193q0 57 17.5 105t52.5 83t87.5 54.5 t122.5 19.5zM1743 368q70 0 122.5 -19.5t88 -54.5t53 -83t17.5 -105h-193q0 48 -17.5 72t-70.5 24q-54 0 -71 -24t-17 -72h-192q0 57 17.5 105t52.5 83t87.5 54.5t122.5 19.5zM532 1264q70 0 123 -19.5t88 -54.5t52.5 -83t17.5 -105h-192q0 49 -17.5 72.5t-71.5 23.5 t-70.5 -23.5t-16.5 -72.5h-193q0 57 17.5 105t52.5 83t87.5 54.5t122.5 19.5zM1743 1264q70 0 122.5 -19.5t88 -54.5t53 -83t17.5 -105h-193q0 49 -17.5 72.5t-70.5 23.5q-54 0 -71 -23.5t-17 -72.5h-192q0 57 17.5 105t52.5 83t87.5 54.5t122.5 19.5z" />
<glyph unicode="&#x489;" horiz-adv-x="2197" d="M1455 77q-19 19 -28.5 42.5t-9 48.5t11.5 50t33 47q26 25 55 35t57.5 7t56 -17t50.5 -37q31 -32 56.5 -76.5t42 -98.5t22.5 -114.5t-2 -124.5l-59 -2q-13 -2 -21.5 1.5t-16.5 11.5q-6 5 -9 16t-2 22q-1 15 -2 36.5t-5 45.5t-12 49t-22 48q-44 -39 -98.5 -36t-97.5 46z M1251 1291q0 -27 -10 -50.5t-28.5 -40.5t-44 -27t-56.5 -10q-38 0 -65.5 13t-45.5 35t-27 51t-9 61q0 44 13.5 94t40.5 99.5t66.5 97t90.5 86.5l43 -39q11 -8 14.5 -16t3.5 -20q0 -8 -6 -17t-14 -17q-10 -11 -24.5 -27t-29 -36t-27 -43.5t-18.5 -50.5q30 -1 54.5 -12.5 t42 -30.5t27 -44.5t9.5 -55.5zM747 1207q19 -19 29 -42.5t9.5 -48.5t-11.5 -50t-33 -47q-27 -26 -55.5 -35.5t-57.5 -6.5t-56 17t-51 37q-31 31 -56.5 76t-42 99t-22 114.5t2.5 124.5l58 2q13 2 21.5 -1.5t17.5 -11.5q6 -5 9 -16t2 -22q0 -15 1 -36.5t5 -45.5t12 -49.5 t22 -48.5q22 19 47 28t51 8t51.5 -12.5t46.5 -32.5zM1667 996q-20 -19 -43.5 -28.5t-49 -9t-51 11.5t-47.5 32q-26 26 -36.5 54.5t-7.5 57t18 55t38 49.5q31 31 76.5 56.5t99.5 42t115.5 22.5t126.5 -2l2 -57q1 -13 -2 -21.5t-12 -16.5q-5 -6 -16.5 -8.5t-22.5 -2.5 q-15 -1 -36 -2t-45 -5t-49.5 -12t-48.5 -23q20 -21 29 -46t7.5 -50.5t-13 -50.5t-32.5 -46zM952 -7q0 27 10 50.5t28.5 40.5t44 27t56.5 10q37 0 64.5 -13t45.5 -35t27 -51t9 -61q0 -44 -13.5 -94t-40 -99.5t-66 -97t-91.5 -86.5l-42 39q-11 8 -14.5 16t-3.5 20q0 8 5.5 17 t13.5 17q10 11 24.5 27t29 36t26.5 43.5t18 50.5q-29 1 -53.5 12.5t-41.5 30.5t-26.5 44.5t-9.5 55.5zM536 288q19 19 43 28.5t49.5 9t50.5 -11.5t47 -32q26 -26 36.5 -54.5t7.5 -57t-17.5 -55t-38.5 -49.5q-31 -31 -76 -56.5t-99 -42t-116 -22.5t-126 2l-2 57 q-2 13 1.5 21.5t11.5 16.5q6 6 17 8.5t22 2.5q15 0 36 1t45 5t49.5 12t48.5 23q-40 43 -37 97t47 97zM452 791q27 0 51 -10t42 -28t28 -43.5t10 -55.5q0 -36 -13.5 -63t-36 -45t-52 -27t-62.5 -9q-44 0 -94 13.5t-100 40t-97.5 65.5t-87.5 90l40 41q14 18 36 18q8 0 18 -6 t18 -14q10 -10 26 -24t35.5 -28.5t43 -26.5t49.5 -18q1 29 13 53t31.5 41t45.5 26.5t56 9.5zM1751 493q-28 0 -52 10t-41.5 28t-27.5 43.5t-10 55.5q0 36 13.5 63t36 45t51.5 27t62 9q44 0 94 -13.5t100.5 -40t98 -65.5t87.5 -90l-40 -41q-15 -18 -37 -18q-8 0 -17.5 6 t-17.5 14q-11 10 -27 24t-35.5 28t-43 26.5t-49.5 18.5q-1 -29 -12.5 -53t-31 -41t-45.5 -26.5t-56 -9.5z" />
<glyph unicode="&#x48a;" horiz-adv-x="1625" d="M1037 1360q10 16 24 32.5t30.5 29.5t36 21t41.5 8h226v-1224h204l-161 -569h-293l107 342h-159v865q0 54 3 113t12 126q-22 -59 -47 -110t-48 -89l-503 -813q-10 -17 -24 -33t-30.5 -29.5t-36 -21.5t-41.5 -8h-226v1451h302v-865q0 -54 -3 -113.5t-12 -125.5 q21 59 46.5 110t48.5 89zM789 1668q36 0 59.5 6.5t37 23.5t19 45.5t5.5 73.5h163q29 0 42.5 -24t13.5 -51q0 -52 -24.5 -91t-69.5 -65.5t-107.5 -39.5t-138.5 -13t-138.5 13t-107.5 39.5t-69.5 65.5t-24.5 91q0 27 13.5 51t42.5 24h163q0 -45 5.5 -73.5t19 -45.5t37 -23.5 t59.5 -6.5z" />
<glyph unicode="&#x48b;" horiz-adv-x="1263" d="M114 -1v1031h276v-567q0 -24 -2.5 -53.5t-7.5 -59.5q23 53 47 87q1 2 17.5 26t42.5 61.5t58.5 84.5t66.5 96q79 114 180 259q15 24 40.5 45.5t57.5 21.5h168v-830h196l-153 -543h-258l107 342h-168v567q0 23 2.5 52t7.5 58q-23 -52 -47 -84q-2 -2 -18 -26t-42 -61.5 t-58.5 -84.5t-66.5 -96q-79 -114 -179 -259q-8 -12 -18.5 -23.5t-23 -21.5t-26.5 -16t-30 -6h-169zM601 1296q36 0 59.5 7.5t37 25.5t19 47.5t5.5 74.5h163q29 0 42.5 -24t13.5 -51q0 -52 -24.5 -93.5t-69.5 -70.5t-107.5 -44.5t-138.5 -15.5t-138.5 15.5t-107.5 44.5 t-69.5 70.5t-24.5 93.5q0 27 13.5 51t42.5 24h163q0 -45 5.5 -74.5t19 -47.5t37 -25.5t59.5 -7.5z" />
<glyph unicode="&#x48c;" horiz-adv-x="1360" d="M568 1451v-184h344v-218h-344v-189h218q145 0 248 -32t167.5 -87t94.5 -127.5t30 -154.5q0 -104 -36.5 -188.5t-105.5 -144.5t-169.5 -93t-228.5 -33h-518v1049h-234v218h234v184h300zM568 629v-399h218q71 0 118 16t75 43.5t39.5 63.5t11.5 76q0 45 -11.5 82t-39 63.5 t-74.5 40.5t-119 14h-218z" />
<glyph unicode="&#x48d;" horiz-adv-x="1064" d="M465 1057v-115h210v-192h-210v-93h168q108 0 183.5 -26.5t122.5 -71t68 -103t21 -123.5q0 -74 -26.5 -135t-77 -105t-123 -68.5t-165.5 -24.5h-432v750h-166v192h166v115h261zM465 464v-271h170q73 0 110.5 39t37.5 100q0 26 -8.5 50t-26.5 42t-46.5 29t-67.5 11h-169z " />
<glyph unicode="&#x48e;" horiz-adv-x="1254" d="M452 499v-499h-300v1451h490q149 0 257.5 -35t178.5 -97.5t103.5 -148.5t33.5 -187q0 -137 -56.5 -242t-172.5 -168l84 -128l-180 -112l-114 175q-63 -9 -134 -9h-190zM726 975l118 -182q70 66 70 190q0 54 -16.5 98.5t-50 76t-84.5 48.5t-121 17h-190v-494h181l-86 134z " />
<glyph unicode="&#x48f;" horiz-adv-x="1142" d="M114 -333v1364h170q52 0 69 -48l21 -87q31 34 66 62.5t75 49t86 32t100 11.5q83 0 152.5 -35.5t119.5 -103t78 -165.5t28 -224q0 -146 -49.5 -263t-138.5 -188l100 -154l-180 -112l-118 183q-14 -2 -28 -3t-28 -1q-84 0 -142.5 25t-104.5 68v-411h-276zM647 448l101 -156 q23 41 35 98t12 133q0 86 -13.5 146t-38 97t-59.5 53.5t-78 16.5q-73 0 -122.5 -29t-93.5 -83v-452q37 -43 80 -61t92 -20l-94 145z" />
<glyph unicode="&#x490;" horiz-adv-x="1086" d="M1056 1224h-602v-1224h-302v1451h672v320h232v-547z" />
<glyph unicode="&#x491;" horiz-adv-x="847" d="M825 1276v-446h-435v-830h-276v1031h461v245h250z" />
<glyph unicode="&#x492;" horiz-adv-x="1202" d="M1171 1224h-602v-375h343v-219h-343v-630h-302v630h-234v219h234v602h904v-227z" />
<glyph unicode="&#x493;" horiz-adv-x="939" d="M204 604v427h711v-201h-435v-226h196v-192h-196v-412h-276v412h-166v192h166z" />
<glyph unicode="&#x494;" horiz-adv-x="1274" d="M654 -114q67 0 122 21t94 67.5t60.5 119t21.5 176.5q0 111 -23.5 184t-65 116.5t-99 61.5t-125.5 18q-63 0 -106 -15.5t-79 -35.5v-599h-302v1451h904v-227h-602v-412q56 25 115 38t128 13q106 0 203 -29.5t171.5 -98t119 -179.5t44.5 -273q0 -149 -40 -267.5 t-112 -201.5t-173 -127.5t-224 -44.5q-56 0 -109.5 6.5t-111.5 20.5q4 44 7.5 88t8.5 88q2 24 18.5 38.5t45.5 14.5q17 0 44 -6t65 -6z" />
<glyph unicode="&#x495;" horiz-adv-x="1005" d="M825 1031v-201h-435v-287q45 31 95.5 47.5t113.5 16.5q91 0 160 -33t114.5 -93t68.5 -142.5t23 -181.5q0 -118 -31.5 -213t-87 -162.5t-131.5 -104t-164 -36.5q-43 0 -83 4.5t-85 15.5q2 21 4 36.5t3.5 30t3.5 30.5t4 37q2 23 17 36t42 13q11 0 27.5 -3t36.5 -3 q37 0 68 14t53 48.5t34 94t12 149.5q0 79 -12 129.5t-34.5 80t-55.5 40.5t-74 11t-68.5 -11t-53.5 -29v-365h-276v1031h711z" />
<glyph unicode="&#x496;" horiz-adv-x="2252" d="M276 1451q45 0 83.5 -22t61.5 -61l269 -444q25 -44 56 -58t70 -14h121v599h283v-599h121q40 0 70.5 14t56.5 58l269 444q23 39 61.5 61t83.5 22h238l-354 -553q-30 -48 -62.5 -79.5t-78.5 -49.5q56 -20 99 -57.5t81 -101.5l225 -383h222v-485q0 -38 -26.5 -61t-68.5 -23 h-181v342h-14q-65 0 -111.5 27.5t-73.5 74.5l-268 446q-26 45 -59.5 63t-81.5 18h-148v-629h-283v629h-147q-49 0 -82 -18t-59 -63l-268 -446q-28 -47 -74 -74.5t-112 -27.5h-200l357 610q38 64 81.5 101.5t98.5 57.5q-45 18 -77.5 49.5t-62.5 79.5l-354 553h238z" />
<glyph unicode="&#x497;" horiz-adv-x="1747" d="M531 675q17 -32 40.5 -46.5t65.5 -14.5h59v417h267v-417h54q42 0 68 14.5t43 46.5l157 285q17 32 49 51.5t70 19.5h217l-230 -379q-24 -41 -50 -66t-63 -39q51 -16 82.5 -46t56.5 -76l121 -224h192v-463q0 -37 -22 -58.5t-56 -21.5h-173v342h-22q-73 0 -111 22t-60 71 l-133 273q-17 36 -47.5 53.5t-69.5 17.5h-73v-437h-267v437h-73q-39 0 -69.5 -17.5t-47.5 -53.5l-133 -273q-22 -49 -60 -71t-111 -22h-190l229 425q25 46 56.5 76t82.5 46q-36 14 -62 38.5t-51 66.5l-229 379h217q38 0 69.5 -19.5t49.5 -51.5z" />
<glyph unicode="&#x498;" horiz-adv-x="1168" d="M420 -179q5 0 10 -1.5t12 -4t17.5 -4t27.5 -1.5q43 0 63.5 26.5t20.5 62.5q0 26 -8 49.5t-36 37.5q-74 1 -146.5 15.5t-138.5 39.5t-124 59.5t-103 76.5l89 142q11 16 28.5 26.5t38.5 10.5q28 0 60 -20t75 -44t102 -44t141 -20q124 0 193 52t69 167q0 46 -19.5 82.5 t-54.5 61.5t-85 38t-110 12h-208l-1 238h186q125 0 191 46t66 134q0 77 -61.5 122t-181.5 45q-69 0 -120 -15t-88.5 -33.5t-65 -33.5t-49.5 -15q-23 0 -38 10.5t-29 32.5l-74 141q85 72 204 113t262 41q120 0 216.5 -28t164.5 -78.5t104.5 -121t36.5 -155.5 q0 -100 -44.5 -183.5t-137.5 -136.5q48 -24 88.5 -56t69 -70.5t44.5 -83.5t16 -95q0 -87 -28.5 -165t-84 -139t-136.5 -103t-185 -57q51 -26 78.5 -66t27.5 -85q0 -41 -15 -76t-43.5 -60.5t-69.5 -40t-92 -14.5q-57 0 -107.5 14.5t-83.5 36.5l41 100q7 17 25 17z" />
<glyph unicode="&#x499;" horiz-adv-x="902" d="M321 -179q5 0 10 -1.5t12 -4t17.5 -4t27.5 -1.5q43 0 63.5 26.5t20.5 62.5q0 25 -8 48.5t-34 37.5h-7q-43 0 -93.5 7.5t-102.5 27t-103.5 53t-95.5 84.5l80 100q18 24 50 24q25 0 46 -14t47.5 -31t62.5 -31t90 -14q86 0 128.5 38t42.5 96q0 57 -45 89t-148 32h-116v175 h116q91 0 138.5 31t47.5 83q0 48 -42 77t-121 29q-51 0 -86 -10.5t-60.5 -22.5t-44 -22.5t-35.5 -10.5q-19 0 -32.5 7t-28.5 31l-62 104q60 58 147 94t210 36q96 0 171.5 -23t127.5 -61.5t79 -89t27 -105.5q0 -29 -8.5 -60.5t-27.5 -61t-50 -55t-77 -43.5q40 -16 73.5 -39 t57.5 -54t37.5 -69t13.5 -84q0 -60 -23 -110t-62 -88t-91 -64.5t-111 -39.5q56 -26 86 -67t30 -89q0 -41 -15 -76t-43.5 -60.5t-69.5 -40t-92 -14.5q-57 0 -107.5 14.5t-83.5 36.5l41 100q7 17 25 17z" />
<glyph unicode="&#x49a;" horiz-adv-x="1485" d="M452 852h131q39 0 68 14t54 52l293 454q21 35 51 57t72 22h257l-376 -577q-25 -39 -59 -64.5t-75 -40.5q63 -17 107.5 -55.5t83.5 -107.5l222 -379h197v-485q0 -38 -26 -61t-68 -23h-181v342h-63q-41 0 -69 21.5t-52 63.5l-277 472q-12 21 -25.5 35t-29 22.5t-35 11.5 t-43.5 3h-157v-629h-300v1451h300v-599z" />
<glyph unicode="&#x49b;" horiz-adv-x="1196" d="M726 960q20 31 54.5 51t72.5 20h218l-230 -379q-25 -42 -51 -66.5t-63 -38.5q51 -16 83 -46t57 -76l120 -224h191v-463q0 -37 -22 -58.5t-56 -21.5h-172v342h-22q-36 0 -63.5 6t-49 18t-37.5 29t-30 40l-132 273q-17 36 -48 53.5t-70 17.5h-86v-437h-276v1031h276v-417 h72q42 0 65.5 14.5t40.5 46.5z" />
<glyph unicode="&#x49c;" horiz-adv-x="1512" d="M760 857q23 5 41 19.5t33 41.5l253 454q19 36 50 57.5t73 21.5h248l-344 -577q-23 -39 -54.5 -64t-69.5 -40q65 -17 109.5 -55t79.5 -109l316 -606h-274q-82 0 -121 85l-238 472q-18 37 -42.5 52t-59.5 18v-244h-211v246h-97v-629h-300v1451h300v-599h97v277h211v-272z " />
<glyph unicode="&#x49d;" horiz-adv-x="1203" d="M801 960q6 17 20 30.5t31.5 22.5t37 13.5t38.5 4.5h218l-191 -379q-21 -42 -46.5 -67t-61.5 -39q50 -15 81.5 -44.5t52.5 -76.5l191 -425h-190q-74 0 -120 21t-60 72l-94 273q-9 26 -28.5 42t-45.5 23v-245h-184v251h-60v-437h-276v1031h276v-417h60v221h184v-212 q33 14 49 52z" />
<glyph unicode="&#x49e;" horiz-adv-x="1528" d="M568 1267h248v-218h-248v-197h131q39 0 68 14t54 52l293 454q21 35 51 57t72 22h257l-376 -577q-25 -39 -59 -64.5t-75 -40.5q63 -17 107.5 -55.5t83.5 -107.5l355 -606h-274q-41 0 -69 21.5t-52 63.5l-277 472q-12 21 -25.5 35t-29 22.5t-35 11.5t-43.5 3h-157v-629 h-300v1049h-234v218h234v184h300v-184z" />
<glyph unicode="&#x49f;" horiz-adv-x="1197" d="M204 942v89h275v-89h161v-192h-161v-136h73q42 0 65 14.5t40 46.5l158 285q20 31 54.5 51t72.5 20h218l-230 -379q-25 -42 -51 -66.5t-63 -38.5q51 -16 83 -46t57 -76l230 -425h-191q-36 0 -63.5 6t-48.5 18t-37.5 29t-29.5 40l-133 273q-17 36 -48 53.5t-70 17.5h-86 v-437h-275v750h-166v192h166z" />
<glyph unicode="&#x4a0;" horiz-adv-x="1696" d="M29 1451h707v-599h130q40 0 69 14t53 52l293 454q22 35 52 57t72 22h256l-375 -577q-25 -39 -59 -64.5t-75 -40.5q63 -17 107.5 -55.5t83.5 -107.5l355 -606h-274q-41 0 -69.5 21.5t-51.5 63.5l-278 472q-12 21 -25.5 35t-29 22.5t-34.5 11.5t-43 3h-157v-629h-300v1216 h-407v235z" />
<glyph unicode="&#x4a1;" horiz-adv-x="1328" d="M24 1031h586v-417h72q42 0 65.5 14.5t40.5 46.5l157 285q20 31 55 51t73 20h217l-230 -379q-24 -41 -50 -66t-63 -39q51 -16 82.5 -46t56.5 -76l230 -425h-190q-36 0 -63.5 6t-49 18t-37.5 29t-30 40l-133 273q-17 36 -47.5 53.5t-69.5 17.5h-86v-437h-276v827h-310v204z " />
<glyph unicode="&#x4a2;" horiz-adv-x="1649" d="M1093 0v625h-639v-625h-302v1451h302v-616h639v616h302v-1224h202v-485q0 -38 -26 -61t-68 -23h-181v342h-229z" />
<glyph unicode="&#x4a3;" horiz-adv-x="1250" d="M1029 1031v-830h190v-463q0 -37 -22 -58.5t-56 -21.5h-173v342h-214v447h-364v-447h-276v1031h276v-383h364v383h275z" />
<glyph unicode="&#x4a4;" horiz-adv-x="2027" d="M1997 1224h-602v-1224h-302v625h-639v-625h-302v1451h302v-616h639v616h904v-227z" />
<glyph unicode="&#x4a5;" horiz-adv-x="1487" d="M390 1031v-383h364v383h710v-201h-435v-830h-275v447h-364v-447h-276v1031h276z" />
<glyph unicode="&#x4a6;" horiz-adv-x="2168" d="M1547 -115q67 0 122 21.5t94 67.5t60.5 119t21.5 177q0 111 -23.5 184t-65 116.5t-99 61.5t-125.5 18q-63 0 -106 -15.5t-79 -35.5v-599h-302v1224h-591v-1224h-302v1451h1195v-639q56 25 115 38t128 13q106 0 203 -29.5t171.5 -98t119 -179.5t44.5 -273 q0 -149 -40 -267.5t-112 -202t-173 -128t-224 -44.5q-55 0 -109 6.5t-112 20.5q4 44 7.5 88t8.5 89q3 23 19 37.5t46 14.5q17 0 43.5 -6t64.5 -6z" />
<glyph unicode="&#x4a7;" horiz-adv-x="1639" d="M1160 -162q37 0 68 14t53 48.5t34.5 94t12.5 149.5q0 79 -12 129.5t-35 80t-56 40.5t-74 11t-68 -11.5t-54 -28.5v-365h-275v830h-364v-830h-276v1031h915v-488q45 31 95.5 47.5t113.5 16.5q91 0 160 -33t114.5 -93t68.5 -142.5t23 -181.5q0 -118 -31.5 -213t-87 -162.5 t-131.5 -104t-164 -36.5q-43 0 -83 4.5t-85 15.5q2 21 4 36.5t3.5 30t3.5 30.5t4 37q2 23 17 36t42 13q11 0 27.5 -3t36.5 -3z" />
<glyph unicode="&#x4a8;" horiz-adv-x="1651" d="M1635 25q-62 -19 -134.5 -28t-141.5 -9q-66 0 -139.5 14.5t-145.5 47.5q-71 -32 -148 -49t-158 -17q-158 0 -287 55.5t-220.5 154.5t-141.5 235t-50 297q0 163 49.5 299t145.5 234t236.5 152.5t322.5 54.5q34 0 63.5 -2.5t57.5 -7t56.5 -12t60.5 -16.5l-17 -112 q-3 -22 -10.5 -42.5t-19 -36.5t-26.5 -25.5t-32 -9.5t-33 2t-35 4.5t-43 4.5t-57 2q-91 0 -167 -33t-130.5 -95.5t-84.5 -153.5t-30 -207q0 -117 30.5 -208.5t86 -154.5t134.5 -95.5t177 -32.5h18t17 1q-59 78 -94.5 185t-35.5 249q0 104 24 187t72 140.5t119.5 88.5 t165.5 31q101 0 174 -35t120 -96t69 -143t22 -176q0 -134 -45.5 -247t-123.5 -201q20 -2 36.5 -3t30.5 -1q27 0 48 2t39 4.5t34 4.5t32 2q34 0 60 -23.5t32 -68.5zM975 662q0 -123 29.5 -204t74.5 -130q67 59 98.5 145.5t31.5 186.5q0 40 -5 82t-17.5 76.5t-35 57 t-58.5 22.5q-53 0 -85.5 -57.5t-32.5 -178.5z" />
<glyph unicode="&#x4a9;" horiz-adv-x="1267" d="M1240 6q-32 -10 -75.5 -16t-91.5 -6q-73 0 -139 14t-124 40q-60 -26 -125 -39.5t-131 -13.5q-101 0 -191 35.5t-157.5 103.5t-107 167t-39.5 226q0 113 33 210t97.5 168t159 111.5t218.5 40.5q43 0 85.5 -6.5t82.5 -21.5l-17 -111q-6 -44 -26.5 -57t-54.5 -13 q-11 0 -25.5 1.5t-27.5 1.5q-62 0 -107.5 -22.5t-75.5 -64.5t-44.5 -102t-14.5 -135q0 -78 18.5 -140.5t54 -106t88 -67t120.5 -23.5q-55 66 -84.5 149t-29.5 179q0 78 24 139t67.5 102t104 62.5t134.5 21.5t136.5 -24.5t107.5 -67.5t69.5 -102t24.5 -128q0 -92 -41 -176.5 t-110 -153.5q10 -1 20 -1.5t21 -0.5q25 0 38.5 3.5t27.5 4.5q44 0 64.5 -16.5t27.5 -59.5zM767 503q0 -66 20.5 -124.5t59.5 -103.5q36 42 54.5 98t18.5 120q0 61 -19.5 94t-57.5 33t-57 -31.5t-19 -85.5z" />
<glyph unicode="&#x4aa;" horiz-adv-x="1318" d="M610 -179q5 0 10 -1.5t12 -4t17.5 -4t27.5 -1.5q43 0 63.5 26.5t20.5 62.5q0 26 -8 49.5t-36 37.5q-151 9 -271 68t-204 157t-128.5 229.5t-44.5 285.5q0 108 23.5 205.5t68.5 179.5t108.5 148t143.5 112.5t174.5 71t201.5 24.5q80 0 151.5 -14t133.5 -39t114.5 -60.5 t94.5 -77.5l-101 -138q-9 -13 -23 -23t-38 -10t-48.5 17t-60 38t-89 38t-135.5 17q-91 0 -167 -33t-130.5 -95.5t-84.5 -153.5t-30 -207q0 -117 32.5 -208.5t89 -154.5t132 -95.5t161.5 -32.5q51 0 92.5 5t77 17t67 31t63.5 48q11 9 23 15t26 6q25 0 42 -18l119 -127 q-76 -97 -185 -153.5t-255 -70.5q45 -26 69.5 -63.5t24.5 -80.5q0 -41 -15 -76t-43.5 -60.5t-69.5 -40t-92 -14.5q-57 0 -107.5 14.5t-83.5 36.5l41 100q7 17 25 17z" />
<glyph unicode="&#x4ab;" horiz-adv-x="968" d="M429 -179q5 0 10 -1.5t12 -4t17.5 -4t27.5 -1.5q43 0 63.5 26.5t20.5 62.5q0 25 -8 48.5t-34 37.5h-10q-95 0 -180 35.5t-149 103.5t-101.5 167t-37.5 226q0 113 33 210t97 168t158.5 111.5t218.5 40.5q118 0 207 -38t160 -110l-72 -98q-12 -16 -24 -24.5t-34 -8.5 q-20 0 -38.5 11.5t-42.5 25t-57 25t-82 11.5q-62 0 -107.5 -22.5t-75.5 -64.5t-44.5 -102t-14.5 -135q0 -158 63.5 -242t173.5 -84q38 0 65.5 6.5t48 16.5t35.5 22t28.5 22t27 16.5t30.5 6.5q32 0 50 -24l79 -100q-61 -71 -133 -108t-147 -51q54 -26 82.5 -66.5t28.5 -87.5 q0 -41 -15 -76t-43.5 -60.5t-69.5 -40t-92 -14.5q-57 0 -107.5 14.5t-83.5 36.5l41 100q7 17 25 17z" />
<glyph unicode="&#x4ac;" horiz-adv-x="1216" d="M1179 1451v-242h-424v-982h202v-485q0 -38 -26.5 -61t-68.5 -23h-181v342h-227v1209h-424v242h1149z" />
<glyph unicode="&#x4ad;" horiz-adv-x="1043" d="M22 1031h988v-201h-356v-629h190v-463q0 -37 -22 -58.5t-56 -21.5h-173v342h-215v830h-356v201z" />
<glyph unicode="&#x4ae;" horiz-adv-x="1309" d="M805 559v-559h-301v559l-527 892h265q38 0 61.5 -18.5t38.5 -47.5l238 -457q24 -46 43 -86t34 -80q14 40 32.5 80.5t41.5 85.5l236 457q12 24 36.5 45t62.5 21h266z" />
<glyph unicode="&#x4af;" horiz-adv-x="1062" d="M669 78v-411h-276v411l-392 953h228q30 0 50 -14.5t28 -35.5l174 -463q17 -48 30 -94t23 -93q10 47 23.5 93t32.5 94l178 463q8 21 27.5 35.5t47.5 14.5h218z" />
<glyph unicode="&#x4b0;" horiz-adv-x="1343" d="M521 587v55l-527 809h265q38 0 60.5 -19t39.5 -47l238 -405q25 -42 44 -76.5t33 -66.5q13 33 31 67t43 76l236 405q7 12 16 23.5t21 21t27 15.5t34 6h267l-527 -809v-55h294v-218h-294v-369h-301v369h-294v218h294z" />
<glyph unicode="&#x4b1;" horiz-adv-x="1070" d="M673 78v-55h198v-192h-198v-164h-276v164h-198v192h198v55l-392 953h228q30 0 50 -14.5t28 -35.5l174 -463q17 -48 30 -94t23 -93q10 47 23.5 93t32.5 94l178 463q8 21 27.5 35.5t47.5 14.5h218z" />
<glyph unicode="&#x4b2;" horiz-adv-x="1408" d="M470 746l-457 705h300q30 0 44 -8t25 -26l311 -513q5 12 11.5 24.5t14.5 25.5l280 458q12 20 26.5 29.5t35.5 9.5h287l-461 -692l331 -532h169v-485q0 -38 -26 -61t-68 -23h-181v342h-52q-30 0 -48.5 15t-29.5 35l-315 534q-4 -11 -9 -21.5t-10 -19.5l-298 -493 q-13 -19 -30.5 -34.5t-44.5 -15.5h-280z" />
<glyph unicode="&#x4b3;" horiz-adv-x="1138" d="M347 532l-336 499h265q30 0 44 -8t25 -26l201 -327q6 17 14 34t19 35l155 253q24 39 62 39h253l-336 -487l220 -343h187v-463q0 -37 -22 -58.5t-56 -21.5h-173v342h-71q-30 0 -48.5 15t-29.5 35l-203 339q-9 -34 -26 -60l-174 -279q-12 -19 -29.5 -34.5t-44.5 -15.5h-246 z" />
<glyph unicode="&#x4b4;" horiz-adv-x="1884" d="M436 0v1216h-407v235h1116v-235h-407v-989h591v1224h302v-1224h202v-485q0 -38 -26.5 -61t-68.5 -23h-181v342h-1121z" />
<glyph unicode="&#x4b5;" horiz-adv-x="1469" d="M24 1031h816v-204h-230v-626h363v830h276v-830h190v-463q0 -37 -22 -58.5t-56 -21.5h-173v342h-854v827h-310v204z" />
<glyph unicode="&#x4b6;" horiz-adv-x="1466" d="M1212 227h202v-485q0 -38 -26 -61t-68 -23h-181v342h-229v565q-118 -28 -225.5 -41t-200.5 -7t-169 34t-129.5 82.5t-83 137.5t-29.5 200v480h302v-481q0 -78 24 -132t85 -80t164.5 -23t261.5 40v676h302v-1224z" />
<glyph unicode="&#x4b7;" horiz-adv-x="1171" d="M950 201h190v-463q0 -37 -22 -58.5t-56 -21.5h-173v342h-215v394q-133 -32 -245 -34.5t-193.5 30.5t-127 106t-45.5 192v343h276v-302q0 -59 17 -96t56.5 -54.5t103.5 -16t158 19.5v449h276v-830z" />
<glyph unicode="&#x4b8;" horiz-adv-x="1364" d="M1212 0h-302v565q-36 -9 -71.5 -16t-69.5 -13v-243h-211v222q-109 -2 -198.5 21t-153 77t-98.5 142t-35 216v480h302v-481q0 -49 9 -88.5t30.5 -69t56.5 -48.5t87 -26v301h211v-292q32 5 67 12t74 16v676h302v-1451z" />
<glyph unicode="&#x4b9;" horiz-adv-x="1063" d="M948 0h-275v394q-36 -9 -67 -15v-193h-184v173q-82 -1 -148.5 17t-113.5 58t-72.5 102.5t-25.5 151.5v343h275v-302q0 -63 19.5 -101t65.5 -54v261h184v-264l67 11v449h275v-1031z" />
<glyph unicode="&#x4ba;" horiz-adv-x="1315" d="M152 1451h302v-565q117 28 221 41t192.5 7t159 -34t120 -82.5t76 -138t26.5 -199.5v-480h-302v481q0 78 -18.5 132t-71.5 80t-150 23t-253 -40v-676h-302v1451z" />
<glyph unicode="&#x4bb;" horiz-adv-x="1055" d="M114 1031h276v-394q133 32 245 35t193.5 -30.5t127 -106t45.5 -192.5v-343h-275v302q0 59 -17.5 96t-57 54.5t-103.5 16t-158 -20.5v-448h-276v1031z" />
<glyph unicode="&#x4bc;" horiz-adv-x="1748" d="M353 871q18 127 73.5 237t144.5 191t209.5 127.5t267.5 46.5q139 0 256 -44.5t202 -129t132 -207t47 -278.5q0 -44 -4 -72t-13.5 -44t-26.5 -22.5t-43 -6.5h-940q19 -217 132.5 -322.5t310.5 -105.5q81 0 142 20t108.5 44.5t85.5 44.5t74 20q23 0 41 -9.5t29 -24.5 l92 -111q-64 -72 -138 -119t-153 -74.5t-159 -38t-156 -10.5q-142 0 -266.5 44t-220.5 130.5t-157 214.5t-74 297h-3q-65 0 -126.5 11.5t-110 42t-78 83.5t-29.5 137q0 45 9.5 86.5t32.5 92.5l160 -30q33 -6 45.5 -25.5t12.5 -35.5t-5 -36t-5 -45q0 -45 26.5 -62t73.5 -17h1 zM1047 1228q-84 0 -150 -25.5t-114 -72t-78 -112.5t-42 -147h731q0 77 -22.5 142.5t-66.5 113t-109 74.5t-149 27z" />
<glyph unicode="&#x4bd;" horiz-adv-x="1333" d="M821 1047q100 0 183.5 -31.5t144 -91.5t94 -147.5t33.5 -199.5q0 -31 -3 -51t-10 -32t-19 -16.5t-31 -4.5h-620q7 -72 28 -125t55.5 -87t80.5 -50.5t102 -16.5q57 0 98.5 13.5t73 30t56.5 30t50 13.5q33 0 51 -24l79 -100q-44 -51 -97 -84.5t-110 -53t-114.5 -27 t-111.5 -7.5q-101 0 -190.5 31t-157.5 92.5t-111.5 153t-53.5 211.5q-58 1 -111 9.5t-93 33.5t-64 70.5t-24 122.5q0 45 10 86.5t32 92.5l104 -21q32 -8 42.5 -25.5t10.5 -33.5t-5.5 -36t-5.5 -47q0 -43 25 -64.5t85 -23.5q15 87 56 162t104 130t147.5 86.5t186.5 31.5z M826 853q-98 0 -154.5 -56.5t-73.5 -159.5h431q0 43 -12 82t-36.5 69t-63 47.5t-91.5 17.5z" />
<glyph unicode="&#x4be;" horiz-adv-x="1748" d="M353 871q18 127 73.5 237t144.5 191t209.5 127.5t267.5 46.5q139 0 256 -44.5t202 -129t132 -207t47 -278.5q0 -44 -4 -72t-13.5 -44t-26.5 -22.5t-43 -6.5h-940q19 -217 132.5 -322.5t310.5 -105.5q81 0 142 20t108.5 44.5t85.5 44.5t74 20q23 0 41 -9.5t29 -24.5 l92 -111q-49 -56 -104.5 -96t-114.5 -68t-120 -44.5t-122 -24.5v-325h-275v326q-119 18 -221 70t-179.5 137t-126.5 202.5t-61 266.5h-3q-65 0 -126.5 11.5t-110 42t-78 83.5t-29.5 137q0 45 9.5 86.5t32.5 92.5l160 -30q33 -6 45.5 -25.5t12.5 -35.5t-5 -36t-5 -45 q0 -45 26.5 -62t73.5 -17h1zM1047 1228q-84 0 -150 -25.5t-114 -72t-78 -112.5t-42 -147h731q0 77 -22.5 142.5t-66.5 113t-109 74.5t-149 27z" />
<glyph unicode="&#x4bf;" horiz-adv-x="1333" d="M821 1047q100 0 183.5 -31.5t144 -91.5t94 -147.5t33.5 -199.5q0 -31 -3 -51t-10 -32t-19 -16.5t-31 -4.5h-620q7 -72 28 -125t55.5 -87t80.5 -50.5t102 -16.5q57 0 98.5 13.5t73 30t56.5 30t50 13.5q33 0 51 -24l79 -100q-32 -37 -69.5 -65t-77.5 -47.5t-81.5 -32 t-83.5 -18.5v-256q0 -37 -22 -58.5t-56 -21.5h-173v341q-78 17 -144.5 56t-117 98.5t-82 139.5t-39.5 180q-58 1 -111 9.5t-93 33.5t-64 70.5t-24 122.5q0 45 10 86.5t32 92.5l104 -21q32 -8 42.5 -25.5t10.5 -33.5t-5.5 -36t-5.5 -47q0 -43 25 -64.5t85 -23.5q15 87 56 162 t104 130t147.5 86.5t186.5 31.5zM826 853q-98 0 -154.5 -56.5t-73.5 -159.5h431q0 43 -12 82t-36.5 69t-63 47.5t-91.5 17.5z" />
<glyph unicode="&#x4c0;" horiz-adv-x="606" d="M454 0h-302v1451h302v-1451z" />
<glyph unicode="&#x4c1;" horiz-adv-x="2160" d="M0 0zM277 1451q45 0 83.5 -22t61.5 -61l269 -444q25 -44 56 -58t70 -14h121v599h283v-599h121q40 0 70.5 14t56.5 58l269 444q23 39 61.5 61t83.5 22h238l-354 -553q-30 -48 -62.5 -79.5t-78.5 -49.5q56 -20 99 -57.5t81 -101.5l358 -610h-201q-65 0 -111.5 27.5 t-73.5 74.5l-268 446q-26 45 -59.5 63t-81.5 18h-148v-629h-283v629h-147q-49 0 -82 -18t-59 -63l-268 -446q-28 -47 -74 -74.5t-112 -27.5h-200l357 610q38 64 81.5 101.5t98.5 57.5q-45 18 -77.5 49.5t-62.5 79.5l-354 553h238zM1081 1668q36 0 59.5 6.5t37 23.5t19 45.5 t5.5 73.5h163q29 0 42.5 -24t13.5 -51q0 -52 -24.5 -91t-69.5 -65.5t-107.5 -39.5t-138.5 -13t-138.5 13t-107.5 39.5t-69.5 65.5t-24.5 91q0 27 13.5 51t42.5 24h163q0 -45 5.5 -73.5t19 -45.5t37 -23.5t59.5 -6.5z" />
<glyph unicode="&#x4c2;" horiz-adv-x="1659" d="M12 0zM531 675q17 -32 40.5 -46.5t65.5 -14.5h59v417h267v-417h54q42 0 68 14.5t43 46.5l157 285q17 32 49 51.5t70 19.5h217l-230 -379q-24 -41 -50 -66t-63 -39q51 -16 82.5 -46t56.5 -76l230 -425h-190q-73 0 -111 22t-60 71l-133 273q-17 36 -47.5 53.5t-69.5 17.5 h-73v-437h-267v437h-73q-39 0 -69.5 -17.5t-47.5 -53.5l-133 -273q-22 -49 -60 -71t-111 -22h-190l229 425q25 46 56.5 76t82.5 46q-36 14 -62 38.5t-51 66.5l-229 379h217q38 0 69.5 -19.5t49.5 -51.5zM829 1296q36 0 59.5 7.5t37 25.5t19 47.5t5.5 74.5h163q29 0 42.5 -24 t13.5 -51q0 -52 -24.5 -93.5t-69.5 -70.5t-107.5 -44.5t-138.5 -15.5t-138.5 15.5t-107.5 44.5t-69.5 70.5t-24.5 93.5q0 27 13.5 51t42.5 24h163q0 -45 5.5 -74.5t19 -47.5t37 -25.5t59.5 -7.5z" />
<glyph unicode="&#x4c3;" horiz-adv-x="1458" d="M796 -107q67 0 122 19.5t94 63t60.5 112.5t21.5 167q0 116 -29 189t-77.5 114t-111.5 56t-132 15h-292v-629h-300v1451h300v-599h131q39 0 68 14t54 52l293 454q21 35 51 57t72 22h257l-376 -577q-26 -40 -60 -65q87 -13 166 -46.5t138.5 -96.5t95 -160t35.5 -236 q0 -144 -38.5 -259.5t-109.5 -195.5t-173 -123t-228 -43q-55 0 -109 6t-112 20l16 177q3 24 19 38.5t46 14.5q17 0 43.5 -6t64.5 -6z" />
<glyph unicode="&#x4c4;" horiz-adv-x="1130" d="M615 -162q37 0 68 16.5t53 54.5t34.5 100t12.5 153q0 79 -12 132t-34.5 85t-55.5 45t-74 13h-217v-437h-276v1031h276v-417h72q42 0 65.5 14.5t40.5 46.5l158 285q20 31 54.5 51t72.5 20h218l-230 -379q-18 -29 -36 -50.5t-40 -35.5q148 -21 221.5 -127.5t73.5 -284.5 q0 -116 -32 -210.5t-87.5 -162t-131.5 -104t-164 -36.5q-42 0 -82.5 4.5t-84.5 15.5q2 21 4 36.5t3.5 30t3.5 30.5t4 37q2 23 17 36t41 13q12 0 28 -3t36 -3z" />
<glyph unicode="&#x4c5;" horiz-adv-x="1585" d="M1351 1451v-1224h212l-161 -569h-293l107 342h-167v1224h-362q-15 -270 -41 -467t-62.5 -334.5t-83 -223t-102 -133t-119 -64.5t-133.5 -17q-79 0 -114 14t-35 41v185h80q32 0 66.5 10.5t68 50t65 117.5t57 214.5t44 340t26.5 493.5h947z" />
<glyph unicode="&#x4c6;" horiz-adv-x="1304" d="M1093 1031v-830h199l-154 -543h-258l107 342h-170v824h-223q-13 -188 -38 -323t-60 -228.5t-78 -150t-92 -87t-101 -40.5t-105 -10q-62 0 -89 10t-27 29v168h62q32 0 64 9.5t62.5 39.5t57.5 86t50 149t40 229t27 326h726z" />
<glyph unicode="&#x4c7;" horiz-adv-x="1547" d="M1395 132q0 -112 -30 -203t-90.5 -155t-151.5 -98.5t-212 -34.5q-55 0 -109 6.5t-112 20.5q4 44 7.5 88t8.5 89q2 23 18.5 37.5t45.5 14.5q17 0 44 -6t65 -6q54 0 94 12t67 39.5t40 73.5t13 115v500h-639v-625h-302v1451h302v-616h639v616h302v-1319z" />
<glyph unicode="&#x4c8;" horiz-adv-x="1143" d="M1029 1031l1 -982q0 -111 -26 -188.5t-77.5 -126.5t-128.5 -71.5t-178 -22.5q-43 0 -79 4.5t-80 15.5q2 21 3.5 36.5t3.5 30t4 30.5t4 37q2 23 17 36t41 13q11 0 25 -3t44 -3q32 0 59.5 7.5t48 30.5t32 65t11.5 112v395h-364v-447h-276v1031h276v-383h364v383h275z" />
<glyph unicode="&#x4c9;" horiz-adv-x="1630" d="M1395 227h212l-161 -569h-293l107 342h-167v625h-639v-625h-302v1451h302v-616h639v616h302v-1224z" />
<glyph unicode="&#x4ca;" horiz-adv-x="1241" d="M1029 1031v-830h200l-154 -543h-258l107 342h-170v447h-364v-447h-276v1031h276v-383h364v383h275z" />
<glyph unicode="&#x4cb;" horiz-adv-x="1364" d="M1212 0h-228v-249q0 -38 -26.5 -61t-68.5 -23h-181v560h202v338q-118 -28 -225.5 -41t-200.5 -7t-169 34t-129.5 82.5t-83 137.5t-29.5 200v480h302v-481q0 -78 24 -132t85 -80t164.5 -23t261.5 40v676h302v-1451z" />
<glyph unicode="&#x4cc;" horiz-adv-x="1062" d="M673 201v193q-134 -32 -246 -34.5t-193 30.5t-126.5 106t-45.5 192v343h275v-302q0 -59 17 -96t56.5 -54.5t104 -16t158.5 19.5v449h275v-1031h-214v-262q0 -37 -22 -58.5t-56 -21.5h-173v543h190z" />
<glyph unicode="&#x4cd;" horiz-adv-x="1986" d="M1964 227l-161 -569h-294l108 342h-130v891q0 27 1.5 59t4.5 66l-414 -787q-34 -65 -105 -65h-42q-35 0 -62 16.5t-43 48.5l-417 789q3 -34 5 -66.5t2 -60.5v-891h-265v1451h228q19 0 34 -1t26.5 -5.5t21 -14t18.5 -26.5l406 -774q18 -35 34.5 -72t31.5 -76q15 40 32 78 t36 73l403 771q9 17 19 26.5t21.5 14t26 5.5t34.5 1h228v-1224h212z" />
<glyph unicode="&#x4ce;" horiz-adv-x="1539" d="M660 575q17 -32 32.5 -68.5t29.5 -74.5q13 38 28.5 74.5t32.5 68.5l211 397q20 38 48 49t56 11h230v-831h198l-154 -543h-258l107 342h-142v536q0 36 4 81.5t11 86.5l-280 -526q-25 -47 -77 -47h-30q-51 0 -78 47l-283 528q7 -41 12 -87t5 -83v-536h-249v1032h230 q28 0 56 -12t48 -48l212 -397v0z" />
<glyph unicode="&#x4cf;" horiz-adv-x="606" d="M454 0h-302v1451h302v-1451z" />
<glyph unicode="&#x4d0;" horiz-adv-x="1397" d="M0 0zM1418 0h-233q-39 0 -63.5 18.5t-36.5 47.5l-98 277h-578l-98 -277q-10 -25 -35 -45.5t-63 -20.5h-235l567 1451h307zM482 551h432l-157 444q-14 35 -29.5 82t-30.5 101q-14 -55 -29 -102.5t-29 -82.5zM698 1668q36 0 59.5 6.5t37 23.5t19 45.5t5.5 73.5h163 q29 0 42.5 -24t13.5 -51q0 -52 -24.5 -91t-69.5 -65.5t-107.5 -39.5t-138.5 -13t-138.5 13t-107.5 39.5t-69.5 65.5t-24.5 91q0 27 13.5 51t42.5 24h163q0 -45 5.5 -73.5t19 -45.5t37 -23.5t59.5 -6.5z" />
<glyph unicode="&#x4d1;" horiz-adv-x="1024" d="M42 0zM796 0q-39 0 -59.5 11t-33.5 46l-22 65q-39 -34 -75.5 -59.5t-76 -43t-84 -26.5t-98.5 -9q-68 0 -124 18t-96.5 53.5t-62.5 88.5t-22 122q0 57 29 113.5t99.5 103t188 77.5t294.5 35v53q0 97 -41 142.5t-118 45.5q-57 0 -95 -13.5t-66.5 -29t-53.5 -29t-58 -13.5 q-29 0 -48.5 14.5t-32.5 34.5l-49 88q91 82 201 122.5t238 40.5q92 0 164.5 -30t123 -83.5t77.5 -127.5t27 -162v-648h-126zM433 170q68 0 119 24.5t101 75.5v160q-101 -4 -168 -17t-106.5 -32.5t-56 -45t-16.5 -55.5q0 -60 33.5 -85t93.5 -25zM505 1296q36 0 59.5 7.5 t37 25.5t19 47.5t5.5 74.5h163q29 0 42.5 -24t13.5 -51q0 -52 -24.5 -93.5t-69.5 -70.5t-107.5 -44.5t-138.5 -15.5t-138.5 15.5t-107.5 44.5t-69.5 70.5t-24.5 93.5q0 27 13.5 51t42.5 24h163q0 -45 5.5 -74.5t19 -47.5t37 -25.5t59.5 -7.5z" />
<glyph unicode="&#x4d2;" horiz-adv-x="1397" d="M0 0zM1418 0h-233q-39 0 -63.5 18.5t-36.5 47.5l-98 277h-578l-98 -277q-10 -25 -35 -45.5t-63 -20.5h-235l567 1451h307zM482 551h432l-157 444q-14 35 -29.5 82t-30.5 101q-14 -55 -29 -102.5t-29 -82.5zM618 1667q0 -29 -11.5 -54.5t-32 -44t-47.5 -29.5t-57 -11 q-28 0 -53 11t-44.5 29.5t-31 44t-11.5 54.5t11.5 55.5t31 46t44.5 31t53 11.5q30 0 57 -11.5t47.5 -31t32 -46t11.5 -55.5zM1066 1667q0 -29 -11.5 -54.5t-31 -44t-45.5 -29.5t-56 -11t-56 11t-45.5 29.5t-31 44t-11.5 54.5t11.5 55.5t31 46t45.5 31t56 11.5t56 -11.5 t45.5 -31t31 -46t11.5 -55.5z" />
<glyph unicode="&#x4d3;" horiz-adv-x="1024" d="M42 0zM796 0q-39 0 -59.5 11t-33.5 46l-22 65q-39 -34 -75.5 -59.5t-76 -43t-84 -26.5t-98.5 -9q-68 0 -124 18t-96.5 53.5t-62.5 88.5t-22 122q0 57 29 113.5t99.5 103t188 77.5t294.5 35v53q0 97 -41 142.5t-118 45.5q-57 0 -95 -13.5t-66.5 -29t-53.5 -29t-58 -13.5 q-29 0 -48.5 14.5t-32.5 34.5l-49 88q91 82 201 122.5t238 40.5q92 0 164.5 -30t123 -83.5t77.5 -127.5t27 -162v-648h-126zM433 170q68 0 119 24.5t101 75.5v160q-101 -4 -168 -17t-106.5 -32.5t-56 -45t-16.5 -55.5q0 -60 33.5 -85t93.5 -25zM446 1294q0 -30 -12 -56 t-32.5 -45.5t-48 -30.5t-58.5 -11q-29 0 -55.5 11t-46.5 30.5t-32 45.5t-12 56t12 57t32 47.5t46.5 32t55.5 11.5q31 0 58.5 -11.5t48 -32t32.5 -47.5t12 -57zM861 1294q0 -30 -12 -56t-32 -45.5t-47.5 -30.5t-58.5 -11q-30 0 -57 11t-47 30.5t-31.5 45.5t-11.5 56t11.5 57 t31.5 47.5t47 32t57 11.5q31 0 58.5 -11.5t47.5 -32t32 -47.5t12 -57z" />
<glyph unicode="&#x4d4;" horiz-adv-x="1864" d="M697 1451h1094v-235h-672l46 -373h489v-227h-461l46 -381h553l-1 -235h-807l-42 343h-503l-128 -277q-14 -29 -43 -47.5t-70 -18.5h-228zM535 551h382l-83 678q-17 -55 -36 -102t-38 -88z" />
<glyph unicode="&#x4d5;" horiz-adv-x="1623" d="M1145 1047q90 0 166.5 -34t132.5 -98t88 -154.5t32 -203.5q0 -31 -2.5 -51t-9.5 -32t-18.5 -16.5t-30.5 -4.5h-586q16 -134 81 -196.5t167 -62.5q67 0 108.5 12.5t68.5 27.5t45.5 27.5t41.5 12.5q38 0 56 -24l74 -93q-44 -51 -96 -84.5t-107 -53t-110.5 -27t-107.5 -7.5 q-53 0 -103.5 11.5t-96.5 35t-86.5 60t-71.5 86.5q-31 -51 -75 -87.5t-97.5 -60.5t-113 -35t-122.5 -11q-77 0 -137.5 19.5t-103 57t-65 92t-22.5 124.5q0 38 12.5 77.5t41 76t75 69.5t114.5 58.5t159 41t209 18.5v30q0 97 -41 146.5t-118 49.5q-57 0 -95 -14.5t-66.5 -32 t-53.5 -32t-58 -14.5q-29 0 -48.5 14.5t-32.5 34.5l-49 88q91 82 190 122.5t219 40.5q115 0 189 -42t115 -115q57 71 142 112t197 41zM1133 853q-97 0 -149.5 -61.5t-66.5 -174.5h402q0 44 -10.5 86.5t-33 75.5t-58 53.5t-84.5 20.5zM655 453q-101 -5 -168 -19.5t-106.5 -36 t-56 -49t-16.5 -57.5q0 -62 34 -91.5t97 -29.5q46 0 85.5 14t68.5 44t45.5 77.5t16.5 115.5v32z" />
<glyph unicode="&#x4d6;" horiz-adv-x="1148" d="M152 0zM1076 1451v-235h-622v-373h484v-227h-484v-381h622v-235h-924v1451h924zM630 1668q36 0 59.5 6.5t37 23.5t19 45.5t5.5 73.5h163q29 0 42.5 -24t13.5 -51q0 -52 -24.5 -91t-69.5 -65.5t-107.5 -39.5t-138.5 -13t-138.5 13t-107.5 39.5t-69.5 65.5t-24.5 91 q0 27 13.5 51t42.5 24h163q0 -45 5.5 -73.5t19 -45.5t37 -23.5t59.5 -6.5z" />
<glyph unicode="&#x4d7;" horiz-adv-x="1072" d="M59 0zM561 1047q99 0 182.5 -31.5t144 -91.5t94 -147.5t33.5 -199.5q0 -31 -3 -51t-10 -32t-19 -16.5t-31 -4.5h-619q13 -145 82.5 -212t182.5 -67q57 0 98.5 13.5t73 30t57 30t50.5 13.5q32 0 50 -24l80 -100q-44 -51 -97 -84.5t-110 -53t-115 -27t-112 -7.5 q-108 0 -201.5 35.5t-163 105t-109.5 172.5t-40 239q0 105 34.5 198t99.5 162t158 109.5t210 40.5zM566 853q-99 0 -155 -56.5t-73 -159.5h430q0 43 -11.5 82t-36.5 69t-63 47.5t-91 17.5zM567 1296q36 0 59.5 7.5t37 25.5t19 47.5t5.5 74.5h163q29 0 42.5 -24t13.5 -51 q0 -52 -24.5 -93.5t-69.5 -70.5t-107.5 -44.5t-138.5 -15.5t-138.5 15.5t-107.5 44.5t-69.5 70.5t-24.5 93.5q0 27 13.5 51t42.5 24h163q0 -45 5.5 -74.5t19 -47.5t37 -25.5t59.5 -7.5z" />
<glyph unicode="&#x4d8;" horiz-adv-x="1473" d="M701 -17q-140 0 -257 44t-201.5 128.5t-131.5 207t-47 279.5q0 43 3.5 71t13.5 44t27 22.5t43 6.5h939q-19 217 -132.5 322.5t-309.5 105.5q-82 0 -143 -20t-108.5 -44t-85 -44t-73.5 -20q-23 0 -41 9t-30 25l-91 111q64 72 138 119t153 74.5t159 38t156 10.5 q151 0 282.5 -50t229 -148t153.5 -242.5t56 -334.5q0 -147 -48.5 -277t-139.5 -227.5t-221 -154t-293 -56.5zM702 228q83 0 149 25t114 71.5t78.5 112.5t42.5 148h-731q0 -77 22.5 -142.5t66.5 -113t109 -74.5t149 -27z" />
<glyph unicode="&#x4d9;" horiz-adv-x="1072" d="M512 -15q-100 0 -183.5 31.5t-144 91.5t-94 147.5t-33.5 198.5q0 31 3 51t10 32t19 16.5t31 4.5h619q-13 145 -83 212.5t-182 67.5q-57 0 -98.5 -13.5t-73 -30t-56.5 -30t-50 -13.5q-33 0 -51 24l-79 100q44 51 97 84t110 52.5t114.5 27.5t111.5 8q108 0 201.5 -35.5 t163.5 -105t110 -173t40 -239.5q0 -105 -35 -197.5t-100 -161.5t-158 -109.5t-209 -40.5zM507 179q98 0 154 56t73 160h-430q0 -43 11.5 -82t36.5 -69t63.5 -47.5t91.5 -17.5z" />
<glyph unicode="&#x4da;" horiz-adv-x="1473" d="M64 0zM701 -17q-140 0 -257 44t-201.5 128.5t-131.5 207t-47 279.5q0 43 3.5 71t13.5 44t27 22.5t43 6.5h939q-19 217 -132.5 322.5t-309.5 105.5q-82 0 -143 -20t-108.5 -44t-85 -44t-73.5 -20q-23 0 -41 9t-30 25l-91 111q64 72 138 119t153 74.5t159 38t156 10.5 q151 0 282.5 -50t229 -148t153.5 -242.5t56 -334.5q0 -147 -48.5 -277t-139.5 -227.5t-221 -154t-293 -56.5zM702 228q83 0 149 25t114 71.5t78.5 112.5t42.5 148h-731q0 -77 22.5 -142.5t66.5 -113t109 -74.5t149 -27zM610 1667q0 -29 -11.5 -54.5t-32 -44t-47.5 -29.5 t-57 -11q-28 0 -53 11t-44.5 29.5t-31 44t-11.5 54.5t11.5 55.5t31 46t44.5 31t53 11.5q30 0 57 -11.5t47.5 -31t32 -46t11.5 -55.5zM1058 1667q0 -29 -11.5 -54.5t-31 -44t-45.5 -29.5t-56 -11t-56 11t-45.5 29.5t-31 44t-11.5 54.5t11.5 55.5t31 46t45.5 31t56 11.5 t56 -11.5t45.5 -31t31 -46t11.5 -55.5z" />
<glyph unicode="&#x4db;" horiz-adv-x="1072" d="M57 0zM512 -15q-100 0 -183.5 31.5t-144 91.5t-94 147.5t-33.5 198.5q0 31 3 51t10 32t19 16.5t31 4.5h619q-13 145 -83 212.5t-182 67.5q-57 0 -98.5 -13.5t-73 -30t-56.5 -30t-50 -13.5q-33 0 -51 24l-79 100q44 51 97 84t110 52.5t114.5 27.5t111.5 8 q108 0 201.5 -35.5t163.5 -105t110 -173t40 -239.5q0 -105 -35 -197.5t-100 -161.5t-158 -109.5t-209 -40.5zM507 179q98 0 154 56t73 160h-430q0 -43 11.5 -82t36.5 -69t63.5 -47.5t91.5 -17.5zM473 1294q0 -30 -12 -56t-32.5 -45.5t-48 -30.5t-58.5 -11q-29 0 -55.5 11 t-46.5 30.5t-32 45.5t-12 56t12 57t32 47.5t46.5 32t55.5 11.5q31 0 58.5 -11.5t48 -32t32.5 -47.5t12 -57zM888 1294q0 -30 -12 -56t-32 -45.5t-47.5 -30.5t-58.5 -11q-30 0 -57 11t-47 30.5t-31.5 45.5t-11.5 56t11.5 57t31.5 47.5t47 32t57 11.5q31 0 58.5 -11.5 t47.5 -32t32 -47.5t12 -57z" />
<glyph unicode="&#x4dc;" horiz-adv-x="2160" d="M0 0zM277 1451q45 0 83.5 -22t61.5 -61l269 -444q25 -44 56 -58t70 -14h121v599h283v-599h121q40 0 70.5 14t56.5 58l269 444q23 39 61.5 61t83.5 22h238l-354 -553q-30 -48 -62.5 -79.5t-78.5 -49.5q56 -20 99 -57.5t81 -101.5l358 -610h-201q-65 0 -111.5 27.5 t-73.5 74.5l-268 446q-26 45 -59.5 63t-81.5 18h-148v-629h-283v629h-147q-49 0 -82 -18t-59 -63l-268 -446q-28 -47 -74 -74.5t-112 -27.5h-200l357 610q38 64 81.5 101.5t98.5 57.5q-45 18 -77.5 49.5t-62.5 79.5l-354 553h238zM1001 1667q0 -29 -11.5 -54.5t-32 -44 t-47.5 -29.5t-57 -11q-28 0 -53 11t-44.5 29.5t-31 44t-11.5 54.5t11.5 55.5t31 46t44.5 31t53 11.5q30 0 57 -11.5t47.5 -31t32 -46t11.5 -55.5zM1449 1667q0 -29 -11.5 -54.5t-31 -44t-45.5 -29.5t-56 -11t-56 11t-45.5 29.5t-31 44t-11.5 54.5t11.5 55.5t31 46t45.5 31 t56 11.5t56 -11.5t45.5 -31t31 -46t11.5 -55.5z" />
<glyph unicode="&#x4dd;" horiz-adv-x="1659" d="M12 0zM531 675q17 -32 40.5 -46.5t65.5 -14.5h59v417h267v-417h54q42 0 68 14.5t43 46.5l157 285q17 32 49 51.5t70 19.5h217l-230 -379q-24 -41 -50 -66t-63 -39q51 -16 82.5 -46t56.5 -76l230 -425h-190q-73 0 -111 22t-60 71l-133 273q-17 36 -47.5 53.5t-69.5 17.5 h-73v-437h-267v437h-73q-39 0 -69.5 -17.5t-47.5 -53.5l-133 -273q-22 -49 -60 -71t-111 -22h-190l229 425q25 46 56.5 76t82.5 46q-36 14 -62 38.5t-51 66.5l-229 379h217q38 0 69.5 -19.5t49.5 -51.5zM770 1294q0 -30 -12 -56t-32.5 -45.5t-48 -30.5t-58.5 -11 q-29 0 -55.5 11t-46.5 30.5t-32 45.5t-12 56t12 57t32 47.5t46.5 32t55.5 11.5q31 0 58.5 -11.5t48 -32t32.5 -47.5t12 -57zM1185 1294q0 -30 -12 -56t-32 -45.5t-47.5 -30.5t-58.5 -11q-30 0 -57 11t-47 30.5t-31.5 45.5t-11.5 56t11.5 57t31.5 47.5t47 32t57 11.5 q31 0 58.5 -11.5t47.5 -32t32 -47.5t12 -57z" />
<glyph unicode="&#x4de;" horiz-adv-x="1168" d="M15 0zM1057 1084q0 -100 -44.5 -183.5t-137.5 -136.5q48 -24 88.5 -56t69 -70.5t44.5 -83.5t16 -95q0 -99 -37 -185.5t-107.5 -150t-173.5 -100.5t-235 -37q-75 0 -149.5 14t-142.5 39t-127.5 60t-105.5 78l89 142q11 16 28.5 26.5t38.5 10.5q28 0 60 -20t75 -44t102 -44 t141 -20q124 0 193 52t69 167q0 46 -19.5 82.5t-54.5 61.5t-85 38t-110 12h-208l-1 238h186q125 0 191 46t66 134q0 77 -61.5 122t-181.5 45q-69 0 -120 -15t-88.5 -33.5t-65 -33.5t-49.5 -15q-23 0 -38 10.5t-29 32.5l-74 141q85 72 204 113t262 41q120 0 216.5 -28 t164.5 -78.5t104.5 -121t36.5 -155.5zM482 1667q0 -29 -11.5 -54.5t-32 -44t-47.5 -29.5t-57 -11q-28 0 -53 11t-44.5 29.5t-31 44t-11.5 54.5t11.5 55.5t31 46t44.5 31t53 11.5q30 0 57 -11.5t47.5 -31t32 -46t11.5 -55.5zM930 1667q0 -29 -11.5 -54.5t-31 -44t-45.5 -29.5 t-56 -11t-56 11t-45.5 29.5t-31 44t-11.5 54.5t11.5 55.5t31 46t45.5 31t56 11.5t56 -11.5t45.5 -31t31 -46t11.5 -55.5z" />
<glyph unicode="&#x4df;" horiz-adv-x="901" d="M28 0zM56 917q60 58 147 94t210 36q96 0 171.5 -23t127.5 -61.5t79 -89t27 -105.5q0 -29 -8.5 -60.5t-27.5 -61t-50 -55t-77 -43.5q40 -16 73.5 -39t57.5 -54t37.5 -69t13.5 -84q0 -76 -35.5 -135t-93.5 -99.5t-132.5 -61.5t-152.5 -21q-43 0 -93.5 7.5t-102.5 27 t-103.5 53t-95.5 84.5l80 100q18 24 50 24q25 0 46 -14t47.5 -31t62.5 -31t90 -14q86 0 128.5 38t42.5 96q0 57 -45 89t-148 32h-116v175h116q91 0 138.5 31t47.5 83q0 48 -42 77t-121 29q-51 0 -86 -10.5t-60.5 -22.5t-44 -22.5t-35.5 -10.5q-19 0 -32.5 7t-28.5 31z M369 1294q0 -30 -12 -56t-32.5 -45.5t-48 -30.5t-58.5 -11q-29 0 -55.5 11t-46.5 30.5t-32 45.5t-12 56t12 57t32 47.5t46.5 32t55.5 11.5q31 0 58.5 -11.5t48 -32t32.5 -47.5t12 -57zM784 1294q0 -30 -12 -56t-32 -45.5t-47.5 -30.5t-58.5 -11q-30 0 -57 11t-47 30.5 t-31.5 45.5t-11.5 56t11.5 57t31.5 47.5t47 32t57 11.5q31 0 58.5 -11.5t47.5 -32t32 -47.5t12 -57z" />
<glyph unicode="&#x4e0;" horiz-adv-x="1187" d="M1072 1451v-110q0 -23 -7.5 -50t-36.5 -54l-344 -329q114 -9 196 -43.5t134 -88t76.5 -123.5t24.5 -149q0 -125 -50 -221.5t-132 -162.5t-187.5 -100t-216.5 -34q-142 0 -271.5 57.5t-232.5 181.5l118 129q14 17 27.5 19.5t22.5 2.5q15 0 29 -5.5t41 -27.5 q15 -15 37.5 -34t54.5 -36t74.5 -28.5t97.5 -11.5q72 0 124.5 21t87.5 57t52 83t17 98q0 46 -15.5 84t-50 65.5t-90 42.5t-135.5 15h-208v127q0 21 9 45t33 46l310 299h-579v235h990z" />
<glyph unicode="&#x4e1;" horiz-adv-x="913" d="M0 0zM808 919q0 -36 -16 -65t-38 -51l-265 -312q94 -14 163.5 -46.5t115 -82t67.5 -113.5t22 -139q0 -94 -33 -177.5t-99 -146.5t-164 -99.5t-227 -36.5q-65 0 -119.5 9.5t-99.5 26.5t-82 40t-67 50l64 104q11 18 27.5 28t41.5 10t46.5 -11t47 -23.5t60 -23.5t86.5 -11 q118 0 183 62t65 181q0 50 -13 92t-41.5 72t-73.5 46.5t-109 16.5h-188v85q0 44 36 70l280 349h-443v208h773v-112z" />
<glyph unicode="&#x4e2;" horiz-adv-x="1547" d="M152 0zM1037 1360q10 16 24 32.5t30.5 29.5t36 21t41.5 8h226v-1451h-302v865q0 54 3 113t12 126q-22 -59 -47 -110t-48 -89l-503 -813q-10 -17 -24 -33t-30.5 -29.5t-36 -21.5t-41.5 -8h-226v1451h302v-865q0 -54 -3 -113.5t-12 -125.5q21 59 46.5 110t48.5 89z M480 1719h618v-155h-618v155z" />
<glyph unicode="&#x4e3;" horiz-adv-x="1173" d="M114 0zM114 -1v1031h276v-567q0 -24 -2.5 -53.5t-7.5 -59.5q23 53 47 87q1 2 17.5 26t42.5 61.5t58.5 84.5t66.5 96q79 114 180 259q15 24 40.5 45.5t57.5 21.5h168v-1031h-276v567q0 23 2.5 52t7.5 58q-23 -52 -47 -84q-2 -2 -18 -26t-42 -61.5t-58.5 -84.5t-66.5 -96 q-79 -114 -179 -259q-8 -12 -18.5 -23.5t-23 -21.5t-26.5 -16t-30 -6h-169zM297 1381h608v-172h-608v172z" />
<glyph unicode="&#x4e4;" horiz-adv-x="1547" d="M152 0zM1037 1360q10 16 24 32.5t30.5 29.5t36 21t41.5 8h226v-1451h-302v865q0 54 3 113t12 126q-22 -59 -47 -110t-48 -89l-503 -813q-10 -17 -24 -33t-30.5 -29.5t-36 -21.5t-41.5 -8h-226v1451h302v-865q0 -54 -3 -113.5t-12 -125.5q21 59 46.5 110t48.5 89z M709 1667q0 -29 -11.5 -54.5t-32 -44t-47.5 -29.5t-57 -11q-28 0 -53 11t-44.5 29.5t-31 44t-11.5 54.5t11.5 55.5t31 46t44.5 31t53 11.5q30 0 57 -11.5t47.5 -31t32 -46t11.5 -55.5zM1157 1667q0 -29 -11.5 -54.5t-31 -44t-45.5 -29.5t-56 -11t-56 11t-45.5 29.5t-31 44 t-11.5 54.5t11.5 55.5t31 46t45.5 31t56 11.5t56 -11.5t45.5 -31t31 -46t11.5 -55.5z" />
<glyph unicode="&#x4e5;" horiz-adv-x="1173" d="M114 0zM114 -1v1031h276v-567q0 -24 -2.5 -53.5t-7.5 -59.5q23 53 47 87q1 2 17.5 26t42.5 61.5t58.5 84.5t66.5 96q79 114 180 259q15 24 40.5 45.5t57.5 21.5h168v-1031h-276v567q0 23 2.5 52t7.5 58q-23 -52 -47 -84q-2 -2 -18 -26t-42 -61.5t-58.5 -84.5t-66.5 -96 q-79 -114 -179 -259q-8 -12 -18.5 -23.5t-23 -21.5t-26.5 -16t-30 -6h-169zM542 1294q0 -30 -12 -56t-32.5 -45.5t-48 -30.5t-58.5 -11q-29 0 -55.5 11t-46.5 30.5t-32 45.5t-12 56t12 57t32 47.5t46.5 32t55.5 11.5q31 0 58.5 -11.5t48 -32t32.5 -47.5t12 -57zM957 1294 q0 -30 -12 -56t-32 -45.5t-47.5 -30.5t-58.5 -11q-30 0 -57 11t-47 30.5t-31.5 45.5t-11.5 56t11.5 57t31.5 47.5t47 32t57 11.5q31 0 58.5 -11.5t47.5 -32t32 -47.5t12 -57z" />
<glyph unicode="&#x4e6;" horiz-adv-x="1622" d="M67 0zM1554 726q0 -159 -53.5 -295t-151 -235t-234.5 -155.5t-304 -56.5t-304 56.5t-235 155.5t-151.5 235t-53.5 295t53.5 294.5t151.5 234.5t235 155.5t304 56.5t304 -56.5t234.5 -156t151 -235t53.5 -293.5zM1247 726q0 114 -30 204.5t-86.5 154t-137 97t-182.5 33.5 t-183 -33.5t-137.5 -97t-86.5 -154t-30 -204.5q0 -115 30 -205.5t86.5 -153.5t137.5 -96.5t183 -33.5t182.5 33.5t137 96.5t86.5 153.5t30 205.5zM733 1667q0 -29 -11.5 -54.5t-32 -44t-47.5 -29.5t-57 -11q-28 0 -53 11t-44.5 29.5t-31 44t-11.5 54.5t11.5 55.5t31 46 t44.5 31t53 11.5q30 0 57 -11.5t47.5 -31t32 -46t11.5 -55.5zM1181 1667q0 -29 -11.5 -54.5t-31 -44t-45.5 -29.5t-56 -11t-56 11t-45.5 29.5t-31 44t-11.5 54.5t11.5 55.5t31 46t45.5 31t56 11.5t56 -11.5t45.5 -31t31 -46t11.5 -55.5z" />
<glyph unicode="&#x4e7;" horiz-adv-x="1155" d="M60 0zM579 1047q116 0 211 -37t163 -105.5t105 -166.5t37 -221t-37 -221.5t-105 -167.5t-163 -106t-211 -37q-117 0 -212.5 37t-163.5 106t-105.5 167.5t-37.5 221.5t37.5 221t105.5 166.5t163.5 105.5t212.5 37zM579 192q118 0 175 81.5t57 242.5q0 160 -57 241.5 t-175 81.5q-121 0 -178 -81.5t-57 -241.5q0 -161 57 -242.5t178 -81.5zM520 1294q0 -30 -12 -56t-32.5 -45.5t-48 -30.5t-58.5 -11q-29 0 -55.5 11t-46.5 30.5t-32 45.5t-12 56t12 57t32 47.5t46.5 32t55.5 11.5q31 0 58.5 -11.5t48 -32t32.5 -47.5t12 -57zM935 1294 q0 -30 -12 -56t-32 -45.5t-47.5 -30.5t-58.5 -11q-30 0 -57 11t-47 30.5t-31.5 45.5t-11.5 56t11.5 57t31.5 47.5t47 32t57 11.5q31 0 58.5 -11.5t47.5 -32t32 -47.5t12 -57z" />
<glyph unicode="&#x4e8;" horiz-adv-x="1622" d="M1554 726q0 -159 -53.5 -295t-151 -235t-234.5 -155.5t-304 -56.5t-304 56.5t-235 155.5t-151.5 235t-53.5 295t53.5 294.5t151.5 234.5t235 155.5t304 56.5t304 -56.5t234.5 -156t151 -235t53.5 -293.5zM811 237q90 0 164 26t128.5 76t89.5 122.5t47 164.5h-860 q12 -92 47 -164.5t90.5 -122.5t129.5 -76t164 -26zM811 1215q-88 0 -160.5 -25t-127 -73t-90 -116.5t-50.5 -155.5h854q-14 87 -49.5 155.5t-90 116.5t-127 73t-159.5 25z" />
<glyph unicode="&#x4e9;" horiz-adv-x="1155" d="M579 1047q116 0 211 -37t163 -105.5t105 -166.5t37 -221t-37 -221.5t-105 -167.5t-163 -106t-211 -37q-117 0 -212.5 37t-163.5 106t-105.5 167.5t-37.5 221.5t37.5 221t105.5 166.5t163.5 105.5t212.5 37zM579 192q106 0 162 65.5t67 195.5h-462q11 -130 67.5 -195.5 t165.5 -65.5zM579 839q-106 0 -162 -61.5t-69 -182.5h459q-14 121 -69.5 182.5t-158.5 61.5z" />
<glyph unicode="&#x4ea;" horiz-adv-x="1622" d="M67 0zM1554 726q0 -159 -53.5 -295t-151 -235t-234.5 -155.5t-304 -56.5t-304 56.5t-235 155.5t-151.5 235t-53.5 295t53.5 294.5t151.5 234.5t235 155.5t304 56.5t304 -56.5t234.5 -156t151 -235t53.5 -293.5zM811 237q90 0 164 26t128.5 76t89.5 122.5t47 164.5h-860 q12 -92 47 -164.5t90.5 -122.5t129.5 -76t164 -26zM811 1215q-88 0 -160.5 -25t-127 -73t-90 -116.5t-50.5 -155.5h854q-14 87 -49.5 155.5t-90 116.5t-127 73t-159.5 25zM736 1667q0 -29 -11.5 -54.5t-32 -44t-47.5 -29.5t-57 -11q-28 0 -53 11t-44.5 29.5t-31 44 t-11.5 54.5t11.5 55.5t31 46t44.5 31t53 11.5q30 0 57 -11.5t47.5 -31t32 -46t11.5 -55.5zM1184 1667q0 -29 -11.5 -54.5t-31 -44t-45.5 -29.5t-56 -11t-56 11t-45.5 29.5t-31 44t-11.5 54.5t11.5 55.5t31 46t45.5 31t56 11.5t56 -11.5t45.5 -31t31 -46t11.5 -55.5z" />
<glyph unicode="&#x4eb;" horiz-adv-x="1155" d="M60 0zM579 1047q116 0 211 -37t163 -105.5t105 -166.5t37 -221t-37 -221.5t-105 -167.5t-163 -106t-211 -37q-117 0 -212.5 37t-163.5 106t-105.5 167.5t-37.5 221.5t37.5 221t105.5 166.5t163.5 105.5t212.5 37zM579 192q106 0 162 65.5t67 195.5h-462 q11 -130 67.5 -195.5t165.5 -65.5zM579 839q-106 0 -162 -61.5t-69 -182.5h459q-14 121 -69.5 182.5t-158.5 61.5zM520 1294q0 -30 -12 -56t-32.5 -45.5t-48 -30.5t-58.5 -11q-29 0 -55.5 11t-46.5 30.5t-32 45.5t-12 56t12 57t32 47.5t46.5 32t55.5 11.5q31 0 58.5 -11.5 t48 -32t32.5 -47.5t12 -57zM935 1294q0 -30 -12 -56t-32 -45.5t-47.5 -30.5t-58.5 -11q-30 0 -57 11t-47 30.5t-31.5 45.5t-11.5 56t11.5 57t31.5 47.5t47 32t57 11.5q31 0 58.5 -11.5t47.5 -32t32 -47.5t12 -57z" />
<glyph unicode="&#x4ec;" horiz-adv-x="1329" d="M29 0zM190 357q14 0 26.5 -6t23.5 -15q31 -29 63 -48t67 -31t76.5 -17t92.5 -5q76 0 144.5 26t122.5 75.5t91 122.5t50 167h-647v219h645q-14 88 -49.5 157t-87.5 116.5t-119.5 72t-145.5 24.5q-83 0 -136 -17t-89 -38t-60 -38t-49 -17q-24 0 -37.5 10t-23.5 23l-101 138 q84 85 208.5 138t285.5 53q106 0 201 -24.5t175 -71t143.5 -112.5t108.5 -148t68.5 -179.5t23.5 -205.5q0 -161 -49 -297t-140 -235t-221 -154.5t-293 -55.5q-180 0 -310.5 58t-218.5 170l119 127q10 10 20.5 14t21.5 4zM493 1667q0 -29 -11.5 -54.5t-32 -44t-47.5 -29.5 t-57 -11q-28 0 -53 11t-44.5 29.5t-31 44t-11.5 54.5t11.5 55.5t31 46t44.5 31t53 11.5q30 0 57 -11.5t47.5 -31t32 -46t11.5 -55.5zM941 1667q0 -29 -11.5 -54.5t-31 -44t-45.5 -29.5t-56 -11t-56 11t-45.5 29.5t-31 44t-11.5 54.5t11.5 55.5t31 46t45.5 31t56 11.5 t56 -11.5t45.5 -31t31 -46t11.5 -55.5z" />
<glyph unicode="&#x4ed;" horiz-adv-x="978" d="M35 0zM44 899q71 72 160 110t207 38q124 0 218.5 -40.5t159 -111.5t97.5 -168t33 -210q0 -127 -37.5 -226t-101.5 -167t-149.5 -103.5t-180.5 -35.5q-54 0 -109 7.5t-108.5 27t-103.5 53t-94 84.5l75 91q17 25 50 25q25 0 44.5 -13t43.5 -28t59 -28t92 -13 q94 0 158.5 62.5t81.5 181.5h-416v184h413q-20 105 -80.5 163.5t-161.5 58.5q-49 0 -82.5 -10t-58 -22.5t-43.5 -22.5t-40 -10t-33 9t-24 24zM388 1294q0 -30 -12 -56t-32.5 -45.5t-48 -30.5t-58.5 -11q-29 0 -55.5 11t-46.5 30.5t-32 45.5t-12 56t12 57t32 47.5t46.5 32 t55.5 11.5q31 0 58.5 -11.5t48 -32t32.5 -47.5t12 -57zM803 1294q0 -30 -12 -56t-32 -45.5t-47.5 -30.5t-58.5 -11q-30 0 -57 11t-47 30.5t-31.5 45.5t-11.5 56t11.5 57t31.5 47.5t47 32t57 11.5q31 0 58.5 -11.5t47.5 -32t32 -47.5t12 -57z" />
<glyph unicode="&#x4ee;" horiz-adv-x="1305" d="M337 225q20 0 42.5 3.5t45 15t43.5 32.5t39 57l52 103l-582 1015h282q39 0 62 -18.5t38 -47.5l252 -486q25 -46 44.5 -92t34.5 -93q27 94 72 185l222 486q12 24 36.5 45t62.5 21h249l-585 -1245q-32 -67 -69 -110t-79.5 -67.5t-90.5 -34t-103 -9.5q-79 0 -114 14t-35 41 v185h81zM348 1719h618v-155h-618v155z" />
<glyph unicode="&#x4ef;" horiz-adv-x="1064" d="M0 0zM514 -277q-13 -28 -31.5 -42t-58.5 -14h-205l195 415l-414 949h242q33 0 51 -15t26 -35l196 -493q21 -59 36 -117q9 30 19.5 59.5t21.5 58.5l182 492q8 22 29 36t46 14h221zM253 1381h608v-172h-608v172z" />
<glyph unicode="&#x4f0;" horiz-adv-x="1305" d="M337 225q20 0 42.5 3.5t45 15t43.5 32.5t39 57l52 103l-582 1015h282q39 0 62 -18.5t38 -47.5l252 -486q25 -46 44.5 -92t34.5 -93q27 94 72 185l222 486q12 24 36.5 45t62.5 21h249l-585 -1245q-32 -67 -69 -110t-79.5 -67.5t-90.5 -34t-103 -9.5q-79 0 -114 14t-35 41 v185h81zM577 1667q0 -29 -11.5 -54.5t-32 -44t-47.5 -29.5t-57 -11q-28 0 -53 11t-44.5 29.5t-31 44t-11.5 54.5t11.5 55.5t31 46t44.5 31t53 11.5q30 0 57 -11.5t47.5 -31t32 -46t11.5 -55.5zM1025 1667q0 -29 -11.5 -54.5t-31 -44t-45.5 -29.5t-56 -11t-56 11t-45.5 29.5 t-31 44t-11.5 54.5t11.5 55.5t31 46t45.5 31t56 11.5t56 -11.5t45.5 -31t31 -46t11.5 -55.5z" />
<glyph unicode="&#x4f1;" horiz-adv-x="1064" d="M0 0zM514 -277q-13 -28 -31.5 -42t-58.5 -14h-205l195 415l-414 949h242q33 0 51 -15t26 -35l196 -493q21 -59 36 -117q9 30 19.5 59.5t21.5 58.5l182 492q8 22 29 36t46 14h221zM498 1294q0 -30 -12 -56t-32.5 -45.5t-48 -30.5t-58.5 -11q-29 0 -55.5 11t-46.5 30.5 t-32 45.5t-12 56t12 57t32 47.5t46.5 32t55.5 11.5q31 0 58.5 -11.5t48 -32t32.5 -47.5t12 -57zM913 1294q0 -30 -12 -56t-32 -45.5t-47.5 -30.5t-58.5 -11q-30 0 -57 11t-47 30.5t-31.5 45.5t-11.5 56t11.5 57t31.5 47.5t47 32t57 11.5q31 0 58.5 -11.5t47.5 -32t32 -47.5 t12 -57z" />
<glyph unicode="&#x4f2;" horiz-adv-x="1305" d="M337 225q20 0 42.5 3.5t45 15t43.5 32.5t39 57l52 103l-582 1015h282q39 0 62 -18.5t38 -47.5l252 -486q25 -46 44.5 -92t34.5 -93q27 94 72 185l222 486q12 24 36.5 45t62.5 21h249l-585 -1245q-32 -67 -69 -110t-79.5 -67.5t-90.5 -34t-103 -9.5q-79 0 -114 14t-35 41 v185h81zM805 1826l-207 -237q-22 -19 -40.5 -29t-49.5 -10h-130l134 220q16 26 43.5 41t70.5 15h179zM1212 1826l-262 -237q-23 -20 -45.5 -29.5t-53.5 -9.5h-148l182 220q21 25 50 40.5t72 15.5h205z" />
<glyph unicode="&#x4f3;" horiz-adv-x="1064" d="M0 0zM514 -277q-13 -28 -31.5 -42t-58.5 -14h-205l195 415l-414 949h242q33 0 51 -15t26 -35l196 -493q21 -59 36 -117q9 30 19.5 59.5t21.5 58.5l182 492q8 22 29 36t46 14h221zM694 1467l-200 -262q-17 -23 -38 -30.5t-52 -7.5h-113l122 244q14 28 36.5 42t65.5 14h179 zM1056 1467l-255 -262q-20 -21 -39.5 -29.5t-50.5 -8.5h-130l177 244q9 13 18 23.5t20.5 17.5t27 11t36.5 4h196z" />
<glyph unicode="&#x4f4;" horiz-adv-x="1364" d="M73 0zM1212 0h-302v565q-118 -28 -225.5 -41t-200.5 -7t-169 34t-129.5 82.5t-83 137.5t-29.5 200v480h302v-481q0 -78 24 -132t85 -80t164.5 -23t261.5 40v676h302v-1451zM570 1667q0 -29 -11.5 -54.5t-32 -44t-47.5 -29.5t-57 -11q-28 0 -53 11t-44.5 29.5t-31 44 t-11.5 54.5t11.5 55.5t31 46t44.5 31t53 11.5q30 0 57 -11.5t47.5 -31t32 -46t11.5 -55.5zM1018 1667q0 -29 -11.5 -54.5t-31 -44t-45.5 -29.5t-56 -11t-56 11t-45.5 29.5t-31 44t-11.5 54.5t11.5 55.5t31 46t45.5 31t56 11.5t56 -11.5t45.5 -31t31 -46t11.5 -55.5z" />
<glyph unicode="&#x4f5;" horiz-adv-x="1065" d="M63 0zM950 0h-276v394q-133 -32 -245 -34.5t-193.5 30.5t-127 106t-45.5 192v343h276v-302q0 -59 17 -96t56.5 -54.5t103.5 -16t158 19.5v449h276v-1031zM456 1294q0 -30 -12 -56t-32.5 -45.5t-48 -30.5t-58.5 -11q-29 0 -55.5 11t-46.5 30.5t-32 45.5t-12 56t12 57 t32 47.5t46.5 32t55.5 11.5q31 0 58.5 -11.5t48 -32t32.5 -47.5t12 -57zM871 1294q0 -30 -12 -56t-32 -45.5t-47.5 -30.5t-58.5 -11q-30 0 -57 11t-47 30.5t-31.5 45.5t-11.5 56t11.5 57t31.5 47.5t47 32t57 11.5q31 0 58.5 -11.5t47.5 -32t32 -47.5t12 -57z" />
<glyph unicode="&#x4f6;" horiz-adv-x="1089" d="M1056 1224h-602v-997h202v-485q0 -38 -26.5 -61t-68.5 -23h-180v342h-229v1451h904v-227z" />
<glyph unicode="&#x4f7;" horiz-adv-x="852" d="M824 1031v-201h-435v-629h190v-464q0 -37 -22 -58.5t-56 -21.5h-173v343h-215v1031h711z" />
<glyph unicode="&#x4f8;" horiz-adv-x="1854" d="M152 0zM452 1451v-591h218q145 0 248 -32t167.5 -87t94.5 -127.5t30 -154.5q0 -104 -36.5 -188.5t-105.5 -144.5t-169.5 -93t-228.5 -33h-518v1451h300zM452 629v-399h218q71 0 118 16t75 43.5t39.5 63.5t11.5 76q0 45 -11.5 82t-39 63.5t-74.5 40.5t-119 14h-218z M1702 0h-302v1451h302v-1451zM845 1667q0 -29 -11.5 -54.5t-32 -44t-47.5 -29.5t-57 -11q-28 0 -53 11t-44.5 29.5t-31 44t-11.5 54.5t11.5 55.5t31 46t44.5 31t53 11.5q30 0 57 -11.5t47.5 -31t32 -46t11.5 -55.5zM1293 1667q0 -29 -11.5 -54.5t-31 -44t-45.5 -29.5 t-56 -11t-56 11t-45.5 29.5t-31 44t-11.5 54.5t11.5 55.5t31 46t45.5 31t56 11.5t56 -11.5t45.5 -31t31 -46t11.5 -55.5z" />
<glyph unicode="&#x4f9;" horiz-adv-x="1500" d="M114 0zM376 1031v-374h168q108 0 183.5 -26.5t122.5 -71t68 -103t21 -123.5q0 -74 -26.5 -135t-77 -105t-123.5 -68.5t-166 -24.5h-432v1031h262zM1385 1031v-1031h-275v1031h275zM376 464v-271h169q74 0 111.5 39t37.5 100q0 26 -8.5 50t-27 42t-46.5 29t-67 11h-169z M664 1294q0 -30 -12 -56t-32.5 -45.5t-48 -30.5t-58.5 -11q-29 0 -55.5 11t-46.5 30.5t-32 45.5t-12 56t12 57t32 47.5t46.5 32t55.5 11.5q31 0 58.5 -11.5t48 -32t32.5 -47.5t12 -57zM1079 1294q0 -30 -12 -56t-32 -45.5t-47.5 -30.5t-58.5 -11q-30 0 -57 11t-47 30.5 t-31.5 45.5t-11.5 56t11.5 57t31.5 47.5t47 32t57 11.5q31 0 58.5 -11.5t47.5 -32t32 -47.5t12 -57z" />
<glyph unicode="&#x4fa;" horiz-adv-x="1203" d="M530 0h-264v630h-234v219h234v602h904v-227h-602v-375h343v-219h-343v-403h202v-289q0 -64 -16.5 -118.5t-53.5 -94t-96 -62t-144 -22.5q-45 0 -87 10t-93 32l21 109q9 32 26.5 42t33.5 10q17 0 36.5 -5.5t46.5 -5.5q49 0 67.5 33t18.5 97v37z" />
<glyph unicode="&#x4fb;" horiz-adv-x="940" d="M204 604v427h711v-201h-435v-226h196v-192h-196v-211h189v-217q0 -64 -16.5 -125.5t-53.5 -110t-96 -78t-143 -29.5q-46 0 -88 10t-93 32l22 109q8 31 25.5 41.5t34.5 10.5q16 0 36 -5.5t46 -5.5q49 0 67.5 33t18.5 97v37h-225v412h-166v192h166z" />
<glyph unicode="&#x4fc;" horiz-adv-x="1427" d="M470 746l-457 705h300q30 0 44 -8t25 -26l311 -513q5 12 11.5 24.5t14.5 25.5l280 458q12 20 26.5 29.5t35.5 9.5h287l-461 -692l333 -534h194v-241q0 -64 -16.5 -125.5t-53.5 -110t-96 -78t-144 -29.5q-45 0 -87 10t-93 32l21 109q9 32 26.5 42t33.5 10q17 0 36.5 -5.5 t45.5 -5.5q50 0 68.5 33t18.5 97v37h-114q-30 0 -48.5 15t-29.5 35l-315 534q-4 -11 -9 -21.5t-10 -19.5l-298 -493q-13 -19 -30.5 -34.5t-44.5 -15.5h-280z" />
<glyph unicode="&#x4fd;" horiz-adv-x="1136" d="M347 532l-335 499h265q29 0 43.5 -8t25.5 -26l201 -327q10 32 33 69l154 253q13 20 27.5 29.5t34.5 9.5h253l-336 -487l221 -343h183v-217q0 -64 -16.5 -125.5t-53.5 -110t-96 -78t-143 -29.5q-46 0 -88 10t-93 32l22 109q9 32 26.5 42t33.5 10t36 -5.5t46 -5.5 q49 0 67.5 33t18.5 97v37h-79q-30 0 -48.5 15t-29.5 35l-203 340q-9 -35 -26 -61l-174 -279q-12 -19 -29.5 -34.5t-44.5 -15.5h-245z" />
<glyph unicode="&#x4fe;" horiz-adv-x="1455" d="M453 850l-390 601h300q30 0 44 -8t25 -26l311 -513q5 12 11.5 24.5t14.5 25.5l279 458q13 20 27.5 29.5t34.5 9.5h288l-401 -601h325v-218h-306l394 -632h-300q-30 0 -48.5 15t-29.5 35l-315 534q-5 -11 -9.5 -21.5t-9.5 -19.5l-299 -493q-12 -19 -29.5 -34.5 t-44.5 -15.5h-281l403 632h-315v218h321z" />
<glyph unicode="&#x4ff;" horiz-adv-x="1129" d="M96 635h216l-266 396h265q29 0 43.5 -8t25.5 -26l201 -327q10 32 33 69l154 253q13 20 27.5 29.5t34.5 9.5h253l-273 -396h222v-193h-219l284 -442h-265q-30 0 -48.5 15t-29.5 35l-203 340q-9 -35 -26 -61l-174 -279q-12 -19 -29.5 -34.5t-44.5 -15.5h-245l290 442h-226 v193z" />
<glyph unicode="&#x2000;" horiz-adv-x="963" />
<glyph unicode="&#x2001;" horiz-adv-x="1926" />
<glyph unicode="&#x2002;" horiz-adv-x="963" />
<glyph unicode="&#x2003;" horiz-adv-x="1926" />
<glyph unicode="&#x2004;" horiz-adv-x="642" />
<glyph unicode="&#x2005;" horiz-adv-x="481" />
<glyph unicode="&#x2006;" horiz-adv-x="321" />
<glyph unicode="&#x2007;" horiz-adv-x="321" />
<glyph unicode="&#x2008;" horiz-adv-x="240" />
<glyph unicode="&#x2009;" horiz-adv-x="385" />
<glyph unicode="&#x200a;" horiz-adv-x="107" />
<glyph unicode="&#x2010;" horiz-adv-x="747" d="M109 719h528v-226h-528v226z" />
<glyph unicode="&#x2011;" horiz-adv-x="747" d="M109 719h528v-226h-528v226z" />
<glyph unicode="&#x2012;" horiz-adv-x="747" d="M109 719h528v-226h-528v226z" />
<glyph unicode="&#x2013;" d="M173 699h814v-192h-814v192z" />
<glyph unicode="&#x2014;" horiz-adv-x="1599" d="M116 699h1368v-192h-1368v192z" />
<glyph unicode="&#x2018;" horiz-adv-x="447" d="M152 922q-51 82 -68.5 170t-2.5 173.5t62.5 164.5t127.5 142l86 -52q12 -7 16.5 -16t4 -18.5t-4.5 -18.5t-10 -15q-19 -22 -38.5 -61.5t-28 -90t0.5 -109.5t47 -119q20 -31 11 -54.5t-37 -32.5z" />
<glyph unicode="&#x2019;" horiz-adv-x="447" d="M301 1547q51 -82 68.5 -170t2.5 -173.5t-62.5 -164.5t-127.5 -142l-86 52q-12 7 -16.5 16.5t-4 19t4.5 18t10 14.5q19 22 38.5 61.5t27.5 90t-1 109.5t-46 119q-20 31 -11 54.5t36 32.5z" />
<glyph unicode="&#x201a;" horiz-adv-x="438" d="M279 316q51 -82 68.5 -170t2.5 -173.5t-62.5 -164.5t-127.5 -142l-86 52q-12 7 -16.5 16.5t-4 19t4.5 18t10 14.5q19 22 38.5 61.5t27.5 90t-1 109.5t-46 119q-20 31 -11 54.5t36 32.5z" />
<glyph unicode="&#x201c;" horiz-adv-x="791" d="M66 922zM152 922q-51 82 -68.5 170t-2.5 173.5t62.5 164.5t127.5 142l86 -52q12 -7 16.5 -16t4 -18.5t-4.5 -18.5t-10 -15q-19 -22 -38.5 -61.5t-28 -90t0.5 -109.5t47 -119q20 -31 11 -54.5t-37 -32.5zM496 922q-51 82 -68.5 170t-2.5 173.5t62.5 164.5t127.5 142 l86 -52q12 -7 16.5 -16t4 -18.5t-4.5 -18.5t-10 -15q-19 -22 -38.5 -61.5t-28 -90t0.5 -109.5t47 -119q20 -31 11 -54.5t-37 -32.5z" />
<glyph unicode="&#x201d;" horiz-adv-x="791" d="M75 897zM301 1547q51 -82 68.5 -170t2.5 -173.5t-62.5 -164.5t-127.5 -142l-86 52q-12 7 -16.5 16.5t-4 19t4.5 18t10 14.5q19 22 38.5 61.5t27.5 90t-1 109.5t-46 119q-20 31 -11 54.5t36 32.5zM645 1547q51 -82 68.5 -170t2.5 -173.5t-62.5 -164.5t-127.5 -142l-86 52 q-12 7 -16.5 16.5t-4 19t4.5 18t10 14.5q19 22 38.5 61.5t27.5 90t-1 109.5t-46 119q-20 31 -11 54.5t36 32.5z" />
<glyph unicode="&#x201e;" horiz-adv-x="781" d="M53 0zM279 316q51 -82 68.5 -170t2.5 -173.5t-62.5 -164.5t-127.5 -142l-86 52q-12 7 -16.5 16.5t-4 19t4.5 18t10 14.5q19 22 38.5 61.5t27.5 90t-1 109.5t-46 119q-20 31 -11 54.5t36 32.5zM623 316q51 -82 68.5 -170t2.5 -173.5t-62.5 -164.5t-127.5 -142l-86 52 q-12 7 -16.5 16.5t-4 19t4.5 18t10 14.5q19 22 38.5 61.5t27.5 90t-1 109.5t-46 119q-20 31 -11 54.5t36 32.5z" />
<glyph unicode="&#x2020;" d="M66 911q0 23 7.5 44t23.5 37.5t40.5 26t57.5 9.5q30 0 63.5 -5.5t69 -12.5t72 -15t72.5 -14l-34 490q60 34 142 34t142 -34l-35 -490q36 6 73 14t72.5 15t69 12.5t63.5 5.5q33 0 57.5 -9.5t40.5 -26t23.5 -37.5t7.5 -44v-90h-407v-331l35 -809q-59 -35 -142 -35t-142 35 l35 809v331h-407v90z" />
<glyph unicode="&#x2021;" d="M66 330h407v491h-407v90q0 23 7.5 44t23.5 37.5t40.5 26t57.5 9.5q30 0 63.5 -5.5t69 -12.5t72 -15t72.5 -14l-34 490q60 34 142 34t142 -34l-35 -490q36 6 73 14t72.5 15t69 12.5t63.5 5.5q33 0 57.5 -9.5t40.5 -26t23.5 -37.5t7.5 -44v-90h-407v-491h407v-90 q0 -23 -7.5 -44t-23.5 -37t-40.5 -25.5t-57.5 -9.5q-30 0 -63.5 5t-69 11.5t-72.5 14.5t-73 14l35 -488q-59 -35 -142 -35t-142 35l34 488q-36 -6 -72.5 -14t-72 -14.5t-69 -11.5t-63.5 -5q-33 0 -57.5 9.5t-40.5 25.5t-23.5 37t-7.5 44v90z" />
<glyph unicode="&#x2022;" d="M117 593q0 94 36.5 177.5t99.5 145.5t147 98t179 36q96 0 180.5 -36t147.5 -98t99.5 -145.5t36.5 -177.5t-36.5 -176.5t-99.5 -144.5t-147.5 -98t-180.5 -36q-95 0 -179 36t-147 98t-99.5 144.5t-36.5 176.5z" />
<glyph unicode="&#x2026;" horiz-adv-x="1561" d="M75 0zM75 145q0 33 12.5 62.5t34.5 51t51.5 34t64.5 12.5q34 0 64 -12.5t52 -34t34.5 -51t12.5 -62.5q0 -34 -12.5 -63t-34.5 -50.5t-52 -33.5t-64 -12q-35 0 -64.5 12t-51.5 33.5t-34.5 50.5t-12.5 63zM1159 145q0 33 12.5 62.5t34.5 51t51.5 34t64.5 12.5 q34 0 64 -12.5t52 -34t34.5 -51t12.5 -62.5q0 -34 -12.5 -63t-34.5 -50.5t-52 -33.5t-64 -12q-35 0 -64.5 12t-51.5 33.5t-34.5 50.5t-12.5 63zM617 145q0 33 12.5 62.5t34.5 51t51.5 34t64.5 12.5q34 0 64 -12.5t52 -34t34.5 -51t12.5 -62.5q0 -34 -12.5 -63t-34.5 -50.5 t-52 -33.5t-64 -12q-35 0 -64.5 12t-51.5 33.5t-34.5 50.5t-12.5 63z" />
<glyph unicode="&#x202f;" horiz-adv-x="385" />
<glyph unicode="&#x2030;" horiz-adv-x="2391" d="M755 1100q0 -81 -28 -147t-75.5 -113.5t-109.5 -73t-129 -25.5q-74 0 -136 25.5t-107.5 73t-71 113.5t-25.5 147q0 84 25.5 151.5t71 115t107.5 73.5t136 26t137 -26t108.5 -73.5t71 -115t25.5 -151.5zM543 1100q0 54 -10 90.5t-27.5 58.5t-41.5 31.5t-51 9.5t-50.5 -9.5 t-40 -31.5t-26 -58.5t-9.5 -90.5q0 -53 9.5 -88t26 -56.5t40 -30.5t50.5 -9t51 9t41.5 30.5t27.5 56.5t10 88zM1225 1409q14 16 33.5 29t54.5 13h201l-1085 -1411q-14 -17 -34 -28.5t-49 -11.5h-205zM1581 341q0 -81 -28 -147t-75.5 -113.5t-109.5 -73t-129 -25.5 q-74 0 -136 25.5t-107.5 73t-71 113.5t-25.5 147q0 84 25.5 151.5t71 115t107.5 73t136 25.5t137 -25.5t108.5 -73t71 -115t25.5 -151.5zM1369 341q0 54 -10 90.5t-27.5 58.5t-41.5 31.5t-51 9.5t-50.5 -9.5t-40 -31.5t-26 -58.5t-9.5 -90.5q0 -53 9.5 -88t26 -56.5 t40 -30.5t50.5 -9t51 9t41.5 30.5t27.5 56.5t10 88zM2325 341q0 -81 -28 -147t-75 -113.5t-109 -73t-130 -25.5q-74 0 -136 25.5t-107 73t-70.5 113.5t-25.5 147q0 84 25.5 151.5t70.5 115t107 73t136 25.5t137 -25.5t108.5 -73t71 -115t25.5 -151.5zM2113 341 q0 54 -10 90.5t-27.5 58.5t-41 31.5t-51.5 9.5q-27 0 -50.5 -9.5t-40 -31.5t-26 -58.5t-9.5 -90.5q0 -53 9.5 -88t26 -56.5t40 -30.5t50.5 -9q28 0 51.5 9t41 30.5t27.5 56.5t10 88z" />
<glyph unicode="&#x2039;" horiz-adv-x="589" d="M86 523v35l259 399l90 -41q35 -17 40.5 -45t-11.5 -60l-131 -226q-15 -26 -34 -44q16 -15 34 -44l131 -227q17 -32 11.5 -60t-40.5 -44l-90 -42z" />
<glyph unicode="&#x203a;" horiz-adv-x="590" d="M504 558v-35l-259 -399l-91 42q-35 16 -40.5 44t12.5 60l130 227q15 26 34 44q-19 18 -34 44l-130 226q-18 32 -12.5 60t40.5 45l91 41z" />
<glyph unicode="&#x2044;" horiz-adv-x="280" d="M-157 77q-29 -45 -61.5 -61t-75.5 -16h-117l840 1362q27 42 61 65.5t82 23.5h118z" />
<glyph unicode="&#x205f;" horiz-adv-x="481" />
<glyph unicode="&#x20ac;" d="M27 938h128q24 120 74.5 217.5t123 166.5t164 106t197.5 37q141 0 241.5 -54.5t166.5 -146.5l-98 -104q-11 -12 -23 -21.5t-34 -9.5t-39.5 16t-41.5 35.5t-61 35.5t-99 16q-107 0 -181.5 -74t-105.5 -220h483v-83q0 -24 -20.5 -45.5t-55.5 -21.5h-426q-1 -15 -1 -30.5 v-31.5v-42h407v-83q0 -24 -20.5 -45.5t-54.5 -21.5h-317q27 -159 100 -237t180 -78q45 0 77.5 9t56 22t39.5 28.5t29.5 28.5t26 22t28.5 9q13 0 21.5 -3.5t18.5 -14.5l120 -108q-69 -110 -179 -168t-253 -58q-118 0 -211.5 39.5t-162.5 111.5t-113 173t-63 224h-122v150h109 q-1 11 -1 21v21q0 16 0.5 31t1.5 31h-110v150z" />
<glyph unicode="&#x2122;" horiz-adv-x="1518" d="M984 1185q8 -20 15.5 -38.5t13.5 -37.5q12 38 32 76l118 238q14 19 26 23.5t35 4.5h163v-608h-166v280l13 105l-141 -287q-20 -40 -65 -40h-27q-21 0 -38 10t-26 30l-137 283l11 -101v-280h-166v608h164q24 0 35 -4.5t26 -23.5zM583 1451v-153h-158v-455h-189v455h-157 v153h504z" />
<glyph unicode="&#x2202;" horiz-adv-x="1172" d="M292 1334q42 31 83 55t86.5 40.5t97.5 25.5t114 9q94 0 174 -38t138.5 -110t91 -175.5t32.5 -233.5q0 -210 -38 -380t-115 -290.5t-193 -186t-272 -65.5q-93 0 -172 30t-136 86.5t-89.5 136.5t-32.5 179q0 117 40.5 217.5t111 174.5t166 116t206.5 42q95 0 162 -31.5 t114 -89.5v59q0 87 -16.5 152t-46.5 108t-71.5 64.5t-91.5 21.5q-36 0 -68.5 -10t-61 -22t-52 -22t-40.5 -10q-14 0 -29 8.5t-31 34.5zM523 194q48 0 94 20t86 65t71 118t49 178q-9 36 -25 69.5t-41 58.5t-60 40t-83 15q-69 0 -119.5 -25t-83.5 -69.5t-49 -106.5t-16 -136 q0 -109 46.5 -168t130.5 -59z" />
<glyph unicode="&#x2206;" horiz-adv-x="1504" d="M62 84q0 38 8.5 81t26.5 88l505 1198h307l498 -1194q36 -86 36 -173v-84h-1381v84zM369 233h738l-300 762q-15 38 -32 90.5t-32 112.5q-15 -62 -31.5 -113.5t-32.5 -91.5z" />
<glyph unicode="&#x220f;" horiz-adv-x="1422" d="M1352 1451v-227h-160v-1557h-284v1557h-394v-1557h-284v1557h-160v227h1282z" />
<glyph unicode="&#x2211;" horiz-adv-x="1367" d="M70 1451h1212v-227h-789l492 -625v-79l-492 -626h789v-227h-1212v94q0 20 7 42t22 39l581 721l-581 713q-15 18 -22 39.5t-7 41.5v94z" />
<glyph unicode="&#x221a;" horiz-adv-x="1238" d="M694 0h-232l-234 634h-98q-21 0 -39.5 6t-33 18.5t-23 33.5t-8.5 51v86h360q30 0 50.5 -14t27.5 -36l82 -274q14 -45 23.5 -89.5t15.5 -91.5q12 72 34 147l367 1183q7 21 27 35.5t47 14.5h182z" />
<glyph unicode="&#x221e;" horiz-adv-x="1459" d="M1040 224q-55 0 -100 14t-83 38t-69 56.5t-58 69.5q-27 -37 -58.5 -69.5t-69.5 -56.5t-83 -38t-100 -14q-68 0 -129 27t-107.5 76t-73.5 116.5t-27 148.5t27 148t73.5 116t107.5 76t129 27q55 0 100 -14t83 -38.5t69.5 -57t58.5 -68.5q27 36 58 68.5t69 57t83 38.5 t100 14q68 0 129 -27t107.5 -76t73.5 -116t27 -148t-27 -148.5t-73.5 -116.5t-107.5 -76t-129 -27zM431 442q28 0 52 11.5t46 31.5t42 47t40 59q-20 32 -40 59.5t-42 47.5t-46 31.5t-52 11.5q-26 0 -50 -8t-42.5 -26t-29.5 -46.5t-11 -68.5q0 -41 11 -69.5t29.5 -46.5 t42.5 -26t50 -8zM1029 442q26 0 50 8t42 26t29 46.5t11 69.5q0 40 -11 68.5t-29 46.5t-42 26t-50 8q-29 0 -53 -11.5t-46 -31.5t-42 -47.5t-39 -59.5q19 -32 39 -59t42 -47t46 -31.5t53 -11.5z" />
<glyph unicode="&#x222b;" horiz-adv-x="998" d="M433 1233q13 104 47.5 180t87.5 125.5t122 73.5t152 24q37 0 79.5 -8t80.5 -28l-14 -113q-2 -14 -5.5 -24.5t-12.5 -17.5t-24 -10.5t-39 -3.5q-57 0 -95.5 -10.5t-62.5 -33.5t-36 -59t-18 -87l-128 -1177q-13 -105 -47.5 -181t-87.5 -125.5t-122.5 -73t-151.5 -23.5 q-37 0 -79.5 7.5t-80.5 27.5l14 114q2 14 5.5 24.5t12.5 17t24 10t39 3.5q57 0 95.5 11t62.5 34t36 59t18 86z" />
<glyph unicode="&#x2248;" d="M792 910q33 0 63.5 7.5t55 18t42 21.5t24.5 19l32 -173q-40 -52 -104 -75t-131 -23q-53 0 -106 15t-104 33.5t-98.5 33.5t-90.5 15q-33 0 -64.5 -7.5t-57 -18.5t-43 -22.5t-24.5 -20.5l-38 165q40 57 106 82.5t139 25.5q53 0 106 -15t104 -33t98.5 -33t90.5 -15zM792 547 q33 0 63.5 7.5t55 18t42 21.5t24.5 19l32 -172q-40 -52 -104 -75t-131 -23q-53 0 -106 15t-104 33t-98.5 33t-90.5 15q-33 0 -64.5 -7.5t-57 -18t-43 -22.5t-24.5 -21l-38 166q40 57 106 82.5t139 25.5q53 0 106 -15t104 -33.5t98.5 -33.5t90.5 -15z" />
<glyph unicode="&#x2260;" d="M132 952h507l109 213h196l-109 -213h193v-201h-296l-81 -158h377v-201h-480l-117 -230h-197l118 230h-220v201h323l81 158h-404v201z" />
<glyph unicode="&#x2264;" d="M168 857l801 380v-185q0 -22 -12 -41.5t-47 -33.5l-315 -139q-58 -22 -122 -35q34 -8 64 -16.5t58 -19.5l314 -142q35 -14 47.5 -34t12.5 -41v-185l-801 383v109zM168 281h801v-201h-801v201z" />
<glyph unicode="&#x2265;" d="M992 857v-109l-801 -383v185q0 21 12.5 41t47.5 34l314 142q27 11 57.5 19.5t64.5 16.5q-64 13 -122 35l-315 139q-35 14 -47 33.5t-12 41.5v185zM992 80h-801v201h801v-201z" />
<glyph unicode="&#x25ca;" d="M72 726l412 808h192l412 -808l-412 -808h-192zM341 726l177 -387q22 -46 37 -91t25 -91q11 45 25.5 90t37.5 90l181 389l-187 400q-39 80 -57 164q-9 -42 -22 -82t-32 -79z" />
<glyph unicode="&#x25fc;" horiz-adv-x="1030" d="M0 1030h1030v-1030h-1030v1030z" />
<glyph unicode="&#xf8ff;" horiz-adv-x="1578" d="M636 1489q-85 -57 -150.5 -148.5t-113.5 -201.5t-80.5 -232t-51.5 -241.5t-27.5 -229.5t-8.5 -195t11 -144.5t30.5 -104.5t45.5 -79t57 -68l-12 -12q-59 55 -106 113t-80.5 127.5t-51.5 155.5t-18 198q0 154 35 308.5t104 296t172.5 262.5t240.5 207zM1080 785h-174v-342 q0 -38 25.5 -60t78.5 -22q9 0 25 0.5t33 3.5l20 -214q-50 -20 -107 -31t-119 -11q-96 0 -160 23t-103 68t-55 111t-16 152v300l-100 46v218l120 12l100 244h258v-252h174v-246zM942 -155q85 58 150.5 148.5t113.5 200t80 231.5t52 241t28 228t8 195t-11 146.5t-30.5 105.5 t-45.5 79.5t-57 68.5l12 12q59 -56 106.5 -114t80.5 -128t51 -156t18 -196q0 -154 -35 -308.5t-104 -296t-172.5 -262.5t-240.5 -207z" />
<glyph horiz-adv-x="800" d="M260 1864q21 0 36.5 -1t28 -5.5t23.5 -13t23 -23.5l213 -271h-200q-16 0 -28 0.5t-22 3t-19.5 8t-20.5 14.5l-322 288h288z" />
<glyph horiz-adv-x="800" d="M855 1864l-323 -286q-11 -9 -21 -14.5t-20.5 -8.5t-23 -4t-27.5 -1h-200l200 271q11 15 21.5 23.5t23 13t28.5 5.5t37 1h305z" />
<glyph horiz-adv-x="800" d="M772 1550h-200q-16 0 -39.5 6t-48.5 35l-68 94l-16 23l-16 -23l-68 -94q-25 -29 -48.5 -35t-39.5 -6h-191l242 276h250z" />
<glyph horiz-adv-x="800" d="M524 1713q22 0 38 8.5t26 22t15 29.5t5 31h167q0 -52 -14 -100t-41.5 -85t-68 -59.5t-93.5 -22.5t-91.5 15.5t-69 34t-56 34t-52.5 15.5q-22 0 -37.5 -9t-25 -23t-14.5 -30t-5 -31h-169q0 52 14.5 100.5t42 86t68 60t93.5 22.5t92 -15.5t69 -34t55.5 -34t51.5 -15.5z" />
<glyph horiz-adv-x="800" d="M320 1667q0 -29 -11.5 -54.5t-32 -44t-47.5 -29.5t-57 -11q-28 0 -53 11t-44.5 29.5t-31 44t-11.5 54.5t11.5 55.5t31 46t44.5 31t53 11.5q30 0 57 -11.5t47.5 -31t32 -46t11.5 -55.5zM768 1667q0 -29 -11.5 -54.5t-31 -44t-45.5 -29.5t-56 -11t-56 11t-45.5 29.5t-31 44 t-11.5 54.5t11.5 55.5t31 46t45.5 31t56 11.5t56 -11.5t45.5 -31t31 -46t11.5 -55.5z" />
<glyph horiz-adv-x="800" d="M91 1719h618v-155h-618v155z" />
<glyph horiz-adv-x="800" d="M184 1710q0 44 17.5 80.5t47 62.5t68 40t80.5 14q44 0 84 -14t70 -40t47.5 -62.5t17.5 -80.5q0 -43 -17.5 -78.5t-47.5 -60.5t-70 -39t-84 -14q-42 0 -80.5 14t-68 39t-47 60.5t-17.5 78.5zM315 1710q0 -38 22 -61.5t64 -23.5q38 0 61 23.5t23 61.5q0 40 -23 63.5 t-61 23.5q-42 0 -64 -23.5t-22 -63.5z" />
<glyph horiz-adv-x="800" d="M400 1296q36 0 59.5 7.5t37 25.5t19 47.5t5.5 74.5h163q29 0 42.5 -24t13.5 -51q0 -52 -24.5 -93.5t-69.5 -70.5t-107.5 -44.5t-138.5 -15.5t-138.5 15.5t-107.5 44.5t-69.5 70.5t-24.5 93.5q0 27 13.5 51t42.5 24h163q0 -45 5.5 -74.5t19 -47.5t37 -25.5t59.5 -7.5z" />
<glyph horiz-adv-x="800" d="M400 1668q36 0 59.5 6.5t37 23.5t19 45.5t5.5 73.5h163q29 0 42.5 -24t13.5 -51q0 -52 -24.5 -91t-69.5 -65.5t-107.5 -39.5t-138.5 -13t-138.5 13t-107.5 39.5t-69.5 65.5t-24.5 91q0 27 13.5 51t42.5 24h163q0 -45 5.5 -73.5t19 -45.5t37 -23.5t59.5 -6.5z" />
<glyph horiz-adv-x="800" d="M441 1467q43 0 65 -14t36 -42l122 -244h-112q-32 0 -52.5 7.5t-37.5 30.5l-200 262h179zM96 1467q21 0 36.5 -4t26.5 -11t20.5 -17.5t18.5 -23.5l177 -244h-130q-32 0 -51 8.5t-39 29.5l-256 262h197z" />
<glyph horiz-adv-x="800" d="M435 1826q43 0 70.5 -15t43.5 -41l134 -220h-130q-31 0 -49.5 10t-40.5 29l-206 237h178zM54 1826q44 0 72.5 -15.5t49.5 -40.5l182 -220h-148q-31 0 -53.5 9.5t-45.5 29.5l-262 237h205z" />
<glyph horiz-adv-x="800" d="M852 1381q0 -16 -2 -26.5t-5 -22.5l-68 -214q-5 -16 -16.5 -24t-23.5 -8t-23 8t-16 24l-40 131h-178l-41 -131q-5 -16 -16.5 -24t-23.5 -8t-23 8t-16 24l-40 131h-181l-41 -131q-5 -16 -16.5 -24t-24 -8t-23.5 8t-16 24l-63 213q-2 11 -4.5 22.5t-2.5 27.5h904z" />
<glyph horiz-adv-x="800" d="M372 1294q0 -30 -12 -56t-32.5 -45.5t-48 -30.5t-58.5 -11q-29 0 -55 11t-46 30.5t-32 45.5t-12 56t12 57t32 47.5t46 32t55 11.5q31 0 58.5 -11.5t48 -32t32.5 -47.5t12 -57zM724 1294q0 -30 -11.5 -56t-32 -45.5t-47.5 -30.5t-58 -11q-30 0 -57 11t-47 30.5t-31.5 45.5 t-11.5 56t11.5 57t31.5 47.5t47 32t57 11.5q31 0 58 -11.5t47.5 -32t32 -47.5t11.5 -57z" />
<glyph horiz-adv-x="144" d="M0 0z" />
</font>
</defs>
</svg>
