<?xml version="1.0" standalone="no"?>
<!DOCTYPE svg PUBLIC "-//W3C//DTD SVG 1.1//EN" "http://www.w3.org/Graphics/SVG/1.1/DTD/svg11.dtd" >
<svg>
<metadata>
Created by FontForge 20090914 at Thu Nov 10 10:31:52 2016
 By www-data
2005 Hans Reichel, published by FontShop International for the FontFont library.
</metadata>
<defs>
<font id="DaxlineCyrSC-Regular" horiz-adv-x="632" >
  <font-face 
    font-family="DaxlineCyrSC-Regular"
    font-weight="400"
    font-stretch="normal"
    units-per-em="2048"
    panose-1="2 0 5 3 0 0 0 0 0 0"
    ascent="1638"
    descent="-410"
    x-height="1104"
    cap-height="1483"
    bbox="-657 -462.997 2521 1966"
    underline-thickness="126"
    underline-position="-281"
    unicode-range="U+0020-U+22C5"
  />
<missing-glyph horiz-adv-x="271" 
 />
    <glyph glyph-name=".notdef" horiz-adv-x="271" 
 />
    <glyph glyph-name=".null" horiz-adv-x="0" 
 />
    <glyph glyph-name=".null" horiz-adv-x="0" 
 />
    <glyph glyph-name="space" unicode=" " horiz-adv-x="555" 
 />
    <glyph glyph-name="exclam" unicode="!" horiz-adv-x="563" 
d="M381 1483l-25 -1006h-149l-25 1006h199zM399 104c0 -33.333 -11.167 -61.333 -33.5 -84s-49.833 -34 -82.5 -34c-33.333 0 -61.5 11.5 -84.5 34.5s-34.5 50.833 -34.5 83.5c0 33.333 11.667 61.5 35 84.5s51.333 34.5 84 34.5s60.167 -11.5 82.5 -34.5
s33.5 -51.167 33.5 -84.5z" />
    <glyph glyph-name="quotedbl" unicode="&#x22;" horiz-adv-x="907" 
d="M748 1454l-31 -614h-107l-32 614c20 28.667 48.667 43 86 43c36 0 64 -14.333 84 -43zM330 1454l-33 -614h-107l-30 614c20 28.667 48 43 84 43c37.333 0 66 -14.333 86 -43z" />
    <glyph glyph-name="numbersign" unicode="#" horiz-adv-x="1296" 
d="M1135 696h-213l-37 -276h198v-101h-213l-47 -319h-114l45 319h-287l-45 -319h-117l47 319h-198v101h213l36 276h-196v101h211l43 307h117l-43 -307h286l43 307h115l-43 -307h199v-101zM807 696h-287l-39 -276h287z" />
    <glyph glyph-name="dollar" unicode="$" horiz-adv-x="1044" 
d="M893 297c0 -90.667 -30.8389 -163.003 -92.5059 -217.003s-146.167 -86 -253.5 -96l6 -242h-141l22 238c-53.333 3.33301 -107.166 11.833 -161.499 25.5s-98.833 30.167 -133.5 49.5l58 129c29.333 -18.667 71 -34.5 125 -47.5s102.333 -19.5 145 -19.5
c76 0 137 15.333 183 46s69 75.334 69 134.001c0 26.667 -5.5 50.334 -16.5 71.001s-28.333 39 -52 55s-45.667 29 -66 39s-48.5 22 -84.5 36c-25.333 9.33301 -44 16.5 -56 21.5l-53 22.5c-23.333 10 -41.166 18.333 -53.499 25s-28 15.834 -47 27.501
s-33.667 22.667 -44 33s-21.833 23 -34.5 38s-22.167 30.167 -28.5 45.5s-11.833 32.833 -16.5 52.5s-7 40.167 -7 61.5c0 86.667 29.5 156.167 88.5 208.5s138.5 82.5 238.5 90.5l-6 228h140l-21 -230c95.333 -8.66699 178 -33 248 -73l-55 -119
c-28.667 17.333 -65.667 32.166 -111 44.499s-87 18.5 -125 18.5c-69.333 0 -124.166 -14 -164.499 -42s-60.5 -69.333 -60.5 -124c0 -16 2.5 -31.167 7.5 -45.5s11 -26.833 18 -37.5s17.5 -21.334 31.5 -32.001s26.333 -19.334 37 -26.001s26.334 -14.667 47.001 -24
s36.834 -16.166 48.501 -20.499l53.5 -20.5c38.667 -14.667 70.5 -27.667 95.5 -39s53.167 -26.666 84.5 -45.999s55.833 -39.166 73.5 -59.499s32.834 -46 45.501 -77s19 -65.167 19 -102.5z" />
    <glyph glyph-name="percent" unicode="%" horiz-adv-x="1722" 
d="M1583 326c0 -107.333 -24.667 -192.335 -74 -255.002s-117.333 -94 -204 -94s-154.834 31.333 -204.501 94s-74.5 147.667 -74.5 255c0 106.667 24.833 191.334 74.5 254.001s117.834 94 204.501 94s154.667 -31.167 204 -93.5s74 -147.166 74 -254.499zM1126 1092
l-419 -1112l-113 32l420 1112zM696 777.998c0 -107.333 -24.667 -192.17 -74 -254.503s-117.333 -93.5 -204 -93.5s-154.834 31.333 -204.501 94s-74.5 147.334 -74.5 254.001s24.833 191.334 74.5 254.001s117.834 94 204.501 94s154.667 -31.167 204 -93.5
s74 -147.166 74 -254.499zM1450 325.994c0 79.333 -12.167 140 -36.5 182s-60.5 63 -108.5 63s-84.667 -21 -110 -63s-38 -102.667 -38 -182s12.667 -140.166 38 -182.499s62 -63.5 110 -63.5c47.333 0 83.333 21.167 108 63.5s37 103.166 37 182.499zM563 779.994
c0 79.333 -12.333 140.166 -37 182.499s-60.667 63.5 -108 63.5c-48 0 -84.667 -21.167 -110 -63.5s-38 -103.166 -38 -182.499s12.667 -140.5 38 -183.5s62 -64.5 110 -64.5c47.333 0 83.333 21.333 108 64s37 104 37 184z" />
    <glyph glyph-name="ampersand" unicode="&#x26;" horiz-adv-x="1200" 
d="M1124 625l-193.999 -32.999v-537c-42.667 -22 -99.834 -40.5 -171.501 -55.5s-140.834 -22.5 -207.501 -22.5c-139.333 0 -248.333 25.667 -327 77s-118 127.666 -118 228.999c0 77.333 24.333 141.666 73 192.999s111.334 88 188.001 110v2
c-68 18 -120.167 49.333 -156.5 94s-54.5 97.334 -54.5 158.001c0 90.667 33.667 161 101 211s154.333 75 261 75c107.333 0 200.333 -25.667 279 -77l-52 -107c-27.333 18 -60.166 32.833 -98.499 44.5s-75.5 17.5 -111.5 17.5c-66 0 -118 -15.167 -156 -45.5
s-57 -73.5 -57 -129.5c0 -52.667 19.167 -95.5 57.5 -128.5s87.166 -49.5 146.499 -49.5c32 0 72.333 3.66699 121 11l459 73zM766.001 131.001l0.000976562 435.998l-225 -35c-86.667 -13.333 -152.5 -40.166 -197.5 -80.499s-67.5 -93.166 -67.5 -158.499
c0 -132.667 94.333 -199 283 -199c37.333 0 75.666 3.33301 114.999 10s70 15.667 92 27z" />
    <glyph glyph-name="quotesingle" unicode="'" horiz-adv-x="489" 
d="M330 1454l-33 -614h-107l-30 614c20 28.667 48 43 84 43c37.333 0 66 -14.333 86 -43z" />
    <glyph glyph-name="parenleft" unicode="(" horiz-adv-x="761" 
d="M684 -365l-129 -76.999c-63.333 76 -119 151.667 -167 227s-91.667 156.5 -131 243.5s-69.5 179.333 -90.5 277s-31.5 198.5 -31.5 302.5c0 136.667 19.167 269.667 57.5 399s87 244.166 146 344.499s131.167 202.166 216.5 305.499l129 -78
c-243.333 -315.333 -365 -639 -365 -971c0 -333.333 121.667 -657.666 365 -972.999z" />
    <glyph glyph-name="parenright" unicode=")" horiz-adv-x="761" 
d="M627 608c0 -104 -10.5 -204.836 -31.5 -302.503s-51.167 -190 -90.5 -277s-83 -168.167 -131 -243.5s-103.667 -151 -167 -227l-129 77c242.667 314.667 364 639 364 973c0 332.667 -121.333 656.334 -364 971.001l129 78c85.333 -103.333 157.5 -205.166 216.5 -305.499
s107.667 -215.166 146 -344.499s57.5 -262.333 57.5 -399z" />
    <glyph glyph-name="asterisk" unicode="*" horiz-adv-x="1210" 
d="M1087 1260c0 -20 -4.66895 -37.333 -14.002 -52l-371 -98l240 -295c-2 -24.667 -12.833 -46.5 -32.5 -65.5s-41.5 -28.5 -65.5 -28.5c-14 0 -23 1.33301 -27 4l-203 315l-200 -315c-4 -2.66699 -13 -4 -27 -4c-24 0 -45.833 9.5 -65.5 28.5s-30.5 40.833 -32.5 65.5
l239 295l-370 98c-10 16 -15 33.333 -15 52c0 19.333 5.33301 37.166 16 53.499s25.334 28.5 44.001 36.5l354 -138l-20 383c18.667 23.333 44.334 35 77.001 35c33.333 0 59.333 -11.667 78 -35l-18 -383l352 138c18.667 -8 33.5 -20.167 44.5 -36.5
s16.5 -34.166 16.5 -53.499z" />
    <glyph glyph-name="plus" unicode="+" horiz-adv-x="1157" 
d="M1012 596h-359v-369h-149v369h-359v139h359v369h149v-369h359v-139z" />
    <glyph glyph-name="comma" unicode="," horiz-adv-x="516" 
d="M393 162l-250 -508h-125l177 508c29.333 40.667 67.333 61 114 61c48.667 0 76.667 -20.333 84 -61z" />
    <glyph glyph-name="hyphen" unicode="-" horiz-adv-x="841" 
d="M698 590h-555v151h555v-151z" />
    <glyph glyph-name="period" unicode="." horiz-adv-x="516" 
d="M377 104c0 -32.667 -11.5 -60.5 -34.5 -83.5s-51.167 -34.5 -84.5 -34.5s-61.5 11.5 -84.5 34.5s-34.5 50.833 -34.5 83.5c0 33.333 11.5 61.5 34.5 84.5s51.167 34.5 84.5 34.5s61.5 -11.5 84.5 -34.5s34.5 -51.167 34.5 -84.5z" />
    <glyph glyph-name="slash" unicode="/" horiz-adv-x="942" 
d="M858 1583l-690 -1984l-160 51l690 1984z" />
    <glyph glyph-name="zero" unicode="0" horiz-adv-x="1206" 
d="M1083 553c0 -110 -17.501 -207.667 -52.501 -293s-89.333 -153.833 -163 -205.5s-162.167 -77.5 -265.5 -77.5s-191.666 25.833 -264.999 77.5s-127.333 120.167 -162 205.5s-52 183 -52 293c0 82 10.167 157.5 30.5 226.5s50 129.5 89 181.5s89.167 92.5 150.5 121.5
s131 43.5 209 43.5s147.833 -14.667 209.5 -44s112 -69.833 151 -121.5s68.833 -112 89.5 -181s31 -144.5 31 -226.5zM908.999 555c0 132 -25.833 237 -77.5 315s-128.167 117 -229.5 117c-100.667 0 -176.667 -39 -228 -117s-77 -183 -77 -315
c0 -132.667 25.667 -238.167 77 -316.5s127.333 -117.5 228 -117.5c101.333 0 177.833 39.333 229.5 118s77.5 184 77.5 316z" />
    <glyph glyph-name="one" unicode="1" horiz-adv-x="1206" 
d="M836 0h-172v897c-40.667 -28 -99 -55.333 -175 -82s-150.333 -47 -223 -61l-28 137c88 16 177.167 44.5 267.5 85.5s154.5 83.5 192.5 127.5h138v-1104z" />
    <glyph glyph-name="two" unicode="2" horiz-adv-x="1206" 
d="M1006 0h-869.001l516 545c43.333 45.333 76.666 86.333 99.999 123s35 74 35 112c0 62 -21 111 -63 147s-104.667 54 -188 54c-101.333 0 -199.666 -22.667 -294.999 -68l-56 136c48.667 22.667 106.667 41.167 174 55.5s133 21.5 197 21.5
c134.667 0 236.334 -30.167 305.001 -90.5s103 -139.833 103 -238.5c0 -99.333 -57.333 -204 -172 -314l-351 -338h564v-145z" />
    <glyph glyph-name="three" unicode="3" horiz-adv-x="1206" 
d="M999 76c0 -126 -46.332 -228.172 -138.999 -306.505s-214.667 -117.5 -366 -117.5c-62.667 0 -127 6.83301 -193 20.5s-123.333 32.167 -172 55.5l57 135c40 -18.667 86.667 -34 140 -46s104.333 -18 153 -18c104 0 187.667 24.833 251 74.5s95 117.834 95 204.501
c0 94 -37.667 165.333 -113 214s-174 73 -296 73h-37v129c112.667 8 206 36.833 280 86.5s111 112.167 111 187.5c0 68.667 -23.167 121.334 -69.5 158.001s-111.833 55 -196.5 55c-46 0 -94.667 -6.33301 -146 -19s-97.666 -29 -138.999 -49l-55 136
c48 23.333 104.5 42 169.5 56s127.833 21 188.5 21c133.333 0 236.666 -30.833 309.999 -92.5s110 -146.167 110 -253.5c0 -77.333 -28 -145 -84 -203s-120.667 -98.667 -194 -122v-4c34 -8.66699 66 -19.167 96 -31.5s60 -29.166 90 -50.499s55.667 -45.166 77 -71.499
s38.666 -58.666 51.999 -96.999s20 -79.833 20 -124.5z" />
    <glyph glyph-name="four" unicode="4" horiz-adv-x="1206" 
d="M1104 0h-154v-326h-159v326h-685v129l654 975h190v-977h154v-127zM799 946h-3.99902c-30.667 -58.667 -64.334 -116 -101.001 -172l-432 -647h533v625z" />
    <glyph glyph-name="five" unicode="5" horiz-adv-x="1206" 
d="M1018 92c0 -136.667 -47.498 -244.168 -142.498 -322.501s-216.833 -117.5 -365.5 -117.5c-128 0 -248 25.333 -360 76l55 135c34.667 -17.333 80.5 -32.333 137.5 -45s110.833 -19 161.5 -19c101.333 0 183.333 26.333 246 79s94 122.667 94 210
c0 96.667 -33.333 172.334 -100 227.001s-170.667 82 -312 82c-55.333 0 -122.333 -5.33301 -201 -16l78 723h672v-146h-524l-49 -434c21.333 2.66699 47.666 4 78.999 4c173.333 0 305.166 -38.333 395.499 -115s135.5 -183.667 135.5 -321z" />
    <glyph glyph-name="six" unicode="6" horiz-adv-x="1206" 
d="M1085 426c0 -60 -11.3369 -117.166 -34.0039 -171.499s-54.167 -102 -94.5 -143s-90.333 -73.667 -150 -98s-124.5 -36.5 -194.5 -36.5c-80 0 -151.5 14.5 -214.5 43.5s-114 68.5 -153 118.5s-68.667 107.333 -89 172s-30.5 134.334 -30.5 209.001
c0 104 18.333 205 55 303s88.334 188 155.001 270s149.834 154.167 249.501 216.5s209.834 109.166 330.501 140.499l48 -141c-154.667 -40.667 -284 -105.334 -388 -194.001s-179.667 -192 -227 -310c76.667 32.667 161.334 49 254.001 49c148 0 265.5 -37.667 352.5 -113
s130.5 -180.333 130.5 -315zM917.996 426.001c0 97.333 -30.499 171.832 -91.499 223.499s-142.5 77.5 -244.5 77.5c-42.667 0 -90.334 -5 -143.001 -15s-96.667 -22.667 -132 -38c-10.667 -45.333 -16 -96.666 -16 -153.999c0 -117.333 28 -213.5 84 -288.5
s135 -112.5 237 -112.5c90 0 163.5 30.333 220.5 91s85.5 132.667 85.5 216z" />
    <glyph glyph-name="seven" unicode="7" horiz-adv-x="1206" 
d="M1073 1104l-635 -1430h-190l588 1284h-695v146h932z" />
    <glyph glyph-name="eight" unicode="8" horiz-adv-x="1206" 
d="M1083 348c0 -110 -44.333 -199.33 -133 -267.997s-204.667 -103 -348 -103c-142.667 0 -258.167 34.333 -346.5 103s-132.5 158 -132.5 268c0 42 6.16699 81 18.5 117s28 66.833 47 92.5s44 50.5 75 74.5s60.833 44 89.5 60s63.334 33.667 104.001 53
c-45.333 22 -83.833 43.167 -115.5 63.5s-61.834 44.666 -90.501 72.999s-50.334 60.666 -65.001 96.999s-22 76.833 -22 121.5c0 104 39.5 188.667 118.5 254s185.5 98 319.5 98s240.833 -32.667 320.5 -98s119.5 -150 119.5 -254c0 -36 -5.16699 -69.5 -15.5 -100.5
s-23.833 -58.167 -40.5 -81.5s-38 -45.833 -64 -67.5s-52.333 -40.334 -79 -56.001s-57.667 -32.167 -93 -49.5c40.667 -19.333 75.334 -37 104.001 -53s58.5 -36 89.5 -60s55.833 -48.833 74.5 -74.5s34.167 -56.5 46.5 -92.5s18.5 -75 18.5 -117zM881 1098
c0 68.667 -24.1699 123.333 -72.5029 164s-117.166 61 -206.499 61s-157.666 -20.167 -204.999 -60.5s-71 -95.166 -71 -164.499c0 -29.333 5.16699 -56.666 15.5 -81.999s22.666 -46.833 36.999 -64.5s35 -35.667 62 -54s51.5 -33.333 73.5 -45s51.333 -26.167 88 -43.5
c37.333 18 66.833 32.667 88.5 44s46.334 26.333 74.001 45s48.834 36.667 63.501 54s27.167 38.666 37.5 63.999s15.5 52.666 15.5 81.999zM917.997 354.002c0 34.667 -6.16992 66.501 -18.5029 95.501s-26.666 53.167 -42.999 72.5s-40.833 39.666 -73.5 60.999
s-60.167 37.5 -82.5 48.5l-98.5 46.5l-70.5 -33c-17 -8 -38.167 -19 -63.5 -33s-45.166 -26.5 -59.499 -37.5s-30.166 -24.833 -47.499 -41.5s-30.5 -33.5 -39.5 -50.5s-16.667 -36.5 -23 -58.5s-9.5 -45.333 -9.5 -70c0 -72.667 28.5 -131.334 85.5 -176.001
s132.833 -67 227.5 -67s171 22.333 229 67s87 103.334 87 176.001z" />
    <glyph glyph-name="nine" unicode="9" horiz-adv-x="1206" 
d="M1081 584c0 -104 -18.3301 -205.003 -54.9971 -303.003s-88.334 -188 -155.001 -270s-149.834 -154.167 -249.501 -216.5s-209.834 -109.166 -330.501 -140.499l-47 141c154.667 40.667 283.834 105.334 387.501 194.001s179.167 192 226.5 310
c-76.667 -32.667 -161.334 -49 -254.001 -49c-148 0 -265.5 37.667 -352.5 113s-130.5 180.333 -130.5 315c0 60 11.333 117.167 34 171.5s54.167 101.833 94.5 142.5s90.333 73.167 150 97.5s124.5 36.5 194.5 36.5c80 0 151.5 -14.333 214.5 -43s114 -68.167 153 -118.5
s68.667 -107.666 89 -171.999s30.5 -133.833 30.5 -208.5zM915.003 585.997c0 117.333 -28 213.168 -84 287.501s-135 111.5 -237 111.5c-90 0 -163.333 -30 -220 -90s-85 -131.667 -85 -215c0 -98 30.5 -173 91.5 -225s142.5 -78 244.5 -78c42 0 89.167 5.33301 141.5 16
s96.5 23.667 132.5 39c10.667 45.333 16 96.666 16 153.999z" />
    <glyph glyph-name="colon" unicode=":" horiz-adv-x="573" 
d="M406 766c0 -33.333 -11.667 -61.5 -35 -84.5s-51.333 -34.5 -84 -34.5s-60.667 11.5 -84 34.5s-35 51.167 -35 84.5s11.667 61.5 35 84.5s51.333 34.5 84 34.5s60.667 -11.5 84 -34.5s35 -51.167 35 -84.5zM406 104c0 -32.667 -11.5 -60.5 -34.5 -83.5
s-51.167 -34.5 -84.5 -34.5s-61.5 11.5 -84.5 34.5s-34.5 50.833 -34.5 83.5c0 33.333 11.667 61.5 35 84.5s51.333 34.5 84 34.5s60.667 -11.5 84 -34.5s35 -51.167 35 -84.5z" />
    <glyph glyph-name="semicolon" unicode=";" horiz-adv-x="573" 
d="M410 766c0 -33.333 -11.667 -61.5 -35 -84.5s-51.333 -34.5 -84 -34.5s-60.667 11.5 -84 34.5s-35 51.167 -35 84.5s11.667 61.5 35 84.5s51.333 34.5 84 34.5s60.667 -11.5 84 -34.5s35 -51.167 35 -84.5zM414 162l-249.999 -508h-125l176 508
c29.333 40.667 67.666 61 114.999 61c48.667 0 76.667 -20.333 84 -61z" />
    <glyph glyph-name="less" unicode="&#x3c;" horiz-adv-x="1157" 
d="M1012 184l-867 422v119l867 422v-162l-703 -319l703 -320v-162z" />
    <glyph glyph-name="equal" unicode="=" horiz-adv-x="1157" 
d="M1012 805h-867v137h867v-137zM1012 389h-867v137h867v-137z" />
    <glyph glyph-name="greater" unicode="&#x3e;" horiz-adv-x="1157" 
d="M1012 606l-867 -422v162l703 320l-703 319v162l867 -422v-119z" />
    <glyph glyph-name="question" unicode="?" horiz-adv-x="978" 
d="M879 1133c0 -48.667 -10.834 -95.1631 -32.501 -139.496s-50.167 -82.5 -85.5 -114.5s-72.5 -59.167 -111.5 -81.5s-78.833 -40.5 -119.5 -54.5l-10 -266h-143l-15 357c44.667 11.333 86.334 25.666 125.001 42.999s74.167 37.833 106.5 61.5s57.833 51.667 76.5 84
s28 66.833 28 103.5c0 74 -24.167 131.5 -72.5 172.5s-120.166 61.5 -215.499 61.5c-48.667 0 -99.334 -6.33301 -152.001 -19s-97.667 -28.334 -135 -47.001l-60 133c45.333 23.333 100.833 42.166 166.5 56.499s131.167 21.5 196.5 21.5c144 0 255.5 -32.833 334.5 -98.5
s118.5 -156.834 118.5 -273.501zM566.999 104.004c0 -33.333 -11.5 -61.333 -34.5 -84s-50.833 -34 -83.5 -34c-33.333 0 -61.5 11.5 -84.5 34.5s-34.5 50.833 -34.5 83.5c0 33.333 11.667 61.5 35 84.5s51.333 34.5 84 34.5s60.5 -11.5 83.5 -34.5s34.5 -51.167 34.5 -84.5
z" />
    <glyph glyph-name="at" unicode="@" horiz-adv-x="1679" 
d="M1556 512c0 -90 -14.6699 -169.834 -44.0029 -239.501s-70 -125.667 -122 -168s-111.667 -74.166 -179 -95.499s-141.333 -32 -222 -32c-152.667 0 -271 36.667 -355 110s-126 178 -126 314c0 125.333 34.167 224.666 102.5 297.999s159.833 110 274.5 110
c103.333 0 187.333 -27.333 252 -82v-625c192 48 288 184.667 288 410c0 70 -10.833 134.833 -32.5 194.5s-54 112.834 -97 159.501s-100 83.334 -171 110.001s-152.833 40 -245.5 40c-96.667 0 -184.667 -16.167 -264 -48.5s-145.166 -76.833 -197.499 -133.5
s-92.666 -123.334 -120.999 -200.001s-42.5 -159.667 -42.5 -249s14.833 -171.666 44.5 -246.999s73.334 -141 131.001 -197s132 -99.833 223 -131.5s194.5 -47.5 310.5 -47.5c94.667 0 183.5 12.667 266.5 38s154.5 58.666 214.5 99.999l65 -97
c-142 -100.667 -324 -151 -546 -151c-133.333 0 -253.5 18.5 -360.5 55.5s-195.167 88.5 -264.5 154.5s-122.5 143.333 -159.5 232s-55.5 185.667 -55.5 291c0 138 29.667 262.667 89 374s147 200.333 263 267s250.667 100 404 100c111.333 0 210.833 -16.5 298.5 -49.5
s158.667 -78 213 -135s95.5 -122 123.5 -195s42 -151.167 42 -234.5zM1008 85.999l0.000976562 585.999c-32 20 -73.667 30 -125 30c-76 0 -135.667 -26.333 -179 -79s-65 -126.667 -65 -222c0 -105.333 29.667 -184.166 89 -236.499s143.666 -78.5 252.999 -78.5h27z" />
    <glyph glyph-name="A" unicode="A" horiz-adv-x="1343" 
d="M1303 0h-185l-151 432h-590l-150 -432h-186l530 1483h203zM926 567l-207 600c-8 24 -15.833 50.167 -23.5 78.5s-13.167 50.5 -16.5 66.5l-5 25h-4c-12 -60 -27 -116.667 -45 -170l-207 -600h508z" />
    <glyph glyph-name="B" unicode="B" horiz-adv-x="1243" 
d="M1137 393c0 -130 -49.002 -231.834 -147.002 -305.501s-235.333 -110.5 -412 -110.5c-72 0 -147 7.5 -225 22.5s-140.333 33.5 -187 55.5v1372c50.667 23.333 112 42.166 184 56.499s145.667 21.5 221 21.5c164.667 0 291.5 -35.167 380.5 -105.5
s133.5 -164.166 133.5 -281.499c0 -90 -25.5 -165.5 -76.5 -226.5s-109.167 -99.5 -174.5 -115.5v-4c34.667 -8.66699 68.334 -22 101.001 -40s64.834 -41.667 96.501 -71s57.167 -67.166 76.5 -113.499s29 -97.833 29 -154.5zM914.998 1106c0 81.333 -29.833 145 -89.5 191
s-144.5 69 -254.5 69c-92.667 0 -171.667 -12.333 -237 -37v-502h217c70 0 123.5 4.33301 160.5 13s72.167 25 105.5 49c30 22 53.833 52.333 71.5 91s26.5 80.667 26.5 126zM960.998 400.999c0 112.667 -46 194.001 -138 244.001c-36 19.333 -72.5 32.666 -109.5 39.999
s-88.5 11 -154.5 11h-225v-542c70 -24.667 151.333 -37 244 -37c123.333 0 218 24.333 284 73s99 119 99 211z" />
    <glyph glyph-name="C" unicode="C" horiz-adv-x="1105" 
d="M1014 55c-35.333 -23.333 -80.999 -42.166 -136.999 -56.499s-116.333 -21.5 -181 -21.5c-80 0 -154.5 15.667 -223.5 47s-130.167 77.666 -183.5 138.999s-95.333 141.5 -126 240.5s-46 211.5 -46 337.5s15.333 238.5 46 337.5s72.667 179.167 126 240.5
s114.5 107.666 183.5 138.999s143.5 47 223.5 47c64 0 124.167 -7.16699 180.5 -21.5s102.166 -33.166 137.499 -56.499l-60 -143c-26 18.667 -60.5 34.334 -103.5 47.001s-88.833 19 -137.5 19c-58 0 -111.667 -12.333 -161 -37s-93 -61.167 -131 -109.5
s-67.833 -111.833 -89.5 -190.5s-32.5 -168.667 -32.5 -270s10.833 -191.333 32.5 -270s51.5 -142.334 89.5 -191.001s81.667 -85.334 131 -110.001s103 -37 161 -37c48.667 0 94.5 6.33301 137.5 19s77.5 28.334 103.5 47.001z" />
    <glyph glyph-name="D" unicode="D" horiz-adv-x="1302" 
d="M1188 741c0 -124.667 -16 -236.001 -48 -334.001s-76.667 -178 -134 -240s-124.833 -109.167 -202.5 -141.5s-163.167 -48.5 -256.5 -48.5c-76 0 -148.667 7.33301 -218 22s-125 33.334 -167 56.001v1372c104 52 232.333 78 385 78c93.333 0 178.833 -16.167 256.5 -48.5
s145.167 -79.5 202.5 -141.5s102 -142 134 -240s48 -209.333 48 -334zM1010 740.999c0 104 -11.833 195.834 -35.5 275.501s-56.334 143.667 -98.001 192s-89.5 84.666 -143.5 108.999s-113.333 36.5 -178 36.5c-95.333 0 -167 -11.667 -215 -35v-1155
c45.333 -23.333 117 -35 215 -35c64.667 0 124 12 178 36s101.833 60.167 143.5 108.5s74.334 112.333 98.001 192s35.5 171.5 35.5 275.5z" />
    <glyph glyph-name="E" unicode="E" horiz-adv-x="1032" 
d="M930 0h-768v1483h768v-152h-594v-495h547v-148h-547v-536h594v-152z" />
    <glyph glyph-name="F" unicode="F" horiz-adv-x="1003" 
d="M915 1331h-579v-495h532v-148h-532v-688h-174v1483h753v-152z" />
    <glyph glyph-name="G" unicode="G" horiz-adv-x="1318" 
d="M1165 55c-39.333 -22.667 -93.6689 -41.333 -163.002 -56s-146 -22 -230 -22c-93.333 0 -179.666 16.833 -258.999 50.5s-148.5 82 -207.5 145s-105.167 143.167 -138.5 240.5s-50 206.666 -50 327.999s17 230.833 51 328.5s81 178 141 241s130.167 111.167 210.5 144.5
s167.833 50 262.5 50c72 0 140.333 -7.16699 205 -21.5s116 -33.166 154 -56.499l-62 -139c-72 42.667 -169.667 64 -293 64c-67.333 0 -130.166 -12.333 -188.499 -37s-110.5 -61.167 -156.5 -109.5s-82.167 -112.333 -108.5 -192s-39.5 -170.5 -39.5 -272.5
s12.833 -193 38.5 -273s60.667 -144.167 105 -192.5s94 -84.833 149 -109.5s113.833 -37 176.5 -37c50 0 96.833 3.66699 140.5 11s74.5 16 92.5 26v532h-315v140h485v-783z" />
    <glyph glyph-name="H" unicode="H" horiz-adv-x="1308" 
d="M1147 0h-178v688h-629v-688h-178v1483h178v-647h629v647h178v-1483z" />
    <glyph glyph-name="I" unicode="I" horiz-adv-x="507" 
d="M342 0h-176v1483h176v-1483z" />
    <glyph glyph-name="J" unicode="J" horiz-adv-x="507" 
d="M342 164c0 -345.333 -159.667 -549.667 -479 -613v158c202 60 303 211.667 303 455v1319h176v-1319z" />
    <glyph glyph-name="K" unicode="K" horiz-adv-x="1179" 
d="M1149 0h-209l-594 760h-4v-760h-176v1483h176v-686h4l582 686h207l-600 -705z" />
    <glyph glyph-name="L" unicode="L" horiz-adv-x="970" 
d="M899 0h-733v1483h176v-1331h557v-152z" />
    <glyph glyph-name="M" unicode="M" horiz-adv-x="1777" 
d="M1669 0h-165.998l-139 1112l-18 180h-5c-13.333 -64 -28.333 -124 -45 -180l-342 -1112h-131l-342 1112c-7.33301 24.667 -14.833 52 -22.5 82s-13.167 54 -16.5 72l-6 26h-4c-4 -64 -9.33301 -124 -16 -180l-142 -1112h-165l196 1483h211l328 -1065
c7.33301 -24 14.666 -50.833 21.999 -80.5s12.666 -53.5 15.999 -71.5l5 -26h4c12 64 26.333 123.333 43 178l328 1065h211z" />
    <glyph glyph-name="N" unicode="N" horiz-adv-x="1409" 
d="M1247 0h-166l-678 1087c-14 22.667 -28.167 47.5 -42.5 74.5s-25.166 48.5 -32.499 64.5l-11 23h-4c2.66699 -62.667 4 -122.667 4 -180v-1069h-155v1483h174l668 -1067c14 -22 28.167 -46.5 42.5 -73.5s25.166 -48.5 32.499 -64.5l11 -24h4
c-1.33301 65.333 -2 127.333 -2 186v1043h155v-1483z" />
    <glyph glyph-name="O" unicode="O" horiz-adv-x="1368" 
d="M1251 741c0 -106.667 -12 -205.834 -36 -297.501s-59 -172.5 -105 -242.5s-105.5 -124.833 -178.5 -164.5s-155.5 -59.5 -247.5 -59.5s-174.5 19.833 -247.5 59.5s-132.5 94.5 -178.5 164.5s-81 150.833 -105 242.5s-36 190.834 -36 297.501s12 205.834 36 297.501
s59 172.5 105 242.5s105.5 124.833 178.5 164.5s155.5 59.5 247.5 59.5s174.5 -19.833 247.5 -59.5s132.5 -94.5 178.5 -164.5s81 -150.833 105 -242.5s36 -190.834 36 -297.501zM1075 741c0 116 -14.333 219 -43 309s-73 162.167 -133 216.5s-131.667 81.5 -215 81.5
s-155 -27.167 -215 -81.5s-104.333 -126.5 -133 -216.5s-43 -193 -43 -309s14.333 -219 43 -309s73 -162 133 -216s131.667 -81 215 -81s155 27 215 81s104.333 126 133 216s43 193 43 309z" />
    <glyph glyph-name="P" unicode="P" horiz-adv-x="1165" 
d="M1079 1053c0 -134 -49.834 -242 -149.501 -324s-239.5 -123 -419.5 -123c-73.333 0 -130.666 4 -171.999 12v-618h-176v1427c108 52 237.667 78 389 78c168 0 298 -40.333 390 -121s138 -191 138 -331zM904.999 1055c0 101.333 -30.166 178.167 -90.499 230.5
s-147.5 78.5 -261.5 78.5c-86 0 -157.667 -11.667 -215 -35v-569c41.333 -8 96.666 -12 165.999 -12c128 0 226.833 27.5 296.5 82.5s104.5 129.833 104.5 224.5z" />
    <glyph glyph-name="Q" unicode="Q" horiz-adv-x="1368" 
d="M1253 -276l-135 -107.001l-260 389c-56.667 -19.333 -114.667 -29 -174 -29c-92 0 -174.5 19.833 -247.5 59.5s-132.5 94.5 -178.5 164.5s-81 150.833 -105 242.5s-36 190.834 -36 297.501s12 205.834 36 297.501s59 172.5 105 242.5s105.5 124.833 178.5 164.5
s155.5 59.5 247.5 59.5s174.5 -19.833 247.5 -59.5s132.5 -94.5 178.5 -164.5s81 -150.833 105 -242.5s36 -190.834 36 -297.501c0 -144.667 -21.833 -275 -65.5 -391s-107.167 -206 -190.5 -270zM1075 740.999c0 116 -14.333 219 -43 309s-73 162.167 -133 216.5
s-131.667 81.5 -215 81.5s-155 -27.167 -215 -81.5s-104.333 -126.5 -133 -216.5s-43 -193 -43 -309s14.333 -219 43 -309s73 -162 133 -216s131.667 -81 215 -81s155 27 215 81s104.333 126 133 216s43 193 43 309z" />
    <glyph glyph-name="R" unicode="R" horiz-adv-x="1234" 
d="M1161 0h-188l-232 483c-26 56 -59.333 98 -100 126s-91.334 42 -152.001 42h-151v-651h-172v1425c52.667 24.667 114.334 44.167 185.001 58.5s142 21.5 214 21.5c168 0 297 -38.167 387 -114.5s135 -178.166 135 -305.499c0 -112 -30.667 -199.167 -92 -261.5
s-144.666 -102.833 -249.999 -121.5v-4c67.333 -32.667 125.666 -99.334 174.999 -200.001zM915 1079c0 89.333 -29.168 159.5 -87.501 210.5s-145.166 76.5 -260.499 76.5c-96 0 -172.333 -12.333 -229 -37v-545h194c124.667 0 219.667 23.167 285 69.5s98 121.5 98 225.5z
" />
    <glyph glyph-name="S" unicode="S" horiz-adv-x="1062" 
d="M950 403c0 -129.333 -45.334 -232.67 -136.001 -310.003s-210.334 -116 -359.001 -116c-66.667 0 -132 7.16699 -196 21.5s-117.667 33.166 -161 56.499l62 154c37.333 -20 81.833 -37 133.5 -51s103.5 -21 155.5 -21c96 0 173.5 22.833 232.5 68.5
s88.5 108.834 88.5 189.501c0 36 -7 68.5 -21 97.5s-35.167 54.833 -63.5 77.5s-56 41.5 -83 56.5s-61.167 31.5 -102.5 49.5c-37.333 16.667 -68.5 31.334 -93.5 44.001s-54.167 28.834 -87.5 48.501s-60.833 40 -82.5 61s-42.667 45.167 -63 72.5s-35.5 58 -45.5 92
s-15 70.667 -15 110c0 122.667 41.833 220.167 125.5 292.5s193.834 108.5 330.501 108.5c64.667 0 125.5 -7.33301 182.5 -22s104.167 -33.334 141.5 -56.001l-59 -145c-32.667 18.667 -72.5 35 -119.5 49s-93.5 21 -139.5 21c-84.667 0 -153.167 -21.333 -205.5 -64
s-78.5 -101.334 -78.5 -176.001c0 -28 5.83301 -54.667 17.5 -80s25.667 -47.166 42 -65.499s38.5 -36.666 66.5 -54.999s53.333 -33.166 76 -44.499s51 -24.666 85 -39.999c30.667 -13.333 56 -25 76 -35s44.333 -23.167 73 -39.5s52.334 -32 71.001 -47
s38.5 -33.5 59.5 -55.5s37.667 -44.667 50 -68s22.5 -50.333 30.5 -81s12 -63.334 12 -98.001z" />
    <glyph glyph-name="T" unicode="T" horiz-adv-x="1048" 
d="M981 1331h-369v-1331h-176v1331h-368v152h913v-152z" />
    <glyph glyph-name="U" unicode="U" horiz-adv-x="1286" 
d="M1124 424c0 -136 -45.502 -244 -136.502 -324s-205.833 -120 -344.5 -120s-253.5 40 -344.5 120s-136.5 188 -136.5 324v1059h178v-1059c0 -88.667 28.833 -159.334 86.5 -212.001s129.834 -79 216.501 -79s158.834 26.333 216.501 79s86.5 123.334 86.5 212.001v1059
h178v-1059z" />
    <glyph glyph-name="V" unicode="V" horiz-adv-x="1255" 
d="M1200 1483l-479 -1483h-189l-477 1483h191l329 -1098c8 -26.667 16.167 -56.834 24.5 -90.501s14.5 -60.5 18.5 -80.5l7 -30h4c14.667 74 31 141 49 201l332 1098h190z" />
    <glyph glyph-name="W" unicode="W" horiz-adv-x="1859" 
d="M1782 1483l-374.999 -1483h-178l-260 1049c-6.66699 28 -13.167 58.667 -19.5 92s-10.833 59.666 -13.5 78.999l-4 29h-4c-9.33301 -70.667 -21.666 -137.334 -36.999 -200.001l-260 -1049h-178l-375 1483h178l254 -1080c6 -26 12 -55.333 18 -88s10.667 -59 14 -79
l5 -29h4c11.333 72 23.666 137.333 36.999 196l264 1080h156l264 -1080c6 -26 12 -55.333 18 -88s10.667 -59 14 -79l5 -29h4c11.333 72 23.666 137.333 36.999 196l254 1080h178z" />
    <glyph glyph-name="X" unicode="X" horiz-adv-x="1198" 
d="M1149 0h-195l-352 625h-4l-354 -625h-195l447 768l-416 715h192l326 -574h4l324 574h194l-415 -715z" />
    <glyph glyph-name="Y" unicode="Y" horiz-adv-x="1214" 
d="M1167 1483l-471 -889v-594h-178v594l-471 889h193l366 -711h4l365 711h192z" />
    <glyph glyph-name="Z" unicode="Z" horiz-adv-x="1056" 
d="M963 0h-904l648 1331h-609v152h860l-647 -1331h652v-152z" />
    <glyph glyph-name="bracketleft" unicode="[" horiz-adv-x="745" 
d="M637 -399h-457v2007h457v-138h-289v-1732h289v-137z" />
    <glyph glyph-name="backslash" unicode="\" horiz-adv-x="942" 
d="M934 -350l-160 -51l-690 1984l162 51z" />
    <glyph glyph-name="bracketright" unicode="]" horiz-adv-x="745" 
d="M565 -399h-456v137h288v1732h-288v138h456v-2007z" />
    <glyph glyph-name="asciicircum" unicode="^" horiz-adv-x="1193" 
d="M1018 971l-109 -90l-311 379l-313 -379l-109 90l336 405c20 27.333 48.667 41 86 41c36 0 64 -13.667 84 -41z" />
    <glyph glyph-name="underscore" unicode="_" horiz-adv-x="1200" 
d="M1208 -408h-1216v127h1216v-127z" />
    <glyph glyph-name="grave" unicode="`" 
d="M426 1235h-127l-205 266c4 14.667 13 26.167 27 34.5s30.333 12.5 49 12.5c40 0 74.667 -15.667 104 -47z" />
    <glyph glyph-name="a" unicode="a" horiz-adv-x="1134" 
d="M1094 0h-183l-114 311h-459l-115 -311h-182l430 1104h193zM762 420l-160 435.999c-6 16.667 -11.667 35.334 -17 56.001s-9.33301 37 -12 49l-4 18h-4c-8.66699 -44 -19.667 -85 -33 -123l-159 -436h389z" />
    <glyph glyph-name="b" unicode="b" horiz-adv-x="1087" 
d="M981 291c0 -101.333 -39.668 -179 -119.001 -233s-194 -81 -344 -81c-138.667 0 -260 26 -364 78v994c102.667 51.333 222 77 358 77c134.667 0 240.334 -26.5 317.001 -79.5s115 -124.833 115 -215.5c0 -66 -21.333 -122.333 -64 -169s-91.667 -76.334 -147 -89.001v-4
c29.333 -6 57.5 -15.667 84.5 -29s53.333 -30.666 79 -51.999s46.167 -49 61.5 -83s23 -72 23 -114zM779.999 821c0 58.667 -23.334 105.168 -70.001 139.501s-112.667 51.5 -198 51.5c-78 0 -143.667 -12.333 -197 -37v-357h191c52.667 0 93.334 3 122.001 9
s55 17.667 79 35c22.667 15.333 40.5 37.166 53.5 65.499s19.5 59.5 19.5 93.5zM812.998 299.001c0 80 -34.665 138 -103.998 174c-26.667 14 -53.5 23.667 -80.5 29s-65.833 8 -116.5 8h-197v-379c23.333 -11.333 54.166 -20.666 92.499 -27.999s75.166 -11 110.499 -11
c97.333 0 170.833 17.667 220.5 53s74.5 86.666 74.5 153.999z" />
    <glyph glyph-name="c" unicode="c" horiz-adv-x="942" 
d="M856 53c-73.333 -50.667 -164.667 -75.999 -274 -75.999c-48.667 0 -95.334 6.83301 -140.001 20.5s-87.334 35.667 -128.001 66s-76.167 67.333 -106.5 111s-54.333 98 -72 163s-26.5 136.833 -26.5 215.5c0 97.333 13.333 183.833 40 259.5s62.834 135.667 108.501 180
s95.834 77.666 150.501 99.999s112.667 33.5 174 33.5c109.333 0 200.666 -25 273.999 -75l-59 -125c-53.333 38 -119 57 -197 57c-41.333 0 -80.166 -8 -116.499 -24s-69.666 -40.333 -99.999 -73s-54.333 -77.5 -72 -134.5s-26.5 -122.5 -26.5 -196.5s9 -139.667 27 -197
s42.167 -102.5 72.5 -135.5s63.666 -57.833 99.999 -74.5s74.833 -25 115.5 -25c76 0 141.667 19.667 197 59z" />
    <glyph glyph-name="d" unicode="d" horiz-adv-x="1118" 
d="M1012 553c0 -178 -45.833 -318 -137.5 -420s-219.167 -153 -382.5 -153c-127.333 0 -241.333 25.667 -342 77v992c100.667 51.333 214.667 77 342 77c163.333 0 290.833 -51 382.5 -153s137.5 -242 137.5 -420zM842 553c0 143.333 -30.501 253.168 -91.501 329.501
s-146.5 114.5 -256.5 114.5c-66 0 -123.333 -11.333 -172 -34v-822c46 -21.333 103.333 -32 172 -32c110.667 0 196.334 38.167 257.001 114.5s91 186.166 91 329.499z" />
    <glyph glyph-name="e" unicode="e" horiz-adv-x="880" 
d="M784 0h-634v1104h634v-125h-467v-354h433v-123h-433v-377h467v-125z" />
    <glyph glyph-name="f" unicode="f" horiz-adv-x="860" 
d="M776 979h-459v-354h424v-123h-424v-502h-167v1104h626v-125z" />
    <glyph glyph-name="g" unicode="g" horiz-adv-x="1128" 
d="M985 55c-84.667 -52 -197.332 -78 -337.999 -78c-168.667 0 -300.5 51.833 -395.5 155.5s-142.5 243.167 -142.5 418.5c0 174 47.833 313.333 143.5 418s228.5 157 398.5 157c127.333 0 232 -25.667 314 -77l-52 -115c-69.333 43.333 -152.333 65 -249 65
c-122.667 0 -217.5 -40.333 -284.5 -121s-100.5 -189 -100.5 -325c0 -134 32.333 -242.667 97 -326s153 -125 265 -125c77.333 0 138.666 11.667 183.999 35v371h-245v117h405v-570z" />
    <glyph glyph-name="h" unicode="h" horiz-adv-x="1122" 
d="M973 0h-170v502h-484v-502h-169v1104h169v-479h484v479h170v-1104z" />
    <glyph glyph-name="i" unicode="i" horiz-adv-x="487" 
d="M330 0h-170v1104h170v-1104z" />
    <glyph glyph-name="j" unicode="j" horiz-adv-x="487" 
d="M330 117c0 -71.333 -7.83301 -136.5 -23.5 -195.5s-36.667 -109.167 -63 -150.5s-58.5 -77.5 -96.5 -108.5s-77.667 -55.5 -119 -73.5s-86 -32 -134 -42v146c78.667 26 142.667 73.833 192 143.5s74 163.167 74 280.5v987h170v-987z" />
    <glyph glyph-name="k" unicode="k" horiz-adv-x="1009" 
d="M983 0h-201l-456 559h-4v-559h-168v1104h168v-514h4l442 514h201l-463 -526z" />
    <glyph glyph-name="l" unicode="l" horiz-adv-x="823" 
d="M760 0h-606v1104h170v-965h436v-139z" />
    <glyph glyph-name="m" unicode="m" horiz-adv-x="1521" 
d="M1423 0l-160.998 -0.00195312l-101 807l-12 147h-4c-10.667 -54 -23.667 -103 -39 -147l-277 -807h-137l-276 807c-6.66699 19.333 -13.334 41.333 -20.001 66s-11.334 44.334 -14.001 59.001l-5 22h-4c-2 -52.667 -5.66699 -101.667 -11 -147l-102 -807h-162l156 1104
h207l264 -774c6 -18 11.833 -38.5 17.5 -61.5l13.5 -54.5l4 -21h4c10 50.667 21.667 96.334 35 137.001l262 774h209z" />
    <glyph glyph-name="n" unicode="n" horiz-adv-x="1191" 
d="M1042 0h-172l-503 788c-10.667 16 -21.667 34.667 -33 56s-20 38.666 -26 51.999l-9 19h-4c2.66699 -50 4 -97 4 -141v-774h-149v1104h180l495 -772c10.667 -16 21.667 -34.667 33 -56s20 -38.666 26 -51.999l9 -19h4c-2.66699 52.667 -4 101 -4 145v754h149v-1104z" />
    <glyph glyph-name="o" unicode="o" horiz-adv-x="1155" 
d="M1047 553c0 -82.667 -10.3271 -158.834 -30.9941 -228.501s-50.334 -130.334 -89.001 -182.001s-87.834 -92.167 -147.501 -121.5s-126.834 -44 -201.501 -44s-141.834 14.667 -201.501 44s-108.834 69.833 -147.501 121.5s-68.334 112.334 -89.001 182.001
s-31 145.834 -31 228.501c0 169.333 41.167 307.166 123.5 413.499s197.5 159.5 345.5 159.5s263.167 -53.167 345.5 -159.5s123.5 -244.166 123.5 -413.499zM877.006 555c0 131.333 -25.5 236.166 -76.5 314.499s-125.167 117.5 -222.5 117.5s-171.5 -39.167 -222.5 -117.5
s-76.5 -183.166 -76.5 -314.499c0 -132 25.5 -237.667 76.5 -317s125.167 -119 222.5 -119s171.5 39.667 222.5 119s76.5 185 76.5 317z" />
    <glyph glyph-name="p" unicode="p" horiz-adv-x="1017" 
d="M942 778c0 -104.667 -41.332 -188.5 -123.999 -251.5s-198.334 -94.5 -347.001 -94.5c-56 0 -107.333 4 -154 12v-444h-167v1049c46 23.333 100.5 42 163.5 56s125.167 21 186.5 21c140.667 0 249.5 -31 326.5 -93s115.5 -147 115.5 -255zM772.001 778
c0 72.667 -23.335 128.5 -70.002 167.5s-114 58.5 -202 58.5c-68.667 0 -129.667 -11.667 -183 -35v-406c36.667 -6.66699 85.334 -10 146.001 -10c100.667 0 177.334 20 230.001 60s79 95 79 165z" />
    <glyph glyph-name="q" unicode="q" horiz-adv-x="1155" 
d="M1047 553c0 -111.333 -17.9971 -210.335 -53.9971 -297.002s-88.333 -153.667 -157 -201l200 -276l-131 -103l-207 320c-39.333 -12.667 -79.333 -19 -120 -19c-74.667 0 -141.834 14.667 -201.501 44s-108.834 69.833 -147.501 121.5s-68.334 112.334 -89.001 182.001
s-31 145.834 -31 228.501c0 169.333 41.167 307.166 123.5 413.499s197.5 159.5 345.5 159.5s263.167 -53.167 345.5 -159.5s123.5 -244.166 123.5 -413.499zM877.003 554.998c0 131.333 -25.5 236.166 -76.5 314.499s-125.167 117.5 -222.5 117.5
s-171.5 -39.167 -222.5 -117.5s-76.5 -183.166 -76.5 -314.499c0 -132 25.5 -237.667 76.5 -317s125.167 -119 222.5 -119s171.5 39.667 222.5 119s76.5 185 76.5 317z" />
    <glyph glyph-name="r" unicode="r" horiz-adv-x="1081" 
d="M1012 0l-180.999 0.000976562l-155 334c-18.667 40 -44 71.833 -76 95.5s-69.667 35.5 -113 35.5h-168v-465h-165v1049c43.333 23.333 99.666 42 168.999 56s137 21 203 21c130.667 0 235 -28.833 313 -86.5s117 -137.167 117 -238.5
c0 -76.667 -24 -140.834 -72 -192.501s-108.667 -84.5 -182 -98.5v-4c59.333 -30 107.333 -82.667 144 -158zM791.001 797.001c0 67.333 -24.167 119.666 -72.5 156.999s-112.5 56 -192.5 56c-86 0 -155 -12.333 -207 -37v-395h191c96.667 0 167.667 19.833 213 59.5
s68 92.834 68 159.501z" />
    <glyph glyph-name="s" unicode="s" horiz-adv-x="927" 
d="M825 295c0 -96.667 -36.5039 -173.835 -109.504 -231.502s-173.5 -86.5 -301.5 -86.5c-57.333 0 -115.833 7.33301 -175.5 22s-110.5 33.334 -152.5 56.001l61 131c30.667 -18 71.834 -34 123.501 -48s98.834 -21 141.501 -21c70.667 0 127.5 16.167 170.5 48.5
s64.5 75.5 64.5 129.5c0 28 -5.16699 52.833 -15.5 74.5s-26.666 40.667 -48.999 57s-45 30 -68 41s-53.167 23.167 -90.5 36.5s-68.333 25.5 -93 36.5s-52 26 -82 45s-53.833 39 -71.5 60s-32.5 47.167 -44.5 78.5s-18 66.333 -18 105c0 88 32.5 159.5 97.5 214.5
s154.5 82.5 268.5 82.5c120 0 222.333 -25.667 307 -77l-59 -121c-27.333 18 -62.5 33.333 -105.5 46s-84.833 19 -125.5 19c-64.667 0 -115.667 -15.5 -153 -46.5s-56 -70.167 -56 -117.5c0 -28 4.83301 -52.5 14.5 -73.5s25.5 -39.333 47.5 -55s43.5 -28.5 64.5 -38.5
s49.833 -21.667 86.5 -35c29.333 -10.667 52.833 -19.667 70.5 -27s39.167 -17.166 64.5 -29.499s45.833 -24 61.5 -35s32.5 -25 50.5 -42s31.833 -34.667 41.5 -53s17.834 -40 24.501 -65s10 -51.833 10 -80.5z" />
    <glyph glyph-name="t" unicode="t" horiz-adv-x="917" 
d="M856 965h-311v-965h-170v965h-314v139h795v-139z" />
    <glyph glyph-name="u" unicode="u" horiz-adv-x="1126" 
d="M977 356c0 -114.667 -37.668 -206.5 -113.001 -275.5s-175.666 -103.5 -300.999 -103.5c-124.667 0 -224.667 34.5 -300 103.5s-113 160.833 -113 275.5v748h169v-750c0 -72.667 22.333 -130.334 67 -173.001s103.667 -64 177 -64s132.333 21.333 177 64
s67 100.334 67 173.001v750h170v-748z" />
    <glyph glyph-name="v" unicode="v" horiz-adv-x="1110" 
d="M1049 1104l-398.001 -1104h-192l-398 1104h189l256 -782c7.33301 -23.333 15 -49.166 23 -77.499s14 -50.833 18 -67.5l6 -25h4c14.667 62.667 30.334 119.334 47.001 170.001l256 782h189z" />
    <glyph glyph-name="w" unicode="w" horiz-adv-x="1630" 
d="M1552 1104l-319.001 -1104h-174l-211 770c-5.33301 20.667 -10.5 43.667 -15.5 69s-8.83301 45.666 -11.5 60.999l-4 22h-4c-8.66699 -54.667 -19 -105.334 -31 -152.001l-211 -770h-174l-319 1104h174l201 -780c5.33301 -22 10.5 -47 15.5 -75s8.83301 -50.333 11.5 -67
l3 -26h4c10 62.667 21.667 118.667 35 168l211 780h164l211 -780c6 -22 11.833 -47 17.5 -75s9.83398 -50.333 12.501 -67l5 -26h4c8.66699 62.667 19 118.667 31 168l200 780h174z" />
    <glyph glyph-name="x" unicode="x" horiz-adv-x="1060" 
d="M1014 0h-195l-287 455h-4l-286 -455h-195l379 573l-350 531h192l260 -416h4l261 416h192l-350 -531z" />
    <glyph glyph-name="y" unicode="y" horiz-adv-x="1058" 
d="M1018 1104l-404 -672v-432h-170v432l-403 672h195l290 -518h4l293 518h195z" />
    <glyph glyph-name="z" unicode="z" horiz-adv-x="948" 
d="M860 0h-794l532 965h-500v139h746l-531 -965h547v-139z" />
    <glyph glyph-name="braceleft" unicode="{" horiz-adv-x="749" 
d="M623 -399h-68c-106.667 0 -189 29.5 -247 88.5s-87 141.5 -87 247.5c0 59.333 6.16699 123.333 18.5 192s18.5 130 18.5 184c0 64 -15.5 115.5 -46.5 154.5s-72.833 60.5 -125.5 64.5v144c52.667 4 94.5 25.5 125.5 64.5s46.5 90.5 46.5 154.5
c0 54 -6.16699 115.333 -18.5 184s-18.5 133 -18.5 193c0 106 29 188.5 87 247.5s140.333 88.5 247 88.5h68v-138h-48c-59.333 0 -105.5 -17 -138.5 -51s-49.5 -83 -49.5 -147c0 -58.667 6.5 -122.667 19.5 -192s19.5 -131 19.5 -185c0 -76 -16 -138.333 -48 -187
s-76.667 -82.667 -134 -102v-4c57.333 -19.333 102 -53.333 134 -102s48 -111 48 -187c0 -54 -6.5 -115.5 -19.5 -184.5s-19.5 -132.833 -19.5 -191.5c0 -64 16.5 -113.167 49.5 -147.5s79.167 -51.5 138.5 -51.5h48v-137z" />
    <glyph glyph-name="bar" unicode="|" horiz-adv-x="491" 
d="M332 -440h-172v2048h172v-2048z" />
    <glyph glyph-name="braceright" unicode="}" horiz-adv-x="749" 
d="M664 532c-52.667 -4 -95.002 -25.5 -127.002 -64.5s-48 -90.5 -48 -154.5c0 -54 6.16699 -115.333 18.5 -184s18.5 -132.667 18.5 -192c0 -106 -28.833 -188.5 -86.5 -247.5s-139.834 -88.5 -246.501 -88.5h-66v137h47c58.667 0 104.334 17.167 137.001 51.5
s49 83.5 49 147.5c0 58.667 -6 122.5 -18 191.5s-18 130.5 -18 184.5c0 76 15.833 138.5 47.5 187.5s75.834 82.833 132.501 101.5v4c-56.667 18.667 -100.834 52.5 -132.501 101.5s-47.5 111.5 -47.5 187.5c0 54 6 115.667 18 185s18 133.333 18 192
c0 64 -16.167 113 -48.5 147s-78.166 51 -137.499 51h-47v138h66c106.667 0 188.834 -29.5 246.501 -88.5s86.5 -141.5 86.5 -247.5c0 -60 -6.16699 -124.333 -18.5 -193s-18.5 -130 -18.5 -184c0 -64 16 -115.5 48 -154.5s74.333 -60.5 127 -64.5v-144z" />
    <glyph glyph-name="asciitilde" unicode="~" horiz-adv-x="1193" 
d="M1032 807c-17.333 -60 -47.8301 -108.5 -91.4971 -145.5s-95.834 -55.5 -156.501 -55.5c-33.333 0 -67 6.5 -101 19.5s-62.667 27.333 -86 43s-50.166 30 -80.499 43s-59.166 19.5 -86.499 19.5c-40 0 -74.833 -11.5 -104.5 -34.5s-52.167 -53.833 -67.5 -92.5l-94 70
c16.667 60 47 108.333 91 145s96.333 55 157 55c33.333 0 67 -6.5 101 -19.5s62.667 -27.167 86 -42.5s50.166 -29.5 80.499 -42.5s59.166 -19.5 86.499 -19.5c39.333 0 73.666 11.5 102.999 34.5s51.666 53.833 66.999 92.5z" />
    <glyph glyph-name="uni00A0" unicode="&#xa0;" horiz-adv-x="555" 
 />
    <glyph glyph-name="sterling" unicode="&#xa3;" horiz-adv-x="1134" 
d="M973 0l-834 -0.00195312c156 137.333 234 276 234 416c0 32.667 -5.66699 72.334 -17 119.001h-180v110h150c-15.333 50 -23 97 -23 141c0 110.667 34.167 195 102.5 253s164.5 87 288.5 87c108 0 199.667 -25.667 275 -77l-58 -113c-59.333 40.667 -127.333 61 -204 61
c-77.333 0 -136.333 -18.333 -177 -55s-61 -90 -61 -160c0 -44 7.66699 -89.667 23 -137h307v-110h-283c8 -33.333 12 -73 12 -119c0 -50.667 -10.667 -100.667 -32 -150s-49.333 -93.666 -84 -132.999h561v-133z" />
    <glyph glyph-name="currency" unicode="&#xa4;" horiz-adv-x="1398" 
d="M1266 160l-115 -99l-203 218c-68.667 -57.333 -151.334 -86 -248.001 -86c-97.333 0 -180.333 28.667 -249 86l-201 -218l-115 99l211 229c-49.333 80 -74 171 -74 273c0 100 24.667 190 74 270l-211 231l115 99l201 -218c68.667 57.333 151.667 86 249 86
c96.667 0 179.334 -28.667 248.001 -86l203 218l115 -99l-211 -231c47.333 -76.667 71 -166.667 71 -270c0 -105.333 -23.667 -196.333 -71 -273zM975 662c0 97.333 -24.5 177.166 -73.5 239.499s-116.167 93.5 -201.5 93.5c-84.667 0 -151.5 -31.167 -200.5 -93.5
s-73.5 -142.166 -73.5 -239.499c0 -98 24.5 -178.167 73.5 -240.5s115.833 -93.5 200.5 -93.5s151.667 31.333 201 94s74 142.667 74 240z" />
    <glyph glyph-name="brokenbar" unicode="&#xa6;" horiz-adv-x="491" 
d="M332 788h-172v820h172v-820zM332 -440h-172v819h172v-819z" />
    <glyph glyph-name="section" unicode="&#xa7;" horiz-adv-x="1204" 
d="M1071 465c0 -71.333 -23.833 -137.164 -71.5 -197.497s-104.5 -109.833 -170.5 -148.5c83.333 -72.667 125 -158 125 -256c0 -96 -35.667 -174.333 -107 -235s-166.666 -91 -285.999 -91c-59.333 0 -120.333 7.5 -183 22.5s-112.334 33.5 -149.001 55.5l58 135
c28.667 -17.333 68.667 -32.833 120 -46.5s98.666 -20.5 141.999 -20.5c72.667 0 130 17 172 51s63 79.667 63 137c0 77.333 -43.667 143 -131 197l-299 188c-73.333 46 -128.5 97.167 -165.5 153.5s-55.5 121.166 -55.5 194.499c0 41.333 6.5 80.166 19.5 116.499
s31.333 68.833 55 97.5s48.334 53.667 74.001 75s54.834 42.333 87.501 63c-63.333 61.333 -95 134.666 -95 219.999c0 100 35.5 179.833 106.5 239.5s163.167 89.5 276.5 89.5c121.333 0 224.666 -26 309.999 -78l-56 -127c-67.333 42.667 -147 64 -239 64
c-69.333 0 -125 -17.167 -167 -51.5s-63 -81.5 -63 -141.5c0 -73.333 39 -134 117 -182l291 -182c74 -46.667 129.333 -97.5 166 -152.5s55 -118.167 55 -189.5zM911 457.002c0 52.667 -12.668 97.332 -38.001 133.999s-65 72.334 -119 107.001l-279 176
c-124 -70 -186 -158 -186 -264c0 -92.667 49.667 -169.667 149 -231l281 -176c54.667 30 100.334 67 137.001 111s55 91.667 55 143z" />
    <glyph glyph-name="dieresis" unicode="&#xa8;" horiz-adv-x="634" 
d="M606 1370c0 -25.333 -9.66699 -47.333 -29 -66s-42.333 -28 -69 -28s-49.667 9.33301 -69 28s-29 40.667 -29 66s9.66699 47.333 29 66s42.333 28 69 28s49.667 -9.33301 69 -28s29 -40.667 29 -66zM225 1370c0 -25.333 -9.66699 -47.333 -29 -66s-42.333 -28 -69 -28
s-49.667 9.33301 -69 28s-29 40.667 -29 66s9.66699 47.333 29 66s42.333 28 69 28s49.667 -9.33301 69 -28s29 -40.667 29 -66z" />
    <glyph glyph-name="copyright" unicode="&#xa9;" horiz-adv-x="1785" 
d="M1661 741c0 -104.667 -19.833 -204 -59.5 -298s-93.5 -175.167 -161.5 -243.5s-149.5 -122.5 -244.5 -162.5s-195.833 -60 -302.5 -60s-207.5 20 -302.5 60s-176.5 94.167 -244.5 162.5s-121.833 149.5 -161.5 243.5s-59.5 193.333 -59.5 298s19.833 204 59.5 298
s93.5 175.167 161.5 243.5s149.5 122.5 244.5 162.5s195.833 60 302.5 60s207.5 -20 302.5 -60s176.5 -94.167 244.5 -162.5s121.833 -149.5 161.5 -243.5s59.5 -193.333 59.5 -298zM1538 741c0 119.333 -28.167 229 -84.5 329s-134 179.167 -233 237.5
s-208.167 87.5 -327.5 87.5s-228.5 -29.167 -327.5 -87.5s-176.667 -137.5 -233 -237.5s-84.5 -209.667 -84.5 -329s28.167 -228.833 84.5 -328.5s134 -178.667 233 -237s208.167 -87.5 327.5 -87.5s228.5 29.167 327.5 87.5s176.667 137.333 233 237
s84.5 209.167 84.5 328.5zM1130 369c-59.333 -40 -131.666 -59.998 -216.999 -59.998c-53.333 0 -102.833 9.16699 -148.5 27.5s-86.334 45.166 -122.001 80.499s-63.667 81.5 -84 138.5s-30.5 121.167 -30.5 192.5s10.167 135.166 30.5 191.499s48.333 101.833 84 136.5
s76.334 61 122.001 79s95.167 27 148.5 27c87.333 0 159.666 -19.333 216.999 -58l-47 -92c-46.667 31.333 -100.334 47 -161.001 47c-75.333 0 -138.333 -27.333 -189 -82s-76 -137.667 -76 -249s25.333 -194.5 76 -249.5s113.667 -82.5 189 -82.5
c62.667 0 116.334 15 161.001 45z" />
    <glyph glyph-name="guillemotleft" unicode="&#xab;" horiz-adv-x="1202" 
d="M1055 211l-105 -82l-377 496l377 495l105 -82l-316 -413zM606 211l-106 -82l-375 496l375 495l106 -82l-315 -413z" />
    <glyph glyph-name="logicalnot" unicode="&#xac;" horiz-adv-x="1157" 
d="M1012 186h-150v410h-717v139h867v-549z" />
    <glyph glyph-name="uni00AD" unicode="&#xad;" horiz-adv-x="841" 
d="M698 590h-555v151h555v-151z" />
    <glyph glyph-name="registered" unicode="&#xae;" horiz-adv-x="1380" 
d="M1264 940c0 -104 -25.167 -199.671 -75.5 -287.004s-119.5 -156.166 -207.5 -206.499s-185 -75.5 -291 -75.5c-79.333 0 -154.5 14.833 -225.5 44.5s-131.833 69.834 -182.5 120.501s-90.834 111.167 -120.501 181.5s-44.5 144.5 -44.5 222.5s14.833 152.167 44.5 222.5
s69.834 130.833 120.501 181.5s111.5 90.834 182.5 120.501s146.167 44.5 225.5 44.5c106 0 203 -25.167 291 -75.5s157.167 -119.166 207.5 -206.499s75.5 -183 75.5 -287zM1163 939.996c0 133.333 -45.5 246.166 -136.5 338.499s-203.167 138.5 -336.5 138.5
s-245.5 -46.167 -336.5 -138.5s-136.5 -205.166 -136.5 -338.499s45.5 -246.166 136.5 -338.499s203.167 -138.5 336.5 -138.5s245.5 46.167 336.5 138.5s136.5 205.166 136.5 338.499zM958 628.996l-107.999 -0.000976562l-107 213c-10 20.667 -22.5 35.334 -37.5 44.001
s-35.167 13 -60.5 13h-61v-270h-99v610c54.667 24.667 117.667 37 189 37c78.667 0 139.667 -16.167 183 -48.5s65 -77.5 65 -135.5c0 -42.667 -13.333 -77.667 -40 -105s-61.334 -46.333 -104.001 -57v-4c26 -14.667 46.667 -36.667 62 -66zM823.001 1090
c0 70.667 -49 106 -147 106c-36 0 -66.667 -3.33301 -92 -10v-211h78c54 0 94.333 9.16699 121 27.5s40 47.5 40 87.5z" />
    <glyph glyph-name="macron" unicode="&#xaf;" 
d="M571 1294h-510v117h510v-117z" />
    <glyph glyph-name="degree" unicode="&#xb0;" horiz-adv-x="948" 
d="M834 1151c0 -97.333 -34.667 -180 -104 -248s-154.333 -102 -255 -102c-100 0 -184.667 33.833 -254 101.5s-104 150.5 -104 248.5s34.667 181.167 104 249.5s154 102.5 254 102.5s184.833 -34.167 254.5 -102.5s104.5 -151.5 104.5 -249.5zM702 1151
c0 62.667 -22.167 116.5 -66.5 161.5s-97.833 67.5 -160.5 67.5s-116.167 -22.5 -160.5 -67.5s-66.5 -98.833 -66.5 -161.5s22.167 -116.167 66.5 -160.5s97.833 -66.5 160.5 -66.5s116.167 22.167 160.5 66.5s66.5 97.833 66.5 160.5z" />
    <glyph glyph-name="plusminus" unicode="&#xb1;" horiz-adv-x="1157" 
d="M1012 684h-359v-352h-147v352h-361v131h361v352h147v-352h359v-131zM1012 0h-867v131h867v-131z" />
    <glyph glyph-name="twosuperior" unicode="&#xb2;" horiz-adv-x="753" 
d="M655 1024h-624.001l385 438c20 23.333 35.667 42.833 47 58.5s22 34.834 32 57.501s15 45 15 67c0 49.333 -16.167 88.5 -48.5 117.5s-78.833 43.5 -139.5 43.5c-68 0 -135.667 -14.333 -203 -43l-37 97c78 32.667 160 49 246 49c98.667 0 174.834 -23.333 228.501 -70
s80.5 -109.334 80.5 -188.001c0 -78 -41.667 -161.333 -125 -250l-256 -273h399v-104z" />
    <glyph glyph-name="threesuperior" unicode="&#xb3;" horiz-adv-x="753" 
d="M649 1270c0 -80 -29.999 -143.669 -89.999 -191.002s-141.333 -71 -244 -71c-94.667 0 -178.667 16.333 -252 49l41 96c60 -27.333 130.333 -41 211 -41c66.667 0 118.5 13.667 155.5 41s55.5 66.333 55.5 117c0 52 -24 92.667 -72 122s-113.333 44 -196 44h-31v90
c82.667 4.66699 147.5 21.334 194.5 50.001s70.5 64.334 70.5 107.001c0 82 -56.667 123 -170 123c-68.667 0 -134.334 -14.333 -197.001 -43l-43 97c78 32.667 161.333 49 250 49c89.333 0 158.666 -19.333 207.999 -58s74 -92.334 74 -161.001
c0 -43.333 -15.167 -81.5 -45.5 -114.5s-68.166 -58.5 -113.499 -76.5v-4c54 -16 99.833 -42.667 137.5 -80s56.5 -85.666 56.5 -144.999z" />
    <glyph glyph-name="acute" unicode="&#xb4;" 
d="M539 1501l-205 -266h-127l151 266c29.333 31.333 64.333 47 105 47c18.667 0 35 -4.16699 49 -12.5s23 -19.833 27 -34.5z" />
    <glyph glyph-name="paragraph" unicode="&#xb6;" horiz-adv-x="1202" 
d="M1036 -440l-133 0.000976562v1775c-64 27.333 -149.333 41 -256 41l-45 -2v-1814h-133v1104c-106 19.333 -190.167 64.166 -252.5 134.499s-93.5 161.833 -93.5 274.5c0 140 44 247 132 321s208.333 111 361 111c162 0 302 -26 420 -78v-1867z" />
    <glyph glyph-name="periodcentered" unicode="&#xb7;" horiz-adv-x="516" 
d="M377 666c0 -33.333 -11.5 -61.5 -34.5 -84.5s-51.167 -34.5 -84.5 -34.5s-61.5 11.5 -84.5 34.5s-34.5 51.167 -34.5 84.5c0 32.667 11.5 60.5 34.5 83.5s51.167 34.5 84.5 34.5s61.5 -11.5 84.5 -34.5s34.5 -50.833 34.5 -83.5z" />
    <glyph glyph-name="cedilla" unicode="&#xb8;" 
d="M553 -256c0 -54 -28.499 -94.832 -85.499 -122.499s-138.5 -41.5 -244.5 -41.5c-54.667 0 -106.334 2.66699 -155.001 8l45 84c36.667 -4 72 -6 106 -6c60.667 0 109 6.66699 145 20s54 32.666 54 57.999c0 22 -10.333 37.667 -31 47s-52.667 14 -96 14
c-32.667 0 -69.667 -2 -111 -6l41 80c39.333 4 74.333 6 105 6c151.333 0 227 -47 227 -141z" />
    <glyph glyph-name="onesuperior" unicode="&#xb9;" horiz-adv-x="753" 
d="M532 1024h-122v721c-27.333 -16.667 -65.333 -33.167 -114 -49.5s-96 -28.5 -142 -36.5l-23 98c59.333 10 117.833 27 175.5 51s101.5 52 131.5 84h94v-868z" />
    <glyph glyph-name="guillemotright" unicode="&#xbb;" horiz-adv-x="1202" 
d="M1077 625l-375 -496l-106 82l315 414l-315 413l106 82zM629 625l-375 -496l-107 82l316 414l-316 413l107 82z" />
    <glyph glyph-name="onequarter" unicode="&#xbc;" horiz-adv-x="1714" 
d="M1608 223h-101v-223h-112v223h-410v90l391 555h131v-555h101v-90zM1286 1454l-784 -1481l-99 56l785 1480zM449 614h-123v721c-27.333 -16.667 -65.333 -33.167 -114 -49.5s-96 -28.5 -142 -36.5l-23 99c59.333 10 117.833 27 175.5 51s101.5 52 131.5 84h95v-869z
M1403 760h-4c-14.667 -31.333 -31 -60 -49 -86l-252 -361h301v346z" />
    <glyph glyph-name="onehalf" unicode="&#xbd;" horiz-adv-x="1714" 
d="M1620 0l-627.001 0.000976562l387 438c20.667 24 36.667 43.5 48 58.5s22 34 32 57s15 45.5 15 67.5c0 49.333 -16.5 88.5 -49.5 117.5s-80.167 43.5 -141.5 43.5c-68 0 -135.667 -14.333 -203 -43l-37 97c78 32.667 160 49 246 49c98.667 0 174.834 -23.333 228.501 -70
s80.5 -109.334 80.5 -188.001s-41.333 -162 -124 -250l-256 -273h401v-104zM1235 1454l-784 -1481l-99 56l785 1480zM448.999 614.001h-123v721c-27.333 -16.667 -65.333 -33.167 -114 -49.5s-96 -28.5 -142 -36.5l-23 99c59.333 10 117.833 27 175.5 51s101.5 52 131.5 84
h95v-869z" />
    <glyph glyph-name="threequarters" unicode="&#xbe;" horiz-adv-x="1714" 
d="M1608 223h-101v-223h-112v223h-410v90l391 555h131v-555h101v-90zM1341 1454l-784 -1481l-98 56l786 1480zM1403 760h-4c-14.667 -31.333 -31 -60 -49 -86l-252 -361h301v346zM645 860c0 -80 -30.001 -143.667 -90.001 -191s-141.333 -71 -244 -71
c-94.667 0 -178.667 16.333 -252 49l41 96c60 -27.333 130.333 -41 211 -41c66.667 0 118.5 13.667 155.5 41s55.5 66.333 55.5 117c0 52 -24 92.667 -72 122s-113.333 44 -196 44h-31v90c82.667 4.66699 147.334 21.5 194.001 50.5s70 64.833 70 107.5
c0 82 -56.667 123 -170 123c-68 0 -133.333 -14.333 -196 -43l-43 96c78 32.667 161.333 49 250 49c89.333 0 158.666 -19.333 207.999 -58s74 -92.334 74 -161.001c0 -42.667 -15.167 -80.5 -45.5 -113.5s-68.166 -58.5 -113.499 -76.5v-5c54 -16 99.833 -42.667 137.5 -80
s56.5 -85.666 56.5 -144.999z" />
    <glyph glyph-name="multiply" unicode="&#xd7;" horiz-adv-x="1157" 
d="M1034 313l-100 -102l-354 354l-355 -354l-100 102l352 353l-352 352l100 102l355 -354l354 354l100 -102l-354 -352z" />
    <glyph glyph-name="divide" unicode="&#xf7;" horiz-adv-x="1157" 
d="M682 1004c0 -28.667 -9.83301 -53 -29.5 -73s-43.834 -30 -72.501 -30s-53 10 -73 30s-30 44.333 -30 73s10 52.834 30 72.501s44.333 29.5 73 29.5s52.834 -9.83301 72.501 -29.5s29.5 -43.834 29.5 -72.501zM1012 602h-867v127h867v-127zM682 328
c0 -28.667 -9.83301 -53 -29.5 -73s-43.834 -30 -72.501 -30s-53 10 -73 30s-30 44.333 -30 73s10 52.834 30 72.501s44.333 29.5 73 29.5s52.834 -9.83301 72.501 -29.5s29.5 -43.834 29.5 -72.501z" />
    <glyph glyph-name="florin" unicode="&#x192;" horiz-adv-x="983" 
d="M920 1098l-46 -119c-30 12 -58.667 18 -86 18c-51.333 0 -91.166 -13.667 -119.499 -41s-46.5 -69 -54.5 -125l-26 -184h225v-121h-242l-86 -594c-27.333 -188 -130.333 -282 -309 -282c-60 0 -112.667 9.33301 -158 28l48 125c30 -12 58.667 -18 86 -18
c51.333 0 90.833 13.333 118.5 40s45.5 68 53.5 124l84 577h-195v121h211l29 197c27.333 188 131.666 282 312.999 282c54.667 0 106 -9.33301 154 -28z" />
    <glyph glyph-name="afii57929" unicode="&#x2bc;" horiz-adv-x="165" 
d="M348 1561l-228.999 -482h-113l170 482c26.667 38 60 57 100 57c21.333 0 38.166 -5.5 50.499 -16.5s19.5 -24.5 21.5 -40.5z" />
    <glyph glyph-name="circumflex" unicode="&#x2c6;" 
d="M594 1288l-73.999 -63l-203 180l-204 -180l-74 63l205 207c23.333 23.333 47.666 35 72.999 35c24.667 0 48.667 -11.667 72 -35z" />
    <glyph glyph-name="caron" unicode="&#x2c7;" 
d="M594 1470l-205.001 -206c-23.333 -23.333 -47.333 -35 -72 -35c-25.333 0 -49.666 11.667 -72.999 35l-205 206l74 64l204 -180l203 180z" />
    <glyph glyph-name="breve" unicode="&#x2d8;" 
d="M594 1501c-5.33301 -85.333 -32.002 -152.333 -80.002 -201s-113.667 -73 -197 -73s-149.166 24.5 -197.499 73.5s-75.166 115.833 -80.499 200.5l106 19c9.33301 -60 27.833 -104.833 55.5 -134.5s66.5 -44.5 116.5 -44.5s88.5 14.833 115.5 44.5
s45.167 74.5 54.5 134.5z" />
    <glyph glyph-name="dotaccent" unicode="&#x2d9;" 
d="M424 1380c0 -28.667 -10.5 -52.834 -31.5 -72.501s-46.167 -29.5 -75.5 -29.5s-54.666 9.83301 -75.999 29.5s-32 43.834 -32 72.501s10.667 53 32 73s46.666 30 75.999 30s54.5 -10 75.5 -30s31.5 -44.333 31.5 -73z" />
    <glyph glyph-name="ring" unicode="&#x2da;" 
d="M508 1405c0 -51.333 -18.667 -94.833 -56 -130.5s-82.333 -53.5 -135 -53.5c-53.333 0 -98.666 18 -135.999 54s-56 79.333 -56 130s18.667 93.667 56 129s82.666 53 135.999 53s98.5 -17.667 135.5 -53s55.5 -78.333 55.5 -129zM422 1405c0 28 -10.333 52 -31 72
s-45.334 30 -74.001 30s-53.5 -10 -74.5 -30s-31.5 -44 -31.5 -72c0 -28.667 10.5 -53.334 31.5 -74.001s45.833 -31 74.5 -31s53.334 10.333 74.001 31s31 45.334 31 74.001z" />
    <glyph glyph-name="ogonek" unicode="&#x2db;" 
d="M588 -358c-54.667 -30 -116.333 -44.999 -185 -44.999c-64 0 -115.833 16.167 -155.5 48.5s-59.5 75.5 -59.5 129.5c0 46.667 19.667 92.167 59 136.5s94.333 84.166 165 119.499h137c-76 -34.667 -132.833 -73 -170.5 -115s-56.5 -81.667 -56.5 -119
c0 -27.333 9.83301 -49.833 29.5 -67.5s45.167 -26.5 76.5 -26.5c36 0 77.667 9.66699 125 29z" />
    <glyph glyph-name="tilde" unicode="&#x2dc;" 
d="M596 1432c-7.33301 -50.667 -25.3301 -92.5 -53.9971 -125.5s-65.334 -49.5 -110.001 -49.5c-24 0 -46.5 5.33301 -67.5 16s-38 22.5 -51 35.5s-28 24.833 -45 35.5s-33.5 16 -49.5 16c-24.667 0 -45.167 -10 -61.5 -30s-27.166 -45.667 -32.499 -77l-88 54
c7.33301 50.667 25.166 92 53.499 124s65.166 48 110.499 48c24 0 46.5 -5.33301 67.5 -16s38 -22.167 51 -34.5s28 -23.833 45 -34.5s33.5 -16 49.5 -16c24.667 0 45.167 10 61.5 30s27.166 45.667 32.499 77z" />
    <glyph glyph-name="hungarumlaut" unicode="&#x2dd;" 
d="M655 1501l-202 -266h-109l158 266c27.333 31.333 58 47 92 47c32 0 52.333 -15.667 61 -47zM358 1501l-202 -266h-109l158 266c27.333 31.333 58 47 92 47c32 0 52.333 -15.667 61 -47z" />
    <glyph glyph-name="uni0306" unicode="&#x306;" horiz-adv-x="0" 
d="M-41 1501c-5.33301 -85.333 -32 -152.333 -80 -201s-113.333 -73 -196 -73c-83.333 0 -149.333 24.5 -198 73.5s-75.667 115.833 -81 200.5l107 19c9.33301 -60 27.833 -104.833 55.5 -134.5s66.5 -44.5 116.5 -44.5s88.5 14.833 115.5 44.5s45.167 74.5 54.5 134.5z" />
    <glyph glyph-name="uni030F" unicode="&#x30f;" horiz-adv-x="0" 
d="M-49 1235h-109l-202 266c8.66699 31.333 29 47 61 47c34 0 64.667 -15.667 92 -47zM-346 1235h-109l-202 266c8.66699 31.333 29 47 61 47c34 0 64.667 -15.667 92 -47z" />
    <glyph glyph-name="uni0311" unicode="&#x311;" horiz-adv-x="0" 
d="M-41 1243l-106 -16c-9.33301 60 -27.5 104.667 -54.5 134s-65.5 44 -115.5 44s-88.833 -14.833 -116.5 -44.5s-46.167 -74.167 -55.5 -133.5l-107 16c5.33301 85.333 32.5 152.833 81.5 202.5s114.833 74.5 197.5 74.5s148 -24.833 196 -74.5s74.667 -117.167 80 -202.5z
" />
    <glyph glyph-name="Delta" unicode="&#x394;" horiz-adv-x="1343" 
d="M1303 0h-1262l528 1483h205zM1075 141l-358.001 1026c-8 24 -15.667 49.667 -23 77s-12.666 48.666 -15.999 63.999l-4 23h-4c-10.667 -56 -25 -110.667 -43 -164l-359 -1026h807z" />
    <glyph glyph-name="mu" unicode="&#x3bc;" horiz-adv-x="1521" 
d="M1423 0l-160.998 -0.00195312l-101 807l-12 147h-4c-10.667 -54 -23.667 -103 -39 -147l-277 -807h-137l-276 807c-6.66699 19.333 -13.334 41.333 -20.001 66s-11.334 44.334 -14.001 59.001l-5 22h-4c-2 -52.667 -5.66699 -101.667 -11 -147l-102 -807h-162l156 1104
h207l264 -774c6 -18 11.833 -38.5 17.5 -61.5l13.5 -54.5l4 -21h4c10 50.667 21.667 96.334 35 137.001l262 774h209z" />
    <glyph glyph-name="afii10023" unicode="&#x401;" horiz-adv-x="1032" 
d="M930 0h-768v1483h768v-152h-594v-495h547v-148h-547v-536h594v-152zM831 1749c0 -25.333 -9.66699 -47.333 -29 -66s-42.333 -28 -69 -28s-49.667 9.33301 -69 28s-29 40.667 -29 66s9.66699 47.333 29 66s42.333 28 69 28s49.667 -9.33301 69 -28s29 -40.667 29 -66z
M453 1749c0 -25.333 -9.83301 -47.333 -29.5 -66s-42.834 -28 -69.501 -28s-49.667 9.33301 -69 28s-29 40.667 -29 66s9.66699 47.333 29 66s42.333 28 69 28s49.834 -9.33301 69.501 -28s29.5 -40.667 29.5 -66z" />
    <glyph glyph-name="afii10051" unicode="&#x402;" horiz-adv-x="1421" 
d="M1305 379c0 -172.667 -39.333 -327.168 -118 -463.501s-189.667 -237.833 -333 -304.5l-78 133c115.333 57.333 202.833 141.5 262.5 252.5s89.5 238.5 89.5 382.5c0 136.667 -28.333 245.167 -85 325.5s-143.667 120.5 -261 120.5
c-40.667 0 -83.167 -5.66699 -127.5 -17s-82.833 -26.666 -115.5 -45.999v-762h-177v1331h-290v152h972v-152h-505v-428c84 44 177.333 66 280 66c82 0 154.167 -14.333 216.5 -43s113 -69.5 152 -122.5s68.333 -115 88 -186s29.5 -150.5 29.5 -238.5z" />
    <glyph glyph-name="afii10052" unicode="&#x403;" horiz-adv-x="980" 
d="M915 1331h-573v-1331h-174v1483h747v-152zM770 1880l-205 -266h-127l152 266c29.333 31.333 64 47 104 47c18.667 0 35 -4.16699 49 -12.5s23 -19.833 27 -34.5z" />
    <glyph glyph-name="afii10053" unicode="&#x404;" horiz-adv-x="1226" 
d="M1139 55c-90 -52 -209 -77.998 -357 -77.998c-93.333 0 -179.666 16 -258.999 48s-149.5 78.833 -210.5 140.5s-108.833 141.667 -143.5 240s-52 210.166 -52 335.499s17.333 237.166 52 335.499s82.5 178.333 143.5 240s131.167 108.5 210.5 140.5
s165.666 48 258.999 48c148 0 267 -26 357 -78l-64 -135c-31.333 18.667 -73 34 -125 46s-106.667 18 -164 18c-63.333 0 -122.5 -10.167 -177.5 -30.5s-104.833 -51 -149.5 -92s-81.334 -95.167 -110.001 -162.5s-46.667 -145 -54 -233h694v-150h-696
c3.33301 -95.333 18.833 -179.5 46.5 -252.5s64.334 -131.333 110.001 -175s96.667 -76.5 153 -98.5s117.5 -33 183.5 -33c57.333 0 112 5.66699 164 17s93.667 26 125 44z" />
    <glyph glyph-name="afii10054" unicode="&#x405;" horiz-adv-x="1062" 
d="M950 403c0 -129.333 -45.334 -232.67 -136.001 -310.003s-210.334 -116 -359.001 -116c-66.667 0 -132 7.16699 -196 21.5s-117.667 33.166 -161 56.499l62 154c37.333 -20 81.833 -37 133.5 -51s103.5 -21 155.5 -21c96 0 173.5 22.833 232.5 68.5
s88.5 108.834 88.5 189.501c0 36 -7 68.5 -21 97.5s-35.167 54.833 -63.5 77.5s-56 41.5 -83 56.5s-61.167 31.5 -102.5 49.5c-37.333 16.667 -68.5 31.334 -93.5 44.001s-54.167 28.834 -87.5 48.501s-60.833 40 -82.5 61s-42.667 45.167 -63 72.5s-35.5 58 -45.5 92
s-15 70.667 -15 110c0 122.667 41.833 220.167 125.5 292.5s193.834 108.5 330.501 108.5c64.667 0 125.5 -7.33301 182.5 -22s104.167 -33.334 141.5 -56.001l-59 -145c-32.667 18.667 -72.5 35 -119.5 49s-93.5 21 -139.5 21c-84.667 0 -153.167 -21.333 -205.5 -64
s-78.5 -101.334 -78.5 -176.001c0 -28 5.83301 -54.667 17.5 -80s25.667 -47.166 42 -65.499s38.5 -36.666 66.5 -54.999s53.333 -33.166 76 -44.499s51 -24.666 85 -39.999c30.667 -13.333 56 -25 76 -35s44.333 -23.167 73 -39.5s52.334 -32 71.001 -47
s38.5 -33.5 59.5 -55.5s37.667 -44.667 50 -68s22.5 -50.333 30.5 -81s12 -63.334 12 -98.001z" />
    <glyph glyph-name="afii10055" unicode="&#x406;" horiz-adv-x="507" 
d="M342 0h-176v1483h176v-1483z" />
    <glyph glyph-name="afii10056" unicode="&#x407;" horiz-adv-x="507" 
d="M342 0h-176v1483h176v-1483zM164 1749c0 -25.333 -9.66699 -47.333 -29 -66s-42.333 -28 -69 -28s-49.834 9.33301 -69.501 28s-29.5 40.667 -29.5 66s9.83301 47.333 29.5 66s42.834 28 69.501 28s49.667 -9.33301 69 -28s29 -40.667 29 -66zM541 1749
c0 -25.333 -9.83301 -47.333 -29.5 -66s-42.834 -28 -69.501 -28s-49.667 9.33301 -69 28s-29 40.667 -29 66s9.66699 47.333 29 66s42.333 28 69 28s49.834 -9.33301 69.501 -28s29.5 -40.667 29.5 -66z" />
    <glyph glyph-name="afii10057" unicode="&#x408;" horiz-adv-x="507" 
d="M342 164c0 -345.333 -159.667 -549.667 -479 -613v158c202 60 303 211.667 303 455v1319h176v-1319z" />
    <glyph glyph-name="afii10058" unicode="&#x409;" horiz-adv-x="1988" 
d="M1884 436c0 -140.667 -46.1729 -252.333 -138.506 -335s-222.166 -124 -389.499 -124c-151.333 0 -281 26 -389 78v1278h-361l-35 -334c-7.33301 -70 -14.5 -131.167 -21.5 -183.5s-16.667 -109.833 -29 -172.5s-26 -117.834 -41 -165.501s-34.167 -97.5 -57.5 -149.5
s-49.666 -98.167 -78.999 -138.5s-64.333 -79.666 -105 -117.999s-86 -72.5 -136 -102.5l-61 150c38 26.667 72.5 56.5 103.5 89.5s57.5 66.5 79.5 100.5s41.833 73.833 59.5 119.5s32 88.167 43 127.5s21.333 87.666 31 144.999s17.334 107.833 23.001 151.5
s11.834 98.834 18.501 165.501l50 465h692v-619c56.667 16.667 121.334 25 194.001 25c172.667 0 307.334 -41.5 404.001 -124.5s145 -192.5 145 -328.5zM1709.99 434.001c0 98 -33.332 174.834 -99.999 230.501s-160.334 83.5 -281.001 83.5
c-68.667 0 -131.334 -8.33301 -188.001 -25v-569c57.333 -23.333 129 -35 215 -35c114.667 0 202.334 27.167 263.001 81.5s91 132.166 91 233.499z" />
    <glyph glyph-name="afii10059" unicode="&#x40a;" horiz-adv-x="1929" 
d="M1825 436c0 -140.667 -46.334 -252.333 -139.001 -335s-222.667 -124 -390 -124c-151.333 0 -281 26 -389 78v633h-569v-688h-176v1483h176v-647h569v647h174v-619c56.667 16.667 121.667 25 195 25c172.667 0 307.334 -41.5 404.001 -124.5s145 -192.5 145 -328.5z
M1651 434.001c0 98 -33.332 174.834 -99.999 230.501s-160.334 83.5 -281.001 83.5c-69.333 0 -132.333 -8.33301 -189 -25v-569c57.333 -23.333 129 -35 215 -35c114.667 0 202.5 27.167 263.5 81.5s91.5 132.166 91.5 233.499z" />
    <glyph glyph-name="afii10060" unicode="&#x40b;" horiz-adv-x="1411" 
d="M1257 0h-176v557c0 90 -25.5 157.5 -76.5 202.5s-122.167 67.5 -213.5 67.5c-42.667 0 -87 -5.5 -133 -16.5s-85.667 -25.833 -119 -44.5v-766h-177v1331h-290v152h972v-152h-505v-428c84 44 178.667 66 284 66c134.667 0 240.667 -35 318 -105s116 -169.667 116 -299
v-565z" />
    <glyph glyph-name="afii10061" unicode="&#x40c;" horiz-adv-x="1214" 
d="M825 1880l-204.001 -266h-127l151 266c29.333 31.333 64.333 47 105 47c18.667 0 34.834 -4.16699 48.501 -12.5s22.5 -19.833 26.5 -34.5zM1171 0h-199.998l-240 465c-38.667 75.333 -91.834 135.833 -159.501 181.5s-144.167 68.5 -229.5 68.5v-715h-176v1483h176v-690
h4l586 690h215l-604 -684c157.333 -44 278.666 -145 363.999 -303z" />
    <glyph glyph-name="afii10062" unicode="&#x40e;" horiz-adv-x="1226" 
d="M1141 1483c-42.667 -301.333 -171 -644.669 -385 -1030l-250 -453h-199l242 422c-256.667 388.667 -411.667 742.334 -465 1061h184c50 -281.333 172.333 -584.666 367 -909.999h4c167.333 322.667 272.333 626 315 910h187zM889 1880
c-5.33301 -85.333 -32.002 -152.333 -80.002 -201s-113.667 -73 -197 -73s-149.166 24.5 -197.499 73.5s-75.166 115.833 -80.499 200.5l106 18c9.33301 -59.333 27.833 -103.833 55.5 -133.5s66.5 -44.5 116.5 -44.5s88.5 14.667 115.5 44s45.167 74 54.5 134z" />
    <glyph glyph-name="afii10145" unicode="&#x40f;" horiz-adv-x="1294" 
d="M1133 0h-412l-8 -299h-129l-11 299h-411v1483h178v-1331h616v1331h177v-1483z" />
    <glyph glyph-name="afii10017" unicode="&#x410;" horiz-adv-x="1343" 
d="M1303 0h-185l-151 432h-590l-150 -432h-186l530 1483h203zM926 567l-207 600c-8 24 -15.833 50.167 -23.5 78.5s-13.167 50.5 -16.5 66.5l-5 25h-4c-12 -60 -27 -116.667 -45 -170l-207 -600h508z" />
    <glyph glyph-name="afii10018" unicode="&#x411;" horiz-adv-x="1208" 
d="M1100 426c0 -138 -46 -247.333 -138 -328s-224.333 -121 -397 -121c-72.667 0 -145 7 -217 21s-132.667 33 -182 57v1428h782v-152h-612v-479c53.333 16.667 124.333 25 213 25c174.667 0 310.167 -40.5 406.5 -121.5s144.5 -190.833 144.5 -329.5zM924 430
c0 98 -33.499 174 -100.499 228s-163.167 81 -288.5 81c-72.667 0 -139 -8 -199 -24v-561c57.333 -23.333 133.666 -35 228.999 -35c116.667 0 205.667 27 267 81s92 130.667 92 230z" />
    <glyph glyph-name="afii10019" unicode="&#x412;" horiz-adv-x="1243" 
d="M1137 393c0 -130 -49.002 -231.834 -147.002 -305.501s-235.333 -110.5 -412 -110.5c-72 0 -147 7.5 -225 22.5s-140.333 33.5 -187 55.5v1372c50.667 23.333 112 42.166 184 56.499s145.667 21.5 221 21.5c164.667 0 291.5 -35.167 380.5 -105.5
s133.5 -164.166 133.5 -281.499c0 -90 -25.5 -165.5 -76.5 -226.5s-109.167 -99.5 -174.5 -115.5v-4c34.667 -8.66699 68.334 -22 101.001 -40s64.834 -41.667 96.501 -71s57.167 -67.166 76.5 -113.499s29 -97.833 29 -154.5zM914.998 1106c0 81.333 -29.833 145 -89.5 191
s-144.5 69 -254.5 69c-92.667 0 -171.667 -12.333 -237 -37v-502h217c70 0 123.5 4.33301 160.5 13s72.167 25 105.5 49c30 22 53.833 52.333 71.5 91s26.5 80.667 26.5 126zM960.998 400.999c0 112.667 -46 194.001 -138 244.001c-36 19.333 -72.5 32.666 -109.5 39.999
s-88.5 11 -154.5 11h-225v-542c70 -24.667 151.333 -37 244 -37c123.333 0 218 24.333 284 73s99 119 99 211z" />
    <glyph glyph-name="afii10020" unicode="&#x413;" horiz-adv-x="980" 
d="M915 1331h-573v-1331h-174v1483h747v-152z" />
    <glyph glyph-name="afii10021" unicode="&#x414;" horiz-adv-x="1531" 
d="M1421 115l-10 -414.001h-129l-8 299h-1049l-8 -299h-129l-10 414c209.333 172.667 342.333 504.334 399 995.001l43 373h658l151 -1331zM1157 140.999l-133.002 1192h-352l-27 -239c-9.33301 -85.333 -22.166 -169.5 -38.499 -252.5s-37.166 -168.833 -62.499 -257.5
s-57.5 -171.667 -96.5 -249s-82.5 -142 -130.5 -194h840z" />
    <glyph glyph-name="afii10022" unicode="&#x415;" horiz-adv-x="1032" 
d="M930 0h-768v1483h768v-152h-594v-495h547v-148h-547v-536h594v-152z" />
    <glyph glyph-name="afii10024" unicode="&#x416;" horiz-adv-x="1794" 
d="M1749 0l-190.002 0.000976562l-240 483c-35.333 71.333 -81.666 128.5 -138.999 171.5s-123.666 64.5 -198.999 64.5v-719h-168v719c-74.667 0 -140.5 -21.5 -197.5 -64.5s-103.167 -100.167 -138.5 -171.5l-241 -483h-191l260 512
c36.667 72.667 82.167 133.167 136.5 181.5s114.833 83.5 181.5 105.5l-551 684h209l528 -695h4v695h168v-695h4l528 695h209l-548 -684c136 -44.667 241 -140.334 315 -287.001z" />
    <glyph glyph-name="afii10025" unicode="&#x417;" horiz-adv-x="1148" 
d="M1042 418c0 -133.333 -50.498 -240.168 -151.498 -320.501s-238.167 -120.5 -411.5 -120.5c-143.333 0 -277.666 26 -402.999 78l59 140c101.333 -44 216 -66 344 -66c120 0 213.833 25.667 281.5 77s101.5 122 101.5 212c0 66 -23 122 -69 168s-105 79 -177 99
s-153.667 30 -245 30l-62 -2v135c140 2 257 29.833 351 83.5s141 121.5 141 203.5c0 71.333 -27.667 126 -83 164s-134.333 57 -237 57c-112 0 -221 -22 -327 -66l-58 137c125.333 52 260 78 404 78c152 0 269.833 -31.833 353.5 -95.5s125.5 -151.834 125.5 -264.501
c0 -55.333 -15.833 -106.833 -47.5 -154.5s-70.334 -86.334 -116.001 -116.001s-94.834 -52.167 -147.501 -67.5v-4c35.333 -7.33301 69.166 -17 101.499 -29s65.5 -28.667 99.5 -50s63.333 -45.666 88 -72.999s45 -61.166 61 -101.499s24 -84.166 24 -131.499z" />
    <glyph glyph-name="afii10026" unicode="&#x418;" horiz-adv-x="1415" 
d="M1253 0h-158.999v1069l4 180h-4c-26 -58.667 -54.667 -112.667 -86 -162l-680 -1087h-166v1483h162v-1043l-5 -186h5c27.333 58.667 56.666 112.667 87.999 162l667 1067h174v-1483z" />
    <glyph glyph-name="afii10027" unicode="&#x419;" horiz-adv-x="1415" 
d="M1253 0h-158.999v1069l4 180h-4c-26 -58.667 -54.667 -112.667 -86 -162l-680 -1087h-166v1483h162v-1043l-5 -186h5c27.333 58.667 56.666 112.667 87.999 162l667 1067h174v-1483zM981.001 1880c-5.33301 -85.333 -32 -152.333 -80 -201s-113.333 -73 -196 -73
c-83.333 0 -149.333 24.5 -198 73.5s-75.667 115.833 -81 200.5l106 18c18 -118.667 75.667 -178 173 -178c50 0 88.333 14.667 115 44s44.667 74 54 134z" />
    <glyph glyph-name="afii10028" unicode="&#x41a;" horiz-adv-x="1214" 
d="M1171 0h-199.998l-240 465c-38.667 75.333 -91.834 135.833 -159.501 181.5s-144.167 68.5 -229.5 68.5v-715h-176v1483h176v-690h4l586 690h215l-604 -684c157.333 -44 278.666 -145 363.999 -303z" />
    <glyph glyph-name="afii10029" unicode="&#x41b;" horiz-adv-x="1423" 
d="M1303 0l-181.003 -0.00390625l-145 1333h-352l-35 -334c-7.33301 -70.667 -14.5 -131.834 -21.5 -183.501s-16.833 -109.167 -29.5 -172.5s-26.667 -118.833 -42 -166.5s-35.166 -97.667 -59.499 -150s-51.666 -98.666 -81.999 -138.999s-66.833 -79.666 -109.5 -117.999
s-90 -72.5 -142 -102.5l-61 154c35.333 23.333 67.5 48.5 96.5 75.5s54.667 56.833 77 89.5s42 64.667 59 96s32.167 68.333 45.5 111s24.5 81.334 33.5 116.001s17.5 77.834 25.5 129.501s14.333 96.334 19 134.001s10.334 86.167 17.001 145.5l51 465h670z" />
    <glyph glyph-name="afii10030" unicode="&#x41c;" horiz-adv-x="1777" 
d="M1669 0h-165.998l-139 1112l-18 180h-5c-13.333 -64 -28.333 -124 -45 -180l-342 -1112h-131l-342 1112c-7.33301 24.667 -14.833 52 -22.5 82s-13.167 54 -16.5 72l-6 26h-4c-4 -64 -9.33301 -124 -16 -180l-142 -1112h-165l196 1483h211l328 -1065
c7.33301 -24 14.666 -50.833 21.999 -80.5s12.666 -53.5 15.999 -71.5l5 -26h4c12 64 26.333 123.333 43 178l328 1065h211z" />
    <glyph glyph-name="afii10031" unicode="&#x41d;" horiz-adv-x="1308" 
d="M1147 0h-178v688h-629v-688h-178v1483h178v-647h629v647h178v-1483z" />
    <glyph glyph-name="afii10032" unicode="&#x41e;" horiz-adv-x="1368" 
d="M1251 741c0 -106.667 -12 -205.834 -36 -297.501s-59 -172.5 -105 -242.5s-105.5 -124.833 -178.5 -164.5s-155.5 -59.5 -247.5 -59.5s-174.5 19.833 -247.5 59.5s-132.5 94.5 -178.5 164.5s-81 150.833 -105 242.5s-36 190.834 -36 297.501s12 205.834 36 297.501
s59 172.5 105 242.5s105.5 124.833 178.5 164.5s155.5 59.5 247.5 59.5s174.5 -19.833 247.5 -59.5s132.5 -94.5 178.5 -164.5s81 -150.833 105 -242.5s36 -190.834 36 -297.501zM1075 741c0 116 -14.333 219 -43 309s-73 162.167 -133 216.5s-131.667 81.5 -215 81.5
s-155 -27.167 -215 -81.5s-104.333 -126.5 -133 -216.5s-43 -193 -43 -309s14.333 -219 43 -309s73 -162 133 -216s131.667 -81 215 -81s155 27 215 81s104.333 126 133 216s43 193 43 309z" />
    <glyph glyph-name="afii10033" unicode="&#x41f;" horiz-adv-x="1308" 
d="M1147 0h-178v1333h-629v-1333h-178v1483h985v-1483z" />
    <glyph glyph-name="afii10034" unicode="&#x420;" horiz-adv-x="1165" 
d="M1079 1053c0 -134 -49.834 -242 -149.501 -324s-239.5 -123 -419.5 -123c-73.333 0 -130.666 4 -171.999 12v-618h-176v1427c108 52 237.667 78 389 78c168 0 298 -40.333 390 -121s138 -191 138 -331zM904.999 1055c0 101.333 -30.166 178.167 -90.499 230.5
s-147.5 78.5 -261.5 78.5c-86 0 -157.667 -11.667 -215 -35v-569c41.333 -8 96.666 -12 165.999 -12c128 0 226.833 27.5 296.5 82.5s104.5 129.833 104.5 224.5z" />
    <glyph glyph-name="afii10035" unicode="&#x421;" horiz-adv-x="1105" 
d="M1014 55c-35.333 -23.333 -80.999 -42.166 -136.999 -56.499s-116.333 -21.5 -181 -21.5c-80 0 -154.5 15.667 -223.5 47s-130.167 77.666 -183.5 138.999s-95.333 141.5 -126 240.5s-46 211.5 -46 337.5s15.333 238.5 46 337.5s72.667 179.167 126 240.5
s114.5 107.666 183.5 138.999s143.5 47 223.5 47c64 0 124.167 -7.16699 180.5 -21.5s102.166 -33.166 137.499 -56.499l-60 -143c-26 18.667 -60.5 34.334 -103.5 47.001s-88.833 19 -137.5 19c-58 0 -111.667 -12.333 -161 -37s-93 -61.167 -131 -109.5
s-67.833 -111.833 -89.5 -190.5s-32.5 -168.667 -32.5 -270s10.833 -191.333 32.5 -270s51.5 -142.334 89.5 -191.001s81.667 -85.334 131 -110.001s103 -37 161 -37c48.667 0 94.5 6.33301 137.5 19s77.5 28.334 103.5 47.001z" />
    <glyph glyph-name="afii10036" unicode="&#x422;" horiz-adv-x="1048" 
d="M981 1331h-369v-1331h-176v1331h-368v152h913v-152z" />
    <glyph glyph-name="afii10037" unicode="&#x423;" horiz-adv-x="1226" 
d="M1141 1483c-42.667 -301.333 -171 -644.669 -385 -1030l-250 -453h-199l242 422c-256.667 388.667 -411.667 742.334 -465 1061h184c50 -281.333 172.333 -584.666 367 -909.999h4c167.333 322.667 272.333 626 315 910h187z" />
    <glyph glyph-name="afii10038" unicode="&#x424;" horiz-adv-x="1681" 
d="M1573 743c0 -116.667 -25.667 -223.167 -77 -319.5s-127.166 -174.333 -227.499 -234s-216.5 -90.834 -348.5 -93.501v-141h-158v141c-132 2.66699 -248.167 33.834 -348.5 93.501s-176.166 137.667 -227.499 234s-77 202.833 -77 319.5s25.667 223.334 77 320.001
s127.166 174.834 227.499 234.501s216.5 90.834 348.5 93.501v137h158v-137c132 -2.66699 248.167 -33.834 348.5 -93.501s176.166 -137.834 227.499 -234.501s77 -203.334 77 -320.001zM1399 743c0 92.667 -18.5 177.001 -55.5 253.001s-92.333 137.167 -166 183.5
s-159.5 70.166 -257.5 71.499v-1015c98 0.666992 183.833 24.167 257.5 70.5s129 107.333 166 183s55.5 160.167 55.5 253.5zM762 236.001v1015c-98 -1.33301 -183.833 -25.166 -257.5 -71.499s-129 -107.5 -166 -183.5s-55.5 -160.333 -55.5 -253
c0 -93.333 18.5 -177.833 55.5 -253.5s92.333 -136.667 166 -183s159.5 -69.833 257.5 -70.5z" />
    <glyph glyph-name="afii10039" unicode="&#x425;" horiz-adv-x="1198" 
d="M1149 0h-195l-352 625h-4l-354 -625h-195l447 768l-416 715h192l326 -574h4l324 574h194l-415 -715z" />
    <glyph glyph-name="afii10040" unicode="&#x426;" horiz-adv-x="1333" 
d="M1223 115l-11 -414h-129l-8 299h-913v1483h178v-1331h616v1331h177v-1331z" />
    <glyph glyph-name="afii10041" unicode="&#x427;" horiz-adv-x="1269" 
d="M1106 0h-175.999v610c-35.333 -18 -83.333 -33.333 -144 -46s-115 -19 -163 -19c-144.667 0 -259 41.167 -343 123.5s-126 194.833 -126 337.5v477h178v-467c0 -100.667 28.167 -178.5 84.5 -233.5s135.166 -82.5 236.499 -82.5c43.333 0 93 6.16699 149 18.5
s98.667 27.5 128 45.5v719h176v-1483z" />
    <glyph glyph-name="afii10042" unicode="&#x428;" horiz-adv-x="1900" 
d="M1739 0h-1577v1483h172v-1333h530v1333h172v-1333h533v1333h170v-1483z" />
    <glyph glyph-name="afii10043" unicode="&#x429;" horiz-adv-x="1939" 
d="M1829 115l-10 -414h-129l-9 299h-1519v1483h172v-1333h530v1333h172v-1333h533v1333h170v-1331z" />
    <glyph glyph-name="afii10044" unicode="&#x42a;" horiz-adv-x="1398" 
d="M1294 436c0 -140.667 -46.1699 -252.333 -138.503 -335s-222.166 -124 -389.499 -124c-151.333 0 -281 26 -389 78v1276h-314v152h488v-619c56.667 16.667 121.334 25 194.001 25c172.667 0 307.334 -41.5 404.001 -124.5s145 -192.5 145 -328.5zM1120 434.001
c0 98 -33.332 174.834 -99.999 230.501s-160.334 83.5 -281.001 83.5c-68.667 0 -131.334 -8.33301 -188.001 -25v-569c57.333 -23.333 129 -35 215 -35c114.667 0 202.334 27.167 263.001 81.5s91 132.166 91 233.499z" />
    <glyph glyph-name="afii10045" unicode="&#x42b;" horiz-adv-x="1613" 
d="M1448 0h-178v1483h178v-1483zM1079 436c0 -140.667 -46.1699 -252.333 -138.503 -335s-222.166 -124 -389.499 -124c-151.333 0 -281 26 -389 78v1428h174v-619c56.667 16.667 121.334 25 194.001 25c172.667 0 307.334 -41.5 404.001 -124.5s145 -192.5 145 -328.5z
M904.997 434.001c0 98 -33.332 174.834 -99.999 230.501s-160.334 83.5 -281.001 83.5c-68.667 0 -131.334 -8.33301 -188.001 -25v-569c57.333 -23.333 129 -35 215 -35c114.667 0 202.334 27.167 263.001 81.5s91 132.166 91 233.499z" />
    <glyph glyph-name="afii10046" unicode="&#x42c;" horiz-adv-x="1183" 
d="M1079 436c0 -140.667 -46.1699 -252.333 -138.503 -335s-222.166 -124 -389.499 -124c-151.333 0 -281 26 -389 78v1428h174v-619c56.667 16.667 121.334 25 194.001 25c172.667 0 307.334 -41.5 404.001 -124.5s145 -192.5 145 -328.5zM904.997 434.001
c0 98 -33.332 174.834 -99.999 230.501s-160.334 83.5 -281.001 83.5c-68.667 0 -131.334 -8.33301 -188.001 -25v-569c57.333 -23.333 129 -35 215 -35c114.667 0 202.334 27.167 263.001 81.5s91 132.166 91 233.499z" />
    <glyph glyph-name="afii10047" unicode="&#x42d;" horiz-adv-x="1226" 
d="M1112 741c0 -125.333 -17.335 -237.167 -52.002 -335.5s-82.5 -178.333 -143.5 -240s-131.333 -108.5 -211 -140.5s-166.167 -48 -259.5 -48c-148.667 0 -268 26 -358 78l66 135c31.333 -18 72.666 -32.667 123.999 -44s105.333 -17 162 -17c66 0 127.333 11 184 33
s108 54.833 154 98.5s83 102 111 175s43.667 157.167 47 252.5h-698v150h696c-7.33301 88 -25.5 165.667 -54.5 233s-66 121.5 -111 162.5s-95.167 71.667 -150.5 92s-114.666 30.5 -177.999 30.5c-57.333 0 -111.5 -5.83301 -162.5 -17.5s-92.167 -27.167 -123.5 -46.5
l-66 135c40.667 23.333 92.334 42.166 155.001 56.499s130.334 21.5 203.001 21.5c93.333 0 179.833 -16 259.5 -48s150 -78.833 211 -140.5s108.833 -141.667 143.5 -240s52 -210.166 52 -335.499z" />
    <glyph glyph-name="afii10048" unicode="&#x42e;" horiz-adv-x="1826" 
d="M1708 741c0 -106.667 -9.83105 -204.998 -29.498 -294.998s-49.334 -170.5 -89.001 -241.5s-93 -126.667 -160 -167s-144.833 -60.5 -233.5 -60.5c-68 0 -129.833 12.333 -185.5 37s-102.834 58.667 -141.501 102s-71.5 95.166 -98.5 155.499
s-47.167 125.166 -60.5 194.499s-21.333 143.333 -24 222h-348v-688h-176v1483h176v-647h350c5.33301 94.667 19.166 181.5 41.499 260.5s53.5 149.5 93.5 211.5s91.833 110.333 155.5 145s136.167 52 217.5 52c88.667 0 166.5 -20.167 233.5 -60.5s120.333 -96 160 -167
s69.334 -151.5 89.001 -241.5s29.5 -188.333 29.5 -295zM1534 743.002c0 88 -6.33203 168.5 -18.999 241.5s-32.167 138.333 -58.5 196s-61.666 102.667 -105.999 135s-95.833 48.5 -154.5 48.5s-110.334 -16.167 -155.001 -48.5s-80.167 -77.333 -106.5 -135
s-46 -123.167 -59 -196.5s-19.5 -153.666 -19.5 -240.999c0 -69.333 4 -134.5 12 -195.5s20.833 -117.833 38.5 -170.5s39.5 -97.834 65.5 -135.501s58 -67.167 96 -88.5s80.667 -32 128 -32c58.667 0 110.167 16.167 154.5 48.5s79.666 77.5 105.999 135.5
s45.833 123.5 58.5 196.5s19 153.5 19 241.5z" />
    <glyph glyph-name="afii10049" unicode="&#x42f;" horiz-adv-x="1259" 
d="M1096 0l-173.999 -0.000976562v651h-177c-60.667 0 -111.167 -14 -151.5 -42s-73.5 -70 -99.5 -126l-232 -483h-190l243 498c49.333 100.667 107.333 167.334 174 200.001v4c-106 18.667 -189.833 59.167 -251.5 121.5s-92.5 149.5 -92.5 261.5
c0 130 46.5 232.5 139.5 307.5s226.167 112.5 399.5 112.5c161.333 0 298.666 -26.667 411.999 -80v-1425zM922.001 783.999l0.000976562 545c-56.667 24.667 -137.334 37 -242.001 37c-119.333 0 -209.333 -25 -270 -75s-91 -120.667 -91 -212
c0 -104 32.667 -179.167 98 -225.5s160.333 -69.5 285 -69.5h220z" />
    <glyph glyph-name="afii10065" unicode="&#x430;" horiz-adv-x="1081" 
d="M932 55c-40 -22 -95.667 -40.5 -167 -55.5s-142.666 -22.5 -213.999 -22.5c-148.667 0 -261.667 29.667 -339 89s-116 142.333 -116 249c0 44 6.83301 83.833 20.5 119.5s31.667 66 54 91s51.166 47 86.499 66s71 34.333 107 46s78.5 21.667 127.5 30
s94.167 14.5 135.5 18.5s89 7.33301 143 10v84c0 77.333 -22.833 132.5 -68.5 165.5s-110.167 49.5 -193.5 49.5c-49.333 0 -102.333 -6.5 -159 -19.5s-104 -28.833 -142 -47.5l-45 121c46 21.333 101.5 39.5 166.5 54.5s129.5 22.5 193.5 22.5c273.333 0 410 -120 410 -360
v-711zM770 141v436.999c-54.667 -3.33301 -96.5 -6.16602 -125.5 -8.49902s-67.167 -6.83301 -114.5 -13.5s-84 -15.667 -110 -27s-53.167 -26 -81.5 -44s-48.833 -41 -61.5 -69s-19 -60.333 -19 -97c0 -66 24.5 -118 73.5 -156s120.833 -57 215.5 -57
c41.333 0 83.833 3.5 127.5 10.5s75.5 15.167 95.5 24.5z" />
    <glyph glyph-name="afii10066" unicode="&#x431;" horiz-adv-x="1161" 
d="M1055 555c0 -110.667 -17.501 -209.165 -52.501 -295.498s-87.667 -155 -158 -206s-153.833 -76.5 -250.5 -76.5c-103.333 0 -190.666 29.5 -261.999 88.5s-124 139.833 -158 242.5s-51 224 -51 364c0 116.667 9 220.667 27 312s47 174.333 87 249s92 138.167 156 190.5
s142.167 95.666 234.5 129.999s199.833 59.166 322.5 74.499v-143c-178 -24.667 -315.667 -70.5 -413 -137.5s-165 -162.5 -203 -286.5c80.667 38 164.667 57 252 57c99.333 0 185 -25.167 257 -75.5s125.333 -117.333 160 -201s52 -179.167 52 -286.5zM884.999 555.002
c0 128.667 -27.8311 233.5 -83.498 314.5s-134.5 121.5 -236.5 121.5c-90.667 0 -177.334 -19.667 -260.001 -59c-12 -78 -18 -166.667 -18 -266c0 -168.667 26.667 -302 80 -400s129.666 -147 228.999 -147c92 0 163.167 40.667 213.5 122s75.5 186 75.5 314z" />
    <glyph glyph-name="afii10067" unicode="&#x432;" horiz-adv-x="1087" 
d="M981 293c0 -101.333 -40.8301 -179.333 -122.497 -234s-195.834 -82 -342.501 -82c-139.333 0 -260 26 -362 78v994c102.667 51.333 222 77 358 77c135.333 0 241.166 -26 317.499 -78s114.5 -123.333 114.5 -214c0 -66 -21.333 -122 -64 -168s-91.667 -75.333 -147 -88
v-3c28.667 -6 56.667 -15.833 84 -29.5s53.666 -31.5 78.999 -53.5s45.833 -50.167 61.5 -84.5s23.5 -72.5 23.5 -114.5zM780.003 823c0 59.333 -23.499 105.668 -70.499 139.001s-112.833 50 -197.5 50c-34.667 0 -70.5 -3.83301 -107.5 -11.5
s-66.833 -16.834 -89.5 -27.501v-350h191c53.333 0 94.166 2.83301 122.499 8.5s54.5 17.167 78.5 34.5c22.667 15.333 40.5 36.833 53.5 64.5s19.5 58.5 19.5 92.5zM813.004 301.002c0 81.333 -34.667 139.999 -104 175.999c-26 14 -53 23.667 -81 29s-66.667 8 -116 8
h-197v-383c22 -11.333 52.167 -20.666 90.5 -27.999s75.166 -11 110.499 -11c92.667 0 165.334 18.333 218.001 55s79 88 79 154z" />
    <glyph glyph-name="afii10068" unicode="&#x433;" horiz-adv-x="837" 
d="M776 967h-450v-967h-170v1104h620v-137z" />
    <glyph glyph-name="afii10069" unicode="&#x434;" horiz-adv-x="1302" 
d="M1202 104l-10 -403h-125l-8 299h-842l-10 -299h-123l-14 403c33.333 22 64 48.167 92 78.5s51.833 60.5 71.5 90.5s38 65.333 55 106s30.667 77 41 109s20.333 70.833 30 116.5s17 82.667 22 111s10.833 64.833 17.5 109.5l41 279h568l108 -965zM958 131l-90.001 840.001
h-290l-27 -176c-8.66699 -57.333 -16.167 -103.833 -22.5 -139.5s-16.666 -82.334 -30.999 -140.001s-29.833 -106.667 -46.5 -147s-38.667 -82.5 -66 -126.5s-58 -81 -92 -111h665z" />
    <glyph glyph-name="afii10070" unicode="&#x435;" horiz-adv-x="1138" 
d="M1030 653c0 -30.667 -0.666992 -55.002 -2 -73.002l-754 -109c8.66699 -116 45.667 -204 111 -264s152 -90 260 -90c55.333 0 110 6 164 18s99.667 28.333 137 49l53 -129c-41.333 -23.333 -94.333 -42.166 -159 -56.499s-132.334 -21.5 -203.001 -21.5
c-165.333 0 -294.666 50.833 -387.999 152.5s-140 242.834 -140 423.501c0 172 43.167 310.5 129.5 415.5s203.5 157.5 351.5 157.5c136 0 243.333 -42 322 -126s118 -199.667 118 -347zM866 675.998c-0.666992 105.333 -25.834 184.834 -75.501 238.501
s-117.167 80.5 -202.5 80.5c-97.333 0 -175.166 -36.333 -233.499 -109s-88.5 -171.334 -90.5 -296.001z" />
    <glyph glyph-name="afii10072" unicode="&#x436;" horiz-adv-x="1517" 
d="M1477 0l-180.997 0.000976562l-176 340c-30.667 58.667 -69.834 106.834 -117.501 144.501s-102.5 56.5 -164.5 56.5v-541h-158v541c-62 0 -117 -18.833 -165 -56.5s-87.333 -85.834 -118 -144.501l-176 -340h-180l195 362c65.333 123.333 152.666 204 261.999 242
l-445 500h197l426 -510h4v510h158v-510h4l428 510h194l-444 -500c107.333 -34.667 194.666 -115.334 261.999 -242.001z" />
    <glyph glyph-name="afii10073" unicode="&#x437;" horiz-adv-x="1009" 
d="M905 299c0 -102 -42.499 -181.169 -127.499 -237.502s-194.5 -84.5 -328.5 -84.5c-70 0 -139.5 7 -208.5 21s-128.167 33 -177.5 57l60 119c37.333 -18.667 84 -33.834 140 -45.501s112.333 -17.5 169 -17.5c86.667 0 158.167 17.167 214.5 51.5s84.5 83.833 84.5 148.5
c0 60.667 -27 109.334 -81 146.001s-134 55 -240 55h-148v115h141c94.667 0 166.5 16.333 215.5 49s73.5 78.334 73.5 137.001c0 59.333 -24.167 104.5 -72.5 135.5s-109.5 46.5 -183.5 46.5c-50.667 0 -102.5 -5.66699 -155.5 -17s-98.167 -26.666 -135.5 -45.999l-55 117
c47.333 23.333 104.166 42 170.499 56s132.5 21 198.5 21c122 0 220 -26.5 294 -79.5s111 -126.167 111 -219.5c0 -60.667 -19.5 -113 -58.5 -157s-90.5 -73.333 -154.5 -88v-4c72 -16 132.333 -48 181 -96s73 -109 73 -183z" />
    <glyph glyph-name="afii10074" unicode="&#x438;" horiz-adv-x="1193" 
d="M1044 0h-150.999v774l4 141h-4c-20.667 -48 -43.334 -90.333 -68.001 -127l-506 -788h-169v1104h153v-754l-4 -145h4c22 48 44.667 90.333 68 127l495 772h178v-1104z" />
    <glyph glyph-name="afii10075" unicode="&#x439;" horiz-adv-x="1193" 
d="M1044 0h-150.999v774l4 141h-4c-20.667 -48 -43.334 -90.333 -68.001 -127l-506 -788h-169v1104h153v-754l-4 -145h4c22 48 44.667 90.333 68 127l495 772h178v-1104zM870.001 1501c-5.33301 -85.333 -32 -152.333 -80 -201s-113.333 -73 -196 -73
c-83.333 0 -149.333 24.5 -198 73.5s-75.667 115.833 -81 200.5l107 19c9.33301 -60 27.833 -104.833 55.5 -134.5s66.5 -44.5 116.5 -44.5s88.5 14.833 115.5 44.5s45.167 74.5 54.5 134.5z" />
    <glyph glyph-name="afii10076" unicode="&#x43a;" horiz-adv-x="1046" 
d="M1010 0l-191 0.000976562l-198 340c-33.333 57.333 -75.5 104.166 -126.5 140.499s-108.5 54.5 -172.5 54.5v-535h-168v1104h168v-504h4l465 504h206l-487 -502c62 -18.667 115.5 -47.5 160.5 -86.5s85.833 -89.167 122.5 -150.5z" />
    <glyph glyph-name="afii10077" unicode="&#x43b;" horiz-adv-x="1230" 
d="M1122 0l-169.998 -0.000976562l-106 967h-287l-33 -228c-5.33301 -38.667 -10.166 -71.834 -14.499 -99.501s-10.5 -61 -18.5 -100s-16.167 -73.167 -24.5 -102.5s-18.833 -62 -31.5 -98s-26.334 -67.667 -41.001 -95s-32.334 -55.666 -53.001 -84.999
s-43 -55.166 -67 -77.499s-51.5 -43.333 -82.5 -63s-64.167 -36.167 -99.5 -49.5l-59 140c45.333 19.333 85.666 47 120.999 83s63.666 73.333 84.999 112s40.333 86.5 57 143.5s28.834 107 36.501 150s16.167 96.5 25.5 160.5l50 346h589z" />
    <glyph glyph-name="afii10078" unicode="&#x43c;" horiz-adv-x="1521" 
d="M1423 0l-160.998 -0.00195312l-101 807l-12 147h-4c-10.667 -54 -23.667 -103 -39 -147l-277 -807h-137l-276 807c-6.66699 19.333 -13.334 41.333 -20.001 66s-11.334 44.334 -14.001 59.001l-5 22h-4c-2 -52.667 -5.66699 -101.667 -11 -147l-102 -807h-162l156 1104
h207l264 -774c6 -18 11.833 -38.5 17.5 -61.5l13.5 -54.5l4 -21h4c10 50.667 21.667 96.334 35 137.001l262 774h209z" />
    <glyph glyph-name="afii10079" unicode="&#x43d;" horiz-adv-x="1122" 
d="M973 0h-170v502h-484v-502h-169v1104h169v-479h484v479h170v-1104z" />
    <glyph glyph-name="afii10080" unicode="&#x43e;" horiz-adv-x="1155" 
d="M1047 553c0 -82.667 -10.3271 -158.834 -30.9941 -228.501s-50.334 -130.334 -89.001 -182.001s-87.834 -92.167 -147.501 -121.5s-126.834 -44 -201.501 -44s-141.834 14.667 -201.501 44s-108.834 69.833 -147.501 121.5s-68.334 112.334 -89.001 182.001
s-31 145.834 -31 228.501c0 169.333 41.167 307.166 123.5 413.499s197.5 159.5 345.5 159.5s263.167 -53.167 345.5 -159.5s123.5 -244.166 123.5 -413.499zM877.006 555c0 131.333 -25.5 236.166 -76.5 314.499s-125.167 117.5 -222.5 117.5s-171.5 -39.167 -222.5 -117.5
s-76.5 -183.166 -76.5 -314.499c0 -132 25.5 -237.667 76.5 -317s125.167 -119 222.5 -119s171.5 39.667 222.5 119s76.5 185 76.5 317z" />
    <glyph glyph-name="afii10081" unicode="&#x43f;" horiz-adv-x="1132" 
d="M983 0h-170v967h-491v-967h-172v1104h833v-1104z" />
    <glyph glyph-name="afii10082" unicode="&#x440;" horiz-adv-x="1136" 
d="M1030 563c0 -173.333 -45 -312.5 -135 -417.5s-215.667 -157.5 -377 -157.5c-76 0 -141.333 9.33301 -196 28v-456h-172v1489c38.667 20.667 91.167 38.667 157.5 54s132.5 23 198.5 23c166 0 294.833 -50.5 386.5 -151.5s137.5 -238.167 137.5 -411.5zM858 563
c0 130.667 -30.499 234.333 -91.499 311s-147.167 115 -258.5 115c-34.667 0 -69.667 -3.66699 -105 -11s-62.333 -16 -81 -26v-800c17.333 -7.33301 44.166 -14 80.499 -20s70.833 -9 103.5 -9c112 0 198.667 40.5 260 121.5s92 187.167 92 318.5z" />
    <glyph glyph-name="afii10083" unicode="&#x441;" horiz-adv-x="942" 
d="M856 53c-73.333 -50.667 -164.667 -75.999 -274 -75.999c-48.667 0 -95.334 6.83301 -140.001 20.5s-87.334 35.667 -128.001 66s-76.167 67.333 -106.5 111s-54.333 98 -72 163s-26.5 136.833 -26.5 215.5c0 97.333 13.333 183.833 40 259.5s62.834 135.667 108.501 180
s95.834 77.666 150.501 99.999s112.667 33.5 174 33.5c109.333 0 200.666 -25 273.999 -75l-59 -125c-53.333 38 -119 57 -197 57c-41.333 0 -80.166 -8 -116.499 -24s-69.666 -40.333 -99.999 -73s-54.333 -77.5 -72 -134.5s-26.5 -122.5 -26.5 -196.5s9 -139.667 27 -197
s42.167 -102.5 72.5 -135.5s63.666 -57.833 99.999 -74.5s74.833 -25 115.5 -25c76 0 141.667 19.667 197 59z" />
    <glyph glyph-name="afii10084" unicode="&#x442;" horiz-adv-x="917" 
d="M856 965h-311v-965h-170v965h-314v139h795v-139z" />
    <glyph glyph-name="afii10085" unicode="&#x443;" horiz-adv-x="1114" 
d="M1032 1104c-42 -322 -160 -679.667 -354 -1073l-232 -471h-180l223 440c-106 198 -194 387 -264 567s-117.667 359 -143 537h178c44 -286 147.667 -602 311 -948h4c146 326 239 642 279 948h178z" />
    <glyph glyph-name="afii10086" unicode="&#x444;" horiz-adv-x="1579" 
d="M1468 553c0 -59.333 -4.83398 -116.167 -14.501 -170.5s-25.167 -106 -46.5 -155s-47.833 -91.5 -79.5 -127.5s-71 -64.667 -118 -86s-99.167 -32 -156.5 -32c-72 0 -133 17.667 -183 53v-475h-161v475c-50 -35.333 -110.333 -53 -181 -53c-71.333 0 -134.5 16 -189.5 48
s-98.667 75.333 -131 130s-56.5 115.167 -72.5 181.5s-24 136.833 -24 211.5c0 59.333 4.83301 116.166 14.5 170.499s25.334 105.833 47.001 154.5s48.334 91 80.001 127s71.167 64.5 118.5 85.5s99.666 31.5 156.999 31.5c70.667 0 131 -17.667 181 -53v539h161v-539
c50 35.333 111 53 183 53c57.333 0 109.5 -10.5 156.5 -31.5s86.333 -49.5 118 -85.5s58.167 -78.333 79.5 -127s36.833 -100.167 46.5 -154.5s14.5 -111.166 14.5 -170.499zM1307 552.999c0 56 -4.5 108.5 -13.5 157.5s-23.5 96 -43.5 141s-49 80.5 -87 106.5
s-83 39 -135 39c-58 0 -110.667 -15.667 -158 -47v-796c45.333 -30 98 -45 158 -45c52 0 97 13 135 39s67 61.5 87 106.5s34.5 92 43.5 141s13.5 101.5 13.5 157.5zM708.999 153.999v796c-47.333 31.333 -100 47 -158 47c-52 0 -97 -13 -135 -39s-67 -61.5 -87 -106.5
s-34.5 -92 -43.5 -141s-13.5 -101.5 -13.5 -157.5s4.5 -108.5 13.5 -157.5s23.5 -96 43.5 -141s49 -80.5 87 -106.5s83 -39 135 -39c60 0 112.667 15 158 45z" />
    <glyph glyph-name="afii10087" unicode="&#x445;" horiz-adv-x="1060" 
d="M1014 0h-195l-287 455h-4l-286 -455h-195l379 573l-350 531h192l260 -416h4l261 416h192l-350 -531z" />
    <glyph glyph-name="afii10088" unicode="&#x446;" horiz-adv-x="1157" 
d="M1055 104l-11 -403h-124l-9 299h-761v1104h172v-967h479v967h172v-965z" />
    <glyph glyph-name="afii10089" unicode="&#x447;" horiz-adv-x="1120" 
d="M971 0l-170 0.000976562v453c-85.333 -44 -171.333 -66 -258 -66c-130.667 0 -230.667 32.667 -300 98s-104 159.666 -104 282.999v336h172v-324c0 -169.333 88 -254 264 -254c80 0 155.333 21.333 226 64v514h170v-1104z" />
    <glyph glyph-name="afii10090" unicode="&#x448;" horiz-adv-x="1697" 
d="M1548 0h-1398v1104h172v-969h442v969h170v-969h444v969h170v-1104z" />
    <glyph glyph-name="afii10091" unicode="&#x449;" horiz-adv-x="1732" 
d="M1630 104l-10 -403h-125l-8 299h-1337v1104h172v-969h442v969h170v-969h444v969h170v-965z" />
    <glyph glyph-name="afii10092" unicode="&#x44a;" horiz-adv-x="1204" 
d="M1102 332c0 -110.667 -38.168 -197.499 -114.501 -260.499s-183.5 -94.5 -321.5 -94.5c-61.333 0 -123.5 7.16699 -186.5 21.5s-117.167 33.166 -162.5 56.499v912h-260v137h428v-442c57.333 16 117 24 179 24c142.667 0 251.334 -31.5 326.001 -94.5
s112 -149.5 112 -259.5zM933.999 332.001c0 74.667 -23.166 132.5 -69.499 173.5s-116.833 61.5 -211.5 61.5c-60 0 -116 -8 -168 -24v-410c53.333 -24.667 113.666 -37 180.999 -37c88.667 0 155.5 20.167 200.5 60.5s67.5 98.833 67.5 175.5z" />
    <glyph glyph-name="afii10093" unicode="&#x44b;" horiz-adv-x="1431" 
d="M1282 0h-170v1104h170v-1104zM936 332c0 -110.667 -38.332 -197.499 -114.999 -260.499s-184.334 -94.5 -323.001 -94.5c-61.333 0 -123.333 7.16699 -186 21.5s-116.667 33.166 -162 56.499v1049h167v-442c57.333 16 117.666 24 180.999 24
c142.667 0 251.334 -31.5 326.001 -94.5s112 -149.5 112 -259.5zM768.001 332.001c0 74.667 -23.333 132.5 -70 173.5s-117.667 61.5 -213 61.5c-60 0 -116 -8 -168 -24v-410c53.333 -24.667 113.666 -37 180.999 -37c88.667 0 155.834 20.167 201.501 60.5
s68.5 98.833 68.5 175.5z" />
    <glyph glyph-name="afii10094" unicode="&#x44c;" horiz-adv-x="1036" 
d="M936 332c0 -110.667 -38.332 -197.499 -114.999 -260.499s-184.334 -94.5 -323.001 -94.5c-61.333 0 -123.333 7.16699 -186 21.5s-116.667 33.166 -162 56.499v1049h167v-442c57.333 16 117.666 24 180.999 24c142.667 0 251.334 -31.5 326.001 -94.5
s112 -149.5 112 -259.5zM768.001 332.001c0 74.667 -23.333 132.5 -70 173.5s-117.667 61.5 -213 61.5c-60 0 -116 -8 -168 -24v-410c53.333 -24.667 113.666 -37 180.999 -37c88.667 0 155.834 20.167 201.501 60.5s68.5 98.833 68.5 175.5z" />
    <glyph glyph-name="afii10095" unicode="&#x44d;" horiz-adv-x="1036" 
d="M930 553c0 -94 -14.001 -178.166 -42.001 -252.499s-66.667 -134.833 -116 -181.5s-106.666 -82 -171.999 -106s-136.333 -36 -213 -36c-56.667 0 -112.5 7 -167.5 21s-100.167 33 -135.5 57l53 117c26.667 -18.667 62.834 -34.334 108.501 -47.001s89.5 -19 131.5 -19
c50.667 0 97.667 7.83301 141 23.5s82.5 39.167 117.5 70.5s63.333 72.833 85 124.5s34.167 111.5 37.5 179.5h-555v125h553c-12 123.333 -52.667 215.5 -122 276.5s-155 91.5 -257 91.5c-42.667 0 -86.834 -6 -132.501 -18s-81.5 -27 -107.5 -45l-53 115
c34 24 78.833 42.833 134.5 56.5s111.834 20.5 168.501 20.5c76.667 0 147.667 -11.833 213 -35.5s122.666 -58.667 171.999 -105s88 -106.5 116 -180.5s42 -158 42 -252z" />
    <glyph glyph-name="afii10096" unicode="&#x44e;" horiz-adv-x="1556" 
d="M1442 553c0 -111.333 -16.166 -209.667 -48.499 -295s-81.833 -153.5 -148.5 -204.5s-147 -76.5 -241 -76.5c-130.667 0 -233.834 48 -309.501 144s-117.5 221.667 -125.5 377h-252v-498h-167v1104h167v-471h254c12 148.667 55.167 268 129.5 358s175.5 135 303.5 135
c94 0 174.333 -25.167 241 -75.5s116.167 -118 148.5 -203s48.5 -183.167 48.5 -294.5zM1278 554.999c0 131.333 -23.5 236.501 -70.5 315.501s-114.833 118.5 -203.5 118.5c-89.333 0 -157.5 -39.5 -204.5 -118.5s-70.5 -184.167 -70.5 -315.5c0 -132 23.5 -238 70.5 -318
s115.167 -120 204.5 -120c88 0 155.667 40.167 203 120.5s71 186.166 71 317.499z" />
    <glyph glyph-name="afii10097" unicode="&#x44f;" horiz-adv-x="1095" 
d="M942 0h-166v465h-172c-87.333 0 -151.333 -43.667 -192 -131l-156 -334h-180l166 348c16 33.333 36.833 64.5 62.5 93.5s52.5 50.5 80.5 64.5v4c-74.667 15.333 -135.667 48.333 -183 99s-71 114 -71 190c0 100 39 179.5 117 238.5s186.333 88.5 325 88.5
c70 0 138 -7 204 -21s121 -32.667 165 -56v-1049zM776 578v395c-50.667 24.667 -119 37 -205 37c-88 0 -155.667 -19.5 -203 -58.5s-71 -91.833 -71 -158.5c0 -68.667 23.333 -121.667 70 -159s117 -56 211 -56h198z" />
    <glyph glyph-name="afii10071" unicode="&#x451;" horiz-adv-x="880" 
d="M784 0h-634v1104h634v-125h-467v-354h433v-123h-433v-377h467v-125zM754 1370c0 -25.333 -9.83301 -47.333 -29.5 -66s-42.834 -28 -69.501 -28s-49.667 9.33301 -69 28s-29 40.667 -29 66s9.66699 47.333 29 66s42.333 28 69 28s49.834 -9.33301 69.501 -28
s29.5 -40.667 29.5 -66zM375 1370c0 -25.333 -9.83301 -47.333 -29.5 -66s-42.834 -28 -69.501 -28s-49.667 9.33301 -69 28s-29 40.667 -29 66s9.66699 47.333 29 66s42.333 28 69 28s49.834 -9.33301 69.501 -28s29.5 -40.667 29.5 -66z" />
    <glyph glyph-name="afii10099" unicode="&#x452;" horiz-adv-x="1148" 
d="M1034 461c0 -189.333 -39.167 -359.667 -117.5 -511s-186.5 -262.333 -324.5 -333l-86 119c118.667 66 208 161.667 268 287s90 271.333 90 438c0 74.667 -6.5 143 -19.5 205s-32.667 117 -59 165s-61.666 85.333 -105.999 112s-95.5 40 -153.5 40
c-72 0 -141 -20.333 -207 -61v-922h-165v1296h-160v107h160v205h165v-205h355v-107h-355v-237c71.333 42 149.333 63 234 63c81.333 0 153 -16.5 215 -49.5s112.167 -79.333 150.5 -139s67.166 -129.167 86.499 -208.5s29 -167.333 29 -264z" />
    <glyph glyph-name="afii10100" unicode="&#x453;" horiz-adv-x="837" 
d="M776 967h-450v-967h-170v1104h620v-137zM688 1501l-205 -266h-127l152 266c29.333 31.333 64 47 104 47c18.667 0 35 -4.16699 49 -12.5s23 -19.833 27 -34.5z" />
    <glyph glyph-name="afii10101" unicode="&#x454;" horiz-adv-x="1036" 
d="M952 55c-35.333 -24 -80.333 -43.001 -135 -57.001s-110 -21 -166 -21c-76.667 0 -147.5 12 -212.5 36s-122.167 59.333 -171.5 106s-88 107.167 -116 181.5s-42 158.5 -42 252.5s14 178 42 252s66.667 134.167 116 180.5s106.5 81.333 171.5 105
s135.833 35.5 212.5 35.5c56.667 0 112.5 -6.83301 167.5 -20.5s99.5 -32.5 133.5 -56.5l-53 -115c-26 18 -61.833 33 -107.5 45s-89.834 18 -132.501 18c-101.333 0 -186.333 -30.333 -255 -91s-109 -153 -121 -277h551v-125h-553c6.66699 -132.667 45 -232.167 115 -298.5
s157.667 -99.5 263 -99.5c42 0 85.833 6.33301 131.5 19s81.834 28.334 108.501 47.001z" />
    <glyph glyph-name="afii10102" unicode="&#x455;" horiz-adv-x="927" 
d="M825 295c0 -96.667 -36.5039 -173.835 -109.504 -231.502s-173.5 -86.5 -301.5 -86.5c-57.333 0 -115.833 7.33301 -175.5 22s-110.5 33.334 -152.5 56.001l61 131c30.667 -18 71.834 -34 123.501 -48s98.834 -21 141.501 -21c70.667 0 127.5 16.167 170.5 48.5
s64.5 75.5 64.5 129.5c0 28 -5.16699 52.833 -15.5 74.5s-26.666 40.667 -48.999 57s-45 30 -68 41s-53.167 23.167 -90.5 36.5s-68.333 25.5 -93 36.5s-52 26 -82 45s-53.833 39 -71.5 60s-32.5 47.167 -44.5 78.5s-18 66.333 -18 105c0 88 32.5 159.5 97.5 214.5
s154.5 82.5 268.5 82.5c120 0 222.333 -25.667 307 -77l-59 -121c-27.333 18 -62.5 33.333 -105.5 46s-84.833 19 -125.5 19c-64.667 0 -115.667 -15.5 -153 -46.5s-56 -70.167 -56 -117.5c0 -28 4.83301 -52.5 14.5 -73.5s25.5 -39.333 47.5 -55s43.5 -28.5 64.5 -38.5
s49.833 -21.667 86.5 -35c29.333 -10.667 52.833 -19.667 70.5 -27s39.167 -17.166 64.5 -29.499s45.833 -24 61.5 -35s32.5 -25 50.5 -42s31.833 -34.667 41.5 -53s17.834 -40 24.501 -65s10 -51.833 10 -80.5z" />
    <glyph glyph-name="afii10103" unicode="&#x456;" horiz-adv-x="487" 
d="M330 0h-170v1104h170v-1104zM352 1380c0 -28.667 -10.333 -52.833 -31 -72.5s-45.667 -29.5 -75 -29.5c-30 0 -55.667 10 -77 30s-32 44 -32 72c0 28.667 10.833 53 32.5 73s47.167 30 76.5 30s54.333 -10 75 -30s31 -44.333 31 -73z" />
    <glyph glyph-name="afii10104" unicode="&#x457;" horiz-adv-x="487" 
d="M330 0h-170v1104h170v-1104zM532 1370c0 -25.333 -9.66699 -47.333 -29 -66s-42.333 -28 -69 -28s-49.667 9.33301 -69 28s-29 40.667 -29 66s9.66699 47.333 29 66s42.333 28 69 28s49.667 -9.33301 69 -28s29 -40.667 29 -66zM154 1370
c0 -25.333 -9.83301 -47.333 -29.5 -66s-42.834 -28 -69.501 -28s-49.667 9.33301 -69 28s-29 40.667 -29 66s9.66699 47.333 29 66s42.333 28 69 28s49.834 -9.33301 69.501 -28s29.5 -40.667 29.5 -66z" />
    <glyph glyph-name="afii10105" unicode="&#x458;" horiz-adv-x="487" 
d="M330 117c0 -71.333 -7.83301 -136.5 -23.5 -195.5s-36.667 -109.167 -63 -150.5s-58.5 -77.5 -96.5 -108.5s-77.667 -55.5 -119 -73.5s-86 -32 -134 -42v146c78.667 26 142.667 73.833 192 143.5s74 163.167 74 280.5v987h170v-987zM354 1380
c0 -28.667 -10.333 -52.833 -31 -72.5s-45.667 -29.5 -75 -29.5c-30 0 -55.667 10 -77 30s-32 44 -32 72c0 28.667 10.833 53 32.5 73s47.167 30 76.5 30s54.333 -10 75 -30s31 -44.333 31 -73z" />
    <glyph glyph-name="afii10106" unicode="&#x459;" horiz-adv-x="1718" 
d="M1616 332c0 -114.667 -40.1689 -202.497 -120.502 -263.497s-185.5 -91.5 -315.5 -91.5c-61.333 0 -123.5 7.16699 -186.5 21.5s-117.167 33.166 -162.5 56.499v912h-286l-31 -228c-6.66699 -49.333 -13 -92.333 -19 -129s-14.667 -79.5 -26 -128.5
s-23.666 -92 -36.999 -129s-30.666 -76.333 -51.999 -118s-45 -78 -71 -109s-57.167 -60.167 -93.5 -87.5s-76.166 -49.666 -119.499 -66.999l-61 138c31.333 14 60.166 32.333 86.499 55s49 46.667 68 72s36.333 55.166 52 89.499s28.667 67.166 39 98.499
s20.166 67.833 29.499 109.5s16.5 78.667 21.5 111s10.5 70.166 16.5 113.499l47 346h604v-442c57.333 16 117 24 179 24c142.667 0 251.334 -31.5 326.001 -94.5s112 -149.5 112 -259.5zM1448 332.003c0 74.667 -23.166 132.5 -69.499 173.5s-116.833 61.5 -211.5 61.5
c-60 0 -116 -8 -168 -24v-410c53.333 -24.667 113.666 -37 180.999 -37c88.667 0 155.5 20.167 200.5 60.5s67.5 98.833 67.5 175.5z" />
    <glyph glyph-name="afii10107" unicode="&#x45a;" horiz-adv-x="1669" 
d="M1567 332c0 -110 -38.499 -196.666 -115.499 -259.999s-184.833 -95 -323.5 -95c-61.333 0 -123.333 7.16699 -186 21.5s-116.667 33.166 -162 56.499v443h-463v-498h-167v1104h167v-471h463v471h170v-442c57.333 16 116.666 24 177.999 24
c142.667 0 251.5 -31.5 326.5 -94.5s112.5 -149.5 112.5 -259.5zM1399 332.001c0 74.667 -23.333 132.5 -70 173.5s-117.667 61.5 -213 61.5c-58.667 0 -114 -8 -166 -24v-410c53.333 -24.667 113.333 -37 180 -37c88.667 0 155.667 20.167 201 60.5s68 98.833 68 175.5z
" />
    <glyph glyph-name="afii10108" unicode="&#x45b;" horiz-adv-x="1136" 
d="M987 0h-170v743c0 80 -23.5 140 -70.5 180s-113.5 60 -199.5 60c-84.667 0 -160.667 -20.333 -228 -61v-922h-165v1296h-160v107h160v205h165v-205h355v-107h-355v-239c80 43.333 167 65 261 65c128 0 227.833 -31.5 299.5 -94.5s107.5 -153.5 107.5 -271.5v-756z" />
    <glyph glyph-name="afii10109" unicode="&#x45c;" horiz-adv-x="1046" 
d="M1010 0l-191 0.000976562l-198 340c-33.333 57.333 -75.5 104.166 -126.5 140.499s-108.5 54.5 -172.5 54.5v-535h-168v1104h168v-504h4l465 504h206l-487 -502c62 -18.667 115.5 -47.5 160.5 -86.5s85.833 -89.167 122.5 -150.5zM754 1501l-205 -266h-127l151 266
c29.333 31.333 64.333 47 105 47c18.667 0 35 -4.16699 49 -12.5s23 -19.833 27 -34.5z" />
    <glyph glyph-name="afii10110" unicode="&#x45e;" horiz-adv-x="1114" 
d="M1032 1104c-42 -322 -160 -679.667 -354 -1073l-232 -471h-180l223 440c-106 198 -194 387 -264 567s-117.667 359 -143 537h178c44 -286 147.667 -602 311 -948h4c146 326 239 642 279 948h178zM836 1501c-5.33301 -85.333 -32.002 -152.333 -80.002 -201
s-113.667 -73 -197 -73s-149.166 24.5 -197.499 73.5s-75.166 115.833 -80.499 200.5l106 19c9.33301 -60 27.833 -104.833 55.5 -134.5s66.5 -44.5 116.5 -44.5s88.5 14.833 115.5 44.5s45.167 74.5 54.5 134.5z" />
    <glyph glyph-name="afii10193" unicode="&#x45f;" horiz-adv-x="1130" 
d="M981 0h-344l-10 -299h-123l-8 299h-346v1104h172v-967h489v967h170v-1104z" />
    <glyph glyph-name="afii10050" unicode="&#x490;" horiz-adv-x="1001" 
d="M936 1331h-594v-1331h-174v1483h620v266h148v-418z" />
    <glyph glyph-name="afii10098" unicode="&#x491;" horiz-adv-x="864" 
d="M803 967h-477v-967h-170v1104h506v252h141v-389z" />
    <glyph glyph-name="endash" unicode="&#x2013;" horiz-adv-x="837" 
d="M846 596h-854v139h854v-139z" />
    <glyph glyph-name="emdash" unicode="&#x2014;" horiz-adv-x="1673" 
d="M1507 596h-1341v139h1341v-139z" />
    <glyph glyph-name="quoteleft" unicode="&#x2018;" horiz-adv-x="565" 
d="M467 1608l-180 -508c-29.333 -41.333 -65 -62 -107 -62c-23.333 0 -42.333 6.16699 -57 18.5s-23 26.833 -25 43.5l244 508h125z" />
    <glyph glyph-name="quoteright" unicode="&#x2019;" horiz-adv-x="565" 
d="M467 1556l-245.999 -505h-123l178 505c29.333 41.333 65.666 62 108.999 62c23.333 0 42.333 -6.16699 57 -18.5s23 -26.833 25 -43.5z" />
    <glyph glyph-name="quotesinglbase" unicode="&#x201a;" horiz-adv-x="565" 
d="M467 162l-245.999 -508h-123l178 508c29.333 40.667 65.666 61 108.999 61c23.333 0 42.333 -6 57 -18s23 -26.333 25 -43z" />
    <glyph glyph-name="quotedblleft" unicode="&#x201c;" horiz-adv-x="944" 
d="M846 1608l-180 -508c-29.333 -41.333 -65 -62 -107 -62c-23.333 0 -42.333 6.16699 -57 18.5s-23 26.833 -25 43.5l244 508h125zM467 1608l-180 -508c-29.333 -41.333 -65 -62 -107 -62c-23.333 0 -42.333 6.16699 -57 18.5s-23 26.833 -25 43.5l244 508h125z" />
    <glyph glyph-name="quotedblright" unicode="&#x201d;" horiz-adv-x="944" 
d="M846 1556l-245.999 -505h-123l178 505c29.333 41.333 65.666 62 108.999 62c23.333 0 42.333 -6.16699 57 -18.5s23 -26.833 25 -43.5zM467.001 1556l-245.999 -505h-123l178 505c29.333 41.333 65.666 62 108.999 62c23.333 0 42.333 -6.16699 57 -18.5
s23 -26.833 25 -43.5z" />
    <glyph glyph-name="quotedblbase" unicode="&#x201e;" horiz-adv-x="944" 
d="M846 162l-245.999 -508h-123l178 508c29.333 40.667 65.666 61 108.999 61c23.333 0 42.333 -6 57 -18s23 -26.333 25 -43zM467.001 162l-245.999 -508h-123l178 508c29.333 40.667 65.666 61 108.999 61c23.333 0 42.333 -6 57 -18s23 -26.333 25 -43z" />
    <glyph glyph-name="dagger" unicode="&#x2020;" horiz-adv-x="1288" 
d="M1157 948h-428v-1388h-170v1388h-428v156h428v504h170v-504h428v-156z" />
    <glyph glyph-name="daggerdbl" unicode="&#x2021;" horiz-adv-x="1288" 
d="M1157 293h-428v-733h-170v733h-428v156h428v499h-428v156h428v504h170v-504h428v-156h-428v-499h428v-156z" />
    <glyph glyph-name="bullet" unicode="&#x2022;" horiz-adv-x="720" 
d="M561 666c0 -55.333 -19.667 -102.666 -59 -141.999s-86.666 -59 -141.999 -59s-102.5 19.667 -141.5 59s-58.5 86.666 -58.5 141.999s19.5 102.5 58.5 141.5s86.167 58.5 141.5 58.5s102.666 -19.5 141.999 -58.5s59 -86.167 59 -141.5z" />
    <glyph glyph-name="ellipsis" unicode="&#x2026;" horiz-adv-x="1544" 
d="M1405 104c0 -33.333 -11.333 -61.333 -34 -84s-50.334 -34 -83.001 -34c-33.333 0 -61.5 11.5 -84.5 34.5s-34.5 50.833 -34.5 83.5c0 33.333 11.5 61.5 34.5 84.5s51.167 34.5 84.5 34.5c32.667 0 60.334 -11.5 83.001 -34.5s34 -51.167 34 -84.5zM891 104
c0 -32.667 -11.5 -60.5 -34.5 -83.5s-51.167 -34.5 -84.5 -34.5c-32.667 0 -60.334 11.333 -83.001 34s-34 50.667 -34 84s11.333 61.5 34 84.5s50.334 34.5 83.001 34.5c33.333 0 61.5 -11.5 84.5 -34.5s34.5 -51.167 34.5 -84.5zM377 104
c0 -32.667 -11.5 -60.5 -34.5 -83.5s-51.167 -34.5 -84.5 -34.5s-61.5 11.5 -84.5 34.5s-34.5 50.833 -34.5 83.5c0 33.333 11.5 61.5 34.5 84.5s51.167 34.5 84.5 34.5s61.5 -11.5 84.5 -34.5s34.5 -51.167 34.5 -84.5z" />
    <glyph glyph-name="perthousand" unicode="&#x2030;" horiz-adv-x="2660" 
d="M2521 389c0 -124.667 -28.1689 -224.5 -84.502 -299.5s-133.166 -112.5 -230.499 -112.5s-174.333 37.667 -231 113s-85 175 -85 299s28.333 223.667 85 299s133.667 113 231.001 113c97.333 0 174.166 -37.5 230.5 -112.5c56.333 -75 84.5 -174.833 84.5 -299.5z
M1733 389c0 -124 -28.333 -223.667 -85 -299s-133.667 -113 -231 -113s-174.166 37.5 -230.499 112.5s-84.5 174.833 -84.5 299.5s28.167 224.5 84.5 299.5s133.166 112.5 230.499 112.5s174.333 -37.667 231 -113s85 -175 85 -299zM1266 1464l-547 -1482l-117 36l549 1483z
M769.998 1094c0 -124.667 -28.167 -224.499 -84.5 -299.499s-133.166 -112.5 -230.499 -112.5s-174.333 37.667 -231 113s-85 175 -85 299s28.333 223.5 85 298.5s133.667 112.5 231 112.5s174.166 -37.333 230.499 -112s84.5 -174.334 84.5 -299.001zM2384 391.001
c0 90 -15.5 161 -46.5 213s-74.833 78 -131.5 78s-100.5 -26 -131.5 -78s-46.5 -123 -46.5 -213c0 -90.667 15.5 -162.167 46.5 -214.5s74.833 -78.5 131.5 -78.5s100.5 26.167 131.5 78.5s46.5 123.833 46.5 214.5zM1595 391.001c0 90 -15.5 161 -46.5 213
s-74.833 78 -131.5 78s-100.5 -26 -131.5 -78s-46.5 -123 -46.5 -213c0 -90.667 15.5 -162.167 46.5 -214.5s74.833 -78.5 131.5 -78.5s100.5 26.167 131.5 78.5s46.5 123.833 46.5 214.5zM632.998 1096c0 90 -15.5 160.833 -46.5 212.5s-74.833 77.5 -131.5 77.5
s-100.667 -25.833 -132 -77.5s-47 -122.5 -47 -212.5s15.667 -161.333 47 -214s75.333 -79 132 -79s100.5 26.167 131.5 78.5s46.5 123.833 46.5 214.5z" />
    <glyph glyph-name="guilsinglleft" unicode="&#x2039;" horiz-adv-x="753" 
d="M606 211l-106 -82l-375 496l375 495l106 -82l-315 -413z" />
    <glyph glyph-name="guilsinglright" unicode="&#x203a;" horiz-adv-x="753" 
d="M629 625l-375 -496l-107 82l316 414l-316 413l107 82z" />
    <glyph glyph-name="Euro" unicode="&#x20ac;" horiz-adv-x="1222" 
d="M1128 55c-76.667 -52 -175.667 -77.999 -297 -77.999c-127.333 0 -236.833 34.5 -328.5 103.5s-151.834 169.167 -180.501 300.5h-191v88h178c-2.66699 36 -4 64 -4 84c0 40.667 1.33301 70.667 4 90h-178v88h193c29.333 129.333 89.333 227.5 180 294.5
s199.667 100.5 327 100.5c122.667 0 221.667 -25.667 297 -77l-57 -107c-25.333 17.333 -59.666 31.5 -102.999 42.5s-85.333 16.5 -126 16.5c-84.667 0 -158.334 -22.5 -221.001 -67.5s-105.667 -112.5 -129 -202.5h458v-88h-477c-4 -29.333 -6 -59.333 -6 -90
c0 -2 2 -30 6 -84h477v-88h-458c23.333 -91.333 66.333 -160.333 129 -207s136.334 -70 221.001 -70c40 0 81.833 5.66699 125.5 17s78.167 25.666 103.5 42.999z" />
    <glyph glyph-name="afii61352" unicode="&#x2116;" horiz-adv-x="2224" 
d="M2114 1124c0 -112 -29.5 -203.5 -88.5 -274.5s-140.833 -106.5 -245.5 -106.5s-186.5 35.5 -245.5 106.5s-88.5 162.5 -88.5 274.5s29.5 203.5 88.5 274.5s140.833 106.5 245.5 106.5s186.5 -35.5 245.5 -106.5s88.5 -162.5 88.5 -274.5zM2093 465h-625v113h625v-113z
M1247 0h-166l-678 1087c-14 22 -28.167 46.5 -42.5 73.5s-25.166 48.5 -32.499 64.5l-11 24h-4c2.66699 -62.667 4 -122.667 4 -180v-1069h-155v1483h174l668 -1067c14 -22 28.167 -46.5 42.5 -73.5s25.166 -48.5 32.499 -64.5l11 -24h4c-1.33301 65.333 -2 127.333 -2 186
v1043h155v-1483zM1980 1126c0 82.667 -17.333 148.5 -52 197.5s-84 73.5 -148 73.5s-113.5 -24.5 -148.5 -73.5s-52.5 -114.833 -52.5 -197.5c0 -83.333 17.5 -149.833 52.5 -199.5s84.5 -74.5 148.5 -74.5s113.333 24.833 148 74.5s52 116.167 52 199.5z" />
    <glyph glyph-name="trademark" unicode="&#x2122;" horiz-adv-x="1947" 
d="M1819 602l-121.001 0.000976562l-86 645l-8 109h-5c-8 -40 -17.333 -76.333 -28 -109l-209 -645h-113l-209 645c-4.66699 14.667 -9.33398 31 -14.001 49s-8 32.667 -10 44l-4 16h-4c-2 -40 -5 -76.333 -9 -109l-84 -645h-122l120 881h166l199 -617
c4.66699 -14.667 9.33398 -30.834 14.001 -48.501s8 -31.5 10 -41.5l3 -16h4c6.66699 38 15.334 73.333 26.001 106l197 617h166zM730.999 1372h-244v-770h-133v770h-243v111h620v-111z" />
    <glyph glyph-name="minus" unicode="&#x2212;" horiz-adv-x="1157" 
d="M1012 596h-867v139h867v-139z" />
    <glyph glyph-name="uni2219" unicode="&#x2219;" horiz-adv-x="516" 
d="M377 666c0 -33.333 -11.5 -61.5 -34.5 -84.5s-51.167 -34.5 -84.5 -34.5s-61.5 11.5 -84.5 34.5s-34.5 51.167 -34.5 84.5c0 32.667 11.5 60.5 34.5 83.5s51.167 34.5 84.5 34.5s61.5 -11.5 84.5 -34.5s34.5 -50.833 34.5 -83.5z" />
    <glyph glyph-name="radical" unicode="&#x221a;" horiz-adv-x="1591" 
d="M1466 1608l-655 -2048h-182l-373 1036h-201v139h326l287 -817c8 -23.333 16 -49.5 24 -78.5s14 -52.167 18 -69.5l5 -26h4c12 62.667 26.333 120.667 43 174l514 1690h190z" />
    <glyph glyph-name="infinity" unicode="&#x221e;" horiz-adv-x="1945" 
d="M1825 666c0 -136.667 -39 -249 -117 -337s-179 -132 -303 -132c-46.667 0 -89.667 6.16699 -129 18.5s-72.666 27.666 -99.999 45.999s-54.166 43.333 -80.499 75s-48 61.167 -65 88.5s-36.167 61.666 -57.5 102.999c-21.333 -41.333 -40.5 -75.666 -57.5 -102.999
s-38.667 -56.833 -65 -88.5s-53.166 -56.667 -80.499 -75s-60.666 -33.666 -99.999 -45.999s-82.333 -18.5 -129 -18.5c-124.667 0 -226.167 44 -304.5 132s-117.5 200.333 -117.5 337s39.167 249 117.5 337s179.833 132 304.5 132c46.667 0 89.667 -6.16699 129 -18.5
s72.666 -27.833 99.999 -46.5s54.166 -43.834 80.499 -75.501s48 -61.167 65 -88.5s36.167 -61.666 57.5 -102.999c21.333 41.333 40.5 75.666 57.5 102.999s38.667 56.833 65 88.5s53.166 56.834 80.499 75.501s60.666 34.167 99.999 46.5s82.333 18.5 129 18.5
c124 0 225 -44 303 -132s117 -200.333 117 -337zM1671 666c0 97.333 -25.334 175.832 -76.001 235.499s-116 89.5 -196 89.5c-30.667 0 -59.167 -3.66699 -85.5 -11s-50.333 -19.333 -72 -36s-40.5 -33.167 -56.5 -49.5s-32.833 -39.333 -50.5 -69s-31.667 -54.5 -42 -74.5
s-24.166 -48.333 -41.499 -85c14.667 -31.333 26.5 -55.666 35.5 -72.999s21 -39.333 36 -66s28.5 -47.5 40.5 -62.5s27 -31.5 45 -49.5s36 -31.667 54 -41s38.667 -17.333 62 -24s48.333 -10 75 -10c80 0 145.333 30 196 90s76 138.667 76 236zM894.999 665.999
c-17.333 36.667 -31.167 65.001 -41.5 85.001s-24.333 44.833 -42 74.5s-34.5 52.667 -50.5 69s-34.833 32.833 -56.5 49.5s-45.667 28.667 -72 36s-54.833 11 -85.5 11c-80 0 -145.5 -29.833 -196.5 -89.5s-76.5 -138.167 -76.5 -235.5s25.5 -176 76.5 -236
s116.5 -90 196.5 -90c26.667 0 51.667 3.33301 75 10s44 14.667 62 24s36 23 54 41s33 34.5 45 49.5s25.5 35.833 40.5 62.5s27 48.667 36 66s20.833 41.666 35.5 72.999z" />
    <glyph glyph-name="uni2224" unicode="&#x2224;" horiz-adv-x="516" 
d="M377 666c0 -33.333 -11.5 -61.5 -34.5 -84.5s-51.167 -34.5 -84.5 -34.5s-61.5 11.5 -84.5 34.5s-34.5 51.167 -34.5 84.5c0 32.667 11.5 60.5 34.5 83.5s51.167 34.5 84.5 34.5s61.5 -11.5 84.5 -34.5s34.5 -50.833 34.5 -83.5z" />
    <glyph glyph-name="logicaland" unicode="&#x2227;" horiz-adv-x="516" 
d="M377 666c0 -33.333 -11.5 -61.5 -34.5 -84.5s-51.167 -34.5 -84.5 -34.5s-61.5 11.5 -84.5 34.5s-34.5 51.167 -34.5 84.5c0 32.667 11.5 60.5 34.5 83.5s51.167 34.5 84.5 34.5s61.5 -11.5 84.5 -34.5s34.5 -50.833 34.5 -83.5z" />
    <glyph glyph-name="approxequal" unicode="&#x2248;" horiz-adv-x="1157" 
d="M1026 905c-22.667 -51.333 -56.334 -92.166 -101.001 -122.499s-94.334 -45.5 -149.001 -45.5c-34.667 0 -70.167 7 -106.5 21s-67.333 29.167 -93 45.5s-55.5 31.5 -89.5 45.5s-66 21 -96 21c-83.333 0 -145.333 -40.667 -186 -122l-72 94
c22.667 51.333 56.334 92.166 101.001 122.499s94.334 45.5 149.001 45.5c34.667 0 70.167 -7 106.5 -21s67.333 -29.167 93 -45.5s55.5 -31.5 89.5 -45.5s66 -21 96 -21c83.333 0 145.333 40.667 186 122zM1026 489c-22.667 -51.333 -56.1699 -91.999 -100.503 -121.999
s-94.166 -45 -149.499 -45c-34.667 0 -70.167 7 -106.5 21s-67.333 29.167 -93 45.5s-55.5 31.5 -89.5 45.5s-66 21 -96 21c-83.333 0 -145.333 -41 -186 -123l-72 94c22.667 51.333 56.334 92.166 101.001 122.499s94.334 45.5 149.001 45.5c34.667 0 70.167 -7 106.5 -21
s67.333 -29.167 93 -45.5s55.5 -31.5 89.5 -45.5s66 -21 96 -21c82.667 0 144.667 41 186 123z" />
    <glyph glyph-name="notequal" unicode="&#x2260;" horiz-adv-x="1157" 
d="M1012 389h-510l-127 -254l-92 45l104 209h-242v137h308l141 279h-449v137h517l116 236l92 -45l-94 -191h236v-137h-301l-144 -279h445v-137z" />
    <glyph glyph-name="lessequal" unicode="&#x2264;" horiz-adv-x="1157" 
d="M1012 336l-867 358v111l867 358v-143l-701 -270l701 -273v-141zM1012 0h-867v131h867v-131z" />
    <glyph glyph-name="greaterequal" unicode="&#x2265;" horiz-adv-x="1157" 
d="M1012 694l-867 -358v141l701 273l-701 270v143l867 -358v-111zM1012 0h-867v131h867v-131z" />
    <glyph glyph-name="dotmath" unicode="&#x22c5;" horiz-adv-x="516" 
d="M377 666c0 -33.333 -11.5 -61.5 -34.5 -84.5s-51.167 -34.5 -84.5 -34.5s-61.5 11.5 -84.5 34.5s-34.5 51.167 -34.5 84.5c0 32.667 11.5 60.5 34.5 83.5s51.167 34.5 84.5 34.5s61.5 -11.5 84.5 -34.5s34.5 -50.833 34.5 -83.5z" />
    <glyph glyph-name="nonmarkingreturn" horiz-adv-x="682" 
 />
    <glyph glyph-name="CR" horiz-adv-x="555" 
 />
    <glyph glyph-name="acute.lc" horiz-adv-x="1021" 
d="M784 1501l-204.001 -266h-127l151 266c29.333 31.333 64.333 47 105 47c18.667 0 34.834 -4.16699 48.501 -12.5s22.5 -19.833 26.5 -34.5z" />
    <glyph glyph-name="acute.uc" horiz-adv-x="1026" 
d="M784 1880l-204.001 -266h-127l151 266c29.333 31.333 64.333 47 105 47c18.667 0 34.834 -4.16699 48.501 -12.5s22.5 -19.833 26.5 -34.5z" />
    <glyph glyph-name="ascendercaron" 
d="M584 1454l-52 -321h-106v321c19.333 28.667 46 43 80 43c35.333 0 61.333 -14.333 78 -43z" />
    <glyph glyph-name="breve.lc" 
d="M594 1501c-5.33301 -85.333 -32.002 -152.333 -80.002 -201s-113.667 -73 -197 -73s-149.166 24.5 -197.499 73.5s-75.166 115.833 -80.499 200.5l106 19c9.33301 -60 27.833 -104.833 55.5 -134.5s66.5 -44.5 116.5 -44.5s88.5 14.833 115.5 44.5
s45.167 74.5 54.5 134.5z" />
    <glyph glyph-name="breve.uc" 
d="M573 1880c-5.33301 -85.333 -32 -152.333 -80 -201s-113.333 -73 -196 -73c-83.333 0 -149.333 24.5 -198 73.5s-75.667 115.833 -81 200.5l107 18c9.33301 -59.333 27.833 -103.833 55.5 -133.5s66.5 -44.5 116.5 -44.5s88.5 14.667 115.5 44s45.167 74 54.5 134z" />
    <glyph glyph-name="caron.lc" 
d="M594 1470l-205.001 -206c-23.333 -23.333 -47.333 -35 -72 -35c-25.333 0 -49.666 11.667 -72.999 35l-205 206l74 64l204 -180l203 180z" />
    <glyph glyph-name="caron.uc" horiz-adv-x="1024" 
d="M758 1849l-205 -207c-22.667 -22.667 -46.667 -34 -72 -34c-26 0 -50.333 11.333 -73 34l-205 207l73 64l205 -180l203 180z" />
    <glyph glyph-name="circumflex.lc" 
d="M594 1288l-73.999 -63l-203 180l-204 -180l-74 63l205 207c23.333 23.333 47.666 35 72.999 35c24.667 0 48.667 -11.667 72 -35z" />
    <glyph glyph-name="circumflex.uc" horiz-adv-x="841" 
d="M760 1667l-73.999 -63l-203 180l-204 -180l-74 63l205 207c23.333 23.333 47.666 35 72.999 35c24.667 0 48.667 -11.667 72 -35z" />
    <glyph glyph-name="diedot.lc" horiz-adv-x="1138" 
d="M487 1370c0 -25.333 -9.66699 -47.333 -29 -66s-42.333 -28 -69 -28s-49.667 9.33301 -69 28s-29 40.667 -29 66s9.66699 47.333 29 66s42.333 28 69 28s49.667 -9.33301 69 -28s29 -40.667 29 -66z" />
    <glyph glyph-name="diedot.uc" horiz-adv-x="1138" 
d="M592 1749c0 -25.333 -9.66699 -47.333 -29 -66s-42.333 -28 -69 -28s-49.834 9.33301 -69.501 28s-29.5 40.667 -29.5 66s9.83301 47.333 29.5 66s42.834 28 69.501 28s49.667 -9.33301 69 -28s29 -40.667 29 -66z" />
    <glyph glyph-name="dieresis.lc" 
d="M604 1370c0 -25.333 -9.66699 -47.333 -29 -66s-42.333 -28 -69 -28s-49.667 9.33301 -69 28s-29 40.667 -29 66s9.66699 47.333 29 66s42.333 28 69 28s49.667 -9.33301 69 -28s29 -40.667 29 -66zM225 1370c0 -25.333 -9.66699 -47.333 -29 -66s-42.333 -28 -69 -28
s-49.667 9.33301 -69 28s-29 40.667 -29 66s9.66699 47.333 29 66s42.333 28 69 28s49.667 -9.33301 69 -28s29 -40.667 29 -66z" />
    <glyph glyph-name="dieresis.uc" horiz-adv-x="1228" 
d="M932 1749c0 -25.333 -9.66699 -47.333 -29 -66s-42.333 -28 -69 -28s-49.834 9.33301 -69.501 28s-29.5 40.667 -29.5 66s9.83301 47.333 29.5 66s42.834 28 69.501 28s49.667 -9.33301 69 -28s29 -40.667 29 -66zM553 1749c0 -25.333 -9.66699 -47.333 -29 -66
s-42.333 -28 -69 -28s-49.834 9.33301 -69.501 28s-29.5 40.667 -29.5 66s9.83301 47.333 29.5 66s42.834 28 69.501 28s49.667 -9.33301 69 -28s29 -40.667 29 -66z" />
    <glyph glyph-name="dotaccent.lc" 
d="M393 1380c0 -28.667 -10.333 -52.833 -31 -72.5s-45.667 -29.5 -75 -29.5c-30 0 -55.667 10 -77 30s-32 44 -32 72c0 28.667 10.833 53 32.5 73s47.167 30 76.5 30s54.333 -10 75 -30s31 -44.333 31 -73z" />
    <glyph glyph-name="dotaccent.uc" 
d="M342 1759c0 -28.667 -10.333 -52.833 -31 -72.5s-45.667 -29.5 -75 -29.5c-30 0 -55.667 10 -77 30s-32 44 -32 72c0 28.667 10.833 53 32.5 73s47.167 30 76.5 30s54.333 -10 75 -30s31 -44.333 31 -73z" />
    <glyph glyph-name="grave.lc" 
d="M614 1235h-127.001l-204 266c4 14.667 12.833 26.167 26.5 34.5s29.834 12.5 48.501 12.5c40.667 0 75.667 -15.667 105 -47z" />
    <glyph glyph-name="grave.uc" 
d="M778 1614h-127l-205 266c4 14.667 13 26.167 27 34.5s30.333 12.5 49 12.5c40.667 0 75.667 -15.667 105 -47z" />
    <glyph glyph-name="hungarumlaut.lc" 
d="M655 1501l-202 -266h-109l158 266c27.333 31.333 58 47 92 47c32 0 52.333 -15.667 61 -47zM358 1501l-202 -266h-109l158 266c27.333 31.333 58 47 92 47c32 0 52.333 -15.667 61 -47z" />
    <glyph glyph-name="hungarumlaut.uc" 
d="M655 1880l-202 -266h-109l158 266c27.333 31.333 58 47 92 47c32 0 52.333 -15.667 61 -47zM358 1880l-202 -266h-109l158 266c27.333 31.333 58 47 92 47c32 0 52.333 -15.667 61 -47z" />
    <glyph glyph-name="macron.lc" 
d="M571 1294h-510v117h510v-117z" />
    <glyph glyph-name="macron.uc" 
d="M571 1673h-510v117h510v-117z" />
    <glyph glyph-name="ring.lc" 
d="M508 1405c0 -51.333 -18.667 -94.833 -56 -130.5s-82.333 -53.5 -135 -53.5c-53.333 0 -98.666 18 -135.999 54s-56 79.333 -56 130s18.667 93.667 56 129s82.666 53 135.999 53s98.5 -17.667 135.5 -53s55.5 -78.333 55.5 -129zM422 1405c0 28 -10.333 52 -31 72
s-45.334 30 -74.001 30s-53.5 -10 -74.5 -30s-31.5 -44 -31.5 -72c0 -28.667 10.5 -53.334 31.5 -74.001s45.833 -31 74.5 -31s53.334 10.333 74.001 31s31 45.334 31 74.001z" />
    <glyph glyph-name="ring.uc" 
d="M487 1784c0 -51.333 -18.5 -95 -55.5 -131s-81.833 -54 -134.5 -54c-53.333 0 -98.833 18.167 -136.5 54.5s-56.5 79.833 -56.5 130.5s18.833 93.667 56.5 129s83.167 53 136.5 53s98.333 -17.667 135 -53s55 -78.333 55 -129zM401 1784
c0 28.667 -10.167 52.833 -30.5 72.5s-44.833 29.5 -73.5 29.5s-53.667 -10 -75 -30s-32 -44 -32 -72c0 -28.667 10.667 -53.334 32 -74.001s46.333 -31 75 -31s53.167 10.333 73.5 31s30.5 45.334 30.5 74.001z" />
    <glyph glyph-name="tilde.lc" horiz-adv-x="1024" 
d="M842 1432c-7.33301 -50.667 -25.334 -92.5 -54.001 -125.5s-65.334 -49.5 -110.001 -49.5c-24 0 -46.5 5.33301 -67.5 16s-38 22.5 -51 35.5s-28 24.833 -45 35.5s-33.5 16 -49.5 16c-24.667 0 -45.167 -10 -61.5 -30s-27.166 -45.667 -32.499 -77l-88 54
c7.33301 50.667 25 92 53 124s64.667 48 110 48c24 0 46.5 -5.33301 67.5 -16s38 -22.167 51 -34.5s28 -23.833 45 -34.5s33.5 -16 49.5 -16c24.667 0 45.334 10.167 62.001 30.5s27.667 45.833 33 76.5z" />
    <glyph glyph-name="tilde.uc" horiz-adv-x="1226" 
d="M924 1810c-7.33301 -50.667 -25.334 -92.333 -54.001 -125s-65.334 -49 -110.001 -49c-24 0 -46.5 5.33301 -67.5 16s-38 22.5 -51 35.5s-28 24.833 -45 35.5s-33.5 16 -49.5 16c-24.667 0 -45.167 -10 -61.5 -30s-27.166 -45.667 -32.499 -77l-88 54
c7.33301 50.667 25 92 53 124s64.667 48 110 48c24 0 46.5 -5.33301 67.5 -16s38 -22.167 51 -34.5s28 -23.833 45 -34.5s33.5 -16 49.5 -16c24.667 0 45.334 10.167 62.001 30.5s27.667 45.833 33 76.5z" />
    <glyph glyph-name="tonos.lc" horiz-adv-x="585" 
d="M465 1509l-150 -274h-112l94 274c18.667 30 48.667 45 90 45c39.333 0 65.333 -15 78 -45z" />
    <glyph glyph-name="tonos.uc" horiz-adv-x="509" 
d="M162 1456l-56 -328h-106v328c18 27.333 45.333 41 82 41c37.333 0 64 -13.667 80 -41z" />
  </font>
</defs>
</svg>
